<svg xmlns="http://www.w3.org/2000/svg" viewBox="0 0 1081.245 175.848"><defs><style>.cls-1{fill:#0ea800;}.cls-2{fill:#005837;}</style></defs><g id="Layer_2" data-name="Layer 2"><g id="Artwork"><path class="cls-1" d="M451.4,115.617V71.983c0-26.665-16.409-34.31-37.48-34.31-22.563,0-37.294,11.747-37.48,31.14h17.342c-.187-9.7,6.153-15.1,20.511-15.1,15.477,0,19.952,6.713,19.952,13.053,0,5.221-1.119,8.018-10.255,9.7l-20.7,3.916c-18.087,3.357-31.326,11.561-31.326,30.581,0,17.528,14.544,27.784,30.767,27.784,14.358,0,25.546-4.848,32.818-14.731v2.051c0,6.713,3.916,10.256,11,10.256h13.612V122.143h-2.237C453.079,122.143,451.4,120.278,451.4,115.617ZM434.805,98.834c0,13.053-11,24.241-28.157,24.241-10.256,0-15.85-5.221-15.85-13.8,0-8.951,5.967-12.68,19.393-15.477l16.6-3.543a25.446,25.446,0,0,0,8.018-2.8Z"/><path class="cls-1" d="M43.447,2.617H0v133.7H41.769c41.21,0,68.434-28.157,68.434-66.943C110.2,25.739,78.876,2.617,43.447,2.617Zm-1.678,117.1H18.274V19.4H39.9c30.581,0,51.839,16.6,51.839,49.973S68.807,119.719,41.769,119.719Z"/><rect class="cls-1" x="470.973" y="40.144" width="16.689" height="96.16"/><path class="cls-1" d="M479.283,1.871A11.343,11.343,0,0,0,468.1,13.059,11.282,11.282,0,1,0,479.283,1.871Z"/><polygon class="cls-1" points="324.836 35.956 295.071 56.241 265.203 35.956 243.723 50.474 243.723 40.147 227.033 40.151 227.033 136.304 243.723 136.304 243.723 70.696 265.203 56.178 286.548 70.736 286.548 136.305 303.239 136.305 303.238 70.736 324.835 56.179 346.369 70.736 346.369 136.304 363.059 136.304 363.059 61.724 324.836 35.956"/><path class="cls-1" d="M167.821,37.627c-28.687,0-50.321,21.777-50.321,50.655s21.634,50.54,50.321,50.54,50.32-21.663,50.32-50.54S196.508,37.627,167.821,37.627Zm0,84.246A33.649,33.649,0,1,1,201.47,88.224,33.649,33.649,0,0,1,167.821,121.873Z"/><path class="cls-1" d="M547,37.673c-11.747,0-22.563,5.221-27.5,12.307V40.147H502.81v96.168H519.5V75.652a23.216,23.216,0,0,1,23.216-23.215c14.785,0,23.215,12.206,23.215,23.215v60.663h16.689V75.477C582.619,53.283,569.379,37.673,547,37.673Z"/><path class="cls-2" d="M611.291,70.115C611.291,31.328,634.787,0,674.32,0c32.447,0,52.4,16.6,56.876,45.5H713.48c-3.916-18.647-17.343-28.158-39.533-28.158-28.531,0-43.822,22.75-44.009,52.773.187,29.278,15.851,52.028,44.568,52.028,28.9,0,38.974-14.919,41.026-36.923h-39.72V68.81h57.062a30.29,30.29,0,0,1,.186,4.1c0,37.109-15.1,66.572-59.113,66.572C633.667,139.485,611.291,109.276,611.291,70.115Z"/><path class="cls-2" d="M747.169,40.092h16.038V51.84c5.593-8.2,15.477-13.612,27.412-13.612h7.086v16.41H788.94c-11.935,0-24.988,9.323-24.988,29.836v51.841H747.169Z"/><path class="cls-2" d="M797.569,88.2c0-27.786,17.529-50.536,44.941-50.536S887.637,59.486,887.637,88.2c0,27.785-17.528,50.535-45.127,50.535C815.1,138.739,797.569,117.108,797.569,88.2Zm73.286,0c0-20.513-11.189-34.871-28.345-34.871S814.352,67.691,814.352,88.2c0,20.7,11,34.871,28.158,34.871S870.855,108.9,870.855,88.2Z"/><path class="cls-2" d="M899.622,101.071V40.092h16.783l-.187,57.622c0,18.275,9.51,24.988,21.631,24.988,17.343,0,24.056-14.918,24.056-28.9V40.092h16.783v96.223H962.464v-9.7c-4.475,6.9-15.85,12.121-28.717,12.121C911.929,138.739,899.622,124.94,899.622,101.071Z"/><path class="cls-2" d="M1081.245,87.831c0,30.023-16.97,50.908-41.772,50.908-11.934,0-21.444-4.289-27.971-12.308l.373,49.417H995.092V40.092h16.224v9.884c6.9-8.392,16.782-12.308,28.717-12.308C1064.088,37.668,1081.245,58.367,1081.245,87.831Zm-16.784.186c0-19.767-9.7-34.684-25.733-34.684s-27.412,13.053-27.412,34.684c0,22.564,11.934,35.058,27.226,35.058C1054.765,123.075,1064.461,108.343,1064.461,88.017Z"/></g></g></svg>