<svg xmlns="http://www.w3.org/2000/svg" viewBox="0 0 582.619 136.951"><defs><style>.cls-1{fill:#0ea800;}</style></defs><g id="Layer_2" data-name="Layer 2"><g id="Artwork"><path class="cls-1" d="M451.4,113.746V70.112c0-26.665-16.409-34.31-37.48-34.31-22.563,0-37.294,11.748-37.48,31.14h17.342c-.187-9.7,6.153-15.1,20.511-15.1,15.477,0,19.952,6.713,19.952,13.053,0,5.221-1.119,8.018-10.255,9.7l-20.7,3.917c-18.087,3.356-31.326,11.561-31.326,30.58,0,17.529,14.544,27.784,30.767,27.784,14.358,0,25.546-4.848,32.818-14.731v2.052c0,6.712,3.916,10.255,11,10.255h13.612V120.272h-2.237C453.079,120.272,451.4,118.408,451.4,113.746ZM434.805,96.964c0,13.053-11,24.241-28.157,24.241-10.256,0-15.85-5.221-15.85-13.8,0-8.95,5.967-12.68,19.393-15.477l16.6-3.543a25.421,25.421,0,0,0,8.018-2.8Z"/><path class="cls-1" d="M43.447.746H0v133.7H41.769c41.21,0,68.434-28.157,68.434-66.942C110.2,23.868,78.876.746,43.447.746Zm-1.678,117.1H18.274V17.528H39.9c30.581,0,51.839,16.6,51.839,49.974S68.807,117.848,41.769,117.848Z"/><rect class="cls-1" x="470.973" y="38.274" width="16.689" height="96.16"/><path class="cls-1" d="M479.283,0A11.344,11.344,0,0,0,468.1,11.188,11.282,11.282,0,1,0,479.283,0Z"/><polygon class="cls-1" points="324.836 34.086 295.071 54.37 265.203 34.086 243.723 48.604 243.723 38.276 227.033 38.28 227.033 134.434 243.723 134.434 243.723 68.825 265.203 54.307 286.548 68.865 286.548 134.434 303.239 134.434 303.238 68.865 324.835 54.309 346.369 68.865 346.369 134.434 363.059 134.434 363.059 59.853 324.836 34.086"/><path class="cls-1" d="M167.821,35.756c-28.687,0-50.321,21.777-50.321,50.655s21.634,50.54,50.321,50.54,50.32-21.662,50.32-50.54S196.508,35.756,167.821,35.756Zm0,84.246A33.649,33.649,0,1,1,201.47,86.354,33.649,33.649,0,0,1,167.821,120Z"/><path class="cls-1" d="M547,35.8c-11.747,0-22.563,5.221-27.5,12.307V38.276H502.81v96.168H519.5V73.782a23.216,23.216,0,0,1,23.216-23.216c14.785,0,23.215,12.206,23.215,23.216v60.662h16.689V73.606C582.619,51.413,569.379,35.8,547,35.8Z"/></g></g></svg>