<svg width="243" height="34" fill="none" xmlns="http://www.w3.org/2000/svg"><path d="M23.129 2.01c6.32-2.719 13.673-.432 17.35 5.396a57.135 57.135 0 0 1-16.64 9.387 40.13 40.13 0 0 1-20.94 1.665 9.102 9.102 0 0 1 11.75-2.287c-.525-6.058 2.898-11.766 8.48-14.14v-.02Z" fill="#1691AE"/><path fill-rule="evenodd" clip-rule="evenodd" d="M37.999 10.886c.392-.331.803-.64 1.23-.923a75.145 75.145 0 0 1-12.74 10.962 47.964 47.964 0 0 1-23.68 8.605 9.338 9.338 0 0 1-1.64-7.341 42.594 42.594 0 0 0 21-2.187 54.682 54.682 0 0 0 15.83-9.116Z" fill="#7A7D8B"/><path fill-rule="evenodd" clip-rule="evenodd" d="M31.72 18.296c.43-.443.892-.855 1.38-1.233a72.161 72.161 0 0 1-5.38 6.127 69.265 69.265 0 0 1-11.23 9.358c-.44.27-.85.702-1.41.661h-4.9a9.027 9.027 0 0 1-4-.912 50.496 50.496 0 0 0 18.73-8.385 66.69 66.69 0 0 0 6.81-5.616Z" fill="#7A7D8B"/><path d="M50.929 25.869a9.099 9.099 0 0 1-3.56 5.556 8.723 8.723 0 0 1-2.37 1.244 6.725 6.725 0 0 1-2.15.46 8.42 8.42 0 0 1-.85.091h-20.62c5.62-4.012 10.95-10.962 14.69-16.528a62.804 62.804 0 0 0 5.13-8.344 14.326 14.326 0 0 1 1.67 6.67 9.094 9.094 0 0 1 6.407 3.666 9.148 9.148 0 0 1 1.593 7.225l.06-.04ZM72.669 15.059h2.82v15.043h-1.75l-7.86-10.14v10.11h-2.82V15.08h2.29l7.32 9.297v-9.317ZM91.189 15.098v8.595c0 4.433-2.71 6.71-6.47 6.71-3.59 0-6.64-2.187-6.64-6.71v-8.595h2.79v8.595c0 2.697 1.54 4.132 3.87 4.132s3.65-1.565 3.65-4.132v-8.595h2.8Z" fill="#1691AE"/><path fill-rule="evenodd" clip-rule="evenodd" d="M103.86 30.071h3.35l.03-.2-4.53-5.115a4.45 4.45 0 0 0 3.79-4.714c0-2.638-1.86-5.015-5.39-5.015H94v15.044h2.79v-5.015h2.71l4.36 5.015Zm-7.07-7.562v-4.794h4.29a2.398 2.398 0 0 1 2.26 1.13 2.412 2.412 0 0 1 0 2.534 2.398 2.398 0 0 1-2.26 1.13h-4.29Z" fill="#1691AE"/><path d="M112.889 17.656h-4.74v-2.578h12.31v2.578h-4.75v12.416h-2.82V17.656ZM135.729 15.098v8.595c0 4.433-2.71 6.71-6.47 6.71-3.59 0-6.65-2.187-6.65-6.71v-8.595h2.8v8.595c0 2.697 1.54 4.132 3.87 4.132s3.65-1.565 3.65-4.132v-8.595h2.8Z" fill="#1691AE"/><path fill-rule="evenodd" clip-rule="evenodd" d="M148.399 30.071h3.35v-.2l-4.53-5.115a4.45 4.45 0 0 0 3.78-4.714c0-2.638-1.86-5.015-5.38-5.015h-7.11v15.044h2.82v-5.015h2.71l4.36 5.015Zm-7.07-7.562v-4.794h4.29a2.398 2.398 0 0 1 2.26 1.13 2.416 2.416 0 0 1 0 2.534 2.398 2.398 0 0 1-2.26 1.13h-4.29Z" fill="#1691AE"/><path d="M164.049 30.072h-11.19V15.078h11.19v2.748h-8.39v3.45h8.09v2.628h-8.09v3.39h8.39v2.778Z" fill="#1691AE"/><path fill-rule="evenodd" clip-rule="evenodd" d="M183.729 28.205a7.877 7.877 0 0 1-5.73 2.217c-5.55 0-7.9-3.841-7.92-7.733a7.565 7.565 0 0 1 2.206-5.722 7.52 7.52 0 0 1 5.714-2.19 7.68 7.68 0 0 1 5.49 2.296l-1.88 1.815a5.123 5.123 0 0 0-3.61-1.414 4.893 4.893 0 0 0-3.735 1.453 4.921 4.921 0 0 0-1.405 3.762 4.81 4.81 0 0 0 1.421 3.708 4.783 4.783 0 0 0 3.719 1.367 5.493 5.493 0 0 0 3.8-1.564l1.93 2.005ZM187.91 15.078v12.386h7.69v2.608h-10.51V15.078h2.82ZM211.84 22.66c-.05 3.882-2.42 7.763-7.67 7.763s-7.69-3.791-7.69-7.733c0-3.941 2.52-7.913 7.69-7.913s7.71 3.962 7.67 7.883Zm-12.58.07c.06 2.458 1.38 5.095 4.91 5.095 3.53 0 4.85-2.657 4.89-5.115.04-2.457-1.37-5.355-4.89-5.355-3.52 0-4.98 2.828-4.91 5.375ZM226.997 15.098v8.595c0 4.433-2.71 6.71-6.47 6.71-3.59 0-6.64-2.187-6.64-6.71v-8.595h2.8v8.595c0 2.697 1.54 4.132 3.86 4.132s3.66-1.565 3.66-4.132v-8.595h2.79ZM242.94 22.45c.06 3.79-2.24 7.622-7.48 7.622h-5.87V15.078h5.87c5.13 0 7.41 3.66 7.48 7.372Zm-10.55 4.904h3.07c3.4 0 4.74-2.487 4.68-4.924a4.47 4.47 0 0 0-1.305-3.38 4.443 4.443 0 0 0-3.375-1.294h-3.07v9.598Z" fill="#7A7D8B"/></svg>