<?xml version="1.0" encoding="UTF-8" standalone="no"?>
<!DOCTYPE svg PUBLIC "-//W3C//DTD SVG 1.1//EN" "http://www.w3.org/Graphics/SVG/1.1/DTD/svg11.dtd">
<svg width="100%" height="100%" viewBox="0 0 270 101" version="1.1" xmlns="http://www.w3.org/2000/svg" xmlns:xlink="http://www.w3.org/1999/xlink" xml:space="preserve" xmlns:serif="http://www.serif.com/" style="fill-rule:evenodd;clip-rule:evenodd;stroke-linejoin:round;stroke-miterlimit:2;">
    <g transform="matrix(1,0,0,1,-224.667,-3354.71)">
        <g transform="matrix(0.404526,0,0,0.404526,-444.235,3117.25)">
            <g id="Arrow_4">
                <g transform="matrix(1.125,0,0,0.985953,-224.409,7.05531)">
                    <rect x="1776.38" y="690.039" width="18.898" height="148.543"/>
                </g>
                <g transform="matrix(1,0,0,1,2.27374e-13,-3.54331)">
                    <path d="M1771.65,590.551L1724.41,637.795L1748.03,637.795L1795.28,685.039L1795.28,637.795L1818.9,637.795L1771.65,590.551Z"/>
                </g>
            </g>
            <g id="Arrow_3">
                <g transform="matrix(1.125,0,0,0.64405,-248.031,293.769)">
                    <rect x="1776.38" y="690.039" width="18.898" height="148.543"/>
                </g>
                <g transform="matrix(1,0,0,1,-23.622,47.2441)">
                    <path d="M1771.65,590.551L1724.41,637.795L1748.03,637.795L1795.28,685.039L1795.28,637.795L1818.9,637.795L1771.65,590.551Z"/>
                </g>
            </g>
            <g id="Arrow_2">
                <g transform="matrix(1,0,0,1,-47.2441,98.0315)">
                    <path d="M1771.65,590.551L1724.41,637.795L1748.03,637.795L1795.28,685.039L1795.28,637.795L1818.9,637.795L1771.65,590.551Z"/>
                </g>
                <g transform="matrix(1.125,0,0,0.302147,-271.654,580.483)">
                    <rect x="1776.38" y="690.039" width="18.898" height="148.543"/>
                </g>
            </g>
            <g id="Arrow_1" transform="matrix(1,0,0,1,-70.8661,148.819)">
                <path d="M1771.65,590.551L1724.41,637.795L1748.03,637.795L1748.03,685.039L1795.28,685.039L1795.28,637.795L1818.9,637.795L1771.65,590.551Z"/>
            </g>
        </g>
        <g transform="matrix(0.771082,0,0,0.78743,-167.249,1496.17)">
            <path d="M584.011,2411.83L591.45,2411.83L600.346,2427.92L600.701,2427.92L609.597,2411.83L617.036,2411.83L603.808,2434.63L603.808,2448.19L597.239,2448.19L597.239,2434.63L584.011,2411.83Z" style="fill-rule:nonzero;"/>
            <rect x="616.924" y="2411.83" width="6.587" height="36.364" style="fill-rule:nonzero;"/>
            <path d="M624.917,2411.83L632.978,2411.83L643.773,2438.18L644.199,2438.18L654.995,2411.83L663.056,2411.83L663.056,2448.19L656.735,2448.19L656.735,2423.21L656.397,2423.21L646.348,2448.09L641.625,2448.09L631.575,2423.16L631.238,2423.16L631.238,2448.19L624.917,2448.19L624.917,2411.83Z" style="fill-rule:nonzero;"/>
            <path d="M664.479,2448.19L664.479,2411.83L678.4,2411.83C681.027,2411.83 683.214,2412.24 684.96,2413.06C686.706,2413.89 688.014,2415.01 688.884,2416.43C689.754,2417.85 690.189,2419.46 690.189,2421.26C690.189,2422.74 689.905,2424 689.337,2425.05C688.769,2426.1 688.005,2426.95 687.047,2427.6C686.088,2428.25 685.016,2428.72 683.833,2429L683.833,2429.36C685.123,2429.43 686.363,2429.82 687.553,2430.54C688.742,2431.25 689.716,2432.26 690.473,2433.56C691.231,2434.87 691.61,2436.44 691.61,2438.29C691.61,2440.17 691.154,2441.86 690.243,2443.36C689.331,2444.85 687.958,2446.03 686.123,2446.9C684.289,2447.76 681.98,2448.19 679.199,2448.19L664.479,2448.19ZM671.066,2442.69L678.151,2442.69C680.542,2442.69 682.267,2442.23 683.327,2441.31C684.386,2440.4 684.916,2439.22 684.916,2437.77C684.916,2436.69 684.65,2435.72 684.117,2434.85C683.584,2433.98 682.827,2433.29 681.844,2432.79C680.862,2432.29 679.69,2432.04 678.329,2432.04L671.066,2432.04L671.066,2442.69ZM671.066,2427.3L677.583,2427.3C678.719,2427.3 679.743,2427.09 680.655,2426.66C681.566,2426.24 682.285,2425.65 682.812,2424.87C683.339,2424.1 683.602,2423.18 683.602,2422.11C683.602,2420.7 683.108,2419.54 682.119,2418.63C681.131,2417.72 679.666,2417.26 677.725,2417.26L671.066,2417.26L671.066,2427.3Z" style="fill-rule:nonzero;"/>
            <path d="M688.359,2411.83L695.799,2411.83L704.694,2427.92L705.049,2427.92L713.945,2411.83L721.385,2411.83L708.157,2434.63L708.157,2448.19L701.587,2448.19L701.587,2434.63L688.359,2411.83Z" style="fill-rule:nonzero;"/>
        </g>
        <g transform="matrix(0.798011,0,0,0.81493,-184.96,1459.46)">
            <path d="M586.496,2411.83L594.557,2411.83L605.353,2438.18L605.779,2438.18L616.575,2411.83L624.636,2411.83L624.636,2448.19L618.315,2448.19L618.315,2423.21L617.977,2423.21L607.928,2448.09L603.205,2448.09L593.155,2423.16L592.817,2423.16L592.817,2448.19L586.496,2448.19L586.496,2411.83Z" style="fill-rule:nonzero;"/>
            <path d="M626.059,2448.19L626.059,2411.83L649.709,2411.83L649.709,2417.35L632.646,2417.35L632.646,2427.22L648.484,2427.22L648.484,2432.75L632.646,2432.75L632.646,2442.67L649.852,2442.67L649.852,2448.19L626.059,2448.19Z" style="fill-rule:nonzero;"/>
            <path d="M651.189,2448.19L651.189,2411.83L657.776,2411.83L657.776,2442.67L673.792,2442.67L673.792,2448.19L651.189,2448.19Z" style="fill-rule:nonzero;"/>
            <path d="M675.141,2448.19L675.141,2411.83L689.062,2411.83C691.69,2411.83 693.877,2412.24 695.623,2413.06C697.369,2413.89 698.677,2415.01 699.547,2416.43C700.417,2417.85 700.852,2419.46 700.852,2421.26C700.852,2422.74 700.568,2424 699.999,2425.05C699.431,2426.1 698.668,2426.95 697.709,2427.6C696.75,2428.25 695.679,2428.72 694.495,2429L694.495,2429.36C695.785,2429.43 697.025,2429.82 698.215,2430.54C699.405,2431.25 700.378,2432.26 701.136,2433.56C701.893,2434.87 702.272,2436.44 702.272,2438.29C702.272,2440.17 701.816,2441.86 700.905,2443.36C699.993,2444.85 698.62,2446.03 696.786,2446.9C694.951,2447.76 692.643,2448.19 689.861,2448.19L675.141,2448.19ZM681.729,2442.69L688.813,2442.69C691.204,2442.69 692.93,2442.23 693.989,2441.31C695.049,2440.4 695.578,2439.22 695.578,2437.77C695.578,2436.69 695.312,2435.72 694.779,2434.85C694.247,2433.98 693.489,2433.29 692.506,2432.79C691.524,2432.29 690.352,2432.04 688.991,2432.04L681.729,2432.04L681.729,2442.69ZM681.729,2427.3L688.245,2427.3C689.381,2427.3 690.405,2427.09 691.317,2426.66C692.228,2426.24 692.947,2425.65 693.474,2424.87C694.001,2424.1 694.264,2423.18 694.264,2422.11C694.264,2420.7 693.77,2419.54 692.782,2418.63C691.793,2417.72 690.328,2417.26 688.387,2417.26L681.729,2417.26L681.729,2427.3Z" style="fill-rule:nonzero;"/>
            <g transform="matrix(1,0,0,1,0.299581,0)">
                <path d="M735.5,2430.01C735.5,2433.93 734.769,2437.28 733.307,2440.07C731.845,2442.86 729.857,2444.99 727.341,2446.47C724.826,2447.95 721.976,2448.69 718.792,2448.69C715.608,2448.69 712.758,2447.95 710.243,2446.46C707.727,2444.98 705.739,2442.84 704.277,2440.05C702.815,2437.26 702.084,2433.92 702.084,2430.01C702.084,2426.09 702.815,2422.74 704.277,2419.95C705.739,2417.17 707.727,2415.03 710.243,2413.55C712.758,2412.07 715.608,2411.33 718.792,2411.33C721.976,2411.33 724.826,2412.07 727.341,2413.55C729.857,2415.03 731.845,2417.17 733.307,2419.95C734.769,2422.74 735.5,2426.09 735.5,2430.01ZM728.877,2430.01C728.877,2427.25 728.448,2424.93 727.59,2423.03C726.732,2421.13 725.545,2419.69 724.03,2418.71C722.515,2417.73 720.769,2417.25 718.792,2417.25C716.815,2417.25 715.069,2417.73 713.554,2418.71C712.039,2419.69 710.852,2421.13 709.994,2423.03C709.136,2424.93 708.707,2427.25 708.707,2430.01C708.707,2432.77 709.136,2435.1 709.994,2437C710.852,2438.9 712.039,2440.34 713.554,2441.31C715.069,2442.29 716.815,2442.78 718.792,2442.78C720.769,2442.78 722.515,2442.29 724.03,2441.31C725.545,2440.34 726.732,2438.9 727.59,2437C728.448,2435.1 728.877,2432.77 728.877,2430.01Z" style="fill-rule:nonzero;"/>
            </g>
            <g transform="matrix(1,0,0,1,0.785275,0)">
                <path d="M759.123,2411.83L765.71,2411.83L765.71,2435.59C765.71,2438.19 765.097,2440.48 763.872,2442.46C762.647,2444.44 760.928,2445.98 758.714,2447.08C756.501,2448.19 753.914,2448.74 750.955,2448.74C747.984,2448.74 745.392,2448.19 743.178,2447.08C740.965,2445.98 739.248,2444.44 738.029,2442.46C736.81,2440.48 736.2,2438.19 736.2,2435.59L736.2,2411.83L742.787,2411.83L742.787,2435.04C742.787,2436.55 743.122,2437.9 743.791,2439.09C744.459,2440.27 745.403,2441.2 746.623,2441.86C747.842,2442.53 749.286,2442.87 750.955,2442.87C752.624,2442.87 754.071,2442.53 755.296,2441.86C756.521,2441.2 757.465,2440.27 758.128,2439.09C758.791,2437.9 759.123,2436.55 759.123,2435.04L759.123,2411.83Z" style="fill-rule:nonzero;"/>
            </g>
            <g transform="matrix(1,0,0,1,0.785275,0)">
                <path d="M767.183,2448.19L767.183,2411.83L780.82,2411.83C783.613,2411.83 785.96,2412.32 787.86,2413.29C789.76,2414.26 791.198,2415.62 792.174,2417.36C793.151,2419.11 793.639,2421.14 793.639,2423.46C793.639,2425.79 793.145,2427.81 792.157,2429.52C791.168,2431.23 789.715,2432.55 787.798,2433.48C785.88,2434.41 783.524,2434.88 780.731,2434.88L771.019,2434.88L771.019,2429.41L779.843,2429.41C781.477,2429.41 782.814,2429.18 783.856,2428.72C784.898,2428.27 785.67,2427.6 786.173,2426.72C786.676,2425.84 786.928,2424.75 786.928,2423.46C786.928,2422.17 786.673,2421.07 786.164,2420.15C785.655,2419.23 784.88,2418.53 783.838,2418.05C782.797,2417.57 781.453,2417.34 779.808,2417.34L773.771,2417.34L773.771,2448.19L767.183,2448.19ZM785.969,2431.72L794.971,2448.19L787.62,2448.19L778.778,2431.72L785.969,2431.72Z" style="fill-rule:nonzero;"/>
            </g>
            <g transform="matrix(1,0,0,1,0.785275,0)">
                <path d="M824.595,2411.83L824.595,2448.19L818.735,2448.19L801.601,2423.43L801.299,2423.43L801.299,2448.19L794.712,2448.19L794.712,2411.83L800.607,2411.83L817.723,2436.62L818.043,2436.62L818.043,2411.83L824.595,2411.83Z" style="fill-rule:nonzero;"/>
            </g>
            <g transform="matrix(1,0,0,1,0.785275,0)">
                <path d="M826.15,2448.19L826.15,2411.83L849.801,2411.83L849.801,2417.35L832.737,2417.35L832.737,2427.22L848.576,2427.22L848.576,2432.75L832.737,2432.75L832.737,2442.67L849.943,2442.67L849.943,2448.19L826.15,2448.19Z" style="fill-rule:nonzero;"/>
            </g>
        </g>
    </g>
</svg>
