<svg width="601" height="488" viewBox="0 0 601 488" fill="none" xmlns="http://www.w3.org/2000/svg">
<path d="M475.619 66.2503H415.421C408.035 66.2503 402.004 60.274 402.004 52.8296C402.004 45.4472 407.978 39.4141 415.421 39.4141H489.263C499.295 39.4141 507.414 47.5306 507.414 57.5702C507.414 67.6047 499.295 75.7212 489.263 75.7212H434.47" stroke="#FFA0DC" stroke-linecap="round" stroke-linejoin="round"/>
<path d="M405.149 94.6738L441.358 94.7048C443.321 94.7048 445.265 95.0874 447.079 95.837C448.893 96.5918 450.541 97.693 451.926 99.0888C453.312 100.474 454.412 102.129 455.157 103.943C455.901 105.758 456.283 107.707 456.273 109.671L456.242 145.891C456.247 147.855 455.859 149.799 455.11 151.613C454.356 153.428 453.255 155.077 451.864 156.463C450.474 157.848 448.826 158.949 447.006 159.694C445.192 160.438 443.244 160.821 441.285 160.81L405.077 160.779C403.113 160.785 401.17 160.397 399.356 159.647C397.537 158.893 395.893 157.791 394.503 156.401C393.118 155.01 392.022 153.361 391.278 151.541C390.529 149.727 390.146 147.778 390.156 145.818L390.187 109.599C390.208 105.639 391.79 101.849 394.596 99.0578C397.397 96.2609 401.19 94.6842 405.149 94.6738Z" fill="#61CCFF"/>
<path d="M416.078 118.807L406.559 128.329" stroke="#010202" stroke-linecap="round" stroke-linejoin="round"/>
<path d="M406.559 118.807L416.078 128.329" stroke="#010202" stroke-linecap="round" stroke-linejoin="round"/>
<path d="M440.297 118.822L430.777 128.34" stroke="#010202" stroke-linecap="round" stroke-linejoin="round"/>
<path d="M430.777 118.816L440.338 128.375" stroke="#010202" stroke-linecap="round" stroke-linejoin="round"/>
<path d="M419.254 139.417L427.657 139.396" stroke="#010202" stroke-linecap="round" stroke-linejoin="round"/>
<path opacity="0.2" d="M145.298 283.834H280.688C286.198 283.834 290.627 288.295 290.627 293.801V397.026C290.627 402.537 286.167 406.967 280.688 406.967H145.298C139.788 406.967 135.328 402.506 135.328 397.026V293.801C135.359 288.295 139.788 283.834 145.298 283.834Z" fill="black"/>
<path d="M140.376 278.912H275.772C281.276 278.912 285.705 283.374 285.705 288.885V392.109C285.705 397.62 281.245 402.045 275.772 402.045H140.376C134.866 402.045 130.406 397.584 130.406 392.109V288.885C130.442 283.374 134.866 278.912 140.376 278.912Z" fill="#61CCFF"/>
<path d="M152.445 291.672H195.237C197.759 291.672 199.827 293.74 199.827 296.263V296.459C199.827 298.987 197.759 301.055 195.237 301.055H152.445C149.918 301.055 147.855 298.987 147.855 296.459V296.263C147.855 293.74 149.918 291.672 152.445 291.672Z" fill="white"/>
<path d="M258.097 291.672H285.706V301.055H258.097C255.57 301.055 253.508 298.987 253.508 296.459V296.263C253.508 293.74 255.57 291.672 258.097 291.672Z" fill="white"/>
<path d="M188.352 335.459H202.647C205.17 335.459 207.237 337.527 207.237 340.055V340.251C207.237 342.774 205.17 344.842 202.647 344.842H188.352C185.825 344.842 183.758 342.774 183.758 340.251V340.055C183.758 337.496 185.825 335.459 188.352 335.459Z" fill="#3C2C5B"/>
<path d="M174.249 379.252H188.55C191.072 379.252 193.139 381.315 193.139 383.843V384.039C193.139 386.562 191.072 388.63 188.55 388.63H174.249C171.727 388.63 169.66 386.562 169.66 384.039V383.843C169.66 381.284 171.727 379.252 174.249 379.252Z" fill="#3C2C5B"/>
<path d="M205.464 379.252H233.176C235.698 379.252 237.765 381.315 237.765 383.843V384.039C237.765 386.562 235.698 388.63 233.176 388.63H205.464C202.942 388.63 200.875 386.562 200.875 384.039V383.843C200.875 381.284 202.911 379.252 205.464 379.252Z" fill="#3C2C5B"/>
<path d="M188.352 357.338H237.176C239.698 357.338 241.765 359.406 241.765 361.934V362.13C241.765 364.653 239.698 366.721 237.176 366.721H188.352C185.825 366.721 183.758 364.653 183.758 362.13V361.934C183.758 359.406 185.825 357.338 188.352 357.338Z" fill="#FFA0DC"/>
<path d="M152.445 313.549H195.237C197.759 313.549 199.827 315.617 199.827 318.14V318.336C199.827 320.864 197.759 322.932 195.237 322.932H152.445C149.918 322.932 147.855 320.864 147.855 318.336V318.14C147.855 315.617 149.918 313.549 152.445 313.549Z" fill="#9E76DD"/>
<path d="M217.863 313.482H239.538C242.06 313.482 244.127 315.55 244.127 318.078V318.275C244.127 320.798 242.06 322.866 239.538 322.866H217.863C215.336 322.866 213.273 320.798 213.273 318.275V318.078C213.273 315.519 215.336 313.482 217.863 313.482Z" fill="#9E76DD"/>
<path d="M140.376 278.912H158.935V402.045H140.376C134.866 402.045 130.406 397.584 130.406 392.109V288.885C130.406 283.374 134.866 278.912 140.376 278.912Z" fill="#61CCFF"/>
<path opacity="0.2" d="M140.376 278.912H158.935V402.045H140.376C134.866 402.045 130.406 397.584 130.406 392.109V288.885C130.406 283.374 134.866 278.912 140.376 278.912Z" fill="#07AFFF"/>
<path d="M285.705 307.119H159.266" stroke="#3DC0FF" stroke-linejoin="round"/>
<path d="M285.705 329.26H159.266" stroke="#3DC0FF" stroke-linejoin="round"/>
<path d="M285.705 351.729H159.266" stroke="#3DC0FF" stroke-linejoin="round"/>
<path d="M285.705 372.852H159.266" stroke="#3DC0FF" stroke-linejoin="round"/>
<path d="M158.934 278.912V402.045" stroke="black" stroke-linejoin="round"/>
<path d="M141.492 296.359H147.854" stroke="black" stroke-linecap="round" stroke-linejoin="round"/>
<path d="M141.492 318.176H147.854" stroke="black" stroke-linecap="round" stroke-linejoin="round"/>
<path d="M141.492 339.988H147.854" stroke="black" stroke-linecap="round" stroke-linejoin="round"/>
<path d="M141.492 362.129H147.854" stroke="black" stroke-linecap="round" stroke-linejoin="round"/>
<path d="M141.492 383.941H147.854" stroke="black" stroke-linecap="round" stroke-linejoin="round"/>
<path d="M17.3082 198.756C12.7189 198.746 8.32075 196.921 5.07514 193.674C1.82952 190.428 0 186.028 0 181.438V17.3187C0 12.7279 1.82952 8.32847 5.07514 5.08187C8.32075 1.83526 12.7189 0.00516975 17.3082 0H230.175C234.764 0.00516975 239.163 1.83526 242.408 5.08187C245.654 8.32847 247.478 12.7279 247.483 17.3187V181.438C247.478 186.028 245.654 190.428 242.408 193.674C239.163 196.921 234.764 198.746 230.175 198.756H17.3082Z" fill="#CECECE"/>
<path d="M0.0117188 37.2012H248.25" stroke="#E1E1E1"/>
<path d="M18.2132 24.8041C21.8464 24.8041 24.7974 21.8573 24.7974 18.223C24.7974 14.5835 21.8464 11.6367 18.2132 11.6367C14.5748 11.6367 11.6289 14.5835 11.6289 18.223C11.6289 21.8573 14.5748 24.8041 18.2132 24.8041Z" fill="#E1E1E1"/>
<path d="M38.1624 24.8041C41.8008 24.8041 44.7466 21.8573 44.7466 18.223C44.7466 14.5835 41.8008 11.6367 38.1624 11.6367C34.5292 11.6367 31.5781 14.5835 31.5781 18.223C31.5781 21.8573 34.5292 24.8041 38.1624 24.8041Z" fill="#E1E1E1"/>
<path d="M58.1116 24.8041C61.75 24.8041 64.6959 21.8573 64.6959 18.223C64.6959 14.5835 61.75 11.6367 58.1116 11.6367C54.4784 11.6367 51.5273 14.5835 51.5273 18.223C51.5273 21.8573 54.4784 24.8041 58.1116 24.8041Z" fill="#E1E1E1"/>
<path d="M414.837 231.031H526.273C531.534 231.036 536.578 233.125 540.299 236.847C544.02 240.569 546.108 245.615 546.114 250.878V263.079C546.108 268.341 544.02 273.392 540.299 277.109C536.578 280.831 531.534 282.925 526.273 282.925H414.837C409.576 282.925 404.531 280.831 400.81 277.109C397.089 273.392 395.001 268.341 394.996 263.079V250.878C395.001 245.615 397.089 240.569 400.81 236.847C404.531 233.125 409.576 231.036 414.837 231.031Z" fill="#FFA0DC"/>
<path d="M422.765 267.075C428.362 267.075 432.9 262.536 432.9 256.932C432.9 251.333 428.362 246.789 422.765 246.789C417.163 246.789 412.625 251.333 412.625 256.932C412.625 262.536 417.163 267.075 422.765 267.075Z" stroke="white" stroke-linecap="round" stroke-linejoin="round"/>
<path d="M429.938 264.113L433.023 267.2" stroke="white" stroke-linecap="round" stroke-linejoin="round"/>
<path d="M445.691 265.73H525.555" stroke="white" stroke-linecap="round" stroke-linejoin="round"/>
<path d="M507.052 127.946L485.149 163.256C482.012 168.307 481.118 174.428 482.648 180.171L493 218.919C496.09 230.504 507.998 237.416 519.6 234.304L569.23 221.064C580.833 217.978 587.722 206.061 584.637 194.455L574.28 155.703C572.75 149.964 568.9 145.089 563.669 142.287L527.099 122.591C520.034 118.817 511.264 121.138 507.052 127.946Z" fill="white"/>
<path d="M517.817 128.075C519.807 127.537 521.921 127.796 523.761 128.763L560.331 148.459C563.85 150.372 566.424 153.639 567.473 157.517L577.825 196.29C579.918 204.148 575.251 212.182 567.421 214.301L517.766 227.515C509.91 229.609 501.879 224.941 499.76 217.109L489.434 178.356C488.41 174.479 489.025 170.374 491.113 166.952L512.995 131.647C514.091 129.884 515.802 128.613 517.817 128.075ZM516.003 121.287C512.282 122.285 509.093 124.658 507.052 127.946L485.149 163.255C482.012 168.306 481.118 174.427 482.648 180.171L493 218.918C496.09 230.503 507.998 237.415 519.6 234.303L569.23 221.063C580.833 217.977 587.722 206.061 584.637 194.455L574.28 155.702C572.75 149.964 568.9 145.089 563.669 142.287L527.099 122.59C523.683 120.755 519.729 120.295 516.003 121.287Z" fill="#61CCFF"/>
<path opacity="0.2" d="M549.835 161.57L498.262 175.337L511.384 224.533L562.957 210.771L549.835 161.57Z" fill="#616161"/>
<path d="M553.018 156.391L501.445 170.158L514.567 219.353L566.146 205.591L553.018 156.391Z" fill="white"/>
<path d="M535.971 196.165L482.367 179.146L492.972 218.891C496.063 230.477 507.97 237.389 519.573 234.277L569.177 221.037C580.78 217.951 587.669 206.034 584.583 194.454L573.973 154.709L535.971 196.165Z" fill="#61CCFF"/>
<path d="M532.784 184.225L495.578 224.864C500.653 232.924 510.369 236.754 519.574 234.304L569.178 221.038C578.388 218.588 584.915 210.425 585.298 200.907L532.784 184.225Z" fill="#61CCFF"/>
<path d="M531.13 211.392L547.756 206.956C550.102 206.32 552.5 207.721 553.136 210.068C553.777 212.415 552.371 214.814 550.024 215.45L533.398 219.891C531.052 220.527 528.654 219.126 528.018 216.779C527.377 214.406 528.783 212.007 531.13 211.392Z" fill="white"/>
<path d="M534.293 215.066L546.836 211.727" stroke="#181818" stroke-linecap="round" stroke-linejoin="round"/>
<path d="M495.555 225.045L524.781 192.744" stroke="#181818" stroke-linecap="round" stroke-linejoin="round"/>
<path d="M543.879 187.744L585.09 200.808" stroke="#181818" stroke-linecap="round" stroke-linejoin="round"/>
<path d="M489.939 180.78L482.926 178.66" stroke="#181818" stroke-linecap="round" stroke-linejoin="round"/>
<path d="M568.285 160.117L573.489 154.787" stroke="#181818" stroke-linecap="round" stroke-linejoin="round"/>
<path d="M549.296 106.656H588.052C589.644 106.656 591.221 106.972 592.699 107.582C594.172 108.192 595.51 109.086 596.637 110.213C597.763 111.34 598.658 112.679 599.267 114.158C599.877 115.631 600.192 117.208 600.192 118.805V134.738C600.192 136.331 599.877 137.913 599.267 139.386C598.658 140.859 597.763 142.198 596.637 143.325C595.51 144.457 594.172 145.352 592.699 145.962C591.221 146.572 589.644 146.882 588.052 146.882H549.296C547.704 146.882 546.128 146.572 544.65 145.962C543.177 145.352 541.839 144.457 540.712 143.325C539.585 142.198 538.691 140.859 538.081 139.386C537.472 137.913 537.156 136.331 537.156 134.738V118.805C537.156 117.208 537.472 115.631 538.081 114.158C538.691 112.679 539.585 111.34 540.712 110.213C541.839 109.086 543.177 108.192 544.65 107.582C546.128 106.972 547.704 106.656 549.296 106.656Z" fill="#3C2C5B"/>
<path d="M559.476 135.468L549.48 126.886L559.476 118.346" stroke="#E3E3E3" stroke-linecap="round" stroke-linejoin="round"/>
<path d="M577.824 118.346L587.82 126.886L577.824 135.468" stroke="#E3E3E3" stroke-linecap="round" stroke-linejoin="round"/>
<path d="M571.524 117.797L565.777 135.695" stroke="#E3E3E3" stroke-linecap="round" stroke-linejoin="round"/>
<path d="M130.052 444.283C148.27 444.283 163.036 429.513 163.036 411.295C163.036 393.077 148.27 378.307 130.052 378.307C111.84 378.307 97.0742 393.077 97.0742 411.295C97.0742 429.513 111.84 444.283 130.052 444.283Z" fill="#3C2C5B"/>
<path d="M130.051 431.162C141.023 431.162 149.913 422.265 149.913 411.295C149.913 400.32 141.023 391.428 130.051 391.428C119.085 391.428 110.195 400.32 110.195 411.295C110.195 422.265 119.085 431.162 130.051 431.162Z" fill="#754DC3"/>
<path d="M136.795 400.641L130.051 411.295L135.028 417.67" stroke="black" stroke-linecap="round" stroke-linejoin="round"/>
<path d="M130.036 277.801L129.799 244.089L137.499 251.989C142.455 251.482 147.376 252.144 151.996 253.995L151.355 243.205L163.04 246.436L163.593 239.499C157.309 233.755 149.091 230.57 140.579 230.586C121.695 230.586 106.387 245.899 106.387 264.784C106.371 275.346 111.266 285.323 119.607 291.796L116.408 272.957L130.036 277.801Z" fill="#FF4F32"/>
<path d="M133.851 265.368C137.128 264.081 140.761 263.797 144.208 264.464L137.882 257.939C136.492 258.1 135.18 258.4 133.82 258.777L133.851 265.368Z" fill="#FF4F32"/>
<path d="M167.231 243.314L166.585 251.441L155.598 248.396L157.308 277.864L151.272 271.696L149.246 273.418C145.132 269.313 138.77 268.967 133.896 272.115L133.979 283.344L121.41 278.831L124.098 294.681C129.147 297.468 134.832 298.936 140.61 298.92C159.494 298.92 174.797 283.613 174.797 264.722C174.797 256.947 172.125 249.379 167.231 243.314Z" fill="#FF4F32"/>
<path d="M152.799 267.607L152.401 260.845C149.615 259.326 146.457 258.297 143.289 257.93L152.799 267.607Z" fill="#FF4F32"/>
<path d="M133.82 258.818C135.164 258.436 136.559 258.167 137.949 258.012L133.789 253.752L133.82 258.818Z" fill="white"/>
<path d="M152.403 260.89L151.99 253.906C147.369 252.071 142.366 251.373 137.41 251.895L143.41 258.057C146.573 258.404 149.612 259.37 152.403 260.89Z" fill="white"/>
<path d="M118.832 260.732L123.184 265.09C125.148 263.125 127.427 261.507 129.928 260.308L129.876 253.639C125.732 255.174 121.948 257.599 118.832 260.732Z" fill="white"/>
<path d="M158.022 265.089L162.374 260.731C160.472 258.833 158.353 257.2 156.027 255.855L156.487 263.677C157.009 264.137 157.516 264.598 158.022 265.089Z" fill="white"/>
<path d="M133.852 265.305L133.898 272.181C138.777 269.028 145.201 269.71 149.299 273.81L151.341 271.768L144.141 264.39C140.705 263.708 137.128 264.023 133.852 265.305Z" fill="white"/>
<path d="M127.539 269.442L129.994 271.914L129.963 267.4C129.11 268.016 128.283 268.698 127.539 269.442Z" fill="white"/>
<path d="M136.242 278.162L140.594 282.52L144.945 278.162C142.537 275.758 138.645 275.758 136.242 278.162Z" fill="white"/>
<path d="M485.643 440.514L505.034 426.7C505.034 426.7 497.705 411.021 501.649 404.088C494.377 402.397 487.447 398.169 482.087 388.356C480.175 384.805 477.808 380.235 475.549 376.006L425.609 397.264L431.077 406.626C438.349 416.268 446.298 425.46 454.804 434.14C455.259 433.633 485.643 440.514 485.643 440.514Z" fill="#B66F63"/>
<path opacity="0.2" d="M462.302 385.139L432.203 405.384C431.412 405.947 431.185 407.017 431.805 407.808C435.867 413.107 440.208 418.35 444.601 423.369C445.392 424.274 446.86 424.103 447.423 422.976L464.783 387.284C465.517 385.759 463.77 384.183 462.302 385.139Z" fill="#231F1F"/>
<path d="M334.688 436.341C335.081 432.112 335.587 427.485 336.208 422.75L336.094 417.9L282.148 422.75C282.148 422.75 282.66 438.652 286.211 458.219L307.519 480.713L336.492 482.352L343.422 461.714C337.562 456.244 333.505 448.464 334.688 436.341Z" fill="#B66F63"/>
<path opacity="0.2" d="M282.148 422.749C282.148 422.749 282.433 431.036 283.9 443.102C283.952 443.444 284.293 443.614 284.572 443.5L333.448 423.369C333.954 423.142 333.784 422.47 333.277 422.47L282.66 421.395C282.376 421.395 282.148 421.622 282.148 421.901V422.749Z" fill="#231F1F"/>
<path d="M301.315 87.3614C309.207 82.2898 323.972 81.7263 332.376 92.4381C340.262 102.586 334.066 118.432 334.066 118.432L297.366 128.073L285.531 95.876L301.315 87.3614Z" fill="#221F1F"/>
<path d="M141.733 194.949C140.663 195.285 137.619 196.076 136.549 196.361C112.31 203.686 96.4697 206.509 96.4697 210.453C96.4697 215.023 105.488 214.966 105.488 214.966C90.7744 221.17 89.0275 222.297 86.3246 223.988C81.8127 226.805 82.3761 231.318 86.3246 231.882C84.0661 236.959 86.8879 238.649 89.7045 238.649C89.1412 239.776 89.7045 244.284 95.343 243.157C95.343 247.107 103.235 245.98 108.305 244.284C112.589 242.878 123.019 238.649 123.019 238.649C147.878 235.263 153.909 226.976 153.909 226.976L141.733 194.949Z" fill="#B66F63"/>
<path d="M478.593 65.3192C480.847 64.1922 481.978 59.679 478.593 58.552C479.72 54.0388 475.777 53.4753 468.955 54.6023L459.936 56.298C460.499 50.6578 454.298 52.9118 446.349 56.8615C440.602 59.7359 430.514 66.105 421.211 72.195L438.912 97.8524C438.912 97.8524 449.114 96.4411 458.132 86.8564C460.949 85.7294 467.828 83.4754 471.72 81.7849C476.226 79.81 478.479 77.8352 478.479 76.1447C478.479 74.3404 476.226 73.8906 471.151 75.0176C479.777 70.9542 480.903 68.1367 478.593 65.3192Z" fill="#B66F63"/>
<path d="M303.234 72.8146C303.234 72.8146 304.981 69.0924 303.797 67.009C302.836 65.3185 298.102 65.9957 298.102 65.9957C297.709 65.2616 289.647 48.6822 277.863 47.2709C272.173 46.3145 262.535 49.3595 254.979 55.3926C242.353 65.4322 244.327 76.3145 247.593 85.2789C249.289 89.9575 255.826 105.353 260.788 115.16L296.526 107.214L294.887 102.928C306.221 101.233 310.221 97.0608 310.955 90.8054C311.575 83.9813 308.304 78.5686 303.234 72.8146Z" fill="#B66F63"/>
<path opacity="0.2" d="M294.886 102.814C294.886 102.814 289.31 103.321 283.898 101.346L296.803 107.834L294.886 102.814Z" fill="#231F1F"/>
<path d="M422.676 71.125C402.499 84.2613 379.837 100.334 379.837 100.334C379.837 100.334 346.58 104.847 329.049 107.101C310.955 109.412 299.115 113.305 299.115 113.305L296.298 106.538L260.845 115.052C262.421 118.154 263.775 120.744 264.618 122.326C254.472 127.398 242.017 135.912 225.67 150.01C213.659 160.386 192.408 176.567 192.408 176.567C192.408 176.567 177.079 183.898 139.816 195.287L152.391 227.934C152.391 227.934 194.046 220.66 212.817 212.094C226.399 205.89 250.074 190.102 260.788 181.587L282.489 212.544L344.833 201.434L333.613 151.701C333.613 151.701 349.96 148.77 365.237 145.497C394.044 139.299 407.006 129.145 414.898 122.383C423.973 114.597 432.485 106.031 440.32 96.9531L422.676 71.125Z" fill="#FFC930"/>
<path d="M254.078 52.6896C261.572 46.7082 271.211 45.302 276.906 46.2015C280.854 46.6565 284.741 49.0242 288.012 52.1778C288.012 52.1778 284.911 69.3775 277.64 79.1329C271.831 74.8471 259.939 75.9741 259.603 84.8299C259.319 94.4715 274.709 97.9663 274.709 97.9663C276.513 101.404 288.746 128.018 270.761 144.37C252.104 161.285 230.682 146.066 230.682 146.066L214.733 158.918C214.733 158.918 203.683 148.32 208.081 129.145C214.841 99.7705 251.256 97.1184 251.256 97.1184C251.256 97.1184 249.23 92.6104 246.636 85.502C243.421 76.4808 241.452 62.6103 254.078 52.6896Z" fill="#221F1F"/>
<path d="M295.001 102.928C290.773 103.492 287.45 102.473 285.191 101.967" stroke="#231F1F" stroke-linecap="round" stroke-linejoin="round"/>
<path d="M299.172 113.412L301.43 118.489" stroke="black" stroke-linecap="round" stroke-linejoin="round"/>
<path d="M333.501 151.249L330.457 138.17" stroke="black" stroke-linecap="round" stroke-linejoin="round"/>
<path d="M260.844 181.359L269.862 174.592" stroke="black" stroke-linecap="round" stroke-linejoin="round"/>
<path d="M251.148 96.498L256.616 107.835" stroke="#070707" stroke-linecap="round" stroke-linejoin="round"/>
<path d="M224.535 143.186L230.174 145.781" stroke="#070707" stroke-linecap="round" stroke-linejoin="round"/>
<path d="M231.471 69.206C243.332 69.206 252.95 59.5903 252.95 47.7257C252.95 35.8611 243.332 26.2402 231.471 26.2402C219.61 26.2402 209.992 35.8611 209.992 47.7257C209.992 59.5903 219.61 69.206 231.471 69.206Z" fill="#221F1F"/>
<path d="M300.793 80.8542C301.093 79.1378 300.39 77.5817 299.222 77.3801C298.059 77.1733 296.871 78.4037 296.571 80.1201C296.276 81.8364 296.979 83.3925 298.142 83.5993C299.305 83.8009 300.499 82.5705 300.793 80.8542Z" fill="#231F1F"/>
<path d="M422.73 70.9531L440.261 96.8949" stroke="#B3B3B3" stroke-linecap="round" stroke-linejoin="round"/>
<path d="M407.516 81.6699L427.243 111.101" stroke="#B3B3B3" stroke-linecap="round" stroke-linejoin="round"/>
<path d="M139.984 195.4L152.217 227.541" stroke="#B3B3B3" stroke-linecap="round" stroke-linejoin="round"/>
<path d="M157.965 189.537L170.704 223.311" stroke="#B3B3B3" stroke-linecap="round" stroke-linejoin="round"/>
<path d="M459.995 56.8613C457.179 62.4964 452.104 67.0096 452.104 67.0096C452.104 67.0096 452.667 77.7782 443.648 83.925" stroke="#231F1F" stroke-linecap="round" stroke-linejoin="round"/>
<path d="M478.089 58.5508L457.742 66.445" stroke="#231F1F" stroke-linecap="round" stroke-linejoin="round"/>
<path d="M477.468 65.8828L458.305 73.2704" stroke="#231F1F" stroke-linecap="round" stroke-linejoin="round"/>
<path d="M470.702 75.4668L458.867 79.98" stroke="#231F1F" stroke-linecap="round" stroke-linejoin="round"/>
<path d="M105.488 214.968C105.488 214.968 115.127 214.404 115.633 214.404C116.197 214.404 125.779 221.735 138.239 216.658" stroke="#231F1F" stroke-linecap="round" stroke-linejoin="round"/>
<path d="M86.2695 231.94L112.255 222.299" stroke="#231F1F" stroke-linecap="round" stroke-linejoin="round"/>
<path d="M89.6484 238.706L116.761 229.064" stroke="#231F1F" stroke-linecap="round" stroke-linejoin="round"/>
<path d="M95.3438 243.215L118.962 235.264" stroke="#231F1F" stroke-linecap="round" stroke-linejoin="round"/>
<path d="M364.727 479.251C363.6 476.599 361.347 473.725 357.285 471.357C352.778 468.705 347.589 465.774 343.362 461.715C337.558 465.494 334.064 472.034 334.064 478.967C334.064 479.081 334.064 479.137 334.064 479.251H312.079C312.079 467.407 302.44 457.766 290.6 457.766C289.137 457.766 287.613 457.936 286.207 458.221C287.391 464.926 288.967 472.148 290.998 479.251C291.732 481.898 292.574 484.55 293.422 487.145H365.74C366.195 484.493 365.854 481.733 364.727 479.251Z" fill="#FFA0DC"/>
<path d="M304.754 468.482L336.037 450.662" stroke="#FFA0DC" stroke-linecap="round" stroke-linejoin="round"/>
<path d="M336.375 451.11C336.375 451.11 358.36 457.878 358.924 451.617C359.43 445.305 342.634 448.856 336.375 451.11Z" stroke="#FFA0DC" stroke-linecap="round" stroke-linejoin="round"/>
<path d="M335.363 450.662C335.363 450.662 362.476 436.678 358.868 431.493C355.318 426.246 340.32 443.502 335.363 450.662Z" stroke="#FFA0DC" stroke-linecap="round" stroke-linejoin="round"/>
<path d="M431.754 298.53C415.009 273.721 378.708 230.755 344.097 200.248L326.116 203.464V203.407L317.884 204.927L298.493 208.483C298.493 208.427 298.493 208.535 298.493 208.483L281.582 211.58C281.582 211.58 269.463 237.067 277.076 273.157C284.967 310.426 292.802 334.393 288.347 344.314C275.386 373.13 260.672 395.742 260.672 422.806H282.146H336.262C339.135 399.857 343.59 372.68 345.001 351.701C345.001 351.536 345.001 351.308 345.058 351.138C345.11 350.631 345.11 350.124 345.166 349.618C345.166 349.277 345.223 348.884 345.223 348.542C345.223 348.093 345.28 347.7 345.28 347.25C345.28 346.795 345.337 346.402 345.337 345.952C345.337 345.611 345.337 345.218 345.394 344.882C345.394 344.37 345.451 343.864 345.451 343.414C345.451 343.13 345.451 342.851 345.451 342.566C345.451 341.78 345.451 341.046 345.451 340.312C345.451 328.132 342.686 305.633 339.192 282.235C340.375 283.305 341.559 284.432 342.799 285.502C371.266 310.824 385.416 322.776 389.359 338.565C397.029 369.237 391.618 390.495 413.149 418.52L475.777 376.625C462.133 351.251 443.982 316.63 431.754 298.53Z" fill="#3C2C5B"/>
<path d="M294.664 209.611C287.785 238.143 292.747 264.7 304.189 315.503C313.208 355.595 291.222 364.109 288.969 422.864" stroke="#E3E3E3" stroke-linecap="round" stroke-linejoin="round"/>
<path d="M338.8 282.122L333.668 250.545" stroke="#090909" stroke-linecap="round" stroke-linejoin="round"/>
<path d="M530.964 406.962C528.54 405.442 525.098 404.31 520.364 404.651C514.617 405.044 507.965 405.551 501.593 404.088C497.593 410.964 497.986 419.427 502.441 426.023L502.611 426.245L485.81 437.634C478.936 428.391 466.026 426.245 456.558 432.677C455.937 433.126 455.317 433.576 454.754 434.083C459.431 438.823 464.558 443.724 470.083 448.408C472.171 450.156 474.31 451.903 476.569 453.537L489.36 444.857L508.472 431.886L516.136 426.7L536.318 413.052C535.078 410.514 533.217 408.43 530.964 406.962Z" fill="#FFA0DC"/>
<path d="M491.164 398.504C491.164 398.504 513.263 391.907 510.162 386.437C507.061 380.968 495.113 393.205 491.164 398.504Z" stroke="#FFA0DC" stroke-linecap="round" stroke-linejoin="round"/>
<path d="M489.98 398.674C489.98 398.674 504.751 372.06 498.89 369.692C493.138 367.319 490.265 390.045 489.98 398.674Z" stroke="#FFA0DC" stroke-linecap="round" stroke-linejoin="round"/>
<path d="M473.523 432.393L490.656 398.277" stroke="#FFA0DC" stroke-linecap="round" stroke-linejoin="round"/>
<path d="M281.641 211.528L344.269 200.248" stroke="black" stroke-linecap="round" stroke-linejoin="round"/>
<path opacity="0.2" d="M456.834 68.1937C460.499 63.7943 461.796 58.8882 462.189 56.8047C462.302 56.355 461.853 55.9 461.403 56.0138L460.271 56.2412C460.049 56.2981 459.878 56.4067 459.822 56.5773C457.284 61.4834 453.17 65.8828 452.271 66.8392C452.157 66.953 452.1 67.1236 452.1 67.289C452.1 68.8141 451.873 76.3671 446.126 81.9504C445.619 82.4571 446.183 83.3049 446.803 83.0774C457.847 79.1329 456.948 70.4477 456.664 68.7003C456.607 68.5297 456.664 68.3074 456.834 68.1937Z" fill="#231F1F"/>
<path opacity="0.2" d="M105.488 214.968C105.488 214.968 115.126 214.404 115.633 214.404C116.196 214.404 126.062 222.521 138.517 217.449C138.517 217.449 130.796 228.047 115.633 218.519L102.051 216.488L105.488 214.968Z" fill="#231F1F"/>
<path opacity="0.2" d="M293.702 210.004L281.64 211.529C281.64 211.529 269.52 237.011 277.133 273.101C285.025 310.369 292.86 334.336 288.405 344.262C305.201 313.699 271.779 265.093 293.702 210.004Z" fill="#090909"/>
<path opacity="0.2" d="M331.586 143.641L333.56 151.7C333.56 151.7 349.907 148.826 365.179 145.553L331.586 143.641Z" fill="black"/>
<path d="M290.268 66.668C292.185 65.205 294.381 67.4021 292.919 69.3201C291.002 70.7883 288.8 68.6428 290.268 66.668Z" fill="black"/>
<path d="M71.6803 133H45.2803L42.7203 128.84C47.307 120.147 54.8803 103.373 65.4403 78.52H67.8403L76.8803 83.16L56.4803 122.04L52.9603 127.24L71.7603 126.12L72.5603 111.16L81.2803 110.44V125.48L91.5203 124.92V133H81.2803V145.8H71.6803V133ZM118.731 133.8C111.904 133.8 106.678 131.533 103.051 127C99.4776 122.413 97.6909 116.2 97.6909 108.36C97.6909 102.813 98.7309 98.12 100.811 94.28C102.891 90.3867 105.638 87.48 109.051 85.56C112.518 83.5867 116.358 82.6 120.571 82.6C127.451 82.6 132.624 84.7867 136.091 89.16C139.558 93.48 141.291 99.6133 141.291 107.56C141.291 113.053 140.278 117.8 138.251 121.8C136.278 125.747 133.584 128.733 130.171 130.76C126.758 132.787 122.944 133.8 118.731 133.8ZM119.531 129C122.891 129 125.344 127.293 126.891 123.88C128.491 120.413 129.291 115.267 129.291 108.44C129.291 101.187 128.544 95.88 127.051 92.52C125.611 89.1067 123.131 87.4 119.611 87.4C112.998 87.4 109.691 94.0933 109.691 107.48C109.691 114.627 110.464 120.013 112.011 123.64C113.611 127.213 116.118 129 119.531 129ZM177.149 133H150.749L148.189 128.84C152.776 120.147 160.349 103.373 170.909 78.52H173.309L182.349 83.16L161.949 122.04L158.429 127.24L177.229 126.12L178.029 111.16L186.749 110.44V125.48L196.989 124.92V133H186.749V145.8H177.149V133Z" fill="#6E7487"/>
</svg>
