<svg width="121" height="217" viewBox="0 0 121 217" fill="none" xmlns="http://www.w3.org/2000/svg">
<path d="M17.6504 196.99L12.235 207.833L4.40921 202.5L8.79771 191.48L17.6504 196.99Z" fill="#FFBF8F"/>
<path d="M16.1774 200.004C16.1846 200 16.1882 200 16.1918 199.997C16.1954 199.993 16.199 199.989 16.199 199.982L17.687 197.009C17.6906 197.002 17.6943 196.991 17.6906 196.984C17.687 196.969 17.6834 196.962 17.6726 196.958L8.81635 191.452C8.81275 191.449 8.80555 191.441 8.79834 191.441C8.79474 191.441 8.79112 191.441 8.78752 191.449C8.78031 191.449 8.77311 191.452 8.76951 191.456C8.76591 191.459 8.7623 191.463 8.7623 191.47L7.64176 194.296C7.63815 194.299 7.63815 194.31 7.64176 194.317C7.64176 194.324 7.64537 194.332 7.65258 194.335C10.2324 196.533 14.084 198.831 16.1449 200C16.1522 200.004 16.163 200.004 16.1666 200.004C16.1702 200.004 16.1738 200.004 16.1774 200.004Z" fill="#EE9552"/>
<path d="M82.9702 198.37L82.8008 207.062H72.7447L72.6582 197.764L82.9702 198.37Z" fill="#FFBF8F"/>
<path d="M74.9676 202.477C77.6266 202.451 80.2821 202.235 82.9123 201.824C82.9195 201.824 82.9303 201.82 82.9339 201.813C82.9411 201.806 82.9447 201.798 82.9447 201.788L83.0168 198.367C83.0168 198.36 83.0132 198.345 83.0024 198.338C82.9952 198.331 82.988 198.327 82.9772 198.327L72.6616 197.725C72.6508 197.725 72.6436 197.728 72.6328 197.735C72.6292 197.739 72.6256 197.743 72.622 197.746C72.622 197.753 72.622 197.757 72.622 197.761L72.6652 202.365C72.6652 202.376 72.6688 202.383 72.6724 202.39C72.6796 202.397 72.6869 202.401 72.7013 202.401C73.4147 202.451 74.1785 202.477 74.9676 202.477Z" fill="#EE9552"/>
<path d="M74.0963 66.5083C74.1035 66.5083 74.1143 66.5119 74.1179 66.5155C74.1252 66.5191 74.1288 66.5227 74.1324 66.53C74.1612 66.6057 74.2873 66.963 74.4891 67.432C75.6348 70.1491 79.155 78.809 80.6539 86.3828C82.459 95.5081 86.6709 149.733 86.9268 156.059C87.1501 161.601 87.0817 190.633 87.0637 197.742C87.0637 198.16 86.8943 198.557 86.5989 198.853C86.3034 199.149 85.9071 199.315 85.4891 199.315H70.0033C69.5997 199.315 69.207 199.16 68.9151 198.878C68.6233 198.593 68.4504 198.211 68.4324 197.803C68.1261 190.392 66.7858 158.083 66.5588 154.771C66.3102 151.162 59.731 115.271 59.241 112.583C59.2374 112.572 59.2338 112.564 59.2302 112.561C59.223 112.554 59.2122 112.55 59.2049 112.55C59.1941 112.55 59.1869 112.554 59.1797 112.557C59.1725 112.561 59.1689 112.568 59.1653 112.575C58.4879 114.859 50.5468 141.611 49.9271 144.7C49.2858 147.908 20.7497 198.066 19.8994 198.792C19.8958 198.799 19.885 198.799 19.8778 198.803C19.204 198.846 5.06203 191.694 4.67651 191.056C4.29099 190.413 19.1175 157.358 21.6973 151.808C24.2771 146.255 30.7193 136.7 31.1084 135.412C31.494 134.12 37.2949 92.4158 38.455 85.8307C39.2945 81.0641 43.8596 71.8738 46.3061 67.1794C47.1672 65.5341 47.7617 64.4552 47.8518 64.2856C47.8554 64.282 47.8626 64.2748 47.8698 64.2712C47.8734 64.2676 47.8806 64.2676 47.8878 64.2676L74.0963 66.5083Z" fill="#97607A"/>
<path d="M53.9191 69.7686C50.3412 69.2707 47.9272 68.3073 46.3058 67.1779L47.3579 63.9629L74.1033 66.3227L74.4888 67.4341C70.5111 68.7655 62.2997 70.9449 53.9191 69.7686Z" fill="#6F656A"/>
<path d="M53.0184 95.1819C52.9536 94.6009 53.4039 94.0886 53.984 94.4097C54.7371 94.7525 55.3892 95.2973 55.8648 95.9793C56.3404 96.6577 56.6251 97.4551 56.6935 98.2814C57.0142 100.995 59.2048 112.419 59.2048 112.419C58.0411 117.344 57.27 120.418 55.2559 125.809C54.7767 119.191 53.0725 95.6834 53.0184 95.1819Z" fill="#6F656A"/>
<path d="M92.2478 48.86C92.2514 48.8564 92.255 48.8528 92.2622 48.8492C92.2658 48.8492 92.2694 48.8492 92.2766 48.8492C92.2838 48.8492 92.2874 48.8492 92.291 48.8492C92.2946 48.8528 92.2983 48.8564 92.3019 48.86L98.3081 55.0663C98.3117 55.0699 98.3153 55.0735 98.3189 55.0735C98.3297 55.0771 98.3334 55.0771 98.337 55.0771C98.3442 55.0771 98.3478 55.0771 98.3514 55.0735C98.355 55.0735 98.3622 55.0699 98.3622 55.0663C98.9783 54.406 109.56 43.0723 109.744 42.6357C109.975 42.0368 110.043 41.3909 109.939 40.763C109.813 40.1821 109.359 36.1156 109.233 35.4083C109.103 34.6975 109.103 33.7305 110.393 32.5686C111.679 31.4067 114.969 27.9861 116.129 27.1454C117.289 26.3046 117.61 27.6577 117.354 28.0474C117.112 28.4046 114.428 31.3779 113.996 31.8542C113.992 31.8578 113.989 31.865 113.989 31.8758C113.989 31.883 113.989 31.8903 113.992 31.8975C113.992 31.9011 113.999 31.9083 114.003 31.9119C114.01 31.9155 114.021 31.9191 114.028 31.9191C114.619 31.9191 118.089 31.948 119.033 32.2439C120.063 32.565 120.128 33.4707 120.258 34.499C120.37 35.3578 120.413 36.2202 120.388 37.0826C120.388 38.1579 119.062 38.6811 118.867 38.7496C118.86 38.7532 118.849 38.7568 118.845 38.764C118.842 38.7677 118.838 38.7785 118.838 38.7857C118.831 39.0852 118.773 41.8022 118.773 43.0218C118.773 44.3136 117.999 45.4105 117.419 46.1213C116.839 46.8286 103.687 65.4221 102.336 67.1649C100.982 68.9077 97.3713 69.5536 95.5662 68.3917C93.8187 67.2695 83.6257 59.4359 82.9664 58.9272C82.9628 58.9235 82.9592 58.9199 82.952 58.9163C82.952 58.9091 82.9484 58.9055 82.9484 58.8983C82.9484 58.8947 82.9484 58.8875 82.952 58.8839C82.952 58.8803 82.9592 58.8766 82.9628 58.873L92.2478 48.86Z" fill="#FFBF8F"/>
<path d="M68.4184 30.9606C68.4292 30.9606 68.4364 30.9533 68.44 30.9497C68.4473 30.9425 68.4473 30.9353 68.4509 30.9281C68.4617 30.6214 68.5806 27.9693 68.6634 27.0816C68.7499 26.1363 68.9661 25.66 69.8669 25.3605C70.7676 25.061 72.4899 24.5017 73.4339 24.1986C74.3779 23.8955 75.1489 22.9502 75.239 21.0991C75.3183 19.3924 75.2894 17.6821 75.2822 17.4259C75.2822 17.4187 75.2858 17.4114 75.293 17.4042C75.2966 17.397 75.3038 17.3934 75.311 17.3898C75.4408 17.3609 75.9524 17.2563 76.6586 17.1805C76.8027 17.1877 76.9432 17.1553 77.0729 17.0867C77.1954 17.0181 77.2999 16.9135 77.3684 16.7872C77.4441 16.6645 77.4765 16.5202 77.4729 16.3795C77.4693 16.2351 77.426 16.0944 77.3468 15.9753C77.091 15.5026 75.3687 13.1789 75.1525 12.8758C74.9363 12.5727 75.2822 11.3712 75.5416 10.1227C75.8011 8.87423 75.711 1.30043 67.2474 1.47363C58.7839 1.64682 56.2474 3.15148 54.5251 7.97216C52.8064 12.7964 55.343 16.7114 57.3175 19.0352C59.2955 21.3589 60.1134 22.3043 60.6719 23.0368C61.234 23.7692 60.9313 24.5847 60.7151 25.4868C60.5097 26.3419 59.0073 32.6059 58.8379 33.3023C58.8379 33.3096 58.8379 33.3168 58.8379 33.3204C58.8416 33.3276 58.8488 33.3312 58.8524 33.3384C58.856 33.342 58.8632 33.3456 58.8668 33.3456C58.874 33.3529 58.8812 33.3529 58.8848 33.3456L68.4184 30.9606Z" fill="#FFBF8F"/>
<path d="M45.5092 60.9446C45.5128 60.9482 45.5163 60.9518 45.52 60.9554C45.52 60.9626 45.5236 60.9662 45.5236 60.9699C45.5236 60.9807 45.52 60.9843 45.52 60.9879C45.5163 60.9951 45.5128 60.9987 45.5092 61.0023C45.2858 61.226 43.7977 62.7343 43.2608 63.7518C42.6807 64.8488 41.9746 65.5812 41.7151 66.938C41.4557 68.2911 35.5936 89.5944 35.2693 91.2109C34.9883 92.8058 34.3541 94.3213 33.4173 95.6419C32.5166 96.8038 31.3564 98.4816 30.8376 98.9362C30.3259 99.3873 29.5513 99.1275 29.8071 98.1605C30.0377 97.2909 30.7691 94.9311 30.9168 94.4439C30.9204 94.4403 30.9204 94.4331 30.9168 94.4259C30.9168 94.4187 30.9132 94.4115 30.906 94.4078C30.9024 94.4042 30.8952 94.4006 30.8844 94.4006C30.8772 94.397 30.87 94.4006 30.8628 94.4042C30.5421 94.563 29.3459 95.1584 28.9892 95.3352C28.9856 95.3352 28.982 95.3388 28.9784 95.346C28.9748 95.3532 28.9748 95.3568 28.9712 95.3604L27.2814 101.902C27.0904 102.714 26.1428 102.92 25.7933 102.169C25.7897 102.162 25.7825 102.158 25.7753 102.155C25.7717 102.151 25.7645 102.148 25.7573 102.148C25.7501 102.148 25.7465 102.148 25.7393 102.151C25.7285 102.155 25.7248 102.162 25.7212 102.166C25.1592 103.205 24.3088 102.815 24.0314 102.332C24.0278 102.328 24.0242 102.324 24.0206 102.321C24.017 102.317 24.0098 102.314 24.0062 102.314C23.9954 102.314 23.9918 102.314 23.9846 102.314C23.981 102.317 23.9774 102.317 23.9738 102.321C23.826 102.454 23.2676 102.869 22.8208 101.924C22.8172 101.917 22.8136 101.909 22.8064 101.906C22.8028 101.902 22.7956 101.902 22.7848 101.902C22.7776 101.902 22.7704 101.902 22.7668 101.906C22.7595 101.909 22.7559 101.917 22.7523 101.924C22.4677 102.631 21.4408 102.342 21.6894 101.123L22.7199 95.8295C22.9145 94.729 24.3953 92.7949 25.8149 90.9872C27.2345 89.1794 27.62 88.2088 28.3298 87.3717C29.036 86.531 29.1694 86.2098 29.3603 84.5969C29.5549 82.9804 30.7151 68.2622 30.9745 66.0034C31.2339 63.7446 32.1995 61.6771 33.1687 59.9343C34.0839 58.2817 36.851 53.8507 37.1357 53.3888C37.1393 53.3852 37.1429 53.378 37.1501 53.3744C37.1537 53.3708 37.1609 53.3708 37.1681 53.3672C37.1717 53.3672 37.1789 53.3672 37.1825 53.3708C37.1861 53.3708 37.1933 53.3744 37.1969 53.378L45.5092 60.9446Z" fill="#FFBF8F"/>
<path d="M81.0137 58.8935C81.0101 58.8971 80.9993 58.8971 80.9921 58.8971C80.9885 58.8971 80.9813 58.8971 80.9777 58.8935C79.9436 58.3306 79.45 59.3157 78.9168 60.3729C78.4015 61.4049 76.2757 66.1859 76.1064 66.5647C76.1028 66.5683 76.0992 66.5756 76.092 66.5792C76.0884 66.5828 76.0812 66.5828 76.0739 66.5828H45.7075C45.7003 66.5828 45.6895 66.5792 45.6787 66.5755C45.6715 66.5683 45.6679 66.5539 45.6679 66.5431V61.2497V61.2461L36.4549 51.98C36.4477 51.9728 36.4441 51.9656 36.4441 51.9584C36.4441 51.9476 36.4441 51.9367 36.4477 51.9295C39.3049 47.4805 43.8808 40.3758 45.3256 38.3479C47.473 35.335 50.8238 32.7551 55.724 31.7231C60.5737 30.6984 66.6808 30.0164 66.8141 30.002H73.35C76.7874 30.002 80.1418 32.3257 82.8044 35.4252C84.4078 37.2943 88.1441 42.1114 90.8536 45.6367C90.8572 45.6403 90.8608 45.6475 90.8608 45.6511C90.9185 45.9506 92.2048 53.427 81.0137 58.8935Z" fill="#E66A48"/>
<path d="M34.7769 54.5445C35.1913 53.895 35.7642 52.9965 36.4343 51.9609L45.6689 56.2584V61.2523L35.2561 56.2331C35.112 56.161 34.9751 56.0563 34.8706 55.9301C34.7625 55.8038 34.6869 55.6558 34.64 55.4971C34.5932 55.3383 34.5824 55.1687 34.6076 55.0027C34.6292 54.8403 34.6905 54.6816 34.7769 54.5445Z" fill="#2A2C45"/>
<path d="M78.7608 58.1464L90.8526 45.6328C92.5028 47.7797 93.7747 49.4504 93.9512 49.6813C93.9584 49.6921 93.962 49.703 93.962 49.7102C93.962 49.7174 93.9584 49.7282 93.9476 49.7318L82.9908 60.1093C82.9872 60.1129 82.98 60.1165 82.9728 60.1165C82.9655 60.1201 82.9583 60.1165 82.9475 60.1129C82.8358 60.0624 82.2017 59.7701 78.7608 58.1464Z" fill="#2A2C45"/>
<path d="M59.2069 112.429C59.2069 112.429 56.7568 98.4147 56.501 96.9497C56.2452 95.4848 53.9213 94.709 53.9213 94.709" stroke="#6F656A" stroke-linecap="round" stroke-linejoin="round"/>
<path d="M58.585 108.85L48.5685 116.229" stroke="#6F656A" stroke-linecap="round" stroke-linejoin="round"/>
<path d="M67.588 78.7196C64.3849 78.9325 61.1674 78.8278 57.9823 78.3984" stroke="#6F656A" stroke-linecap="round" stroke-linejoin="round"/>
<path d="M47.8616 77.4929L42.8317 76.4609" stroke="#6F656A" stroke-linecap="round" stroke-linejoin="round"/>
<path d="M32.3466 174.611C27.2375 179.064 21.6095 182.878 15.5889 185.974" stroke="#6F656A" stroke-linecap="round" stroke-linejoin="round"/>
<path d="M86.1514 191.652H69.1342" stroke="#6F656A" stroke-linecap="round" stroke-linejoin="round"/>
<path d="M22.6333 193.114C22.6333 193.114 13.5176 190.015 7.24472 185.797" stroke="#6F656A" stroke-linecap="round" stroke-linejoin="round"/>
<path d="M67.5899 156.191C67.5899 156.191 70.5552 159.803 74.1619 163.549" stroke="#6F656A" stroke-linecap="round" stroke-linejoin="round"/>
<path d="M74.4624 3.49923C74.4696 3.50284 74.4732 3.51366 74.4804 3.51727C74.484 3.52448 74.484 3.52809 74.484 3.5353C74.4552 4.31108 74.3471 5.08326 74.1597 5.83739C73.8427 7.16885 72.3042 8.26577 70.2937 9.77403C68.8597 10.8565 66.7339 12.372 65.5737 13.1911C65.498 13.2452 65.4079 13.2777 65.3143 13.2849C65.2242 13.2885 65.1305 13.2705 65.044 13.2236C64.9648 13.1803 64.8927 13.1153 64.8495 13.0323C64.8026 12.9493 64.7774 12.8555 64.781 12.7617L64.8315 11.3148C64.8315 11.3003 64.8279 11.2931 64.8243 11.2859C64.817 11.2787 64.8098 11.2751 64.8026 11.2751C64.1901 11.1741 63.5668 11.2173 62.9759 11.3942C62.3886 11.5782 61.8481 11.8885 61.3978 12.3107C59.8917 13.7756 60.4538 16.6586 62.6444 17.5174C64.8315 18.3798 65.9088 19.4984 66.4276 21.9051C66.7339 23.1969 66.7807 24.5319 66.5609 25.8381C66.5573 25.8453 66.5537 25.8526 66.5465 25.8562C66.5393 25.867 66.5321 25.8706 66.5213 25.867H62.2157C58.5982 25.867 56.8291 23.9185 56.4508 23.4314C56.4436 23.4278 56.4364 23.4206 56.4292 23.4206C56.4184 23.417 56.4111 23.417 56.4039 23.4206C56.3967 23.4242 56.3895 23.4278 56.3859 23.435C56.3823 23.4458 56.3787 23.4531 56.3823 23.4603L56.4904 24.7376C56.494 24.7412 56.4904 24.7484 56.4904 24.752C56.4868 24.7629 56.4832 24.7665 56.4796 24.7701C56.4724 24.7737 56.4652 24.7773 56.4616 24.7773C56.4544 24.7809 56.4508 24.7809 56.4436 24.7773C54.8582 24.3984 53.3486 23.7453 51.983 22.8505C49.9185 21.4288 49.0177 19.3649 49.6194 16.2257C50.2247 13.0828 50.74 11.0189 51.511 8.00598C52.2857 4.99306 57.3551 0.367229 62.684 0.0208337C67.8436 -0.303912 74.0733 3.27191 74.4624 3.49923Z" fill="#4C3127"/>
<path d="M73.7314 13.9894C73.4288 13.9894 73.1766 13.6358 73.1766 13.192C73.1766 12.7518 73.4288 12.3945 73.7314 12.3945C74.0413 12.3945 74.2899 12.7518 74.2899 13.192C74.2899 13.6358 74.0413 13.9894 73.7314 13.9894Z" fill="#4C3127"/>
<path d="M74.2183 18.8881C73.4076 18.87 72.6293 18.5669 72.024 18.0293" stroke="#EE9552" stroke-linecap="round" stroke-linejoin="round"/>
<path d="M75.4113 10.0584C75.6095 10.1125 75.4293 10.8053 75.2852 10.9208C75.1411 11.0362 74.6475 10.8198 73.8115 10.7584C72.9756 10.6971 71.992 11.0796 71.9055 11.0074C71.8587 10.9316 71.8335 10.845 71.8443 10.7584C71.8587 10.6682 71.8947 10.5888 71.9596 10.5275C72.1037 10.3795 73.3972 9.50994 75.4113 10.0584Z" fill="#4C3127"/>
<path d="M64.0723 12.6504C64.0723 12.6504 62.6202 12.7478 61.7807 14.6169" stroke="#EE9552" stroke-linecap="round" stroke-linejoin="round"/>
<path d="M45.6666 56.254L45.6738 46.6992" stroke="#DA461D" stroke-linecap="round" stroke-linejoin="round"/>
<path d="M78.7615 58.1485L74.9891 56.3516" stroke="#DA461D" stroke-linecap="round" stroke-linejoin="round"/>
<path d="M58.8187 33.3613L54.9526 39.9032" stroke="#DA461D" stroke-linecap="round" stroke-linejoin="round"/>
<path d="M118.838 38.7586L118.705 35.0781" stroke="#EE9552" stroke-linecap="round" stroke-linejoin="round"/>
<path d="M98.3382 55.0918L100.914 57.2207" stroke="#EE9552" stroke-linecap="round" stroke-linejoin="round"/>
<path d="M32.7772 93.4395C32.7772 93.4395 25.0415 97.3148 24.3353 97.6359C23.6255 97.957 23.6255 98.4766 23.4345 99.2524C23.24 100.025 22.7824 101.832 22.7824 101.832" stroke="#EE9552" stroke-linecap="round" stroke-linejoin="round"/>
<path d="M25.3352 97.2246L24.0093 102.283" stroke="#EE9552" stroke-linecap="round" stroke-linejoin="round"/>
<path d="M27.2997 96.1738L25.7612 102.088" stroke="#EE9552" stroke-linecap="round" stroke-linejoin="round"/>
<path d="M83.2288 204.469C83.3045 204.458 83.3837 204.472 83.4558 204.494C83.5278 204.515 83.5963 204.555 83.654 204.609C83.708 204.66 83.7548 204.721 83.7837 204.797C83.8161 204.865 83.8305 204.938 83.8305 205.017V207.38C83.8305 208.282 84.1512 209.704 86.086 210.35C88.0208 210.996 91.1158 211.833 92.7877 212.739C94.3658 213.59 93.7172 216.098 93.6344 216.394C93.6344 216.401 93.6272 216.408 93.6236 216.412C93.6164 216.419 93.6091 216.419 93.5983 216.419H72.4413C72.3584 216.419 72.2755 216.405 72.1963 216.372C72.1206 216.34 72.0449 216.293 71.9873 216.232C71.9296 216.174 71.8828 216.098 71.854 216.022C71.8216 215.943 71.8071 215.86 71.8071 215.773C71.8216 214.795 71.8576 212.851 71.9044 210.805C71.9404 209.127 71.9333 207.622 71.9224 206.652C71.9188 206.341 72.0341 206.038 72.2395 205.811C72.4485 205.58 72.7331 205.436 73.043 205.407L83.2288 204.469Z" fill="#2A2C45"/>
<path d="M4.52792 200.96C4.53152 200.953 4.53872 200.946 4.54954 200.942C4.55674 200.939 4.56756 200.939 4.58197 200.942L13.8238 204.731C14.0075 204.803 14.1553 204.937 14.2381 205.113C14.3246 205.283 14.3462 205.485 14.2958 205.669C14.1048 206.427 13.7986 207.636 13.6328 208.35C13.3734 209.447 14.984 212.225 17.3043 212.738C19.6139 213.254 21.0911 214.787 20.7272 216.97C20.7236 216.977 20.72 216.985 20.7128 216.992C20.7056 216.995 20.6984 216.999 20.6912 216.999H13.6941C12.1447 216.999 10.7252 216.487 8.85878 215.646C7.40676 214.993 2.66516 212.673 0.607828 211.666C0.352011 211.543 0.15744 211.32 0.0601578 211.045C-0.0335217 210.775 -0.0191078 210.479 0.106998 210.219L4.52792 200.96Z" fill="#2A2C45"/>
</svg>
