<svg width="463" height="329" viewBox="0 0 463 329" fill="none" xmlns="http://www.w3.org/2000/svg">
<mask id="mask0_1878_1987" style="mask-type:alpha" maskUnits="userSpaceOnUse" x="0" y="0" width="463" height="329">
<rect width="463" height="329" fill="#D9D9D9"/>
</mask>
<g mask="url(#mask0_1878_1987)">
<path d="M410.753 94.5793C410.774 92.3824 410.187 90.2204 409.05 88.3672C407.917 86.5091 406.289 85.0295 404.364 84.1104C404.256 84.0656 404.165 83.9933 404.097 83.8987C404.033 83.7991 403.999 83.682 403.999 83.5649C403.994 83.4478 404.028 83.3308 404.095 83.2311C404.16 83.1365 404.256 83.0593 404.36 83.0194L404.369 83.0144C406.214 82.1975 408.227 81.8637 410.231 82.0505C412.234 82.2348 414.158 82.9322 415.84 84.078C417.516 85.2238 418.892 86.7855 419.847 88.6163C420.799 90.447 421.297 92.4995 421.297 94.5793C421.297 96.6616 420.794 98.7091 419.842 100.54C418.892 102.376 417.511 103.932 415.835 105.078C414.158 106.224 412.229 106.921 410.231 107.108C408.227 107.292 406.212 106.959 404.364 106.137C404.263 106.092 404.177 106.015 404.117 105.917C404.054 105.82 404.021 105.708 404.021 105.591C404.021 105.479 404.054 105.362 404.117 105.267C404.177 105.173 404.263 105.096 404.364 105.046C406.267 104.094 407.874 102.61 409.006 100.761C410.134 98.9083 410.741 96.7662 410.753 94.5793Z" fill="#9F86AE"/>
<path d="M111.308 185.626C111.316 281.653 111.308 331.133 111.308 331.133L128.98 338.569H132.528C133.192 338.449 133.576 338.342 134.213 338.569H139.25C139.25 338.569 139.258 338.569 139.258 338.565C139.262 338.565 139.266 338.561 139.266 338.561C139.27 338.557 139.274 338.557 139.274 338.553C139.277 338.549 139.277 338.545 139.277 338.545V185.626C139.277 181.181 137.216 177.896 134.213 175.809C133.614 175.674 133.115 175.233 132.528 174.811C131.411 174.25 130.221 173.825 128.98 173.543C128.128 173.348 127.257 173.217 126.381 173.153C125.821 173.249 125.245 173.237 124.692 173.109C122.554 173.149 120.442 173.606 118.511 174.449C118.016 174.843 117.444 175.145 116.822 175.344C113.577 177.372 111.308 180.783 111.308 185.626Z" fill="#FF95BD"/>
<path d="M132.529 174.811V338.568H134.215V175.809C133.681 175.439 133.117 175.105 132.529 174.811Z" fill="#FE458B"/>
<path d="M101.998 123.242V338.567H128.98V123.242C128.98 121.477 128.562 119.731 127.748 118.129C126.934 116.523 125.748 115.099 124.27 113.95C123.74 113.541 123.179 113.163 122.584 112.829C120.718 111.779 118.595 111.163 116.403 111.028C116.1 111.012 115.796 111 115.489 111C115.232 111 114.971 111.008 114.718 111.02C111.278 111.203 108.045 112.567 105.684 114.841C103.319 117.111 102.002 120.117 101.998 123.242Z" fill="#224942"/>
<path d="M122.584 112.83V338.569H124.27V113.951C123.74 113.542 123.179 113.164 122.584 112.83Z" fill="#272828"/>
<path d="M114.717 111.02V338.567H116.402V111.028C116.099 111.012 115.796 111 115.489 111C115.231 111 114.97 111.008 114.717 111.02Z" fill="#272828"/>
<path d="M106.881 113.82V338.568H108.566V112.734C107.975 113.056 107.411 113.418 106.881 113.82Z" fill="#272828"/>
<path d="M240.396 193.346H330.365C335.06 193.35 339.617 195.234 343.326 198.701L358.069 212.637C361.766 216.124 366.331 218.013 371.034 217.993H404.581C408.209 217.993 411.776 219.118 414.936 221.265C418.095 223.416 420.737 226.509 422.607 230.254L433.403 251.892C435.268 255.637 437.91 258.738 441.07 260.889C444.229 263.04 447.796 264.161 451.428 264.145C453.651 264.157 455.785 265.227 457.359 267.119C458.934 269.016 459.82 271.584 459.828 274.26V288.188H217.81L219.422 217.929C219.56 211.345 221.833 205.087 225.753 200.494C229.673 195.902 234.929 193.334 240.396 193.346Z" fill="#F2B140"/>
<path d="M397.574 237.822C397.574 237.822 394.288 241.977 389.727 242.847C385.162 243.722 380.989 240.907 380.989 240.907C380.989 240.907 384.271 236.752 388.836 235.881C393.455 235.007 397.574 237.822 397.574 237.822Z" fill="#F19900"/>
<path d="M306.105 259.59C306.105 259.59 304.101 264.751 299.982 267.363C295.866 269.903 291.194 268.901 291.194 268.901C291.194 268.901 293.198 263.745 297.317 261.132C301.433 258.52 306.105 259.59 306.105 259.59Z" fill="#F19900"/>
<path d="M363.633 268.367C363.633 268.367 362.078 273.794 358.181 276.808C354.284 279.822 349.554 279.348 349.554 279.348C349.554 279.348 351.117 273.921 355.01 270.907C358.903 267.894 363.633 268.367 363.633 268.367Z" fill="#F19900"/>
<path d="M345.719 236.813C345.719 236.813 340.989 237.151 337.15 233.998C333.31 230.853 331.867 225.426 331.867 225.426C331.867 225.426 336.597 225.092 340.432 228.241C344.218 231.394 345.719 236.813 345.719 236.813Z" fill="#F19900"/>
<path d="M239.117 262.273C239.117 262.273 239.228 256.579 242.181 252.222C245.126 247.864 249.744 246.596 249.744 246.596C249.744 246.596 249.633 252.285 246.684 256.639C243.736 260.997 239.117 262.273 239.117 262.273Z" fill="#F19900"/>
<path d="M294.752 229.987C294.752 229.987 290.022 230.317 286.187 227.172C282.347 224.023 280.9 218.596 280.9 218.596C280.9 218.596 285.63 218.262 289.469 221.407C293.308 224.56 294.752 229.987 294.752 229.987Z" fill="#F19900"/>
<path d="M397.576 264.214L411.094 248" stroke="#04051F" stroke-width="2" stroke-linecap="round" stroke-linejoin="round"/>
<path d="M306.104 224.697L314.059 215.115" stroke="#04051F" stroke-width="2" stroke-linecap="round" stroke-linejoin="round"/>
<path d="M244.477 198.781H244.485C247.714 199.024 251.096 199.342 254.64 199.755C265.589 201.059 277.975 203.322 291.458 207.071C303.137 210.304 315.638 214.657 328.737 220.458C341.376 226.056 354.564 233.002 368.109 241.598C380.801 249.65 393.809 259.16 406.954 270.364C426.469 286.928 445.366 306.621 463.502 329.264C463.514 329.28 463.526 329.292 463.526 329.32C463.533 329.359 463.533 329.383 463.533 329.411C463.526 329.439 463.518 329.467 463.506 329.479C463.495 329.507 463.483 329.507 463.468 329.507H25.494C25.4786 329.507 25.4671 329.507 25.4556 329.479C25.4441 329.467 25.4364 329.439 25.4326 329.411C25.4326 329.383 25.4326 329.359 25.4364 329.332C25.4441 329.292 25.4479 329.28 25.4633 329.264C47.8845 301.297 71.4614 277.815 95.8867 259.108C114.945 244.473 134.417 232.485 154.197 223.209C172.042 214.828 190.079 208.534 208.238 204.332C221.764 201.203 233.981 199.553 244.477 198.781Z" fill="#66AB9A"/>
<path d="M95.887 259.109L175.586 329.508" stroke="#3B8774" stroke-width="2" stroke-linecap="round" stroke-linejoin="round"/>
<path d="M154.197 223.227L205.355 329.508" stroke="#3B8774" stroke-width="2" stroke-linecap="round" stroke-linejoin="round"/>
<path d="M208.237 204.332L223.41 329.507" stroke="#3B8774" stroke-width="2" stroke-linecap="round" stroke-linejoin="round"/>
<path d="M254.639 199.756L240.902 329.507" stroke="#3B8774" stroke-width="2" stroke-linecap="round" stroke-linejoin="round"/>
<path d="M256.266 329.508L291.457 207.072" stroke="#3B8774" stroke-width="2" stroke-linecap="round" stroke-linejoin="round"/>
<path d="M274.325 329.507L328.738 220.459" stroke="#3B8774" stroke-width="2" stroke-linecap="round" stroke-linejoin="round"/>
<path d="M292.181 329.508L368.109 241.6" stroke="#3B8774" stroke-width="2" stroke-linecap="round" stroke-linejoin="round"/>
<path d="M328.202 329.507L406.953 270.365" stroke="#3B8774" stroke-width="2" stroke-linecap="round" stroke-linejoin="round"/>
<path d="M97.154 329.585C97.1732 329.585 97.1847 329.577 97.2001 329.573C97.2116 329.558 97.2193 329.546 97.2193 329.526C97.5264 325.701 98.0601 321.908 98.8164 318.151C100.298 310.879 102.702 303.837 105.95 297.209C112.515 283.798 122.217 272.296 134.172 263.76C134.909 263.239 135.662 262.734 136.426 262.249C136.629 262.121 136.982 261.99 137.032 261.712C137.051 261.632 137.048 261.553 137.028 261.477C137.009 261.398 136.971 261.33 136.913 261.279C136.856 261.227 136.79 261.187 136.714 261.171C136.637 261.151 136.56 261.159 136.487 261.187C129.73 263.74 123.326 267.211 117.452 271.513C111.567 275.699 106.149 280.554 101.308 285.985C90.42 298.342 82.6455 313.292 78.6642 329.498C78.6642 329.514 78.6642 329.526 78.6642 329.534C78.6642 329.546 78.6719 329.554 78.6757 329.558C78.6834 329.565 78.6911 329.573 78.7026 329.577C78.7103 329.585 78.7218 329.585 78.7295 329.585H97.154Z" fill="#224942"/>
<path d="M71.0557 329.584C71.0711 329.584 71.0749 329.584 71.0903 329.576C71.0979 329.576 71.1018 329.572 71.1095 329.564C71.1172 329.556 71.121 329.544 71.121 329.537C71.1287 329.533 71.1287 329.517 71.121 329.513C70.8983 327.962 70.4607 326.439 70.165 324.909C69.8003 322.984 69.5047 321.04 69.2858 319.088C68.4566 310.929 68.7445 302.679 70.1458 294.6C72.7642 278.545 78.788 262.792 86.8696 248.853C87.3649 247.994 87.8716 247.143 88.3861 246.304C88.5128 246.085 88.8276 245.779 88.8161 245.509C88.8161 245.421 88.7892 245.334 88.7431 245.262C88.7009 245.187 88.6433 245.127 88.5665 245.087C88.4859 245.056 88.4053 245.044 88.3208 245.048C88.2364 245.064 88.1596 245.095 88.0943 245.155C76.6956 255.898 67.1013 268.53 59.7069 282.541C58.2826 285.233 56.9542 287.972 55.7218 290.763C49.8516 304.146 46.9069 311.931 46.5537 323.847L64.2065 329.592L71.0557 329.584Z" fill="#224942"/>
<path d="M64.2031 329.585C64.2031 329.466 64.1954 329.347 64.1878 329.228C64.0611 326.985 63.8883 324.747 63.6426 322.512C62.487 311.594 59.8226 300.899 55.7222 290.764C53.1384 284.391 49.9556 278.292 46.2316 272.554C36.9483 258.293 24.5706 245.868 10.2118 237.165C9.3057 236.612 8.3881 236.083 7.45516 235.57C7.14034 235.395 6.54529 234.906 6.19208 235.137C6.13449 235.185 6.08074 235.236 6.05003 235.296C6.01931 235.363 6.00011 235.435 6.00011 235.511C6.00011 235.582 6.01163 235.65 6.04234 235.717C6.07689 235.781 6.11912 235.837 6.1767 235.88C13.0298 241.192 18.9537 247.904 24.1406 254.929C29.2084 261.772 33.4776 269.203 36.8792 277.075C40.4343 285.393 42.8492 294.188 44.0509 303.205C44.646 307.817 44.9109 312.481 44.8264 317.133C44.7996 319.447 44.692 321.753 44.5116 324.067C44.3695 325.868 44.0317 327.697 43.9588 329.518C43.9588 329.526 43.9588 329.534 43.9588 329.538C43.9664 329.554 43.9741 329.558 43.9741 329.566C43.9779 329.574 43.9933 329.578 43.9972 329.578C44.0048 329.585 44.0125 329.585 44.024 329.585H64.2031Z" fill="#15332D"/>
<path d="M386.266 315.898C384.668 311.349 381.728 302.992 381.728 302.992C381.501 302.368 381.478 301.68 381.666 301.04C381.85 300.4 382.234 299.839 382.757 299.445C383.175 299.119 383.501 298.69 383.709 298.193C383.912 297.696 383.993 297.155 383.931 296.618C382.085 278.23 382 259.213 382.987 239.85C383.064 238.379 382.58 236.935 381.647 235.83C380.71 234.725 379.393 234.041 377.977 233.922C376.56 233.806 375.155 234.268 374.061 235.206C372.97 236.148 372.275 237.492 372.126 238.955C370.171 257.626 369.983 275.967 372.84 293.788C372.851 293.863 372.836 293.947 372.794 294.01C372.751 294.078 372.686 294.122 372.613 294.141C372.54 294.161 372.46 294.149 372.394 294.114C372.325 294.078 372.275 294.014 372.252 293.939C367.86 280.102 366.536 264.652 365.338 248.573C365.234 247.126 364.589 245.782 363.541 244.82C362.493 243.858 361.126 243.353 359.725 243.416C358.327 243.476 357.007 244.1 356.043 245.15C355.079 246.203 354.546 247.603 354.561 249.054C354.749 266.676 356.911 283.41 362.458 298.598C362.777 299.461 363.364 300.189 364.132 300.658C364.9 301.131 365.799 301.318 366.685 301.187C367.419 301.079 368.167 301.195 368.843 301.509C369.519 301.823 370.099 302.332 370.505 302.972C370.505 302.972 374.733 311.345 377.04 315.898H386.266Z" fill="#224942"/>
<path d="M399.31 315.897C401.138 311.606 405.868 300.466 405.868 300.466C406.524 298.911 407.653 297.623 409.081 296.788C410.705 295.838 411.934 294.303 412.548 292.482L420.91 266.957C421.298 265.776 422.123 264.798 423.202 264.237C424.281 263.68 425.529 263.585 426.677 263.975C427.821 264.364 428.773 265.207 429.322 266.32C429.871 267.434 429.975 268.726 429.61 269.919L421.098 297.854C420.726 299.066 420.081 300.164 419.209 301.058C418.338 301.953 417.27 302.617 416.1 302.991L412.928 303.993C412.422 304.148 411.953 304.422 411.554 304.784C411.158 305.15 410.847 305.599 410.636 306.104C410.636 306.104 407.78 312.74 406.413 315.916L399.31 315.897Z" fill="#002E25"/>
<path d="M386.265 315.897C386.96 313.611 392.526 294.939 392.526 294.939C392.876 293.782 393.452 292.709 394.204 291.783L395.467 290.264C396.37 289.166 397.003 287.858 397.318 286.455L407.761 244.242C408.106 242.866 408.947 241.678 410.11 240.93C411.277 240.175 412.675 239.912 414.022 240.195C414.721 240.342 415.389 240.636 415.98 241.057C416.572 241.479 417.071 242.024 417.455 242.652C417.839 243.28 418.092 243.98 418.207 244.715C418.322 245.447 418.292 246.198 418.115 246.918L408.264 288.498C407.546 291.922 405.776 295.015 403.223 297.313L402.128 298.291C399.821 300.347 398.147 303.054 397.318 306.08C397.318 306.08 395.487 312.72 394.627 315.897H386.265Z" fill="#224942"/>
<path d="M361.725 244.111C361.706 244.067 361.679 244.027 361.637 244.003C361.598 243.979 361.552 243.963 361.506 243.967C361.46 243.967 361.414 243.987 361.38 244.015C361.341 244.047 361.318 244.087 361.303 244.134C361.011 245.156 360.462 247.331 360.673 249.399C360.946 251.943 361.66 252.182 361.956 254.794C362.247 257.557 361.495 257.752 361.702 260.495C361.933 263.585 362.961 263.803 363.361 267.306C363.679 270.093 363.069 270.221 363.487 272.57C364.013 275.421 364.962 275.465 365.422 278.228C365.864 280.884 365.065 281.341 365.634 283.584C366.221 285.977 367.227 285.866 367.776 288.283C368.302 290.589 367.503 291.198 368.152 293.003C368.594 294.243 370.256 295.921 371.074 296.7C371.112 296.736 371.158 296.76 371.208 296.764C371.258 296.772 371.308 296.764 371.354 296.74C371.4 296.716 371.438 296.681 371.462 296.637C371.485 296.589 371.496 296.537 371.496 296.486C371.431 295.333 371.22 292.852 370.736 291.611C369.791 289.154 368.824 289.086 368.49 287.413C368.071 285.389 368.574 284.908 368.194 282.884C367.711 280.383 366.831 280.514 366.263 278.057C365.653 275.532 366.494 274.944 365.948 272.073C365.442 269.437 364.666 269.636 364.225 267.239C363.699 264.412 364.605 263.366 364.328 260.213C364.075 257.45 363.027 257.43 362.777 254.73C362.562 252.512 363.153 252.206 363.069 249.637C362.965 247.438 362.144 245.132 361.725 244.111Z" fill="#002E25"/>
<path d="M375.297 234.974C375.29 234.938 375.274 234.91 375.251 234.887C375.228 234.867 375.197 234.851 375.167 234.847C375.132 234.839 375.101 234.847 375.071 234.863C375.044 234.875 375.021 234.899 375.005 234.93C374.583 235.865 373.596 238.258 373.47 240.672C373.324 243.459 374.015 243.829 373.869 246.679C373.723 249.701 372.944 249.792 372.713 252.77C372.46 256.142 373.428 256.536 373.259 260.365C373.132 263.41 372.502 263.454 372.564 266.042C372.629 269.199 373.554 269.418 373.573 272.443C373.596 275.378 372.733 275.728 372.944 278.252C373.155 280.928 374.161 280.972 374.307 283.672C374.456 286.26 373.593 286.757 373.931 288.824C374.184 290.264 375.612 292.415 376.284 293.353C376.311 293.389 376.345 293.417 376.388 293.432C376.43 293.448 376.476 293.448 376.518 293.436C376.564 293.425 376.599 293.401 376.629 293.365C376.66 293.333 376.679 293.289 376.683 293.242C376.787 292.025 376.998 289.218 376.725 287.759C376.199 284.952 375.232 284.713 375.171 282.864C375.086 280.622 375.654 280.189 375.589 277.946C375.505 275.183 374.625 275.163 374.433 272.42C374.245 269.593 375.148 269.092 375.067 265.935C374.982 263.02 374.184 263.108 374.122 260.432C374.034 257.295 375.109 256.317 375.34 252.882C375.528 249.876 374.476 249.661 374.668 246.723C374.814 244.31 375.443 244.067 375.758 241.304C376.054 238.803 375.528 236.04 375.297 234.974Z" fill="#002E25"/>
<path d="M380.257 234.974C380.25 234.938 380.231 234.91 380.208 234.887C380.184 234.867 380.154 234.851 380.123 234.847C380.092 234.839 380.058 234.847 380.031 234.863C380 234.875 379.977 234.899 379.962 234.93C379.543 235.865 378.553 238.258 378.43 240.672C378.28 243.459 378.975 243.829 378.825 246.679C378.68 249.701 377.904 249.792 377.67 252.77C377.42 256.142 378.384 256.536 378.219 260.365C378.092 263.41 377.462 263.454 377.524 266.042C377.589 269.199 378.511 269.418 378.534 272.443C378.553 275.378 377.693 275.728 377.9 278.252C378.111 280.928 379.121 280.972 379.267 283.672C379.413 286.26 378.553 286.757 378.887 288.824C379.14 290.264 380.568 292.415 381.24 293.353C381.267 293.389 381.306 293.417 381.348 293.432C381.39 293.448 381.436 293.448 381.478 293.436C381.521 293.425 381.559 293.401 381.586 293.365C381.617 293.333 381.636 293.289 381.64 293.242C381.747 292.025 381.958 289.218 381.682 287.759C381.16 284.952 380.192 284.713 380.127 282.864C380.046 280.622 380.611 280.189 380.549 277.946C380.465 275.183 379.582 275.163 379.394 272.42C379.205 269.593 380.108 269.092 380.023 265.935C379.939 263.02 379.14 263.108 379.079 260.432C378.994 257.295 380.065 256.317 380.296 252.882C380.488 249.876 379.436 249.661 379.624 246.723C379.774 244.31 380.399 244.067 380.718 241.304C381.01 238.803 380.488 236.04 380.257 234.974Z" fill="#002E25"/>
<path d="M400.993 296.9C400.993 296.923 401 296.947 401.012 296.971C401.027 296.991 401.046 297.007 401.069 297.019C401.093 297.027 401.116 297.031 401.142 297.023C401.165 297.019 401.188 297.003 401.204 296.987C401.772 296.244 403.323 294.156 404.06 291.83C404.901 289.218 404.398 288.697 405.258 286.017C406.16 283.191 406.878 283.298 407.823 280.515C408.913 277.382 408.157 276.773 409.293 273.159C410.195 270.289 410.741 270.396 411.351 267.939C412.107 264.933 411.351 264.5 412.13 261.629C412.864 258.842 413.704 258.711 414.165 256.277C414.672 253.685 413.808 253.403 414.357 250.814C414.879 248.333 415.785 248.051 415.993 246.003C416.142 244.675 415.912 242.695 415.743 241.654C415.732 241.598 415.705 241.55 415.666 241.511C415.632 241.471 415.582 241.447 415.528 241.439C415.478 241.427 415.424 241.435 415.375 241.459C415.328 241.483 415.286 241.519 415.259 241.566C414.63 242.676 413.409 244.982 413.286 246.373C413.033 249.16 413.789 249.618 413.39 251.403C412.883 253.554 412.276 253.84 411.75 255.971C411.098 258.623 411.877 258.842 411.332 261.474C410.764 264.193 409.858 264.456 409.124 267.482C408.452 270.265 409.166 270.372 408.537 272.921C407.8 275.922 406.602 276.575 405.55 279.795C404.605 282.602 405.469 283.039 404.563 285.803C403.807 288.065 403.219 288.129 402.21 290.697C401.308 293.047 401.058 295.918 400.993 296.9Z" fill="#002E25"/>
<path d="M397.252 296.331C397.252 296.359 397.26 296.383 397.272 296.403C397.287 296.427 397.306 296.443 397.329 296.451C397.352 296.462 397.375 296.462 397.398 296.455C397.425 296.451 397.444 296.439 397.464 296.419C398.032 295.679 399.583 293.592 400.32 291.262C401.161 288.654 400.658 288.129 401.518 285.453C402.42 282.626 403.134 282.734 404.082 279.95C405.173 276.817 404.417 276.205 405.553 272.595C406.455 269.72 407 269.832 407.611 267.37C408.367 264.369 407.611 263.935 408.386 261.061C409.123 258.277 409.964 258.146 410.425 255.709C410.932 253.121 410.068 252.838 410.617 250.25C411.139 247.769 412.045 247.487 412.252 245.439C412.402 244.111 412.172 242.131 412.003 241.085C411.991 241.034 411.964 240.982 411.926 240.946C411.892 240.907 411.842 240.883 411.788 240.875C411.738 240.863 411.684 240.871 411.634 240.891C411.588 240.915 411.546 240.954 411.519 241.002C410.889 242.111 409.669 244.417 409.546 245.809C409.292 248.596 410.049 249.053 409.649 250.834C409.143 252.989 408.536 253.272 408.01 255.407C407.357 258.059 408.137 258.277 407.592 260.91C407.023 263.629 406.117 263.892 405.384 266.913C404.712 269.7 405.426 269.808 404.797 272.352C404.059 275.358 402.862 276.01 401.81 279.231C400.865 282.038 401.729 282.471 400.823 285.234C400.067 287.497 399.479 287.564 398.47 290.133C397.567 292.483 397.318 295.353 397.252 296.331Z" fill="#002E25"/>
<path d="M357.249 244.874C357.229 244.83 357.199 244.795 357.16 244.771C357.122 244.747 357.076 244.735 357.034 244.739C356.987 244.739 356.941 244.755 356.907 244.783C356.872 244.811 356.842 244.85 356.83 244.894C356.515 245.916 355.924 248.202 356.135 250.357C356.408 252.965 357.187 253.208 357.479 255.903C357.794 258.734 356.976 258.953 357.187 261.78C357.437 264.977 358.508 265.175 358.907 268.786C359.245 271.656 358.592 271.787 359.034 274.205C359.583 277.139 360.569 277.187 361.049 280.014C361.514 282.753 360.673 283.21 361.261 285.54C361.89 288.021 362.942 287.89 363.53 290.391C364.075 292.765 363.257 293.397 363.929 295.265C364.393 296.573 366.198 298.315 367.039 299.098C367.077 299.13 367.123 299.15 367.173 299.158C367.223 299.166 367.273 299.154 367.319 299.13C367.365 299.11 367.4 299.074 367.426 299.027C367.453 298.983 367.461 298.931 367.461 298.88C367.396 297.703 367.165 295.114 366.662 293.806C365.676 291.262 364.643 291.218 364.286 289.476C363.844 287.389 364.37 286.888 363.971 284.825C363.468 282.256 362.543 282.387 361.932 279.859C361.303 277.25 362.186 276.642 361.598 273.704C361.049 270.984 360.255 271.199 359.767 268.722C359.222 265.804 360.189 264.718 359.894 261.474C359.644 258.623 358.508 258.603 358.258 255.84C358.047 253.554 358.654 253.228 358.592 250.596C358.55 248.309 357.671 245.916 357.249 244.874Z" fill="#002E25"/>
<path d="M382.02 315.897C383.241 312.239 386.055 303.861 386.055 303.861C386.834 301.516 386.727 298.951 385.759 296.681L385.51 296.116C384.769 294.387 384.523 292.478 384.796 290.61C388.032 274.181 390.297 257.339 392.443 240.457C392.689 238.799 393.561 237.312 394.866 236.322C396.171 235.328 397.803 234.91 399.404 235.161C401.005 235.411 402.445 236.31 403.408 237.654C404.372 239.002 404.779 240.691 404.545 242.349C402.61 259.43 400.383 276.403 397.527 293.027C397.273 294.904 396.413 296.637 395.089 297.945C393.998 299.019 393.219 300.394 392.843 301.905C392.843 301.905 390.297 311.869 389.272 315.897H382.02Z" fill="#002E25"/>
<path d="M391.706 293.787C391.71 293.835 391.725 293.882 391.752 293.918C391.783 293.958 391.821 293.986 391.867 293.998C391.913 294.01 391.959 294.006 392.002 293.99C392.048 293.97 392.082 293.938 392.105 293.898C392.693 292.916 393.806 290.849 394.294 288.674C394.877 285.954 394.332 285.497 394.923 282.69C395.553 279.732 396.267 279.776 396.962 276.857C397.737 273.573 396.939 273.052 397.737 269.287C398.348 266.305 398.916 266.349 399.292 263.781C399.753 260.671 398.978 260.321 399.461 257.339C399.922 254.449 400.74 254.23 400.993 251.729C401.246 249.054 400.363 248.879 400.678 246.203C400.974 243.634 401.834 243.265 401.853 241.177C401.876 239.694 400.951 237.237 400.532 236.191C400.517 236.16 400.494 236.128 400.459 236.108C400.429 236.088 400.394 236.08 400.356 236.08C400.317 236.084 400.283 236.096 400.256 236.12C400.225 236.144 400.206 236.176 400.195 236.215C399.899 237.388 399.189 240.326 399.189 241.825C399.189 244.68 400.006 245.026 399.757 246.875C399.461 249.093 398.893 249.443 398.555 251.662C398.156 254.405 398.954 254.536 398.663 257.256C398.367 260.059 397.465 260.409 397.023 263.542C396.624 266.436 397.338 266.46 396.962 269.092C396.497 272.202 395.384 272.985 394.628 276.36C393.956 279.295 394.858 279.645 394.209 282.515C393.683 284.869 393.096 285.02 392.339 287.696C391.729 289.982 391.687 292.57 391.706 293.787Z" fill="#224942"/>
<path d="M387.149 293.98C387.149 294.028 387.164 294.076 387.195 294.116C387.222 294.151 387.264 294.179 387.306 294.191C387.352 294.203 387.402 294.199 387.445 294.183C387.487 294.163 387.521 294.131 387.544 294.092C388.136 293.11 389.249 291.042 389.733 288.867C390.32 286.148 389.775 285.691 390.362 282.883C390.996 279.925 391.706 279.969 392.401 277.055C393.18 273.771 392.382 273.246 393.18 269.481C393.787 266.499 394.355 266.542 394.735 263.978C395.196 260.865 394.417 260.519 394.9 257.537C395.365 254.642 396.183 254.424 396.436 251.923C396.689 249.247 395.806 249.072 396.121 246.396C396.413 243.828 397.273 243.458 397.296 241.371C397.319 239.911 396.835 237.255 396.601 236.083C396.593 236.043 396.574 236.011 396.544 235.983C396.517 235.959 396.478 235.943 396.444 235.939C396.405 235.939 396.367 235.947 396.336 235.971C396.302 235.991 396.279 236.023 396.267 236.059C395.783 237.343 394.647 240.52 394.647 242.047C394.647 244.893 395.469 245.243 395.215 247.092C394.92 249.311 394.355 249.66 394.017 251.879C393.618 254.618 394.417 254.75 394.125 257.469C393.829 260.28 392.927 260.626 392.486 263.759C392.086 266.654 392.8 266.674 392.42 269.31C391.96 272.419 390.846 273.202 390.09 276.578C389.418 279.512 390.32 279.862 389.667 282.736C389.122 285.17 388.535 285.301 387.798 287.913C387.191 290.175 387.126 292.764 387.149 293.98Z" fill="#224942"/>
<path d="M409.106 299.163C409.079 299.167 409.052 299.163 409.025 299.151C409.002 299.139 408.983 299.123 408.964 299.103C408.952 299.079 408.941 299.051 408.941 299.023C408.937 298.996 408.944 298.968 408.956 298.948C409.505 297.954 410.204 297.063 411.037 296.312C412.15 295.354 413.432 295.159 413.916 294.614C414.734 293.7 414.062 292.439 414.65 290.59C415.133 289.064 415.678 289.394 416.373 287.672C417.045 286.062 416.331 285.628 416.961 283.692C417.552 281.907 418.224 282.038 418.642 280.428C419.084 278.667 418.328 278.253 418.834 276.663C419.295 275.227 420.178 274.703 420.808 273.14C421.376 271.701 420.808 271.701 421.099 270.027C421.337 268.671 421.956 267.423 422.889 266.437C422.946 266.377 423.015 266.333 423.096 266.313C423.176 266.293 423.257 266.293 423.334 266.317C423.415 266.341 423.484 266.389 423.537 266.452C423.591 266.516 423.63 266.592 423.645 266.675C423.852 267.995 423.653 269.351 423.077 270.548C422.405 271.899 421.921 271.701 421.541 273.204C421.207 274.595 421.48 275.291 421.207 276.73C420.827 278.706 419.84 278.774 419.295 280.905C418.896 282.472 419.399 282.539 418.957 284.062C418.435 285.867 417.698 285.887 417.13 287.672C416.604 289.35 417.195 289.696 416.669 291.33C416.247 292.634 415.471 293.179 414.569 294.725C413.855 295.942 412.991 297.445 412.319 297.986C411.436 298.705 409.754 299.055 409.106 299.163Z" fill="#224942"/>
<path d="M412.99 300.641C412.963 300.645 412.936 300.641 412.913 300.629C412.89 300.621 412.867 300.601 412.852 300.581C412.836 300.557 412.829 300.529 412.825 300.502C412.825 300.474 412.829 300.446 412.844 300.422C413.389 299.432 414.092 298.541 414.925 297.79C416.038 296.832 417.317 296.637 417.8 296.092C418.622 295.178 417.946 293.917 418.538 292.069C419.017 290.546 419.566 290.872 420.258 289.154C420.933 287.544 420.219 287.107 420.849 285.17C421.436 283.385 422.108 283.516 422.53 281.906C422.972 280.145 422.212 279.731 422.718 278.141C423.179 276.705 424.062 276.185 424.692 274.618C425.26 273.183 424.692 273.183 424.987 271.505C425.222 270.153 425.844 268.901 426.773 267.919C426.83 267.855 426.903 267.811 426.98 267.791C427.061 267.772 427.145 267.772 427.222 267.799C427.299 267.823 427.368 267.871 427.425 267.931C427.479 267.994 427.514 268.074 427.529 268.157C427.736 269.477 427.541 270.829 426.961 272.03C426.289 273.378 425.805 273.183 425.429 274.682C425.091 276.077 425.364 276.773 425.091 278.208C424.715 280.188 423.724 280.252 423.179 282.387C422.78 283.954 423.287 284.017 422.845 285.54C422.319 287.345 421.582 287.369 421.018 289.154C420.492 290.828 421.079 291.178 420.553 292.808C420.135 294.112 419.355 294.657 418.453 296.204C417.739 297.42 416.879 298.923 416.203 299.468C415.32 300.183 413.643 300.533 412.99 300.641Z" fill="#224942"/>
<path d="M372.84 293.787L374.729 304.602" stroke="#017560" stroke-width="2" stroke-linecap="round" stroke-linejoin="round"/>
<path d="M361.727 266.654L361.032 268.522" stroke="#017560" stroke-width="2" stroke-linecap="round" stroke-linejoin="round"/>
<path d="M375.907 260.232L376.871 258.232" stroke="#017560" stroke-width="2" stroke-linecap="round" stroke-linejoin="round"/>
<path d="M381.451 244.98L380.718 246.332" stroke="#017560" stroke-width="2" stroke-linecap="round" stroke-linejoin="round"/>
<path d="M396.412 257.95L397.549 256.404" stroke="#017560" stroke-width="2" stroke-linecap="round" stroke-linejoin="round"/>
<path d="M389.271 271.028L390.445 269.506" stroke="#017560" stroke-width="2" stroke-linecap="round" stroke-linejoin="round"/>
<path d="M402.086 273.096L403.66 271.029" stroke="#017560" stroke-width="2" stroke-linecap="round" stroke-linejoin="round"/>
<path d="M394.124 303.642L396.727 301.316" stroke="#017560" stroke-width="2" stroke-linecap="round" stroke-linejoin="round"/>
<path d="M388.595 300.685L391.348 297.834" stroke="#017560" stroke-width="2" stroke-linecap="round" stroke-linejoin="round"/>
<path d="M407.023 304.47L409.879 303.143" stroke="#017560" stroke-width="2" stroke-linecap="round" stroke-linejoin="round"/>
<path d="M420.153 281.515L421.98 280.295" stroke="#017560" stroke-width="2" stroke-linecap="round" stroke-linejoin="round"/>
<path d="M356.468 250.006H357.9" stroke="#01BC9C" stroke-width="2" stroke-linecap="round" stroke-linejoin="round"/>
<path d="M357.188 249.248V250.746" stroke="#01BC9C" stroke-width="2" stroke-linecap="round" stroke-linejoin="round"/>
<path d="M356.684 249.486L357.689 250.532" stroke="#01BC9C" stroke-width="2" stroke-linecap="round" stroke-linejoin="round"/>
<path d="M357.689 249.486L356.684 250.532" stroke="#01BC9C" stroke-width="2" stroke-linecap="round" stroke-linejoin="round"/>
<path d="M361.072 248.791H362.523" stroke="#01BC9C" stroke-width="2" stroke-linecap="round" stroke-linejoin="round"/>
<path d="M361.809 248.051V249.549" stroke="#01BC9C" stroke-width="2" stroke-linecap="round" stroke-linejoin="round"/>
<path d="M361.303 248.266L362.312 249.335" stroke="#01BC9C" stroke-width="2" stroke-linecap="round" stroke-linejoin="round"/>
<path d="M362.312 248.266L361.303 249.335" stroke="#01BC9C" stroke-width="2" stroke-linecap="round" stroke-linejoin="round"/>
<path d="M357.9 261.781H359.328" stroke="#01BC9C" stroke-width="2" stroke-linecap="round" stroke-linejoin="round"/>
<path d="M358.615 261.041V262.543" stroke="#01BC9C" stroke-width="2" stroke-linecap="round" stroke-linejoin="round"/>
<path d="M358.111 261.26L359.117 262.325" stroke="#01BC9C" stroke-width="2" stroke-linecap="round" stroke-linejoin="round"/>
<path d="M359.117 261.26L358.111 262.325" stroke="#01BC9C" stroke-width="2" stroke-linecap="round" stroke-linejoin="round"/>
<path d="M362.482 260.52H363.91" stroke="#01BC9C" stroke-width="2" stroke-linecap="round" stroke-linejoin="round"/>
<path d="M363.195 259.775V261.258" stroke="#01BC9C" stroke-width="2" stroke-linecap="round" stroke-linejoin="round"/>
<path d="M362.691 259.996L363.697 261.041" stroke="#01BC9C" stroke-width="2" stroke-linecap="round" stroke-linejoin="round"/>
<path d="M363.697 259.996L362.691 261.041" stroke="#01BC9C" stroke-width="2" stroke-linecap="round" stroke-linejoin="round"/>
<path d="M359.584 273.898H361.031" stroke="#01BC9C" stroke-width="2" stroke-linecap="round" stroke-linejoin="round"/>
<path d="M360.297 273.141V274.639" stroke="#01BC9C" stroke-width="2" stroke-linecap="round" stroke-linejoin="round"/>
<path d="M359.791 273.354L360.824 274.419" stroke="#01BC9C" stroke-width="2" stroke-linecap="round" stroke-linejoin="round"/>
<path d="M360.824 273.354L359.791 274.419" stroke="#01BC9C" stroke-width="2" stroke-linecap="round" stroke-linejoin="round"/>
<path d="M361.744 284.801H363.195" stroke="#01BC9C" stroke-width="2" stroke-linecap="round" stroke-linejoin="round"/>
<path d="M362.48 284.039V285.541" stroke="#01BC9C" stroke-width="2" stroke-linecap="round" stroke-linejoin="round"/>
<path d="M361.955 284.256L362.984 285.321" stroke="#01BC9C" stroke-width="2" stroke-linecap="round" stroke-linejoin="round"/>
<path d="M362.984 284.256L361.955 285.321" stroke="#01BC9C" stroke-width="2" stroke-linecap="round" stroke-linejoin="round"/>
<path d="M364.623 294.701H366.074" stroke="#01BC9C" stroke-width="2" stroke-linecap="round" stroke-linejoin="round"/>
<path d="M365.357 293.938V295.44" stroke="#01BC9C" stroke-width="2" stroke-linecap="round" stroke-linejoin="round"/>
<path d="M364.834 294.18L365.863 295.221" stroke="#01BC9C" stroke-width="2" stroke-linecap="round" stroke-linejoin="round"/>
<path d="M365.863 294.18L364.834 295.221" stroke="#01BC9C" stroke-width="2" stroke-linecap="round" stroke-linejoin="round"/>
<path d="M364.244 272.443H365.695" stroke="#01BC9C" stroke-width="2" stroke-linecap="round" stroke-linejoin="round"/>
<path d="M364.961 271.699V273.182" stroke="#01BC9C" stroke-width="2" stroke-linecap="round" stroke-linejoin="round"/>
<path d="M364.455 271.918L365.484 272.963" stroke="#01BC9C" stroke-width="2" stroke-linecap="round" stroke-linejoin="round"/>
<path d="M365.484 271.918L364.455 272.963" stroke="#01BC9C" stroke-width="2" stroke-linecap="round" stroke-linejoin="round"/>
<path d="M366.076 283.104H367.523" stroke="#01BC9C" stroke-width="2" stroke-linecap="round" stroke-linejoin="round"/>
<path d="M366.789 282.365V283.844" stroke="#01BC9C" stroke-width="2" stroke-linecap="round" stroke-linejoin="round"/>
<path d="M366.282 282.582L367.311 283.623" stroke="#01BC9C" stroke-width="2" stroke-linecap="round" stroke-linejoin="round"/>
<path d="M367.311 282.582L366.282 283.623" stroke="#01BC9C" stroke-width="2" stroke-linecap="round" stroke-linejoin="round"/>
<path d="M368.787 292.371H370.215" stroke="#01BC9C" stroke-width="2" stroke-linecap="round" stroke-linejoin="round"/>
<path d="M369.496 291.631V293.133" stroke="#01BC9C" stroke-width="2" stroke-linecap="round" stroke-linejoin="round"/>
<path d="M368.994 291.852L370.004 292.917" stroke="#01BC9C" stroke-width="2" stroke-linecap="round" stroke-linejoin="round"/>
<path d="M370.004 291.852L368.994 292.917" stroke="#01BC9C" stroke-width="2" stroke-linecap="round" stroke-linejoin="round"/>
<path d="M374.728 288.26H376.156" stroke="#01BC9C" stroke-width="2" stroke-linecap="round" stroke-linejoin="round"/>
<path d="M375.441 287.496V288.998" stroke="#01BC9C" stroke-width="2" stroke-linecap="round" stroke-linejoin="round"/>
<path d="M374.94 287.715L375.949 288.78" stroke="#01BC9C" stroke-width="2" stroke-linecap="round" stroke-linejoin="round"/>
<path d="M375.949 287.715L374.94 288.78" stroke="#01BC9C" stroke-width="2" stroke-linecap="round" stroke-linejoin="round"/>
<path d="M387.881 289H389.332" stroke="#01BC9C" stroke-width="2" stroke-linecap="round" stroke-linejoin="round"/>
<path d="M388.596 288.26V289.738" stroke="#01BC9C" stroke-width="2" stroke-linecap="round" stroke-linejoin="round"/>
<path d="M388.092 288.479L389.121 289.52" stroke="#01BC9C" stroke-width="2" stroke-linecap="round" stroke-linejoin="round"/>
<path d="M389.121 288.479L388.092 289.52" stroke="#01BC9C" stroke-width="2" stroke-linecap="round" stroke-linejoin="round"/>
<path d="M390.678 276.773H392.129" stroke="#01BC9C" stroke-width="2" stroke-linecap="round" stroke-linejoin="round"/>
<path d="M391.414 276.029V277.532" stroke="#01BC9C" stroke-width="2" stroke-linecap="round" stroke-linejoin="round"/>
<path d="M390.889 276.248L391.918 277.313" stroke="#01BC9C" stroke-width="2" stroke-linecap="round" stroke-linejoin="round"/>
<path d="M391.918 276.248L390.889 277.313" stroke="#01BC9C" stroke-width="2" stroke-linecap="round" stroke-linejoin="round"/>
<path d="M393.029 263.586H394.477" stroke="#01BC9C" stroke-width="2" stroke-linecap="round" stroke-linejoin="round"/>
<path d="M393.764 262.846V264.324" stroke="#01BC9C" stroke-width="2" stroke-linecap="round" stroke-linejoin="round"/>
<path d="M393.241 263.064L394.27 264.106" stroke="#01BC9C" stroke-width="2" stroke-linecap="round" stroke-linejoin="round"/>
<path d="M394.27 263.064L393.241 264.106" stroke="#01BC9C" stroke-width="2" stroke-linecap="round" stroke-linejoin="round"/>
<path d="M394.523 252.098H395.971" stroke="#01BC9C" stroke-width="2" stroke-linecap="round" stroke-linejoin="round"/>
<path d="M395.258 251.359V252.858" stroke="#01BC9C" stroke-width="2" stroke-linecap="round" stroke-linejoin="round"/>
<path d="M394.733 251.574L395.762 252.643" stroke="#01BC9C" stroke-width="2" stroke-linecap="round" stroke-linejoin="round"/>
<path d="M395.762 251.574L394.733 252.643" stroke="#01BC9C" stroke-width="2" stroke-linecap="round" stroke-linejoin="round"/>
<path d="M395.255 241.893H396.684" stroke="#01BC9C" stroke-width="2" stroke-linecap="round" stroke-linejoin="round"/>
<path d="M395.971 241.129V242.631" stroke="#01BC9C" stroke-width="2" stroke-linecap="round" stroke-linejoin="round"/>
<path d="M395.467 241.348L396.477 242.413" stroke="#01BC9C" stroke-width="2" stroke-linecap="round" stroke-linejoin="round"/>
<path d="M396.477 241.348L395.467 242.413" stroke="#01BC9C" stroke-width="2" stroke-linecap="round" stroke-linejoin="round"/>
<path d="M410.154 245.59H411.582" stroke="#01BC9C" stroke-width="2" stroke-linecap="round" stroke-linejoin="round"/>
<path d="M410.867 244.85V246.352" stroke="#01BC9C" stroke-width="2" stroke-linecap="round" stroke-linejoin="round"/>
<path d="M410.365 245.07L411.375 246.136" stroke="#01BC9C" stroke-width="2" stroke-linecap="round" stroke-linejoin="round"/>
<path d="M411.375 245.07L410.365 246.136" stroke="#01BC9C" stroke-width="2" stroke-linecap="round" stroke-linejoin="round"/>
<path d="M408.513 255.621H409.945" stroke="#01BC9C" stroke-width="2" stroke-linecap="round" stroke-linejoin="round"/>
<path d="M409.229 254.859V256.362" stroke="#01BC9C" stroke-width="2" stroke-linecap="round" stroke-linejoin="round"/>
<path d="M408.725 255.076L409.734 256.141" stroke="#01BC9C" stroke-width="2" stroke-linecap="round" stroke-linejoin="round"/>
<path d="M409.734 255.076L408.725 256.141" stroke="#01BC9C" stroke-width="2" stroke-linecap="round" stroke-linejoin="round"/>
<path d="M405.869 267.043H407.297" stroke="#01BC9C" stroke-width="2" stroke-linecap="round" stroke-linejoin="round"/>
<path d="M406.582 266.305V267.807" stroke="#01BC9C" stroke-width="2" stroke-linecap="round" stroke-linejoin="round"/>
<path d="M406.08 266.523L407.086 267.589" stroke="#01BC9C" stroke-width="2" stroke-linecap="round" stroke-linejoin="round"/>
<path d="M407.086 266.523L406.08 267.589" stroke="#01BC9C" stroke-width="2" stroke-linecap="round" stroke-linejoin="round"/>
<path d="M402.359 279.338H403.807" stroke="#01BC9C" stroke-width="2" stroke-linecap="round" stroke-linejoin="round"/>
<path d="M403.074 278.6V280.102" stroke="#01BC9C" stroke-width="2" stroke-linecap="round" stroke-linejoin="round"/>
<path d="M402.571 278.816L403.6 279.882" stroke="#01BC9C" stroke-width="2" stroke-linecap="round" stroke-linejoin="round"/>
<path d="M403.6 278.816L402.571 279.882" stroke="#01BC9C" stroke-width="2" stroke-linecap="round" stroke-linejoin="round"/>
<path d="M398.596 291.242H400.047" stroke="#01BC9C" stroke-width="2" stroke-linecap="round" stroke-linejoin="round"/>
<path d="M399.311 290.502V291.981" stroke="#01BC9C" stroke-width="2" stroke-linecap="round" stroke-linejoin="round"/>
<path d="M398.807 290.723L399.836 291.764" stroke="#01BC9C" stroke-width="2" stroke-linecap="round" stroke-linejoin="round"/>
<path d="M399.836 290.723L398.807 291.764" stroke="#01BC9C" stroke-width="2" stroke-linecap="round" stroke-linejoin="round"/>
<path d="M411.139 297.008H412.59" stroke="#01BC9C" stroke-width="2" stroke-linecap="round" stroke-linejoin="round"/>
<path d="M411.855 296.268V297.77" stroke="#01BC9C" stroke-width="2" stroke-linecap="round" stroke-linejoin="round"/>
<path d="M411.35 296.486L412.379 297.552" stroke="#01BC9C" stroke-width="2" stroke-linecap="round" stroke-linejoin="round"/>
<path d="M412.379 296.486L411.35 297.552" stroke="#01BC9C" stroke-width="2" stroke-linecap="round" stroke-linejoin="round"/>
<path d="M414.879 290.916H416.33" stroke="#01BC9C" stroke-width="2" stroke-linecap="round" stroke-linejoin="round"/>
<path d="M415.617 290.178V291.656" stroke="#01BC9C" stroke-width="2" stroke-linecap="round" stroke-linejoin="round"/>
<path d="M415.092 290.391L416.121 291.436" stroke="#01BC9C" stroke-width="2" stroke-linecap="round" stroke-linejoin="round"/>
<path d="M416.121 290.391L415.092 291.436" stroke="#01BC9C" stroke-width="2" stroke-linecap="round" stroke-linejoin="round"/>
<path d="M417.189 283.842H418.621" stroke="#01BC9C" stroke-width="2" stroke-linecap="round" stroke-linejoin="round"/>
<path d="M417.904 283.104V284.602" stroke="#01BC9C" stroke-width="2" stroke-linecap="round" stroke-linejoin="round"/>
<path d="M417.4 283.322L418.41 284.368" stroke="#01BC9C" stroke-width="2" stroke-linecap="round" stroke-linejoin="round"/>
<path d="M418.41 283.322L417.4 284.368" stroke="#01BC9C" stroke-width="2" stroke-linecap="round" stroke-linejoin="round"/>
<path d="M419.041 276.773H420.469" stroke="#01BC9C" stroke-width="2" stroke-linecap="round" stroke-linejoin="round"/>
<path d="M419.756 276.029V277.532" stroke="#01BC9C" stroke-width="2" stroke-linecap="round" stroke-linejoin="round"/>
<path d="M419.252 276.248L420.258 277.313" stroke="#01BC9C" stroke-width="2" stroke-linecap="round" stroke-linejoin="round"/>
<path d="M420.258 276.248L419.252 277.313" stroke="#01BC9C" stroke-width="2" stroke-linecap="round" stroke-linejoin="round"/>
<path d="M414.207 245.959H415.658" stroke="#01BC9C" stroke-width="2" stroke-linecap="round" stroke-linejoin="round"/>
<path d="M414.926 245.201V246.7" stroke="#01BC9C" stroke-width="2" stroke-linecap="round" stroke-linejoin="round"/>
<path d="M414.42 245.439L415.449 246.485" stroke="#01BC9C" stroke-width="2" stroke-linecap="round" stroke-linejoin="round"/>
<path d="M415.449 245.439L414.42 246.485" stroke="#01BC9C" stroke-width="2" stroke-linecap="round" stroke-linejoin="round"/>
<path d="M412.107 256.361H413.535" stroke="#01BC9C" stroke-width="2" stroke-linecap="round" stroke-linejoin="round"/>
<path d="M412.82 255.621V257.1" stroke="#01BC9C" stroke-width="2" stroke-linecap="round" stroke-linejoin="round"/>
<path d="M412.318 255.84L413.324 256.881" stroke="#01BC9C" stroke-width="2" stroke-linecap="round" stroke-linejoin="round"/>
<path d="M413.324 255.84L412.318 256.881" stroke="#01BC9C" stroke-width="2" stroke-linecap="round" stroke-linejoin="round"/>
<path d="M409.669 267.809H411.098" stroke="#01BC9C" stroke-width="2" stroke-linecap="round" stroke-linejoin="round"/>
<path d="M410.383 267.043V268.545" stroke="#01BC9C" stroke-width="2" stroke-linecap="round" stroke-linejoin="round"/>
<path d="M409.881 267.285L410.891 268.326" stroke="#01BC9C" stroke-width="2" stroke-linecap="round" stroke-linejoin="round"/>
<path d="M410.891 267.285L409.881 268.326" stroke="#01BC9C" stroke-width="2" stroke-linecap="round" stroke-linejoin="round"/>
<path d="M405.869 280.164H407.297" stroke="#01BC9C" stroke-width="2" stroke-linecap="round" stroke-linejoin="round"/>
<path d="M406.582 279.406V280.905" stroke="#01BC9C" stroke-width="2" stroke-linecap="round" stroke-linejoin="round"/>
<path d="M406.08 279.645L407.086 280.69" stroke="#01BC9C" stroke-width="2" stroke-linecap="round" stroke-linejoin="round"/>
<path d="M407.086 279.645L406.08 280.69" stroke="#01BC9C" stroke-width="2" stroke-linecap="round" stroke-linejoin="round"/>
<path d="M402.148 291.982H403.6" stroke="#01BC9C" stroke-width="2" stroke-linecap="round" stroke-linejoin="round"/>
<path d="M402.863 291.242V292.745" stroke="#01BC9C" stroke-width="2" stroke-linecap="round" stroke-linejoin="round"/>
<path d="M402.36 291.459L403.389 292.524" stroke="#01BC9C" stroke-width="2" stroke-linecap="round" stroke-linejoin="round"/>
<path d="M403.389 291.459L402.36 292.524" stroke="#01BC9C" stroke-width="2" stroke-linecap="round" stroke-linejoin="round"/>
<path d="M414.879 298.529H416.33" stroke="#01BC9C" stroke-width="2" stroke-linecap="round" stroke-linejoin="round"/>
<path d="M415.617 297.77V299.268" stroke="#01BC9C" stroke-width="2" stroke-linecap="round" stroke-linejoin="round"/>
<path d="M415.092 297.986L416.121 299.055" stroke="#01BC9C" stroke-width="2" stroke-linecap="round" stroke-linejoin="round"/>
<path d="M416.121 297.986L415.092 299.055" stroke="#01BC9C" stroke-width="2" stroke-linecap="round" stroke-linejoin="round"/>
<path d="M419.041 292.371H420.469" stroke="#01BC9C" stroke-width="2" stroke-linecap="round" stroke-linejoin="round"/>
<path d="M419.756 291.631V293.133" stroke="#01BC9C" stroke-width="2" stroke-linecap="round" stroke-linejoin="round"/>
<path d="M419.252 291.852L420.258 292.917" stroke="#01BC9C" stroke-width="2" stroke-linecap="round" stroke-linejoin="round"/>
<path d="M420.258 291.852L419.252 292.917" stroke="#01BC9C" stroke-width="2" stroke-linecap="round" stroke-linejoin="round"/>
<path d="M421.268 285.346H422.719" stroke="#01BC9C" stroke-width="2" stroke-linecap="round" stroke-linejoin="round"/>
<path d="M421.98 284.604V286.086" stroke="#01BC9C" stroke-width="2" stroke-linecap="round" stroke-linejoin="round"/>
<path d="M421.479 284.824L422.508 285.866" stroke="#01BC9C" stroke-width="2" stroke-linecap="round" stroke-linejoin="round"/>
<path d="M422.508 284.824L421.479 285.866" stroke="#01BC9C" stroke-width="2" stroke-linecap="round" stroke-linejoin="round"/>
<path d="M423.326 278.121H424.758" stroke="#01BC9C" stroke-width="2" stroke-linecap="round" stroke-linejoin="round"/>
<path d="M424.039 277.381V278.859" stroke="#01BC9C" stroke-width="2" stroke-linecap="round" stroke-linejoin="round"/>
<path d="M423.537 277.598L424.547 278.643" stroke="#01BC9C" stroke-width="2" stroke-linecap="round" stroke-linejoin="round"/>
<path d="M424.547 277.598L423.537 278.643" stroke="#01BC9C" stroke-width="2" stroke-linecap="round" stroke-linejoin="round"/>
<path d="M421.648 269.199H423.076" stroke="#01BC9C" stroke-width="2" stroke-linecap="round" stroke-linejoin="round"/>
<path d="M422.363 268.459V269.957" stroke="#01BC9C" stroke-width="2" stroke-linecap="round" stroke-linejoin="round"/>
<path d="M421.857 268.678L422.863 269.743" stroke="#01BC9C" stroke-width="2" stroke-linecap="round" stroke-linejoin="round"/>
<path d="M422.863 268.678L421.857 269.743" stroke="#01BC9C" stroke-width="2" stroke-linecap="round" stroke-linejoin="round"/>
<path d="M425.599 271.004H427.027" stroke="#01BC9C" stroke-width="2" stroke-linecap="round" stroke-linejoin="round"/>
<path d="M426.312 270.264V271.742" stroke="#01BC9C" stroke-width="2" stroke-linecap="round" stroke-linejoin="round"/>
<path d="M425.807 270.484L426.816 271.526" stroke="#01BC9C" stroke-width="2" stroke-linecap="round" stroke-linejoin="round"/>
<path d="M426.816 270.484L425.807 271.526" stroke="#01BC9C" stroke-width="2" stroke-linecap="round" stroke-linejoin="round"/>
<path d="M373.404 277.859H374.855" stroke="#01BC9C" stroke-width="2" stroke-linecap="round" stroke-linejoin="round"/>
<path d="M374.141 277.119V278.598" stroke="#01BC9C" stroke-width="2" stroke-linecap="round" stroke-linejoin="round"/>
<path d="M373.619 277.338L374.645 278.383" stroke="#01BC9C" stroke-width="2" stroke-linecap="round" stroke-linejoin="round"/>
<path d="M374.645 277.338L373.619 278.383" stroke="#01BC9C" stroke-width="2" stroke-linecap="round" stroke-linejoin="round"/>
<path d="M373.051 266.305H374.498" stroke="#01BC9C" stroke-width="2" stroke-linecap="round" stroke-linejoin="round"/>
<path d="M373.785 265.566V267.045" stroke="#01BC9C" stroke-width="2" stroke-linecap="round" stroke-linejoin="round"/>
<path d="M373.258 265.783L374.291 266.829" stroke="#01BC9C" stroke-width="2" stroke-linecap="round" stroke-linejoin="round"/>
<path d="M374.291 265.783L373.258 266.829" stroke="#01BC9C" stroke-width="2" stroke-linecap="round" stroke-linejoin="round"/>
<path d="M373.404 252.859H374.855" stroke="#01BC9C" stroke-width="2" stroke-linecap="round" stroke-linejoin="round"/>
<path d="M374.141 252.098V253.596" stroke="#01BC9C" stroke-width="2" stroke-linecap="round" stroke-linejoin="round"/>
<path d="M373.619 252.314L374.645 253.384" stroke="#01BC9C" stroke-width="2" stroke-linecap="round" stroke-linejoin="round"/>
<path d="M374.645 252.314L373.619 253.384" stroke="#01BC9C" stroke-width="2" stroke-linecap="round" stroke-linejoin="round"/>
<path d="M373.994 240.389H375.441" stroke="#01BC9C" stroke-width="2" stroke-linecap="round" stroke-linejoin="round"/>
<path d="M374.729 239.648V241.127" stroke="#01BC9C" stroke-width="2" stroke-linecap="round" stroke-linejoin="round"/>
<path d="M374.205 239.869L375.234 240.914" stroke="#01BC9C" stroke-width="2" stroke-linecap="round" stroke-linejoin="round"/>
<path d="M375.234 239.869L374.205 240.914" stroke="#01BC9C" stroke-width="2" stroke-linecap="round" stroke-linejoin="round"/>
<path d="M379.603 288.26H381.055" stroke="#01BC9C" stroke-width="2" stroke-linecap="round" stroke-linejoin="round"/>
<path d="M380.318 287.496V288.998" stroke="#01BC9C" stroke-width="2" stroke-linecap="round" stroke-linejoin="round"/>
<path d="M379.815 287.715L380.844 288.78" stroke="#01BC9C" stroke-width="2" stroke-linecap="round" stroke-linejoin="round"/>
<path d="M380.844 287.715L379.815 288.78" stroke="#01BC9C" stroke-width="2" stroke-linecap="round" stroke-linejoin="round"/>
<path d="M392.316 289.74H393.764" stroke="#01BC9C" stroke-width="2" stroke-linecap="round" stroke-linejoin="round"/>
<path d="M393.031 289V290.502" stroke="#01BC9C" stroke-width="2" stroke-linecap="round" stroke-linejoin="round"/>
<path d="M392.524 289.217L393.557 290.282" stroke="#01BC9C" stroke-width="2" stroke-linecap="round" stroke-linejoin="round"/>
<path d="M393.557 289.217L392.524 290.282" stroke="#01BC9C" stroke-width="2" stroke-linecap="round" stroke-linejoin="round"/>
<path d="M395.256 277.119H396.707" stroke="#01BC9C" stroke-width="2" stroke-linecap="round" stroke-linejoin="round"/>
<path d="M395.994 276.359V277.858" stroke="#01BC9C" stroke-width="2" stroke-linecap="round" stroke-linejoin="round"/>
<path d="M395.486 276.574L396.496 277.643" stroke="#01BC9C" stroke-width="2" stroke-linecap="round" stroke-linejoin="round"/>
<path d="M396.496 276.574L395.486 277.643" stroke="#01BC9C" stroke-width="2" stroke-linecap="round" stroke-linejoin="round"/>
<path d="M397.294 263.934H398.723" stroke="#01BC9C" stroke-width="2" stroke-linecap="round" stroke-linejoin="round"/>
<path d="M398.01 263.172V264.674" stroke="#01BC9C" stroke-width="2" stroke-linecap="round" stroke-linejoin="round"/>
<path d="M397.506 263.389L398.512 264.454" stroke="#01BC9C" stroke-width="2" stroke-linecap="round" stroke-linejoin="round"/>
<path d="M398.512 263.389L397.506 264.454" stroke="#01BC9C" stroke-width="2" stroke-linecap="round" stroke-linejoin="round"/>
<path d="M399.037 252.098H400.488" stroke="#01BC9C" stroke-width="2" stroke-linecap="round" stroke-linejoin="round"/>
<path d="M399.754 251.359V252.858" stroke="#01BC9C" stroke-width="2" stroke-linecap="round" stroke-linejoin="round"/>
<path d="M399.248 251.574L400.277 252.643" stroke="#01BC9C" stroke-width="2" stroke-linecap="round" stroke-linejoin="round"/>
<path d="M400.277 251.574L399.248 252.643" stroke="#01BC9C" stroke-width="2" stroke-linecap="round" stroke-linejoin="round"/>
<path d="M399.752 241.588H401.203" stroke="#01BC9C" stroke-width="2" stroke-linecap="round" stroke-linejoin="round"/>
<path d="M400.488 240.848V242.326" stroke="#01BC9C" stroke-width="2" stroke-linecap="round" stroke-linejoin="round"/>
<path d="M399.982 241.064L400.992 242.11" stroke="#01BC9C" stroke-width="2" stroke-linecap="round" stroke-linejoin="round"/>
<path d="M400.992 241.064L399.982 242.11" stroke="#01BC9C" stroke-width="2" stroke-linecap="round" stroke-linejoin="round"/>
<path d="M378.449 277.859H379.877" stroke="#01BC9C" stroke-width="2" stroke-linecap="round" stroke-linejoin="round"/>
<path d="M379.164 277.119V278.598" stroke="#01BC9C" stroke-width="2" stroke-linecap="round" stroke-linejoin="round"/>
<path d="M378.656 277.338L379.666 278.383" stroke="#01BC9C" stroke-width="2" stroke-linecap="round" stroke-linejoin="round"/>
<path d="M379.666 277.338L378.656 278.383" stroke="#01BC9C" stroke-width="2" stroke-linecap="round" stroke-linejoin="round"/>
<path d="M378.135 266.305H379.586" stroke="#01BC9C" stroke-width="2" stroke-linecap="round" stroke-linejoin="round"/>
<path d="M378.848 265.566V267.045" stroke="#01BC9C" stroke-width="2" stroke-linecap="round" stroke-linejoin="round"/>
<path d="M378.346 265.783L379.352 266.829" stroke="#01BC9C" stroke-width="2" stroke-linecap="round" stroke-linejoin="round"/>
<path d="M379.352 265.783L378.346 266.829" stroke="#01BC9C" stroke-width="2" stroke-linecap="round" stroke-linejoin="round"/>
<path d="M378.135 252.859H379.586" stroke="#01BC9C" stroke-width="2" stroke-linecap="round" stroke-linejoin="round"/>
<path d="M378.848 252.098V253.596" stroke="#01BC9C" stroke-width="2" stroke-linecap="round" stroke-linejoin="round"/>
<path d="M378.346 252.314L379.352 253.384" stroke="#01BC9C" stroke-width="2" stroke-linecap="round" stroke-linejoin="round"/>
<path d="M379.352 252.314L378.346 253.384" stroke="#01BC9C" stroke-width="2" stroke-linecap="round" stroke-linejoin="round"/>
<path d="M378.951 240.389H380.402" stroke="#01BC9C" stroke-width="2" stroke-linecap="round" stroke-linejoin="round"/>
<path d="M379.666 239.648V241.127" stroke="#01BC9C" stroke-width="2" stroke-linecap="round" stroke-linejoin="round"/>
<path d="M379.162 239.869L380.191 240.914" stroke="#01BC9C" stroke-width="2" stroke-linecap="round" stroke-linejoin="round"/>
<path d="M380.191 239.869L379.162 240.914" stroke="#01BC9C" stroke-width="2" stroke-linecap="round" stroke-linejoin="round"/>
<path d="M363.53 239.738C363.657 242.914 361.177 244.242 358.701 244.35C356.221 244.461 354.708 243.308 354.581 240.131C354.458 237.046 358.002 233.098 358.205 232.871C358.209 232.871 358.213 232.867 358.217 232.867C358.221 232.867 358.225 232.867 358.228 232.871C358.493 233.062 363.388 236.672 363.53 239.738Z" fill="#443B60"/>
<path d="M430.912 261.868C430.052 264.392 428.075 264.782 426.478 264.194C424.881 263.605 424.274 262.281 425.134 259.756C425.963 257.323 429.349 255.196 429.595 255.041C429.595 255.041 429.599 255.041 429.603 255.041H429.607C429.611 255.041 429.614 255.041 429.614 255.045C429.614 255.045 429.614 255.049 429.618 255.049C429.756 255.335 431.745 259.43 430.912 261.868Z" fill="#393545"/>
<path d="M370.452 225.182H370.448L370.444 225.186V225.189C370.429 225.404 371.807 228.664 372.943 231.253C373.358 232.207 374.026 233.018 374.874 233.591C375.723 234.159 376.71 234.469 377.719 234.473C378.733 234.477 379.723 234.179 380.576 233.615C381.424 233.054 382.104 232.247 382.526 231.297L385.244 225.142C385.248 225.138 385.248 225.134 385.248 225.134C385.248 225.13 385.244 225.126 385.244 225.126C385.24 225.122 385.24 225.122 385.237 225.122C385.237 225.118 385.233 225.118 385.229 225.118C383.133 225.297 381.651 225.921 380.031 227.4C380.027 227.4 380.023 227.4 380.019 227.404C380.019 227.404 380.015 227.404 380.011 227.4C380.011 227.4 380.007 227.4 380.004 227.396C380.004 227.392 380.004 227.392 380.004 227.388C379.958 225.341 379.62 223.591 378.253 221.631C378.249 221.627 378.249 221.627 378.245 221.623C378.241 221.623 378.241 221.623 378.238 221.623C378.234 221.623 378.234 221.623 378.23 221.623C378.23 221.627 378.226 221.627 378.226 221.631C376.875 223.337 376.145 225.448 375.93 227.476C375.93 227.48 375.93 227.484 375.926 227.484C375.926 227.488 375.923 227.488 375.919 227.492C375.919 227.492 375.915 227.492 375.911 227.492C375.907 227.492 375.907 227.488 375.903 227.488C374.805 226.43 372.617 225.464 370.452 225.182Z" fill="#443B60"/>
<path d="M420.496 311.436H360.312C360.301 311.436 360.297 311.44 360.297 311.451V329.737C360.297 329.749 360.301 329.753 360.312 329.753H420.496C420.504 329.753 420.512 329.749 420.512 329.737V311.451C420.512 311.44 420.504 311.436 420.496 311.436Z" fill="#FF95BD"/>
<path d="M399.311 323.641L405.699 317.025" stroke="#04051F" stroke-width="2" stroke-linecap="round" stroke-linejoin="round"/>
<path d="M369.833 322.421L376.264 315.766" stroke="#04051F" stroke-width="2" stroke-linecap="round" stroke-linejoin="round"/>
<path d="M380.257 232.188L382.357 228.252" stroke="#04051F" stroke-width="2" stroke-linecap="round" stroke-linejoin="round"/>
<path d="M359.31 235.627L361.387 237.932" stroke="#04051F" stroke-width="2" stroke-linecap="round" stroke-linejoin="round"/>
<path d="M429.168 257.82V260.603" stroke="#04051F" stroke-width="2" stroke-linecap="round" stroke-linejoin="round"/>
<path d="M270.265 173.653C270.826 176.906 271.302 180.21 271.694 183.573L278.128 182.941L276.861 170.969C303.797 170.985 298.277 164.493 300.588 173.653C303.663 191.541 304.177 211.194 303.106 232.08C302.991 234.342 303.291 236.612 303.997 238.759L311.15 260.603C315.833 274.901 311.629 299.162 314.655 313.73C314.785 315.785 315.534 319.877 312.605 319.881C310.032 319.885 307.322 319.901 305.537 319.909C305.444 319.924 305.356 319.837 305.279 319.789C303.663 318.807 303.74 318.656 303.521 317.579C303.394 316.954 303.264 316.33 303.16 315.682C302.926 314.76 302.438 313.937 302.219 313.078C283.883 240.716 282.712 255.2 277.214 185.832C275.648 185.891 274.082 185.899 272.508 185.867C272.492 187.366 272.442 188.865 272.381 190.36C273.513 203.548 273.529 217.512 272.788 232.08C272.669 234.342 272.968 236.608 273.675 238.759L280.827 260.599C284.993 273.306 284.666 313.766 284.666 313.73C283.208 316.111 281.914 317.754 280.681 318.489C280.727 319.559 279.384 321.169 277.111 321.169C273.963 321.169 271.801 318.437 271.801 317.769C271.801 317.173 272.269 313.078 272.269 313.078C272.269 313.078 261.113 269.064 252.778 239.455C250.209 225.941 248.681 208.634 246.581 170.969L260.176 172.508L270.265 173.653Z" fill="#BF6F37"/>
<path d="M278.163 184.564C277.572 184.624 276.984 184.684 276.393 184.739L281.952 237.262C282.209 239.695 282.697 242.104 283.4 244.438L303.951 319.91H305.398C305.391 319.878 304.654 315.377 304.677 315.345L298.741 288.432L284.993 242.597C284.29 240.264 283.803 237.854 283.545 235.421L278.163 184.564Z" fill="#FFE8D6"/>
<path d="M270.788 176.882C270.873 177.418 270.954 177.951 271.027 178.492C272.624 178.313 274.217 178.086 275.799 177.82L276.359 183.116C276.947 183.056 277.542 183.001 278.133 182.941L276.866 170.965L290.453 172.504C290.307 171.538 290.177 170.711 290.062 170.043H274.973L275.63 176.198C274.966 176.313 274.298 176.42 273.633 176.52C272.689 176.659 271.741 176.778 270.788 176.882Z" fill="#FFE8D6"/>
<path d="M268.461 164.178L260.18 172.507L267.582 173.346L268.461 164.178Z" fill="#FFE8D6"/>
<path d="M244.552 170.004L251.67 237.225C251.927 239.659 252.411 242.064 253.113 244.398L272.133 313.078L273.204 314.458L275.273 315.369C275.116 315.082 274.959 314.78 274.801 314.458H274.383L254.707 242.601C254.004 240.263 253.524 237.857 253.263 235.424L246.441 170.97L260.039 172.513C259.89 171.535 259.759 170.696 259.636 170.008L244.552 170.004Z" fill="#FFE8D6"/>
<path d="M256.697 4.09858C258.774 2.2935 264.633 4.13437 267.263 5.09257C273.229 7.28332 277.644 10.4681 281.94 15.2273C285.91 19.6048 290.505 24.1732 295.508 27.167C299.178 29.3538 309.037 31.2384 308.964 31.2782" stroke="#20233F" stroke-width="2" stroke-linecap="round" stroke-linejoin="round"/>
<path d="M270.267 173.652L267.583 173.346L267.211 177.194C268.409 177.115 269.599 177.012 270.789 176.88C270.624 175.799 270.451 174.721 270.267 173.652Z" fill="#BF6F37"/>
<path d="M218.67 195.482V195.494C218.67 195.761 218.712 196.023 218.796 196.274C219.403 197.92 221.972 194.942 222.67 194.19C223.853 192.918 224.951 191.479 226.007 190.083C226.087 189.984 226.199 189.912 226.325 189.884C226.448 189.856 226.579 189.876 226.694 189.944C226.805 190.007 226.89 190.111 226.932 190.234C226.978 190.361 226.978 190.5 226.932 190.62C225.534 195.053 223.377 202.719 225.972 202.56C228.418 202.408 229.788 196.46 230.79 192.966V192.962C230.794 192.858 230.94 192.878 230.94 192.97C230.94 192.981 230.94 192.993 230.936 193.001C229.976 196.997 228.567 204.957 230.752 204.52C231.493 204.373 230.975 205.41 232.161 205.398C234.595 205.378 237.405 195.653 237.532 193.765C237.532 193.757 237.536 193.749 237.54 193.745C237.543 193.741 237.551 193.737 237.559 193.733C237.563 193.733 237.57 193.733 237.578 193.741C237.582 193.745 237.59 193.745 237.593 193.753C237.762 194.294 238.039 194.787 238.407 195.204C238.772 195.621 239.225 195.951 239.728 196.174C239.736 196.174 239.743 196.174 239.755 196.174C239.763 196.166 239.77 196.158 239.77 196.154C239.943 195.606 242.101 188.695 242.204 186.628C242.354 183.678 242.538 179.157 240.619 176.581C240.615 176.573 240.611 176.569 240.611 176.557L243.821 130.539C245.379 130.36 246.95 130.265 248.52 130.237C263.147 129.959 282.943 133.803 292.103 134.3C293.078 137.211 295.697 144.324 298.96 152.013C298.96 152.045 300.384 155.301 300.384 155.301C306.005 168.04 312.996 180.958 317.035 178.175C316.406 161.552 306.028 130.726 305.099 120.401C302.085 117.089 297.946 117.836 294.994 120.75C292.836 117.55 291.224 113.967 289.907 110.318C288.126 105.379 286.816 100.282 285.285 95.2606C283.745 90.2111 281.967 85.1816 279.318 80.6331C277.671 77.8062 275.725 75.1701 274.162 72.2836C272.857 69.7628 271.751 67.1347 270.864 64.4192C269.597 60.7931 268.442 57.0517 266.799 53.5767H268.945C268.952 53.5767 268.956 53.5767 268.964 53.5728C268.968 53.5688 268.975 53.5648 268.975 53.5569L270.676 53.5767C268.937 42.0823 268.188 34.6791 266.668 19.646V19.642C266.668 18.3816 266.184 17.173 265.324 16.2823C264.46 15.3878 263.293 14.8868 262.076 14.8828H262.072V14.8868C262.072 14.8947 262.072 14.8987 262.069 14.9027C262.069 14.9067 262.065 14.9106 262.065 14.9146C262.061 14.9186 262.057 14.9186 262.053 14.9226C262.046 14.9226 262.046 14.9226 262.042 14.9226H245.433C244.83 14.9226 244.235 15.0498 243.682 15.2923C243.126 15.5349 242.627 15.8927 242.208 16.346C241.794 16.7952 241.467 17.328 241.256 17.9085C241.041 18.493 240.945 19.1172 240.972 19.7374C240.98 19.9641 240.991 20.1987 241.003 20.4293V20.4372C241.755 31.0172 243.068 42.961 247.383 43.5613H247.391C247.886 43.5375 248.374 43.3904 248.804 43.1359L252.002 41.303C252.01 41.299 252.021 41.299 252.033 41.303C252.037 41.303 252.04 41.3109 252.044 41.3149C252.044 41.3229 252.048 41.3269 252.048 41.3308L252.029 53.5449C252.029 53.5529 252.033 53.5648 252.041 53.5688C252.044 53.5728 252.052 53.5767 252.06 53.5767H265.029C267.186 57.8827 268.461 62.622 270.15 67.1387C271.195 70.0014 272.511 72.7488 274.085 75.3331C275.713 77.9811 277.514 80.5138 278.954 83.285C281.361 87.913 282.95 92.9307 284.425 97.9404C285.91 102.998 287.273 108.111 289.227 113.001C290.456 116.17 292.03 119.18 293.915 121.983C292.798 123.474 292.015 125.199 291.623 127.04C291.228 128.881 291.235 130.79 291.639 132.627C289.577 132.499 287.523 132.301 285.469 132.054C281.967 131.633 256.091 127.557 243.94 128.861L244.389 122.396C244.389 122.388 244.389 122.381 244.385 122.377C244.381 122.369 244.377 122.365 244.37 122.361L229.458 117.061L228.425 116.695L226.939 116.166C226.932 116.166 226.932 116.166 226.924 116.166C226.92 116.166 226.916 116.17 226.913 116.17C226.905 116.178 226.901 116.178 226.901 116.182C226.897 116.19 226.897 116.194 226.897 116.198C226.571 123.482 227.247 163.949 227.654 166.593C227.654 173.189 226.882 169.547 225.772 178.354C225.431 181.05 225.377 183.459 223.442 186.676C221.065 190.62 218.651 193.566 218.67 195.482Z" fill="#BF6F37"/>
<path d="M218.665 195.417C218.665 195.425 218.665 195.433 218.669 195.433C218.669 195.441 218.677 195.445 218.684 195.449C218.684 195.449 218.692 195.453 218.7 195.449C218.704 195.449 218.707 195.445 218.715 195.441C221.103 193.457 223.307 190.726 225.633 184.976C227.672 179.947 226.34 170.043 232.272 170.043C232.417 170.043 232.264 169.856 232.01 169.582C230.39 167.828 229.488 165.49 229.492 163.057V117.123C229.492 117.115 229.488 117.107 229.484 117.103C229.477 117.087 229.465 117.075 229.457 117.063C229.262 116.789 229.077 116.515 228.893 116.244C228.889 116.24 228.885 116.236 228.878 116.232C228.874 116.232 228.874 116.232 228.866 116.232C228.862 116.228 228.858 116.232 228.855 116.232C228.851 116.232 228.843 116.236 228.839 116.24C228.697 116.395 228.563 116.546 228.425 116.697C227.91 117.258 227.426 117.787 226.97 118.292C226.966 118.3 226.217 118.383 226.217 118.395C227.027 144.931 226.831 153.928 226.877 159.296C226.931 166.293 227.626 165.578 225.495 174.949C224.255 180.396 223.491 185.772 222.036 188.221C221.234 189.545 218.604 193.708 218.665 195.417Z" fill="#FFE8D6"/>
<path d="M240.92 20.5234C240.912 20.5234 240.908 20.5234 240.905 20.5234C240.901 20.5274 240.897 20.5314 240.893 20.5354C240.889 20.5393 240.885 20.5393 240.882 20.5433C240.882 20.5473 240.882 20.5552 240.882 20.5592C241.315 29.8391 242.713 43.6913 247.262 43.6476C247.27 43.6476 247.274 43.6436 247.278 43.6436C247.282 43.6396 247.285 43.6356 247.289 43.6356C247.293 43.6277 247.293 43.6237 247.297 43.6197C247.297 43.6157 247.297 43.6118 247.297 43.6038C246.141 39.0752 242.709 25.4655 244.041 22.0422C244.045 22.0383 244.045 22.0343 244.045 22.0263C244.041 22.0224 244.041 22.0184 244.037 22.0144C243.761 21.589 242.279 20.7262 240.92 20.5234Z" fill="#FFE8D6"/>
<path d="M241.779 23.2908C242.559 23.5691 243.445 23.418 244.282 23.0999C247.189 22.0224 249.227 25.402 249.481 25.8513C249.485 25.8552 249.488 25.8592 249.496 25.8632C249.496 25.8672 249.504 25.8711 249.511 25.8711C249.515 25.8711 249.519 25.8672 249.527 25.8632C249.531 25.8592 249.534 25.8552 249.534 25.8513C249.819 25.3622 252.207 21.3744 254.403 23.251C255.996 24.6346 255.366 27.1275 254.591 28.9684C254.241 29.7994 254.069 30.694 254.088 31.5925C254.107 32.4951 254.314 33.3817 254.698 34.1888C256.887 38.6817 261.739 46.6693 269.414 46.9357C277.116 47.2061 283.12 44.904 287.681 52.4901C287.685 52.4941 287.689 52.4981 287.689 52.4981C287.697 52.5021 287.704 52.5021 287.704 52.5021C296.918 52.4981 295.486 46.4069 295.337 45.8463C295.333 45.8384 295.333 45.8384 295.333 45.8304C295.337 45.8264 295.337 45.8185 295.341 45.8185C295.344 45.8145 295.348 45.8105 295.352 45.8066C295.356 45.8066 295.36 45.8026 295.367 45.8026C295.859 45.7907 300.612 45.6117 302.293 43.1506C302.297 43.1427 302.301 43.1427 302.301 43.1347C302.301 43.1268 302.301 43.1228 302.297 43.1188C302.293 43.1109 302.293 43.1069 302.286 43.1029C302.282 43.1029 302.274 43.0989 302.27 43.0989C301.211 43.0552 299.648 41.93 299.399 41.7392C299.395 41.7392 299.391 41.7352 299.387 41.7312C299.387 41.7233 299.383 41.7193 299.383 41.7153C299.383 41.7113 299.387 41.7034 299.387 41.6994C299.391 41.6954 299.395 41.6914 299.399 41.6875C299.729 41.4171 302.447 39.1349 303.311 37.1628C303.311 37.1589 303.315 37.1509 303.311 37.1469C303.311 37.139 303.311 37.135 303.307 37.1271C303.303 37.1271 303.299 37.1231 303.295 37.1191C303.288 37.1151 303.284 37.1151 303.28 37.1151C296.285 37.8666 289.052 28.9247 285.282 24.0541C279.312 16.3806 275.419 7.31937 265.821 4.13464C262.265 2.97366 258.491 2.69932 254.817 3.33149C250.621 4.12271 246.632 6.44466 244.025 9.98325C237.99 18.6747 240.293 22.5711 241.779 23.2908Z" fill="#20233F"/>
<path d="M221.016 118.769C222.037 116.435 223.139 116.32 224.237 116.228C224.425 111.302 224.206 107.481 224.425 104.376C226.099 90.4521 227.42 94.7462 227.42 86.6591C227.42 81.0053 227.996 72.1031 227.996 70.4571C227.996 59.4755 235.098 54.2193 237.763 52.6767C239.049 52.0246 240.404 51.5157 241.798 51.1698C243.226 50.808 244.696 50.6211 246.175 50.6211H274.861C279.104 50.6449 283.219 52.12 286.567 54.8237C289.911 57.5273 292.303 61.3005 293.359 65.5548L306.105 115.664C306.105 115.672 306.105 115.68 306.113 115.68C306.121 115.688 306.124 115.691 306.136 115.688C310.797 115.64 310.444 119.286 311.377 122.633C311.641 123.568 311.657 124.554 311.426 125.496C311.2 126.438 310.732 127.301 310.075 127.993C309.419 128.685 308.597 129.182 307.687 129.436C306.785 129.687 305.829 129.687 304.927 129.428C298.557 127.595 298.48 128.025 293.62 129.23C293.612 129.23 293.608 129.234 293.605 129.234C293.601 129.238 293.597 129.242 293.597 129.245C293.593 129.253 293.593 129.269 293.597 129.273C296.388 134.382 299.605 139.225 303.218 143.746C303.218 143.75 303.218 143.75 303.218 143.75C303.218 143.75 303.218 143.75 303.222 143.75C310.632 151.002 320.568 156.532 328.242 163.403C331.725 166.548 338.286 177.724 340.248 182.253C341.104 184.094 331.763 180.062 326.76 185.513C322.307 190.388 320.272 196.224 314.152 199.409C304.815 204.248 299.364 200.948 291.209 195.572C283.204 190.272 277.606 190.312 268.6 191.004C266.043 191.195 264.004 190.849 262.372 189.7C259.627 187.779 256.072 187.934 253.327 189.851C251.031 191.465 248.582 192.614 245.318 191.274C242.934 190.292 241.752 188.241 239.897 186.917C238.884 186.141 238.239 185.716 238.139 185.175C237.828 183.481 240.834 181.044 238.216 166.468C236.538 157.212 235.179 147.598 236.63 133.261C236.63 133.257 236.63 133.249 236.63 133.241C236.626 133.237 236.622 133.229 236.615 133.221C236.296 133.074 235.931 132.911 235.498 132.732C232.257 131.396 226.825 130.251 223.343 127.782H223.339C220.171 125.234 219.4 122.359 221.016 118.769Z" fill="#FF95BD"/>
<path d="M237.15 185.745C237.146 185.753 237.142 185.753 237.142 185.761C237.142 185.769 237.146 185.773 237.15 185.773C237.154 185.785 237.162 185.793 237.173 185.793C238.152 185.944 239.085 186.325 239.899 186.918C240.928 182.318 242.164 177.316 241.688 172.195C240.801 162.521 239.726 153.154 240.686 143.33C240.901 141.322 242.383 136.077 243.496 130.682C244.322 126.678 244.944 122.595 244.694 119.685V119.681H244.69L243.781 119.025L242.494 118.09L242.468 118.07C242.464 118.078 242.46 118.09 242.456 118.098C242.329 118.365 242.21 118.627 242.091 118.889C242.011 119.072 241.93 119.251 241.853 119.426C241.815 119.518 241.776 119.601 241.742 119.689C239.584 124.591 237.507 128.917 236.632 133.262C233.971 146.562 236.778 157.742 237.968 167.074C239.219 173.972 239.891 180.008 237.15 185.745Z" fill="#F3E0E7"/>
<path d="M242.059 127.819C242.048 129.612 242.382 131.385 243.034 133.047C243.687 134.701 244.655 136.212 245.872 137.48C247.093 138.748 248.54 139.758 250.141 140.446C251.738 141.134 253.45 141.488 255.178 141.484H259.259L283.312 137.261C290.545 137.261 292.661 135.381 292.661 127.894L293.021 88.4448C293.021 80.9541 290.545 76.4374 283.312 76.4374L255.178 75.2168C247.953 75.2168 242.055 81.6181 242.055 84.7471L242.059 127.819Z" fill="#9272F5"/>
<path d="M246.136 127.819C246.124 129.613 246.462 131.386 247.115 133.044C247.771 134.698 248.739 136.205 249.956 137.473C251.177 138.741 252.624 139.751 254.221 140.439C255.814 141.131 257.527 141.485 259.258 141.485H283.311C286.789 141.477 290.122 140.046 292.583 137.497C295.044 134.952 296.43 131.497 296.434 127.899V84.748C296.43 81.1458 295.044 77.6947 292.583 75.1461C290.122 72.6015 286.789 71.1662 283.311 71.1582H259.254C255.776 71.1662 252.443 72.6015 249.983 75.1461C247.522 77.6947 246.139 81.1458 246.132 84.748L246.136 127.819Z" fill="#443B60"/>
<path d="M245.169 49.159H249.987C250.206 49.1511 250.417 49.2067 250.601 49.326C250.785 49.4413 250.931 49.6083 251.027 49.8111C255.093 58.6218 257.297 66.4067 257.846 75.0385C264.127 74.8238 270.408 74.8516 276.693 75.118C277.326 75.1418 277.956 75.1816 278.589 75.2134C277.656 66.8639 275.503 59.2858 272.45 50.6977C272.393 50.5228 272.374 50.3319 272.4 50.1451C272.423 49.9582 272.493 49.7793 272.6 49.6242C272.704 49.4731 272.842 49.3459 273.003 49.2584C273.164 49.171 273.345 49.1232 273.525 49.1232H278.344C278.559 49.1193 278.774 49.1749 278.958 49.2942C279.142 49.4055 279.292 49.5765 279.384 49.7793C284.609 61.0988 286.759 71.3885 286.275 82.4099C286.268 82.7081 286.149 82.9904 285.941 83.1971C285.73 83.4039 285.454 83.5232 285.166 83.5192H280.198C279.906 83.5192 279.622 83.3999 279.415 83.1852C279.207 82.9665 279.092 82.6763 279.088 82.3701C279.042 80.5452 278.927 78.7083 278.762 76.8674C272.861 76.5652 266.96 76.4698 261.055 76.5931C260.015 76.613 258.971 76.6408 257.93 76.6805C258.007 78.597 258.003 80.5054 257.923 82.4099C257.915 82.7081 257.796 82.9904 257.585 83.2011C257.377 83.4079 257.101 83.5232 256.809 83.5232H251.845C251.546 83.5192 251.254 83.3999 251.035 83.1852C250.816 82.9705 250.682 82.6802 250.659 82.3741C250.436 71.7384 247.952 61.7509 244.098 50.7335C244.036 50.5586 244.017 50.3677 244.044 50.1808C244.071 49.994 244.14 49.8151 244.243 49.66C244.347 49.5049 244.485 49.3817 244.647 49.2942C244.808 49.2067 244.984 49.159 245.169 49.159Z" fill="#2D0011"/>
<path d="M282.002 70.3418C290.38 70.3418 297.92 76.3296 297.92 85.685C297.92 95.3108 290.418 101.024 282.002 101.024H257.973C249.595 101.024 242.055 95.4022 242.055 85.685C242.055 77.0731 249.557 70.3418 257.973 70.3418H282.002Z" fill="#2F2A3E"/>
<path d="M240.165 21.601C240.584 22.5472 241.156 23.0919 241.77 23.3066C242.722 19.9987 245.022 9.39877 254.666 3.42292C254.674 3.41894 254.678 3.41497 254.682 3.40702C254.682 3.39907 254.682 3.39111 254.682 3.38316C254.678 3.37919 254.674 3.37123 254.666 3.36726C254.662 3.36328 254.651 3.36328 254.643 3.36328C250.497 4.13064 246.627 6.13452 244.058 9.6254C242.204 12.1541 238.683 18.2969 240.165 21.601Z" fill="#9272F5"/>
<path d="M253.918 25.1309L252.732 28.8563" stroke="#04051F" stroke-width="2" stroke-linecap="round" stroke-linejoin="round"/>
<path d="M251.879 25.1699L253.123 27.6182" stroke="#04051F" stroke-width="2" stroke-linecap="round" stroke-linejoin="round"/>
<path d="M252.045 41.273L255.512 38.7969" stroke="#04051F" stroke-width="2" stroke-linecap="round" stroke-linejoin="round"/>
<path d="M257.033 202.674L265.188 214.268" stroke="#04051F" stroke-width="2" stroke-linecap="round" stroke-linejoin="round"/>
<path d="M273.492 274.425L270.935 267.475" stroke="#04051F" stroke-width="2" stroke-linecap="round" stroke-linejoin="round"/>
<path d="M265.188 237.49H260.296" stroke="#04051F" stroke-width="2" stroke-linecap="round" stroke-linejoin="round"/>
<path d="M298.326 237.49H293.692" stroke="#04051F" stroke-width="2" stroke-linecap="round" stroke-linejoin="round"/>
<path d="M296.027 214.268L289.95 208.471" stroke="#04051F" stroke-width="2" stroke-linecap="round" stroke-linejoin="round"/>
<path d="M307.551 279.373L303.255 270.928" stroke="#04051F" stroke-width="2" stroke-linecap="round" stroke-linejoin="round"/>
<path d="M284.647 150.279C285.204 152.963 287.465 155.957 289.393 157.993" stroke="#04051F" stroke-width="2" stroke-linecap="round" stroke-linejoin="round"/>
<path d="M254.883 170.971L252.103 163.289" stroke="#04051F" stroke-width="2" stroke-linecap="round" stroke-linejoin="round"/>
<path d="M322.68 182.484L318.714 175.383" stroke="#04051F" stroke-width="2" stroke-linecap="round" stroke-linejoin="round"/>
<path d="M276.789 111.545L282.832 117.684" stroke="#04051F" stroke-width="2" stroke-linecap="round" stroke-linejoin="round"/>
<path d="M260.294 119.684L272.23 132.081" stroke="#04051F" stroke-width="2" stroke-linecap="round" stroke-linejoin="round"/>
<path d="M303.377 201.563C305.189 191.579 304.256 178.566 300.552 165.553" stroke="#443B60" stroke-width="2" stroke-linecap="round" stroke-linejoin="round"/>
<path d="M272.42 190.73L270.934 167.129" stroke="#443B60" stroke-width="2" stroke-linecap="round" stroke-linejoin="round"/>
<path d="M277.234 190.731L276.324 182.791" stroke="#443B60" stroke-width="2" stroke-linecap="round" stroke-linejoin="round"/>
<path d="M270.914 106.324H271.651C271.924 106.324 272.197 106.269 272.45 106.157C272.7 106.054 272.93 105.891 273.122 105.696C273.318 105.493 273.467 105.259 273.575 104.996C273.679 104.734 273.729 104.456 273.729 104.173V97.2233C273.729 96.941 273.679 96.6626 273.575 96.4002C273.467 96.1378 273.318 95.9032 273.122 95.7044C272.93 95.5056 272.7 95.3466 272.45 95.2393C272.197 95.1279 271.924 95.0723 271.651 95.0723H270.914C270.642 95.0723 270.369 95.1279 270.116 95.2393C269.866 95.3466 269.636 95.5056 269.444 95.7044C269.248 95.9032 269.098 96.1378 268.995 96.4002C268.887 96.6626 268.837 96.941 268.837 97.2233V104.173C268.837 104.456 268.887 104.734 268.995 104.996C269.098 105.259 269.248 105.493 269.444 105.696C269.636 105.891 269.866 106.054 270.116 106.157C270.369 106.269 270.642 106.324 270.914 106.324Z" fill="#1C1C1C"/>
<path d="M223.288 127.809C223.292 127.809 223.3 127.813 223.304 127.813C223.312 127.813 223.315 127.813 223.323 127.809C223.327 127.809 223.331 127.805 223.335 127.801C223.338 127.793 223.338 127.789 223.338 127.785C223.415 125.766 223.465 123.269 223.78 122.37C225.377 117.842 227.005 117.571 227.301 112.351C227.596 107.166 227.485 103.445 229.189 98.606C232.637 88.7814 231.343 83.2906 231.378 72.7345C231.416 64.0192 233.605 58.6795 237.801 52.7275C237.805 52.7235 237.805 52.7155 237.805 52.7076C237.805 52.6996 237.801 52.6917 237.801 52.6877C237.793 52.6837 237.785 52.6758 237.782 52.6758C237.774 52.6758 237.766 52.6758 237.762 52.6798C234.526 54.3775 231.808 56.9698 229.919 60.1704C228.026 63.3751 227.028 67.0568 227.043 70.8141C226.943 87.9226 227.289 88.2168 226.713 90.503C225.4 96.5742 224.041 99.9737 224.041 104.936V104.952C224.041 105.119 224.037 106.812 224.006 115.846C224.006 115.85 224.003 115.854 224.003 115.858C224.003 115.862 224.003 115.866 223.999 115.87C223.995 115.87 223.991 115.874 223.983 115.874C223.983 115.877 223.98 115.877 223.972 115.877C223.373 115.858 222.782 116.021 222.275 116.351C221.764 116.681 221.361 117.158 221.115 117.722C218.858 122.688 220.386 125.734 223.288 127.809Z" fill="#F3E0E7"/>
<path d="M235.053 119.684L224.003 115.883" stroke="#04051F" stroke-width="2" stroke-linecap="round" stroke-linejoin="round"/>
<path d="M237.163 69.3906L240.02 75.4579" stroke="#04051F" stroke-width="2" stroke-linecap="round" stroke-linejoin="round"/>
<path d="M272.968 78.377L278.086 83.5974" stroke="#04051F" stroke-width="2" stroke-linecap="round" stroke-linejoin="round"/>
<path d="M235.645 109.471L235.053 106.326" stroke="#04051F" stroke-width="2" stroke-linecap="round" stroke-linejoin="round"/>
<path d="M306.109 115.688L300.589 117.683" stroke="#04051F" stroke-width="2" stroke-linecap="round" stroke-linejoin="round"/>
<path d="M232.156 176.994C232.156 176.994 232.901 181.793 233.754 183.944C235.347 187.976 236.756 189.125 236.756 189.125L237.535 193.59" stroke="#04051F" stroke-width="2" stroke-linecap="round" stroke-linejoin="round"/>
<path d="M241.061 191.792C238.899 191.144 238.461 193.676 238.246 194.917" stroke="#04051F" stroke-width="2" stroke-linecap="round" stroke-linejoin="round"/>
<path d="M226.222 183.064C226.407 186.4 228.123 191.12 230.791 192.961" stroke="#04051F" stroke-width="2" stroke-linecap="round" stroke-linejoin="round"/>
<path d="M291.615 37.7628C285.945 38.2638 274.749 23.9026 271.747 18.7617" stroke="#443B60" stroke-width="2" stroke-linecap="round" stroke-linejoin="round"/>
<path d="M295.324 45.8015L292.69 43.4844" stroke="#443B60" stroke-width="2" stroke-linecap="round" stroke-linejoin="round"/>
<path d="M268.227 42.5587C264.813 42.0975 260.663 36.3443 259.181 33.1953" stroke="#443B60" stroke-width="2" stroke-linecap="round" stroke-linejoin="round"/>
<path d="M268.672 9.51055C265.37 6.51268 259.922 5.7493 256.217 8.08716" stroke="#443B60" stroke-width="2" stroke-linecap="round" stroke-linejoin="round"/>
<path d="M231.044 204.543L233.801 194.953" stroke="#04051F" stroke-width="2" stroke-linecap="round" stroke-linejoin="round"/>
<path d="M257.526 325.219C257.526 325.358 257.534 325.541 257.542 325.672C257.542 325.676 257.542 325.68 257.546 325.684C258.521 329.97 261.277 328.737 264.798 328.737C273.667 328.737 282.336 329.302 283.027 329.302C286.14 329.302 285.561 325.875 285.396 322.07V322.066L284.724 313.78C284.724 313.768 284.72 313.764 284.716 313.756C284.716 313.748 284.712 313.744 284.704 313.736C284.701 313.732 284.693 313.728 284.685 313.728C284.681 313.728 284.674 313.728 284.666 313.732C280.209 315.923 276.577 315.585 272.273 313.08C272.265 313.076 272.258 313.072 272.254 313.072C272.246 313.072 272.238 313.076 272.235 313.08L259.458 321.179C258.229 322.006 257.526 323.501 257.526 325.219Z" fill="#FF95BD"/>
<path d="M257.578 325.622C257.566 325.626 257.559 325.634 257.551 325.646C257.547 325.654 257.543 325.669 257.547 325.681C257.728 327.987 259.271 329.769 261.083 329.769H283.178C284.721 329.769 285.877 328.043 285.727 326.127L285.397 322.067C285.397 322.059 285.393 322.051 285.389 322.043C285.385 322.039 285.382 322.031 285.378 322.024C285.374 322.024 285.366 322.02 285.359 322.02C285.355 322.02 285.347 322.02 285.343 322.024L278.694 324.815C276.958 325.57 275.031 325.713 273.211 325.22L267.879 323.805C266.377 323.415 264.803 323.451 263.321 323.908L257.578 325.622Z" fill="#2D0011"/>
<path d="M287.514 325.219C287.514 325.358 287.522 325.541 287.53 325.672C287.53 325.676 287.533 325.68 287.533 325.684C288.509 329.97 291.269 328.737 294.786 328.737C303.654 328.737 312.32 329.302 313.014 329.302C316.128 329.302 315.552 325.875 315.379 322.07V322.066L314.711 313.78C314.711 313.768 314.711 313.764 314.708 313.756C314.704 313.748 314.7 313.744 314.692 313.736C314.688 313.732 314.681 313.728 314.677 313.728C314.669 313.728 314.662 313.728 314.658 313.732C310.2 315.919 306.565 315.585 302.257 313.08C302.253 313.076 302.245 313.072 302.238 313.072C302.234 313.072 302.226 313.076 302.222 313.08L289.445 321.179C288.217 322.006 287.514 323.501 287.514 325.219Z" fill="#FF95BD"/>
<path d="M287.565 325.622C287.554 325.626 287.546 325.634 287.538 325.646C287.535 325.654 287.531 325.669 287.535 325.681C287.719 327.987 289.258 329.769 291.071 329.769H313.162C314.709 329.769 315.864 328.043 315.711 326.127L315.381 322.067C315.381 322.059 315.377 322.051 315.377 322.043C315.373 322.039 315.369 322.031 315.362 322.024C315.362 322.024 315.354 322.02 315.346 322.02C315.342 322.02 315.335 322.02 315.327 322.024L308.681 324.815C306.946 325.57 305.019 325.713 303.199 325.22L297.866 323.805C296.365 323.415 294.791 323.451 293.309 323.908L287.565 325.622Z" fill="#2D0011"/>
<path d="M121.55 329.747C121.547 329.747 121.543 329.747 121.539 329.743C121.539 329.743 121.535 329.743 121.531 329.739C121.531 329.739 121.531 329.735 121.527 329.731C121.527 329.727 121.527 329.727 121.527 329.724C121.527 329.708 121.527 329.696 121.527 329.692C121.527 329.215 121.95 328.829 122.468 328.829H127.221C127.57 328.837 127.912 328.753 128.223 328.594C128.534 328.435 128.799 328.197 129.002 327.906C130.473 325.68 134.105 320.177 134.105 320.177C134.285 319.931 134.542 319.76 134.83 319.696C135.122 319.629 135.426 319.676 135.687 319.823C135.809 319.883 135.921 319.97 136.009 320.078C136.097 320.189 136.163 320.312 136.201 320.452C136.236 320.591 136.243 320.734 136.224 320.873C136.201 321.016 136.151 321.147 136.071 321.267L131.567 328.081C131.356 328.403 131.598 328.813 132.001 328.829C132.009 328.829 132.012 328.829 132.016 328.833C132.02 328.841 132.024 328.845 132.024 328.849C131.997 329.926 130.327 329.298 127.497 329.712C127.494 329.712 127.409 329.747 127.409 329.747H121.55Z" fill="#EF0F64"/>
<path d="M127.407 329.747C127.4 329.747 127.396 329.743 127.388 329.739C127.384 329.735 127.384 329.727 127.384 329.724C127.384 329.708 127.384 329.696 127.384 329.692C127.384 329.215 127.803 328.829 128.325 328.829H133.078C133.112 328.829 133.143 328.829 133.178 328.825C133.504 328.817 133.83 328.733 134.122 328.57C134.414 328.411 134.667 328.185 134.859 327.906C136.333 325.68 139.965 320.177 139.965 320.177C140.142 319.931 140.399 319.76 140.687 319.696C140.979 319.629 141.282 319.676 141.543 319.823C141.666 319.883 141.778 319.97 141.866 320.078C141.958 320.189 142.023 320.312 142.058 320.452C142.096 320.591 142.104 320.734 142.081 320.873C142.058 321.016 142.004 321.147 141.927 321.267L137.424 328.081C137.209 328.407 137.466 328.829 137.881 328.829H139.032C139.555 328.829 139.973 329.215 139.973 329.692C139.973 329.696 139.973 329.708 139.973 329.724C139.973 329.727 139.973 329.727 139.973 329.731C139.973 329.735 139.969 329.735 139.969 329.739C139.965 329.743 139.962 329.743 139.962 329.743C139.958 329.747 139.954 329.747 139.95 329.747H127.407Z" fill="#FF95BD"/>
<path d="M180.352 323.689C180.355 323.685 180.355 323.681 180.355 323.677C180.355 323.677 180.355 323.673 180.352 323.669C180.352 323.665 180.348 323.665 180.348 323.661C180.344 323.657 180.34 323.657 180.34 323.657C162.86 316.997 140.627 300.02 134.369 292.191C130.683 287.583 129.247 285.508 128.157 279.731C127.071 273.954 126.464 270.228 123.707 268.554C120.955 266.884 116.359 267.23 114.247 270.204C112.155 273.154 112.815 274.995 114.604 279.679C115.683 282.49 114.919 284.923 112.005 290.04C107.379 298.171 106.584 312.719 118.785 319.248C132.649 326.663 144.305 317.995 150.931 320.393C157.427 322.746 176.428 330.44 177.115 330.718C177.123 330.722 177.127 330.722 177.134 330.718C177.138 330.718 177.142 330.714 177.142 330.71L180.352 323.689Z" fill="#F2B140"/>
<path d="M141.222 314.186C141.042 314.158 140.834 314.13 140.654 314.098C128.583 312.213 120.267 307.391 118.712 301.395C117.169 295.435 118.92 290.938 123.389 288.576C126.506 286.93 128.867 287.479 132.081 289.065C133.52 289.781 140.45 295.367 147.641 301.303C149.499 303.534 157.331 315.239 141.222 314.186Z" fill="#224942"/>
<path d="M147.641 301.303C148.812 302.269 149.991 303.243 151.154 304.209C154.54 308.758 144.735 314.527 144.731 314.551C144.716 314.547 144.535 314.654 144.52 314.65C143.422 314.507 142.32 314.356 141.222 314.185C141.218 314.185 141.214 314.181 141.21 314.177C141.207 314.173 141.203 314.169 141.207 314.161C141.422 311.036 142.512 304.623 147.641 301.303Z" fill="#000101"/>
<path d="M118.658 274.987C117.752 274.987 117.014 274.224 117.014 273.282C117.014 272.343 117.752 271.584 118.658 271.584C119.567 271.584 120.301 272.343 120.301 273.282C120.301 274.224 119.567 274.987 118.658 274.987Z" fill="#F5B249"/>
<path d="M118.66 274.195C118.172 274.195 117.781 273.79 117.781 273.281C117.781 272.78 118.172 272.371 118.66 272.371C119.148 272.371 119.543 272.78 119.543 273.281C119.543 273.79 119.148 274.195 118.66 274.195Z" fill="black"/>
<path d="M114.797 274.465C114.801 274.461 114.801 274.454 114.801 274.45C114.774 274.314 114.444 272.545 113.131 272.314H113.127C113.058 272.322 111.879 272.462 109.837 274.064C109.833 274.064 109.833 274.068 109.829 274.072C109.829 274.076 109.825 274.08 109.825 274.084C109.825 274.088 109.829 274.088 109.829 274.092C109.833 274.096 109.833 274.1 109.837 274.1C110.535 274.609 112.278 275.857 113.584 275.718C114.133 275.658 114.743 274.565 114.797 274.465Z" fill="#FF478C"/>
<path d="M151.154 304.211L151.177 304.231C159.647 310.91 165.674 316.266 166.254 316.783C166.258 316.787 166.262 316.791 166.262 316.795C166.262 316.799 166.262 316.803 166.262 316.807C166.258 316.815 166.258 316.819 166.254 316.819C166.25 316.823 166.243 316.823 166.239 316.823C158.971 316.703 151.722 315.98 144.566 314.66L144.52 314.656C145.134 310.783 147.158 307.304 150.171 304.923C150.486 304.676 150.816 304.434 151.154 304.211Z" fill="#F2B140"/>
<path d="M114.793 289.367C112.159 293.677 109.81 301.303 112.958 307.195" stroke="#8F6213" stroke-width="2" stroke-linecap="round" stroke-linejoin="round"/>
<path d="M178.34 328.093L160.192 319.998" stroke="#8F6213" stroke-width="2" stroke-linecap="round" stroke-linejoin="round"/>
<path d="M134.277 301.304L129.348 296.199" stroke="#000101" stroke-width="2" stroke-linecap="round" stroke-linejoin="round"/>
<path d="M155.086 313.102L151.504 309.393" stroke="white" stroke-width="2" stroke-linecap="round" stroke-linejoin="round"/>
<path d="M121.45 268.846C124.368 269.375 125.059 272.826 125.734 275.183" stroke="#8F6213" stroke-width="2" stroke-linecap="round" stroke-linejoin="round"/>
</g>
</svg>
