<svg width="237" height="201" viewBox="0 0 237 201" fill="none" xmlns="http://www.w3.org/2000/svg">
<mask id="mask0_4543_87" style="mask-type:alpha" maskUnits="userSpaceOnUse" x="0" y="0" width="237" height="201">
<rect width="237" height="201" fill="#D9D9D9"/>
</mask>
<g mask="url(#mask0_4543_87)">
<path d="M8.00995 46.301C8.06324 45.9342 8.22 44.9842 9.69664 44.9842C11.12 44.9842 13.4933 45.8276 16.7601 47.5143L16.7068 47.461C14.23 45.0908 7.74659 38.8175 8.43318 35.234C8.64323 34.3374 9.27653 33.5975 10.1199 33.2808C9.32669 32.1741 9.16996 30.7508 9.74995 29.4873C10.3833 28.3273 11.7 27.694 13.44 27.694C13.7566 27.694 14.02 27.694 14.2833 27.7473C15.0201 26.534 16.3901 25.8506 17.8135 25.9039C21.8735 25.9039 27.8302 30.3307 32.6269 33.8608C34.6303 35.3375 36.4236 36.6574 37.8469 37.5509C37.8971 37.5509 37.9503 37.5509 37.897 37.5007C37.3703 35.5475 35.5269 28.4841 37.0537 26.4306C37.3202 26.0606 37.7403 25.8506 38.2137 25.8506C38.3203 25.8506 38.3736 25.8506 38.477 25.8506C41.5871 26.324 46.6503 35.9708 51.1304 44.9842C53.3438 49.3076 57.6671 60.431 61.8306 71.1844L63.2539 74.8713L35.6304 85.2047L35.5802 85.0981C33.997 79.1414 32.5736 72.6046 31.2569 65.6478V65.5945C29.8335 64.6477 7.48325 49.781 8.00995 46.301Z" fill="#F9B298"/>
<path d="M10.3816 33.4395L26.6152 46.353" stroke="black" stroke-linecap="round" stroke-linejoin="round"/>
<path d="M14.3896 27.9033L30.2031 40.03" stroke="black" stroke-linecap="round" stroke-linejoin="round"/>
<path d="M16.7591 47.5137L23.9824 52.6804" stroke="black" stroke-linecap="round" stroke-linejoin="round"/>
<path d="M192.505 80.6174C193.349 77.9807 194.139 75.5573 194.879 73.3439C197.039 66.5971 198.672 61.7471 199.095 59.587C199.569 59.3738 203.682 57.6338 209.639 55.3169C210.322 55.0536 226.663 48.567 225.979 45.7736C225.769 44.9303 224.346 43.9835 220.972 43.9835C220.179 43.9835 219.336 44.0336 218.546 44.1402C220.232 43.1401 226.032 39.3435 225.979 36.3902C225.979 35.5469 225.452 34.8101 224.449 34.2301C224.819 33.7567 226.189 31.9634 225.346 30.2234C224.713 28.9067 222.816 28.7468 222.342 28.6966C222.342 28.2734 222.393 26.7466 221.499 25.7966C220.972 25.2699 220.286 24.9533 219.496 25.0066C219.126 25.0066 218.756 25.0599 218.389 25.11C214.119 26.06 206.949 29.3268 200.042 32.5434L198.042 33.4934C198.146 33.0701 198.252 32.65 198.409 32.2268C199.832 27.0601 200.992 23.0032 198.515 22.0533C198.356 22 198.252 22 198.092 22C194.932 22 185.969 32.0167 180.012 40.9769C175.902 47.1437 171.315 56.4236 166.992 65.5406L166.939 65.6472L192.399 80.7773L192.505 80.6174Z" fill="#F9B298"/>
<path d="M148.175 214.878C154.815 208.762 154.025 202.965 153.075 191.948C152.971 190.578 152.812 189.155 152.708 187.625C152.232 180.508 152.181 173.341 152.655 166.224V166.171L152.708 166.065C156.345 151.991 163.828 139.341 171.052 127.111C174.318 121.574 177.692 115.884 180.645 110.19C184.862 101.914 188.869 92.0035 192.505 80.6168L192.559 80.5133L167.045 65.4365L166.992 65.54C165.992 67.6499 164.988 69.7598 163.988 71.8667C160.615 79.0367 157.398 85.8368 154.552 91.1069C149.121 101.177 132.571 129.694 124.981 142.238C113.594 140.711 99.5207 128.271 89.7141 118.044C81.0705 109.084 74.1639 100.174 72.7405 97.6969C71.1071 94.8502 67.2603 84.9401 63.307 74.8701L63.2004 74.66L35.5799 84.9401V85.0467C42.5368 111.297 50.3902 121.944 55.6102 128.954C56.2937 129.851 56.927 130.694 57.4537 131.484C58.7736 133.384 60.1436 135.281 61.5669 137.231C62.7269 138.814 63.8869 140.447 65.0971 142.134C71.1071 150.514 76.4839 159.424 81.0706 168.648C85.814 178.085 85.6572 186.675 85.4974 194.215C85.3406 202.542 85.0772 209.658 91.9808 214.982L148.175 214.878Z" fill="#FFC930"/>
<path d="M148.12 215.142C154.024 210.292 154.341 204.229 153.287 194.532V194.479L126.77 178.559L85.4431 196.639V196.692C85.2864 205.389 85.8131 210.292 92.0332 215.142H148.12Z" fill="white"/>
<path d="M123.611 146.985C125.981 147.035 128.248 146.299 130.145 144.822C131.728 143.558 132.678 141.659 132.678 139.658C132.678 136.812 132.571 132.595 132.518 131.802C134.101 132.065 135.735 132.172 137.315 132.172C141.111 132.172 146.225 131.382 148.755 127.638C151.865 123.052 150.862 117.412 149.861 111.931L149.755 111.298C149.281 108.768 149.018 106.288 148.808 103.918C148.228 98.698 147.698 93.7978 145.328 90.0012C141.215 83.571 136.208 85.6778 126.771 85.6778C125.614 85.6778 124.401 85.7311 123.134 85.8377C110.538 86.8378 103.158 95.8011 103.314 109.821C103.368 115.725 102.051 122.685 102.471 130.115C102.524 130.275 106.531 143.348 120.501 146.562C121.448 146.879 122.555 146.985 123.611 146.985Z" fill="#F9B298"/>
<path opacity="0.3" d="M131.148 143.82C132.098 142.66 132.678 141.184 132.678 139.657C132.678 139.024 132.678 138.337 132.678 137.654C132.624 134.807 132.518 131.8 132.518 131.8C132.518 131.8 126.771 130.59 124.664 129.534L124.401 129.377L130.991 143.874L131.148 143.82Z" fill="black"/>
<path d="M109.062 128.165C111.699 128.218 114.333 127.638 116.759 126.585L116.916 126.532L116.759 126.425C116.706 126.372 109.486 121.208 108.799 115.778C108.589 113.932 109.169 112.141 110.433 110.771C111.329 109.768 112.646 109.295 114.333 109.295C118.603 109.295 123.926 112.351 123.979 112.405L124.033 112.458L124.086 112.405C124.139 112.351 128.249 108.661 126.299 100.911C126.036 100.701 131.043 102.598 132.73 102.598C134.313 102.598 135.523 102.071 136.316 101.071C137.843 99.0679 136.689 94.3088 136.896 94.6411C138.793 96.0645 141.113 96.8545 143.536 96.8545C144.906 96.8545 146.276 96.5912 147.49 96.0112L147.543 95.9579V95.9046C147.12 93.848 146.33 91.8979 145.223 90.1579C141.113 83.7278 134.523 80.5645 125.086 80.5645C123.926 80.5645 122.716 80.6178 121.449 80.7243C108.852 81.7245 101.472 90.6878 101.629 104.708C101.682 110.348 101.892 120.152 102.209 127.165V127.218H102.262C104.529 127.848 106.796 128.165 109.062 128.165Z" fill="black"/>
<path d="M119.922 118.941L117.125 116.885" stroke="black" stroke-linecap="round" stroke-linejoin="round"/>
<path d="M132.518 131.802C130.568 131.222 128.617 130.378 126.771 129.642" stroke="black" stroke-linecap="round" stroke-linejoin="round"/>
<path d="M141.059 110.665L141.479 111.772C141.692 112.405 141.586 113.088 141.112 113.565L141.006 113.668" stroke="black" stroke-linecap="round" stroke-linejoin="round"/>
<path d="M142.691 118.941C142.008 119.468 139.688 119.731 138.211 118.151" stroke="black" stroke-linecap="round" stroke-linejoin="round"/>
<path d="M134.943 111.137C134.216 111.137 133.623 110.548 133.623 109.821C133.623 109.093 134.216 108.504 134.943 108.504C135.67 108.504 136.26 109.093 136.26 109.821C136.26 110.548 135.67 111.137 134.943 111.137Z" fill="black"/>
<path d="M145.328 110.191C144.6 110.191 144.008 109.599 144.008 108.871C144.008 108.144 144.6 107.555 145.328 107.555C146.055 107.555 146.645 108.144 146.645 108.871C146.645 109.599 146.055 110.191 145.328 110.191Z" fill="black"/>
<path d="M41.8532 103.707L70.2637 92.6904" stroke="#5F5F5F" stroke-linecap="round" stroke-linejoin="round"/>
<path d="M53.8685 78.0879L61.1953 96.2214" stroke="#5F5F5F" stroke-linecap="round" stroke-linejoin="round"/>
<path d="M43.9054 81.8311L49.9688 100.545" stroke="#5F5F5F" stroke-linecap="round" stroke-linejoin="round"/>
<path d="M153.289 194.479L126.772 178.559L85.445 196.639" stroke="black" stroke-linecap="round" stroke-linejoin="round"/>
<path d="M35.5807 84.8869L63.2012 74.6602" stroke="#5F5F5F" stroke-linecap="round" stroke-linejoin="round"/>
<path d="M192.559 80.5133L167.045 65.4365" stroke="#5F5F5F" stroke-linecap="round" stroke-linejoin="round"/>
<path d="M185.232 100.12L158.402 84.3066" stroke="#5F5F5F" stroke-linecap="round" stroke-linejoin="round"/>
<path d="M174.951 70.1279L166.361 88.8415" stroke="#5F5F5F" stroke-linecap="round" stroke-linejoin="round"/>
<path d="M184.547 75.7676L176.537 95.0078" stroke="#5F5F5F" stroke-linecap="round" stroke-linejoin="round"/>
<path d="M222.236 28.8535C216.913 31.5936 208.479 35.2836 204.789 36.8669" stroke="black" stroke-linecap="round" stroke-linejoin="round"/>
<path d="M224.291 34.2832C216.911 38.4466 207.421 42.6634 207.421 42.6634" stroke="black" stroke-linecap="round" stroke-linejoin="round"/>
<path d="M218.072 44.3496L209.532 47.9362" stroke="black" stroke-linecap="round" stroke-linejoin="round"/>
<path d="M198.043 33.4932L196.356 40.0299" stroke="black" stroke-linecap="round" stroke-linejoin="round"/>
<path d="M37.9512 37.6572V43.824" stroke="black" stroke-linecap="round" stroke-linejoin="round"/>
<path d="M101.346 55.9033L129.32 80.7993L102.869 93.3053L101.346 55.9033Z" fill="#61CCFF"/>
<path d="M98.8001 56.6806C95.4142 56.6806 92.6678 53.9342 92.6678 50.5483C92.6678 47.1624 95.4142 44.416 98.8001 44.416C102.192 44.416 104.936 47.1624 104.936 50.5483C104.936 53.9342 102.192 56.6806 98.8001 56.6806Z" fill="#FF9EDD"/>
</g>
</svg>
