<svg width="166" height="137" viewBox="0 0 166 137" fill="none" xmlns="http://www.w3.org/2000/svg">
<path d="M124.265 32.327C124.91 27.8107 124.538 22.1307 117.666 18.7062C113.573 16.6735 109.43 16.4256 106.875 17.442C101.517 19.2288 99.2342 27.8358 99.1354 28.2327C99.1354 28.2327 96.853 28.3566 96.58 29.2509C96.2335 30.3409 97.7706 31.7057 97.7706 31.7057C96.9033 34.1623 95.6875 37.3371 96.431 39.6447C97.1008 41.6793 99.06 43.8611 104.494 43.5397L103.7 47.2102H120.618C122.081 42.622 123.893 34.8572 124.265 32.327Z" fill="#FAA378"/>
<path d="M37.8103 39.9678C35.0071 38.4289 34.2385 40.2157 35.5045 42.5214C36.397 44.134 37.092 45.5742 37.092 45.5742C34.0392 45.0534 21.4384 42.2736 21.7114 45.8471C19.7253 46.0195 19.0555 48.0038 19.8258 49.022C17.6171 50.4353 19.6517 52.4699 19.6517 52.4699C19.6517 52.4699 19.1309 54.7774 22.4548 56.3146C25.6064 57.7781 32.924 59.6385 34.982 60.4089C38.2071 61.5743 41.0857 63.907 45.8229 68.0247L55.3009 51.9239C48.3047 46.7396 41.9782 42.2484 37.8103 39.9678Z" fill="#FAA378"/>
<path d="M119.823 49.7168C120.023 49.0955 120.296 48.2282 120.617 47.21H103.699L103.202 49.4187C103.202 49.4187 95.0168 48.6502 87.3759 52.7427C80.7262 56.2893 70.6054 63.4346 70.6054 63.4346C70.6054 63.4346 64.2556 58.5232 56.911 53.0892L47.46 69.4378C53.2153 74.4246 59.3676 79.9573 64.1317 82.0403C69.3897 84.3479 74.723 83.2058 81.4715 79.8334C88.1193 76.5076 91.1703 74.7227 91.1703 74.7227L95.2144 94.1455H122.851L126.943 79.8567C129.648 74.6221 135.254 61.1037 135.849 57.2572C130.293 50.137 122.131 49.8407 119.823 49.7168Z" fill="white"/>
<path d="M103.303 131.979C107.148 131.855 111.018 131.706 114.862 131.582C116.005 124.909 116.847 117.738 115.954 111.09C114.218 97.8916 112.233 93.228 112.233 93.228L95.1415 94.1457C95.1415 94.1457 89.7076 109.577 88.666 132.275C93.5774 132.251 98.4403 132.151 103.303 131.979Z" fill="#FAA378"/>
<path d="M137.2 20.9077C141.806 16.8511 142.68 10.3128 139.146 6.30111C135.617 2.2894 129.02 2.32711 124.414 6.38192C119.804 10.4385 118.933 16.9786 122.464 20.9886C125.994 24.9985 132.593 24.9625 137.2 20.9077Z" fill="black"/>
<path d="M100.078 34.1118C100.45 34.3848 101.913 34.708 102.608 33.6414" stroke="black" stroke-width="1.5" stroke-linecap="round" stroke-linejoin="round"/>
<path d="M110.547 33.4422L112.605 32.4006" stroke="black" stroke-width="1.5" stroke-linecap="round" stroke-linejoin="round"/>
<path d="M102.46 29.2506C102.884 29.2506 103.229 28.9076 103.229 28.4803C103.229 28.0565 102.884 27.7117 102.46 27.7117C102.033 27.7117 101.691 28.0565 101.691 28.4803C101.691 28.9076 102.033 29.2506 102.46 29.2506Z" fill="black"/>
<path d="M19.9248 52.4951C19.9248 52.4951 31.3601 54.5046 32.6261 54.7524" stroke="#1A1919" stroke-width="1.5" stroke-linecap="round" stroke-linejoin="round"/>
<path d="M20.1953 48.6736L33.6401 51.0565" stroke="#1A1919" stroke-width="1.5" stroke-linecap="round" stroke-linejoin="round"/>
<path d="M22.2285 45.5974L35.1292 47.8313" stroke="#1A1919" stroke-width="1.5" stroke-linecap="round" stroke-linejoin="round"/>
<path d="M134.237 131.135C134.014 126.868 133.693 122.377 133.071 117.789C131.335 104.59 122.157 93.228 122.157 93.228L108.811 94.1457C108.811 94.1457 108.513 109.031 110.795 131.731C118.583 131.458 126.423 131.185 134.237 131.135Z" fill="#FAA378"/>
<path d="M43.8124 56.266C42.5715 55.7685 39.596 53.7842 37.1143 45.5974" stroke="#1A1919" stroke-width="1.5" stroke-linecap="round" stroke-linejoin="round"/>
<path d="M141.804 47.7308C142.795 36.3206 133.865 31.1111 124.735 33.3181C124.811 32.9213 124.884 32.5747 124.935 32.3017C125.579 27.7872 125.357 21.1375 118.484 17.7148C114.392 15.6803 109.604 15.9532 107.049 16.9696C105.065 17.6394 103.475 19.3023 102.236 21.1627C102.757 22.6765 104.072 25.1564 105.808 27.3904L110.024 24.413L107.049 28.8772C107.446 29.3244 107.843 29.7212 108.288 30.1181C112.258 26.6451 115.557 27.7621 116.723 29.3747C119.948 33.8389 113.002 37.3119 111.513 38.0571C111.018 44.5074 113.497 47.7308 117.22 49.4673C121.56 49.6164 126.125 49.9647 129.846 52.1969C135.503 55.0252 141.68 66.1875 144.458 72.1925C153.959 67.8253 155.448 51.2056 141.804 47.7308Z" fill="black"/>
<path d="M110.571 36.5183L109.332 39.8189C109.107 40.4133 109.405 41.058 110.001 41.2825C110.174 41.3561 110.348 41.3561 110.522 41.3561L113.697 40.9844C114.317 40.909 114.764 40.3397 114.69 39.7184C114.665 39.546 114.615 39.3718 114.516 39.2227L112.557 36.2957C112.208 35.7749 111.488 35.651 110.967 35.9976C110.795 36.1215 110.671 36.2957 110.571 36.5183Z" fill="white"/>
<path d="M135.825 57.3328C135.825 57.3077 135.825 57.3077 135.825 57.2825C132.128 52.4951 127.267 50.6095 123.769 49.9649L108.065 71.8946L99.332 49.4441C96.2326 49.6668 91.7414 50.4353 87.3759 52.768C80.7263 56.3146 70.6054 63.4599 70.6054 63.4599C70.6054 63.4599 63.2877 57.8033 55.3002 51.924L45.8223 68.0247C52.0499 73.333 58.9205 79.7582 64.1551 82.0657C69.3897 84.3732 74.7482 83.2311 81.4967 79.8569C88.1445 76.533 91.1955 74.748 91.1955 74.748L95.2395 94.1709H122.874L126.969 79.8821C126.969 79.8569 126.994 79.8336 126.994 79.8336" fill="#61CCFF"/>
<path d="M104.741 44.0856C105.907 44.0101 107.049 43.6636 108.065 43.0674" stroke="black" stroke-width="1.5" stroke-linecap="round" stroke-linejoin="round"/>
<path d="M90.7002 74.7227L89.9316 70.6536" stroke="#354D58" stroke-width="1.5" stroke-linecap="round" stroke-linejoin="round"/>
<path d="M66.6377 65.9399L70.1107 63.46" stroke="#354D58" stroke-width="1.5" stroke-linecap="round" stroke-linejoin="round"/>
<path d="M103.303 131.978C113.598 131.655 123.942 131.185 134.262 131.134C134.039 126.893 133.716 122.452 133.122 117.912C131.385 104.714 122.206 93.3518 122.206 93.3518L95.1669 93.7253C95.1669 93.7253 89.7581 109.478 88.6914 132.275C93.5776 132.251 98.4405 132.151 103.303 131.978Z" fill="#61CCFF"/>
<path d="M95.166 93.7488H122.95" stroke="#24343B" stroke-width="1.5" stroke-linecap="round" stroke-linejoin="round"/>
<path d="M108.065 71.8945V93.7255" stroke="#24343B" stroke-width="1.5" stroke-linecap="round" stroke-linejoin="round"/>
<path d="M104.84 78.5925H111.364" stroke="#24343B" stroke-width="1.5" stroke-linecap="round" stroke-linejoin="round"/>
<path d="M104.84 83.5039H111.364" stroke="#24343B" stroke-width="1.5" stroke-linecap="round" stroke-linejoin="round"/>
<path opacity="0.2" d="M134.262 131.135C134.04 126.918 133.716 122.452 133.122 117.912C131.386 104.714 122.206 93.3519 122.206 93.3519L112.729 93.2532L134.065 131.16C134.138 131.16 134.214 131.135 134.262 131.135Z" fill="#215067"/>
<path opacity="0.2" d="M113.449 94.1708H122.875L126.969 79.882L123.57 72.7134L113.449 94.1708Z" fill="#24343B"/>
<path d="M135.677 57.0598C138.579 60.4825 149.743 78.0952 148.75 89.2594C147.757 100.424 124.439 110.595 124.439 110.595C124.439 110.595 122.205 115.059 117.741 117.541C117.741 117.541 115.507 127.214 112.034 125.726C112.034 125.726 110.05 128.455 107.818 126.471C107.818 126.471 104.841 128.207 104.097 124.982C104.097 124.982 101.863 125.23 102.608 121.014C103.079 118.408 103.749 115.828 104.593 113.322C104.593 113.322 101.863 114.563 100.872 112.827C99.8789 111.09 111.043 101.91 113.275 100.174C118.287 96.2808 130.144 86.2821 130.144 86.2821L124.439 74.3744L124.464 74.3493" fill="#FAA378"/>
<path d="M124.439 74.3742L130.144 86.2818C130.144 86.2818 124.735 90.8466 119.675 95.0146L129.871 107.915C136.817 104.169 148.055 96.9504 148.75 89.2843C149.743 78.095 138.579 60.4823 135.677 57.0596L135.626 57.1332" fill="#61CCFF"/>
<path d="M126.721 80.1047L124.687 75.4915" stroke="#354D58" stroke-width="1.5" stroke-linecap="round" stroke-linejoin="round"/>
<path d="M112.033 125.726C112.283 124.487 112.778 120.766 114.019 117.291" stroke="black" stroke-width="1.5" stroke-linecap="round" stroke-linejoin="round"/>
<path d="M107.817 126.471C107.817 126.471 108.81 120.268 110.547 116.052" stroke="black" stroke-width="1.5" stroke-linecap="round" stroke-linejoin="round"/>
<path d="M104.096 125.23C105.832 118.284 107.071 114.563 107.071 114.563" stroke="black" stroke-width="1.5" stroke-linecap="round" stroke-linejoin="round"/>
<path d="M104.096 113.322C104.442 112.355 104.938 111.437 105.534 110.595" stroke="black" stroke-width="1.5" stroke-linecap="round" stroke-linejoin="round"/>
<path opacity="0.2" d="M75.2695 82.4121C77.2305 81.8177 79.2633 80.9737 81.472 79.8567C88.1199 76.5328 91.1709 74.7478 91.1709 74.7478L89.8816 67.6025C81.7701 77.0536 75.2695 82.4121 75.2695 82.4121Z" fill="#24343B"/>
<path opacity="0.2" d="M104.493 43.5394C104.493 43.5394 107.322 43.2162 109.43 42.5967L103.525 47.9803L104.493 43.5394Z" fill="black"/>
<path d="M74.4023 0.75H51.3107C47.1661 0.75 43.8135 4.10266 43.8135 8.24726V23.504C43.8135 27.6468 47.1661 30.9994 51.3107 30.9994H52.4026V35.3577C52.4026 35.7833 52.742 36.1227 53.1694 36.1227C53.3184 36.1227 53.4692 36.0724 53.5949 35.9844L60.8911 30.9994H74.3897C78.5325 30.9994 81.8852 27.6468 81.8978 23.504V8.24726C81.8978 4.10266 78.5451 0.75 74.4023 0.75Z" fill="#65AA98"/>
<path opacity="0.2" d="M52.4023 33.1721L59.7362 31.7912L60.8909 30.9993H52.4023V33.1721Z" fill="#65AA98"/>
<path d="M70.2201 18.2298C71.5184 18.2298 72.5689 17.1775 72.5689 15.881C72.5689 14.5845 71.5184 13.5339 70.2201 13.5339C68.9236 13.5339 67.873 14.5845 67.873 15.881C67.873 17.1775 68.9236 18.2298 70.2201 18.2298Z" fill="#65AA98"/>
<path d="M62.8508 18.2298C64.1473 18.2298 65.1978 17.1775 65.1978 15.881C65.1978 14.5845 64.1473 13.5339 62.8508 13.5339C61.5525 13.5339 60.502 14.5845 60.502 15.881C60.502 17.1775 61.5525 18.2298 62.8508 18.2298Z" fill="#65AA98"/>
<path d="M55.4916 18.2298C56.7881 18.2298 57.8404 17.1775 57.8404 15.881C57.8404 14.5845 56.7881 13.5339 55.4916 13.5339C54.195 13.5339 53.1445 14.5845 53.1445 15.881C53.1445 17.1775 54.195 18.2298 55.4916 18.2298Z" fill="#65AA98"/>
<path d="M68.0395 8.58564C67.9455 8.59386 67.8575 8.61567 67.773 8.64893C67.3694 8.81124 64.9802 10.4597 63.6975 11.3457L63.2257 11.6716C63.0211 11.8047 62.8814 12.0122 62.8315 12.247L61.5133 18.5602C61.4756 18.7682 61.5091 18.984 61.608 19.1705C61.7071 19.3595 61.8682 19.5077 62.0656 19.5986C63.1304 20.0818 64.2545 20.4375 65.4082 20.6588L68.6637 21.2797C68.7823 21.3023 68.9066 21.3079 69.0296 21.2971C69.2513 21.2777 69.4636 21.2051 69.6448 21.0834C69.8259 20.9593 69.9739 20.7912 70.0688 20.5994C70.1564 20.4059 70.1862 20.1916 70.1584 19.9847C70.133 19.7776 70.0502 19.5802 70.0557 19.5609L70.0904 19.5132C70.2561 19.3246 70.4696 19.2942 70.6687 19.1262C70.87 18.9557 71.0105 18.7294 71.066 18.4752C71.1027 18.3121 71.1 18.143 71.0592 17.9819C71.0184 17.8208 70.9953 17.7781 71.0333 17.6854L71.0622 17.6264C71.1355 17.5212 71.3889 17.4191 71.588 17.2512C71.7893 17.0807 71.9296 16.852 71.9853 16.6002C72.0308 16.3986 72.0198 16.1902 71.9495 15.9964C71.8789 15.8003 71.7571 15.6298 71.7914 15.5775C71.8177 15.434 72.0174 15.3013 72.162 15.1217C72.309 14.9418 72.3943 14.7227 72.4085 14.4956C72.4191 14.2007 72.3185 13.9107 72.1259 13.6806C71.9333 13.4505 71.6623 13.2954 71.3617 13.2464L67.7316 12.4536C67.5928 12.4211 67.6468 12.3176 67.7007 12.2117C68.0846 11.4631 68.5156 10.6139 68.7405 9.71452C68.8692 9.21402 68.7457 8.94021 68.6165 8.79627C68.5465 8.71771 68.4562 8.65739 68.3535 8.62168C68.2532 8.58576 68.1451 8.5717 68.0395 8.58564Z" fill="white"/>
<path d="M58.2872 10.1909C58.1378 10.2016 57.9997 10.2636 57.89 10.3635C57.7805 10.4658 57.7035 10.6008 57.6734 10.7508L56.2274 18.4897C56.1977 18.6706 56.237 18.8597 56.3348 19.0151C56.437 19.1678 56.5899 19.2756 56.7642 19.315L59.3514 19.8612C59.4092 19.8704 59.4688 19.8747 59.5275 19.8696C59.6744 19.8567 59.8125 19.7948 59.9245 19.6947C60.034 19.5924 60.1087 19.4575 60.1389 19.3075L61.5885 11.5849C61.5883 11.5826 61.5881 11.5802 61.5881 11.5802C61.5879 11.5779 61.5877 11.5755 61.5877 11.5755C61.59 11.5753 61.592 11.5727 61.592 11.5727C61.5941 11.5702 61.5964 11.57 61.5964 11.57C61.6136 11.4805 61.6125 11.3903 61.5932 11.2993C61.5763 11.2105 61.5415 11.1256 61.4916 11.0492C61.4418 10.9751 61.3791 10.9092 61.3064 10.8586C61.2336 10.8079 61.151 10.7747 61.0651 10.7561L58.4631 10.1969C58.4031 10.1879 58.3437 10.186 58.2872 10.1909Z" fill="white"/>
<path d="M165.963 120.381L80.1945 133.293L0 120.381V111.885H165.963V120.381Z" fill="#F3F2F2"/>
<path d="M165.957 120.381H0V128.875H165.957V120.381Z" fill="#F3F2F2"/>
<path d="M165.957 128.004H0V136.5H165.957V128.004Z" fill="#F3F2F2"/>
</svg>
