<svg width="329" height="222" viewBox="0 0 366 247" fill="none" xmlns="http://www.w3.org/2000/svg">
<path d="M333.36 88.8985C339.138 116.929 339.701 146.787 323.211 161.579C306.866 176.226 273.324 175.663 246.83 189.748C220.62 203.832 201.03 232.426 174.254 242.286C147.618 252.288 113.516 243.274 88.4321 222.427C63.4866 201.439 47.4219 168.763 40.376 133.265C33.1885 97.9127 35.02 60.0217 57.2874 41.9931C79.4132 23.823 121.971 25.2321 153.116 20.3037C184.261 15.3717 204.13 3.96398 227.807 0.865989C251.481 -2.23554 278.821 2.83809 297.706 18.6113C316.87 34.388 327.724 60.7262 333.36 88.8985Z" fill="#F3F2F2"/>
<path d="M140.036 57.9258H15.3018C6.85316 57.9258 0.0234375 64.7484 0.0234375 73.1927V190.325C0.0234375 198.769 6.85316 205.595 15.3018 205.595H140.036C148.485 205.595 155.315 198.769 155.315 190.325V73.1927C155.315 64.7484 148.457 57.9258 140.036 57.9258Z" fill="#FF9EDD"/>
<path d="M16.7318 85.0353C20.1998 85.0353 23.0125 82.2241 23.0125 78.7579C23.0125 75.2881 20.1998 72.4805 16.7318 72.4805C13.2603 72.4805 10.4512 75.2881 10.4512 78.7579C10.4512 82.2241 13.2603 85.0353 16.7318 85.0353Z" fill="#F3EBE9"/>
<path d="M34.9662 85.0353C38.4377 85.0353 41.2469 82.2241 41.2469 78.7579C41.2469 75.2881 38.4377 72.4805 34.9662 72.4805C31.4982 72.4805 28.6855 75.2881 28.6855 78.7579C28.6855 82.2241 31.4982 85.0353 34.9662 85.0353Z" fill="#F3EBE9"/>
<path d="M53.2357 85.0353C56.7037 85.0353 59.5164 82.2241 59.5164 78.7579C59.5164 75.2881 56.7037 72.4805 53.2357 72.4805C49.7642 72.4805 46.9551 75.2881 46.9551 78.7579C46.9551 82.2241 49.7642 85.0353 53.2357 85.0353Z" fill="#F3EBE9"/>
<path d="M350.186 27.8945H225.292C216.833 27.8945 209.996 34.7278 209.996 43.1827V160.464C209.996 168.915 216.833 175.752 225.292 175.752H350.186C358.645 175.752 365.482 168.915 365.482 160.464V43.1827C365.482 34.7278 358.617 27.8945 350.186 27.8945Z" fill="#FFC930"/>
<path d="M226.719 55.0413C230.194 55.0413 233.007 52.2265 233.007 48.7532C233.007 45.2835 230.194 42.4688 226.719 42.4688C223.248 42.4688 220.432 45.2835 220.432 48.7532C220.432 52.2265 223.248 55.0413 226.719 55.0413Z" fill="#F3EBE9"/>
<path d="M244.981 55.0413C248.456 55.0413 251.272 52.2265 251.272 48.7532C251.272 45.2835 248.456 42.4688 244.981 42.4688C241.51 42.4688 238.693 45.2835 238.693 48.7532C238.693 52.2265 241.51 55.0413 244.981 55.0413Z" fill="#F3EBE9"/>
<path d="M263.27 55.0413C266.745 55.0413 269.561 52.2265 269.561 48.7532C269.561 45.2835 266.745 42.4688 263.27 42.4688C259.799 42.4688 256.982 45.2835 256.982 48.7532C256.982 52.2265 259.799 55.0413 263.27 55.0413Z" fill="#F3EBE9"/>
<path d="M146.981 103.932C147.176 99.4319 142.713 99.2371 142.713 99.2371C141.625 96.3268 139.762 96.0931 138.402 96.4047C138.402 96.3658 138.366 96.3268 138.366 96.2879C138.132 95.8595 137.704 95.7072 137.162 95.7851C138.015 92.4074 139.918 83.3684 136.464 83.0568C134.094 82.8656 129.475 95.7851 126.177 105.95C126.138 106.024 126.099 106.141 126.06 106.219C125.553 107.696 124.622 110.641 123.768 113.513C122.061 118.636 119.963 126.627 118.334 133.535L142.44 140.789C142.83 137.026 143.06 133.92 143.45 132.37C148.65 128.295 147.098 122.088 146.634 117.159C146.942 117.082 147.293 116.89 147.527 116.657C149.117 115.336 150.708 112.079 150.63 108.198C150.513 103.504 146.981 103.932 146.981 103.932Z" fill="#D9957D"/>
<path d="M137.086 111.999C140.193 108.894 141.51 105.598 142.91 99.8164" stroke="black" stroke-linecap="round" stroke-linejoin="round"/>
<path d="M143.027 114.138C144.579 112.198 146.52 107.542 147.374 104.281" stroke="black" stroke-linecap="round" stroke-linejoin="round"/>
<path d="M146.556 117.237C144.653 117.588 143.098 116.851 143.098 113.746C143.098 113.746 141.508 115.686 139.567 115.297C137.937 114.989 137.356 113.785 136.811 112.234" stroke="black" stroke-linecap="round" stroke-linejoin="round"/>
<path opacity="0.2" d="M146.599 117.082C146.404 117.198 146.209 117.276 146.014 117.315C144.112 117.666 142.872 117.276 142.56 113.863C141.862 115.067 140.424 115.687 139.067 115.414L138.795 115.609L138.253 115.57C138.756 117.121 137.512 116.501 138.951 117.354C139.532 117.705 141.126 118.247 141.979 117.237C143.141 120.884 146.79 118.87 146.751 118.441C146.638 117.977 146.599 117.549 146.599 117.082Z" fill="black"/>
<path d="M127.154 104.437C129.096 100.946 136.779 92.9934 138.412 95.9002C140.35 99.3948 134.916 108.317 134.916 108.317C134.916 108.317 140.7 117.629 139.188 126.165" stroke="black" stroke-linecap="round" stroke-linejoin="round"/>
<path d="M86.5858 106.804C86.1962 105.328 82.8203 105.523 82.8203 105.523C82.7034 104.864 82.6254 104.163 82.4696 103.466C81.2652 97.4147 79.9863 92.7199 76.2987 89.0731C73.192 85.9681 65.2748 83.3693 55.5687 86.8992C44.0028 92.1003 42.9542 99.8966 43.3014 106.995C43.5352 111.382 45.4764 132.912 45.6323 134.467H72.2604L71.5626 128.996C80.4894 130.119 83.4012 126.316 84.7225 123.02C86.1962 119.295 85.2645 114.756 84.0991 110.603C84.0211 110.642 86.972 108.667 86.5858 106.804Z" fill="#D9957D"/>
<path d="M45.0858 129.185V129.107C44.8166 126.045 43.4563 110.64 43.2615 106.954C42.9143 99.7385 44.0798 91.5917 55.6067 86.4331C58.5575 85.3851 61.5473 84.8398 64.4556 84.8398C70.4741 84.8398 74.8596 87.0527 76.7618 88.9929C79.5957 91.8254 80.7222 95.2774 81.537 98.5737V98.6126L81.498 98.6516C81.498 98.6516 80.0244 100.089 76.6839 100.089C75.8302 100.089 74.8985 99.9722 73.9669 99.8164C74.1617 101.445 73.9279 102.649 73.2301 103.424C72.6881 104.047 71.8698 104.355 70.7858 104.355C69.7373 104.355 68.7277 104.047 68.416 103.931C68.4939 104.667 68.8056 108.972 66.4747 111.883L66.4358 111.922L66.3578 111.883C66.3189 111.844 61.8944 108.972 57.8986 108.972C55.8795 108.972 54.3633 109.709 53.2404 111.107C49.0072 116.655 57.9376 123.715 58.0509 123.793L58.1289 123.832L58.0899 123.91C54.0162 129.146 45.2027 129.185 45.0858 129.185Z" fill="black"/>
<path opacity="0.2" d="M71.5248 128.997C71.5248 128.997 68.4181 128.49 63.7988 126.316L71.4468 134.038L72.1447 133.883L71.5248 128.997Z" fill="black"/>
<path d="M81.6543 199.102H25.1992V205.23H81.6543V199.102Z" fill="#FE4F32"/>
<path d="M118.414 133.027C116.473 141.022 114.999 147.848 114.999 147.848C88.2539 138.498 72.7276 137.956 72.7276 137.956L72.4938 137.878L63.2163 134.929L45.9047 137.956L38.2177 137.878H36.3154H35.6565C28.6284 137.878 19.234 143.968 19.8965 155.917C20.2047 162.01 21.3311 167.944 22.9996 173.57C22.4966 181.99 20.8671 184.358 20.906 191.691C20.906 196.849 25.2136 199.14 25.2136 199.14L36.5103 200.379C39.1883 203.874 42.0222 206.82 44.7392 209.11C54.3249 217.101 75.8697 214 85.3811 212.099L88.0201 190.37C86.1958 190.059 84.3325 189.751 82.5082 189.478L84.6832 172.02C84.6832 172.02 114.34 180.712 126.604 176.208C137.008 172.37 141.007 155.103 142.442 140.516L118.414 133.027Z" fill="#FFC930"/>
<path d="M72.7302 137.957L72.1847 133.301H63.5306H63.2189H45.5176C45.5176 133.301 45.9072 137.45 45.9462 137.957L58.3269 143.349L63.4137 135.744L67.6823 143.349L72.7302 137.957Z" fill="#FE4F32"/>
<path d="M86.6672 161.738L85.4238 171.67" stroke="black" stroke-linecap="round" stroke-linejoin="round"/>
<path d="M63.295 154.02C64.8183 154.02 66.051 152.785 66.051 151.262C66.051 149.74 64.8183 148.508 63.295 148.508C61.7718 148.508 60.5391 149.74 60.5391 151.262C60.5391 152.785 61.7718 154.02 63.295 154.02Z" fill="black"/>
<path d="M134.912 149.517C136.439 149.517 137.668 148.285 137.668 146.762C137.668 145.24 136.439 144.008 134.912 144.008C133.393 144.008 132.156 145.24 132.156 146.762C132.156 148.285 133.393 149.517 134.912 149.517Z" fill="black"/>
<path d="M114.373 148.082L113.133 154.02" stroke="black" stroke-linecap="round" stroke-linejoin="round"/>
<path d="M71.526 129.146C69.7407 128.838 67.2574 128.176 65.2383 126.82" stroke="black" stroke-linecap="round" stroke-linejoin="round"/>
<path d="M81.4977 115.532C80.8778 115.922 78.5858 116.23 77.6152 114.445" stroke="black" stroke-linecap="round" stroke-linejoin="round"/>
<path d="M77.621 107.885C78.2445 107.885 78.7475 107.382 78.7475 106.763C78.7475 106.136 78.2445 105.637 77.621 105.637C76.9975 105.637 76.498 106.136 76.498 106.763C76.498 107.382 76.9975 107.885 77.621 107.885Z" fill="black"/>
<path d="M58.834 115.145L62.3657 117.159" stroke="black" stroke-linecap="round" stroke-linejoin="round"/>
<path d="M63.295 154.02C64.8183 154.02 66.051 152.785 66.051 151.262C66.051 149.74 64.8183 148.508 63.295 148.508C61.7718 148.508 60.5391 149.74 60.5391 151.262C60.5391 152.785 61.7718 154.02 63.295 154.02Z" fill="black"/>
<path d="M107.001 195.919C114.107 199.449 120.668 204.919 125.673 211.36C127.926 214.27 132.818 220.363 129.322 221.139C126.41 221.797 119.268 214.309 119.268 214.309C119.268 214.309 123.693 225.405 121.171 227.501C119.229 229.13 116.668 226.531 116.668 226.531C114.415 231.381 110.883 227.189 110.883 227.189C103.898 232.737 99.5868 215.902 99.5868 215.902C96.2499 214.737 93.1432 213.109 90.2349 211.051C90.2349 211.051 85.226 210.857 84.9922 210.662L87.943 190.371C95.0065 191.653 102.113 193.476 107.001 195.919Z" fill="#D9957D"/>
<path d="M119.699 214.932C118.651 212.216 118.534 211.788 116.865 208.336" stroke="black" stroke-linecap="round" stroke-linejoin="round"/>
<path d="M110.848 210.391C113.565 216.172 115.506 222.574 116.632 226.532" stroke="black" stroke-linecap="round" stroke-linejoin="round"/>
<path d="M104.717 212.328C106.736 216.984 108.833 223.311 110.151 227.499" stroke="black" stroke-linecap="round" stroke-linejoin="round"/>
<path opacity="0.2" d="M114.998 147.809C113.716 147.385 112.515 146.956 111.271 146.531L112.164 161.079L114.998 147.809Z" fill="black"/>
<path opacity="0.2" d="M86.1962 160.848L84.6836 172.022C84.6836 172.022 95.2789 175.088 106.381 176.678C106.303 176.6 91.4354 166.629 86.1962 160.848Z" fill="black"/>
<path opacity="0.2" d="M27.3512 186.261C26.4054 200.25 27.9888 199.443 28.2261 199.478L35.4314 200.371L27.3512 186.261C27.6983 183.39 27.3122 186.222 27.3512 186.261Z" fill="black"/>
<path opacity="0.2" d="M51.4176 166.198C50.9889 168.488 61.0812 186.259 61.0812 186.259L66.7101 186.761L51.8037 166.007C51.7647 166.007 51.5309 165.929 51.4176 166.198Z" fill="black"/>
<path d="M51.416 166.199L60.8069 186.49" stroke="black" stroke-linecap="round" stroke-linejoin="round"/>
<path d="M35.3037 199.877C33.2845 197.045 31.0741 193.593 29.48 190.449C28.2402 188.006 27.1916 185.443 26.3379 182.844" stroke="black" stroke-linecap="round" stroke-linejoin="round"/>
<path d="M82.0504 188.743C70.7927 187.037 64.6183 186.842 60.4277 186.491C57.6717 186.261 53.8672 186.145 53.8672 186.145" stroke="black" stroke-linecap="round" stroke-linejoin="round"/>
<path d="M77.4591 208.49C78.9859 208.49 80.2151 207.254 80.2151 205.735C80.2151 204.209 78.9859 202.98 77.4591 202.98C75.9394 202.98 74.7031 204.209 74.7031 205.735C74.7031 207.254 75.9394 208.49 77.4591 208.49Z" fill="black"/>
<path d="M284.814 103.327L285.225 95.6542C280.319 96.5924 275.491 95.2824 273.28 91.9862C271.148 88.6191 271.52 84.3917 272.345 79.6756C272.607 78.139 272.721 76.0076 272.756 74.0993C272.944 69.755 273.167 63.8068 275.452 60.4362C279.235 54.7501 285.339 54.8988 294.361 54.8988C298.97 54.8988 301.102 56.1699 304.287 59.2785C307.394 62.3446 311.361 65.0425 311.439 69.1956C311.623 78.0647 309.229 102.541 309.229 103.737C309.229 103.737 314.096 103.925 315.031 104.077L309.827 130.723L285.824 136.675L277.475 104.038C279.947 103.702 284.814 103.327 284.814 103.327Z" fill="#EAA58B"/>
<path opacity="0.2" d="M291.106 93.7101C288.445 94.9812 286.125 95.5052 285.452 95.6185C285.338 95.6539 285.225 95.7282 285.225 95.8805L285.002 100.072C285.002 100.334 285.3 100.444 285.452 100.257L291.403 94.1208C291.63 93.8942 291.368 93.5579 291.106 93.7101Z" fill="#282625"/>
<path d="M290.731 93.707C289.198 94.6417 286.948 95.4632 285.227 95.7252" stroke="#282625" stroke-linecap="round" stroke-linejoin="round"/>
<path d="M296.648 83.3424L300.17 80.9844" stroke="#282625" stroke-linecap="round" stroke-linejoin="round"/>
<path d="M283.355 82.8555C282.757 84.2044 281.219 84.9904 279.721 84.6895" stroke="#282625" stroke-linecap="round" stroke-linejoin="round"/>
<path d="M279.949 79.9365C278.713 79.3736 279.014 78.4743 279.534 77.2422" stroke="#282625" stroke-linecap="round" stroke-linejoin="round"/>
<path d="M285.263 77.014C285.841 77.014 286.312 76.5466 286.312 75.966C286.312 75.3853 285.841 74.918 285.263 74.918C284.682 74.918 284.215 75.3853 284.215 75.966C284.215 76.5466 284.682 77.014 285.263 77.014Z" fill="#30242A"/>
<path d="M276.133 76.303C276.706 76.303 277.181 75.8321 277.181 75.255C277.181 74.6744 276.706 74.207 276.133 74.207C275.552 74.207 275.084 74.6744 275.084 75.255C275.084 75.8321 275.552 76.303 276.133 76.303Z" fill="#30242A"/>
<path d="M315.083 51.5697C319.72 46.9422 319.72 39.4255 315.083 34.7909C310.446 30.1634 302.932 30.1634 298.295 34.7909C293.662 39.4255 293.662 46.9422 298.295 51.5697C302.932 56.2043 310.446 56.2043 315.083 51.5697Z" fill="#30242A"/>
<path d="M225.651 100.334C217.677 85.9985 210.975 77.8764 208.467 79.0731C205.807 80.3088 208.428 87.1208 208.428 87.1208C205.584 86.2994 201.538 85.1771 197.755 85.1771H197.719C195.658 85.2125 194.46 85.6232 193.639 86.1472C190.266 88.5795 192.813 91.6138 192.813 91.6138C192.813 91.6138 188.506 92.3219 190.943 97.0379C190.943 97.0379 187.457 99.5482 190.716 102.317C190.716 102.317 188.244 103.924 190.681 106.959C193.114 109.989 196.968 111.335 198.619 110.662C198.956 110.474 199.218 110.212 199.402 109.915C201.088 110.924 203.15 111.859 205.545 112.457L208.502 114.854L226.066 102.915L225.651 100.334Z" fill="#EAA58B"/>
<path d="M208.428 87.1211L209.813 91.0511C209.813 91.0511 208.091 97.3391 209.363 103.925" stroke="#282625" stroke-linecap="round" stroke-linejoin="round"/>
<path d="M326.868 108.27C326.868 108.231 326.868 108.231 326.868 108.27C323.57 105.724 318.104 104 314.434 104L289.496 132.109L277.852 103.965C274.894 104.34 271.412 104.938 268.716 105.912C256.956 110.926 239.545 126.196 239.545 126.196C235.315 117.699 230.409 108.493 225.69 100.371L205.545 112.498C205.545 112.498 214.606 157.296 238.723 157.296C253.626 157.296 268.266 144.833 268.266 144.833L271.185 162.873L264.745 175.82H313.836V175.898C315.819 175.898 318.179 175.859 320.69 175.82L325.82 175.672C333.794 175.374 342.557 174.588 348.023 172.414C372.923 160.628 338.477 116.201 326.868 108.27ZM320.389 152.58C320.839 149.174 321.324 145.581 321.849 141.912L328.515 151.27C325.632 151.794 323.011 152.205 320.389 152.58Z" fill="#FE4F32"/>
<path d="M270.924 163.133L304.474 163.059" stroke="#3E231E" stroke-linecap="round"/>
<path d="M289.496 132.105L288.299 162.384" stroke="#3E231E" stroke-linecap="round"/>
<path d="M266.619 135.586L268.266 144.83" stroke="#3E231E" stroke-linecap="round"/>
<path opacity="0.2" d="M316.792 134.84L310.055 154.713L318.439 152.989L320.388 152.578C321.174 145.054 321.737 141.726 321.737 141.726L316.792 134.84Z" fill="#2D1410"/>
<path opacity="0.2" d="M260.328 150.336C264.71 147.751 267.668 145.319 268.192 144.908C268.228 144.872 268.266 144.795 268.266 144.759L266.956 137.536C266.917 137.384 266.694 137.349 266.619 137.497L260.101 150.148C259.991 150.261 260.179 150.41 260.328 150.336Z" fill="#2D1410"/>
<path d="M239.543 126.156V133.269" stroke="#3E231E" stroke-linecap="round"/>
<path d="M199.779 108.714C199.779 108.08 199.591 107.443 199.18 106.806C199.18 106.806 201.128 107.142 201.95 105.421C202.963 103.325 201.164 101.382 201.164 101.382C201.164 101.382 203.598 101.828 204.349 99.8096C204.947 97.6357 203.112 95.8796 203.112 95.8796C203.112 95.8796 205.096 94.7572 203.598 91.6876C202.326 89.2163 197.721 87.9062 197.721 87.9062" stroke="#282625" stroke-linecap="round"/>
<path d="M190.684 102.391C193.415 104.225 196.412 105.722 199.483 106.919" stroke="#282625" stroke-linecap="round"/>
<path d="M190.941 97.0039C194.834 99.4363 196.669 100.148 201.161 101.384" stroke="#282625" stroke-linecap="round"/>
<path d="M192.811 91.6133C196.519 93.8191 198.914 95.0193 203.108 95.915" stroke="#282625" stroke-linecap="round"/>
<path d="M310.053 154.715C300.354 157.222 290.694 161.038 287.247 163.095C284.066 164.855 274.066 170.881 274.477 173.278C275.341 176.684 286.837 169.759 286.837 169.759C286.837 169.759 277.439 177.728 277.963 181.361C278.112 184.169 281.743 183.531 281.743 183.531C282.494 187.685 287.209 185.741 287.209 185.741C291.817 191.427 303.426 178.029 303.426 178.029C306.794 177.842 311.924 177.13 314.095 175.636L310.762 158.457L310.053 154.715Z" fill="#EAA58B"/>
<path d="M287.211 185.738L298.483 175.406" stroke="#282625" stroke-linecap="round"/>
<path d="M281.744 183.529L294.288 170.918" stroke="#282625" stroke-linecap="round"/>
<path d="M286.84 169.756L289.798 167.285" stroke="#282625" stroke-linecap="round"/>
<path d="M321.738 141.726L316.793 134.84" stroke="#3E231E" stroke-linecap="round"/>
<path d="M328.477 151.344L336.04 153.588" stroke="#3E231E" stroke-linecap="round"/>
<path d="M333.684 109.761C333.758 89.0665 316.344 87.6078 313.425 74.2068C311.516 63.9533 310.017 59.3506 306.911 56.3199C303.726 53.2112 299.794 51.4162 295.189 51.2285C283.694 50.7435 276.616 54.5956 273.47 60.8836C271.784 64.2543 271.15 69.0446 271.225 70.429L292.978 70.8397L294.402 76.717C294.402 76.717 303.428 71.5867 306.16 76.8268C310.017 84.4248 297.771 90.1888 297.771 90.1888L300.095 109.726L333.684 109.761Z" fill="#30242A"/>
<path d="M305.41 54.9724C303.274 53.2871 300.879 52.1294 298.219 51.5664" stroke="#191416" stroke-linecap="round" stroke-linejoin="round"/>
<path d="M310.055 154.711L328.514 151.305" stroke="#3E231E" stroke-linecap="round"/>
<path d="M169.342 50.1641L164.326 65.9196L178.513 54.7314L169.342 50.1641Z" fill="#61CCFF"/>
<path opacity="0.2" d="M169.342 50.1641L164.326 65.9196L178.513 54.7314L169.342 50.1641Z" fill="#010202"/>
<path d="M169.34 50.1657L184.59 68.042L204.604 23.0981C204.65 23.0131 204.558 22.9317 204.466 22.9954L169.34 50.1657Z" fill="#61CCFF"/>
<path d="M147.652 42.4917L169.342 50.1641L204.504 22.9832C204.525 22.9407 204.508 22.8734 204.44 22.8947L147.652 42.4917Z" fill="#61CCFF"/>
<path d="M169.34 50.1641L175.73 57.663" stroke="#010202" stroke-linecap="round" stroke-linejoin="round"/>
<path d="M204.466 22.9961L169.34 50.1663" stroke="#010202" stroke-linecap="round" stroke-linejoin="round"/>
</svg>
