<svg width="227" height="175" viewBox="0 0 227 175" fill="none" xmlns="http://www.w3.org/2000/svg">
<path d="M31.923 1.30859H215.243C221.143 1.30859 225.955 6.26778 225.955 12.4289V162.086C225.955 168.244 221.143 173.206 215.243 173.206H31.923C26.0231 173.206 21.2109 168.244 21.2109 162.086V12.4289C21.2109 6.26778 26.023 1.30859 31.923 1.30859Z" fill="#FFFEFC" stroke="#D2CFC1"/>
<path d="M31.923 1.30859H215.243C221.143 1.30859 225.955 6.26778 225.955 12.4289V21.2722H21.2109V12.4289C21.2109 6.26778 26.023 1.30859 31.923 1.30859Z" fill="#CECECE" stroke="#D2CFC1"/>
<path d="M39.5106 11.5494C39.5106 13.2916 38.152 14.673 36.5151 14.673C34.8781 14.673 33.5195 13.2916 33.5195 11.5494C33.5195 9.8098 34.8784 8.42578 36.5151 8.42578C38.1518 8.42578 39.5106 9.8098 39.5106 11.5494Z" fill="#FFFEFC" stroke="#D2CFC1"/>
<path d="M50.872 11.5494C50.872 13.2916 49.5134 14.673 47.8764 14.673C46.2395 14.673 44.8809 13.2916 44.8809 11.5494C44.8809 9.8098 46.2397 8.42578 47.8764 8.42578C49.5131 8.42578 50.872 9.8098 50.872 11.5494Z" fill="#FFFEFC" stroke="#D2CFC1"/>
<path d="M62.2313 11.5494C62.2313 13.2916 60.8727 14.673 59.2358 14.673C57.5988 14.673 56.2402 13.2916 56.2402 11.5494C56.2402 9.8098 57.5991 8.42578 59.2358 8.42578C60.8725 8.42578 62.2313 9.8098 62.2313 11.5494Z" fill="#FFFEFC" stroke="#D2CFC1"/>
<path d="M97.7637 11.4688H149.427" stroke="#D2CFC1" stroke-width="4" stroke-linecap="round" stroke-linejoin="round"/>
<path d="M22.9031 118.564C10.4838 118.354 0.254884 128.476 0 141.207C0 156.704 16.0829 174.546 22.4942 174.546C28.9083 174.546 44.9912 156.652 44.9912 141.207C44.7363 128.789 34.9639 118.77 22.9031 118.564ZM22.4942 148.406C18.6261 148.406 15.4723 145.172 15.4723 141.207C15.4723 137.242 18.6261 134.006 22.4942 134.006C26.3623 134.006 29.5189 137.242 29.5189 141.207C29.5189 145.172 26.3623 148.406 22.4942 148.406Z" fill="#1EB0D0"/>
</svg>
