<svg width="407" height="316" viewBox="0 0 407 316" fill="none" xmlns="http://www.w3.org/2000/svg">
<path d="M352.598 311.634C353.214 308.075 352.344 304.425 350.176 301.477L343.754 292.924C343.658 292.794 343.535 292.698 343.387 292.635C343.238 292.572 343.076 292.547 342.919 292.564L334.08 293.275C333.612 293.275 333.332 293.631 333.24 294.079L332.869 296.662C332.654 298.174 331.911 299.568 330.766 300.623C329.612 301.67 328.125 302.319 326.538 302.457C322.634 302.813 317.882 303.349 316.676 303.884C312.396 305.844 311.465 310.922 311.465 313.865H350.084C350.692 313.786 351.26 313.531 351.706 313.129C352.156 312.731 352.467 312.208 352.598 311.634Z" fill="#F2B140"/>
<path d="M262.699 177.773L318.63 284.45C319.43 286.007 320.781 287.238 322.442 287.925L324.213 288.641C325.974 289.348 327.382 290.692 328.121 292.379L330.259 296.75C330.438 297.089 330.718 297.366 331.072 297.546C331.422 297.722 331.824 297.784 332.213 297.73L345.616 295.323C346.071 295.235 346.469 294.984 346.727 294.615C346.993 294.247 347.094 293.799 347.011 293.363L345.896 287.301C345.695 286.267 345.721 285.203 345.988 284.186L347.571 277.856C347.977 276.248 347.811 274.553 347.103 273.041L293.563 153.231C293.121 152.251 292.444 151.393 291.578 150.723C290.708 150.057 289.685 149.605 288.592 149.409C287.499 149.208 286.372 149.27 285.309 149.584C284.247 149.898 283.281 150.464 282.498 151.221L264.185 168.952C263.023 170.099 262.262 171.56 261.991 173.139C261.724 174.717 261.973 176.333 262.699 177.773Z" fill="#3F3853"/>
<path d="M279.543 176.258L339.382 295.595" stroke="#04051F" stroke-width="2" stroke-linecap="round" stroke-linejoin="round"/>
<path d="M306.621 14.9488L303.46 22.7904L274.891 11.4696C274.358 11.2519 273.881 10.9379 273.479 10.536C273.081 10.1424 272.766 9.67354 272.557 9.15858C272.351 8.63943 272.251 8.09097 272.272 7.54252C272.286 6.98987 272.421 6.44561 272.662 5.94739L273.588 3.98384C273.816 3.47725 274.144 3.01672 274.563 2.63573C274.974 2.25055 275.464 1.95331 276.001 1.75235C276.539 1.55139 277.112 1.45927 277.685 1.47183C278.266 1.49277 278.83 1.61419 279.359 1.84445L284.915 4.51973L287.206 6.27395L289.729 6.83078L306.621 14.9488Z" fill="#2F2514"/>
<path d="M221.658 260.744L227.052 276.432C227.302 277.152 227.363 277.914 227.24 278.659C227.061 279.819 226.462 280.878 225.536 281.648C224.613 282.415 223.433 282.842 222.213 282.846H183.594L183.777 280.799C183.974 278.362 185.015 276.051 186.733 274.246C188.455 272.438 190.755 271.228 193.273 270.818L199.97 269.75C200.683 269.633 201.369 269.423 202.02 269.122L203.878 268.142C204.831 267.665 205.653 266.97 206.248 266.108C206.851 265.253 207.223 264.27 207.323 263.24L207.787 258.965L213.308 256.746L221.658 260.744Z" fill="#F2B140"/>
<path d="M284.476 86.1537L256.087 98.63C254.08 99.5218 251.881 99.953 249.669 99.8902C247.457 99.8274 245.289 99.2748 243.339 98.2741C240.021 96.6037 237.511 93.7693 236.331 90.3613C235.151 86.9576 235.395 83.2398 237.009 80.0035C244.454 58.6137 255.343 38.2958 267.628 18.5975L275.068 17.5215L284.284 21.4528L262.325 70.6504C271.816 65.5678 282.146 61.8249 292.66 57.9899C296.105 56.7423 302.71 55.1388 304.201 55.6747L306.658 58.0527C309.438 62.2854 303.917 65.7478 300.38 69.4865L284.476 86.1537Z" fill="#D02900"/>
<path d="M318.342 10.5766C309.966 8.61725 305.41 14.9475 300.571 25.7282C296.387 35.1775 293.498 43.1071 308.108 44.7106L304.575 54.5158L318.438 60.7498L327.011 36.8438C327.011 36.8438 328.488 33.034 328.676 32.4101C331.369 22.3412 326.718 12.5402 318.342 10.5766Z" fill="#FBC3A5"/>
<path d="M292.476 130.359L291.829 157.276C291.694 163.409 289.057 169.254 284.48 173.549C279.908 177.845 273.757 180.26 267.348 180.273H223.334C222.438 180.277 221.55 180.466 220.741 180.826C219.933 181.186 219.211 181.713 218.626 182.358C218.044 183.011 217.611 183.773 217.367 184.598C217.117 185.423 217.056 186.285 217.192 187.131L226.871 250.052C227.019 250.957 226.954 251.882 226.678 252.765C226.407 253.64 225.931 254.453 225.288 255.131C224.234 256.311 223.662 257.814 223.67 259.364C223.67 259.585 223.679 259.811 223.705 260.033C223.71 260.092 223.714 260.146 223.714 260.209C223.723 260.465 223.679 260.716 223.587 260.954C223.491 261.189 223.351 261.407 223.168 261.595C222.984 261.775 222.766 261.922 222.521 262.022C222.28 262.123 222.014 262.173 221.751 262.173H207.141C206.743 262.173 206.359 262.064 206.026 261.855C205.694 261.649 205.436 261.361 205.279 261.013L204.348 258.966C203.871 257.844 203.062 256.881 202.022 256.203L201.742 256.023C200.404 255.101 199.478 253.737 199.137 252.192L182.109 180.273C180.719 174.78 181.641 168.986 184.671 164.137C187.696 159.289 192.588 155.768 198.297 154.336L292.476 130.359Z" fill="#443B60"/>
<path d="M263.906 133.121C265.301 132.677 274.512 94.8881 278.888 80.0002C280.099 75.9936 281.402 66.1926 286.796 62.8935L303.177 52.8203L319.558 60.3982L325.236 71.8069L291.824 147.469L263.906 133.121Z" fill="#FF4011"/>
<path d="M308.861 13.2488C305.6 12.7171 304.856 15.9283 302.902 20.8309C305.971 27.3328 319.563 28.4046 319.563 28.4046L320.118 30.7198C320.691 30.5356 321.285 30.4477 321.889 30.4519C324.398 30.4519 324.586 31.7916 324.586 32.9471C324.59 33.8305 324.319 34.693 323.803 35.4257C323.292 36.1583 322.557 36.7235 321.701 37.0459L323.843 45.6035C323.843 45.6035 331.659 39.7212 331.659 31.5195C331.659 18.5115 315.003 14.2327 308.861 13.2488Z" fill="#ED734F"/>
<path d="M320.214 63.1574C319.689 63.1658 319.178 63.0486 318.723 62.8057L302.622 55.4958C302.22 55.3074 301.853 55.052 301.551 54.7296C301.25 54.4072 301.014 54.0304 300.865 53.6243C300.721 53.2224 300.655 52.787 300.681 52.3558C300.703 51.9287 300.821 51.5059 301.014 51.1165C301.215 50.7313 301.486 50.3797 301.827 50.095C302.163 49.8103 302.557 49.5926 302.981 49.4502C303.409 49.3121 303.855 49.2534 304.31 49.2828C304.76 49.3079 305.197 49.4209 305.6 49.6135L321.7 56.9234C322.107 57.1077 322.465 57.3714 322.763 57.6896C323.064 58.0078 323.292 58.3846 323.44 58.7865C323.589 59.1968 323.646 59.628 323.624 60.0551C323.598 60.4821 323.48 60.9008 323.283 61.2901C322.99 61.8344 322.557 62.2949 322.015 62.6215C321.473 62.9564 320.852 63.1365 320.214 63.1574Z" fill="#BC2500"/>
<path d="M290.396 164.709C288.687 169.26 285.561 173.196 281.439 175.98C277.316 178.764 272.394 180.259 267.349 180.271H259.594C261.434 170.068 270.134 162.373 280.709 162.373C284.088 162.381 287.415 163.181 290.396 164.709Z" fill="#352E48"/>
<path d="M214.03 261.905L202.86 181.248C202.463 178.477 203.232 175.659 204.989 173.424C206.756 171.184 209.365 169.71 212.259 169.304L259.718 161.73C268.982 160.261 277.646 156.375 284.755 150.501L292.104 144.443" stroke="#04051F" stroke-width="2" stroke-linecap="round" stroke-linejoin="round"/>
<path d="M308.406 44.6933L316.879 44.0234" stroke="#04051F" stroke-width="2" stroke-linecap="round" stroke-linejoin="round"/>
<path d="M262.509 71.0039L252.184 79.5615" stroke="#04051F" stroke-width="2" stroke-linecap="round" stroke-linejoin="round"/>
<path d="M271.999 35.707L259.715 46.1361" stroke="#04051F" stroke-width="2" stroke-linecap="round" stroke-linejoin="round"/>
<path d="M255.898 88.6504L261.109 90.4339" stroke="#04051F" stroke-width="2" stroke-linecap="round" stroke-linejoin="round"/>
<path d="M323 71.8965L324.395 80.9858" stroke="#04051F" stroke-width="2" stroke-linecap="round" stroke-linejoin="round"/>
<path d="M289.723 6.83057C288.827 9.63565 287.459 12.29 285.679 14.6764L280.656 12.985C282.584 10.4227 284.022 7.55906 284.91 4.51953L289.723 6.83057Z" fill="#E49E25"/>
<path d="M302.993 26.8882L301.97 28.7597C300.947 30.4511 298.997 31.2549 297.226 30.6269L279.307 23.9701L277.279 22.421L273.541 21.8265L267.726 19.6662C265.305 18.5986 264.378 15.4795 265.681 12.8963L266.328 11.4687C267.635 8.7934 270.704 7.54996 273.125 8.70548L278.367 11.0668L280.793 12.8377L283.954 13.5871L301.603 21.5376C303.557 22.4336 304.208 24.8368 302.993 26.8882Z" fill="#2F2514"/>
<path d="M285.955 3.9839C302.987 18.6875 325.882 31.3438 350.542 40.4331C350.818 40.5294 351.124 40.5336 351.403 40.4373C351.683 40.3494 351.919 40.1735 352.081 39.9391C352.243 39.7005 352.317 39.4199 352.291 39.1352C352.269 38.8547 352.142 38.591 351.937 38.3858L333.418 20.8311C333.244 20.6762 333.125 20.471 333.073 20.245C333.021 20.0231 333.047 19.7886 333.143 19.5793L336.304 10.4021C336.387 10.1383 336.378 9.85362 336.277 9.59823C336.173 9.33866 335.989 9.12514 335.748 8.97442L319.556 0.153087C319.28 0.0191128 318.97 -0.0311304 318.668 0.0191098C318.371 0.0693499 318.091 0.203329 317.877 0.416849L310.808 8.61855C310.629 8.79858 310.41 8.92836 310.161 8.99116C309.912 9.05396 309.654 9.04978 309.409 8.97442L287.079 1.93243C285.863 1.48445 284.84 3.09213 285.955 3.9839Z" fill="#9A8CC1"/>
<path d="M310.551 9.21094L332.65 20.2554" stroke="#04051F" stroke-width="2" stroke-linecap="round" stroke-linejoin="round"/>
<path d="M322.074 23.9453L328.216 28.4921" stroke="#04051F" stroke-width="2" stroke-linecap="round" stroke-linejoin="round"/>
<path d="M321.693 33.0352L317.602 34.5507" stroke="#04051F" stroke-width="2" stroke-linecap="round" stroke-linejoin="round"/>
<path d="M320.298 64.8551C320.005 64.8509 319.726 64.7839 319.468 64.6583C319.21 64.5369 318.982 64.3569 318.808 64.1392C316.762 61.4681 313.129 60.2205 307.826 60.2205C303.542 60.2205 299.17 61.0243 294.986 61.7402C290.706 62.5399 286.239 63.2516 281.863 63.2516C269.766 63.2516 264.184 56.2096 264.184 51.487C264.184 46.8524 266.789 41.5939 269.858 35.5316C272.096 30.9891 274.418 26.2665 275.908 21.4518C275.978 21.2257 276.088 21.0122 276.241 20.828C276.394 20.6396 276.582 20.4847 276.8 20.3675C277.019 20.2502 277.255 20.1791 277.5 20.1498C277.744 20.1205 277.994 20.1414 278.234 20.2042C278.47 20.267 278.693 20.38 278.89 20.5266C279.082 20.6731 279.244 20.8531 279.371 21.0625C279.489 21.2634 279.563 21.4937 279.598 21.7323C279.624 21.9668 279.607 22.2054 279.537 22.4315C277.954 27.602 275.445 32.6847 273.211 37.1393C270.509 42.6657 267.904 47.8321 267.904 51.575C267.904 54.3424 272.096 59.7725 281.863 59.7725C285.863 59.7725 289.959 59.0607 294.239 58.2569C298.615 57.4614 303.174 56.6576 307.83 56.6576C314.436 56.6576 319 58.4411 321.789 62.0919C321.942 62.2803 322.051 62.4896 322.117 62.7157C322.182 62.9418 322.2 63.1846 322.165 63.4191C322.13 63.6493 322.047 63.8754 321.92 64.0764C321.789 64.2773 321.618 64.449 321.417 64.5872C321.072 64.763 320.687 64.8551 320.298 64.8551Z" fill="#F2B140"/>
<path d="M283.948 13.5887C282.842 17.4865 281.291 21.0954 279.301 23.9717L273.535 21.8281C275.655 18.4704 277.277 14.8489 278.361 11.0684L283.948 13.5887Z" fill="#FBB337"/>
<path d="M312.113 310.922H351.2" stroke="#04051F" stroke-width="2" stroke-linecap="round" stroke-linejoin="round"/>
<path d="M185.09 279.281H222.778" stroke="#04051F" stroke-width="2" stroke-linecap="round" stroke-linejoin="round"/>
<path d="M347.482 301.562L339.172 310.92" stroke="#04051F" stroke-width="2" stroke-linecap="round" stroke-linejoin="round"/>
<path d="M210.312 279.284L222.776 269.479" stroke="#04051F" stroke-width="2" stroke-linecap="round" stroke-linejoin="round"/>
<path d="M359.014 48.0094C356.159 46.7785 353.073 46.1212 349.943 46.0667C346.808 46.0081 343.7 46.5566 340.797 47.6828C337.895 48.8048 335.259 50.4795 333.051 52.6064C330.839 54.729 329.099 57.2577 327.932 60.0419L288.289 152.995C287.472 154.937 287.463 157.11 288.281 159.057C289.094 160.995 290.668 162.565 292.661 163.419L318.904 174.74C319.936 175.18 321.046 175.414 322.178 175.431C323.302 175.456 324.421 175.259 325.475 174.866C326.52 174.468 327.477 173.873 328.281 173.116C329.086 172.362 329.728 171.458 330.166 170.466L371.019 77.0649C373.393 71.6767 373.467 65.6185 371.224 60.1842C368.977 54.7499 364.597 50.3748 359.014 48.0094ZM359.106 88.2015L328.211 72.6103L331.84 64.6723L365.065 78.8443L359.106 88.2015Z" fill="#DBAB56"/>
<path d="M349.802 85.8878C360.08 85.8878 368.412 77.908 368.412 68.061C368.412 58.2181 360.08 50.2383 349.802 50.2383C339.524 50.2383 331.188 58.2181 331.188 68.061C331.188 77.908 339.524 85.8878 349.802 85.8878Z" fill="#224942"/>
<path d="M326.72 72.2532C324.303 64.1395 316.39 60.1328 308.482 60.1328C303.179 60.1328 297.78 61.9163 293.964 65.5671C293.317 66.1951 293.872 67.3506 294.803 67.0827C297.588 66.3082 300.464 65.8853 303.363 65.8351C313.418 65.8351 316.39 70.9177 316.39 79.6511C316.39 84.2858 315.367 88.7404 313.977 93.195C318.537 86.421 325.514 80.2749 326.72 72.2532Z" fill="#BC2500"/>
<path d="M304.294 138.473L301.146 133.391L283.262 144.263L291.918 147.47L304.294 138.473Z" fill="#BC2500"/>
<path d="M349.802 80.0982C356.74 80.0982 362.367 74.7058 362.367 68.0615C362.367 61.4173 356.74 56.0332 349.802 56.0332C342.86 56.0332 337.238 61.4173 337.238 68.0615C337.238 74.7058 342.86 80.0982 349.802 80.0982Z" stroke="#04051F" stroke-width="2" stroke-linecap="round" stroke-linejoin="round"/>
<path d="M349.8 75.0111C353.809 75.0111 357.057 71.9004 357.057 68.0612C357.057 64.222 353.809 61.1113 349.8 61.1113C345.787 61.1113 342.539 64.222 342.539 68.0612C342.539 71.9004 345.787 75.0111 349.8 75.0111Z" stroke="#04051F" stroke-width="2" stroke-linecap="round" stroke-linejoin="round"/>
<path d="M363.483 91.5016C363.864 91.6524 364.205 91.8743 364.489 92.1548C364.777 92.4353 365.005 92.7744 365.153 93.1345C365.298 93.5029 365.368 93.8922 365.35 94.29C365.337 94.6835 365.241 95.0687 365.066 95.4246L360.598 104.602C360.266 105.28 359.68 105.816 358.954 106.096C358.229 106.377 357.42 106.385 356.69 106.117C356.314 105.967 355.964 105.745 355.68 105.464C355.396 105.184 355.168 104.849 355.02 104.485C354.871 104.116 354.806 103.727 354.823 103.329C354.836 102.935 354.932 102.55 355.107 102.194L359.575 93.0172C359.728 92.6697 359.951 92.3557 360.226 92.0962C360.506 91.8324 360.838 91.6231 361.201 91.4807C361.564 91.3425 361.949 91.2714 362.342 91.2756C362.736 91.2798 363.121 91.3551 363.483 91.5016Z" fill="black"/>
<path d="M314.159 131.338L320.764 116.366C321.027 115.755 321.42 115.203 321.914 114.742C322.412 114.277 323.003 113.926 323.654 113.695L329.14 111.552C330.373 111.1 331.37 110.204 331.934 109.056L333.141 106.649C333.425 106.063 333.836 105.531 334.334 105.087C334.832 104.644 335.423 104.3 336.065 104.078C336.703 103.852 337.385 103.756 338.063 103.781C338.745 103.815 339.41 103.97 340.026 104.246C341.285 104.79 342.269 105.791 342.758 107.026C343.243 108.265 343.2 109.634 342.631 110.84L341.517 113.159C341.132 113.963 340.97 114.855 341.053 115.743L341.7 121.893C341.801 122.617 341.709 123.354 341.425 124.032L336.306 138.2C336.056 138.887 335.659 139.519 335.13 140.042C334.601 140.565 333.958 140.971 333.25 141.231C332.542 141.495 331.785 141.604 331.025 141.562C330.268 141.516 329.53 141.315 328.865 140.963C328.865 140.963 312.157 134.277 314.159 131.338Z" fill="#F2B140"/>
<path d="M334.631 99.3451L333.604 102.104C333.28 103.004 333.324 103.988 333.74 104.855C334.159 105.717 334.911 106.395 335.838 106.739L341.888 108.966C342.789 109.314 343.799 109.314 344.704 108.962C345.604 108.614 346.326 107.949 346.728 107.095L347.843 104.779C348.236 103.9 348.267 102.912 347.917 102.016C347.571 101.12 346.876 100.383 345.985 99.9648L339.934 97.2895C339.449 97.0801 338.92 96.9629 338.382 96.9504C337.849 96.9378 337.316 97.0299 336.822 97.2225C336.323 97.4151 335.869 97.6998 335.497 98.0682C335.121 98.4324 334.824 98.8637 334.631 99.3451Z" fill="#9A8CC1"/>
<path d="M344.404 137.938L301.597 121.715L288.289 152.998C287.472 154.94 287.463 157.113 288.281 159.06C289.094 160.998 290.668 162.568 292.661 163.423L318.904 174.743C319.936 175.183 321.046 175.417 322.178 175.434C323.302 175.459 324.421 175.262 325.475 174.869C326.52 174.471 327.477 173.877 328.281 173.119C329.086 172.365 329.728 171.461 330.166 170.469L344.404 137.938Z" fill="#9D7C43"/>
<path d="M327.185 118.506L324.859 125.28" stroke="#FFC86B" stroke-width="2" stroke-linecap="round" stroke-linejoin="round"/>
<path d="M174.1 162.622L187.084 148.479C187.163 148.4 187.263 148.345 187.377 148.32C187.49 148.299 187.609 148.312 187.709 148.362C187.814 148.408 187.901 148.492 187.95 148.588C188.002 148.684 188.019 148.798 187.998 148.906L186.476 156.832L175.871 164.054C175.613 164.234 175.294 164.322 174.966 164.309C174.647 164.292 174.345 164.167 174.1 163.966C173.921 163.782 173.82 163.543 173.82 163.296C173.82 163.041 173.921 162.802 174.1 162.622Z" fill="#D69776"/>
<path d="M173.734 165.474L186.035 149.317C186.258 149.02 186.564 148.79 186.914 148.652C187.26 148.513 187.649 148.472 188.025 148.534C189.507 148.777 191.81 149.292 192.125 150.155C193.052 152.679 186.202 159.231 186.202 159.231L175.688 167.165C175.417 167.37 175.08 167.475 174.739 167.458C174.394 167.441 174.07 167.307 173.825 167.077C173.633 166.855 173.515 166.579 173.497 166.286C173.484 166.001 173.563 165.712 173.734 165.474Z" fill="#E5AA8B"/>
<path d="M206.677 142.48L191.599 145.78C190.445 146.035 189.338 146.491 188.342 147.115C186.576 148.254 185.286 149.962 184.713 151.926L180.342 167.081C180.28 167.274 180.263 167.487 180.289 167.693C180.32 167.902 180.394 168.095 180.508 168.275C180.621 168.45 180.774 168.601 180.954 168.723C181.133 168.836 181.334 168.915 181.553 168.953C181.841 168.999 182.134 168.978 182.414 168.882C182.689 168.785 182.943 168.626 183.131 168.413L191.415 157.808C196.626 157.808 202.585 155.313 208.351 153.617L206.677 142.48Z" fill="#FBC3A5"/>
<path d="M316.859 83.8355L295.534 133.937L295.084 134.993C293.598 138.472 291.224 141.545 288.19 143.923C285.147 146.309 281.536 147.925 277.68 148.629L272.111 149.679L226.593 158.254C225.675 158.425 224.726 158.413 223.813 158.212C222.899 158.015 222.042 157.634 221.29 157.098L219.24 155.578C218.558 155.072 217.784 154.703 216.953 154.486C216.119 154.272 215.253 154.218 214.405 154.335L207.423 155.139C206.833 155.206 206.234 155.038 205.766 154.691C205.294 154.339 204.988 153.828 204.91 153.263L203.887 143.638C203.843 143.127 203.987 142.616 204.289 142.194C204.595 141.775 205.045 141.465 205.565 141.323L211.799 139.983C212.932 139.723 213.976 139.183 214.824 138.417C215.673 137.655 216.298 136.684 216.634 135.616C216.949 134.528 217.566 133.54 218.427 132.761C219.27 131.995 220.328 131.472 221.474 131.25L261.955 122.16C264.404 121.624 266.69 120.544 268.631 119.012C270.568 117.48 272.106 115.537 273.125 113.335L291.364 73.5865C292.797 70.3711 295.499 67.8298 298.883 66.5194C302.271 65.2006 306.057 65.2299 309.427 66.5822C312.794 67.9345 315.469 70.5093 316.855 73.7372C318.249 76.9735 318.249 80.6034 316.859 83.8355Z" fill="#FE4619"/>
<path d="M265.297 121.292L283.094 117.289" stroke="#04051F" stroke-width="2" stroke-linecap="round" stroke-linejoin="round"/>
<path d="M296.568 101.482L286.613 108.792" stroke="#04051F" stroke-width="2" stroke-linecap="round" stroke-linejoin="round"/>
<path d="M250.219 144.708L257.292 142.48" stroke="#04051F" stroke-width="2" stroke-linecap="round" stroke-linejoin="round"/>
<path d="M303.177 72.7871L297.035 79.2011" stroke="#04051F" stroke-width="2" stroke-linecap="round" stroke-linejoin="round"/>
<path d="M214.398 139.268L216.724 154.243" stroke="#04051F" stroke-width="2" stroke-linecap="round" stroke-linejoin="round"/>
<path d="M236.083 136.152L225.656 144.262" stroke="#04051F" stroke-width="2" stroke-linecap="round" stroke-linejoin="round"/>
<path d="M275.262 132.498L283.262 134.277" stroke="#04051F" stroke-width="2" stroke-linecap="round" stroke-linejoin="round"/>
<path d="M196.401 153.814L191.566 157.649" stroke="#04051F" stroke-width="2" stroke-linecap="round" stroke-linejoin="round"/>
<path d="M295.533 133.939L295.082 134.994C293.592 138.473 291.222 141.546 288.188 143.924C285.146 146.31 281.535 147.922 277.679 148.63L272.109 149.681C272.455 140.114 279.838 132.23 288.848 132.23C291.004 132.23 293.5 133.013 295.533 133.939Z" fill="#F2B140"/>
<path d="M69.7088 313.762C69.703 313.762 69.6945 313.762 69.6887 313.758C69.6802 313.758 69.6745 313.755 69.6716 313.751C69.6659 313.744 69.6659 313.739 69.6602 313.733C69.6602 313.728 69.6602 313.721 69.6602 313.717C72.5596 304.1 78.7844 290.576 91.9489 281.215C95.1285 278.948 98.6398 277.003 102.414 275.418C110.704 271.947 119.765 272.274 131.474 264.181C132.229 263.656 132.967 263.138 133.687 262.625C151.046 250.22 157.817 240.691 180.649 237.619C180.887 237.589 181.13 237.558 181.373 237.528C196.565 235.681 210.058 240.26 223.488 246.214C236.819 252.12 250.292 259.49 260.883 263.113C262.582 263.697 264.2 264.192 265.741 264.614C267.171 265.006 268.535 265.337 269.844 265.61C285.053 268.814 294.915 264.771 306.699 269.175C319.5 273.956 321.865 285.269 331.773 289.949C333.523 290.774 335.433 291.356 337.42 291.67C338.318 291.814 339.227 291.914 340.136 291.971C341.486 292.051 342.893 292.103 344.342 292.131C357.773 292.398 375.146 290.735 387.219 293.903C390.155 294.621 392.88 295.791 395.239 297.353C397.158 298.662 398.682 300.288 399.717 302.119C401.85 305.804 403.32 309.708 404.069 313.721C404.069 313.723 404.069 313.733 404.069 313.735C404.063 313.739 404.063 313.746 404.057 313.751C404.055 313.755 404.049 313.758 404.04 313.758C404.035 313.762 404.029 313.762 404.02 313.762H69.7088Z" fill="#66AB9A"/>
<path d="M91.9453 281.215L132.157 313.762" stroke="#04051F" stroke-width="2" stroke-linecap="round" stroke-linejoin="round"/>
<path d="M133.684 262.627L136.895 268.49L154.16 299.974L156.581 304.392L161.72 313.764" stroke="#04051F" stroke-width="2" stroke-linecap="round" stroke-linejoin="round"/>
<path d="M181.371 237.529L182.415 251.296L182.907 257.74L184.499 278.715L187.161 313.764" stroke="#04051F" stroke-width="2" stroke-linecap="round" stroke-linejoin="round"/>
<path d="M223.488 246.215L220.328 262.305L210.215 313.763" stroke="#04051F" stroke-width="2" stroke-linecap="round" stroke-linejoin="round"/>
<path d="M233.73 313.762L243.93 298.102L256.451 278.879L265.741 264.613" stroke="#04051F" stroke-width="2" stroke-linecap="round" stroke-linejoin="round"/>
<path d="M258.289 313.763L258.584 313.494L267.945 304.872L275.208 298.184L306.698 269.176" stroke="#04051F" stroke-width="2" stroke-linecap="round" stroke-linejoin="round"/>
<path d="M292.695 313.762L294.774 312.736L316.259 302.123L337.422 291.67" stroke="#04051F" stroke-width="2" stroke-linecap="round" stroke-linejoin="round"/>
<path d="M328.035 313.763L349.512 306.557L358.793 303.444L373.273 298.583L385.737 294.4" stroke="#04051F" stroke-width="2" stroke-linecap="round" stroke-linejoin="round"/>
<path d="M386.608 257.632C386.617 257.628 386.63 257.62 386.634 257.611C386.639 257.595 386.634 257.582 386.63 257.574L385.463 255.476C385.458 255.472 385.454 255.468 385.45 255.464C385.445 255.464 385.441 255.459 385.437 255.459C385.428 255.455 385.419 255.455 385.415 255.455C385.41 255.455 385.402 255.459 385.397 255.459C379.491 258.491 372.413 264.712 368.361 268.513C368.352 268.522 368.343 268.526 368.335 268.526C368.326 268.526 368.317 268.526 368.308 268.522C368.295 268.522 368.291 268.513 368.287 268.509C368.278 268.501 368.278 268.493 368.278 268.48V222.812C368.278 222.799 368.273 222.791 368.265 222.782C368.252 222.77 368.243 222.766 368.23 222.766H363.823C363.81 222.766 363.801 222.77 363.793 222.782C363.779 222.791 363.775 222.799 363.775 222.812V279.654C363.775 279.663 363.771 279.671 363.766 279.679C363.762 279.692 363.753 279.696 363.749 279.7C363.736 279.7 363.727 279.704 363.718 279.7C363.709 279.7 363.701 279.696 363.692 279.688L350.559 266.483C350.555 266.479 350.551 266.475 350.546 266.475C350.538 266.47 350.529 266.47 350.525 266.47C350.516 266.47 350.511 266.47 350.507 266.475C350.503 266.475 350.498 266.479 350.494 266.483L348.697 268.12C348.688 268.124 348.684 268.128 348.684 268.137C348.68 268.141 348.68 268.149 348.68 268.153C348.68 268.162 348.684 268.174 348.697 268.187L363.762 283.33C363.771 283.338 363.775 283.355 363.775 283.364V313.667C363.775 313.679 363.779 313.692 363.793 313.7C363.801 313.709 363.81 313.713 363.823 313.713H368.23C368.243 313.713 368.252 313.709 368.265 313.7C368.273 313.692 368.278 313.679 368.278 313.667V272.097C368.278 272.089 368.282 272.076 368.291 272.068C371.517 268.94 380.003 261.028 386.608 257.632Z" fill="#101010"/>
<path d="M333.207 251.262C332.582 251.84 333.063 253.561 333.072 254.473C333.115 257.764 333.295 261.335 333.854 263.818C334.615 267.176 338.16 273.435 343.634 274.996C349.111 276.562 353.081 274.13 354.012 273.242C354.112 273.15 354.676 272.644 354.781 272.556C355.756 271.723 358.55 268.08 357.269 262.746C355.992 257.412 349.697 253.623 346.248 252.686C343.699 251.991 339.988 251.589 336.565 251.342C335.607 251.271 333.85 250.697 333.207 251.262Z" fill="#224942"/>
<path d="M406.504 248.273C406.154 247.511 404.563 247.251 403.776 246.904C400.935 245.652 397.831 244.404 395.571 243.91C392.51 243.244 386.316 243.826 383.71 247.9C382.823 249.323 382.281 250.923 382.128 252.577C381.975 254.23 382.206 255.897 382.814 257.45C382.871 257.575 383.177 258.254 383.229 258.375C383.986 259.87 385.083 261.184 386.443 262.214C387.798 263.253 389.38 263.977 391.072 264.345C395.947 265.342 400.664 261.448 402.264 258.865C403.448 256.956 404.651 253.946 405.66 251.107C405.94 250.32 406.841 249.047 406.504 248.273Z" fill="#224942"/>
<path d="M392.861 283.398C393.368 282.925 392.948 281.518 392.927 280.769C392.848 278.081 392.656 275.167 392.166 273.137C391.506 270.39 388.524 265.27 384.035 263.968C379.554 262.67 376.34 264.638 375.597 265.358C375.514 265.429 375.068 265.843 374.981 265.915C374.198 266.593 371.964 269.553 373.079 273.915C374.194 278.274 379.374 281.393 382.203 282.176C384.293 282.753 387.322 283.097 390.124 283.319C390.902 283.377 392.345 283.854 392.861 283.398Z" fill="#224942"/>
<path d="M338.948 293.294C339.333 293.864 340.85 293.734 341.624 293.86C344.395 294.299 347.421 294.668 349.593 294.601C352.536 294.5 358.354 292.679 360.544 288.71C362.735 284.741 361.323 281.346 360.732 280.508C360.671 280.416 360.335 279.918 360.278 279.822C359.731 278.955 357.126 276.297 352.444 276.506C347.757 276.724 343.569 280.998 342.227 283.506C341.239 285.361 340.308 288.145 339.547 290.736C339.337 291.461 338.577 292.721 338.948 293.294Z" fill="#224942"/>
<path d="M364.137 212.701C366.563 212.031 367 206.434 365.125 200.196C363.249 193.962 359.756 189.453 357.33 190.123C354.904 190.792 354.467 196.39 356.346 202.624C358.217 208.862 361.71 213.371 364.137 212.701Z" fill="#FECC76"/>
<path d="M375.965 202.3C377.622 196.007 376.98 190.43 374.532 189.836C372.083 189.246 368.761 193.872 367.104 200.164C365.452 206.457 366.094 212.038 368.542 212.628C370.986 213.219 374.313 208.596 375.965 202.3Z" fill="#F2B140"/>
<path d="M383.288 210.279C387.507 206.147 389.456 201.437 387.655 199.741C385.85 198.054 380.971 200.03 376.752 204.158C372.538 208.286 370.584 213.005 372.385 214.692C374.195 216.383 379.074 214.407 383.288 210.279Z" fill="#FECC76"/>
<path d="M387.673 219.43C394.205 217.705 398.961 214.414 398.288 212.087C397.615 209.755 391.778 209.265 385.247 210.99C378.712 212.71 373.964 216.001 374.628 218.333C375.302 220.665 381.138 221.155 387.673 219.43Z" fill="#F2B140"/>
<path d="M398.389 228.573C399.036 226.236 394.249 222.996 387.696 221.334C381.138 219.672 375.306 220.22 374.659 222.561C374.017 224.897 378.804 228.137 385.357 229.799C391.906 231.461 397.746 230.913 398.389 228.573Z" fill="#FECC76"/>
<path d="M386.611 239.802C388.399 238.089 386.676 233.668 382.768 229.917C378.855 226.166 374.239 224.508 372.451 226.22C370.667 227.924 372.385 232.349 376.298 236.101C380.211 239.852 384.831 241.51 386.611 239.802Z" fill="#F2B140"/>
<path d="M374.864 251.053C377.308 250.437 377.889 244.848 376.163 238.572C374.44 232.3 371.07 227.703 368.626 228.319C366.186 228.934 365.605 234.524 367.323 240.804C369.05 247.075 372.425 251.668 374.864 251.053Z" fill="#FECC76"/>
<path d="M365.842 239.059C367.372 233.759 366.65 228.932 364.215 228.291C361.78 227.642 358.567 231.419 357.033 236.723C355.494 242.024 356.224 246.851 358.659 247.491C361.094 248.14 364.312 244.364 365.842 239.059Z" fill="#F2B140"/>
<path d="M354.825 237.482C359.673 232.952 362.182 227.878 360.416 226.149C358.659 224.42 353.299 226.685 348.442 231.219C343.594 235.749 341.085 240.823 342.851 242.552C344.608 244.281 349.968 242.016 354.825 237.482Z" fill="#FECC76"/>
<path d="M347.563 229.53C354.089 227.965 358.885 224.791 358.273 222.447C357.657 220.106 351.864 219.474 345.342 221.04C338.811 222.606 334.015 225.779 334.627 228.124C335.239 230.464 341.031 231.096 347.563 229.53Z" fill="#F2B140"/>
<path d="M358.344 218.226C359.053 215.906 354.34 212.561 347.835 210.753C341.326 208.944 335.481 209.358 334.777 211.682C334.073 214.006 338.777 217.351 345.291 219.159C351.796 220.968 357.641 220.549 358.344 218.226Z" fill="#FECC76"/>
<path d="M360.385 214.853C362.068 213.317 359.712 208.326 355.117 203.704C350.523 199.082 345.434 196.582 343.747 198.119C342.064 199.66 344.42 204.65 349.014 209.272C353.605 213.89 358.698 216.394 360.385 214.853Z" fill="#F2B140"/>
<path d="M366.482 232.408C373.354 232.408 378.928 227.07 378.928 220.488C378.928 213.902 373.354 208.564 366.482 208.564C359.609 208.564 354.031 213.902 354.031 220.488C354.031 227.07 359.609 232.408 366.482 232.408Z" fill="#FF4011"/>
<path d="M366.475 226.447C369.907 226.447 372.696 223.776 372.696 220.485C372.696 217.195 369.907 214.523 366.475 214.523C363.039 214.523 360.254 217.195 360.254 220.485C360.254 223.776 363.039 226.447 366.475 226.447Z" fill="#6E382B"/>
<path d="M383.227 258.378C388.486 252.751 394.431 249.507 401.321 249.524" stroke="#04051F" stroke-width="2" stroke-linecap="round" stroke-linejoin="round"/>
<path d="M336.211 254.094L354.782 272.557" stroke="#04051F" stroke-width="2" stroke-linecap="round" stroke-linejoin="round"/>
<path d="M344.559 290.672L360.275 279.82" stroke="#04051F" stroke-width="2" stroke-linecap="round" stroke-linejoin="round"/>
<path d="M374.98 265.912L390.343 280.055" stroke="#04051F" stroke-width="2" stroke-linecap="round" stroke-linejoin="round"/>
<path d="M367.391 228.825C373.026 228.825 376.068 225.346 376.068 219.217" stroke="#04051F" stroke-width="2" stroke-linecap="round" stroke-linejoin="round"/>
<path d="M283.649 313.714C283.641 313.714 283.641 313.714 283.636 313.71C283.632 313.71 283.627 313.706 283.627 313.706C283.623 313.702 283.623 313.697 283.623 313.693C283.623 313.693 283.623 313.689 283.623 313.685C284.393 309.163 285.359 302.732 285.875 296.406C285.875 296.402 285.875 296.398 285.87 296.394C284.729 294.476 282.054 291.835 275.815 291.035C275.71 291.018 275.61 290.985 275.514 290.934C275.422 290.884 275.339 290.813 275.273 290.733C275.208 290.65 275.16 290.558 275.133 290.457C275.107 290.357 275.098 290.252 275.112 290.151C275.129 290.047 275.16 289.946 275.216 289.863C275.269 289.77 275.343 289.691 275.426 289.628C275.514 289.565 275.614 289.519 275.715 289.494C275.82 289.469 275.929 289.461 276.038 289.477C281.271 290.147 284.279 292.023 286.014 293.878C286.014 293.878 286.019 293.882 286.023 293.882C286.032 293.882 286.036 293.882 286.036 293.882C286.045 293.882 286.049 293.878 286.049 293.873C286.054 293.869 286.054 293.865 286.054 293.857C286.299 289.942 286.325 286.174 285.984 283.055C284.572 270.181 280.642 258.529 280.598 258.412C280.528 258.195 280.497 257.968 280.515 257.742C280.532 257.516 280.598 257.294 280.707 257.093C280.816 256.893 280.961 256.712 281.144 256.562C281.324 256.415 281.529 256.302 281.756 256.231C281.984 256.16 282.22 256.135 282.456 256.151C282.692 256.168 282.924 256.231 283.133 256.336C283.348 256.436 283.536 256.579 283.689 256.75C283.842 256.926 283.964 257.123 284.034 257.34C284.2 257.826 288.126 269.444 289.577 282.695C289.726 284.072 289.813 285.567 289.84 287.133C289.84 287.137 289.844 287.137 289.844 287.145C289.848 287.15 289.848 287.15 289.853 287.154C289.857 287.154 289.861 287.154 289.866 287.154C289.875 287.154 289.875 287.154 289.879 287.15C291.802 285.856 294.417 284.52 297.967 283.218C298.172 283.143 298.395 283.151 298.596 283.235C298.797 283.319 298.95 283.478 299.029 283.675C299.108 283.867 299.099 284.085 299.011 284.273C298.924 284.466 298.758 284.613 298.557 284.688C294.426 286.199 291.68 287.727 289.857 289.126C289.853 289.126 289.853 289.13 289.848 289.134C289.848 289.138 289.848 289.142 289.848 289.142C289.77 297.453 288.371 307.275 287.291 313.693C287.291 313.697 287.287 313.702 287.282 313.706C287.278 313.71 287.269 313.714 287.265 313.714H283.649Z" fill="#04051F"/>
<path d="M278.201 290.631C278.196 290.635 278.192 290.639 278.192 290.643C278.187 290.647 278.187 290.652 278.187 290.656C278.27 290.999 279.42 296.341 273.567 299.272C268.128 301.989 259.875 300.193 255.166 291.183C251.359 283.907 249.195 275.751 249.055 275.215C249.055 275.211 249.055 275.207 249.055 275.207C249.055 275.199 249.059 275.199 249.059 275.194C249.063 275.194 249.068 275.19 249.068 275.186C249.072 275.186 249.077 275.186 249.077 275.186C249.903 275.123 267.407 273.871 273.3 276.333C277.147 277.941 282.205 281.592 281.195 286.251C280.544 289.245 278.41 290.513 278.201 290.631Z" fill="#224942"/>
<path d="M327.17 280.671C327.175 280.667 327.175 280.667 327.179 280.663C327.179 280.659 327.179 280.654 327.179 280.654C327.179 280.65 327.179 280.646 327.175 280.642C327.17 280.642 327.17 280.638 327.17 280.638C322.921 277.309 314.825 271.754 306.785 270.954C300.219 270.301 294.632 274.132 292.879 278.373C291.13 282.605 293.723 292.168 300.744 294.29C312.031 297.707 326.615 281.308 327.17 280.671Z" fill="#224942"/>
<path d="M282.348 248.235C280.323 248.235 278.68 243.278 278.68 237.166C278.68 231.049 280.323 226.092 282.348 226.092C284.372 226.092 286.015 231.049 286.015 237.166C286.015 243.278 284.372 248.235 282.348 248.235Z" fill="#F2B140"/>
<path d="M273.397 239.073C271.425 233.262 271.39 228.062 273.314 227.459C275.242 226.86 278.398 231.093 280.374 236.908C282.346 242.719 282.381 247.919 280.457 248.518C278.529 249.121 275.369 244.892 273.397 239.073Z" fill="#FECC76"/>
<path d="M265.889 246.981C260.722 243.385 257.504 239.198 258.698 237.628C259.887 236.058 265.037 237.703 270.2 241.3C275.367 244.896 278.585 249.083 277.395 250.653C276.202 252.219 271.052 250.577 265.889 246.981Z" fill="#FECC76"/>
<path d="M264.398 252.19C258.326 250.294 253.911 247.263 254.54 245.421C255.165 243.574 260.599 243.612 266.672 245.508C272.739 247.405 277.155 250.436 276.53 252.283C275.9 254.125 270.466 254.087 264.398 252.19Z" fill="#F2B140"/>
<path d="M264.665 257.596C258.278 257.596 253.102 256.026 253.102 254.083C253.102 252.145 258.278 250.57 264.665 250.57C271.047 250.57 276.223 252.145 276.223 254.083C276.223 256.026 271.047 257.596 264.665 257.596Z" fill="#FECC76"/>
<path d="M258.668 270.533C257.479 268.963 260.706 264.777 265.877 261.189C271.049 257.601 276.203 255.964 277.392 257.534C278.581 259.108 275.355 263.291 270.183 266.879C265.012 270.471 259.858 272.103 258.668 270.533Z" fill="#FECC76"/>
<path d="M265.133 276.73C263.493 275.587 265.211 270.655 268.971 265.711C272.731 260.77 277.102 257.689 278.742 258.832C280.377 259.975 278.659 264.907 274.899 269.847C271.139 274.787 266.768 277.873 265.133 276.73Z" fill="#F2B140"/>
<path d="M273.281 280.723C271.353 280.124 271.397 274.925 273.377 269.109C275.353 263.294 278.523 259.07 280.446 259.673C282.374 260.271 282.331 265.471 280.35 271.286C278.374 277.102 275.209 281.326 273.281 280.723Z" fill="#FECC76"/>
<path d="M284.295 271.287C282.332 265.471 282.306 260.272 284.23 259.673C286.157 259.078 289.314 263.311 291.277 269.126C293.24 274.946 293.27 280.146 291.342 280.744C289.414 281.339 286.262 277.106 284.295 271.287Z" fill="#FECC76"/>
<path d="M294.47 266.916C289.312 263.316 286.094 259.125 287.288 257.559C288.481 255.989 293.631 257.638 298.79 261.239C303.948 264.84 307.161 269.03 305.968 270.6C304.774 272.166 299.625 270.517 294.47 266.916Z" fill="#FECC76"/>
<path d="M300.019 257.64C293.632 257.632 288.46 256.049 288.465 254.107C288.469 252.168 293.65 250.607 300.032 250.619C306.419 250.632 311.591 252.214 311.587 254.153C311.582 256.095 306.402 257.657 300.019 257.64Z" fill="#FECC76"/>
<path d="M287.303 250.664C286.118 249.094 289.353 244.911 294.525 241.332C299.701 237.752 304.855 236.119 306.044 237.693C307.229 239.263 303.998 243.442 298.822 247.026C293.651 250.605 288.492 252.234 287.303 250.664Z" fill="#FECC76"/>
<path d="M285.945 249.372C284.31 248.229 286.037 243.293 289.805 238.353C293.569 233.413 297.95 230.34 299.589 231.483C301.224 232.626 299.497 237.558 295.729 242.498C291.965 247.442 287.584 250.515 285.945 249.372Z" fill="#F2B140"/>
<path d="M284.249 248.524C282.325 247.921 282.378 242.721 284.367 236.914C286.356 231.103 289.53 226.883 291.453 227.49C293.377 228.093 293.329 233.292 291.335 239.099C289.346 244.91 286.177 249.131 284.249 248.524Z" fill="#FECC76"/>
<path d="M254.528 262.728C253.903 260.882 258.322 257.859 264.395 255.975C270.467 254.087 275.896 254.058 276.522 255.904C277.147 257.746 272.727 260.773 266.655 262.653C260.582 264.541 255.153 264.571 254.528 262.728Z" fill="#F2B140"/>
<path d="M282.315 282.102C280.286 282.098 278.651 277.141 278.66 271.028C278.665 264.916 280.313 259.959 282.337 259.963C284.365 259.963 286 264.92 285.991 271.032C285.987 277.149 284.339 282.106 282.315 282.102Z" fill="#F2B140"/>
<path d="M289.74 269.874C285.998 264.921 284.293 259.985 285.932 258.846C287.576 257.711 291.939 260.801 295.681 265.754C299.423 270.707 301.132 275.643 299.493 276.782C297.849 277.916 293.486 274.826 289.74 269.874Z" fill="#F2B140"/>
<path d="M298.01 262.701C291.942 260.8 287.536 257.765 288.165 255.918C288.795 254.076 294.224 254.122 300.292 256.023C306.36 257.924 310.767 260.959 310.137 262.805C309.508 264.647 304.078 264.601 298.01 262.701Z" fill="#F2B140"/>
<path d="M288.167 252.296C287.547 250.454 291.971 247.436 298.047 245.56C304.12 243.68 309.554 243.659 310.174 245.501C310.795 247.348 306.371 250.366 300.299 252.246C294.222 254.122 288.793 254.147 288.167 252.296Z" fill="#F2B140"/>
<path d="M268.983 242.465C265.227 237.516 263.514 232.58 265.153 231.441C266.792 230.303 271.16 233.388 274.919 238.333C278.67 243.281 280.388 248.213 278.749 249.352C277.11 250.495 272.734 247.409 268.983 242.465Z" fill="#F2B140"/>
<path d="M327.185 280.655C314.704 275.832 300.273 278.256 293.125 286.056" stroke="#04051F" stroke-width="2" stroke-linecap="round" stroke-linejoin="round"/>
<path d="M278.188 290.639C276.627 289.617 275.237 287.486 273.305 286.326C270.109 284.409 266.332 283.609 262.668 282.994C257.081 282.056 253.046 278.547 249.051 275.186" stroke="#04051F" stroke-width="2" stroke-linecap="round" stroke-linejoin="round"/>
<path d="M272.786 296.696C269.193 298.685 262.412 296.52 260.926 292.689" stroke="#04051F" stroke-width="2" stroke-linecap="round" stroke-linejoin="round"/>
<path d="M316.563 287.342C314.888 289.871 307.443 293.433 304.527 292.353" stroke="#04051F" stroke-width="2" stroke-linecap="round" stroke-linejoin="round"/>
<path d="M289.878 232.049L287.098 242.528" stroke="#FF8263" stroke-width="2" stroke-linecap="round" stroke-linejoin="round"/>
<path d="M275.752 244.374L268.875 235.52" stroke="#FF8263" stroke-width="2" stroke-linecap="round" stroke-linejoin="round"/>
<path d="M270.974 249.429L258.742 246.523" stroke="#FF8263" stroke-width="2" stroke-linecap="round" stroke-linejoin="round"/>
<path d="M271.915 256.822L260.312 260.67" stroke="#FF8263" stroke-width="2" stroke-linecap="round" stroke-linejoin="round"/>
<path d="M274.353 262.686L268.875 271.18" stroke="#FF8263" stroke-width="2" stroke-linecap="round" stroke-linejoin="round"/>
<path d="M282.345 264.299L282.293 276.482" stroke="#FF8263" stroke-width="2" stroke-linecap="round" stroke-linejoin="round"/>
<path d="M288.492 261.455L295.439 271.177" stroke="#FF8263" stroke-width="2" stroke-linecap="round" stroke-linejoin="round"/>
<path d="M305.069 260.67L292.352 256.822" stroke="#FF8263" stroke-width="2" stroke-linecap="round" stroke-linejoin="round"/>
<path d="M305.065 246.523L294.586 249.538" stroke="#FF8263" stroke-width="2" stroke-linecap="round" stroke-linejoin="round"/>
<path d="M282.347 267.617C274.552 267.617 268.23 261.563 268.23 254.099C268.23 246.634 274.552 240.584 282.347 240.584C290.141 240.584 296.458 246.634 296.458 254.099C296.458 261.563 290.141 267.617 282.347 267.617Z" fill="#876056"/>
<path d="M282.29 263.521C284.226 263.521 286.124 262.972 287.737 261.938C289.35 260.908 290.604 259.439 291.348 257.726C292.091 256.01 292.283 254.122 291.903 252.3C291.527 250.479 290.591 248.809 289.223 247.494C287.85 246.179 286.102 245.288 284.204 244.923C282.303 244.563 280.331 244.748 278.539 245.459C276.746 246.167 275.216 247.373 274.136 248.917C273.061 250.462 272.488 252.275 272.488 254.134C272.493 256.621 273.524 259.007 275.36 260.766C277.197 262.528 279.693 263.521 282.29 263.521ZM282.29 248.306C283.496 248.306 284.668 248.645 285.673 249.286C286.67 249.926 287.452 250.835 287.911 251.903C288.37 252.966 288.493 254.138 288.257 255.269C288.025 256.399 287.448 257.437 286.596 258.254C285.743 259.07 284.659 259.627 283.479 259.849C282.298 260.075 281.074 259.958 279.964 259.518C278.849 259.074 277.9 258.329 277.227 257.37C276.563 256.412 276.204 255.285 276.204 254.134C276.209 252.585 276.847 251.107 277.988 250.014C279.129 248.922 280.676 248.306 282.29 248.306Z" fill="#FF4011"/>
<path d="M83.0487 247.103C86.6325 246.96 89.087 246.133 89.3007 244.801C89.5448 243.27 86.7589 241.495 82.4645 240.167C81.4617 239.863 80.6202 239.205 80.1014 238.324C79.5826 237.443 79.43 236.401 79.6742 235.41C81.1085 229.604 84.1212 224.957 88.7165 222.073C93.6213 218.99 99.7556 218.383 106.3 219.813C106.845 219.931 107.329 220.222 107.677 220.639C108.026 221.057 108.214 221.575 108.218 222.111C108.218 229.203 110.01 234.968 112.26 234.968C114.012 234.968 115.499 231.421 116.053 226.462C116.088 226.133 116.205 225.813 116.401 225.539C116.598 225.265 116.855 225.037 117.164 224.89C117.47 224.738 117.81 224.658 118.158 224.666C118.503 224.679 118.839 224.767 119.135 224.936C121.886 226.513 124.502 228.292 126.97 230.253C127.279 230.489 127.506 230.806 127.632 231.16C127.759 231.518 127.776 231.906 127.68 232.269C127.061 234.887 126.769 237.565 126.804 240.251C126.804 247.344 128.596 253.108 130.846 253.108C133.095 253.108 134.887 247.344 134.887 240.251V240.209C134.887 239.985 134.961 239.766 135.096 239.585C135.227 239.399 135.415 239.26 135.633 239.18C135.846 239.104 136.086 239.087 136.308 239.142C136.535 239.197 136.736 239.315 136.888 239.484C140.032 242.899 142.887 246.551 145.434 250.405C146.615 252.193 147.722 253.989 148.747 255.773C148.987 256.186 149.122 256.654 149.139 257.126C149.157 257.603 149.057 258.075 148.852 258.509C147.919 260.474 147.26 262.549 146.89 264.679C145.83 270.717 147.012 275.979 149.558 276.367C150.391 276.494 151.271 276.089 152.1 275.279C153.818 273.597 156.8 274.474 157.349 276.772C161.12 292.463 158.478 306.154 148.935 312.117C140.35 317.48 128.164 315.279 116.092 307.765C115.917 307.655 115.782 307.499 115.691 307.314C115.604 307.128 115.573 306.926 115.595 306.723C115.625 306.521 115.708 306.331 115.839 306.171C115.97 306.015 116.144 305.897 116.345 305.83C121.773 304.046 125.374 301.2 124.846 298.779C124.206 295.836 117.592 294.681 110.093 296.194C108.222 296.549 106.396 297.076 104.634 297.767C104.442 297.847 104.233 297.868 104.033 297.83C103.828 297.792 103.645 297.7 103.496 297.556C100.109 294.204 97.0176 290.586 94.2491 286.74C94.0834 286.513 93.9875 286.243 93.9701 285.965C93.9526 285.686 94.0137 285.408 94.1488 285.159C94.284 284.915 94.4845 284.704 94.733 284.565C94.9815 284.417 95.2649 284.345 95.5527 284.345C100.737 284.417 107.664 283.561 107.969 279.956C108.218 276.97 102.215 274.103 94.5499 273.504C92.2741 273.31 89.9764 273.382 87.718 273.707C87.3213 273.766 86.9158 273.698 86.5627 273.517C86.2095 273.335 85.9305 273.049 85.7561 272.699C84.6138 270.388 83.598 268.018 82.713 265.602C82.6563 265.442 82.6388 265.269 82.665 265.096C82.6912 264.927 82.7566 264.763 82.8568 264.624C82.9571 264.48 83.0923 264.367 83.2492 264.286C83.4062 264.202 83.5806 264.16 83.755 264.151C87.3823 264.173 96.0715 263.949 96.0497 261.128C96.0366 258.956 90.3819 256.819 83.0487 256.334H83.0094C82.0895 256.275 81.2175 255.912 80.5374 255.313C79.8529 254.71 79.4038 253.905 79.2556 253.028C79.1728 252.501 79.0899 252.016 79.0071 251.497C78.9417 250.397 79.3297 249.313 80.0883 248.486C80.8469 247.664 81.9108 247.166 83.0487 247.103Z" fill="#224942"/>
<path d="M159 294.871C149.25 277.047 128.493 263.002 97.0236 252.138C96.861 252.068 96.672 252.059 96.5005 252.113C96.3291 252.167 96.184 252.28 96.0961 252.43C96.0082 252.58 95.9774 252.754 96.017 252.921C96.0566 253.087 96.1621 253.233 96.3071 253.333C121.856 270.403 143.074 288.385 156.943 308.078L159 294.871Z" fill="#AC720C"/>
<path d="M154.459 261.032C138.252 247.357 116.88 241.508 93.8466 238.086C93.6692 238.061 93.4875 238.095 93.3318 238.194C93.1804 238.293 93.0723 238.444 93.0247 238.621C92.9771 238.793 92.9988 238.983 93.0853 239.138C93.1675 239.302 93.3059 239.422 93.4746 239.487C118.74 249.87 140.198 262.519 155 279.078L154.459 261.032Z" fill="#AC720C"/>
<path d="M151.646 239.443C139.395 229.058 113.743 223.826 96.8368 222.081C96.6555 222.064 96.4654 222.115 96.3195 222.217C96.1692 222.323 96.0631 222.476 96.0189 222.646C95.9791 222.82 96.0012 223.002 96.0941 223.164C96.1825 223.316 96.3284 223.439 96.4964 223.503C119.787 231.291 138.546 240.661 151.73 251.899C151.845 251.992 151.986 252.052 152.136 252.073C152.287 252.09 152.441 252.064 152.579 252.001C152.716 251.937 152.826 251.831 152.901 251.704C152.976 251.576 153.007 251.432 152.999 251.288L151.898 239.927C151.867 239.744 151.778 239.575 151.646 239.443Z" fill="#AC720C"/>
<path d="M173.827 205.411C164.28 217.27 158.592 230.295 155.621 244.078L149 232.336C153.369 219.278 161.904 210.5 172.726 204.208C173.49 203.726 174.382 204.686 173.827 205.411Z" fill="#AC720C"/>
<path d="M165.692 315.049C168.866 246.559 146.982 214.338 123.185 205.2L122 205.078C154.904 234.611 154.62 289.575 152.205 315.045C152.205 315.049 152.205 315.053 152.205 315.057C152.21 315.061 152.21 315.061 152.214 315.066C152.214 315.07 152.219 315.074 152.223 315.074C152.227 315.074 152.232 315.078 152.236 315.078H165.661C165.666 315.078 165.679 315.074 165.684 315.07C165.688 315.061 165.692 315.053 165.692 315.049Z" fill="#E79913"/>
<path d="M129.248 208.01C128.434 208.169 127.585 208.048 126.852 207.668C126.12 207.293 125.548 206.675 125.232 205.932C121.753 193.491 116.411 181.567 110.116 169.884C110.017 169.693 109.978 169.476 110.012 169.263C110.047 169.05 110.147 168.854 110.303 168.7C110.459 168.545 110.658 168.441 110.879 168.403C111.1 168.366 111.325 168.395 111.524 168.487C114.67 169.843 117.65 171.399 120.181 173.552C120.28 173.64 120.406 173.698 120.54 173.719C120.674 173.735 120.813 173.719 120.939 173.66C121.06 173.606 121.164 173.519 121.238 173.406C121.307 173.297 121.342 173.168 121.337 173.035C121.298 170.481 122.082 168.007 123.408 165.616C123.499 165.454 123.633 165.32 123.798 165.224C123.963 165.128 124.149 165.078 124.34 165.078C124.53 165.078 124.717 165.128 124.881 165.224C125.046 165.32 125.18 165.454 125.271 165.616C126.558 167.89 127.55 170.164 127.84 172.513C127.853 172.647 127.914 172.772 128.005 172.872C128.096 172.972 128.213 173.047 128.347 173.08C128.481 173.114 128.624 173.11 128.754 173.068C128.884 173.022 129.001 172.939 129.084 172.834C130.817 170.756 132.957 169.021 135.379 167.727C135.565 167.623 135.782 167.573 135.998 167.59C136.215 167.602 136.423 167.682 136.592 167.807C136.761 167.936 136.886 168.115 136.951 168.312C137.016 168.512 137.016 168.729 136.951 168.929C133.212 180.632 131.562 192.861 132.064 205.098C131.982 205.807 131.661 206.479 131.155 207.001C130.648 207.526 129.98 207.877 129.248 208.01Z" fill="#F3D297"/>
<path d="M103.406 178.389C110.326 188.64 117.649 197.865 126.003 204.217C126.483 204.778 126.804 205.456 126.937 206.185C127.065 206.914 126.997 207.665 126.736 208.355C126.415 209.217 125.819 209.946 125.044 210.435C124.265 210.924 123.353 211.143 122.441 211.061C112.574 207.416 101.851 207.043 90.7559 207.742C90.6061 207.755 90.4562 207.712 90.3277 207.63C90.2035 207.549 90.105 207.429 90.0493 207.287C89.9937 207.146 89.9851 206.987 90.0237 206.846C90.0622 206.695 90.1478 206.567 90.2677 206.472C93.3767 203.938 96.9481 202.029 100.785 200.858C100.926 200.816 101.051 200.734 101.145 200.618C101.235 200.507 101.295 200.37 101.307 200.219C101.32 200.074 101.286 199.928 101.218 199.799C101.145 199.67 101.038 199.568 100.909 199.503C97.2265 197.74 94.2374 194.996 91.7794 191.633C91.7066 191.526 91.6595 191.402 91.6466 191.277C91.6381 191.144 91.6681 191.016 91.7237 190.9C91.7837 190.788 91.8736 190.69 91.9849 190.625C92.0963 190.557 92.2247 190.522 92.3532 190.522C96.0788 190.604 99.6374 191.183 102.913 192.74C103.046 192.8 103.192 192.826 103.333 192.804C103.479 192.783 103.611 192.723 103.723 192.624C103.83 192.53 103.911 192.401 103.95 192.264C103.984 192.122 103.98 191.976 103.941 191.839C102.425 187.615 101.976 183.227 102.057 178.758C102.07 178.608 102.13 178.462 102.224 178.347C102.322 178.226 102.455 178.145 102.601 178.102C102.751 178.064 102.905 178.072 103.046 178.124C103.192 178.175 103.316 178.265 103.406 178.389Z" fill="#F2B140"/>
<path d="M123 192.078C122.022 187.213 120.34 182.501 118 178.078" stroke="#E2B76C" stroke-width="2" stroke-linecap="round" stroke-linejoin="round"/>
<path d="M118 206.078C113.335 204.426 109.041 203.847 105 204.159" stroke="#F3D297" stroke-width="2" stroke-linecap="round" stroke-linejoin="round"/>
<path d="M135 258.078C129.206 253.262 123.453 251.318 118 249.078" stroke="#224942" stroke-width="2" stroke-linecap="round" stroke-linejoin="round"/>
<path d="M127 274.078C124.115 270.957 120.746 268.257 117 266.078" stroke="#224942" stroke-width="2" stroke-linecap="round" stroke-linejoin="round"/>
<path d="M130 234.078C126.747 232.12 123.414 230.658 120 230.078" stroke="#224942" stroke-width="2" stroke-linecap="round" stroke-linejoin="round"/>
<path d="M104.97 315.078C104.974 315.078 104.983 315.078 104.983 315.074C104.991 315.074 104.991 315.066 104.996 315.066C105 315.057 105 315.053 105 315.049C105 315.045 104.996 315.036 104.991 315.036C87.4553 292.303 62.5665 276.669 32.2247 266.178C30.446 265.576 29.165 267.852 30.6537 268.968C44.9223 279.823 56.9967 291.334 65.6089 303.939C68.08 307.556 68.8461 308.504 70.7156 312.305C70.7156 312.309 70.72 312.313 70.7243 312.317C70.7243 312.317 70.7329 312.317 70.7373 312.322L82.5217 315.078C82.526 315.078 82.5304 315.078 82.5304 315.078H104.97Z" fill="#AC720C"/>
<path d="M83 315.049C83 315.045 83 315.045 82.9956 315.041C82.9956 315.032 82.9956 315.032 82.9912 315.032C80.1073 312.453 77.0571 309.957 73.6698 308.092C71.0966 306.675 68.5102 305.288 65.8932 303.959C58.2873 300.104 50.4276 296.782 41.964 294.946C29.9993 292.329 14.3542 289.43 1.59749 292.208C-0.621266 292.686 -0.494359 295.743 1.76378 296.063C3.89939 296.375 6.07438 296.537 8.20561 296.773C21.6757 298.202 35.2289 301.816 46.4409 309.242C49.4036 311.186 52.2919 313.01 55.0052 315.07C55.0139 315.074 55.0183 315.078 55.027 315.078H82.9694C82.9737 315.078 82.9825 315.074 82.9912 315.07C82.9956 315.062 83 315.057 83 315.049Z" fill="#E0920B"/>
</svg>
