<svg width="128" height="93" viewBox="0 0 128 93" fill="none" xmlns="http://www.w3.org/2000/svg">
<path d="M122.208 6.03702V77.8088C122.201 78.8876 121.772 79.9147 121.018 80.6684C120.257 81.4295 119.23 81.8581 118.159 81.8581H4.50479C3.97276 81.8581 3.44814 81.7547 2.95306 81.5478C2.45798 81.3483 2.022 81.0453 1.64515 80.6684C1.2683 80.299 0.972774 79.8556 0.765875 79.3605C0.558976 78.8728 0.462891 78.3482 0.462891 77.8088V6.03702C0.462891 5.3646 0.625479 4.69957 0.950606 4.10843C1.27573 3.50251 1.75602 3.00744 2.3176 2.63798H2.325C2.325 2.63798 2.325 2.63797 2.325 2.63058C2.97525 2.21678 3.72892 1.99512 4.50479 1.99512H118.166C118.44 1.99512 118.713 2.02466 118.979 2.07639C119.223 2.12811 119.467 2.20201 119.696 2.29807C120.442 2.59364 121.07 3.11828 121.521 3.7907C121.972 4.45573 122.208 5.23899 122.208 6.03702Z" fill="#FFDECC"/>
<path d="M19.2676 75.5178L19.2823 75.503L47.3171 46.8623" stroke="#FFC3A2" stroke-width="3" stroke-linecap="round" stroke-linejoin="round"/>
<path d="M103.726 73.76L103.689 73.7305L77.0215 46.4863" stroke="#FFC3A2" stroke-width="3" stroke-linecap="round" stroke-linejoin="round"/>
<path d="M121.5 0.5V6.5124L69.6853 61.3082C68.7321 62.2836 67.6089 63.0668 66.3602 63.6062C65.104 64.1457 63.7665 64.4338 62.3995 64.456C61.0399 64.4708 59.6877 64.2269 58.4241 63.7244C57.1532 63.222 56.0004 62.4757 55.025 61.5225L0.5 8.99512V3L45.2195 44.8006L48.3895 47.9189L58.3945 57.7022C59.4881 58.6998 60.9217 59.2318 62.3995 59.1801C63.8626 59.1357 65.2665 58.5298 66.301 57.4732L121.5 0.5Z" fill="#FFC3A2"/>
<path d="M103.699 19.1897L103.721 19.1749L118.81 3.23633" stroke="#CA674C" stroke-width="3" stroke-linecap="round" stroke-linejoin="round"/>
<path d="M2.59961 2.89648L3.40501 3.69452L19.2845 19.4115" stroke="#CA674C" stroke-width="3" stroke-linecap="round" stroke-linejoin="round"/>
<path d="M103.691 19.1895L77.0228 46.4853L66.301 57.4731C65.2665 58.5298 63.8626 59.1357 62.3995 59.1801C60.9217 59.2318 59.4881 58.6998 58.3945 57.7022L48.3895 47.9188L47.3181 46.8622L45.2195 44.8006L19.2832 19.4111" stroke="#CA674C" stroke-width="3" stroke-linecap="round" stroke-linejoin="round"/>
<path d="M107.052 47.7276C103.01 47.7276 99.0275 48.7399 95.4733 50.6611C91.9191 52.5971 88.9042 55.3828 86.6949 58.7671C84.4929 62.1588 83.1701 66.0529 82.8524 70.08C82.5347 74.1146 83.2292 78.1565 84.8696 81.8585L117.478 81.9398C118.742 81.9102 119.946 81.393 120.833 80.4989C121.712 79.5974 122.208 78.3856 122.208 77.1294V53.0404C117.907 49.597 112.565 47.7202 107.052 47.7276Z" fill="#FFC3A2"/>
<path d="M107.053 92.5651C118.402 92.5651 127.617 83.3654 127.617 72.0008C127.617 60.6509 118.402 51.4365 107.053 51.4365C95.6879 51.4365 86.4883 60.6509 86.4883 72.0008C86.4883 83.3654 95.6879 92.5651 107.053 92.5651Z" fill="#E66A48"/>
<path d="M107.164 65.9424V78.1716" stroke="#FFDECC" stroke-width="3" stroke-linecap="round" stroke-linejoin="round"/>
</svg>
