<svg width="706" height="380" viewBox="0 0 706 380" fill="none" xmlns="http://www.w3.org/2000/svg">
<path d="M2.50672 224.44C13.9929 224.44 23.2894 210.759 23.2894 194.015C23.2894 192.432 24.1683 191.207 25.218 191.207C26.2727 191.207 27.1466 192.432 27.1466 194.015C27.1466 210.759 36.5284 224.44 47.9292 224.44C48.9789 224.44 49.8578 225.666 49.8578 227.243C49.8578 228.825 48.9789 230.05 47.9292 230.05C36.443 230.05 27.1466 243.731 27.1466 260.476C27.1466 262.058 26.2727 263.283 25.218 263.283C24.1683 263.283 23.2894 262.058 23.2894 260.476C23.2894 243.731 13.9929 230.05 2.50672 230.05C1.45704 230.05 0.578125 228.825 0.578125 227.243C0.578125 225.666 1.45704 224.44 2.50672 224.44Z" fill="#FFC000"/>
<path d="M58.7141 174.635C65.1177 174.635 70.3761 167.006 70.3761 157.624C70.3761 156.75 70.9035 156.047 71.4308 156.047C72.0435 156.047 72.4805 156.75 72.4805 157.624C72.4805 167.006 77.744 174.635 84.1425 174.635C84.7603 174.635 85.1972 175.338 85.1972 176.212C85.1972 177.091 84.6698 177.794 84.1425 177.794C77.744 177.794 72.4805 185.423 72.4805 194.805C72.4805 195.679 71.9582 196.382 71.4308 196.382C70.8181 196.382 70.3761 195.679 70.3761 194.805C70.3761 185.423 65.1177 177.794 58.7141 177.794C58.1014 177.794 57.6644 177.091 57.6644 176.212C57.574 175.423 58.1014 174.635 58.7141 174.635Z" fill="#FFC000"/>
<path d="M704.07 224.44C692.584 224.44 683.287 210.759 683.287 194.015C683.287 192.432 682.413 191.207 681.359 191.207C680.309 191.207 679.43 192.432 679.43 194.015C679.43 210.759 670.048 224.44 658.647 224.44C657.598 224.44 656.719 225.666 656.719 227.243C656.719 228.825 657.598 230.05 658.647 230.05C670.134 230.05 679.43 243.731 679.43 260.476C679.43 262.058 680.309 263.283 681.359 263.283C682.413 263.283 683.287 262.058 683.287 260.476C683.287 243.731 692.584 230.05 704.07 230.05C705.12 230.05 705.998 228.825 705.998 227.243C705.998 225.666 705.12 224.44 704.07 224.44Z" fill="#FFC000"/>
<path d="M647.866 174.635C641.462 174.635 636.204 167.006 636.204 157.624C636.204 156.75 635.677 156.047 635.149 156.047C634.536 156.047 634.1 156.75 634.1 157.624C634.1 167.006 628.836 174.635 622.438 174.635C621.825 174.635 621.383 175.338 621.383 176.212C621.383 177.091 621.91 177.794 622.438 177.794C628.836 177.794 634.1 185.423 634.1 194.805C634.1 195.679 634.627 196.382 635.149 196.382C635.767 196.382 636.204 195.679 636.204 194.805C636.204 185.423 641.462 177.794 647.866 177.794C648.479 177.794 648.916 177.091 648.916 176.212C648.916 175.423 648.479 174.635 647.866 174.635Z" fill="#FFC000"/>
<path d="M274.084 338.113L303.701 341.046C308.231 347.088 314.524 352.879 321.656 357.66C325.096 359.926 328.531 362.271 331.555 364.285C334.659 366.299 319.727 372.256 309.657 368.313C309.657 368.313 271.904 348.093 272.326 346.084C272.657 344.572 273.752 339.62 274.084 338.113Z" fill="#FD9DA6"/>
<path d="M272.326 346.165C272.407 345.914 272.658 345.749 272.909 345.914C277.022 348.516 307.558 367.224 331.555 364.286C334.574 366.3 337.176 368.063 339.024 369.238C340.701 370.328 341.957 371.84 342.544 373.347C343.805 376.621 342.042 379.303 338.436 379.303C328.788 379.303 318.467 377.209 308.397 373.266L288.85 365.547C288.519 365.381 288.182 365.798 288.348 366.049C290.276 369.992 292.793 374.105 295.48 378.635C295.645 378.886 295.48 379.223 295.143 379.223H283.145C282.979 379.223 282.893 379.137 282.813 379.052C276.686 368.565 271.568 360.263 271.653 351.534C271.819 349.691 271.99 347.843 272.326 346.165Z" fill="#0152BF"/>
<path d="M238.681 341.295L209.235 338.191C206.884 344.484 201.264 353.208 195.98 358.075C193.379 360.426 190.863 362.691 188.598 364.705C186.413 366.719 189.436 375.528 189.436 375.528C198.833 375.528 232.724 364.283 232.724 364.283C232.137 368.562 240.444 370.747 240.444 370.747C243.211 360.511 242.036 347.839 240.946 345.825C240.278 344.319 239.52 342.807 238.681 341.295Z" fill="#FD9DA6"/>
<path d="M241.031 345.826C241.031 345.746 241.031 345.746 241.031 345.826C239.69 346.835 214.603 367.643 188.597 364.705C186.413 366.719 184.484 368.397 183.143 369.572C181.968 370.662 181.295 372.088 181.295 373.6C181.295 376.784 184.148 379.3 187.588 379.3C196.985 379.3 206.296 377.291 214.689 373.514L231.971 365.71C231.971 365.71 232.051 365.71 232.051 365.795C231.469 369.989 230.208 374.519 228.867 379.3C228.867 379.3 228.867 379.386 228.947 379.386H241.533C241.533 379.386 241.619 379.386 241.619 379.3C244.386 369.065 246.737 360.762 243.799 351.953C243.045 349.854 242.121 347.84 241.031 345.826Z" fill="#0152BF"/>
<path d="M179.538 141.965L178.443 146.912C174.335 163.355 173.998 180.386 177.524 196.915L207.895 341.299H238.682L219.888 199.095C219.722 197.924 221.4 197.502 221.822 198.592L273.417 341.218H303.787L272.407 196.413C272.407 196.413 264.607 151.698 252.443 142.382L182.471 142.216L179.538 141.965Z" fill="#03827A"/>
<path d="M217.458 183.486L212.34 158.57" stroke="black" stroke-width="1.5" stroke-linecap="round" stroke-linejoin="round"/>
<path d="M183.644 64.6952C191.705 64.6952 198.244 58.161 198.244 50.1001C198.244 42.0341 191.705 35.5 183.644 35.5C175.583 35.5 169.049 42.0341 169.049 50.1001C169.049 58.161 175.583 64.6952 183.644 64.6952Z" fill="black"/>
<path d="M217.792 64.6952C225.852 64.6952 232.387 58.161 232.387 50.1001C232.387 42.0341 225.852 35.5 217.792 35.5C209.726 35.5 203.191 42.0341 203.191 50.1001C203.191 58.161 209.726 64.6952 217.792 64.6952Z" fill="black"/>
<path d="M246.737 107.986C257.977 128.537 278.951 148.923 312.425 150.857L334.072 171.494C335.413 172.835 337.512 172.835 338.853 171.408C340.028 170.148 340.028 168.053 338.768 166.712L338.602 166.461C339.943 167.802 342.042 167.802 343.383 166.376C344.558 165.115 344.558 163.021 343.298 161.675L343.634 162.011C344.98 163.352 347.075 163.352 348.416 161.926C349.591 160.671 349.591 158.571 348.335 157.23L329.958 136.593L339.104 135.418C340.781 134.916 341.871 133.319 341.706 131.641C341.54 129.712 339.777 128.201 337.848 128.371H323.67C314.61 128.371 304.374 127.362 298.166 124.509C288.77 120.23 277.022 110.251 271.568 101.441H245.477L246.737 107.986Z" fill="#FD9DA6"/>
<path d="M271.568 101.609H245.477L246.652 107.902C247.993 110.333 249.505 112.769 251.097 115.2L271.568 101.609Z" fill="black"/>
<path d="M152.859 107.149C147.742 114.783 120.304 146.409 110.907 146.409C102.183 146.409 93.9617 140.789 88.7585 133.993L62.6672 98.7562L59.2051 90.2719L79.8421 82.8086L111.329 124.847L133.814 91.4586L152.859 107.149Z" fill="#FD9DA6"/>
<path d="M253.108 142.97L245.559 101.695H276.181L259.064 66.7949C255.207 58.9097 247.402 53.37 238.593 52.9531C238.176 52.9531 237.84 52.9531 237.423 52.9531H209.82L198.243 56.2227L187.837 52.9531H176.933C170.389 52.9531 164.01 55.1328 158.727 59.3265C148.657 67.2971 140.943 79.7978 133.891 91.4598C133.811 91.5452 133.977 91.7109 133.977 91.7109L157.974 117.3L169.214 102.534C170.052 105.467 171.142 108.32 172.317 111.173C175.004 117.466 178.108 123.508 180.037 130.137C181.212 134.16 179.786 138.861 179.113 143.979L253.108 142.97Z" fill="#CA3F94"/>
<path d="M169.131 102.363C168.041 98.6711 167.453 94.8993 167.453 91.1225C167.539 84.2418 170.391 77.0296 175.846 73.5039" stroke="black" stroke-width="1.5" stroke-linecap="round" stroke-linejoin="round"/>
<path d="M196.144 74.9297C191.026 84.3266 191.614 96.5762 197.57 105.466" stroke="black" stroke-width="1.5" stroke-linecap="round" stroke-linejoin="round"/>
<path d="M187.84 52.9531L197.995 65.6196C198.327 66.0365 198.914 66.0365 199.251 65.6196L209.737 52.9531H187.84Z" fill="#FD9DA6"/>
<path d="M232.052 105.637H211.164C209.908 105.637 208.898 104.627 208.898 103.372V90.9565C208.898 89.6959 209.908 88.6914 211.164 88.6914H232.052C233.312 88.6914 234.317 89.6959 234.317 90.9565V103.372C234.317 104.627 233.312 105.637 232.052 105.637Z" fill="#E9E7E6"/>
<path d="M223.663 84.4922H219.555V92.7992H223.663V84.4922Z" fill="black"/>
<path d="M176.598 155.72L253.109 142.968C252.858 142.717 252.441 142.466 252.104 142.215L179.365 142.3L178.361 146.911C177.688 149.763 177.1 152.702 176.598 155.72Z" fill="black"/>
<path d="M245.561 101.61L241.447 79.125" stroke="black" stroke-width="1.5" stroke-linecap="round" stroke-linejoin="round"/>
<path d="M338.6 166.463L327.691 155.555" stroke="black" stroke-width="1.5" stroke-linecap="round" stroke-linejoin="round"/>
<path d="M326.523 143.473C328.954 147.079 329.12 151.86 327.694 155.552" stroke="black" stroke-width="1.5" stroke-linecap="round" stroke-linejoin="round"/>
<path d="M343.632 162.013L333.316 150.688" stroke="black" stroke-width="1.5" stroke-linecap="round" stroke-linejoin="round"/>
<path d="M285.244 116.289L277.775 121.658" stroke="black" stroke-width="1.5" stroke-linecap="round" stroke-linejoin="round"/>
<path d="M71.9688 78.9395L80.3612 78.3519C83.3796 78.3519 85.8105 75.9211 85.8105 72.8976C85.8105 69.8792 83.2943 67.3629 80.2758 67.4433L71.9688 78.9395Z" fill="#FD9DA6"/>
<path d="M223.247 35.8373C223.247 32.8138 220.811 30.2976 217.708 30.2976C215.277 22.7489 208.225 19.7305 199.838 19.7305C191.451 19.7305 184.484 22.8343 182.054 30.2976C182.054 30.2976 182.054 30.2976 181.968 30.2976C178.95 30.2976 176.434 32.8138 176.434 35.8373C176.434 38.8557 178.864 41.2916 181.883 41.372C182.807 44.6466 184.655 47.5797 187.086 49.8448C188.176 50.8543 189.351 51.693 190.612 52.366C193.208 53.8727 196.398 54.7968 199.753 54.7968C203.027 54.7968 206.046 53.9581 208.647 52.4463C210.239 51.6076 211.666 50.5177 213.012 49.1768C215.191 46.997 216.869 44.3101 217.793 41.372C220.811 41.2916 223.247 38.8557 223.247 35.8373Z" fill="#FD9DA6"/>
<path d="M218.711 36.0006C218.711 27.4424 212.925 20.396 205.206 18.1309C208.059 16.2877 209.907 13.1839 209.736 9.57277C209.57 4.45495 205.377 0.26126 200.339 0.0101399C194.719 -0.24098 190.104 4.20383 190.104 9.82891C190.104 13.3496 191.867 16.2877 194.634 18.0506C188.677 19.7281 183.645 24.2583 182.053 30.1294C182.053 30.2148 182.053 30.2148 182.133 30.2148C197.738 31.3901 207.386 21.2348 207.386 21.2348C207.642 28.2008 212.423 34.5743 218.631 37.1759C218.711 36.9247 218.711 36.0006 218.711 36.0006Z" fill="black"/>
<path d="M204.705 41.0391C203.615 43.3845 201.265 44.8963 198.914 45.1474" stroke="black" stroke-width="1.5" stroke-linecap="round" stroke-linejoin="round"/>
<path d="M195.308 34.4928C196.237 34.4928 196.986 33.7344 196.986 32.8103C196.986 31.8912 196.237 31.1328 195.308 31.1328C194.384 31.1328 193.631 31.8912 193.631 32.8103C193.631 33.7344 194.384 34.4928 195.308 34.4928Z" fill="black"/>
<path d="M201.765 34.4928C202.7 34.4928 203.443 33.7344 203.443 32.8103C203.443 31.8912 202.7 31.1328 201.765 31.1328C200.841 31.1328 200.088 31.8912 200.088 32.8103C200.088 33.7344 200.841 34.4928 201.765 34.4928Z" fill="black"/>
<path d="M199.502 36.3359H196.649C195.559 36.3359 194.721 37.1747 194.721 38.2645C194.721 39.3544 195.559 40.1931 196.649 40.1931H199.502" stroke="black" stroke-width="1.5" stroke-linecap="round" stroke-linejoin="round"/>
<path d="M186.834 49.5893C187.924 50.5988 190.274 52.1909 191.53 52.8639C194.217 54.1195 196.231 54.3756 199.5 54.7071C202.775 55.0436 205.794 54.2049 208.395 52.6931C209.987 51.8544 211.75 50.5988 213.091 49.2578" stroke="black" stroke-width="1.5" stroke-linecap="round" stroke-linejoin="round"/>
<path d="M50.4212 86.5931L61.8271 98.004C63.6753 99.8472 66.6134 99.8472 68.542 98.004C70.3049 96.4068 70.3852 94.0614 69.2954 92.2131C71.0582 93.303 73.4891 93.0519 75.0862 91.4598C76.5126 90.0334 76.844 87.9341 76.0053 86.1712C77.7682 87.0099 79.8675 86.6785 81.2939 85.2521C83.1371 83.4039 83.1371 80.4708 81.2939 78.5372L69.7173 66.9605C67.869 65.1173 64.9309 65.1173 63.0023 66.9605C61.9125 68.1358 61.4956 69.984 61.8271 71.4907C61.9125 71.8272 61.576 72.0784 61.2395 71.993C59.6474 71.5761 57.8845 71.9126 56.7093 73.1682C55.3683 74.5142 54.9514 76.5232 55.6194 78.1203C55.7048 78.3714 55.4537 78.6225 55.1172 78.5372C53.4397 77.9495 51.5914 78.286 50.2505 79.5467C48.4073 81.4753 48.4876 84.6645 50.4212 86.5931Z" fill="#FD9DA6"/>
<path d="M76.0052 86.1676L66.6133 75.8516" stroke="black" stroke-width="1.5" stroke-linecap="round" stroke-linejoin="round"/>
<path d="M61.8273 98.0839C63.6755 99.9322 66.6136 99.9322 68.5422 98.0839C69.7175 96.9941 70.1343 95.5677 69.9686 94.2267C69.7978 93.2223 69.9686 92.8857 69.2102 92.1274L68.4569 91.4594L60.4863 83.1523" stroke="black" stroke-width="1.5" stroke-linecap="round" stroke-linejoin="round"/>
<path d="M133.893 91.457L143.375 118.889L147.739 113.942L150.758 109.995L150.924 109.829L133.893 91.457Z" fill="black"/>
<path d="M205.795 331.316H237.341" stroke="black" stroke-width="1.5" stroke-linecap="round" stroke-linejoin="round"/>
<path d="M269.805 331.316H301.601" stroke="black" stroke-width="1.5" stroke-linecap="round" stroke-linejoin="round"/>
<path d="M405.534 349.638L408.928 339.577C408.928 339.497 408.928 339.337 408.768 339.257L385.078 328.637C384.917 328.557 384.837 328.637 384.757 328.797L368.021 378.286C367.941 378.446 368.102 378.605 368.262 378.605H438.759C438.92 378.605 439 378.525 439 378.366V374.822C439 366.456 432.211 359.614 423.721 359.614H412.644C407.553 359.614 403.832 354.546 405.534 349.638Z" fill="#0152BF"/>
<path d="M370 373.605H438" stroke="black" stroke-width="1.5" stroke-linecap="round" stroke-linejoin="round"/>
<path d="M389.5 358.605C393.087 358.605 396 355.697 396 352.108C396 348.519 393.087 345.605 389.5 345.605C385.913 345.605 383 348.519 383 352.108C383 355.697 385.913 358.605 389.5 358.605Z" fill="black"/>
<path d="M406 356.605L398 362.605" stroke="black" stroke-width="1.5" stroke-linecap="round" stroke-linejoin="round"/>
<path d="M412 360.605L404 365.605" stroke="black" stroke-width="1.5" stroke-linecap="round" stroke-linejoin="round"/>
<path d="M421 360.605L414 365.605" stroke="black" stroke-width="1.5" stroke-linecap="round" stroke-linejoin="round"/>
<path d="M565.829 342.619L559.193 345.215C554.418 347.081 549.074 344.484 547.616 339.534L544.947 330.605H515L529.408 378.412C529.488 378.574 529.569 378.654 529.729 378.574L532.238 377.682L590.598 354.874L591 354.713C588.331 344.404 576.11 338.561 565.829 342.619Z" fill="#0152BF"/>
<path d="M532.498 351.605C536.088 351.605 539 348.693 539 345.103C539 341.513 536.088 338.605 532.498 338.605C528.908 338.605 526 341.513 526 345.103C526 348.693 528.908 351.605 532.498 351.605Z" fill="black"/>
<path d="M587 349.605L528 372.605" stroke="black" stroke-width="1.5" stroke-linecap="round" stroke-linejoin="round"/>
<path d="M550 344.605L546 353.605" stroke="black" stroke-width="1.5" stroke-linecap="round" stroke-linejoin="round"/>
<path d="M557 346.605L554 355.605" stroke="black" stroke-width="1.5" stroke-linecap="round" stroke-linejoin="round"/>
<path d="M566 343.605L562 351.605" stroke="black" stroke-width="1.5" stroke-linecap="round" stroke-linejoin="round"/>
<path d="M407.541 343.484L409 339.268L384.859 328.605L377 351.605L407.541 343.484Z" fill="black"/>
<path d="M516.393 335.103L520.824 350.605L547 339.772L544.313 330.605H516L516.393 335.103Z" fill="black"/>
<path d="M560.967 340L498.415 160.742C498.415 160.662 498.334 160.662 498.249 160.662L433.43 159.605C433.35 159.605 433.269 159.686 433.269 159.686L375 328.906C375 328.987 375 329.072 375.085 329.072L422.991 350.605C423.071 350.605 423.152 350.605 423.232 350.525L466.689 224.623C466.77 224.462 466.935 224.462 467.016 224.623L506.829 340.08C506.829 340.161 506.909 340.161 506.99 340.161H560.886C560.967 340.241 561.047 340.161 560.967 340Z" fill="#826D9C"/>
<path d="M467 224.605L455 190.605" stroke="black" stroke-width="1.5" stroke-linecap="round" stroke-linejoin="round"/>
<path d="M464 18.1089C460.553 15.6149 455.749 16.5795 451.905 18.4287C448.065 20.278 444.539 22.8569 440.377 23.4966C434.289 24.3863 428.366 20.8427 422.199 20.3629C412.352 19.4733 402.664 27.2001 400.501 36.9361C398.337 46.6721 403.385 57.2977 411.79 62.6055H463.92V18.1089H464Z" fill="black"/>
<path d="M375.438 185.957C375.438 188.143 377.323 189.925 379.702 189.925C382.819 189.925 384.866 186.929 383.639 184.336L378.719 173.791C376.503 168.524 374.206 164.389 372.81 159.605H355.92C355.426 161.227 354.851 162.848 354.194 164.389C352.065 169.576 351 175.09 351 180.685V183.117C351 189.925 356.822 195.605 364.121 195.605C364.202 195.605 364.202 195.605 364.284 195.605C364.365 195.605 364.365 195.605 364.447 195.605C370.6 195.359 375.352 190.494 375.352 184.739L375.438 185.957Z" fill="#FD9DA6"/>
<path d="M578.438 186.951C578.438 189.136 580.323 190.924 582.702 190.924C585.819 190.924 587.866 187.923 586.639 185.33L581.719 174.788C579.503 169.522 577.206 165.388 575.815 160.605H558.92C558.426 162.227 557.856 163.848 557.199 165.388C555.064 170.574 554 176.087 554 181.68V184.112C554 190.924 559.822 196.598 567.121 196.598C567.202 196.598 567.202 196.598 567.284 196.598C567.365 196.598 567.365 196.598 567.447 196.598C573.763 196.839 578.357 191.487 578.357 185.733L578.438 186.951Z" fill="#FD9DA6"/>
<path d="M555 172.422C555.769 171.935 556.623 171.605 557.646 171.605C560.038 171.605 562 173.324 562 175.524V195.605" stroke="black" stroke-width="1.5" stroke-linecap="round" stroke-linejoin="round"/>
<path d="M562 194.816V175.391C562 173.341 563.806 171.605 566.002 171.605C568.194 171.605 569.922 172.866 569.922 174.999L570 195.605" stroke="black" stroke-width="1.5" stroke-linecap="round" stroke-linejoin="round"/>
<path d="M579 187.79V179.264V175.557V175.395C579 173.346 576.966 171.605 574.5 171.605C572.028 171.605 570 173.268 570 175.395V195.605" stroke="black" stroke-width="1.5" stroke-linecap="round" stroke-linejoin="round"/>
<path d="M466.5 48.6055C408.199 48.6055 359.676 91.3746 351.188 147.001C349.731 156.247 356.929 164.526 366.306 164.526C373.91 164.526 380.298 158.899 381.509 151.424C386.2 121.517 406.496 96.6771 433.829 85.4231L433.909 160.751L499.171 159.702V85.503C526.504 96.6771 546.8 121.517 551.491 151.504C552.621 158.978 559.01 164.605 566.694 164.605C576.071 164.605 583.269 156.247 581.812 147.08C573.244 91.3746 524.801 48.6055 466.5 48.6055Z" fill="#0152BF"/>
<path d="M468.16 9.60613C461.123 9.60613 454.815 10.176 451.5 15.8596C448.346 16.5102 446 19.2688 446 22.5972C446 24.9524 447.135 27.0655 449.074 28.2809C449.074 28.2809 449.154 28.3666 449.235 28.3666C449.963 33.2382 452.469 37.54 456.191 40.4651C456.919 41.1106 457.808 41.5998 458.697 42.1696C459.506 42.6538 460.395 42.9816 461.284 43.3043C463.388 44.1163 465.654 44.6055 467.999 44.6055C478.512 44.6055 487 36.0775 487 25.5223C487 21.3012 485.629 17.3221 483.364 14.155C479.888 9.44475 474.468 9.60613 468.16 9.60613Z" fill="#FD9DA6"/>
<path d="M475 22.1055C475 22.9382 474.333 23.6055 473.5 23.6055C472.667 23.6055 472 22.9382 472 22.1055C472 21.2727 472.667 20.6055 473.5 20.6055C474.333 20.6055 475 21.2727 475 22.1055Z" fill="black"/>
<path d="M479.51 23.6055C480.333 23.6055 481 22.9279 481 22.0951C481 21.2727 480.322 20.6055 479.5 20.6055C478.667 20.6055 478 21.283 478 22.1158C478 22.9382 478.678 23.6055 479.51 23.6055Z" fill="black"/>
<path d="M475 28.6055H478.147C479.166 28.6055 480 27.93 480 27.1055C480 26.2809 479.166 25.6055 478.147 25.6055H475" stroke="black" stroke-width="1.5" stroke-linecap="round" stroke-linejoin="round"/>
<path d="M470 29.6055C470.561 31.5613 472.162 33.1635 474 33.6055" stroke="black" stroke-width="1.5" stroke-linecap="round" stroke-linejoin="round"/>
<path d="M479.495 52.6055H455.51C452.431 52.6055 450 50.1783 450 47.103C450 44.0326 452.431 41.6055 455.51 41.6055H479.495C482.569 41.6055 485 44.0326 485 47.103C485 50.1783 482.569 52.6055 479.495 52.6055Z" fill="#0152BF"/>
<path d="M450 28.6055C451.688 29.3864 452.135 29.8569 454 29.464" stroke="black" stroke-width="1.5" stroke-linecap="round" stroke-linejoin="round"/>
<path d="M433 85.6055L436 79.6055" stroke="black" stroke-width="1.5" stroke-linecap="round" stroke-linejoin="round"/>
<path d="M499 85.6055L497 78.6055" stroke="black" stroke-width="1.5" stroke-linecap="round" stroke-linejoin="round"/>
<path d="M458 20.6918C458.342 21.6909 458.599 22.7729 458.599 24.1085C458.599 24.2742 458.684 24.4398 458.86 24.5227C458.946 24.6055 459.031 24.6055 459.202 24.6055C459.288 24.6055 459.288 24.6055 459.373 24.6055C459.63 24.5226 463.248 23.1922 466 18.6055L458 20.6918Z" fill="black"/>
<path d="M483 13.4045C479.53 9.27884 474.281 6.60547 468.47 6.60547C461.446 6.60547 455.309 10.4095 452 16.0728C452 16.0728 455.068 16.3944 457.089 18.3391C457.731 18.907 458.217 19.716 458.538 20.6055L465.968 18.5803L466.775 18.1783L475.815 15.8316L478.558 15.1834L478.804 15.103C479.691 14.8618 480.578 14.6959 481.466 14.3743C481.466 14.3743 482.514 13.6457 483 13.4045Z" fill="#FFC000"/>
<path d="M459 19.6055L499 9.60547" stroke="black" stroke-width="1.5" stroke-linecap="round" stroke-linejoin="round"/>
<path d="M376 188.605V176.605" stroke="black" stroke-width="1.5" stroke-linecap="round" stroke-linejoin="round"/>
<path d="M368 194.605V182.605" stroke="black" stroke-width="1.5" stroke-linecap="round" stroke-linejoin="round"/>
<path d="M360 194.605V182.605" stroke="black" stroke-width="1.5" stroke-linecap="round" stroke-linejoin="round"/>
<path d="M381 317.605L427 338.605" stroke="black" stroke-width="1.5" stroke-linecap="round" stroke-linejoin="round"/>
<path d="M504 327.605H556" stroke="black" stroke-width="1.5" stroke-linecap="round" stroke-linejoin="round"/>
<path d="M484 87.6055C486.21 87.6055 488 85.8159 488 83.6055C488 81.39 486.21 79.6055 484 79.6055C481.785 79.6055 480 81.39 480 83.6055C480 85.8159 481.785 87.6055 484 87.6055Z" fill="black"/>
<path d="M480 91.6055H489" stroke="black" stroke-width="1.5" stroke-linecap="round" stroke-linejoin="round"/>
<path d="M455.172 117.35L401.498 107.605C397.911 111.552 394.973 115.659 392.201 120.251C389.916 124.032 387.712 128.304 386 132.411C386.978 134.262 389.668 135.472 390.894 137.163C393.017 139.979 393.914 143.04 396.604 145.216C404.437 151.739 414.712 155.605 425.807 155.605C436.822 155.605 447.015 151.739 454.848 145.216C457.052 143.36 456.561 140.864 458.354 138.613C459.986 136.598 464.064 134.987 465.29 132.651C468.958 126.208 471 118.8 471 110.907L464.718 112.112L463.41 114.613L455.172 117.35Z" fill="#FFC000"/>
<path d="M386 132.605C388.516 137.561 392.414 142.027 396.555 145.605H454.526C458.747 142.113 462.317 137.803 465 132.928L386 132.605Z" fill="#030201"/>
<path d="M471 107.072C470.113 81.7668 454.462 59.496 430.67 49.838C429.137 49.1984 427.278 49.9173 426.637 51.5138C425.991 53.0309 426.717 54.8653 428.33 55.5049C449.622 64.206 463.66 84.4788 464.707 106.993L402.193 107.072C398.726 110.904 395.66 115.133 393 119.605H470.033V119.526C470.674 116.571 471 113.537 471 110.503V107.072Z" fill="#030201"/>
<path d="M498 155.605H433V161.605H498V155.605Z" fill="#050404"/>
<path d="M491 174.686L507 183.605L503.866 174.605L491 174.686Z" fill="black"/>
<path d="M485 48.5507C484.101 50.5781 482.466 52.6055 480.175 52.6055H455.15C451.961 52.6055 450 49.9589 450 46.6055" stroke="black" stroke-width="1.5" stroke-linecap="round" stroke-linejoin="round"/>
<path d="M459 8.60547L470 16.6055" stroke="black" stroke-width="1.5" stroke-linecap="round" stroke-linejoin="round"/>
</svg>
