<svg width="126" height="121" viewBox="0 0 126 121" fill="none" xmlns="http://www.w3.org/2000/svg">
<path d="M62.6905 0C97.3753 0 125.474 27.0306 125.474 60.2646C125.474 81.4863 114.042 100.184 96.6963 110.937C86.9124 117.042 75.1844 104.06 62.6905 104.06C48.9315 104.06 36.1416 116.363 25.8702 109.097C10.173 98.1468 0.000229494 80.3199 0.000229494 60.2646C-0.0926192 26.9377 27.9999 0 62.6905 0Z" fill="#FFC000"/>
<path d="M96.4054 111.035C95.8251 111.516 90.5907 111.133 89.2328 111.035C89.0413 111.035 88.8498 111.035 88.8498 111.035C88.8498 111.035 46.9925 108.905 40.9863 108.128C36.4309 99.0226 33.6223 85.0662 29.3571 66.5604C29.3571 66.5604 29.3571 66.5603 29.3571 66.4675C27.2273 57.0666 26.9372 35.6534 34.3013 28.2893C36.6225 26.0609 51.0604 21.7028 62.0108 22.2831C71.0229 22.6719 77.3192 24.9003 84.0043 28.7767C85.6523 29.7458 86.9116 30.9065 88.0722 31.9742C90.5907 34.3012 91.5598 37.8817 90.8809 41.3693L88.2637 54.0664C87.2017 61.2331 92.0473 74.2146 95.6278 82.2576C101.442 95.6278 102.023 106.096 96.4054 111.035Z" fill="#4A535E"/>
<path opacity="0.6" d="M89.2312 110.938C89.0397 110.938 88.8482 110.938 88.8482 110.938C88.8482 110.938 46.9909 108.808 40.9847 108.031C36.4294 98.9255 33.6207 84.975 29.3555 66.4691C29.3555 66.4691 29.3555 66.4692 29.3555 66.3705C34.0095 64.3336 61.133 51.9325 69.176 46.9941L84.7745 52.6115C83.8054 59.784 85.8423 72.8641 89.8174 82.9382C94.5642 94.6603 94.8544 105.802 89.2312 110.938Z" fill="#343C46"/>
<path d="M75.7695 72.7637C78.6711 92.14 93.8866 96.208 87.2944 112.294" stroke="#343C46" stroke-width="2" stroke-linecap="round" stroke-linejoin="round"/>
<path d="M51.2551 70.1465C51.2551 70.1465 37.7921 108.325 63.7549 119.467" stroke="#343C46" stroke-width="2" stroke-linecap="round" stroke-linejoin="round"/>
<path d="M88.3633 64.918C89.431 85.6522 102.801 95.0473 93.2088 110.066" stroke="#343C46" stroke-width="2" stroke-linecap="round" stroke-linejoin="round"/>
<path d="M43.0205 94.7584C39.3413 82.7462 37.3045 74.3143 39.7302 66.8574" stroke="#343C46" stroke-width="2" stroke-linecap="round" stroke-linejoin="round"/>
<path d="M47.3828 55.9055C60.9445 43.5973 68.4072 37.1095 75.6726 28.875" stroke="#343C46" stroke-width="2" stroke-linecap="round" stroke-linejoin="round"/>
<path d="M25.9688 108.999C33.8145 114.425 43.0181 118.209 52.9993 119.758C56.1968 120.24 59.4929 116.943 62.8819 116.943C65.9807 116.943 69.0853 120.24 72.1842 119.758C81.1963 118.499 89.6223 115.301 96.8878 110.844C89.721 107.061 64.8201 95.6289 64.8201 95.6289C64.8201 95.6289 37.7895 104.45 25.9688 108.999Z" fill="#FFB85A"/>
<path d="M91.3682 50.8692C91.3682 53.3877 91.2695 55.8076 91.1708 58.1346C90.9793 62.4927 90.5905 66.7579 90.0102 70.8259C89.8187 72.2824 89.6214 73.7332 89.4299 75.2826C88.6523 80.5169 83.6153 90.1094 76.9302 91.6588L77.4118 105.998C77.4118 106.288 77.4118 106.578 77.4118 106.869C77.4118 109.486 76.64 112.103 75.2821 114.424L72.0846 119.949C69.0844 120.337 65.9798 120.628 62.7823 120.628C59.492 120.628 56.0973 120.436 52.8998 119.85C50.8687 117.72 48.7332 115.3 46.9923 113.455C44.7639 111.134 43.5975 107.936 43.8935 104.739L45.8259 74.0233L46.0232 70.6344C45.9245 70.6344 45.8259 70.5357 45.733 70.5357C42.5356 69.5666 38.7578 67.0481 36.6223 62.69C34.301 57.2641 36.4308 53.8694 39.5296 52.7088C42.4369 51.641 45.0541 52.5173 46.6035 54.5483C46.8936 55.1286 47.2824 55.8076 47.3811 56.3879C47.4739 56.8754 48.5417 57.357 48.6403 57.8445C48.7332 58.3261 47.8627 58.7149 47.9614 59.2952C48.3502 61.0419 48.7332 63.073 49.122 65.4C56.8749 57.2642 77.0289 37.1102 84.7759 34.9805C87.8805 37.5918 91.461 47.1843 91.3682 50.8692Z" fill="#FDD1B4"/>
<path d="M67.0477 59.7829C65.8871 59.7829 64.918 58.8138 64.918 57.6474V57.2644C64.918 56.098 65.8871 55.1289 67.0477 55.1289C68.2083 55.1289 69.1774 56.098 69.1774 57.2644V57.6474C69.1774 58.8138 68.2083 59.7829 67.0477 59.7829Z" fill="#35454F"/>
<path opacity="0.6" d="M77.4132 105.998C77.4132 106.289 77.4132 106.579 77.4132 106.869C68.018 106.097 54.4505 96.7949 52.1293 92.2395C49.5121 87.394 48.543 75.5732 48.543 75.5732C47.6726 75.3817 46.6048 74.6041 45.7344 74.0238L45.9258 70.6348L46.7963 70.8263C48.1542 71.0178 49.3207 71.0178 50.1911 70.7276C50.2898 71.3137 51.8391 78.8693 53.3886 81.3878C56.4874 86.8137 67.8265 92.9185 75.9624 91.9494C76.444 91.8507 76.5427 91.8507 76.8329 91.752L77.4132 105.998Z" fill="#FBBD94"/>
<path d="M50.1914 70.7285C50.2901 71.3146 51.8394 78.8702 53.3889 81.3887C56.4877 86.8145 67.8268 92.9193 75.9627 91.9502" stroke="#FBBD94" stroke-width="2" stroke-linecap="round"/>
<path opacity="0.4" d="M51.549 62.8828C51.3517 64.7224 51.7405 66.7593 52.9011 68.5002C55.2281 71.9878 59.6848 73.0556 62.8823 71.0187C65.9811 68.889 66.6601 64.3336 64.2402 60.9446C62.4935 58.4261 59.6848 57.1669 57.0677 57.457C55.0366 59.3952 53.0984 61.1361 51.549 62.8828Z" fill="#E68748"/>
<path opacity="0.4" d="M91.1716 58.1348C90.9801 62.4928 90.5913 66.7581 90.011 70.826C89.1406 70.3444 88.363 69.6654 87.7827 68.7891C85.653 65.5975 86.6221 61.1349 90.1097 58.8137C90.4927 58.5236 90.8815 58.3263 91.1716 58.1348Z" fill="#E68748"/>
<path d="M84.9741 33.9121C84.9741 33.9121 79.0608 40.4985 72.956 47.2823C65.5977 55.3253 59.9746 59.8749 49.5117 60.3623" stroke="#4A535E" stroke-width="2" stroke-linecap="round" stroke-linejoin="round"/>
<path d="M84.9715 59.7829C83.8051 59.7829 82.8359 58.8138 82.8359 57.6474V57.2644C82.8359 56.098 83.8051 55.1289 84.9715 55.1289C86.1321 55.1289 87.1012 56.098 87.1012 57.2644V57.6474C87.1012 58.8138 86.1321 59.7829 84.9715 59.7829Z" fill="#35454F"/>
<path d="M30.8125 45.1539C40.4049 43.2157 60.9419 35.2713 69.954 25.1914" stroke="#343C46" stroke-width="2" stroke-linecap="round" stroke-linejoin="round"/>
<path d="M31.9766 38.659C36.6248 35.7517 42.3408 30.5174 46.5074 25.8691" stroke="#343C46" stroke-width="2" stroke-linecap="round" stroke-linejoin="round"/>
<path d="M74.8008 73.3457C76.443 75.5741 79.449 76.1544 81.5788 74.9937" stroke="#E68748" stroke-width="2" stroke-linecap="round"/>
<path d="M88.851 69.857C83.9068 69.857 79.9375 65.4002 79.9375 59.9744C79.9375 54.5485 83.9068 50.0918 88.851 50.0918C93.7894 50.0918 97.7644 54.5485 97.7644 59.9744C97.8573 65.4002 93.7894 69.857 88.851 69.857ZM88.851 52.8076C85.4562 52.8076 82.7462 56.0051 82.7462 59.8757C82.7462 63.7521 85.4562 66.9496 88.851 66.9496C92.2399 66.9496 94.95 63.7521 94.95 59.8757C94.95 56.0051 92.2399 52.8076 88.851 52.8076Z" fill="#4A9DC9"/>
<path d="M78.0955 59.4922C78.1941 58.9061 78.2928 58.616 78.3856 58.3259C78.5829 57.7455 79.3547 57.7455 79.6448 58.3259C80.6139 59.9739 81.9719 61.9121 82.3607 62.3996C83.2311 63.6588 86.1385 65.98 85.5582 67.338C84.9779 68.8874 81.9719 70.4368 80.8112 70.4368C79.8421 70.4368 75.9657 69.665 75.867 68.4986C75.7742 67.338 76.2559 66.4675 76.7433 65.4984C76.8362 65.4984 77.904 62.0108 78.0955 59.4922Z" fill="#E68748"/>
<path d="M68.6951 69.857C63.2692 69.857 58.8125 65.4002 58.8125 59.9744C58.8125 54.5485 63.2692 50.0918 68.6951 50.0918C74.1209 50.0918 78.5777 54.5485 78.5777 59.9744C78.6705 65.4002 74.2138 69.857 68.6951 69.857ZM68.6951 52.8076C64.8186 52.8076 61.6212 56.0051 61.6212 59.8757C61.6212 63.7521 64.8186 66.9496 68.6951 66.9496C72.5715 66.9496 75.769 63.7521 75.769 59.8757C75.769 56.0051 72.6643 52.8076 68.6951 52.8076Z" fill="#4A9DC9"/>
<path d="M77.4115 59.8764C77.1213 59.8764 76.8312 59.7835 76.6397 59.4934C76.2509 59.0059 76.2509 58.327 76.7383 57.944C78.3806 56.4874 80.7077 56.4874 82.1642 57.944C82.5472 58.327 82.5472 59.0059 82.1642 59.4934C81.7754 59.8764 81.0964 59.8764 80.609 59.4934C79.9358 58.8144 78.8681 58.8144 78.0905 59.4934C77.9976 59.7835 77.7074 59.8764 77.4115 59.8764Z" fill="#4A9DC9"/>
<path d="M46.8945 70.7276C48.2524 70.9249 49.413 70.9249 50.2893 70.6348H50.3821" stroke="#FBBD94" stroke-width="2" stroke-linecap="round"/>
<path d="M45.3431 59.6833C44.9543 56.8747 41.1765 54.6463 39.2383 57.5536" stroke="#FBBD94" stroke-width="2" stroke-linecap="round"/>
<path d="M45.3431 59.5856C43.5035 56.8756 38.8495 59.7829 41.5653 63.462" stroke="#FBBD94" stroke-width="2" stroke-linecap="round"/>
<path d="M61.815 57.6468C61.815 58.4244 61.136 59.1034 60.3642 59.1034H48.0618C47.8645 58.0356 47.5743 57.1652 47.3828 56.2947H60.3642C61.2347 56.1961 61.815 56.875 61.815 57.6468Z" fill="#4A9DC9"/>
</svg>
