<svg width="126" height="126" viewBox="0 0 126 126" fill="none" xmlns="http://www.w3.org/2000/svg">
<path d="M125.224 62.5342C125.079 28.0977 96.9808 0 62.5342 0C28.0977 0 0 28.0977 0 62.5342C0 79.9028 7.32559 95.9765 18.761 107.267C19.0515 107.565 77.6413 115.789 91.481 111.384C94.1583 110.543 99.3976 113.325 101.649 111.489C115.917 100.056 125.224 82.2996 125.224 62.5342Z" fill="#4ABCC9"/>
<path d="M81.1695 21.8828C78.8111 21.8828 76.5494 22.8197 74.8818 24.4873C73.2142 26.1549 72.2773 28.4166 72.2773 30.775C72.2773 33.1333 73.2142 35.395 74.8818 37.0626C76.5494 38.7302 78.8111 39.6671 81.1695 39.6671C83.5278 39.6671 85.7896 38.7302 87.4572 37.0626C89.1248 35.395 90.0616 33.1333 90.0616 30.775C90.0616 28.4166 89.1248 26.1549 87.4572 24.4873C85.7896 22.8197 83.5278 21.8828 81.1695 21.8828Z" fill="#FF7555"/>
<path d="M101.632 111.324C101.7 111.355 101.71 111.442 101.65 111.49C90.9407 120.043 77.4391 125.224 62.6802 125.224C45.6598 125.224 30.0394 118.352 18.7617 107.267C18.7041 107.217 18.7317 107.122 18.7993 107.112C28.6769 104.56 42.9149 100.23 42.9149 100.23L73.4094 100.094C73.4094 99.9491 87.7049 105.97 101.632 111.324Z" fill="#F2F7F9"/>
<path d="M30.3457 57.0358C31.6105 62.3728 35.8054 65.6086 39.3242 66.7607C39.3643 66.7682 39.3818 66.7982 39.3919 66.8358C39.5371 67.6598 39.8076 68.4813 39.9428 69.3027C39.9428 69.3102 39.9428 69.3202 39.9428 69.3303L39.6047 73.9786C39.5947 74.0287 39.5947 74.1138 39.5847 74.1739L37.4108 103.198C37.2656 105.169 37.8266 107.286 39.1013 108.843C42.0691 112.795 48.8438 119.57 62.2502 121.128C73.2699 122.538 79.0502 115.909 81.4545 112.234C82.296 110.96 82.7218 109.267 82.5866 107.711L81.3293 89.5214L81.0313 85.3163C81.0313 85.2888 81.0413 85.2587 81.0588 85.2387C86.8291 79.4509 89.9222 70.5775 90.0674 66.6329C90.0774 66.3625 90.105 66.102 90.115 65.8315C90.4155 61.4437 90.686 57.3939 90.8513 53.6548C90.8513 53.6447 90.8513 53.6447 90.8513 53.6447V53.5471C91.1118 47.3234 91.0917 41.9689 90.4832 37.4157C89.3612 29.7896 83.7086 19.1957 67.3343 20.1925C51.243 21.1792 41.6434 26.088 35.4974 45.2147C35.4198 45.4852 34.1049 46.8576 33.8745 46.9553C31.1296 48.1549 29.1761 52.4751 30.3457 57.0358Z" fill="#FFC298"/>
<path opacity="0.6" d="M39.5977 74.0763L39.6077 74.1339C43.9855 93.8892 59.2378 99.8248 66.2929 100.105C73.5233 100.511 79.1684 94.7407 81.3322 89.5214L81.0342 85.2688L79.2836 86.8341C76.461 88.8151 73.3505 90.2277 69.6864 90.2277C60.0793 90.2277 47.5143 84.2921 41.5887 73.1396L39.9558 69.3203L39.5977 74.0763Z" fill="#FEAE77"/>
<path d="M80.4279 85.9529C77.5953 87.934 73.3527 90.2256 69.6887 90.2256C60.0815 90.2256 47.5165 84.29 41.591 73.1375C41.1652 72.3436 40.7895 71.5422 40.4414 70.7207" stroke="#E29560" stroke-width="2" stroke-linecap="round" stroke-linejoin="round"/>
<path opacity="0.4" d="M85.9747 61.8292C86.5157 63.9655 88.0509 65.3479 90.1196 65.8313C90.4201 61.4435 90.6906 57.3837 90.8559 53.6445C87.4148 54.9594 84.8627 58.6309 85.9747 61.8292Z" fill="#E8782C"/>
<path opacity="0.4" d="M48.2987 55.7037C47.8798 56.4307 47.63 57.2431 47.5643 58.0919C47.4987 58.9407 47.6185 59.8082 47.9167 60.6423C48.2148 61.4764 48.6851 62.2597 49.2991 62.9451C49.9132 63.6304 50.6583 64.2036 51.4895 64.63C52.3207 65.0565 53.2209 65.3274 54.1357 65.4264C55.0505 65.5254 55.961 65.4504 56.8124 65.2061C57.6638 64.9617 58.4383 64.553 59.0894 64.0046C59.7405 63.4562 60.2546 62.7794 60.6007 62.015C61.0196 61.288 61.2695 60.4756 61.3351 59.6268C61.4008 58.7781 61.2809 57.9105 60.9828 57.0764C60.6846 56.2423 60.2144 55.459 59.6003 54.7737C58.9863 54.0883 58.2412 53.5152 57.41 53.0887C56.5788 52.6623 55.6786 52.3914 54.7638 52.2924C53.849 52.1934 52.9384 52.2683 52.0871 52.5126C51.2357 52.757 50.4611 53.1657 49.8101 53.7141C49.159 54.2626 48.6449 54.9394 48.2987 55.7037Z" fill="#E8782C"/>
<path d="M63.8094 54.6375C65.0742 54.6375 66.2062 53.508 66.2062 52.2307V51.805C66.2062 50.5402 65.0742 49.4082 63.8094 49.4082C62.5447 49.4082 61.4102 50.5402 61.4102 51.805V52.2307C61.4102 53.508 62.5322 54.6375 63.8094 54.6375Z" fill="#59737F"/>
<path d="M83.8563 54.6375C85.1211 54.6375 86.2531 53.508 86.2531 52.2307V51.805C86.2531 50.5402 85.1211 49.4082 83.8563 49.4082C82.5891 49.4082 81.457 50.5402 81.457 51.805V52.2307C81.457 53.508 82.5891 54.6375 83.8563 54.6375Z" fill="#59737F"/>
<path d="M79.3425 70.0253L70.5869 69.1738C70.1611 69.1738 69.6001 69.5996 69.7354 70.1606C70.1611 71.8511 71.4359 74.9642 75.2452 74.9642C78.213 74.9642 79.4778 72.4221 79.9035 71.0121C80.0488 70.5863 79.7583 70.1606 79.3425 70.0253Z" fill="#E8782C"/>
<path d="M39.1044 56.3306C39.3849 52.937 36.7076 49.5535 34.3008 50.966" stroke="#E29560" stroke-width="2" stroke-linecap="round" stroke-linejoin="round"/>
<path d="M33.8807 46.818C33.8807 46.8856 33.9558 46.9231 34.0159 46.8956C34.6345 46.6251 37.2617 45.6183 39.8338 47.3013C42.0478 48.7514 42.2507 51.1958 42.6363 53.5074C42.7716 54.3289 42.9068 55.1503 43.0521 56.097C43.0521 56.1446 43.0997 56.1847 43.1498 56.1847L46.7737 56.0494C46.8313 56.0494 46.8789 55.9994 46.8889 55.9518L48.2714 46.257C48.2814 46.2094 48.309 46.1317 48.3491 46.0942L53.8664 39.5975C53.9065 39.56 53.9265 39.4823 53.9165 39.4348L52.9398 32.8906C52.3788 28.5127 56.1881 24.8487 60.5659 25.8355C66.4915 27.1002 74.5409 28.5127 80.1859 28.2322C82.0217 28.2322 83.1437 27.8165 83.9953 27.2455H84.0028C87.3863 25.8254 89.9284 20.1904 87.8121 18.4998C87.8121 18.4898 87.8121 18.4898 87.8121 18.4898C85.5981 17.0673 80.3112 17.4254 79.4622 17.4931C79.4021 17.5031 79.3445 17.4455 79.3545 17.3879C79.4021 16.8644 79.4697 14.6805 77.3634 13.6963C73.4113 12.0032 70.5888 16.093 64.7985 15.2415C48.1462 13.4158 35.1555 25.9707 33.8882 31.6133C33.8807 31.6233 33.8807 31.6233 33.8807 31.6233C33.465 34.2906 33.6002 41.0577 33.8807 46.818Z" fill="#FF7555"/>
<path d="M34.301 58.3007C32.891 53.2167 36.7178 51.0803 38.6989 53.6224" stroke="#E29560" stroke-width="2" stroke-linecap="round" stroke-linejoin="round"/>
<path d="M73.8346 51.3893C73.8346 50.8208 74.2579 49.9793 74.9642 49.4083C75.3899 48.8473 76.3767 48.985 76.6547 49.5536C77.7867 51.8051 79.054 54.2119 79.4772 55.0534C80.6093 56.7539 84.1356 61.1242 83.8576 62.1185C83.006 65.3668 77.2157 66.2083 75.5252 66.2083C74.1126 66.2083 71.0121 63.531 71.0121 62.399C70.8668 60.8437 72.7026 58.0212 72.7026 58.0212C73.1284 55.9049 73.8346 51.3893 73.8346 51.3893Z" fill="#E8782C"/>
</svg>
