<svg width="440" height="198" viewBox="0 0 440 198" fill="none" xmlns="http://www.w3.org/2000/svg">
<path d="M274.843 196.372C275.738 162.55 234.158 128.815 182.969 143.122C182.969 143.122 160.837 106.207 101.821 109.474C42.9186 112.652 2.01025 160.961 0 196.372H274.843Z" fill="#EFDCD7"/>
<path d="M182.857 143.121C167.544 148.86 156.144 159.104 149.66 169.349" stroke="#9B9B9B" stroke-linecap="round" stroke-linejoin="round"/>
<path opacity="0.3" d="M146.306 185.334C113.781 165.289 93.4405 138.177 87.4034 111.242C36.3248 120.69 1.89975 163.963 0 196.374H167.208C160.055 193.106 153.013 189.486 146.306 185.334Z" fill="#D3D3D3"/>
<path d="M197.355 56.9882L202.545 43.1954C202.757 42.6231 203.284 42.2461 203.879 42.2461C204.434 42.2461 204.897 42.567 205.12 43.0832C205.345 43.5993 205.371 44.2255 205.214 44.9526C205.358 44.993 206.045 45.2309 206.455 45.9849C206.837 46.6672 206.865 47.5738 206.561 48.6623C206.64 48.7184 207.037 49.0258 207.326 49.625C207.617 50.2511 207.868 51.3261 207.339 52.9442C206.429 55.7472 205.9 57.087 205.887 57.1004L205.875 57.1139L197.355 56.9882Z" fill="white"/>
<path opacity="0.2" d="M204.461 51.8697C202.492 52.902 200.473 53.4473 198.662 53.5169L197.355 56.9887L205.887 57.1301L205.9 57.1144C205.9 57.1009 206.442 55.7634 207.354 52.9581C207.827 51.5084 207.683 50.503 207.432 49.8477C206.561 50.6017 205.571 51.2839 204.461 51.8697Z" fill="#393939"/>
<path d="M194.899 56.4023H190.29C189.999 56.4023 189.893 56.8085 190.131 56.9612L194.899 60.2242V56.4023Z" fill="black"/>
<path d="M205.214 44.9648L200.828 56.6818" stroke="#767676" stroke-linecap="round" stroke-linejoin="round"/>
<path d="M206.574 48.6484L203.682 56.3617" stroke="#767676" stroke-linecap="round" stroke-linejoin="round"/>
<path d="M203.588 64.8707C200.881 64.8707 198.49 62.9183 197.29 61.7603C196.773 61.2576 196.127 60.8963 195.441 60.7414L193.909 60.407C192.693 60.1422 191.873 58.9573 191.992 57.6601C192.111 56.3338 193.154 55.3441 194.41 55.3441L217.59 55.2386V55.2364C220.155 55.2207 218.408 57.7432 217.775 58.6768C217.139 59.5991 216.123 60.1557 215.065 60.1557C214.723 60.1557 214.379 60.0996 214.037 59.9896L212.728 59.5565C212.558 59.5004 212.386 59.4734 212.213 59.4734C211.75 59.4734 211.289 59.6822 210.972 60.03C210.773 60.2544 210.55 60.5192 210.312 60.811C208.977 62.4291 206.956 64.8707 203.588 64.8707Z" fill="white"/>
<path d="M215.213 57.6855L217.973 58.0768" stroke="#414141" stroke-linecap="round" stroke-linejoin="round"/>
<path d="M194.239 58.1615C194.602 58.1615 194.9 57.8473 194.9 57.4636C194.9 57.0776 194.602 56.7656 194.239 56.7656C193.873 56.7656 193.578 57.0776 193.578 57.4636C193.578 57.8473 193.873 58.1615 194.239 58.1615Z" fill="black"/>
<path d="M203.589 64.8705C200.882 64.8705 198.479 62.9181 197.291 61.76C197.238 61.7039 197.172 61.6478 197.106 61.5917L197.078 61.5783L197.106 61.5513C197.276 61.383 197.448 61.2304 197.62 61.0913C199.02 59.9333 200.71 59.3184 202.48 59.3184C204.936 59.3184 207.208 60.4898 208.727 62.541L208.74 62.5545L208.727 62.5702C207.142 64.1165 205.465 64.8705 203.589 64.8705Z" fill="black"/>
<path d="M204.105 61.1732C202.426 61.1732 200.816 60.5313 199.562 59.3464C199.177 58.9963 198.954 58.5093 198.926 57.9662C198.901 57.4209 199.058 56.9182 199.402 56.5142C199.456 56.4447 199.521 56.3886 199.575 56.3325L210.484 46.3458C210.748 46.1101 211.077 45.9688 211.421 45.9688C211.832 45.9688 212.214 46.1505 212.49 46.458C212.743 46.7497 212.875 47.1268 212.86 47.5307C212.835 48.1187 212.584 48.6887 212.108 49.261C212.214 49.3732 212.728 49.932 212.769 50.8095C212.809 51.6196 212.439 52.441 211.685 53.2781C211.791 53.4868 212.637 55.3562 210.484 57.5196L208.78 59.2073C207.526 60.4752 205.86 61.1732 204.105 61.1732Z" fill="white"/>
<path d="M212.108 49.2734L205.822 55.0635" stroke="#767676" stroke-linecap="round" stroke-linejoin="round"/>
<path d="M211.7 53.2637L208.186 56.4998" stroke="#767676" stroke-linecap="round" stroke-linejoin="round"/>
<path d="M24.109 152.93H20.6367V196.584H24.109V152.93Z" fill="black"/>
<path opacity="0.2" d="M20.6367 152.93H24.109V160.371L20.6367 158.174V152.93Z" fill="black"/>
<path d="M24.109 183.699H20.6367V196.583H24.109V183.699Z" fill="black"/>
<path d="M32.6868 156.266H15.4297V139.896H26.6306C29.9774 139.896 32.6868 143.184 32.6868 147.246V156.266Z" fill="black"/>
<path d="M15.5809 139.896C18.7641 139.896 21.3481 143.034 21.3481 146.898V156.266H9.82427V146.898C9.81152 143.034 12.3955 139.896 15.5809 139.896Z" fill="#FFC930"/>
<path opacity="0.2" d="M32.6873 147.245C32.6873 146.837 32.6618 146.442 32.6001 146.033L27.379 148.791C26.9795 149.005 26.8053 149.566 26.9795 150.035C26.9795 150.05 26.9795 150.05 26.9923 150.05C27.192 150.519 27.6553 150.717 28.042 150.504L32.6873 148.048V147.245Z" fill="black"/>
<path d="M26.6699 149.778C26.6699 150.309 27.0184 150.734 27.4562 150.734C27.4689 150.734 27.4689 150.734 27.4795 150.734C27.9173 150.702 28.2424 150.262 28.2424 149.748V141.198H30.7903L29.9658 139.546L30.7903 137.895H26.6805L26.6699 149.778Z" fill="#FFC930"/>
<path d="M13.9941 146.943H17.2411" stroke="#505050" stroke-linecap="round" stroke-linejoin="round"/>
<path d="M13.9941 149.217H17.2411" stroke="#505050" stroke-linecap="round" stroke-linejoin="round"/>
<path d="M190.01 196.741C197.63 178.094 212.771 185.495 212.771 185.495C212.771 185.495 222.569 168.033 241.928 171.267C262.307 174.716 263.907 196.741 263.907 196.741H190.01Z" fill="#FFC930"/>
<path d="M212.771 185.494C214.879 186.679 217.738 189.338 219.032 191.387" stroke="black" stroke-linecap="round" stroke-linejoin="round"/>
<path d="M255.061 196.74C251.319 185.961 242.472 184.884 238.39 187.4C233.116 190.631 231.246 196.74 231.246 196.74H255.061Z" fill="#7C631C"/>
<path d="M7.42188 196.743C8.90938 186.018 16.7103 178.17 25.4291 180.264C25.4291 180.264 29.7131 163.549 46.0608 164.57C62.9035 165.616 65.1326 183.927 65.1326 183.927C65.1326 183.927 80.4879 180.264 82.1475 196.743H7.42188Z" fill="#66AB9A"/>
<path opacity="0.3" d="M25.8496 196.745H82.1217C80.4621 180.266 65.1069 183.928 65.1069 183.928C65.1069 183.928 63.9912 174.772 57.3782 169.045C46.1582 171.868 43.0132 184.189 43.0132 184.189C35.3845 182.358 28.474 188.114 25.8496 196.745Z" fill="#5F5F5F"/>
<path d="M25.4292 180.266C24.6599 183.143 23.7695 187.328 23.7695 187.328" stroke="#5F5F5F" stroke-linecap="round" stroke-linejoin="round"/>
<path d="M65.1331 183.926C63.0272 184.763 61.2932 186.383 60.252 188.502" stroke="#5F5F5F" stroke-linecap="round" stroke-linejoin="round"/>
<path d="M394.5 48C406.924 48 417 37.2558 417 23.9993C417 10.7471 406.924 0 394.5 0C382.072 0 372 10.7471 372 23.9993C372 37.2558 382.072 48 394.5 48Z" fill="#FFC930"/>
<path d="M170 197C175.864 164.077 205.228 156.41 221.992 165.882C221.992 165.882 241.625 104.187 297.876 102.744C350.259 101.392 367.634 144.685 367.634 144.685C367.634 144.685 428.01 119.882 439.737 197H170Z" fill="#B0D1C9"/>
<path d="M221.992 165.883C234.72 172.648 238.195 185.725 238.195 185.725" stroke="#CCCCCC" stroke-linecap="round" stroke-linejoin="round"/>
<path d="M367.634 144.684C347.218 154.155 342.527 176.208 342.527 176.208" stroke="#CCCCCC" stroke-linecap="round" stroke-linejoin="round"/>
<path d="M248.966 55.498C246.677 53.4503 246.394 49.8288 248.331 47.4093C250.268 44.9899 253.693 44.6899 255.982 46.7398C258.27 48.7875 258.554 52.4091 256.615 54.8263C254.678 57.2458 251.252 57.5457 248.966 55.498Z" fill="white"/>
<path d="M271.949 44.0598C269.663 42.0121 269.377 38.3906 271.316 35.9711C273.253 33.5539 276.679 33.2517 278.967 35.3016C281.254 37.3493 281.538 40.9708 279.601 43.3903C277.664 45.8075 274.238 46.1075 271.949 44.0598Z" fill="white"/>
<path d="M220.199 112.275V110.057C220.199 104.936 224.127 100.795 228.959 100.795C233.803 100.795 237.718 104.949 237.718 110.057V196.231" stroke="#6F5712" stroke-linecap="round" stroke-linejoin="round"/>
<path d="M216.888 125.564C216.277 123.63 217.266 121.543 219.094 120.897C220.922 120.254 222.898 121.297 223.509 123.23C224.117 125.164 223.13 127.251 221.302 127.897C219.472 128.54 217.496 127.497 216.888 125.564Z" fill="#EFDCD7"/>
<path d="M212.011 119.898L214.231 118.622C215.77 117.743 216.868 116.196 217.246 114.389L217.587 112.765C217.904 111.244 219.331 110.276 220.785 110.611C221.809 110.844 222.602 111.694 222.82 112.765L223.164 114.389C223.542 116.196 224.64 117.743 226.176 118.622L228.397 119.898C230.019 120.826 231.117 122.53 231.362 124.465H209.07C209.29 122.53 210.388 120.839 212.011 119.898Z" fill="#FFC930"/>
<path d="M229.506 120.775H210.84" stroke="#6F5712" stroke-linecap="round" stroke-linejoin="round"/>
<path opacity="0.3" d="M220.772 110.598C221.796 110.83 222.589 111.68 222.809 112.752L223.151 114.378C223.529 116.182 224.627 117.73 226.163 118.608L228.384 119.884C230.006 120.812 231.104 122.517 231.349 124.451H224.81C224.81 119.808 220.186 119.73 220.186 115.034C220.186 111.811 220.186 110.52 220.186 110.52C220.369 110.533 220.564 110.559 220.772 110.598Z" fill="#6F5712"/>
<path d="M426.474 196.93C426.474 186.994 416.737 178.005 407.955 180.612C407.955 180.612 405.897 167.847 392.868 169.445C381.915 170.793 378.329 181.766 378.329 181.766C378.329 181.766 364.375 180.612 363.324 196.93H426.474Z" fill="#03827A"/>
<path opacity="0.3" d="M420.451 184.017C412.802 192.532 403.571 186.223 403.571 186.223C403.571 186.223 395.445 196.455 383.175 193.125C376.184 191.23 373.174 186.904 371.94 182.906C368.115 184.491 363.886 188.223 363.324 196.929H426.474C426.474 191.941 424.008 187.186 420.451 184.017Z" fill="#888786"/>
<path d="M407.955 180.611C405.49 181.411 403.668 183.187 403.668 183.187" stroke="#505050" stroke-linecap="round" stroke-linejoin="round"/>
<path d="M378.328 181.766C377.542 183.824 376.913 185.957 376.465 188.135" stroke="#505050" stroke-linecap="round" stroke-linejoin="round"/>
<path d="M396.086 184.096C399.002 183.128 400.815 180.487 400.135 178.192C399.456 175.898 396.541 174.82 393.625 175.785C390.709 176.75 388.895 179.394 389.574 181.687C390.255 183.983 393.168 185.061 396.086 184.096Z" fill="white"/>
<path d="M395.129 180.856C395.778 180.641 396.184 180.056 396.031 179.547C395.881 179.041 395.234 178.804 394.584 179.019C393.934 179.232 393.531 179.819 393.679 180.325C393.829 180.834 394.479 181.071 395.129 180.856Z" fill="#61CCFF"/>
<path d="M381.557 116.65H333.18V196.946H381.557V116.65Z" fill="#03827A"/>
<path opacity="0.3" d="M333.18 121.43H381.557V128.621L333.18 124.571V121.43Z" fill="#FF32B3"/>
<path d="M344.563 132.709H338.871V193.734H344.563V132.709Z" fill="white"/>
<path d="M368.75 132.871L374.458 132.854L374.442 193.735H368.75V132.871Z" fill="white"/>
<path d="M358.791 132.779H364.499L364.483 193.732H358.791V132.779Z" fill="white"/>
<path d="M348.818 132.797L354.494 132.779L354.524 193.732H348.833L348.818 132.797Z" fill="white"/>
<path opacity="0.3" d="M338.871 132.709V135.207L344.563 135.689V132.709H338.871Z" fill="#9D9D9D"/>
<path opacity="0.3" d="M368.75 132.871V137.708L374.442 138.188L374.458 132.854L368.75 132.871Z" fill="#9D9D9D"/>
<path opacity="0.3" d="M358.791 132.779V136.883L364.483 137.346L364.499 132.779H358.791Z" fill="#9D9D9D"/>
<path opacity="0.3" d="M348.818 132.797L348.833 136.044L354.524 136.527L354.494 132.779L348.818 132.797Z" fill="#9D9D9D"/>
<path d="M330.807 116.598L384.403 116.652V123.076L330.76 123.093L330.807 116.598Z" fill="white"/>
<path d="M337.922 132.709H345.511" stroke="#202020" stroke-linecap="round" stroke-linejoin="round"/>
<path d="M333.18 123.145H381.557" stroke="#202020" stroke-linecap="round" stroke-linejoin="round"/>
<path d="M347.883 132.779H355.472" stroke="#202020" stroke-linecap="round" stroke-linejoin="round"/>
<path d="M357.842 132.779H365.431" stroke="#202020" stroke-linecap="round" stroke-linejoin="round"/>
<path d="M367.803 132.779H375.392" stroke="#202020" stroke-linecap="round" stroke-linejoin="round"/>
<path d="M404.324 196.946H333.18V163.222L404.324 131.102V196.946Z" fill="#61CCFF"/>
<path opacity="0.3" d="M334.856 196.946H333.18V163.222L340.42 159.957L334.856 196.946Z" fill="#003852"/>
<path d="M394.506 196.944H343.014V171.909L394.506 148.66V196.944Z" fill="#FFA0DC"/>
<path opacity="0.3" d="M394.506 151.353L343.014 183.08V171.909L394.506 148.66V151.353Z" fill="#280019"/>
<path d="M343.141 180.887H394.364" stroke="#280019" stroke-linecap="round" stroke-linejoin="round"/>
<path d="M358.791 164.826H394.364" stroke="#280019" stroke-linecap="round" stroke-linejoin="round"/>
<path d="M368.75 196.946V160.365" stroke="#280019" stroke-linecap="round" stroke-linejoin="round"/>
<path d="M381.637 196.948V154.48" stroke="#280019" stroke-linecap="round" stroke-linejoin="round"/>
<path d="M355.867 196.948V166.328" stroke="#280019" stroke-linecap="round" stroke-linejoin="round"/>
<path d="M339.82 173.285L397.685 147.234" stroke="#003852" stroke-linecap="round" stroke-linejoin="round"/>
<path d="M293.338 57.2305V127.07H333.18V57.2305H293.338ZM319.345 76.5033H307.172L303.298 65.2605H323.219L319.345 76.5033Z" fill="#FFA0DC"/>
<path d="M313.195 196.946H293.402C293.371 196.946 293.338 196.909 293.338 196.875V57.6063C293.338 57.5345 293.432 57.5171 293.449 57.5889L313.242 115.044V115.062V196.875C313.259 196.909 313.228 196.946 313.195 196.946Z" fill="#61CCFF"/>
<path d="M313.26 196.947H333.195L333.181 57.3921C333.181 57.3573 333.133 57.3573 333.133 57.3747L313.26 115.045V196.947Z" fill="#231F20"/>
<path opacity="0.3" d="M313.26 196.945H315.347L321.386 91.4707L313.26 115.043V196.945Z" fill="black"/>
<path d="M293.338 189.184H333.18" stroke="#003852" stroke-linecap="round" stroke-linejoin="round"/>
<path d="M293.338 181.422H333.18" stroke="#003852" stroke-linecap="round" stroke-linejoin="round"/>
<path d="M293.338 173.66H333.18" stroke="#003852" stroke-linecap="round" stroke-linejoin="round"/>
<path d="M293.338 165.896H333.18" stroke="#003852" stroke-linecap="round" stroke-linejoin="round"/>
<path d="M293.338 158.137H333.18" stroke="#003852" stroke-linecap="round" stroke-linejoin="round"/>
<path d="M293.338 150.375H333.18" stroke="#003852" stroke-linecap="round" stroke-linejoin="round"/>
<path d="M293.338 142.615H333.18" stroke="#003852" stroke-linecap="round" stroke-linejoin="round"/>
<path d="M293.338 134.852H333.18" stroke="#003852" stroke-linecap="round" stroke-linejoin="round"/>
<path d="M293.338 127.09H333.18" stroke="#003852" stroke-linecap="round" stroke-linejoin="round"/>
<path d="M293.338 119.326H333.18" stroke="#003852" stroke-linecap="round" stroke-linejoin="round"/>
<path d="M317.133 103.803H333.18" stroke="black" stroke-linecap="round" stroke-linejoin="round"/>
<path d="M293.338 103.803H309.385" stroke="#003852" stroke-linecap="round" stroke-linejoin="round"/>
<path d="M314.459 111.564H333.179" stroke="black" stroke-linecap="round" stroke-linejoin="round"/>
<path d="M293.338 111.564H312.058" stroke="#003852" stroke-linecap="round" stroke-linejoin="round"/>
<path d="M319.805 96.0391H333.181" stroke="black" stroke-linecap="round" stroke-linejoin="round"/>
<path d="M293.338 96.0391H306.714" stroke="#003852" stroke-linecap="round" stroke-linejoin="round"/>
<path d="M322.492 88.2793H333.181" stroke="black" stroke-linecap="round" stroke-linejoin="round"/>
<path d="M293.338 88.2793H304.041" stroke="#003852" stroke-linecap="round" stroke-linejoin="round"/>
<path d="M325.164 80.5176H333.179" stroke="black" stroke-linecap="round" stroke-linejoin="round"/>
<path d="M293.338 80.5176H301.37" stroke="#003852" stroke-linecap="round" stroke-linejoin="round"/>
<path d="M327.836 72.7578H333.18" stroke="black" stroke-linecap="round" stroke-linejoin="round"/>
<path d="M293.338 72.7578H298.699" stroke="#003852" stroke-linecap="round" stroke-linejoin="round"/>
<path d="M330.506 64.9941H333.179" stroke="black" stroke-linecap="round" stroke-linejoin="round"/>
<path d="M293.338 64.9941H296.011" stroke="#003852" stroke-linecap="round" stroke-linejoin="round"/>
<path d="M269.859 100.502C277.322 100.502 283.377 107.336 283.377 115.758V180.797H256.344V115.758C256.344 107.336 262.397 100.502 269.859 100.502Z" fill="white"/>
<path d="M269.797 107.016C271.804 107.016 273.416 108.852 273.416 111.102V151.089C273.416 153.354 271.787 155.176 269.797 155.176C267.788 155.176 266.176 153.337 266.176 151.089V111.102C266.159 108.835 267.788 107.016 269.797 107.016Z" fill="#FFA0DC"/>
<path opacity="0.3" d="M267.519 112.707C267.046 112.385 266.588 112.046 266.16 111.67V151.087C266.16 153.352 267.789 155.174 269.781 155.174C271.788 155.174 273.402 153.335 273.402 151.087V114.4C271.521 114.509 269.434 113.955 267.519 112.707Z" fill="#FF32B3"/>
<path d="M293.337 116.562H246.383V196.858H293.337V116.562Z" fill="#FFA0DC"/>
<path d="M279.109 116.562H260.611V196.858H279.109V116.562Z" fill="#231F20"/>
<path d="M255.71 124.5H251.283V163.4H255.71V124.5Z" fill="#61CCFF"/>
<path d="M288.437 124.5H284.01V163.4H288.437V124.5Z" fill="#61CCFF"/>
<path opacity="0.3" d="M288.437 128.354L284.01 129.765V124.5H288.437V128.354Z" fill="#003852"/>
<path opacity="0.3" d="M255.71 128.354L251.283 129.765V124.5H255.71V128.354Z" fill="#003852"/>
<path d="M304.721 140.648H235V196.856H304.721V140.648Z" fill="#FFA0DC"/>
<path d="M304.721 140.648H235V147.072H304.721V140.648Z" fill="white"/>
<path d="M260.61 155.104H240.691V196.858H260.61V155.104Z" fill="#61CCFF"/>
<path d="M299.03 155.104H279.109V196.858H299.03V155.104Z" fill="#61CCFF"/>
<path opacity="0.3" d="M299.03 157.156L279.109 161.49V155.104H299.03V157.156Z" fill="#003852"/>
<path opacity="0.3" d="M260.61 157.156L240.691 161.49V155.104H260.61V157.156Z" fill="#003852"/>
<path d="M260.628 196.446L260.611 155.191" stroke="#003852" stroke-linecap="round" stroke-linejoin="round"/>
<path d="M253.987 196.535L253.971 155.191" stroke="#003852" stroke-linecap="round" stroke-linejoin="round"/>
<path d="M247.332 196.446V155.191" stroke="#003852" stroke-linecap="round" stroke-linejoin="round"/>
<path d="M240.645 196.535L240.706 155.191L240.645 196.535Z" fill="#CA3F94"/>
<path d="M240.645 196.535L240.706 155.191" stroke="#003852" stroke-linecap="round" stroke-linejoin="round"/>
<path d="M299.077 196.535L299.029 155.191" stroke="#003852" stroke-linecap="round" stroke-linejoin="round"/>
<path d="M292.373 196.535L292.39 155.191L292.373 196.535Z" fill="#CA3F94"/>
<path d="M292.373 196.535L292.39 155.191" stroke="#003852" stroke-linecap="round" stroke-linejoin="round"/>
<path d="M285.812 196.463L285.75 155.191" stroke="#003852" stroke-linecap="round" stroke-linejoin="round"/>
<path d="M279.157 196.517L279.109 155.191" stroke="#003852" stroke-linecap="round" stroke-linejoin="round"/>
<path d="M235 147.162H304.721" stroke="#202020" stroke-linecap="round" stroke-linejoin="round"/>
<path d="M256.344 116.293H283.377" stroke="black" stroke-linecap="round" stroke-linejoin="round"/>
<path d="M273.417 124.588H266.303V196.856H273.417V124.588Z" fill="#CA3F94"/>
<path d="M266.303 124.572H273.417" stroke="black" stroke-linecap="round" stroke-linejoin="round"/>
<path d="M133.385 196.278H223.659V156.239L133.385 87.4453V196.278Z" fill="#61CCFF"/>
<path d="M133.385 196.278H223.659V156.239L133.385 87.4453V196.278Z" fill="#E98E07"/>
<path d="M207.68 168.25H163.264V196.278H207.68V168.25Z" fill="#737A92"/>
<path opacity="0.3" d="M163.264 168.25H207.68V169.926L163.264 173.183V168.25Z" fill="#280019"/>
<path d="M185.473 168.25V196.278" stroke="#280019" stroke-linecap="round" stroke-linejoin="round"/>
<path d="M163.264 68.1504H50.7812V158.313H147.637L163.264 68.1504Z" fill="#737A92"/>
<path opacity="0.3" d="M147.637 158.314L155.995 110.102C141.902 112.833 126.627 119.092 111.767 128.865C98.8258 137.384 87.7375 147.539 79.0781 158.314H147.637Z" fill="#F7C4E4"/>
<path d="M163.264 68.1504H50.7812V87.2979L161.154 80.3095L163.264 68.1504Z" fill="#2F365C"/>
<path d="M90.3574 168.25V196.278H141.054L145.911 168.25H90.3574Z" fill="white"/>
<path d="M50.7812 78.1618H161.538L163.264 68.1504H50.7812V78.1618Z" fill="#231F20"/>
<path d="M50.7324 168.324H150.801L152.543 158.314H50.7324V168.324Z" fill="#231F20"/>
<path d="M90.3573 168.25H50.7812V196.278H90.3573V168.25Z" fill="#61CCFF"/>
<path d="M70.5469 78.1621V158.314" stroke="#280019" stroke-linecap="round" stroke-linejoin="round"/>
<path d="M157.99 98.1973H50.8457" stroke="#280019" stroke-linecap="round" stroke-linejoin="round"/>
<path d="M154.588 118.238H50.8457" stroke="#280019" stroke-linecap="round" stroke-linejoin="round"/>
<path d="M151.073 138.273H50.8457" stroke="#280019" stroke-linecap="round" stroke-linejoin="round"/>
<path d="M90.3262 78.1621V158.314" stroke="#280019" stroke-linecap="round" stroke-linejoin="round"/>
<path d="M110.09 78.1621V158.314" stroke="#280019" stroke-linecap="round" stroke-linejoin="round"/>
<path d="M129.711 78.1621V158.314" stroke="#280019" stroke-linecap="round" stroke-linejoin="round"/>
<path d="M149.475 78.1621V147.575" stroke="#280019" stroke-linecap="round" stroke-linejoin="round"/>
<path d="M70.5469 168.322V196.35" stroke="#003852" stroke-linecap="round" stroke-linejoin="round"/>
<path opacity="0.3" d="M145.911 168.25H90.3574V174.547L145.561 170.272L145.911 168.25Z" fill="#E4E4E4"/>
<path d="M67.3496 181.244V183.428" stroke="#003852" stroke-linecap="round" stroke-linejoin="round"/>
<path d="M73.7422 181.244V183.428" stroke="#003852" stroke-linecap="round" stroke-linejoin="round"/>
<path d="M182.23 181.244V183.428" stroke="#280019" stroke-linecap="round" stroke-linejoin="round"/>
<path d="M188.619 181.244V183.428" stroke="#280019" stroke-linecap="round" stroke-linejoin="round"/>
<path d="M160.309 168.25H210.669" stroke="#003852" stroke-linecap="round" stroke-linejoin="round"/>
<path d="M50.7324 168.322H145.801" stroke="black" stroke-linecap="round" stroke-linejoin="round"/>
<path d="M90.3574 168.25V196.278" stroke="#003852" stroke-linecap="round" stroke-linejoin="round"/>
<path d="M110.17 168.322V196.35" stroke="#202020" stroke-linecap="round" stroke-linejoin="round"/>
<path d="M129.664 168.322V196.35" stroke="#202020" stroke-linecap="round" stroke-linejoin="round"/>
<path d="M50.7324 158.314H147.558" stroke="black" stroke-linecap="round" stroke-linejoin="round"/>
<path d="M50.7324 78.2324H161.458" stroke="black" stroke-linecap="round" stroke-linejoin="round"/>
</svg>
