<svg width="287" height="189" viewBox="0 0 287 189" fill="none" xmlns="http://www.w3.org/2000/svg">
<path d="M124.892 116.422H93.9071C87.5638 116.422 82.4316 121.576 82.4316 127.955V163.097C82.4316 169.476 87.5638 174.633 93.9071 174.633H152.364C154.592 174.633 156.348 172.801 156.348 170.629C156.348 168.391 154.592 166.559 152.364 166.559C152.364 166.559 152.364 166.559 152.298 166.559H136.233V127.955C136.299 121.576 131.17 116.422 124.892 116.422Z" fill="#737A92"/>
<path opacity="0.2" d="M124.892 115.812H93.9071C87.5638 115.812 82.4316 120.967 82.4316 127.346V157.604L136.233 144.441V127.346C136.299 120.967 131.17 115.812 124.892 115.812Z" fill="black"/>
<path d="M14.9988 0H165.528C175.384 0 184.835 8.0056 186.523 17.9777L205.018 123.272C206.775 133.178 200.158 141.253 190.304 141.253H39.772C29.9159 141.253 20.4653 133.247 18.7774 123.272L0.281825 17.9777C-1.47183 8.0056 5.14274 0 14.9988 0Z" fill="#737A92"/>
<path d="M25.3931 16.0098H160.737C166.003 16.0098 170.93 20.2823 171.875 25.508L186.524 109.023H32.2132L17.5647 25.508C16.6851 20.2823 20.1294 16.0098 25.3931 16.0098Z" fill="#F3F2F2"/>
<path d="M81.9473 141.299H136.713" stroke="black" stroke-linecap="round" stroke-linejoin="round"/>
<path d="M90.7337 9.8753C89.7966 9.01531 89.635 7.67054 90.3638 6.87081C91.0927 6.07107 92.4436 6.11763 93.3807 6.98036C94.3123 7.83487 94.4822 9.18512 93.7533 9.98486C93.0162 10.7846 91.6654 10.738 90.7337 9.8753Z" fill="black"/>
<path d="M122.483 46.0734C120.774 37.1859 112.189 29.9883 103.297 29.9883C94.4029 29.9883 88.5885 37.1859 90.2983 46.0734C91.5121 52.3755 96.2799 58.0914 102.5 60.7015L108.21 90.3795L115.948 96.9637L121.62 90.3795L120.689 85.5345L115.573 81.2072L119.069 77.1154L118.584 74.5984L113.471 70.271L116.965 66.1792L115.91 60.7015C121.124 58.0914 123.697 52.3755 122.483 46.0734ZM104.714 36.997C107.443 36.997 110.104 39.2072 110.632 41.9597C111.164 44.7095 109.378 46.9197 106.624 46.9197C103.873 46.9197 101.234 44.7095 100.705 41.9597C100.176 39.2072 101.985 36.997 104.714 36.997Z" fill="#414860"/>
<path d="M262.423 164.811C260.193 158.791 254.713 151.158 249.855 144.368C249.085 143.278 248.293 142.213 247.547 141.145L247.498 141.096L269.983 135.67L271 136.166C271.992 137.554 272.762 138.743 273.554 140.005C275.713 143.476 277.644 147.069 279.305 150.81C280.124 152.67 280.894 154.502 281.637 156.46L279.878 170.19L262.423 164.811Z" fill="#AC704E"/>
<path opacity="0.3" d="M252.954 148.703C251.913 147.241 250.872 145.778 249.855 144.343C249.085 143.253 248.737 142.782 247.97 141.716L247.523 141.07L267.63 135.223L267.68 135.321C263.465 137.603 259.673 140.599 256.473 144.143C254.143 146.745 253.078 148.679 253.053 148.703L253.004 148.777L252.954 148.703Z" fill="#1A1A1A"/>
<path d="M218.79 34.1673C218.02 34.4138 217.204 34.5397 216.384 34.5151C214.154 34.5151 212.269 33.7455 211.351 32.4582C209.838 30.4014 209.814 27.9967 211.203 23.6365C211.055 23.4365 209.989 22.0753 210.186 21.2071C210.31 20.7114 211.055 20.3389 212.367 20.1664L212.494 19.7446C213.187 17.6631 213.831 15.8308 214.601 14.3189C215.691 12.1854 218.864 12.7332 221.344 11.791C222.98 11.1446 222.881 11.0707 224.616 11.0953C227.961 11.0953 229.277 10.4764 231.482 12.4593C235.003 15.6308 234.507 20.9332 233.888 24.1815L233.318 24.6005C233.02 26.5095 233.589 32.7047 232.822 36.5199V36.572L219.012 37.3388L218.516 35.8516L218.79 34.1673Z" fill="#AC704E"/>
<path opacity="0.3" d="M218.792 34.1685L220.699 33.3989C220.775 33.3743 220.825 33.3496 220.899 33.3496C221.047 33.3496 221.195 33.4236 221.269 33.5495C221.345 33.6728 221.37 33.8207 221.296 33.9713L220.03 36.8444L218.518 35.8529L218.792 34.1685Z" fill="#1A1A1A"/>
<path d="M217.203 166.175C217.129 164.267 216.905 162.681 216.806 161.988C216.335 158.666 215.765 154.601 215.02 149.622L219.782 108.98L236.217 142.832C236.639 144.714 237.283 147.987 237.532 149.696C238.151 153.736 238.475 157.8 238.524 161.886C238.524 163.275 238.549 164.688 238.499 166.126L230.465 180.349L217.203 166.175Z" fill="#AC704E"/>
<path opacity="0.3" d="M218.045 136.313L219.657 111.384C219.706 110.74 220.575 110.565 220.849 111.137L236.193 142.782C236.218 142.831 236.242 142.88 236.242 142.93C236.344 143.376 236.442 143.896 236.541 144.466C236.738 145.408 236.938 146.474 237.111 147.416C237.16 147.638 237.062 147.86 236.889 148.01L231.905 152.099C231.631 152.321 231.236 152.272 231.012 152.023L218.144 136.784C218.07 136.636 218.021 136.461 218.045 136.313Z" fill="#1A1A1A"/>
<path d="M206.494 184.191L206.371 183.942C206.842 183.274 207.363 182.704 207.982 182.208C208.303 181.959 208.676 181.639 209.122 181.291C210.807 179.951 213.114 178.119 214.676 176.484C216.534 174.501 217.403 170.93 217.205 166.172V166.123H221.817C223.675 166.123 225.385 167.139 226.278 168.75L230.172 175.862C230.196 175.89 230.221 175.89 230.221 175.862L231.237 170.311C231.684 167.906 233.791 166.148 236.244 166.148H238.477V166.197C238.301 172.192 237.682 178.094 236.542 183.967C236.542 183.967 236.542 183.967 236.542 183.991L236.37 184.191H236.345H206.494Z" fill="black"/>
<path d="M178.802 53.2494C177.733 51.1186 177.188 49.6314 177.089 49.4068C176.793 49.3329 174.19 48.6893 171.933 45.3944C171.809 45.6409 171.338 46.3859 170.497 46.3859C169.899 46.3859 169.255 46.0381 168.538 45.3178C166.825 43.6087 166.603 42.3954 166.726 41.6751C166.8 41.1547 167.099 40.7357 167.546 40.4865C167.222 39.6949 167.198 38.9993 167.472 38.4049C167.669 37.9585 168.042 37.5888 168.513 37.3642C167.694 35.6798 168.907 34.5405 169.206 34.2912C168.76 34.0694 168.362 33.8448 167.968 33.6229C165.562 32.3576 164 31.5414 164 30.4514C164 29.9556 164.323 29.3613 165.861 29.3613C167.521 29.3613 170.198 30.1035 173.023 31.3415C175.999 32.6315 178.802 34.3405 181.304 36.3974C183.512 38.2817 186.214 40.9082 189.486 44.329L189.461 44.8248L179.347 53.422L178.802 53.2494Z" fill="#AC704E"/>
<path d="M242.641 84.2495C239.888 80.1357 236.915 78.0049 236.69 77.8296L213.511 77.6571L213.435 77.4599L210.659 64.4724C209.916 65.0448 202.948 70.4211 197.32 70.4211C197.148 70.4211 196.975 70.4211 196.8 70.3965C193.131 70.1719 185.916 67.6713 178.827 53.2733L178.803 53.2486L189.486 44.3282L189.511 44.3529C193.355 48.3899 196.627 52.1339 197.024 52.5776C206.247 40.4857 213.783 38.678 217.452 38.678C217.55 38.678 217.652 38.678 217.726 38.678H217.874C217.898 38.678 217.923 38.678 217.948 38.678L218.518 35.8516H233.221C233.221 35.8516 232.898 37.462 232.824 37.8098C233.369 37.8838 237.931 38.678 241.079 42.1454C242.466 43.6326 247.302 45.5908 249.209 50.4961C250.377 53.4212 248.615 58.4031 249.385 61.1282C250.004 63.333 250.475 65.4145 250.746 67.2249C251.963 74.9566 247.598 81.6229 242.691 84.2248L242.641 84.2495Z" fill="#F4BE53"/>
<path opacity="0.3" d="M236.689 77.8301L236.714 77.4604L239.169 63.3828C241.178 64.1031 241.55 66.6311 241.945 69.3316C242.268 71.4377 242.592 73.5932 243.658 75.3022C245.614 78.4491 247.921 79.4406 247.921 79.4406C246.483 81.4974 244.649 83.1846 242.715 84.2007C242.715 84.2007 236.739 77.8548 236.689 77.8301Z" fill="black"/>
<path d="M250.077 61.1787C249.705 61.1787 249.409 61.1294 249.409 61.1294C249.409 61.1294 248.864 59.3711 248.713 58.9493C247.228 54.8849 246.757 53.2251 244.153 47.5256C242.219 48.4678 239.366 48.9115 237.21 48.8868C234.311 48.8622 231.434 48.3171 229.003 46.756C226.946 45.4688 224.343 42.8176 223.674 37.3646C223.427 35.357 223.477 33.3248 223.773 31.3419L223.797 31.3172C223.797 31.3172 230.442 28.3209 228.979 23.9333C228.609 22.794 227.617 22.1996 226.08 22.1996C223.822 22.1996 221.071 23.4623 221.071 23.4623C221.046 23.4376 218.295 20.1428 220.353 16.7959C220.402 16.722 220.328 16.6234 220.254 16.648C219.608 16.7959 218.988 16.8973 218.32 16.8973C215.172 16.8973 214.602 14.3447 214.602 14.3447V14.32C215.791 11.9893 217.279 10.6007 219.534 9.75988C221.17 9.11625 222.907 8.79307 224.641 8.81772C227.987 8.81772 231.187 9.93242 233.418 11.9153C236.763 14.939 236.119 20.5399 235.377 24.4291L235.352 24.503C236.591 24.3305 237.829 24.2319 239.071 24.2319C243.383 24.2319 251.069 25.3219 254.119 32.5826C255.681 36.3485 256.128 41.9494 252.656 46.4602C253.25 46.6574 257.64 48.2432 258.333 51.6886C258.829 53.8934 258.259 56.1968 256.821 57.9332C255.185 59.8668 252.483 61.1787 250.077 61.1787Z" fill="#231F20"/>
<path d="M215.021 149.621C214.7 147.441 214.377 145.283 214.056 143.201C213.36 138.493 212.716 134.133 212.393 131.802C209.022 107.344 211.998 83.1084 213.434 77.5102V77.4609H236.714H236.738C245.367 84.7955 248.392 93.6912 252.804 106.18C254.987 112.326 256.993 116.166 260.69 122.435C262.301 125.163 264.183 127.442 266.019 129.647C267.011 130.838 267.929 131.953 268.77 133.092C269.614 134.207 270.357 135.198 271.028 136.165L231.212 145.754C231.187 145.754 231.187 145.754 231.187 145.729L221.219 117.034C221.219 117.01 221.169 117.01 221.169 117.034L221.295 148.109C221.295 148.134 221.295 148.134 221.268 148.134L215.021 149.621Z" fill="#CA3F94"/>
<path d="M221.12 117.034L218.07 77.4609" stroke="#322B19" stroke-linecap="round" stroke-linejoin="round"/>
<path d="M205.081 188.08V188.03C205.056 186.568 205.503 185.155 206.347 183.966L206.372 183.941H236.567V183.991C236.321 185.355 235.973 186.716 235.575 188.03L205.081 188.08Z" fill="#615C5F"/>
<path d="M258.928 188.056C258.333 186.716 258.16 185.207 258.481 183.745L258.632 183.594L286 171.699L286.2 171.798C286.496 173.159 286.745 174.575 286.918 175.988V176.013L258.928 188.056Z" fill="#615C5F"/>
<path d="M258.581 183.695C258.531 183.72 258.482 183.67 258.507 183.618C258.682 182.901 258.929 182.183 259.277 181.512C259.425 181.216 259.622 180.844 259.822 180.447C260.789 178.59 262.277 175.788 263.143 173.583C264.011 171.329 263.789 168.478 262.45 164.836C262.45 164.811 262.45 164.786 262.474 164.762L266.889 162.803C268.524 162.086 270.431 162.308 271.895 163.348L277.92 167.662C277.969 167.687 278.019 167.662 278.019 167.613L277.175 162.655C276.78 160.325 278.019 158.021 280.2 157.079L281.663 156.436L281.688 156.485C283.573 161.442 285.085 166.545 286.225 171.724C286.225 171.751 286.225 171.776 286.201 171.8L258.581 183.695Z" fill="black"/>
<path d="M216.709 172.371L221.321 173.338" stroke="#595457" stroke-linecap="round" stroke-linejoin="round"/>
<path d="M215.393 175.566L219.336 178.415" stroke="#595457" stroke-linecap="round" stroke-linejoin="round"/>
<path d="M230.244 175.836L229.055 183.94" stroke="#595457" stroke-linecap="round" stroke-linejoin="round"/>
<path d="M277.994 167.586L279.704 174.649" stroke="#595457" stroke-linecap="round" stroke-linejoin="round"/>
<path d="M263.664 170.51L267.434 170.858" stroke="#595457" stroke-linecap="round" stroke-linejoin="round"/>
<path d="M263.141 173.607L266.985 175.07" stroke="#595457" stroke-linecap="round" stroke-linejoin="round"/>
<path d="M239.168 63.3828L236.713 77.4604H213.434" stroke="black" stroke-linecap="round" stroke-linejoin="round"/>
<path d="M242.392 71.2388L237.906 70.4473" stroke="black" stroke-linecap="round" stroke-linejoin="round"/>
<path d="M197.023 52.5781L194.543 55.8757" stroke="black" stroke-linecap="round" stroke-linejoin="round"/>
<path d="M210.658 64.4743L215.864 59.5938" stroke="black" stroke-linecap="round" stroke-linejoin="round"/>
<path d="M169.205 34.2891C171.238 34.4397 173.345 34.9601 175.206 35.8009" stroke="#1A1A1A" stroke-linecap="round" stroke-linejoin="round"/>
<path d="M168.514 37.3633C170.917 37.5112 173.966 38.5273 173.966 38.5273" stroke="#1A1A1A" stroke-linecap="round" stroke-linejoin="round"/>
<path d="M167.545 40.4878C168.907 40.2413 172.006 41.0821 172.477 41.5039" stroke="#1A1A1A" stroke-linecap="round" stroke-linejoin="round"/>
<path d="M218.791 34.17C220.03 33.6496 220.698 33.4004 220.698 33.4004" stroke="#1A1A1A" stroke-linecap="round" stroke-linejoin="round"/>
<path d="M224.293 26.1387L222.559 27.1301" stroke="#1A1A1A" stroke-linecap="round" stroke-linejoin="round"/>
<path d="M244.152 47.5256C246.629 46.5341 246.854 45.4688 246.854 45.4688" stroke="#181818" stroke-linecap="round" stroke-linejoin="round"/>
<path d="M252.657 46.4609C252.062 47.1785 251.292 47.8468 250.574 48.4411" stroke="#181818" stroke-linecap="round" stroke-linejoin="round"/>
<path d="M235.352 24.5L234.459 28.3672" stroke="#181818" stroke-linecap="round" stroke-linejoin="round"/>
<path d="M214.871 24.9004C214.128 25.8918 212.641 25.8918 212.641 25.8918" stroke="#1A1A1A" stroke-linecap="round" stroke-linejoin="round"/>
<path d="M214.996 21.6801C215.339 21.6801 215.618 21.4008 215.618 21.0612C215.618 20.7188 215.339 20.4395 214.996 20.4395C214.656 20.4395 214.377 20.7188 214.377 21.0612C214.377 21.4008 214.656 21.6801 214.996 21.6801Z" fill="#231F20"/>
<path opacity="0.3" d="M210.658 64.4748L213.856 61.4785C214.056 61.3278 214.724 61.2539 214.971 61.2539C215.319 61.2539 215.618 61.6264 215.84 61.8975C216.062 62.1468 216.138 62.4946 216.062 62.8397C215.294 66.6576 212.469 72.1572 212.442 72.2311L212.343 72.4311L210.658 64.4748Z" fill="black"/>
</svg>
