<svg width="429" height="183" viewBox="0 0 429 183" fill="none" xmlns="http://www.w3.org/2000/svg">
<path d="M311.278 131.84L315.605 181.312H308.726L296.012 127.066H311.185L311.278 131.84Z" fill="#A29EA5"/>
<path d="M260.293 88.0742H251.27C249.676 88.0742 248.4 86.3133 248.4 84.1165V83.4284C248.4 81.2273 249.676 79.4707 251.27 79.4707H260.293C261.887 79.4707 263.162 81.2273 263.162 83.4284V84.1165C263.12 86.3133 261.844 88.0742 260.293 88.0742Z" fill="#A29EA5"/>
<path d="M326.131 88.0742H317.112C315.518 88.0742 314.242 86.3133 314.242 84.1165V83.4284C314.242 81.2273 315.518 79.4707 317.112 79.4707H326.131C327.728 79.4707 329.004 81.2273 329.004 83.4284V84.1165C329.004 86.3133 327.728 88.0742 326.131 88.0742Z" fill="#A29EA5"/>
<path d="M266.538 131.84L262.211 181.312H269.09L281.8 127.066H266.627L266.538 131.84Z" fill="#A29EA5"/>
<path d="M319.432 118.651L324.352 47.1392C324.899 39.2922 320.254 32.4453 314.375 32.4453H262.978C257.057 32.4453 252.454 39.2281 253.001 47.1392L257.922 118.651L259.062 121.348H318.249L319.432 118.651Z" fill="#D8E1E1"/>
<path d="M257.924 118.654C257.924 126.565 262.755 132.968 268.63 132.968H308.817C314.695 132.968 319.434 126.565 319.434 118.654H257.924Z" fill="#A29EA5"/>
<path d="M297.381 132.963H308.773C309.638 132.963 310.503 132.839 311.325 132.586" stroke="black" stroke-width="0.5" stroke-linecap="round" stroke-linejoin="round"/>
<path d="M266.441 132.65C267.128 132.839 267.857 132.963 268.586 132.963H280.385" stroke="black" stroke-width="0.5" stroke-linecap="round" stroke-linejoin="round"/>
<path d="M311.328 55.0547L273.006 100.256" stroke="#BCBCBC" stroke-width="0.5" stroke-linecap="round" stroke-linejoin="round"/>
<path d="M282.754 59.9492L272.002 72.6942" stroke="#BCBCBC" stroke-width="0.5" stroke-linecap="round" stroke-linejoin="round"/>
<path d="M305.81 101.574L300.432 107.917" stroke="#BCBCBC" stroke-width="0.5" stroke-linecap="round" stroke-linejoin="round"/>
<path d="M269.175 55.0547L263.801 61.393" stroke="#BCBCBC" stroke-width="0.5" stroke-linecap="round" stroke-linejoin="round"/>
<path d="M313.372 72.002L296.012 92.47" stroke="#BCBCBC" stroke-width="0.5" stroke-linecap="round" stroke-linejoin="round"/>
<path d="M249.311 158.705C246.434 166.398 240.175 172.506 232.773 174.882C231.082 175.442 228.88 176.331 228.922 178.241C228.965 179.733 230.404 180.712 231.757 181.037C234.506 181.738 237.426 180.943 240.09 179.964C245.251 178.1 250.156 175.536 254.681 172.275C254.639 174.604 254.681 176.143 254.809 178.425C254.894 179.733 255.612 179.451 257.008 179.451C260.052 179.404 260.308 175.211 260.474 173.16C260.858 168.869 261.195 164.582 261.575 160.291C261.323 160.432 260.265 158.752 260.265 158.752H249.311V158.705Z" fill="#F4BE53"/>
<path d="M269.867 158.705C266.99 166.398 260.732 172.506 253.329 174.882C251.639 175.442 249.44 176.331 249.479 178.241C249.522 179.733 250.96 180.712 252.314 181.037C255.063 181.738 257.983 180.943 260.646 179.964C265.807 178.1 270.713 175.536 275.238 172.275C275.195 174.651 275.152 177.028 275.323 179.404C275.408 180.853 276.296 181.832 277.735 181.644C281.077 181.272 281.752 164.535 282.132 160.244C281.88 160.385 281.159 159.453 281.159 159.453L269.867 158.705Z" fill="#F4BE53"/>
<path d="M260.643 171.061C258.91 172.505 255.695 174.138 253.326 174.881" stroke="black" stroke-width="0.5" stroke-linecap="round" stroke-linejoin="round"/>
<path d="M312.924 33.9033C312.754 33.9033 312.587 33.9033 312.417 33.9503C312.037 31.4799 310.303 29.4755 308.105 28.7745C308.527 27.8898 308.779 26.8641 308.779 25.8383C308.779 22.2482 306.073 19.3119 302.688 19.3119C301.928 19.3119 301.253 19.453 300.574 19.7308C300.574 19.547 300.617 19.3589 300.617 19.1709C300.617 15.5807 297.911 12.6445 294.525 12.6445C291.524 12.6445 289.027 15.0251 288.519 18.1024C287.588 17.4485 286.448 17.0296 285.223 17.0296C281.881 17.0296 279.131 19.9188 279.131 23.556C279.131 25.0946 279.639 26.5392 280.485 27.659C277.902 28.4027 276.045 30.9201 276.045 33.9033C276.045 37.3097 278.496 40.1048 281.625 40.3826V40.4296H303.029C304.002 41.1306 309.881 46.9133 312.882 46.9133C316.224 46.9133 318.973 44.0198 318.973 40.3826C319.016 36.8395 316.31 33.9033 312.924 33.9033Z" fill="#283444"/>
<path d="M304.464 35.1621H278.325C275.615 35.1621 273.164 36.7007 271.811 39.1711L252.861 73.6707C251.973 75.299 251.508 77.2138 251.508 79.0772C251.508 85.0437 257.386 91.2922 262.97 91.2922H270.624V98.0494H311.567V94.3695V87.42C316.601 85.6976 320.238 80.6629 320.238 74.6964V52.0358C320.238 42.7142 313.177 35.1621 304.464 35.1621Z" fill="#03827A"/>
<path d="M294.899 94.4219H291.305H270.622C260.641 94.4219 256.073 102.765 254.255 113.253L245.922 161.737H262.588H266.647H283.313L290.716 118.711H294.69C303.996 118.711 311.565 110.599 311.565 100.619V94.4219H294.899Z" fill="#0168BF"/>
<path d="M277.225 49.0078C275.829 51.4354 274.391 53.8118 274.096 56.2821C273.797 58.7525 274.305 60.3851 275.151 62.6674C275.872 64.5822 276.888 66.3516 277.31 68.3561C277.818 70.6897 277.69 72.1343 277.268 74.5106" stroke="black" stroke-width="0.5" stroke-linecap="round" stroke-linejoin="round"/>
<path d="M295.324 64.0684L298.581 82.3396C298.624 82.4806 298.624 82.6687 298.667 82.8098C299.388 85.699 301.881 87.4214 304.588 87.4214H311.567" stroke="black" stroke-width="0.5" stroke-linecap="round" stroke-linejoin="round"/>
<path d="M309.834 71.2017L306.871 56.1445" stroke="black" stroke-width="0.5" stroke-linecap="round" stroke-linejoin="round"/>
<path d="M291.309 94.4219C281.328 94.4219 272.743 102.765 270.925 113.253L262.592 161.737" stroke="black" stroke-width="0.5" stroke-linecap="round" stroke-linejoin="round"/>
<path d="M300.784 33.6242C297.694 33.6242 295.158 31.1539 294.778 27.9356H294.735C292.409 27.9356 290.377 26.538 289.361 24.4395C288.686 26.1661 287.12 27.3757 285.258 27.3757C284.921 27.3757 284.626 27.3286 284.328 27.2816C283.948 28.3544 283.738 29.4742 283.738 30.641C283.738 35.9065 287.713 40.1976 292.661 40.1976C296.639 40.1976 299.978 37.4452 301.121 33.5772C300.993 33.6242 300.908 33.6242 300.784 33.6242Z" fill="#FD9DA6"/>
<path d="M287.463 30.3139C287.859 30.3139 288.181 29.9805 288.181 29.5702C288.181 29.1599 287.859 28.8223 287.463 28.8223C287.064 28.8223 286.742 29.1599 286.742 29.5702C286.742 29.9805 287.064 30.3139 287.463 30.3139Z" fill="black"/>
<path d="M290.635 30.3139C291.031 30.3139 291.353 29.9805 291.353 29.5702C291.353 29.1599 291.031 28.8223 290.635 28.8223C290.236 28.8223 289.914 29.1599 289.914 29.5702C289.914 29.9805 290.236 30.3139 290.635 30.3139Z" fill="black"/>
<path d="M288.983 31.5293H287.63C287.165 31.5293 286.742 31.9481 286.742 32.461C286.742 32.9739 287.122 33.3927 287.63 33.3927H288.983" stroke="black" stroke-width="0.5" stroke-linecap="round" stroke-linejoin="round"/>
<path d="M288.984 34.8809H291.187" stroke="black" stroke-width="0.5" stroke-linecap="round" stroke-linejoin="round"/>
<path d="M291.775 31.1562L293.509 34.4643" stroke="black" stroke-width="0.5" stroke-linecap="round" stroke-linejoin="round"/>
<path d="M274.348 69.3826L268.893 57.3086" stroke="black" stroke-width="0.5" stroke-linecap="round" stroke-linejoin="round"/>
<path d="M312.076 63.4135L315.205 55.0664" stroke="black" stroke-width="0.5" stroke-linecap="round" stroke-linejoin="round"/>
<path d="M276.082 119.402C276.509 125.604 277.777 131.711 279.805 137.49" stroke="black" stroke-width="0.5" stroke-linecap="round" stroke-linejoin="round"/>
<path d="M272.656 139.871C272.784 143.273 273.587 146.628 275.025 149.658" stroke="black" stroke-width="0.5" stroke-linecap="round" stroke-linejoin="round"/>
<path d="M261.239 126.906C260.224 128.308 259.25 129.753 258.234 131.15" stroke="black" stroke-width="0.5" stroke-linecap="round" stroke-linejoin="round"/>
<path d="M294.27 86.8684C295.286 86.8684 296.089 85.9794 296.089 84.8596C296.089 83.7441 295.244 82.8551 294.228 82.8551C295.286 82.8551 296.089 81.9704 296.089 80.8506C296.089 79.7351 295.244 78.8461 294.228 78.8461H289.28H282.595L281.075 74.1875C281.075 74.1875 279.001 75.397 278.493 75.6321L276.969 90.9201H294.313C295.368 90.9201 296.174 90.0354 296.174 88.9156C296.174 87.8001 295.325 86.8684 294.27 86.8684Z" fill="#FD9DA6"/>
<path d="M294.226 86.8711H287.541" stroke="black" stroke-width="0.5" stroke-linecap="round" stroke-linejoin="round"/>
<path d="M294.226 82.855L287.541 82.8125" stroke="black" stroke-width="0.5" stroke-linecap="round" stroke-linejoin="round"/>
<path d="M270.625 91.2987L276.969 90.9219" stroke="black" stroke-width="0.5" stroke-linecap="round" stroke-linejoin="round"/>
<path d="M304.126 40.8522C303.917 39.7325 303.029 38.9375 301.97 38.9375H294.145C293.3 38.9375 292.412 39.8692 292.412 41.036C292.412 42.2028 293.086 43.1345 294.145 43.1345L298.542 43.1816H298.67C297.36 43.1816 296.301 44.3013 296.301 45.6989L296.386 46.5366C296.22 46.4896 296.049 46.4426 295.836 46.4426C294.653 46.4426 293.722 47.4684 293.722 48.7292V50.3148C293.637 50.3148 293.552 50.3148 293.428 50.3148C292.241 50.3148 291.311 51.3406 291.311 52.5971V60.5724C291.311 61.8289 292.241 62.8547 293.428 62.8547C294.06 62.8547 294.61 62.6196 294.99 62.1067L295.37 64.1582L306.875 56.1403L304.126 40.8522Z" fill="#FD9DA6"/>
<path d="M297.105 38.9375H294.143C293.507 38.9375 292.875 39.4504 292.576 40.1983" stroke="black" stroke-width="0.5" stroke-linecap="round" stroke-linejoin="round"/>
<path d="M293.721 50.3164C294.357 50.4104 294.903 50.6882 295.202 51.2481" stroke="black" stroke-width="0.5" stroke-linecap="round" stroke-linejoin="round"/>
<path d="M296.383 46.5371C297.019 46.7252 297.399 47.144 297.736 47.7509" stroke="black" stroke-width="0.5" stroke-linecap="round" stroke-linejoin="round"/>
<path d="M295.201 51.252L297.4 55.355" stroke="black" stroke-width="0.5" stroke-linecap="round" stroke-linejoin="round"/>
<path d="M297.738 47.752L299.813 51.4789" stroke="black" stroke-width="0.5" stroke-linecap="round" stroke-linejoin="round"/>
<path d="M295.326 64.0731L293.721 55.1191" stroke="black" stroke-width="0.5" stroke-linecap="round" stroke-linejoin="round"/>
<path d="M298.537 43.1816C299.301 43.1816 299.933 43.5535 300.398 44.3955L302.178 48.0753" stroke="black" stroke-width="0.5" stroke-linecap="round" stroke-linejoin="round"/>
<path d="M269.908 69.1973L278.365 75.5869" stroke="black" stroke-width="0.5" stroke-linecap="round" stroke-linejoin="round"/>
<path d="M156.559 130.978L160.886 181.783H154.008L141.293 126.08H156.466L156.559 130.978Z" fill="#A29EA5"/>
<path d="M105.574 86.0433H96.551C94.9574 86.0433 93.6816 84.2354 93.6816 81.9788V81.2693C93.6816 79.0169 94.9574 77.209 96.551 77.209H105.574C107.168 77.209 108.444 79.0169 108.444 81.2693V81.9788C108.397 84.2354 107.121 86.0433 105.574 86.0433Z" fill="#A29EA5"/>
<path d="M171.412 86.0433H162.393C160.799 86.0433 159.523 84.2354 159.523 81.9788V81.2693C159.523 79.0169 160.799 77.209 162.393 77.209H171.412C173.01 77.209 174.285 79.0169 174.285 81.2693V81.9788C174.285 84.2354 173.01 86.0433 171.412 86.0433Z" fill="#A29EA5"/>
<path d="M111.818 130.978L107.486 181.783H114.369L127.08 126.08H111.907L111.818 130.978Z" fill="#A29EA5"/>
<path d="M164.713 117.442L169.634 44.011C170.18 35.9502 165.535 28.9238 159.657 28.9238H108.259C102.334 28.9238 97.7357 35.8861 98.2824 44.011L103.203 117.442L104.339 120.212H163.53L164.713 117.442Z" fill="#D8E1E1"/>
<path d="M103.205 117.439C103.205 125.56 108.033 132.138 113.911 132.138H154.098C159.977 132.138 164.715 125.56 164.715 117.439H103.205Z" fill="#A29EA5"/>
<path d="M142.662 132.144H154.051C154.919 132.144 155.784 132.015 156.606 131.754" stroke="black" stroke-width="0.5" stroke-linecap="round" stroke-linejoin="round"/>
<path d="M111.723 131.814C112.405 132.007 113.134 132.136 113.863 132.136H125.666" stroke="black" stroke-width="0.5" stroke-linecap="round" stroke-linejoin="round"/>
<path d="M156.609 52.1328L118.287 98.5525" stroke="#BCBCBC" stroke-width="0.5" stroke-linecap="round" stroke-linejoin="round"/>
<path d="M128.036 57.1602L117.283 70.2471" stroke="#BCBCBC" stroke-width="0.5" stroke-linecap="round" stroke-linejoin="round"/>
<path d="M151.091 99.9023L145.713 106.412" stroke="#BCBCBC" stroke-width="0.5" stroke-linecap="round" stroke-linejoin="round"/>
<path d="M114.456 52.1328L109.082 58.6463" stroke="#BCBCBC" stroke-width="0.5" stroke-linecap="round" stroke-linejoin="round"/>
<path d="M158.653 69.5391L141.293 90.5585" stroke="#BCBCBC" stroke-width="0.5" stroke-linecap="round" stroke-linejoin="round"/>
<path d="M184.614 181.635L140.371 181.785L146.909 161.154L148.611 155.825V155.773L163.702 156.265C164.059 159.868 166.033 163.274 168.852 165.249C173.152 168.262 179.108 168.164 182.691 172.109C184.971 174.626 184.661 177.836 184.614 181.635Z" fill="white"/>
<path d="M155.193 157.696L146.906 161.154L148.387 155.824L154.925 156.021C154.968 156.611 155.057 157.106 155.193 157.696Z" fill="black"/>
<path d="M149.682 168.358C149.682 165.84 151.566 163.814 153.939 163.814C156.266 163.814 158.193 165.84 158.193 168.358C158.193 169.888 157.476 171.221 156.401 172.059" stroke="black" stroke-width="0.5" stroke-linecap="round" stroke-linejoin="round"/>
<path d="M165.984 162.389L163.029 165.598" stroke="black" stroke-width="0.5" stroke-linecap="round" stroke-linejoin="round"/>
<path d="M168.491 165.053L164.102 169.741" stroke="black" stroke-width="0.5" stroke-linecap="round" stroke-linejoin="round"/>
<path d="M171.582 166.877L168.402 170.283" stroke="black" stroke-width="0.5" stroke-linecap="round" stroke-linejoin="round"/>
<path d="M158.106 181.635C158.149 177.836 158.463 174.626 156.179 172.109C153.356 169.001 148.971 168.407 145.163 166.779C144.178 166.386 143.24 165.89 142.344 165.249C139.521 163.274 137.551 159.868 137.195 156.265L122.103 155.773L113.863 181.785L158.106 181.635Z" fill="white"/>
<path d="M137.589 157.745C137.457 157.202 137.279 156.262 137.232 155.77L121.92 155.672L119.008 165.442L137.5 157.843C137.589 157.843 137.589 157.792 137.589 157.745Z" fill="black"/>
<path d="M127.338 172.897C129.687 172.897 131.591 170.862 131.591 168.358C131.591 165.849 129.687 163.814 127.338 163.814C124.992 163.814 123.084 165.849 123.084 168.358C123.084 170.862 124.992 172.897 127.338 172.897Z" stroke="black" stroke-width="0.5" stroke-linecap="round" stroke-linejoin="round"/>
<path d="M138.755 161.152L135.439 164.704" stroke="black" stroke-width="0.5" stroke-linecap="round" stroke-linejoin="round"/>
<path d="M140.954 164.162L136.564 168.851" stroke="black" stroke-width="0.5" stroke-linecap="round" stroke-linejoin="round"/>
<path d="M143.858 166.188L140.814 169.393" stroke="black" stroke-width="0.5" stroke-linecap="round" stroke-linejoin="round"/>
<path d="M184.384 177.293H115.383" stroke="black" stroke-width="0.5" stroke-linecap="round" stroke-linejoin="round"/>
<path d="M169.431 89.4374H164.282L138.76 85.1934L112.652 89.4374C110.771 92.348 109.697 95.9039 109.697 99.7035C109.697 109.623 117.22 117.671 126.487 117.671C127.565 117.671 128.593 117.573 129.624 117.372L116.816 157.898H144.983H167.147L182.596 109.034C185.597 99.3573 178.923 89.4374 169.431 89.4374Z" fill="#0168BF"/>
<path d="M163.605 57.9966L164.323 89.436H112.646L113.185 57.0606L103.379 50.2479C104.856 42.6958 108.618 35.9813 113.81 30.8013C118.602 26.0144 124.601 22.5098 131.185 20.8301C134.097 20.0907 137.094 23.1509 140.231 23.1509C144.124 23.1509 147.89 20.3856 151.469 21.6678C163.652 26.0615 173.412 37.2678 177.084 50.1966L163.605 57.9966Z" fill="#70002E"/>
<path d="M151.426 21.6679L146.68 29.9124L141.574 38.6997L131.186 20.8302C134.098 20.0908 137.095 19.6934 140.232 19.6934C142.427 19.6934 144.621 19.9412 146.723 20.3387C148.336 20.6806 149.903 21.0781 151.426 21.6679Z" fill="#BE6640"/>
<path d="M141.574 38.7012L141.621 81.7401" stroke="black" stroke-width="0.5" stroke-linecap="round" stroke-linejoin="round"/>
<path d="M178.608 56.0735L177.084 50.248L159.709 57.9968L161.904 66.4849H181.295L178.608 56.0735Z" fill="#BE6640"/>
<path d="M122.277 57.0608L103.382 50.248L99.3959 70.5323C98.1396 76.8022 102.618 82.726 108.621 82.726H141.041C142.115 82.726 142.964 81.7857 142.964 80.6531C142.964 79.5162 142.115 78.5802 141.041 78.5802H140.994C142.069 78.5802 142.922 77.64 142.922 76.5074C142.922 75.3705 142.069 74.4302 140.994 74.4302C142.069 74.4302 142.922 73.4942 142.922 72.3573C142.922 71.2247 142.069 70.2844 140.994 70.2844H135.892H128.951L128.008 67.0277C124.561 68.6561 117.888 68.9552 117.888 68.9552L122.277 57.0608Z" fill="#BE6640"/>
<path d="M125.368 43.0898L122.277 57.0615" stroke="black" stroke-width="0.5" stroke-linecap="round" stroke-linejoin="round"/>
<path d="M140.992 78.5801H134.098" stroke="black" stroke-width="0.5" stroke-linecap="round" stroke-linejoin="round"/>
<path d="M140.992 74.4277L134.098 74.4785" stroke="black" stroke-width="0.5" stroke-linecap="round" stroke-linejoin="round"/>
<path d="M181.97 69.1552L181.299 66.4883H174.176H167.104H166.386H164.149C163.16 66.4883 162.358 67.3773 162.358 68.4158C162.358 69.5014 163.16 70.3391 164.149 70.3391H155.056C153.982 70.3391 153.133 71.2751 153.133 72.412C153.133 73.5489 153.982 74.4849 155.056 74.4849C153.982 74.4849 153.133 75.4209 153.133 76.5578C153.133 77.6946 153.982 78.6306 155.056 78.6306C153.982 78.6306 153.133 79.5709 153.133 80.7035C153.133 81.8404 153.982 82.7764 155.056 82.7764H172.342C178.969 82.7294 183.762 75.9637 181.97 69.1552Z" fill="#BE6640"/>
<path d="M174.179 66.4883H167.106H166.389" stroke="black" stroke-width="0.5" stroke-linecap="round" stroke-linejoin="round"/>
<path d="M155.057 74.4805H161.73" stroke="black" stroke-width="0.5" stroke-linecap="round" stroke-linejoin="round"/>
<path d="M155.057 78.6269L161.73 78.5801" stroke="black" stroke-width="0.5" stroke-linecap="round" stroke-linejoin="round"/>
<path d="M164.148 70.3359H168.402" stroke="black" stroke-width="0.5" stroke-linecap="round" stroke-linejoin="round"/>
<path d="M117.89 68.957H111.713" stroke="black" stroke-width="0.5" stroke-linecap="round" stroke-linejoin="round"/>
<path d="M119.678 68.8086C119.143 68.86 118.426 68.9586 117.887 68.9586" stroke="black" stroke-width="0.5" stroke-linecap="round" stroke-linejoin="round"/>
<path d="M147.264 89.4355C156.714 89.4355 163.383 99.4067 160.386 108.98L144.934 157.845" stroke="black" stroke-width="0.5" stroke-linecap="round" stroke-linejoin="round"/>
<path d="M158.102 181.634C158.144 177.834 158.458 174.624 156.174 172.107C153.351 169 148.966 168.406 145.158 166.777" stroke="black" stroke-width="0.5" stroke-linecap="round" stroke-linejoin="round"/>
<path d="M131.189 20.832L128.549 35.4918L137.324 31.393" stroke="black" stroke-width="0.5" stroke-linecap="round" stroke-linejoin="round"/>
<path d="M159.713 57.9975L156.088 43.0898" stroke="black" stroke-width="0.5" stroke-linecap="round" stroke-linejoin="round"/>
<path d="M151.071 9.72693C150.94 9.72693 150.85 9.72693 150.715 9.72693C149.191 5.87608 145.612 3.16211 141.447 3.16211C137.283 3.16211 133.7 5.87608 132.176 9.72693C132.04 9.72693 131.951 9.72693 131.819 9.72693C129.981 9.72693 128.504 11.304 128.504 13.2786C128.504 15.2062 129.939 16.7833 131.73 16.8346C132.265 18.9544 133.832 20.3862 135.309 21.771C137.058 23.3481 138.938 24.0875 141.447 24.0875C143.595 24.0875 144.894 23.7413 146.55 22.5104C148.431 21.0786 150.536 19.2536 151.164 16.8346C152.952 16.7833 154.387 15.2062 154.387 13.2786C154.433 11.304 152.909 9.72693 151.071 9.72693Z" fill="#BE6640"/>
<path d="M151.47 21.6671C151.47 21.6671 149.187 25.9625 146.682 29.9116C142.339 29.762 138.667 26.7019 136.65 22.7527L146.724 20.3379C148.384 20.6798 149.95 21.0773 151.47 21.6671Z" fill="black"/>
<path d="M131.453 15.1096C131.411 14.9087 131.543 14.7121 131.725 14.6651C132.082 14.5625 132.438 14.5625 132.799 14.5625C135.172 14.5625 137.188 16.1952 137.991 18.4133C138.887 17.4261 140.096 16.8362 141.485 16.8362C142.873 16.8362 144.125 17.4773 145.021 18.4646C145.785 16.1951 147.844 14.5625 150.217 14.5625C150.574 14.5625 150.977 14.6138 151.338 14.7121C151.469 14.7634 151.562 14.9087 151.516 15.0583L151.202 16.8833C150.039 21.4735 146.142 24.8329 141.485 24.8329C136.828 24.8329 132.931 21.4735 131.767 16.8833L131.453 15.1096Z" fill="#723A15"/>
<path d="M132.174 9.72656C131.639 11.0088 131.414 12.4405 131.414 13.9706C131.414 14.9579 131.546 15.9452 131.771 16.8342" stroke="black" stroke-width="0.5" stroke-linecap="round" stroke-linejoin="round"/>
<path d="M151.203 16.8342C151.428 15.8939 151.607 14.9066 151.607 13.9193C151.607 12.4405 151.25 11.0088 150.711 9.72656" stroke="black" stroke-width="0.5" stroke-linecap="round" stroke-linejoin="round"/>
<path d="M138.127 0.841797C138.755 1.82909 139.112 3.01298 139.112 4.24816" stroke="black" stroke-width="0.5" stroke-linecap="round" stroke-linejoin="round"/>
<path d="M141.309 1.33398C141.665 2.32127 141.848 3.35556 141.754 4.39414" stroke="black" stroke-width="0.5" stroke-linecap="round" stroke-linejoin="round"/>
<path d="M145.564 2.32227C144.846 2.96336 144.265 3.74977 143.861 4.63875" stroke="black" stroke-width="0.5" stroke-linecap="round" stroke-linejoin="round"/>
<path d="M142.158 12.2945C142.608 12.2945 142.965 11.9184 142.965 11.4568C142.965 10.991 142.608 10.6191 142.158 10.6191C141.716 10.6191 141.355 10.991 141.355 11.4568C141.355 11.9184 141.716 12.2945 142.158 12.2945Z" fill="black"/>
<path d="M145.74 12.2945C146.19 12.2945 146.547 11.9184 146.547 11.4568C146.547 10.991 146.19 10.6191 145.74 10.6191C145.298 10.6191 144.934 10.991 144.934 11.4568C144.934 11.9184 145.298 12.2945 145.74 12.2945Z" fill="black"/>
<path d="M142.963 13.2793H144.173C144.712 13.2793 145.158 13.7238 145.158 14.3179C145.158 14.9077 144.712 15.3522 144.173 15.3522H142.963" stroke="black" stroke-width="0.5" stroke-linecap="round" stroke-linejoin="round"/>
<path d="M140.678 18.3652C141.395 19.1516 142.469 19.5491 143.501 19.3525" stroke="black" stroke-width="0.5" stroke-linecap="round" stroke-linejoin="round"/>
<path d="M139.969 6.80859H143.73" stroke="black" stroke-width="0.5" stroke-linecap="round" stroke-linejoin="round"/>
<path d="M149.504 111.057C145.118 120.831 138.891 129.666 131.279 136.871C131.504 136.624 131.772 136.427 131.997 136.179" stroke="black" stroke-width="0.5" stroke-linecap="round" stroke-linejoin="round"/>
<path d="M144.576 136.871C140.857 140.179 137.189 143.483 133.471 146.791" stroke="black" stroke-width="0.5" stroke-linecap="round" stroke-linejoin="round"/>
<path d="M167.236 100.299C169.117 104.098 171.986 107.406 175.387 109.676" stroke="black" stroke-width="0.5" stroke-linecap="round" stroke-linejoin="round"/>
<path d="M170.598 122.555C166.968 129.316 162.222 135.389 156.623 140.373" stroke="black" stroke-width="0.5" stroke-linecap="round" stroke-linejoin="round"/>
<path d="M126.172 106.661C130.647 104.345 135.172 102.024 139.65 99.6562" stroke="black" stroke-width="0.5" stroke-linecap="round" stroke-linejoin="round"/>
<path d="M151.116 21.8223L154.698 35.4947L145.877 31.2977" stroke="black" stroke-width="0.5" stroke-linecap="round" stroke-linejoin="round"/>
<path d="M147.398 4.40039C146.995 4.69529 146.592 5.04149 146.32 5.48598" stroke="black" stroke-width="0.5" stroke-linecap="round" stroke-linejoin="round"/>
<path d="M33.5564 124.828L25.0723 181.304H28.7754L31.4896 163.247L31.9511 161.302L32.1023 159.165L37.2556 124.828H33.5564Z" fill="black"/>
<path d="M75.5645 124.828L84.0331 181.232H87.7361L79.2675 124.832L75.5645 124.828Z" fill="black"/>
<path d="M37.6216 119.394L28.2573 84.3858L24.4844 84.2832L34.1279 120.185L37.6216 119.394Z" fill="#A0A2A2"/>
<path d="M35.8167 112.641C35.8167 112.641 36.0144 113.329 36.0765 113.56C36.1463 113.833 36.3556 114.649 36.3556 114.649L34.1299 120.18C34.1299 120.18 33.5793 118.304 33.4087 117.675C33.2846 117.209 32.9473 115.803 32.9473 115.803L35.8167 112.641Z" fill="black"/>
<path d="M90.4177 120.184C90.4216 119.205 90.2471 118.235 89.9097 117.333C89.5685 116.427 89.0722 115.606 88.444 114.914C87.8159 114.221 87.0714 113.674 86.2454 113.298C85.4273 112.926 84.5471 112.734 83.6591 112.738H40.8895C40.0016 112.734 39.1214 112.926 38.3032 113.298C37.4811 113.674 36.7328 114.221 36.1046 114.914C35.4764 115.606 34.984 116.427 34.6428 117.333C34.3015 118.235 34.127 119.205 34.1309 120.184L61.5492 124.825L90.4177 120.184Z" fill="#03827A"/>
<path d="M30.616 120.778V125.026C30.6121 125.103 30.6237 125.184 30.6547 125.253C30.678 125.325 30.7168 125.394 30.7672 125.445C30.8176 125.5 30.8758 125.543 30.9417 125.573C31.0076 125.603 31.0813 125.616 31.1511 125.616H47.9913L42.9544 159.162H32.105L31.4923 163.244H42.3417L39.6274 181.301H43.3305L46.0448 163.244H93.2813L95.9607 181.101H99.6677L91.3348 125.616H93.3589C93.4985 125.612 93.6342 125.552 93.7311 125.441C93.8319 125.329 93.8901 125.184 93.8901 125.026V120.778C93.8901 120.62 93.8319 120.474 93.7311 120.363C93.6342 120.252 93.4985 120.192 93.3589 120.184H31.1123C31.0425 120.188 30.9766 120.205 30.9184 120.239C30.8525 120.269 30.7982 120.312 30.7517 120.367C30.709 120.423 30.6703 120.487 30.647 120.555C30.6237 120.628 30.6121 120.701 30.616 120.778ZM51.6944 125.616H87.6317L92.6687 159.162H46.6575L51.6944 125.616Z" fill="#A0A2A2"/>
<path d="M93.2787 163.248L92.666 159.166" stroke="black" stroke-width="0.5" stroke-linecap="round" stroke-linejoin="round"/>
<path d="M63.205 86.3847C63.6354 86.389 64.0542 86.2821 64.438 86.0727C64.818 85.8633 65.1515 85.5555 65.4074 85.1794C65.6633 84.8033 65.8378 84.3674 65.9115 83.9015C65.9891 83.4399 65.9619 82.9655 65.8417 82.5125L57.2141 50.1884C57.0474 49.5558 56.7023 49.0002 56.2292 48.607C55.7523 48.2095 55.1706 48.0001 54.5774 48.0001H12.4554C12.0288 47.9958 11.6062 48.1027 11.2262 48.3121C10.8423 48.5215 10.5088 48.825 10.2529 49.2054C9.99697 49.5815 9.82637 50.0174 9.74881 50.479C9.67514 50.9449 9.69841 51.4193 9.82249 51.8723L18.2097 83.1621C18.454 84.081 18.9619 84.8888 19.6599 85.4615C20.354 86.0342 21.2031 86.3462 22.0717 86.3462L63.205 86.3847Z" fill="#03827A"/>
<path d="M16.1978 48.0001C15.7712 47.9958 15.3486 48.1027 14.9686 48.3121C14.5847 48.5215 14.2551 48.8293 13.9992 49.2054C13.7394 49.5815 13.5688 50.0174 13.4912 50.479C13.4175 50.9449 13.4408 51.4193 13.561 51.8723L22.8168 86.3462" stroke="black" stroke-width="0.5" stroke-linecap="round" stroke-linejoin="round"/>
<path d="M35.3509 163.246L39.2633 159.164C39.2633 159.164 35.347 159.139 33.5362 159.139C31.5896 159.139 29.9766 159.164 29.9766 159.164V163.246C29.9766 163.246 31.8068 163.267 32.4156 163.267C33.1484 163.267 35.3509 163.246 35.3509 163.246Z" fill="black"/>
<path d="M46.6576 159.166L46.0449 163.248" stroke="black" stroke-width="0.5" stroke-linecap="round" stroke-linejoin="round"/>
<path d="M42.9486 159.166L42.3359 163.248" stroke="black" stroke-width="0.5" stroke-linecap="round" stroke-linejoin="round"/>
<path d="M51.6953 125.615H47.9922" stroke="black" stroke-width="0.5" stroke-linecap="round" stroke-linejoin="round"/>
<path d="M126.12 59.0127C125.965 58.5811 125.674 58.222 125.298 58.0083C124.922 57.7946 124.484 57.7348 124.073 57.8459C118.225 59.5384 112.374 54.8627 112.374 54.8627L114.824 51.8795C114.991 51.6786 115.119 51.4392 115.205 51.1785C115.286 50.9221 115.325 50.6443 115.309 50.3707C115.298 50.0972 115.236 49.828 115.131 49.5801C115.022 49.3322 114.871 49.1099 114.685 48.9261C114.499 48.7424 114.282 48.6013 114.049 48.5116C113.812 48.4218 113.564 48.3833 113.312 48.4004C113.064 48.4133 112.82 48.4859 112.595 48.6056C112.374 48.7253 112.172 48.892 112.006 49.0971L96.1114 68.4539C96.1075 68.4625 96.0997 68.4668 96.092 68.471C96.0842 68.471 96.0765 68.471 96.0687 68.471C96.0609 68.471 96.0532 68.4668 96.0493 68.4625C96.0416 68.4582 96.0377 68.4497 96.0338 68.4411L90.7254 55.0294L90.0507 54.5721L81.0664 64.8211L84.9827 75.3692C85.6574 77.1899 86.7393 78.7927 88.1275 80.0364C89.5117 81.2759 91.1636 82.105 92.9201 82.4555C94.6805 82.806 96.4875 82.6606 98.182 82.0366C99.8765 81.4084 101.396 80.3228 102.606 78.8739L112.099 67.5393C116.158 68.83 119.28 68.4881 120.525 67.8855C121.696 67.2401 122.204 66.1716 122.425 65.0048L122.618 64.9792C122.948 64.9407 123.518 64.4407 123.774 64.2355C124.468 63.7526 124.891 62.6371 124.712 61.6028L125.023 61.5173C125.247 61.4318 125.453 61.3036 125.631 61.1326C125.806 60.9617 125.949 60.7522 126.054 60.5214C126.155 60.2906 126.213 60.0342 126.225 59.7778C126.236 59.5171 126.201 59.2563 126.12 59.017" fill="#FD9DA6"/>
<path d="M88.1917 57.1797L81.1035 64.8899C81.1035 64.8899 81.879 67.0953 82.1466 67.8262C82.4839 68.7323 83.527 71.4377 83.527 71.4377L88.1917 57.1797Z" fill="black"/>
<path d="M66.8522 29.2949H51.8926L61.2608 39.9371C61.2647 39.9414 61.2685 39.9457 61.2724 39.9499C61.2802 39.9499 61.2841 39.9542 61.2918 39.9542C61.2996 39.9542 61.3034 39.9499 61.3112 39.9499C61.3151 39.9457 61.3228 39.9414 61.3267 39.9371C61.8773 39.3174 69.2369 30.9746 70.4002 29.6582C69.2253 29.453 68.0427 29.3334 66.8522 29.2949Z" fill="#FD9DA6"/>
<path d="M65.8601 34.0903C66.0811 34.0903 66.2983 34.0476 66.5193 34.0476C67.3452 33.1201 68.1401 32.2568 68.8032 31.5003C69.5477 30.6541 70.1254 29.9531 70.3968 29.6582C70.3891 29.6539 70.3813 29.6497 70.3736 29.6497C69.2219 29.4189 68.0548 29.2992 66.8876 29.2949L58.0352 29.3334C58.8688 30.7908 60.0243 31.9918 61.3931 32.8252C62.7619 33.6544 64.2974 34.0903 65.8601 34.0903Z" fill="black"/>
<path d="M52.4747 23.1653C53.1727 28.0034 61.145 28.8197 62.0523 28.8197C63.677 28.8197 70.137 27.9649 70.7768 23.0157C70.8505 22.5327 70.8815 22.0455 70.8699 21.554C70.866 18.9298 69.9509 16.4081 68.3107 14.5062C67.3568 13.4249 62.2501 12.5273 61.6219 12.5273C61.0558 12.5273 55.22 13.412 53.6108 16.4338C52.8508 16.5962 52.1684 17.0407 51.6759 17.6946C51.1796 18.3485 50.9082 19.1734 50.9043 20.0239C50.9121 20.6479 51.0555 21.2676 51.3308 21.8147C51.6022 22.3618 51.9978 22.8276 52.4747 23.1653Z" fill="#FD9DA6"/>
<path d="M64.2129 18.7299C64.2129 18.8795 64.1741 19.0291 64.0966 19.153C64.0229 19.2812 63.9143 19.3795 63.7864 19.4351C63.6584 19.4949 63.5188 19.5077 63.3831 19.4778C63.2513 19.4522 63.1272 19.3795 63.0303 19.2684C62.9294 19.1616 62.8635 19.0248 62.8403 18.8795C62.8131 18.7299 62.8248 18.576 62.879 18.435C62.9294 18.2939 63.0186 18.1743 63.135 18.0931C63.2474 18.0076 63.3831 17.9648 63.5188 17.9648C63.705 17.9648 63.8794 18.0461 64.0113 18.1871C64.1431 18.3324 64.2129 18.5247 64.2129 18.7299Z" fill="black"/>
<path d="M54.1982 23.6894C55.1715 23.6894 56.3231 22.9842 56.9513 22.2277C56.959 22.2191 56.9668 22.2148 56.9784 22.2148C56.99 22.2148 57.0017 22.2148 57.0094 22.2191C58.1184 23.0568 59.0801 24.1125 59.8362 25.3348C59.8401 25.3434 59.8439 25.3477 59.8517 25.3477C59.8556 25.3562 59.8633 25.3562 59.8672 25.3562C59.875 25.3562 59.8827 25.3562 59.8866 25.3562C59.8943 25.3562 59.8982 25.3477 59.9021 25.3434C62.4148 23.0184 66.3427 23.2149 68.7856 25.4673C68.7895 25.4673 68.7934 25.4716 68.8011 25.4716C68.8089 25.4759 68.8166 25.4759 68.8205 25.4759C68.8283 25.4759 68.836 25.4716 68.8399 25.4673C68.8438 25.4631 68.8477 25.4588 68.8515 25.4545C69.3828 24.4972 70.1893 23.6594 70.7283 23.0696C70.736 23.0654 70.7399 23.0654 70.7438 23.0611C70.7477 23.0611 70.7515 23.0611 70.7593 23.0654C70.7632 23.0654 70.7632 23.0696 70.767 23.0782C70.7709 23.0825 70.7709 23.0867 70.7709 23.091C70.1079 28.1813 66.2419 31.7501 61.5462 31.7928C59.3476 31.7971 57.2188 30.9252 55.5554 29.3438C53.888 27.7582 52.7945 25.5657 52.4766 23.1637C52.4766 23.1637 53.5778 23.6894 54.1982 23.6894Z" fill="#A8A1A2"/>
<path d="M56.6126 17.4805C58.3769 16.6856 59.8504 15.2538 60.7887 13.4245C60.7926 13.4202 60.7965 13.416 60.8042 13.4117C60.8081 13.4031 60.8159 13.4031 60.8236 13.4031C60.8314 13.3989 60.8391 13.4031 60.843 13.4031C60.8508 13.4031 60.8547 13.4117 60.8624 13.416C62.0528 14.6682 63.6349 15.3734 65.2828 15.3863C66.3763 15.3863 68.319 14.5058 68.319 14.5058C67.4582 13.4972 66.4228 12.6979 65.2712 12.1551C64.1196 11.6123 62.8749 11.3431 61.6263 11.3559C60.0016 11.3602 58.4118 11.8303 57.0081 12.7236C55.6044 13.6168 54.4334 14.8948 53.6152 16.4334C53.8052 16.3864 54.003 16.3607 54.2008 16.3565C55.1081 16.3693 55.9767 16.7753 56.6126 17.4848" fill="#A8A1A2"/>
<path d="M71.8593 18.3703C71.8593 19.0626 71.6732 19.7422 71.3242 20.3192C70.9714 20.8962 70.475 21.345 69.8973 21.6099C69.3118 21.8749 68.672 21.9476 68.0554 21.8108C67.4389 21.674 66.8728 21.3407 66.4269 20.8492C65.9848 20.3577 65.6785 19.7336 65.5583 19.0541C65.4342 18.3745 65.4962 17.6693 65.7405 17.0282C65.9771 16.3871 66.3881 15.8401 66.9116 15.4511C67.435 15.0708 68.0477 14.8613 68.6797 14.8613C69.5212 14.8613 70.3316 15.2332 70.9287 15.8914C71.522 16.5453 71.8593 17.4385 71.8593 18.3703Z" stroke="black" stroke-width="0.5" stroke-linecap="round" stroke-linejoin="round"/>
<path d="M65.496 18.3703C65.496 19.0626 65.3099 19.7422 64.961 20.3192C64.6081 20.8962 64.1156 21.345 63.534 21.6099C62.9485 21.8749 62.3087 21.9476 61.696 21.8108C61.0756 21.674 60.5095 21.3407 60.0636 20.8492C59.6215 20.3577 59.3152 19.7336 59.195 19.0541C59.0709 18.3745 59.133 17.6693 59.3772 17.0282C59.6138 16.3871 60.0209 15.8401 60.5483 15.4511C61.0679 15.0708 61.6844 14.8613 62.3164 14.8613C63.1579 14.8613 63.9683 15.2332 64.5615 15.8914C65.1587 16.5453 65.496 17.4385 65.496 18.3703Z" stroke="black" stroke-width="0.5" stroke-linecap="round" stroke-linejoin="round"/>
<path d="M68.4952 18.7336C68.4952 18.8917 68.4525 19.0499 68.375 19.1823C68.2936 19.3106 68.1772 19.4174 68.0454 19.4772C67.9097 19.5371 67.7662 19.5542 67.6227 19.5243C67.4793 19.4901 67.3513 19.4174 67.2466 19.302C67.1458 19.1909 67.076 19.0456 67.0489 18.8917C67.0178 18.7336 67.0334 18.5712 67.0915 18.4216C67.1458 18.2762 67.2389 18.1523 67.3591 18.0626C67.4793 17.9728 67.6227 17.9258 67.7662 17.9258C67.9601 17.9258 68.1462 18.0113 68.2819 18.1609C68.4176 18.3147 68.4952 18.5199 68.4952 18.7336Z" fill="black"/>
<path d="M66.0829 26.1482C66.0829 26.4773 65.9937 26.7935 65.8309 27.0671C65.6642 27.3363 65.4315 27.55 65.1562 27.674C64.8809 27.7979 64.5823 27.8321 64.2915 27.768C64.0007 27.7082 63.7331 27.55 63.5237 27.3192C63.3143 27.0884 63.1709 26.7935 63.1127 26.4687C63.0545 26.1524 63.0856 25.8191 63.198 25.5156C63.3105 25.2122 63.5043 24.9557 63.7525 24.7762C63.9968 24.5924 64.2876 24.4941 64.5823 24.4941C64.9817 24.4941 65.3617 24.6694 65.6448 24.9814C65.9239 25.2891 66.0829 25.7122 66.0829 26.1482Z" fill="black"/>
<path d="M65.4957 21.8733H66.849C66.9576 21.8776 67.0623 21.8562 67.1592 21.8135C67.26 21.7665 67.3531 21.7023 67.4268 21.6211C67.5004 21.5357 67.5625 21.4374 67.6051 21.3305C67.6439 21.2237 67.6672 21.1083 67.6672 20.9886C67.6672 20.8689 67.6439 20.7535 67.6051 20.6467C67.5625 20.5356 67.5004 20.4373 67.4268 20.3561C67.3531 20.2706 67.26 20.2065 67.1592 20.1637C67.0623 20.121 66.9576 20.0996 66.849 20.0996H65.1816" fill="#FD9DA6"/>
<path d="M65.4957 21.8733H66.849C66.9576 21.8776 67.0623 21.8562 67.1592 21.8135C67.26 21.7665 67.3531 21.7023 67.4268 21.6211C67.5004 21.5357 67.5625 21.4374 67.6051 21.3305C67.6439 21.2237 67.6672 21.1083 67.6672 20.9886C67.6672 20.8689 67.6439 20.7535 67.6051 20.6467C67.5625 20.5356 67.5004 20.4373 67.4268 20.3561C67.3531 20.2706 67.26 20.2065 67.1592 20.1637C67.0623 20.121 66.9576 20.0996 66.849 20.0996H65.1816" stroke="black" stroke-width="0.5" stroke-linecap="round" stroke-linejoin="round"/>
<path d="M56.6113 17.4818L59.2481 17.4434" stroke="black" stroke-width="0.5" stroke-linecap="round" stroke-linejoin="round"/>
<path d="M115.376 65.7047C115.155 63.7686 114.717 60.7041 114.422 58.8535" stroke="black" stroke-width="0.5" stroke-linecap="round" stroke-linejoin="round"/>
<path d="M114.715 60.7617C118.848 62.7448 122.482 62.3944 124.711 61.5994" stroke="black" stroke-width="0.5" stroke-linecap="round" stroke-linejoin="round"/>
<path d="M122.425 65.0044C121.878 65.0301 121.091 65.0001 120.552 64.9787C118.932 64.8631 116.783 64.6276 115.221 64.3535" stroke="black" stroke-width="0.5" stroke-linecap="round" stroke-linejoin="round"/>
<path d="M110.111 57.6437L112.376 54.8613" stroke="black" stroke-width="0.5" stroke-linecap="round" stroke-linejoin="round"/>
<path d="M85.7125 42.775C82.878 35.8085 77.112 30.7352 70.3961 29.6582C69.8222 29.5642 62.164 34.4109 60.9542 34.4109L51.8885 29.2949L48.705 29.312C46.107 29.3077 43.5207 29.718 41.0235 30.5216L25.1527 35.5606L23.082 45.3693L25.2069 49.4211L25.2263 53.9558C25.2263 53.9643 25.2263 53.9729 25.2302 53.9771C25.2341 53.9857 25.238 53.9899 25.2457 53.9942C25.2496 54.0028 25.2573 54.0028 25.2612 54.0071C25.269 54.0071 25.2767 54.0071 25.2845 54.0071L36.0874 51.0794L32.9931 88.2416L54.184 91.4129L72.4745 88.3613L72.4784 88.2416L74.8708 59.7384C74.8708 59.7299 74.8747 59.7171 74.8824 59.7128C74.8902 59.7 74.8979 59.6957 74.9096 59.6914C74.9212 59.6914 74.9329 59.6914 74.9406 59.7C74.9484 59.7043 74.9561 59.7128 74.96 59.7256L78.7716 69.107C78.7716 69.1156 78.7794 69.1198 78.7871 69.1284C78.791 69.1327 78.7988 69.1327 78.8065 69.1369C78.8143 69.1369 78.8221 69.1369 78.8298 69.1327C78.8376 69.1327 78.8453 69.1284 78.8492 69.1198L90.7223 55.0285L85.7125 42.775Z" fill="#F4BE53"/>
<path d="M74.877 59.7373L76.2884 47.3086" stroke="black" stroke-width="0.5" stroke-linecap="round" stroke-linejoin="round"/>
<path d="M30.8677 64.1192C30.8716 63.7474 30.7824 63.3798 30.6157 63.0507C30.4489 62.7259 30.2085 62.4567 29.9138 62.2643L26.5597 60.1359C26.2224 59.1914 25.7493 58.3109 25.1599 57.5245C24.4465 56.6141 23.5507 55.8876 22.5465 55.4046L22.5542 55.3961L16.4742 52.3017L25.2103 49.4168L25.1561 35.5605L6.80353 42.1125C5.03536 42.7408 3.48046 43.9418 2.33658 45.5531C1.19269 47.1686 0.514119 49.1219 0.390037 51.1691C0.265955 53.2121 0.696363 55.2465 1.63086 57.0159C2.56535 58.7896 3.96128 60.2086 5.63639 61.0976L11.6854 64.3201L9.61865 72.7441C9.52171 73.2485 9.60701 73.7784 9.85518 74.2187C10.1033 74.6546 10.4989 74.9666 10.9525 75.0948C11.4062 75.2188 11.887 75.1461 12.2942 74.8897C12.7013 74.6332 12.9999 74.2101 13.1278 73.7143L13.186 73.4451C13.2054 73.9494 13.4031 74.4195 13.7327 74.7657C14.0662 75.1077 14.5044 75.2957 14.9581 75.2829C15.3613 75.2871 15.7491 75.1418 16.067 74.8726C16.3889 74.6033 16.6138 74.2229 16.7146 73.7955L17.0054 72.7441C16.9085 73.2485 16.9938 73.7784 17.2419 74.2187C17.4901 74.6546 17.8817 74.9666 18.3393 75.0948C18.793 75.2188 19.2738 75.1461 19.6809 74.8897C20.0881 74.6332 20.3866 74.2101 20.5185 73.7143L23.225 62.7088C23.2367 62.6661 23.2599 62.6276 23.2948 62.602C23.3258 62.5721 23.3646 62.555 23.4073 62.555C23.4499 62.555 23.4887 62.5721 23.5236 62.602C23.5546 62.6276 23.5779 62.6661 23.5895 62.7088L26.2961 73.7143C26.4085 74.1374 26.6334 74.505 26.9514 74.7785C27.2693 75.0478 27.6532 75.1931 28.0526 75.2059C28.324 75.2145 28.5955 75.1547 28.8436 75.0264C29.0918 74.9025 29.3089 74.7145 29.4795 74.4794C29.6502 74.2443 29.7704 73.9708 29.8246 73.6759C29.8828 73.381 29.8751 73.0775 29.8053 72.7869L28.1999 66.2562H28.9289C29.4408 66.2477 29.9332 66.0254 30.2977 65.6237C30.6583 65.2262 30.8638 64.6834 30.8677 64.1192Z" fill="#FD9DA6"/>
<path d="M22.5296 36.4581C21.9441 36.6675 20.1953 37.33 20.1953 37.33L25.1974 45.8565C25.2672 41.8604 25.1586 39.6037 25.1547 35.5605C25.1547 35.5605 23.181 36.223 22.5296 36.4581Z" fill="black"/>
<path d="M15.6164 62.457L13.1309 73.7104" stroke="black" stroke-width="0.5" stroke-linecap="round" stroke-linejoin="round"/>
<path d="M19.5123 62.6309L16.9531 72.9482" stroke="black" stroke-width="0.5" stroke-linecap="round" stroke-linejoin="round"/>
<path d="M26.5586 60.1328L28.1949 66.2531" stroke="black" stroke-width="0.5" stroke-linecap="round" stroke-linejoin="round"/>
<path d="M109.182 66.9648L112.098 67.5386" stroke="black" stroke-width="0.5" stroke-linecap="round" stroke-linejoin="round"/>
<path d="M8.49023 48.3828L16.4741 52.302" stroke="black" stroke-width="0.5" stroke-linecap="round" stroke-linejoin="round"/>
<path d="M11.6895 64.3194L12.1819 62.0627C12.4107 61.1139 12.7791 60.2164 13.2793 59.4043" stroke="black" stroke-width="0.5" stroke-linecap="round" stroke-linejoin="round"/>
<path d="M41.9489 49.5254L36.0938 51.0768" stroke="black" stroke-width="0.5" stroke-linecap="round" stroke-linejoin="round"/>
<path d="M70.3983 29.6543L72.4534 38.8049C72.4573 38.8134 72.4573 38.8263 72.4534 38.8348C72.4495 38.8476 72.4457 38.8519 72.4379 38.8605C72.4302 38.8647 72.4224 38.869 72.4146 38.869C72.403 38.869 72.3952 38.8647 72.3836 38.8605L65.9081 34.7403L61.1387 41.7796" stroke="black" stroke-width="0.5" stroke-linecap="round" stroke-linejoin="round"/>
<path d="M56.4961 88.2416L61.1414 41.7835L55.4491 35.5563C55.4414 35.552 55.4336 35.5435 55.4259 35.5435C55.4142 35.5435 55.4065 35.5435 55.3948 35.5478L49.8305 38.5951C49.8228 38.5994 49.815 38.5994 49.8034 38.5994C49.7956 38.5994 49.7879 38.5951 49.7801 38.5865C49.7724 38.5823 49.7685 38.5737 49.7646 38.5652C49.7607 38.5566 49.7607 38.5481 49.7646 38.5353L51.8973 29.2949" stroke="black" stroke-width="0.5" stroke-linecap="round" stroke-linejoin="round"/>
<path d="M72.1992 55.427L72.9747 48.5715C72.9747 48.563 72.9747 48.5544 72.9747 48.5459C72.9708 48.5373 72.9708 48.5331 72.963 48.5288C72.9592 48.5245 72.9553 48.516 72.9475 48.516C72.9437 48.5117 72.9359 48.5117 72.9281 48.5117H64.2851C64.2734 48.5117 64.2618 48.516 64.254 48.5245C64.2463 48.5288 64.2385 48.5416 64.2385 48.5587L63.5793 54.3628C63.5018 55.0338 63.5561 55.7134 63.7344 56.3587C63.9128 57.0041 64.2153 57.5982 64.6185 58.1068C65.0218 58.6111 65.5181 59.0214 66.0765 59.3035C66.631 59.5856 67.2359 59.7309 67.8447 59.7394C68.9226 59.7266 69.9618 59.2821 70.7645 58.4914C71.5671 57.6965 72.0751 56.6109 72.1992 55.427Z" stroke="black" stroke-width="0.5" stroke-linecap="round" stroke-linejoin="round"/>
<path d="M58.5186 43.8494C58.5186 44.1186 58.445 44.3793 58.3093 44.6016C58.1735 44.8281 57.9797 45.0033 57.7548 45.1016C57.5299 45.2085 57.2817 45.2341 57.0413 45.1828C56.8047 45.1273 56.5837 44.9991 56.4131 44.811C56.2425 44.6229 56.1223 44.3793 56.0758 44.1143C56.0254 43.8536 56.0525 43.5758 56.1456 43.3322C56.2386 43.08 56.3976 42.8706 56.5992 42.721C56.8009 42.5714 57.0413 42.4902 57.2817 42.4902C57.6113 42.4902 57.9254 42.6313 58.1541 42.892C58.3868 43.1442 58.5186 43.4903 58.5186 43.8494Z" fill="black"/>
<path d="M57.6894 52.8474C57.6894 53.1167 57.6158 53.3774 57.4801 53.5996C57.3443 53.8261 57.1505 53.9971 56.9256 54.104C56.7007 54.2023 56.4525 54.2322 56.2121 54.1766C55.9756 54.1253 55.7545 53.9971 55.5839 53.809C55.4094 53.6167 55.2931 53.3731 55.2466 53.1081C55.1962 52.8474 55.2194 52.5739 55.3164 52.326C55.4094 52.0781 55.5684 51.8644 55.77 51.7148C55.9717 51.5695 56.2121 51.4883 56.4525 51.4883C56.7821 51.4883 57.0962 51.6293 57.325 51.8858C57.5576 52.1422 57.6894 52.4841 57.6894 52.8474Z" fill="black"/>
<path d="M56.6361 62.1013C56.6361 62.3706 56.5624 62.6356 56.4267 62.8578C56.2948 63.0801 56.1009 63.2553 55.8761 63.3579C55.6473 63.4604 55.403 63.4903 55.1626 63.4348C54.9222 63.3835 54.705 63.251 54.5305 63.063C54.3599 62.8749 54.2436 62.6313 54.1932 62.3706C54.1467 62.1056 54.1699 61.832 54.263 61.5841C54.3599 61.3363 54.515 61.1226 54.7167 60.973C54.9183 60.8234 55.1587 60.7422 55.403 60.7422C55.5658 60.7422 55.7248 60.7807 55.8761 60.849C56.0234 60.9131 56.1591 61.0157 56.2754 61.1439C56.3879 61.2679 56.481 61.4175 56.543 61.5841C56.605 61.7466 56.6361 61.9261 56.6361 62.1013Z" fill="black"/>
<path d="M55.8079 71.0935C55.8079 71.3628 55.7342 71.6235 55.6024 71.85C55.4667 72.0722 55.2728 72.2475 55.0479 72.35C54.823 72.4526 54.5748 72.4783 54.3344 72.427C54.0979 72.3714 53.8769 72.2432 53.7024 72.0551C53.5317 71.8671 53.4154 71.6235 53.3689 71.3585C53.3185 71.0935 53.3456 70.82 53.4348 70.5764C53.5279 70.3242 53.6868 70.1148 53.8885 69.9609C54.094 69.8156 54.3305 69.7344 54.5748 69.7344C54.9044 69.7344 55.2146 69.8754 55.4473 70.1319C55.6799 70.3883 55.8079 70.7345 55.8079 71.0935Z" fill="black"/>
<path d="M54.9779 80.0795C54.9779 80.353 54.9042 80.6137 54.7685 80.8402C54.6328 81.0625 54.4427 81.2334 54.2178 81.3403C53.9891 81.4386 53.7448 81.4685 53.5044 81.4172C53.2678 81.3616 53.0468 81.2334 52.8723 81.0411C52.6978 80.853 52.5854 80.6094 52.535 80.3487C52.4885 80.0837 52.5117 79.8102 52.6048 79.5623C52.6978 79.3144 52.8568 79.1007 53.0585 78.9511C53.2601 78.8058 53.5005 78.7246 53.7448 78.7246C53.9076 78.7246 54.0666 78.7588 54.2178 78.8272C54.3652 78.8956 54.5048 78.9939 54.6172 79.1221C54.7297 79.246 54.8227 79.3956 54.8848 79.5623C54.9468 79.7247 54.9779 79.9042 54.9779 80.0795Z" fill="black"/>
<path d="M104.375 103.266L72.4822 88.2383H32.9931L32.1904 95.6536C31.2986 103.868 36.4247 111.463 44.0907 113.408L65.4018 118.793L72.141 168.734L73.1298 169.837H89.9313L89.3807 165.597L108.02 113.198C109.335 109.441 107.811 105.206 104.375 103.261V103.266ZM84.5647 129.734L82.7733 116.895L87.9654 119.669L84.5647 129.734Z" fill="#4C007D"/>
<path d="M89.3804 165.599L84.5645 129.736" stroke="black" stroke-width="0.5" stroke-linecap="round" stroke-linejoin="round"/>
<path d="M60.5332 95.877L76.3343 101.574C79.13 102.591 81.1619 105.152 81.5884 108.242L82.7749 116.896" stroke="black" stroke-width="0.5" stroke-linecap="round" stroke-linejoin="round"/>
<path d="M105.73 175.357C104.462 173.591 102.426 172.134 99.3321 172.134C94.5471 172.134 91.8755 168.381 89.2077 165.509L89.0798 165.334C88.9208 165.065 88.7036 164.834 88.4555 164.663C88.2073 164.488 87.9281 164.377 87.6334 164.33C87.3426 164.283 87.044 164.308 86.761 164.398C86.4779 164.484 86.2142 164.642 85.9893 164.851C83.7016 166.924 77.6022 169.839 72.1387 168.736L72.6466 181.186L81.9644 181.229L82.0924 178.977C82.135 178.186 83.023 177.831 83.5736 178.318C85.0161 179.596 87.5985 181.229 91.7514 181.229L102.849 181.272C105.773 181.272 107.467 177.784 105.73 175.357Z" fill="#70002E"/>
<path d="M82.0915 178.937L72.5488 178.895" stroke="black" stroke-width="0.5" stroke-linecap="round" stroke-linejoin="round"/>
<path d="M72.3164 173.146C72.3164 173.146 78.8268 172.919 78.9975 178.924" stroke="black" stroke-width="0.5" stroke-linecap="round" stroke-linejoin="round"/>
<path d="M97.0662 171.83C97.0662 171.83 97.6866 174.873 90.99 174.826C84.2973 174.783 84.5145 179.062 84.5145 179.062" stroke="black" stroke-width="0.5" stroke-linecap="round" stroke-linejoin="round"/>
<path d="M93.6179 170.014L91.0742 172.664" stroke="black" stroke-width="0.5" stroke-linecap="round" stroke-linejoin="round"/>
<path d="M91.6251 168.158L89 170.851" stroke="black" stroke-width="0.5" stroke-linecap="round" stroke-linejoin="round"/>
<path d="M89.9321 166.305L87.0898 169.22" stroke="black" stroke-width="0.5" stroke-linecap="round" stroke-linejoin="round"/>
<path d="M78.5808 135.398C77.9177 141.096 76.3395 146.613 73.9199 151.695" stroke="black" stroke-width="0.5" stroke-linecap="round" stroke-linejoin="round"/>
<path d="M81.2432 148.994C80.7624 151.905 79.921 154.73 78.7461 157.384" stroke="black" stroke-width="0.5" stroke-linecap="round" stroke-linejoin="round"/>
<path d="M87.9668 119.674L91.8366 118.443" stroke="black" stroke-width="0.5" stroke-linecap="round" stroke-linejoin="round"/>
<path d="M87.9531 116.851C88.9807 115.941 89.8221 114.795 90.4115 113.496" stroke="black" stroke-width="0.5" stroke-linecap="round" stroke-linejoin="round"/>
<path d="M89.1816 121.85C89.8486 122.901 90.7714 123.726 91.8455 124.222" stroke="black" stroke-width="0.5" stroke-linecap="round" stroke-linejoin="round"/>
<path d="M286.893 177.031C294.229 171.565 300.961 160.858 305.683 152.994C310.709 144.579 314.528 135.385 318.344 126.23L327.088 145.207H327.119C331.306 145.207 334.723 148.972 334.723 153.588C334.723 158.2 331.341 161.965 327.119 161.965C325.513 161.965 324.04 161.414 322.799 160.491C320.821 164.295 319.484 168.466 319.015 172.821L318.98 181.536C315.664 181.647 293.492 181.792 288.265 181.792C287.094 181.792 286.09 181.275 285.823 180.018C285.621 178.839 286.024 177.693 286.893 177.031Z" fill="#FD9DA6"/>
<path d="M308.329 181.5C311.078 181.5 312.753 178.179 312.784 178.14C312.819 178.068 312.854 178.029 312.92 178.029C312.986 178.029 313.052 178.029 313.087 178.068L315.7 179.765C315.801 179.837 315.832 179.948 315.766 180.021C314.995 181.649 312.955 181.906 311.078 181.906C310.307 181.906 308.632 181.867 308.566 181.867C308.465 181.867 308.364 181.756 308.399 181.649C308.399 181.5 308.232 181.5 308.329 181.5Z" fill="black"/>
<path d="M313.453 137.712C315.027 134.169 316.536 130.587 318.009 127.006L321.359 138.93C321.391 138.93 318.009 133.725 313.453 137.712Z" fill="black"/>
<path d="M311.779 173.447C313.454 170.344 315.967 170.934 318.313 170.899C321.861 170.861 325.579 169.126 328.127 166.395C329.333 165.138 330.101 163.33 330.101 161.339C330.101 160.338 329.899 159.415 329.601 158.569C329.43 158.197 329.263 157.83 329.062 157.462L329.531 158.419L315.029 128.737C314.024 126.668 313.121 124.527 312.349 122.351C310.639 117.513 308.867 109.354 308.867 104.52L308.968 101.456C309.937 92.0788 317.173 84.766 325.948 84.766H331.609L331.776 84.6934L345.072 84.766L358.337 119.287H342.998L364.534 170.639C365.069 171.746 365.371 173.002 365.371 174.331C365.371 174.481 365.371 174.626 365.371 174.776C365.169 178.764 362.056 181.828 358.438 181.828H343.129V181.862H342.16L316.033 181.901C313.388 181.939 311.178 179.648 311.108 176.733C311.108 176.656 311.108 176.584 311.108 176.473C311.077 175.404 311.31 174.331 311.779 173.447Z" fill="#FD9DA6"/>
<path d="M397.592 42.7954L396.688 37.8461C396.083 33.7858 398.797 29.982 402.481 29.3195L409.48 28.063C410.151 27.5843 410.554 26.6226 411.023 25.8832C411.725 24.7763 412.598 23.742 413.703 23.118C414.808 22.4897 416.146 22.2675 417.251 22.8957C417.72 22.2675 418.259 21.6776 418.895 21.2716C419.763 20.716 420.838 20.5322 421.741 20.9383C422.644 21.3443 423.35 22.8573 423.18 23.93C423.482 23.5967 423.819 23.3018 424.188 23.041C425.223 22.3401 426.666 22.1948 427.534 23.0795C428.003 23.524 428.24 24.2249 428.372 24.8532C428.542 25.7379 428.507 26.6953 428.271 27.5843C427.771 29.6144 426.499 31.2001 425.056 32.5293C422.276 35.115 414.304 37.6238 414.304 37.6238L417.053 47.189L407.002 45.2657L397.592 42.7954Z" fill="#FD9DA6"/>
<path d="M417.053 29.2479C418.794 28.3974 420.368 27.4742 421.675 25.9612C422.21 25.3329 422.644 24.7046 423.179 23.8926" stroke="black" stroke-width="0.5" stroke-linecap="round" stroke-linejoin="round"/>
<path d="M409.449 28.0279L413.804 27.2543C415.343 26.9594 416.786 28.139 417.053 29.8015" stroke="black" stroke-width="0.5" stroke-linecap="round" stroke-linejoin="round"/>
<path d="M417.057 29.7988C417.324 31.4956 416.25 33.0855 414.746 33.3804L407.844 34.637" stroke="black" stroke-width="0.5" stroke-linecap="round" stroke-linejoin="round"/>
<path d="M415.213 26.2539C415.779 25.3692 416.217 24.5186 416.787 23.6339C416.919 23.4117 417.121 23.1168 417.252 22.8945" stroke="black" stroke-width="0.5" stroke-linecap="round" stroke-linejoin="round"/>
<path d="M414.109 27.1771C414.575 27.1044 414.943 26.6941 415.214 26.2539" stroke="black" stroke-width="0.5" stroke-linecap="round" stroke-linejoin="round"/>
<path d="M311.917 173.228C310.777 172.048 308.602 171.236 306.691 171.236C303.274 171.236 300.494 173.634 300.494 176.549C300.494 179.468 303.174 181.755 306.691 181.755" stroke="black" stroke-width="0.5" stroke-linecap="round" stroke-linejoin="round"/>
<path d="M292.621 174.814C291.349 175.332 290.445 176.738 290.445 178.396C290.445 179.875 290.914 181.131 291.95 181.755" stroke="black" stroke-width="0.5" stroke-linecap="round" stroke-linejoin="round"/>
<path d="M292.617 174.816L297.309 172.936" stroke="black" stroke-width="0.5" stroke-linecap="round" stroke-linejoin="round"/>
<path d="M302.499 172.641L297.509 174.966C295.904 175.555 294.764 176.885 294.764 178.436C294.764 179.988 295.601 181.206 297.241 181.795" stroke="black" stroke-width="0.5" stroke-linecap="round" stroke-linejoin="round"/>
<path d="M301.162 168.098L298.715 171.239" stroke="black" stroke-width="0.5" stroke-linecap="round" stroke-linejoin="round"/>
<path d="M309.571 166.471C309.571 166.471 308.264 170.608 305.953 171.27" stroke="black" stroke-width="0.5" stroke-linecap="round" stroke-linejoin="round"/>
<path d="M316.371 131.549L329.233 157.872C329.768 158.902 330.071 160.086 330.102 161.304" stroke="black" stroke-width="0.5" stroke-linecap="round" stroke-linejoin="round"/>
<path d="M317.672 181.755C315.965 181.905 314.725 180.319 314.725 178.507C314.725 176.699 316.066 175.22 317.706 175.22C318.044 175.22 318.342 175.297 318.645 175.37L318.978 175.481C320.487 176.144 322.363 175.592 323.403 174.225" stroke="black" stroke-width="0.5" stroke-linecap="round" stroke-linejoin="round"/>
<path d="M349.026 119.288L341.624 114.488C341.256 114.266 340.852 114.672 341.019 115.117L342.997 119.288H349.026Z" fill="black"/>
<path d="M345.072 84.7695L387.377 84.4746L390.227 84.9191L390.494 88.1289L391.064 91.7489L392.2 101.16C392.367 102.455 392.367 103.746 392.235 105.003C392.134 105.96 391.867 106.883 391.599 107.806C391.297 108.913 390.994 109.986 390.525 110.948C388.315 115.375 384.298 118.589 379.505 119.252C379.338 119.29 379.172 119.29 379.005 119.29H377.764L361.42 119.252L357.434 119.068L356.092 115.781L345.072 84.7695Z" fill="#70002E"/>
<path d="M354.253 88.2087C354.02 87.0975 353.652 85.8068 353.314 84.7383H362.962C362.159 86.1401 360.686 86.3624 359.445 86.6188C357.739 86.9864 356.064 87.542 354.42 88.2814C354.389 88.3156 354.288 88.2814 354.253 88.2087Z" fill="white"/>
<path d="M353.481 159.975C352.306 160.158 351.135 160.714 350.162 161.637C347.583 164.146 347.351 168.467 349.627 171.309C350.197 172.01 350.833 172.566 351.57 172.933" stroke="black" stroke-width="0.5" stroke-linecap="round" stroke-linejoin="round"/>
<path d="M356.088 115.816C356.158 115.927 356.259 116 356.29 116C356.425 116 356.693 115.556 356.794 115.444C356.925 115.299 357.061 115.115 357.193 114.966C357.193 114.966 357.228 114.966 357.228 114.927C358.166 114.008 359.473 113.859 360.543 114.449C361.416 114.927 362.183 115.962 362.183 117.257C362.183 118.141 361.85 118.77 361.416 119.287H357.329L356.088 115.816Z" fill="white"/>
<path d="M384.227 101.572C384.933 100.461 386.139 100.093 387.143 100.316C388.415 100.611 389.42 101.718 389.52 103.231V103.269C389.52 103.453 389.52 103.637 389.52 103.786C389.52 103.97 389.42 104.598 389.52 104.709C389.621 104.821 390.09 104.671 390.226 104.671C390.424 104.671 390.625 104.632 390.827 104.632H390.862C391.331 104.632 391.866 104.782 392.235 105.004C392.033 107.146 391.397 109.137 390.525 110.949C390.125 110.911 389.687 110.8 389.319 110.761C387.678 110.616 386.038 110.65 384.363 110.872C384.262 110.872 384.196 110.8 384.227 110.727C384.363 108.253 384.196 105.855 383.758 103.525C383.758 103.491 383.758 103.491 383.758 103.453C383.727 102.863 383.859 102.235 384.227 101.572Z" fill="white"/>
<path d="M369.087 115.6C367.947 114.933 367.245 113.57 367.513 112.091V112.057C367.548 111.873 367.614 111.724 367.645 111.54C367.679 111.356 367.947 110.8 367.881 110.651C367.815 110.544 367.346 110.506 367.179 110.467C366.978 110.433 366.776 110.394 366.574 110.322H366.539C365.334 109.916 364.566 108.732 364.5 107.441C364.43 106.368 364.833 105.116 365.838 104.449C367.21 103.565 368.416 104.377 369.591 104.855C371.131 105.484 372.736 105.928 374.38 106.261C374.481 106.261 374.512 106.368 374.481 106.445C373.744 108.77 373.306 111.168 373.139 113.532C373.139 113.57 373.139 113.57 373.139 113.608C373.007 114.232 372.736 114.827 372.236 115.305C372.236 115.305 372.201 115.305 372.201 115.344C371.262 116.117 370.025 116.117 369.087 115.6Z" fill="white"/>
<path d="M357.37 91.6771C358.642 91.972 359.646 93.0789 359.747 94.5919V94.6304C359.747 94.8142 359.747 94.998 359.747 95.1433C359.747 95.3313 359.646 95.9596 359.747 96.0664C359.848 96.1776 360.317 96.0323 360.449 96.0323C360.65 96.0323 360.852 95.9938 361.054 95.9938H361.085C362.326 96.0322 363.365 96.917 363.764 98.135C364.101 99.1309 364.036 100.499 363.229 101.422C362.124 102.712 360.751 102.272 359.545 102.161C357.905 102.012 356.265 102.05 354.59 102.272C354.489 102.272 354.419 102.195 354.454 102.123C354.59 99.648 354.419 97.2503 353.985 94.9253C353.985 94.8868 353.985 94.8868 353.985 94.8484C353.954 94.1859 354.086 93.5576 354.419 92.9678C354.419 92.9678 354.419 92.9293 354.454 92.9293C355.156 91.8224 356.331 91.4548 357.37 91.6771Z" fill="white"/>
<path d="M390.229 84.9156L391.066 91.7454C389.759 91.707 388.418 91.7454 387.111 91.9292C387.01 91.9292 386.944 91.8566 386.979 91.7796C387.08 89.4546 386.909 86.9073 386.541 84.6934L390.229 84.9156Z" fill="white"/>
<path d="M370.731 87.7957C371.972 87.3854 373.344 87.8683 374.081 89.0864C374.081 89.0864 374.081 89.1206 374.116 89.1206C374.182 89.2702 374.283 89.4198 374.349 89.6036C374.414 89.7873 374.616 90.3772 374.752 90.4156C374.884 90.4498 375.221 90.0822 375.353 90.0096C375.52 89.8985 375.69 89.7873 375.857 89.6377H375.888C376.997 89.0137 378.3 89.2702 379.207 90.1207C379.944 90.8216 380.444 92.0782 380.145 93.2963C379.707 94.993 378.335 95.3264 377.195 95.8777C375.69 96.6171 374.248 97.5019 372.875 98.5746C372.809 98.6088 372.708 98.6088 372.673 98.502C371.704 96.2838 370.529 94.2194 369.156 92.4073C369.156 92.4073 369.125 92.3731 369.125 92.3346C368.823 91.779 368.656 91.155 368.687 90.4498V90.4156C368.823 89.0864 369.726 88.1248 370.731 87.7957Z" fill="white"/>
<path d="M390.227 84.921L341.358 84.8099L331.609 84.7714L340.419 40.322C341.993 35.0779 346.581 31.3125 351.874 31.3125H378.97C382.32 31.3125 385.504 32.7528 387.916 35.3386L398.563 47.8912C398.598 47.9254 398.633 47.8912 398.633 47.8528L397.629 42.7967L417.086 47.1903L423.353 69.415C423.721 70.6673 423.853 71.9965 423.721 73.2915C423.721 73.3257 423.721 73.3641 423.721 73.4026C422.883 81.1898 416.92 87.246 409.82 87.6136C405.566 87.8358 401.243 86.5066 398.466 83.5148L388.718 74.3985L390.227 84.921Z" fill="#E98E07"/>
<path d="M319.348 170.828C319.015 170.862 318.681 170.901 318.313 170.901C316.769 170.901 315.164 170.679 313.788 171.379C312.015 172.264 311.077 174.555 311.108 176.696C311.108 176.696 311.108 176.735 311.108 176.769C311.108 176.769 311.178 179.872 312.717 180.979" stroke="black" stroke-width="0.5" stroke-linecap="round" stroke-linejoin="round"/>
<path d="M366.742 50.4698C366.261 50.4698 365.873 50.0424 365.873 49.5124C365.873 48.9782 366.261 48.5508 366.742 48.5508C367.222 48.5508 367.614 48.9782 367.614 49.5124C367.614 50.0424 367.222 50.4698 366.742 50.4698Z" fill="black"/>
<path d="M368.189 57.8546C367.704 57.8546 367.316 57.4272 367.316 56.8929C367.316 56.3629 367.704 55.9355 368.189 55.9355C368.666 55.9355 369.057 56.3629 369.057 56.8929C369.057 57.4272 368.666 57.8546 368.189 57.8546Z" fill="black"/>
<path d="M369.124 65.2397C368.64 65.2397 368.252 64.808 368.252 64.2781C368.252 63.7481 368.64 63.3164 369.124 63.3164C369.601 63.3164 369.993 63.7481 369.993 64.2781C369.993 64.808 369.601 65.2397 369.124 65.2397Z" fill="black"/>
<path d="M369.962 72.6241C369.478 72.6241 369.09 72.1967 369.09 71.6667C369.09 71.1325 369.478 70.7051 369.962 70.7051C370.439 70.7051 370.831 71.1325 370.831 71.6667C370.831 72.1967 370.439 72.6241 369.962 72.6241Z" fill="black"/>
<path d="M362.561 42.5703L368.485 84.8058" stroke="black" stroke-width="0.5" stroke-linecap="round" stroke-linejoin="round"/>
<path d="M367.581 31.3125L362.56 42.5744L357.736 31.3125H367.581Z" fill="#FD9DA6"/>
<path d="M367.579 37.2528L365.873 35.5176" stroke="black" stroke-width="0.5" stroke-linecap="round" stroke-linejoin="round"/>
<path d="M354.755 31.5332L352.844 43.0516L359.478 35.4097" stroke="black" stroke-width="0.5" stroke-linecap="round" stroke-linejoin="round"/>
<path d="M357.936 37.2561L362.562 42.5729L367.583 37.2561L372.709 42.5729L370.429 31.5332" stroke="black" stroke-width="0.5" stroke-linecap="round" stroke-linejoin="round"/>
<path d="M348.291 77.0898C348.291 77.6455 349.229 84.8428 349.229 84.8428H341.357C341.357 84.8087 347.383 83.6632 348.291 77.0898Z" fill="black"/>
<path d="M345.541 54.5L349.194 84.6614" stroke="black" stroke-width="0.5" stroke-linecap="round" stroke-linejoin="round"/>
<path d="M363.363 32.6073L359.477 35.411L357.736 31.3123L363.363 31.2012V32.6073Z" fill="black"/>
<path d="M354.185 22.7494C354.321 21.1979 354.786 19.7234 355.527 18.4327C356.597 16.5863 358.439 15.2913 360.548 14.6288C364.67 13.3723 368.687 15.5862 370.332 19.9456C371.603 23.305 371.235 26.9592 369.292 29.545C368.319 30.8357 367.047 31.87 365.508 32.4599C362.022 33.7891 358.272 32.4599 356.062 29.4681C355.356 28.5107 354.887 27.4037 354.554 26.2198L354.519 26.1087C354.22 25.0017 354.085 23.8948 354.185 22.7494Z" fill="#FD9DA6"/>
<path d="M360.75 14.3648C364.636 13.3689 368.723 15.5487 370.429 19.5363C373.042 25.7763 369.293 29.5417 369.293 29.5417C366.644 29.5417 364.403 26.5499 364.403 26.5499C366.078 26.5499 367.451 25.0369 367.451 23.1905C367.451 23.1521 367.451 23.1521 367.451 23.1521C367.416 20.6774 364.535 19.6816 363.162 21.6006L362.693 22.2674C362.693 22.2674 359.913 20.421 358.606 18.4293H355.527C356.663 16.4718 358.474 14.9589 360.75 14.3648Z" fill="black"/>
<path d="M401.848 48.5533C401.162 48.5533 400.607 47.9422 400.607 47.1899C400.607 46.4334 401.162 45.8223 401.848 45.8223C402.531 45.8223 403.089 46.4334 403.089 47.1899C403.089 47.9422 402.531 48.5533 401.848 48.5533Z" fill="black"/>
<path d="M409.887 62.291V71.1125" stroke="black" stroke-width="0.5" stroke-linecap="round" stroke-linejoin="round"/>
<path d="M398.633 48L401.847 67.7116" stroke="black" stroke-width="0.5" stroke-linecap="round" stroke-linejoin="round"/>
<path d="M399.064 49.918L419.294 55.3801" stroke="black" stroke-width="0.5" stroke-linecap="round" stroke-linejoin="round"/>
<path d="M355.756 23.0413C355.441 23.0413 355.186 22.7635 355.186 22.4131C355.186 22.0669 355.441 21.7891 355.756 21.7891C356.07 21.7891 356.326 22.0669 356.326 22.4131C356.326 22.7635 356.07 23.0413 355.756 23.0413Z" fill="black"/>
<path d="M358.006 22.932C357.691 22.932 357.436 22.6542 357.436 22.308C357.436 21.9575 357.691 21.6797 358.006 21.6797C358.32 21.6797 358.576 21.9575 358.576 22.308C358.576 22.6542 358.32 22.932 358.006 22.932Z" fill="black"/>
<path d="M358.942 28.5432C358.275 28.5432 357.736 27.9491 357.736 27.214C357.736 26.4831 358.275 25.8848 358.942 25.8848C359.605 25.8848 360.148 26.4831 360.148 27.214C360.148 27.9491 359.605 28.5432 358.942 28.5432Z" stroke="black" stroke-width="0.5" stroke-linecap="round" stroke-linejoin="round"/>
<path d="M357.436 23.9668H356.195C355.861 23.9668 355.594 24.2617 355.594 24.6335C355.594 25.0011 355.861 25.296 356.195 25.296H357.436" stroke="black" stroke-width="0.5" stroke-linecap="round" stroke-linejoin="round"/>
<path d="M381.05 66.0569C380.98 65.9073 380.848 65.9799 380.813 66.1295C380.612 67.3476 380.612 68.7153 381.151 69.7837C382.186 71.8139 384.9 72.5148 385.571 74.733C385.974 76.0964 385.436 77.6094 385.606 79.0882C385.738 80.2678 386.343 81.3406 387.146 82.08C387.948 82.8151 388.987 83.2981 390.027 83.516L389.123 74.3612L381.05 66.0569Z" fill="black"/>
<path d="M405.869 120.689H403.523C403.892 120.026 404.024 118.992 404.124 118.18L405.633 104.037H407.444C407.444 104.037 407.641 104.849 407.641 104.999L406.067 119.398C406.036 119.876 405.966 120.282 405.869 120.689Z" fill="#A8A1A8"/>
<path d="M354.72 181.795H352.51L364.402 133.653L365.306 130.85L367.082 122.797C367.214 122.28 367.617 121.951 368.117 121.951C368.823 121.951 369.323 122.686 369.156 123.426L367.012 131.328L366.143 135.611L354.72 181.795Z" fill="#A8A1A8"/>
<path d="M337.808 181.797H335.598L347.455 133.693L348.359 130.368L350.336 122.063C350.468 121.546 350.871 121.213 351.372 121.213C352.077 121.213 352.578 121.952 352.411 122.687L350.367 130.701L349.196 135.612L337.808 181.797Z" fill="#A8A1A8"/>
<path d="M366.477 125.234H368.687L366.143 135.642L364.402 133.65L366.477 125.234Z" fill="black"/>
<path d="M349.561 125.234H351.771L349.227 135.607L347.451 133.688L349.561 125.234Z" fill="black"/>
<path d="M399.664 129.294H351.733C346.844 129.294 342.857 124.901 342.857 119.511V119.289H406.097V122.17C406.097 126.119 403.216 129.294 399.664 129.294Z" fill="#CA3F94"/>
<path d="M359.611 125.236H367.149C370.565 125.236 373.481 122.428 373.915 118.662L375.889 101.938C375.959 101.272 375.555 100.682 374.954 100.571C374.35 100.46 373.814 100.942 373.714 101.605L371.736 118.329C371.438 120.876 369.46 122.761 367.149 122.761H359.611C359.01 122.761 358.506 123.312 358.506 123.979C358.506 124.642 359.01 125.236 359.611 125.236Z" fill="#A8A1A8"/>
<path d="M393.17 181.793L378.967 124.236C378.765 123.462 379.304 122.723 380.006 122.723C380.51 122.723 380.944 123.094 381.045 123.607L395.411 181.793H393.17Z" fill="#A8A1A8"/>
<path d="M409.217 181.793L395.018 124.236C394.816 123.462 395.351 122.723 396.057 122.723C396.557 122.723 396.991 123.094 397.092 123.607L411.462 181.793H409.217Z" fill="#A8A1A8"/>
<path d="M375.654 73.877H388.652C388.652 73.877 394.278 78.5655 397.927 81.7411C400.106 83.6216 404.86 87.4254 409.114 87.6477L407.64 105H373.277L375.654 73.877Z" fill="#CA3F94"/>
<path d="M341.303 100.197H337.992C339.334 101.924 340.183 104.146 340.183 106.561C340.183 110.267 338.302 113.425 335.526 115.152C336.243 116.139 336.646 117.421 336.646 118.755C336.646 121.417 335.033 123.691 332.749 124.529V181.783H329.124V124.477C326.887 123.691 325.273 121.417 325.273 118.755C325.273 117.37 325.677 116.139 326.394 115.152C323.618 113.472 321.737 110.267 321.737 106.561C321.737 104.146 322.54 101.924 323.928 100.197H320.527V86.0801H341.303V100.197Z" fill="#826D9C"/>
<path d="M112.665 100.193H109.349C110.695 101.919 111.544 104.142 111.544 106.557C111.544 110.262 109.663 113.421 106.887 115.147C107.604 116.135 108.008 117.417 108.008 118.75C108.008 121.413 106.395 123.687 104.111 124.524V181.779H100.485V124.473C98.244 123.687 96.6348 121.413 96.6348 118.75C96.6348 117.366 97.0342 116.135 97.7515 115.147C94.9752 113.468 93.0946 110.262 93.0946 106.557C93.0946 104.142 93.9011 101.919 95.2893 100.193H91.8848V87.0117H112.665V100.193Z" fill="#826D9C"/>
<path d="M350.933 82.7227H82.3027V89.4328H350.933V82.7227Z" fill="#826D9C"/>
<path d="M91.8848 89.4316H112.665" stroke="black" stroke-width="0.5" stroke-linecap="round" stroke-linejoin="round"/>
<path d="M95.2852 100.193H109.345" stroke="black" stroke-width="0.5" stroke-linecap="round" stroke-linejoin="round"/>
<path d="M106.931 115.096C106.528 115.293 106.167 115.494 105.764 115.691" stroke="black" stroke-width="0.5" stroke-linecap="round" stroke-linejoin="round"/>
<path d="M97.709 115.096C98.1123 115.293 98.469 115.494 98.8723 115.691" stroke="black" stroke-width="0.5" stroke-linecap="round" stroke-linejoin="round"/>
<path d="M320.527 89.4316H341.35" stroke="black" stroke-width="0.5" stroke-linecap="round" stroke-linejoin="round"/>
<path d="M323.928 100.193H337.992" stroke="black" stroke-width="0.5" stroke-linecap="round" stroke-linejoin="round"/>
<path d="M335.573 115.096C335.17 115.293 334.813 115.494 334.41 115.691" stroke="black" stroke-width="0.5" stroke-linecap="round" stroke-linejoin="round"/>
<path d="M326.348 115.096C326.751 115.293 327.108 115.494 327.511 115.691" stroke="black" stroke-width="0.5" stroke-linecap="round" stroke-linejoin="round"/>
<path d="M221.119 44.5771C219.866 46.2055 216.687 47.6843 213.91 47.6843C212.39 47.6843 210.956 47.3424 209.657 46.697C206.252 45.0686 203.837 41.517 203.522 37.3712H202.045C201.328 37.3712 200.746 36.7301 200.746 35.9864C200.746 35.247 201.328 34.606 202.045 34.606H203.658C204.015 32.3835 205 30.3619 206.434 28.7805C208.315 26.6606 210.956 26.0195 213.91 26.0195C216.194 26.0195 217.986 26.511 219.688 27.8445C221.479 29.225 223.449 33.0759 223.538 34.1144C223.763 36.5292 222.689 42.5042 221.119 44.5771Z" fill="#7C4018"/>
<path d="M189.686 161.752H206.476C207.953 165.949 210.462 170.193 216.24 171.873C218.163 172.463 219.687 172.561 220.808 174.24C221.924 175.869 222.06 178.536 220.761 180.015C219.823 181.053 218.477 181.643 217.089 181.643H211.09C210.551 181.643 209.97 181.545 209.431 181.348C205.491 180.015 201.819 177.399 198.864 174.437L201.102 181.399H189.64C189.55 181.348 186.774 168.565 189.686 161.752Z" fill="#414860"/>
<path d="M220.759 174.582C219.507 177.296 216.552 178.578 213.683 178.433C210.817 178.335 208.177 176.903 205.757 175.172C204.415 174.185 203.116 173.202 201.592 172.509C200.072 171.817 198.413 171.471 196.935 172.112C195.997 172.509 195.191 173.202 194.159 173.497C192.189 173.988 190.041 172.509 188.475 171.176" stroke="black" stroke-width="0.5" stroke-linecap="round" stroke-linejoin="round"/>
<path d="M206.475 170.288C207.142 170.288 207.685 169.689 207.685 168.954C207.685 168.219 207.142 167.625 206.475 167.625C205.809 167.625 205.266 168.219 205.266 168.954C205.266 169.689 205.809 170.288 206.475 170.288Z" fill="#9C2754"/>
<path d="M204.325 167.376C204.992 167.376 205.535 166.778 205.535 166.042C205.535 165.307 204.992 164.709 204.325 164.709C203.658 164.709 203.115 165.307 203.115 166.042C203.115 166.778 203.658 167.376 204.325 167.376Z" fill="#9C2754"/>
<path d="M222.911 161.752H239.704C241.182 165.949 243.69 170.193 249.464 171.873C251.391 172.463 252.915 172.561 254.032 174.24C255.152 175.869 255.288 178.536 253.989 180.015C253.047 181.053 251.705 181.643 250.317 181.643H244.315C243.78 181.643 243.198 181.545 242.659 181.348C238.719 180.015 235.047 177.399 232.093 174.437L234.33 181.399H222.868C222.821 181.348 220.045 168.565 222.911 161.752Z" fill="#414860"/>
<path d="M254.032 174.626C252.78 177.344 249.779 178.575 246.913 178.43C244.048 178.331 241.407 176.9 238.987 175.169C237.646 174.181 236.347 173.198 234.823 172.506C233.346 171.814 231.643 171.467 230.166 172.109C229.228 172.506 228.421 173.198 227.39 173.493C225.42 173.985 223.272 172.408 221.705 171.074" stroke="black" stroke-width="0.5" stroke-linecap="round" stroke-linejoin="round"/>
<path d="M239.704 170.288C240.371 170.288 240.914 169.689 240.914 168.954C240.914 168.219 240.371 167.625 239.704 167.625C239.037 167.625 238.494 168.219 238.494 168.954C238.494 169.689 239.037 170.288 239.704 170.288Z" fill="#9C2754"/>
<path d="M237.597 167.376C238.263 167.376 238.806 166.778 238.806 166.042C238.806 165.307 238.263 164.709 237.597 164.709C236.93 164.709 236.387 165.307 236.387 166.042C236.387 166.778 236.93 167.376 237.597 167.376Z" fill="#9C2754"/>
<path d="M181.667 61.4512L170.205 84.7016C166.398 92.399 171.64 101.729 179.787 101.729H190.714V61.4512H181.667Z" fill="#7C4018"/>
<path d="M247.136 61.4023L258.598 84.6485C262.406 92.3502 257.167 101.676 249.017 101.676H238.09V61.4023H247.136Z" fill="#7C4018"/>
<path d="M253.855 71.5241L245.616 54.8428C242.393 48.3249 236.081 44.2305 229.229 44.2305H200.299C193.404 44.2305 187.134 48.3249 183.912 54.8428L174.641 73.6953L183.284 82.5809V103.707L185.703 105.383L244.588 105.336L245.212 103.558V80.8542L253.855 71.5241Z" fill="#E98E07"/>
<path d="M232.673 61.5047C232.134 64.317 230.525 67.031 228.105 68.4158C226.717 69.1552 225.239 69.4501 223.673 69.6467C220.179 70.1425 216.461 70.1894 213.281 68.5611C210.505 67.1293 208.314 64.4153 207.236 61.2569C205.088 54.692 208.042 48.7683 211.672 43.7336C213.103 41.7633 214.627 39.7887 216.643 38.5535C214.627 37.1217 212.835 35.3437 211.672 33.0272C211.001 31.7408 210.64 30.1637 210.776 28.8302H206.387C208.267 26.706 210.908 25.4238 213.867 25.4238C218.927 25.4238 223.987 29.7662 224.119 35.5916C224.165 37.0234 224.03 38.5022 224.297 39.934C224.879 43.242 227.345 45.02 229.226 47.3878C230.478 48.9692 231.327 50.8412 231.913 52.8158C232.898 55.581 233.301 58.5942 232.673 61.5047Z" fill="black"/>
<path d="M206.436 33.8665C206.828 33.8665 207.15 33.5118 207.15 33.0759C207.15 32.6399 206.828 32.2852 206.436 32.2852C206.037 32.2852 205.719 32.6399 205.719 33.0759C205.719 33.5118 206.037 33.8665 206.436 33.8665Z" fill="black"/>
<path d="M204.195 40.5751L206.254 38.998" stroke="black" stroke-width="0.5" stroke-linecap="round" stroke-linejoin="round"/>
<path d="M207.33 36.5254L210.06 40.5728" stroke="black" stroke-width="0.5" stroke-linecap="round" stroke-linejoin="round"/>
<path d="M232.988 74.1406L202.537 94.7711" stroke="black" stroke-width="0.5" stroke-linecap="round" stroke-linejoin="round"/>
<path d="M183.279 82.5768V70.584" stroke="black" stroke-width="0.5" stroke-linecap="round" stroke-linejoin="round"/>
<path d="M245.209 80.8025V70.3398" stroke="black" stroke-width="0.5" stroke-linecap="round" stroke-linejoin="round"/>
<path d="M210.24 74.3848L198.82 82.1335" stroke="black" stroke-width="0.5" stroke-linecap="round" stroke-linejoin="round"/>
<path d="M245.208 103.508C245.208 110.026 243.552 116.146 240.64 121.377V162.984H218.119V137.418C216.82 137.614 215.521 137.665 214.222 137.665C212.97 137.665 211.713 137.567 210.504 137.418V162.984H187.983V121.771C184.982 116.539 183.279 110.372 183.279 103.709L245.208 103.508Z" fill="#A29EA5"/>
<path d="M193.711 129.072C193.711 129.072 201.59 136.624 210.501 137.415" stroke="black" stroke-width="0.5" stroke-linecap="round" stroke-linejoin="round"/>
<path d="M218.121 137.416C218.121 137.416 230.39 135.245 235.539 128.287" stroke="black" stroke-width="0.5" stroke-linecap="round" stroke-linejoin="round"/>
<path d="M236.588 142.546L240.842 181.439H234.079L221.586 138.793H236.499L236.588 142.546Z" fill="#826D9C"/>
<path d="M186.478 108.142H177.614C176.047 108.142 174.791 106.762 174.791 105.031V104.488C174.791 102.761 176.047 101.381 177.614 101.381H186.478C188.048 101.381 189.301 102.761 189.301 104.488V105.031C189.254 106.762 188.002 108.142 186.478 108.142Z" fill="#826D9C"/>
<path d="M251.187 108.142H242.319C240.752 108.142 239.5 106.762 239.5 105.031V104.488C239.5 102.761 240.752 101.381 242.319 101.381H251.187C252.754 101.381 254.006 102.761 254.006 104.488V105.031C254.006 106.762 252.754 108.142 251.187 108.142Z" fill="#826D9C"/>
<path d="M192.617 142.546L188.359 181.439H195.122L207.615 138.793H192.706L192.617 142.546Z" fill="#826D9C"/>
<path d="M244.604 132.18L249.439 75.9604C249.978 69.793 245.41 64.4121 239.633 64.4121H189.123C183.299 64.4121 178.778 69.7417 179.317 75.9604L184.152 132.18L185.273 134.304H243.44L244.604 132.18Z" fill="#CA3F94"/>
<path d="M184.154 132.178C184.154 138.396 188.9 143.431 194.678 143.431H234.171C239.949 143.431 244.606 138.396 244.606 132.178H184.154Z" fill="#826D9C"/>
<path d="M222.932 143.432H234.126C234.975 143.432 235.828 143.334 236.631 143.137" stroke="black" stroke-width="0.5" stroke-linecap="round" stroke-linejoin="round"/>
<path d="M192.523 143.184C193.198 143.333 193.912 143.431 194.629 143.431H206.227" stroke="black" stroke-width="0.5" stroke-linecap="round" stroke-linejoin="round"/>
<path d="M236.628 82.1836L198.969 117.717" stroke="#942365" stroke-width="0.5" stroke-linecap="round" stroke-linejoin="round"/>
<path d="M208.559 86.0312L197.988 96.0537" stroke="#942365" stroke-width="0.5" stroke-linecap="round" stroke-linejoin="round"/>
<path d="M231.215 118.756L225.93 123.739" stroke="#942365" stroke-width="0.5" stroke-linecap="round" stroke-linejoin="round"/>
<path d="M195.209 82.1836L189.928 87.1671" stroke="#942365" stroke-width="0.5" stroke-linecap="round" stroke-linejoin="round"/>
<path d="M238.647 95.5117L221.586 111.599" stroke="#942365" stroke-width="0.5" stroke-linecap="round" stroke-linejoin="round"/>
</svg>
