<svg width="311" height="319" viewBox="0 0 311 319" fill="none" xmlns="http://www.w3.org/2000/svg">
<mask id="mask0_1870_1591" style="mask-type:alpha" maskUnits="userSpaceOnUse" x="0" y="0" width="311" height="319">
<rect width="311" height="319" fill="#D9D9D9"/>
</mask>
<g mask="url(#mask0_1870_1591)">
<path d="M8.99963 161.959H255.58V172.508H8.99963V161.959Z" fill="#CECECE"/>
<path d="M255.58 172.508H8.99964" stroke="black" stroke-width="2" stroke-linecap="round" stroke-linejoin="round"/>
<path d="M120.855 161.161H82.5787L80.1191 147.269L77.6595 133.277H115.942L116.839 138.34L120.855 161.161Z" fill="#3C2C5B"/>
<path opacity="0.2" d="M80.1178 147.269L77.6582 133.277H115.941L116.838 138.34L80.1178 147.269Z" fill="black"/>
<path d="M146.989 135.923H47.5579C40.9387 135.923 34.6557 130.587 33.4726 123.968L21.4236 55.7271C20.2405 49.1079 24.6803 43.7715 31.2496 43.7715H130.731C137.35 43.7715 143.633 49.1079 144.816 55.7271L156.821 124.018C158.004 130.587 153.608 135.923 146.989 135.923Z" fill="#3C2C5B"/>
<path d="M141.84 128.744H50.1548C45.9019 128.744 41.8855 125.294 41.1321 121.085L30.1167 58.7036C29.3632 54.4507 32.1965 51.0508 36.4495 51.0508H128.134C132.387 51.0508 136.404 54.5005 137.163 58.7036L148.172 121.085C148.882 125.294 146.043 128.744 141.84 128.744Z" fill="#EAEAEA"/>
<path d="M116.414 135.922H78.1311" stroke="black" stroke-width="2" stroke-linecap="round" stroke-linejoin="round"/>
<path d="M104.79 69.3477H66.8677C61.2511 69.3477 57.3717 73.1523 58.1812 77.8598L62.291 101.827C63.1005 106.535 68.2874 110.333 73.8979 110.333H111.826C117.436 110.333 121.322 106.535 120.512 101.827L116.396 77.8598C115.593 73.1523 110.406 69.3477 104.79 69.3477Z" fill="#767676"/>
<path d="M113.721 73.5762L89.9775 92.892L59.5342 73.5762" fill="#767676"/>
<path d="M113.721 73.5762L89.9775 92.892L59.5342 73.5762" stroke="white" stroke-width="1.5" stroke-linecap="round" stroke-linejoin="round"/>
<path d="M94.0352 90.1133L119.316 106.172L94.0352 90.1133Z" fill="#767676"/>
<path d="M94.0352 90.1133L119.316 106.172" stroke="white" stroke-width="1.5" stroke-linecap="round" stroke-linejoin="round"/>
<path d="M65.1248 106.173L84.4531 90.4746L65.1248 106.173Z" fill="#767676"/>
<path d="M65.1248 106.173L84.4531 90.4746" stroke="white" stroke-width="1.5" stroke-linecap="round" stroke-linejoin="round"/>
<path d="M278.987 165.148C278.439 163.155 278.028 161.162 277.711 159.163C286.665 142.998 290.214 122.456 288.302 99.7464C286.982 88.7933 280.668 82.7719 272.76 79.5028C266.44 76.9124 259.08 76.1029 252.398 75.9783C252.442 75.0443 252.535 72.84 252.535 71.3517L217.079 71.1836L218.219 78.6123C209.675 81.1155 202.857 81.2401 199.264 83.2763C197.172 84.422 195.858 85.4432 195.036 86.2465C184.357 95.3751 179.768 142.569 179.718 143.036C179.631 143.167 174.356 148.26 167.856 154.58C161.859 160.44 153.951 175.802 153.951 175.802L165.315 183.866C152.631 187.857 140.04 192.141 132.723 195.585C113.682 204.452 110.724 221.389 108.364 235.013C108.09 236.371 107.859 237.728 107.592 239.042C106.409 245.281 104.864 257.125 103.364 269.392C100.86 290.146 107.498 306.785 107.455 307.121L211.811 308.777C211.811 308.777 214.9 288.789 212.901 278.894C212.627 277.537 212.266 276.011 211.992 274.697C207.857 256.235 202.402 242.99 201.674 241.253C201.63 241.165 201.717 241.078 201.811 241.078H221.538H249.895C270.444 241.078 282.119 226.308 285.033 218.674C288.533 208.867 289.255 196.431 279.759 167.738C279.485 166.847 279.211 166.001 278.987 165.148Z" fill="#D86A04"/>
<path d="M166.995 185.053L151.951 170.158C157.132 165.108 161.901 160.394 167.854 154.578C170.04 156.49 171.267 159.08 171.491 161.839C171.491 161.963 171.671 162.094 171.808 162.007C180.763 158.401 193.721 158.993 195.67 176.908C195.626 176.908 166.995 185.053 166.995 185.053Z" fill="white"/>
<path d="M216.99 71.3483L217.264 72.6186C217.264 71.6472 216.168 70.8377 215.122 71.0495C212.669 71.5601 210.67 72.6622 204.486 70.2462C204.486 70.2462 204.486 70.2462 204.443 70.2462C202.4 70.2462 200.532 69.3557 198.851 68.4217C192.581 64.8101 193.396 56.4909 194.947 49.0249C194.99 48.8132 194.897 48.6015 194.76 48.4707C193.944 47.792 191.491 45.5441 191.584 43.8877C191.671 42.4431 194.716 41.2537 195.856 40.8739C196.124 40.7867 196.261 40.575 196.31 40.3197C196.578 35.2323 196.578 29.9644 197.718 25.3814C200.763 20.2442 203.49 18.127 208.26 15.4495C217.127 9.85148 232.308 7.42921 241.804 12.5664C252.346 18.0399 252.483 32.7665 252.483 39.0494C252.533 42.1878 252.303 60.0154 252.166 71.3919C252.166 71.3483 216.897 71.4729 216.99 71.3483Z" fill="#AE805A"/>
<circle cx="204.816" cy="38.6693" r="1.97792" fill="#151413"/>
<path opacity="0.2" d="M201.673 241.04H221.219C221.306 241.04 221.306 240.953 221.262 240.91C219.805 240.019 211.536 235.056 202.899 230.386C199.811 228.73 197.806 228.475 196.903 228.475C196.629 228.475 196.492 228.73 196.579 228.942L201.492 240.91C201.536 240.997 201.629 241.04 201.673 241.04Z" fill="black"/>
<path d="M123.546 201.355C119.91 194.941 146.225 175.077 151.954 170.158C152.271 170.414 168.903 182.55 168.816 182.506C168.723 182.55 163.953 184.374 164.133 184.293C164.177 184.331 161.088 188.534 157.633 192.183C154.177 195.875 147.358 202.669 143.996 198.765C143.086 197.021 144.5 193.796 145.54 191.803C145.951 190.825 146.953 189.848 146.268 190.234C138.497 193.459 130.82 197.152 123.546 201.355Z" fill="#AE805A"/>
<path d="M166.172 209.712C162.268 207.552 165.356 197.196 165.4 197.109C165.537 196.897 156.539 208.822 152.722 204.538C151.221 201.904 157.859 190.702 157.902 190.571C165.948 176.442 175.63 165.701 193.352 159.206C194.218 158.913 195.992 159.548 195.992 159.548L204.99 182.507C201.491 185.689 197.537 188.41 193.309 190.571C193.265 190.745 189.809 206.829 183.171 207.807C182.175 207.931 181.172 207.763 180.263 207.296C180.263 207.296 178.675 209.712 176.446 210.055C174.765 210.267 173.445 209.42 172.125 207.633C171.807 208.187 168.719 211.369 166.172 209.712Z" fill="#AE805A"/>
<path opacity="0.2" d="M277.711 159.207C275.893 162.433 273.757 165.702 271.534 168.547C269.622 170.453 264.803 173.641 264.803 173.641C257.58 178.056 229.172 190.447 214.583 196.089L217.765 204.62C217.852 204.832 218.126 204.962 218.356 204.875C265.581 187.689 275.669 174.531 279.031 165.191C278.44 163.155 278.029 161.162 277.711 159.207Z" fill="black"/>
<path opacity="0.2" d="M209.899 153.523C207.128 142.781 203.766 129.923 203.355 128.354C203.355 128.266 203.218 128.229 203.174 128.266C198.903 131.068 201.082 146.094 197.676 157.551C198.809 160.528 203.174 161.076 204.943 160.696C206.63 160.354 210.809 157.85 209.899 153.523Z" fill="black"/>
<path d="M264.801 173.596C259.215 165.656 248.443 163.875 240.759 163.875C236.263 163.875 232.396 164.43 230.491 164.809C229.986 164.897 229.581 164.43 229.762 164C231.53 159.803 231.898 153.389 229.033 148.595C228.99 148.514 228.896 148.514 228.853 148.514C221.897 150.126 215.764 151.777 209.898 153.52C207.084 154.367 204.356 155.257 201.629 156.148C200.352 156.578 199.039 157.045 197.718 157.549C196.174 158.103 194.673 158.695 193.353 159.205L194.991 163.751L198.715 174.187L207.264 198.13C207.351 198.422 207.669 198.553 207.987 198.466C209.537 197.999 211.81 197.152 214.581 196.087C229.17 190.446 257.578 178.054 264.801 173.596C264.801 173.639 264.801 173.639 264.801 173.596Z" fill="white"/>
<path d="M226.581 103.991C214.264 103.991 203.809 96.0956 199.263 83.3616C199.263 83.318 199.263 83.3181 199.263 83.2745C199.537 83.1064 201.219 82.0851 202.171 81.6181C204.855 80.3042 207.539 79.2457 208.174 78.9904C208.218 78.9468 208.261 78.9032 208.174 78.8596C205.49 76.0637 204.357 70.7148 204.401 70.2478C204.401 70.2478 204.401 70.2042 204.444 70.2042C209.718 70.117 214.488 70.0361 216.126 69.3947C216.356 69.3137 216.537 69.1456 216.624 68.8903C220.896 58.7031 217.583 46.735 214.034 36.9276C210.852 28.3158 205.945 14.2617 205.721 13.8819C210.808 10.8245 218.125 9 225.628 9C247.485 9.08718 252.852 21.0117 254.577 38.6712C256.532 57.9372 274.03 61.4616 273.575 74.6627C273.488 77.0351 272.71 79.4574 272.666 79.5445C269.167 78.3552 265.804 77.4648 262.261 76.8234C254.303 93.8477 240.896 103.991 226.581 103.991Z" fill="#F4BE53"/>
<path opacity="0.2" d="M226.897 91.3376C220.627 91.3376 209.126 90.1919 202.264 81.7482C202.22 81.7046 202.264 81.661 202.307 81.661C204.941 80.3907 207.582 79.3259 208.217 79.0768C208.31 79.0332 208.397 79.0768 208.441 79.1142C210.807 81.5364 216.536 85.1854 226.349 85.7396C229.351 86.1194 234.669 86.163 238.94 86.4183C248.486 86.9663 235.621 91.6365 226.897 91.3376Z" fill="#0F0D07"/>
<path opacity="0.2" d="M272.758 79.545C269.439 78.3556 264.482 77.1663 262.346 76.8238C263.486 74.1525 264.302 71.1822 264.756 68.3801C264.756 68.3366 264.8 68.293 264.85 68.293C265.896 68.1249 266.35 69.1834 266.986 70.5035C267.938 72.4526 269.078 74.8312 272.39 74.8312C272.845 74.8312 273.119 74.7441 273.574 74.6631C273.574 74.6631 273.617 74.6631 273.617 74.7005C273.53 76.8674 273.256 77.8886 272.758 79.545Z" fill="#0F0D07"/>
<path d="M205.266 50.4688C204.356 52.1625 202.856 52.5859 200.402 52.5859" stroke="#151413" stroke-width="2" stroke-linecap="round" stroke-linejoin="round"/>
<path d="M209.805 153.263L203.397 128.262" stroke="black" stroke-width="2" stroke-linecap="round" stroke-linejoin="round"/>
<path d="M196.45 228.518L201.537 241.077" stroke="black" stroke-width="2" stroke-linecap="round" stroke-linejoin="round"/>
<path d="M165.36 197.278C166.176 193.585 167.266 188.959 168.816 184.631" stroke="#151413" stroke-width="2" stroke-linecap="round" stroke-linejoin="round"/>
<path d="M176.721 185.732C174.267 193.715 172.904 202.246 172.262 207.551" stroke="#151413" stroke-width="2" stroke-linecap="round" stroke-linejoin="round"/>
<path d="M185.488 187.008C183.67 193.372 181.129 201.647 180.264 207.295" stroke="#151413" stroke-width="2" stroke-linecap="round" stroke-linejoin="round"/>
<path d="M164.996 179.703C162.399 183.228 159.996 186.833 157.81 190.569C157.81 190.569 157.219 191.379 155.948 193.925" stroke="#151413" stroke-width="2" stroke-linecap="round" stroke-linejoin="round"/>
<path d="M149.312 186.375L146.585 190.149" stroke="#151413" stroke-width="2" stroke-linecap="round" stroke-linejoin="round"/>
<path d="M228.99 148.471C235.167 146.983 239.575 146.261 240.03 146.093L246.307 125.463" stroke="black" stroke-width="2" stroke-linecap="round" stroke-linejoin="round"/>
<path d="M277.711 159.207C276.079 162.352 273.807 165.614 271.397 168.292C269.853 169.948 267.717 171.985 264.803 173.641" stroke="black" stroke-width="2" stroke-linecap="round" stroke-linejoin="round"/>
<path d="M226.35 85.6987C213.08 84.7647 208.173 78.8242 208.173 78.8242" stroke="#0F0D07" stroke-width="2" stroke-linecap="round" stroke-linejoin="round"/>
<path d="M262.347 76.8226C263.306 74.8736 264.483 69.9917 264.801 68.3789" stroke="#0F0D07" stroke-width="2" stroke-linecap="round" stroke-linejoin="round"/>
<path d="M216.717 68.9332C217.171 67.7439 217.669 66.1311 218.174 63.877" stroke="#0F0D07" stroke-width="2" stroke-linecap="round" stroke-linejoin="round"/>
<path d="M216.58 312.847C215.945 312.847 100.498 312.635 98.4994 312.635C98.4994 312.635 98.4994 312.635 98.4994 312.592C98.5866 311.701 100.772 288.357 103.319 269.302C106.271 267.82 109.409 267.098 112.591 267.098C124.858 266.457 138.271 281.102 142.542 287.765C142.766 288.107 143.314 288.145 143.588 287.809C146.858 283.394 150.675 281.146 154.996 281.146C162.132 280.722 171.13 289.122 175.177 294.092C175.582 294.559 176.354 294.26 176.267 293.662C175.128 285.853 173.72 263.742 189.219 263.785C196.355 263.785 205.035 269.259 212.856 278.811C215.079 290.013 216.443 301.477 216.58 312.847Z" fill="#5F3E26"/>
<path d="M112.739 358.9H75.3337C75.1095 358.9 74.9289 358.732 74.9289 358.52C75.4706 343.75 92.9682 343.663 96.6546 325.418C97.4703 321.682 98.423 312.342 98.4728 311.451C98.4728 311.408 98.5164 311.408 98.5164 311.408C100.017 311.283 124.651 307.547 124.651 307.547C124.651 307.547 151.059 311.115 152.012 311.115C151.601 319.347 150.467 328.936 148.923 336.664C148.512 336.788 128.331 343.414 127.378 343.75C127.378 343.75 127.335 343.75 127.335 343.794C126.787 344.429 116.786 355.463 114.239 358.309C113.878 358.651 113.33 358.9 112.739 358.9Z" fill="black"/>
<path d="M140.423 358.525C141.787 339.003 167.236 345.535 164.964 311.412C165.511 311.499 190.008 304.369 190.008 304.369C190.008 304.369 215.594 311.331 216.641 311.623C216.827 319.986 216.373 329.364 215.37 337.303C214.916 337.428 193.551 343.499 192.916 343.667C191.783 344.856 181.328 356.532 179.373 358.693C179.236 358.867 179.011 358.948 178.781 358.948C175.057 358.948 145.013 358.948 140.921 358.948C140.604 358.948 140.373 358.736 140.423 358.525Z" fill="black"/>
<path d="M259.23 253.592C255.992 253.592 253.32 256.213 253.32 259.451L253.37 274.794V338.259C253.37 341.503 255.992 344.125 259.23 344.125C262.474 344.125 265.089 341.503 265.089 338.259V259.451C265.139 256.213 262.517 253.592 259.23 253.592Z" fill="#767676"/>
<path opacity="0.2" d="M259.23 253.592C262.517 253.592 265.139 256.213 265.089 259.451V280.131L253.37 274.794L253.32 259.451C253.37 256.213 255.992 253.592 259.23 253.592Z" fill="black"/>
<path d="M218.114 351.984C218.923 351.268 258.9 316.348 258.9 316.348H259.61C259.61 316.348 299.587 351.268 300.402 351.984C301.399 352.557 302.495 355.365 300.925 357.177C299.686 358.703 297.494 359.083 295.826 357.987C295.732 357.943 273.857 342.93 260.756 333.926C259.853 333.31 258.707 333.31 257.804 333.926C244.696 342.93 222.778 357.943 222.734 357.987C221.016 359.083 218.78 358.653 217.634 357.177C216.015 355.322 217.111 352.557 218.114 351.984Z" fill="#231F20"/>
<path d="M268.761 314.055H249.744C248.605 314.055 247.696 314.964 247.696 316.103V326.303H270.854V316.103C270.81 314.964 269.901 314.055 268.761 314.055Z" fill="#3C2C5B"/>
<path d="M270.809 249.875H247.651V265.741C247.651 266.551 248.317 267.267 249.176 267.267H269.327C270.142 267.267 270.809 266.6 270.809 265.741V249.875Z" fill="#3C2C5B"/>
<path d="M293.488 240.441H225.017C220.446 240.441 216.773 244.159 216.773 248.686C216.773 253.256 220.49 256.93 225.017 256.93H293.488C298.065 256.93 301.732 253.213 301.732 248.686C301.732 244.159 298.015 240.441 293.488 240.441Z" fill="#231F20"/>
</g>
</svg>
