<svg width="425" height="252" viewBox="0 0 425 252" fill="none" xmlns="http://www.w3.org/2000/svg">
<path d="M409 250.551C369.207 184.326 292.681 139.453 204.708 139.453C116.736 139.453 40.2139 184.326 0.421875 250.551H409Z" fill="#F2E5D1"/>
<path d="M125.982 151.979C119.065 168.73 107.43 182.635 94.5136 190.009C80.006 198.385 60.8455 199.002 45.1113 197.695" stroke="#F2E5D1" stroke-width="1.5" stroke-linecap="round" stroke-linejoin="round"/>
<path d="M51.5996 250.553C61.9477 237.112 75.5975 226.585 89.8007 220.666C106.453 213.75 124.207 211.752 141.716 212.601C151.386 213.06 161.001 214.288 170.671 213.444C177.713 212.827 184.63 211.062 191.427 208.758C221.485 198.849 250.196 178.56 269.541 148.441" stroke="#F2E5D1" stroke-width="1.5" stroke-linecap="round" stroke-linejoin="round"/>
<path d="M283.439 152.283C266.173 171.802 255.765 197.999 243.402 222.663C238.809 231.808 233.358 242.181 227.668 250.399" stroke="#F2E5D1" stroke-width="1.5" stroke-linecap="round" stroke-linejoin="round"/>
<path d="M355.188 190.932C341.962 206.914 332.596 227.966 328.926 250.479" stroke="#F2E5D1" stroke-width="1.5" stroke-linecap="round" stroke-linejoin="round"/>
<path d="M164.982 142.606C176.488 152.669 191.429 157.507 205.568 155.894C217.262 154.593 228.588 148.979 238.931 141.91" stroke="#F2E5D1" stroke-width="1.5" stroke-linecap="round" stroke-linejoin="round"/>
<path d="M197.327 221.68C192.151 220.281 191.938 221.789 186.546 221.789C181.154 221.789 181.154 221.141 175.762 221.141C172.633 221.141 169.831 221.142 167.245 221.25C167.136 221.25 167.136 221.141 167.136 221.141C167.136 220.928 167.136 220.603 167.136 220.389C165.842 214.891 165.95 214.783 164.655 209.288C164.439 208.425 164.333 207.669 164.117 206.917C162.713 199.803 161.422 194.522 159.48 187.192C157.755 178.892 156.352 173.289 154.197 165.098C152.041 158.093 152.363 147.1 142.874 146.561C137.481 146.561 137.481 147.1 132.198 147.1C124.22 147.205 118.828 146.992 110.85 146.561C105.674 146.561 105.566 147.422 100.713 147.422C100.496 147.422 100.391 147.422 100.174 147.422C92.1959 146.883 86.8039 146.667 78.8225 146.883C77.2059 146.883 76.1281 146.883 75.264 146.883C73 146.992 71.9223 147.1 68.1501 147.1C62.758 147.1 62.758 146.453 57.4744 146.453C54.3463 146.453 51.5434 146.561 48.9542 146.667C44.8568 146.775 40.9762 146.992 36.123 147.1C30.8393 147.1 30.8393 146.992 25.4473 146.992C15.5273 148.069 21.9971 158.848 22.9697 164.99C24.0475 171.135 25.3388 177.168 26.6335 183.096C29.4363 195.599 32.7813 207.886 36.0145 220.711C36.123 221.141 36.123 221.467 36.5534 221.467C36.3398 221.575 36.123 221.575 35.9061 221.68C34.2895 222.222 35.2621 223.191 35.2621 224.915C35.2621 226.423 36.4483 227.933 37.9565 228.58C38.3869 228.794 38.9258 228.902 39.3595 228.902C44.8567 228.902 44.8567 228.794 50.3573 228.794C55.8545 228.794 55.8545 228.042 61.355 228.042C63.1885 228.042 64.3747 228.147 65.4524 228.255C67.5028 228.472 68.689 228.902 72.3527 228.902C75.9113 228.902 79.0394 228.902 82.0591 229.011C85.9397 229.011 89.7151 229.119 94.3514 229.119C99.8487 229.119 99.8487 228.58 105.349 228.58C110.85 228.58 110.85 228.902 116.347 228.902C127.887 228.902 137.698 229.119 149.235 228.364C154.735 228.364 154.735 229.227 160.236 229.227C165.736 229.227 165.733 228.472 171.234 228.472C179.429 228.58 185.034 228.686 193.229 228.686C195.602 228.686 197.974 226.748 197.974 224.485C197.865 222.974 198.73 222.005 197.327 221.68Z" fill="#F5F3F1"/>
<path d="M36.663 221.576C36.5546 221.576 36.5546 221.576 36.663 221.576ZM36.663 221.576C36.2326 221.576 36.2326 221.143 36.1242 220.821C32.8909 207.995 29.6543 195.817 26.7431 183.205C25.4484 177.277 24.1538 171.241 23.0761 165.099C22.1067 158.954 15.6369 148.178 25.5569 147.101C30.949 147.101 30.949 147.206 36.2326 147.206C41.0858 147.101 44.9664 146.884 49.0638 146.776C51.7582 146.668 54.4559 146.562 57.584 146.562C62.9728 146.562 62.9728 147.206 68.2564 147.206C72.0319 147.206 73.1096 147.101 75.3736 146.993C76.2378 146.993 77.424 146.884 78.9322 146.884C86.9135 146.668 92.3023 146.884 100.284 147.423C100.497 147.423 100.606 147.423 100.822 147.423C105.676 147.423 105.781 146.562 110.959 146.562C118.937 146.993 124.329 147.206 132.307 147.101C137.699 147.101 137.699 146.562 142.983 146.562C152.473 147.101 152.147 158.094 154.306 165.099C156.462 173.29 157.756 178.893 159.59 187.193C161.528 194.632 162.823 199.913 164.226 207.023C164.44 207.779 164.548 208.534 164.765 209.395C166.06 214.892 165.951 215.001 167.246 220.496" stroke="#2E3343" stroke-width="2" stroke-linecap="round" stroke-linejoin="round"/>
<path d="M197.867 224.375C197.867 226.747 195.494 228.579 193.125 228.579C184.927 228.579 179.321 228.471 171.126 228.363C165.626 228.363 165.626 229.118 160.129 229.118C154.631 229.118 154.628 228.254 149.128 228.254C137.591 229.01 127.78 228.684 116.243 228.793C110.742 228.793 110.742 228.471 105.242 228.471C99.7447 228.471 99.7447 229.01 94.2442 229.01C89.6078 229.01 85.8324 229.01 81.9518 228.901C78.9321 228.901 75.9124 228.793 72.2487 228.793C68.5817 228.793 67.3955 228.471 65.3451 228.146C64.2674 228.041 63.0812 227.932 61.2477 227.932C55.7505 227.932 55.7505 228.684 50.25 228.684C44.7495 228.684 44.7495 228.793 39.2522 228.793C38.8185 228.793 38.2796 228.684 37.8492 228.471C36.341 227.824 35.1548 226.316 35.1548 224.806C35.1548 223.081 34.077 222.113 35.8021 221.574C36.0157 221.466 36.2326 221.466 36.4494 221.357C39.3607 220.493 40.5469 220.819 42.3771 221.035C43.4581 221.249 44.6443 221.357 46.4745 221.357C50.7889 221.357 51.653 220.927 54.6694 220.819C55.3167 220.819 56.1809 220.819 57.1502 220.819C62.2203 220.927 67.0702 221.14 71.7065 221.357C77.4239 221.466 83.138 221.574 89.391 221.357C92.0886 221.357 94.783 221.357 97.3723 221.357C99.2058 221.357 101.144 221.357 102.978 221.466C108.692 221.574 114.301 221.574 120.445 221.466C120.879 221.466 121.31 221.466 121.74 221.466C133.063 220.819 142.661 220.602 153.872 221.574H153.981C154.089 221.574 154.089 221.574 154.198 221.574C158.942 221.357 162.823 221.14 166.92 221.035C169.618 220.927 172.421 220.927 175.546 220.927C180.938 220.927 180.938 221.574 186.33 221.574C191.722 221.574 191.83 220.172 197.114 221.466C198.731 222.004 197.867 222.973 197.867 224.375Z" stroke="#2E3343" stroke-width="2" stroke-linecap="round" stroke-linejoin="round"/>
<path d="M107.292 191.612C105.997 186.222 105.567 185.358 104.38 180.077C96.399 179.972 91.0102 180.186 83.1373 180.616C77.8537 180.616 77.8537 180.186 72.4616 180.186C72.248 180.186 72.248 180.511 72.248 180.724C73.5394 186.005 73.6478 187.191 75.2645 192.364C80.5481 192.364 80.5481 191.825 85.9402 191.825C93.9215 192.042 99.3103 192.042 107.183 191.825C107.292 191.934 107.292 191.72 107.292 191.612Z" stroke="#2E3343" stroke-width="2" stroke-linecap="round" stroke-linejoin="round"/>
<path d="M245.812 168.68C250.987 167.281 251.201 168.789 256.593 168.789C261.985 168.789 261.985 168.141 267.377 168.141C270.505 168.141 273.308 168.142 275.894 168.25C276.002 168.25 276.002 168.141 276.002 168.141C276.002 167.928 276.002 167.603 276.002 167.389C277.297 161.891 277.189 161.783 278.483 156.288C278.7 155.425 278.805 154.669 279.022 153.917C280.425 146.803 281.717 141.522 283.658 134.192C285.384 125.892 286.787 120.289 288.942 112.098C291.098 105.093 290.776 94.1001 300.265 93.5615C305.657 93.5615 305.657 94.1001 310.941 94.1001C318.919 94.2052 324.311 93.9917 332.289 93.5615C337.464 93.5615 337.573 94.422 342.426 94.422C342.643 94.422 342.748 94.422 342.965 94.422C350.943 93.8834 356.335 93.6666 364.316 93.8834C365.933 93.8834 367.011 93.8834 367.875 93.8834C370.139 93.9918 371.216 94.1001 374.989 94.1001C380.381 94.1001 380.381 93.4531 385.664 93.4531C388.792 93.4531 391.595 93.5615 394.184 93.6666C398.282 93.775 402.163 93.9917 407.016 94.1001C412.299 94.1001 412.299 93.9918 417.691 93.9918C427.611 95.069 421.142 105.848 420.169 111.99C419.091 118.135 417.8 124.168 416.505 130.096C413.702 142.599 410.357 154.886 407.124 167.711C407.016 168.141 407.016 168.467 406.585 168.467C406.799 168.575 407.016 168.575 407.233 168.68C408.849 169.222 407.877 170.191 407.877 171.915C407.877 173.423 406.69 174.933 405.182 175.58C404.752 175.794 404.213 175.902 403.779 175.902C398.282 175.902 398.282 175.794 392.781 175.794C387.284 175.794 387.284 175.042 381.784 175.042C379.95 175.042 378.764 175.147 377.686 175.255C375.636 175.472 374.45 175.902 370.786 175.902C367.227 175.902 364.099 175.902 361.08 176.011C357.199 176.011 353.424 176.119 348.787 176.119C343.29 176.119 343.29 175.58 337.79 175.58C332.289 175.58 332.289 175.902 326.792 175.902C315.252 175.902 305.44 176.119 293.904 175.364C288.403 175.364 288.403 176.227 282.903 176.227C277.402 176.227 277.406 175.472 271.905 175.472C263.71 175.58 258.104 175.686 249.91 175.686C247.537 175.686 245.165 173.748 245.165 171.485C245.273 169.974 244.409 169.005 245.812 168.68Z" fill="#F5F3F1"/>
<path d="M406.476 168.576C406.584 168.576 406.584 168.576 406.476 168.576ZM406.476 168.576C406.906 168.576 406.906 168.143 407.015 167.821C410.248 154.995 413.484 142.817 416.396 130.205C417.69 124.277 418.985 118.241 420.063 112.099C421.032 105.954 427.502 95.1784 417.582 94.1011C412.19 94.1011 412.19 94.2062 406.906 94.2062C402.053 94.1011 398.172 93.8844 394.075 93.776C391.38 93.6676 388.683 93.5625 385.555 93.5625C380.166 93.5625 380.166 94.2062 374.882 94.2062C371.107 94.2062 370.029 94.1011 367.765 93.9928C366.901 93.9928 365.715 93.8844 364.207 93.8844C356.225 93.6676 350.836 93.8844 342.855 94.423C342.642 94.423 342.533 94.423 342.316 94.423C337.463 94.423 337.358 93.5625 332.179 93.5625C324.201 93.9927 318.809 94.2062 310.831 94.1011C305.439 94.1011 305.439 93.5625 300.156 93.5625C290.666 94.1011 290.991 105.094 288.833 112.099C286.677 120.29 285.382 125.893 283.549 134.193C281.61 141.632 280.316 146.913 278.913 154.023C278.699 154.779 278.591 155.534 278.374 156.395C277.079 161.892 277.187 162.001 275.893 167.496" stroke="#2E3343" stroke-width="2" stroke-linecap="round" stroke-linejoin="round"/>
<path d="M245.272 171.375C245.272 173.747 247.644 175.579 250.014 175.579C258.212 175.579 263.817 175.471 272.012 175.363C277.513 175.363 277.513 176.118 283.01 176.118C288.507 176.118 288.511 175.254 294.011 175.254C305.548 176.01 315.359 175.684 326.896 175.793C332.396 175.793 332.396 175.471 337.897 175.471C343.394 175.471 343.394 176.01 348.895 176.01C353.531 176.01 357.306 176.01 361.187 175.901C364.207 175.901 367.226 175.793 370.89 175.793C374.557 175.793 375.743 175.471 377.794 175.146C378.871 175.041 380.057 174.932 381.891 174.932C387.388 174.932 387.388 175.684 392.889 175.684C398.389 175.684 398.389 175.793 403.886 175.793C404.32 175.793 404.859 175.684 405.289 175.471C406.798 174.824 407.984 173.316 407.984 171.806C407.984 170.081 409.062 169.113 407.337 168.574C407.123 168.466 406.906 168.466 406.689 168.357C403.778 167.493 402.592 167.819 400.762 168.035C399.681 168.249 398.494 168.357 396.664 168.357C392.35 168.357 391.486 167.927 388.469 167.819C387.822 167.819 386.958 167.819 385.988 167.819C380.918 167.927 376.068 168.14 371.432 168.357C365.715 168.466 360.001 168.574 353.748 168.357C351.05 168.357 348.356 168.357 345.766 168.357C343.933 168.357 341.994 168.357 340.161 168.466C334.447 168.574 328.838 168.574 322.693 168.466C322.259 168.466 321.829 168.466 321.399 168.466C310.076 167.819 300.478 167.602 289.266 168.574H289.158C289.049 168.574 289.049 168.574 288.941 168.574C284.196 168.357 280.316 168.14 276.218 168.035C273.521 167.927 270.718 167.927 267.593 167.927C262.201 167.927 262.201 168.574 256.809 168.574C251.417 168.574 251.308 167.172 246.025 168.466C244.408 169.004 245.272 169.973 245.272 171.375Z" stroke="#2E3343" stroke-width="2" stroke-linecap="round" stroke-linejoin="round"/>
<path d="M335.847 138.612C337.142 133.222 337.572 132.358 338.758 127.077C346.74 126.972 352.128 127.186 360.001 127.616C365.285 127.616 365.285 127.186 370.677 127.186C370.891 127.186 370.891 127.511 370.891 127.724C369.599 133.005 369.491 134.191 367.874 139.364C362.591 139.364 362.591 138.825 357.199 138.825C349.217 139.042 343.828 139.042 335.956 138.825C335.847 138.934 335.847 138.72 335.847 138.612Z" stroke="#2E3343" stroke-width="2" stroke-linecap="round" stroke-linejoin="round"/>
<path d="M81 145.453C97.2048 116.202 143.512 71.4915 192.813 57.6999C264.114 37.7542 318.671 80.303 350 91.6046" stroke="black" stroke-width="2" stroke-dasharray="4 4"/>
<path d="M265.73 35.8244C261.142 39.1753 261.46 39.7617 256.873 43.1127C252.286 46.4636 251.756 45.5994 247.169 48.9503C242.586 52.3007 242.636 52.4529 237.999 55.6517C231.361 61.0386 226.824 64.5417 219.656 69.0597C212.997 74.7638 208.766 78.0674 201.363 82.6199C188.548 90.6445 193.786 93.8171 184.677 78.4583L184.414 78.0235L184.245 77.8889C183.214 78.5139 182.183 79.139 181.152 79.764C169.661 84.2845 159.957 90.1221 148.987 94.7304C148.871 94.7474 148.871 94.7474 148.822 94.5953C148.822 94.5953 148.822 94.5953 148.773 94.4478C151.064 85.6027 152.997 79.8058 155.573 71.0782C157.22 65.1637 156.981 63.3099 158.963 57.6651C164.287 56.5635 164.659 56.1948 169.276 55.2022C169.395 55.1846 169.345 55.0324 169.345 55.0324L169.03 54.4508C165.774 49.4167 165.893 49.3991 162.637 44.3649C162.374 43.9302 162.439 43.761 162.576 43.4269C163.662 36.1794 162.925 35.8142 163.945 28.7359C165.028 21.4889 165.648 21.8663 166.784 14.771C166.871 14.2846 166.958 13.7983 167.362 13.8984C174.397 15.3815 174.425 15.8508 181.346 17.3556C188.382 18.8434 188.201 17.9228 195.237 19.4106C214.468 24.9326 231.966 28.1871 251.146 31.668C258.182 33.1558 258.182 33.1558 265.1 34.6558C266.094 34.6693 266.221 35.4382 265.73 35.8244Z" fill="#F3C259"/>
<path d="M171.127 52.9644C167.935 48.0726 168.052 48.0555 164.86 43.1636C164.602 42.7412 164.666 42.5768 164.753 42.1089C165.818 35.0619 165.097 34.7117 166.097 27.829C167.16 20.7872 167.887 21.1415 168.883 14.2594C168.969 13.7869 169.056 13.319 169.5 13.5595C176.398 15.0009 176.426 15.457 183.212 16.9195C190.112 18.3656 189.935 17.4711 196.835 18.9171C215.692 24.2839 232.851 27.4471 251.659 30.8305C258.559 32.2766 258.559 32.2766 265.343 33.7345C266.131 33.925 266.259 34.6716 265.662 35.0685C261.162 38.3244 261.589 38.8726 256.974 42.1501C252.479 45.4055 251.955 44.5616 247.46 47.8169C242.962 51.0774 243.009 51.2207 238.463 54.3333C231.953 59.5675 227.503 62.9713 220.472 67.361C213.945 72.9028 209.793 76.1081 202.53 80.5365C189.962 88.3334 195.096 91.4119 186.171 76.4867" stroke="#2E3343" stroke-width="2" stroke-linecap="round" stroke-linejoin="round"/>
<path d="M144.608 94.8582C144.489 94.8767 144.314 94.7306 144.387 94.5515C146.747 84.9481 148.688 78.4891 151.395 69.1785C153.093 62.757 152.844 60.7444 154.888 54.6157C154.888 54.6157 154.888 54.6157 155.012 54.5966C161.003 53.3241 160.901 52.9989 167.017 51.7124C173.13 50.4266 173.487 51.5675 179.603 50.281C196.343 47.0059 211.057 42.166 228.076 39.3674C236.983 36.789 243.045 35.3431 252.36 34.0709C254.832 34.2029 265.418 27.609 264.541 31.3328C253.292 37.8615 243.241 42.4947 232.269 49.4947C220.59 55.0616 210.589 59.8548 199.238 66.0583C191.139 70.3898 185.862 73.9441 178.086 78.9075C166.032 83.6773 156.002 90.0175 144.608 94.8582Z" stroke="#2E3343" stroke-width="2" stroke-linecap="round" stroke-linejoin="round"/>
<path d="M162.369 47.2209C168.686 46.4514 168.254 44.7745 174.566 43.9992C180.881 43.223 180.881 43.223 187.192 42.4477C193.509 41.6782 193.865 43.5852 200.18 42.8091C206.491 42.0337 206.546 42.2458 212.861 41.4697C219.176 40.6936 218.692 38.8113 225.003 38.0359C231.319 37.2598 231.428 37.684 237.739 36.9087" stroke="#2E3343" stroke-width="2" stroke-linecap="round" stroke-linejoin="round"/>
</svg>
