<svg width="180" height="121" viewBox="0 0 200 134" fill="none" xmlns="http://www.w3.org/2000/svg">
<path d="M87.9077 128.158C85.3713 127.265 85.2666 128.227 82.624 128.227C79.9813 128.227 79.9813 127.814 77.3387 127.814C75.8056 127.814 74.4319 127.814 73.1646 127.883C73.1114 127.883 73.1114 127.814 73.1114 127.814C73.1114 127.678 73.1114 127.47 73.1114 127.334C72.4769 123.825 72.5301 123.755 71.8956 120.248C71.7893 119.697 71.7377 119.215 71.6315 118.735C70.9438 114.194 70.3109 110.823 69.3592 106.144C68.5137 100.846 67.8261 97.27 66.7697 92.0416C65.7133 87.5701 65.8711 80.5536 61.2203 80.2098C58.5776 80.2098 58.5776 80.5536 55.9881 80.5536C52.0781 80.6207 49.4354 80.4844 45.5254 80.2098C42.989 80.2098 42.9359 80.7591 40.5573 80.7591C40.4511 80.7591 40.3995 80.7591 40.2932 80.7591C36.3832 80.4153 33.7405 80.2769 29.8289 80.4152C29.0366 80.4152 28.5084 80.4152 28.0849 80.4152C26.9753 80.4844 26.4471 80.5536 24.5984 80.5536C21.9557 80.5536 21.9557 80.1406 19.3662 80.1406C17.8331 80.1406 16.4594 80.2098 15.1904 80.2769C13.1823 80.3461 11.2804 80.4844 8.90187 80.5536C6.31236 80.5536 6.31235 80.4844 3.6697 80.4844C-1.19207 81.172 1.97879 88.0523 2.45547 91.9725C2.98368 95.8948 3.61656 99.7458 4.25105 103.53C5.62472 111.511 7.2641 119.353 8.84872 127.539C8.90186 127.814 8.90187 128.021 9.11283 128.021C9.00815 128.091 8.90187 128.091 8.79558 128.158C8.00327 128.504 8.47994 129.122 8.47994 130.223C8.47994 131.185 9.06129 132.149 9.80046 132.562C10.0114 132.698 10.2755 132.768 10.4881 132.768C13.1823 132.768 13.1823 132.698 15.8781 132.698C18.5723 132.698 18.5723 132.218 21.2681 132.218C22.1667 132.218 22.748 132.285 23.2762 132.355C24.2811 132.493 24.8625 132.768 26.658 132.768C28.4021 132.768 29.9352 132.768 31.4151 132.837C33.317 132.837 35.1674 132.906 37.4396 132.906C40.1338 132.906 40.1338 132.562 42.8296 132.562C45.5254 132.562 45.5254 132.768 48.2196 132.768C53.8753 132.768 58.6839 132.906 64.338 132.424C67.0338 132.424 67.0338 132.975 69.7296 132.975C72.4254 132.975 72.4238 132.493 75.1196 132.493C79.1359 132.562 81.8832 132.629 85.8995 132.629C87.0622 132.629 88.2249 131.392 88.2249 129.948C88.1718 128.984 88.5953 128.365 87.9077 128.158Z" fill="#F5F3F1"/>
<path d="M9.16568 128.092C9.11254 128.092 9.11254 128.092 9.16568 128.092ZM9.16568 128.092C8.95472 128.092 8.95472 127.815 8.90158 127.61C7.31695 119.423 5.73071 111.65 4.30391 103.6C3.66941 99.8161 3.03492 95.963 2.50671 92.0428C2.03164 88.1205 -1.13922 81.2423 3.72256 80.5547C6.36521 80.5547 6.36521 80.6218 8.95472 80.6218C11.3333 80.5547 13.2351 80.4164 15.2433 80.3472C16.5638 80.278 17.886 80.2109 19.419 80.2109C22.0601 80.2109 22.0601 80.6218 24.6496 80.6218C26.4999 80.6218 27.0281 80.5548 28.1377 80.4856C28.5612 80.4856 29.1426 80.4164 29.8818 80.4164C33.7934 80.278 36.4345 80.4164 40.3461 80.7602C40.4508 80.7602 40.5039 80.7602 40.6102 80.7602C42.9887 80.7602 43.0403 80.2109 45.5783 80.2109C49.4883 80.4856 52.1309 80.6218 56.041 80.5547C58.6836 80.5547 58.6836 80.2109 61.2731 80.2109C65.9239 80.5547 65.7645 87.5713 66.8225 92.0428C67.879 97.2711 68.5135 100.848 69.4121 106.145C70.3622 110.893 70.9967 114.264 71.6843 118.803C71.789 119.285 71.8421 119.767 71.9484 120.316C72.5829 123.826 72.5298 123.895 73.1643 127.402" stroke="#2E3343" stroke-width="2" stroke-linecap="round" stroke-linejoin="round"/>
<path d="M88.1716 129.878C88.1716 131.391 87.0089 132.561 85.8478 132.561C81.8299 132.561 79.0826 132.492 75.0663 132.423C72.3705 132.423 72.3705 132.905 69.6763 132.905C66.9821 132.905 66.9805 132.354 64.2847 132.354C58.6306 132.836 53.822 132.628 48.1679 132.697C45.4721 132.697 45.4721 132.492 42.7763 132.492C40.0821 132.492 40.0821 132.836 37.3863 132.836C35.1141 132.836 33.2637 132.836 31.3618 132.767C29.8819 132.767 28.4019 132.697 26.6064 132.697C24.8092 132.697 24.2278 132.492 23.2229 132.284C22.6947 132.217 22.1134 132.148 21.2148 132.148C18.5206 132.148 18.5206 132.628 15.8248 132.628C13.129 132.628 13.129 132.697 10.4348 132.697C10.2222 132.697 9.95813 132.628 9.74717 132.492C9.008 132.079 8.42664 131.117 8.42664 130.152C8.42664 129.052 7.89844 128.433 8.74389 128.09C8.84857 128.02 8.95485 128.02 9.06114 127.951C10.4879 127.4 11.0693 127.607 11.9663 127.746C12.4961 127.882 13.0775 127.951 13.9744 127.951C16.0889 127.951 16.5124 127.677 17.9908 127.607C18.308 127.607 18.7315 127.607 19.2066 127.607C21.6914 127.677 24.0684 127.813 26.3406 127.951C29.1427 128.02 31.9432 128.09 35.0078 127.951C36.3299 127.951 37.6504 127.951 38.9194 127.951C39.818 127.951 40.7681 127.951 41.6667 128.02C44.4672 128.09 47.2162 128.09 50.2276 128.02C50.4402 128.02 50.6511 128.02 50.8621 128.02C56.4115 127.607 61.1154 127.469 66.6101 128.09H66.6632C66.7164 128.09 66.7164 128.09 66.7695 128.09C69.0949 127.951 70.9968 127.813 73.005 127.746C74.3271 127.677 75.7008 127.677 77.2322 127.677C79.8749 127.677 79.8749 128.09 82.5176 128.09C85.1602 128.09 85.2134 127.194 87.8029 128.02C88.5952 128.364 88.1716 128.983 88.1716 129.878Z" stroke="#2E3343" stroke-width="2" stroke-linecap="round" stroke-linejoin="round"/>
<path d="M43.7822 108.965C43.1477 105.525 42.9368 104.974 42.3554 101.603C38.4438 101.536 35.8028 101.672 31.9443 101.947C29.3547 101.947 29.3547 101.672 26.7121 101.672C26.6074 101.672 26.6074 101.88 26.6074 102.016C27.2403 105.387 27.2934 106.144 28.0858 109.445C30.6753 109.445 30.6753 109.102 33.3179 109.102C37.2296 109.24 39.8706 109.24 43.7291 109.102C43.7823 109.171 43.7822 109.034 43.7822 108.965Z" stroke="#2E3343" stroke-width="2" stroke-linecap="round" stroke-linejoin="round"/>
<path d="M111.67 94.3277C114.207 93.4346 114.311 94.3968 116.954 94.3968C119.597 94.3968 119.597 93.9838 122.239 93.9838C123.773 93.9838 125.146 93.9838 126.414 94.053C126.467 94.053 126.467 93.9838 126.467 93.9838C126.467 93.8476 126.467 93.64 126.467 93.5038C127.101 89.9945 127.048 89.9253 127.683 86.4181C127.789 85.8667 127.84 85.3846 127.947 84.9045C128.634 80.3638 129.267 76.9929 130.219 72.3138C131.064 67.0163 131.752 63.4399 132.808 58.2116C133.865 53.74 133.707 46.7235 138.358 46.3797C141 46.3797 141 46.7235 143.59 46.7235C147.5 46.7906 150.143 46.6543 154.053 46.3797C156.589 46.3797 156.642 46.929 159.021 46.929C159.127 46.929 159.179 46.929 159.285 46.929C163.195 46.5852 165.838 46.4468 169.749 46.5852C170.542 46.5852 171.07 46.5852 171.493 46.5852C172.603 46.6543 173.131 46.7235 174.98 46.7235C177.622 46.7235 177.622 46.3105 180.212 46.3105C181.745 46.3105 183.119 46.3797 184.388 46.4468C186.396 46.516 188.298 46.6543 190.676 46.7235C193.266 46.7235 193.266 46.6544 195.908 46.6544C200.77 47.342 197.599 54.2222 197.123 58.1424C196.594 62.0647 195.962 65.9157 195.327 69.6996C193.953 77.6805 192.314 85.5229 190.729 93.7092C190.676 93.9838 190.676 94.1914 190.465 94.1914C190.57 94.2606 190.676 94.2606 190.783 94.3277C191.575 94.6735 191.098 95.292 191.098 96.3926C191.098 97.3548 190.517 98.3191 189.778 98.7321C189.567 98.8684 189.303 98.9375 189.09 98.9375C186.396 98.9375 186.396 98.8684 183.7 98.8684C181.006 98.8684 181.006 98.3883 178.31 98.3883C177.411 98.3883 176.83 98.4554 176.302 98.5246C175.297 98.6629 174.716 98.9375 172.92 98.9375C171.176 98.9375 169.643 98.9375 168.163 99.0067C166.261 99.0067 164.411 99.0759 162.139 99.0759C159.444 99.0759 159.444 98.7321 156.749 98.7321C154.053 98.7321 154.053 98.9375 151.359 98.9375C145.703 98.9375 140.894 99.0759 135.24 98.5937C132.544 98.5937 132.544 99.1451 129.849 99.1451C127.153 99.1451 127.154 98.6629 124.459 98.6629C120.442 98.7321 117.695 98.7992 113.679 98.7992C112.516 98.7992 111.353 97.5623 111.353 96.1179C111.406 95.1536 110.983 94.5352 111.67 94.3277Z" fill="#F5F3F1"/>
<path d="M190.412 94.2617C190.466 94.2617 190.466 94.2617 190.412 94.2617ZM190.412 94.2617C190.623 94.2617 190.623 93.985 190.677 93.7796C192.261 85.5933 193.847 77.82 195.274 69.7699C195.909 65.986 196.543 62.1329 197.071 58.2127C197.546 54.2904 200.717 47.4123 195.856 46.7247C193.213 46.7247 193.213 46.7918 190.623 46.7918C188.245 46.7247 186.343 46.5863 184.335 46.5171C183.014 46.4479 181.692 46.3809 180.159 46.3809C177.518 46.3809 177.518 46.7918 174.929 46.7918C173.078 46.7918 172.55 46.7247 171.44 46.6555C171.017 46.6555 170.436 46.5863 169.696 46.5863C165.785 46.448 163.144 46.5863 159.232 46.9301C159.127 46.9301 159.074 46.9301 158.968 46.9301C156.589 46.9301 156.538 46.3809 154 46.3809C150.09 46.6555 147.447 46.7917 143.537 46.7247C140.895 46.7247 140.895 46.3809 138.305 46.3809C133.654 46.7247 133.814 53.7412 132.756 58.2127C131.699 63.441 131.065 67.0174 130.166 72.3149C129.216 77.0632 128.581 80.4341 127.894 84.9727C127.789 85.4549 127.736 85.9371 127.63 86.4863C126.995 89.9956 127.048 90.0648 126.414 93.572" stroke="#2E3343" stroke-width="2" stroke-linecap="round" stroke-linejoin="round"/>
<path d="M111.406 96.0477C111.406 97.5613 112.569 98.731 113.73 98.731C117.748 98.731 120.496 98.6618 124.512 98.5927C127.208 98.5927 127.208 99.0748 129.902 99.0748C132.596 99.0748 132.598 98.5235 135.293 98.5235C140.948 99.0056 145.756 98.7981 151.41 98.8673C154.106 98.8673 154.106 98.6618 156.802 98.6618C159.496 98.6618 159.496 99.0056 162.192 99.0056C164.464 99.0056 166.314 99.0056 168.216 98.9365C169.696 98.9365 171.176 98.8673 172.972 98.8673C174.769 98.8673 175.35 98.6618 176.355 98.4543C176.883 98.3872 177.465 98.318 178.363 98.318C181.058 98.318 181.058 98.7981 183.753 98.7981C186.449 98.7981 186.449 98.8673 189.143 98.8673C189.356 98.8673 189.62 98.7981 189.831 98.6618C190.57 98.2489 191.151 97.2866 191.151 96.3223C191.151 95.2217 191.68 94.6033 190.834 94.2595C190.73 94.1903 190.623 94.1903 190.517 94.1211C189.09 93.5698 188.509 93.7773 187.612 93.9157C187.082 94.0519 186.501 94.1211 185.604 94.1211C183.489 94.1211 183.066 93.8465 181.587 93.7773C181.27 93.7773 180.847 93.7773 180.372 93.7773C177.887 93.8465 175.51 93.9828 173.237 94.1211C170.435 94.1903 167.635 94.2595 164.57 94.1211C163.248 94.1211 161.928 94.1211 160.659 94.1211C159.76 94.1211 158.81 94.1211 157.911 94.1903C155.111 94.2595 152.362 94.2595 149.351 94.1903C149.138 94.1903 148.927 94.1903 148.716 94.1903C143.167 93.7773 138.463 93.639 132.968 94.2595H132.915C132.862 94.2595 132.862 94.2595 132.809 94.2595C130.483 94.1211 128.581 93.9828 126.573 93.9157C125.251 93.8465 123.877 93.8465 122.346 93.8465C119.703 93.8465 119.703 94.2595 117.061 94.2595C114.418 94.2595 114.365 93.3643 111.775 94.1903C110.983 94.5341 111.406 95.1525 111.406 96.0477Z" stroke="#2E3343" stroke-width="2" stroke-linecap="round" stroke-linejoin="round"/>
<path d="M155.796 75.1352C156.43 71.695 156.641 71.1437 157.223 67.7728C161.134 67.7057 163.775 67.8419 167.634 68.1166C170.223 68.1166 170.223 67.8419 172.866 67.8419C172.971 67.8419 172.971 68.0495 172.971 68.1857C172.338 71.5567 172.285 72.3135 171.492 75.6152C168.903 75.6152 168.903 75.2714 166.26 75.2714C162.349 75.4098 159.708 75.4098 155.849 75.2714C155.796 75.3406 155.796 75.2044 155.796 75.1352Z" stroke="#2E3343" stroke-width="2" stroke-linecap="round" stroke-linejoin="round"/>
<path d="M20.1152 84.0578C28.0572 69.7218 50.7522 47.8092 74.9149 41.05C109.86 31.2746 136.598 52.1277 151.952 57.6666" stroke="black" stroke-width="2" stroke-dasharray="4 4"/>
<path d="M122.828 19.3765C120.141 21.5809 120.255 21.8796 117.567 24.0841C114.88 26.2886 114.68 25.8532 111.992 28.0577C109.307 30.2615 109.32 30.3416 106.62 32.466C102.684 35.9526 100.009 38.2371 95.8726 41.2858C91.8981 44.9489 89.4007 47.0996 85.1384 50.1856C77.748 55.6071 80.2038 56.9491 76.7954 49.1887L76.696 48.9694L76.6194 48.9084C76.0268 49.3332 75.4342 49.758 74.8415 50.1828C68.4485 53.5691 62.8733 57.5427 56.7446 60.9369C56.6828 60.9553 56.6828 60.9553 56.6701 60.8753C56.6701 60.8753 56.6701 60.8753 56.6578 60.7977C58.6281 55.7424 60.1444 52.3956 62.2529 47.3829C63.6309 43.9935 63.6682 42.99 65.1972 39.7233C68.072 38.7018 68.2984 38.4696 70.7946 37.5631C70.8584 37.5442 70.8457 37.4641 70.8457 37.4641L70.732 37.168C69.4738 34.6454 69.5376 34.6264 68.2794 32.1038C68.1799 31.8846 68.229 31.7862 68.3297 31.5913C69.5313 27.5105 69.1785 27.3666 70.3309 23.3842C71.5305 19.3041 71.8211 19.4639 73.0353 15.4632C73.1233 15.1883 73.2113 14.9134 73.4135 14.9371C76.9547 15.2077 76.9285 15.4643 80.4083 15.7558C83.9498 16.0289 83.9364 15.5354 87.4779 15.8085C97.03 17.3577 105.877 17.7912 115.581 18.2189C119.123 18.492 119.123 18.492 122.602 18.781C123.119 18.7112 123.118 19.1253 122.828 19.3765Z" fill="#F3C259"/>
<path d="M70.6353 37.3556C69.3741 34.8225 69.438 34.8034 68.1768 32.2703C68.077 32.0501 68.1262 31.9513 68.2147 31.6776C69.4166 27.5755 69.0635 27.4336 70.2162 23.4304C71.4165 19.3314 71.7719 19.4753 72.9226 15.4727C73.0107 15.1965 73.0992 14.9228 73.314 15.0244C76.8614 15.2942 76.8353 15.5519 80.3212 15.8427C83.869 16.1151 83.8553 15.6193 87.4031 15.8917C96.9722 17.4423 105.835 17.8727 115.556 18.2968C119.104 18.5691 119.104 18.5691 122.589 18.8574C122.992 18.903 122.993 19.3184 122.638 19.5924C119.947 21.8082 120.125 22.0865 117.37 24.3239C114.681 26.5391 114.478 26.1 111.789 28.3152C109.098 30.5335 109.11 30.6114 106.406 32.7493C102.465 36.2536 99.7866 38.5498 95.6438 41.6144C91.6657 45.2954 89.1642 47.4546 84.894 50.5599C77.4926 56.0096 79.9527 57.3536 76.5378 49.5601" stroke="#2E3343" stroke-width="2" stroke-linecap="round" stroke-linejoin="round"/>
<path d="M56.9324 60.9223C56.8707 60.9403 56.7945 60.8797 56.846 60.7843C58.8159 55.7837 60.3188 52.3945 62.4391 47.5157C63.8167 44.1632 63.855 43.1698 65.383 39.939C65.383 39.939 65.383 39.939 65.4466 39.9204C68.5643 38.8414 68.5396 38.6854 71.7214 37.5903C74.9011 36.4958 74.9878 37.0431 78.1696 35.948C86.8579 33.0743 94.6543 29.5626 103.444 26.908C108.135 24.9589 111.302 23.7876 116.092 22.4651C117.325 22.3502 123.188 18.2595 122.443 20.1956C116.252 24.3023 110.818 27.3682 104.728 31.6915C98.3991 35.3462 92.9774 38.489 86.7616 42.4396C82.3343 45.2108 79.39 47.3844 75.0738 50.4496C68.6209 53.731 63.0584 57.6536 56.9324 60.9223Z" stroke="#2E3343" stroke-width="2" stroke-linecap="round" stroke-linejoin="round"/>
<path d="M68.9915 31.597C72.0863 30.882 71.9896 30.2627 75.0821 29.5458C78.1765 28.8284 78.1765 28.8284 81.2689 28.1115C84.3637 27.3965 84.4089 28.1097 87.5033 27.3922C90.5957 26.6753 90.608 26.7537 93.7024 26.0362C96.7968 25.3188 96.6883 24.6236 99.7807 23.9067C102.875 23.1893 102.9 23.3459 105.992 22.6291" stroke="#2E3343" stroke-width="2" stroke-linecap="round" stroke-linejoin="round"/>
</svg>
