<svg width="225" height="271" viewBox="0 0 225 271" fill="none" xmlns="http://www.w3.org/2000/svg">
<path d="M72.0897 34.98C70.7197 31.85 69.9397 28.53 69.9397 24.81C69.9397 11.13 81.0797 0 94.7597 0C103.36 0 110.78 4.29 115.28 10.94C119.77 5.47 126.61 1.94998 134.43 1.94998C148.11 1.94998 159.25 13.09 159.25 26.77C159.25 28.53 159.05 30.48 158.66 32.04C164.92 32.63 169.8 37.91 169.8 44.36C169.8 47.09 168.82 49.63 167.46 51.59C173.71 56.28 177.81 63.9 177.81 72.3C177.81 75.23 177.42 77.97 176.45 80.51C188.76 81.88 198.33 92.43 198.33 105.13C198.33 118.81 187.19 129.95 173.51 129.95C159.83 129.95 148.7 118.81 148.7 105.13C148.7 102.79 149.09 100.64 149.67 98.49C135.99 97.51 125.25 86.37 125.25 72.5C125.25 63.9 129.54 56.28 135.99 51.39C135.41 51.39 135.02 51.39 134.43 51.39C125.83 51.39 118.41 52.95 113.91 46.31C111.57 49.24 108.44 45.72 104.92 47.29C106.29 50.41 107.07 53.74 107.07 57.45C107.07 71.13 95.9297 82.27 82.2497 82.27C68.5697 82.27 57.4297 71.13 57.4297 57.45C57.6297 47.48 63.4897 38.88 72.0897 34.98Z" fill="black"/>
<path d="M33.7897 195.031L58.9997 228.441L65.0497 251.311H181.33L174.69 193.851L211.23 180.371H222.37V175.291C222.37 130.731 193.06 94.1913 150.26 90.0813C147.52 89.8913 144.79 92.2313 142.05 92.2313L88.5097 92.0413C83.6197 92.0413 78.7297 90.0813 74.0397 90.8713C55.4797 94.1913 39.8497 103.571 28.5097 117.051C15.6097 132.301 33.7897 195.031 33.7897 195.031Z" fill="#FFC000"/>
<path d="M74.041 90.87L97.501 109.43L99.061 110.6L111.571 120.38L150.261 90.08C147.521 89.89 144.791 89.5 142.051 89.5H88.511C83.621 89.69 78.731 90.08 74.041 90.87Z" fill="#BE6640"/>
<path d="M0.570543 132.101L7.41051 145.78V236.65C7.41051 242.12 9.55054 247.01 13.0705 250.531C16.5905 254.04 21.6706 256.39 27.1406 256.39C34.7606 256.39 40.6305 250.921 44.7305 245.84C49.6205 239.971 59.0005 228.44 59.0005 228.44L46.8805 179.59V135.81L52.5505 121.741C54.1105 118.231 52.5505 114.32 49.0305 112.75C45.5105 111.19 41.6005 112.75 40.0405 116.27L36.3306 124.87C36.3306 125.07 36.1305 124.87 36.1305 124.87V93.8005C36.1305 90.4805 33.9805 87.5405 30.8605 86.7605C26.5605 85.7905 22.4505 89.3005 22.4505 93.4105V121.741L19.5206 115.69C17.9606 112.75 14.4405 111.39 11.5105 112.95C8.58055 114.51 7.21056 118.03 8.77056 120.96L10.9205 125.46C9.16052 123.11 5.84052 122.52 3.30052 123.89C0.370523 125.46 -0.799457 128.971 0.570543 132.101Z" fill="#BE6640"/>
<path d="M74.041 90.8707C74.041 90.8707 82.251 97.5108 85.181 99.8608C89.871 103.571 97.301 109.431 97.301 109.431C114.501 107.671 121.731 92.0407 122.701 89.6907L90.261 89.3008C85.381 89.3008 76.781 90.0807 74.041 90.8707Z" fill="black"/>
<path d="M88.5103 164.35C90.2603 161.22 94.3703 160.24 97.5003 162L120.36 176.85V165.32C120.36 161.22 123.68 158.09 127.59 158.09C131.69 158.09 134.82 161.41 134.82 165.32V186.23L162.57 202.65L157.49 180.37H211.04L224.32 238.61C228.04 255.02 215.53 270.46 198.92 270.46C192.27 270.46 187.19 267.53 181.53 263.82L134.63 232.94L100.62 210.66C97.1003 208.71 95.9303 204.21 97.8903 200.69C99.0603 198.74 100.82 197.57 102.77 197.18L100.82 196C97.3003 194.05 96.1303 189.55 98.0803 186.04C99.6403 183.3 102.77 181.93 105.9 182.52L91.0503 173.14C87.7203 171.58 86.7503 167.47 88.5103 164.35Z" fill="#BE6640"/>
<path d="M162.57 202.648L195.6 224.138" stroke="black" stroke-width="1.5" stroke-linecap="round" stroke-linejoin="round"/>
<path d="M22.45 121.738L29.0999 135.028C30.6599 137.958 29.2899 141.478 26.3599 143.038C23.4299 144.608 19.9099 143.238 18.3499 140.308L10.9199 125.458" stroke="black" stroke-width="1.5" stroke-linecap="round" stroke-linejoin="round"/>
<path d="M7.41016 145.579L10.1402 151.249C11.7002 154.179 15.2201 155.359 18.1501 153.989C21.0801 152.419 22.2602 148.909 20.8902 145.979L15.0302 133.859" stroke="black" stroke-width="1.5" stroke-linecap="round" stroke-linejoin="round"/>
<path d="M36.3311 124.871C33.4011 127.801 31.2511 132.491 30.4711 136.601C29.6811 140.701 29.6811 145.001 30.6611 149.101" stroke="black" stroke-width="1.5" stroke-linecap="round" stroke-linejoin="round"/>
<path d="M105.9 182.52L115.08 188.38" stroke="black" stroke-width="1.5" stroke-linecap="round" stroke-linejoin="round"/>
<path d="M102.771 197.18L112.151 202.45" stroke="black" stroke-width="1.5" stroke-linecap="round" stroke-linejoin="round"/>
<path d="M46.8809 179.59L47.4708 219.85" stroke="black" stroke-width="1.5" stroke-linecap="round" stroke-linejoin="round"/>
<path d="M162.57 202.649L151.43 153.789" stroke="black" stroke-width="1.5" stroke-linecap="round" stroke-linejoin="round"/>
<path d="M86.5499 37.7089C87.5299 36.7289 89.0899 36.539 90.2599 37.129C92.2199 38.299 94.3699 39.0789 96.9099 39.0789C100.23 39.0789 103.16 37.9089 105.31 35.7589C106.09 34.9789 107.46 35.3689 108.05 36.3389C111.76 42.7889 118.8 47.0889 126.61 47.0889C130.72 47.0889 134.23 45.919 137.56 43.969C138.92 43.179 140.88 43.569 141.66 44.939C146.16 52.369 147.72 61.749 145.37 71.129C141.66 85.589 128.96 96.3389 114.11 97.5089C93.5899 99.0689 76.1899 82.659 76.1899 62.5289C75.9999 52.9489 80.0999 44.1589 86.5499 37.7089Z" fill="#BE6640"/>
<path d="M130.331 92.2303C125.441 95.3603 119.971 97.3203 113.911 97.7103C102.581 98.4903 92.4109 93.9903 85.3809 86.5703" stroke="black" stroke-width="1.5" stroke-linecap="round" stroke-linejoin="round"/>
<path d="M99.6411 67.0195H93.201C91.051 67.0195 89.291 68.7795 89.291 70.9295C89.291 73.0795 91.051 74.8395 93.201 74.8395H99.6411" stroke="black" stroke-width="1.5" stroke-linecap="round" stroke-linejoin="round"/>
<path d="M114.301 74.6484C112.151 79.3384 107.461 82.6585 102.381 83.2385" stroke="black" stroke-width="1.5" stroke-linecap="round" stroke-linejoin="round"/>
<path d="M106.481 60.9709C104.761 60.9709 103.361 59.5609 103.361 57.8409C103.361 56.1209 104.761 54.7109 106.481 54.7109C108.221 54.7109 109.611 56.1209 109.611 57.8409C109.611 59.5609 108.221 60.9709 106.481 60.9709Z" fill="black"/>
<path d="M93.9796 60.9709C92.2596 60.9709 90.8496 59.5609 90.8496 57.8409C90.8496 56.1209 92.2596 54.7109 93.9796 54.7109C95.7196 54.7109 97.0996 56.1209 97.0996 57.8409C97.0996 59.5609 95.7196 60.9709 93.9796 60.9709Z" fill="black"/>
</svg>
