<svg width="569" height="492" viewBox="0 0 569 492" fill="none" xmlns="http://www.w3.org/2000/svg">
<path d="M461.856 54.6797H418.107C418.107 54.6797 413.049 80.5509 428.275 94.2688H472.024C456.798 80.5509 461.856 54.6797 461.856 54.6797Z" fill="#FFA0DC"/>
<path d="M400.532 32.3027H356.783C356.783 32.3027 351.724 58.1739 366.951 71.8919H410.7C395.422 58.1739 400.532 32.3027 400.532 32.3027Z" fill="#FFC930"/>
<path d="M370.698 135.38L332.45 111.068C331.62 113.165 331.193 115.371 331.203 117.63L331.282 144.554C331.302 154.225 339.161 162.033 348.828 162.007L392.734 161.877C402.407 161.851 410.208 153.99 410.182 144.32L410.109 117.395C410.093 115.157 409.671 112.925 408.831 110.859L370.698 135.38Z" fill="#61CCFF"/>
<path d="M408.813 110.808C406.331 104.142 399.687 99.9167 392.533 99.9376L348.627 100.073C341.499 100.099 334.887 104.465 332.457 111.042L370.674 135.375L405.387 113.035L408.813 110.808Z" fill="#61CCFF"/>
<path d="M378.301 130.945L408.79 151.115" stroke="#121212" stroke-linecap="round" stroke-linejoin="round"/>
<path d="M363.092 131.004L332.66 151.315" stroke="#121212" stroke-linecap="round" stroke-linejoin="round"/>
<path d="M365.23 115.527L376.04 115.496" stroke="white" stroke-linecap="round"/>
<path d="M332.488 111.089L370.705 135.432L408.714 110.891" stroke="#121212" stroke-linecap="round" stroke-linejoin="round"/>
<path d="M98.6064 427.015C94.8781 427.009 91.3062 425.523 88.6676 422.889C86.0291 420.249 84.5482 416.677 84.543 412.947V295.296C84.543 291.561 86.0239 287.983 88.6624 285.339C91.3009 282.694 94.8729 281.208 98.6064 281.197H199.277C203.006 281.208 206.583 282.694 209.221 285.339C211.854 287.983 213.335 291.561 213.335 295.296V412.947C213.33 416.677 211.849 420.249 209.216 422.889C206.577 425.523 203 427.009 199.277 427.015H98.6064Z" fill="#61CCFF"/>
<path d="M125.157 390.533C126.675 384.107 122.696 377.671 116.272 376.153C109.853 374.64 103.418 378.62 101.901 385.041C100.383 391.467 104.362 397.898 110.786 399.416C117.205 400.934 123.64 396.954 125.157 390.533Z" fill="white"/>
<path d="M113.153 386.889H108.199" stroke="black" stroke-linecap="round" stroke-linejoin="round"/>
<path d="M113.153 389.266H108.199" stroke="black" stroke-linecap="round" stroke-linejoin="round"/>
<path d="M117.241 391.353C116.594 391.995 115.771 392.433 114.868 392.61C113.977 392.782 113.043 392.688 112.199 392.339C111.359 391.989 110.634 391.395 110.129 390.633C109.623 389.872 109.352 388.975 109.352 388.062C109.352 387.149 109.623 386.252 110.129 385.49C110.634 384.734 111.359 384.139 112.199 383.79C113.043 383.435 113.977 383.341 114.868 383.513C115.771 383.691 116.594 384.129 117.241 384.776" stroke="black" stroke-linecap="round" stroke-linejoin="round"/>
<path d="M157.389 396.236C162.05 391.572 162.05 384.004 157.389 379.341C152.722 374.673 145.155 374.673 140.488 379.341C135.827 384.004 135.827 391.572 140.488 396.236C145.155 400.904 152.722 400.904 157.389 396.236Z" fill="white"/>
<path d="M144.797 383.268L148.854 387.326L152.911 383.268" stroke="black" stroke-linecap="round" stroke-linejoin="round"/>
<path d="M148.852 387.328V392.862" stroke="black" stroke-linecap="round" stroke-linejoin="round"/>
<path d="M146.539 388.223H151.175" stroke="black" stroke-linecap="round" stroke-linejoin="round"/>
<path d="M196.009 390.533C197.526 384.107 193.548 377.671 187.124 376.153C180.705 374.64 174.27 378.62 172.752 385.041C171.235 391.467 175.214 397.898 181.638 399.416C188.057 400.934 194.492 396.954 196.009 390.533Z" fill="#3C2C5B"/>
<path d="M183.334 392.861V383.295H186.379C186.697 383.295 187.021 383.358 187.318 383.483C187.615 383.608 187.892 383.79 188.121 384.015C188.35 384.244 188.533 384.515 188.653 384.813C188.778 385.115 188.841 385.433 188.841 385.757C188.841 386.08 188.778 386.404 188.653 386.701C188.533 386.998 188.35 387.275 188.121 387.499C187.892 387.728 187.615 387.911 187.318 388.036C187.021 388.161 186.697 388.224 186.379 388.224H181.598" stroke="black" stroke-linecap="round" stroke-linejoin="round"/>
<path d="M181.598 390.658H185.362" stroke="black" stroke-linecap="round" stroke-linejoin="round"/>
<path d="M103.302 348.697C102.843 348.697 102.394 348.509 102.066 348.181C101.737 347.852 101.555 347.409 101.555 346.945C101.555 346.486 101.737 346.042 102.066 345.714C102.394 345.385 102.843 345.197 103.302 345.197H194.581C195.045 345.197 195.488 345.385 195.817 345.714C196.145 346.042 196.328 346.486 196.328 346.945C196.328 347.409 196.145 347.852 195.817 348.181C195.488 348.509 195.045 348.697 194.581 348.697H103.302Z" fill="white"/>
<path opacity="0.2" d="M146.942 357.857C151.348 357.857 154.92 354.279 154.92 349.877C154.92 345.469 151.348 341.896 146.942 341.896C142.541 341.896 138.969 345.469 138.969 349.877C138.969 354.279 142.541 357.857 146.942 357.857Z" fill="#3C3645"/>
<path d="M146.942 355.014C151.348 355.014 154.92 351.441 154.92 347.033C154.92 342.626 151.348 339.053 146.942 339.053C142.541 339.053 138.969 342.626 138.969 347.033C138.969 351.441 142.541 355.014 146.942 355.014Z" fill="#9E76DD"/>
<path d="M135.992 419.352H161.898" stroke="white" stroke-linecap="round" stroke-linejoin="round"/>
<path d="M103.419 312.608C102.955 312.608 102.511 312.42 102.178 312.097C101.854 311.768 101.672 311.325 101.672 310.861C101.672 310.396 101.854 309.953 102.178 309.624C102.511 309.296 102.955 309.113 103.419 309.113H194.698C195.157 309.113 195.6 309.296 195.929 309.624C196.257 309.953 196.445 310.396 196.445 310.861C196.445 311.325 196.257 311.768 195.929 312.097C195.6 312.42 195.157 312.608 194.698 312.608H103.419Z" fill="white"/>
<path d="M172.763 318.785C177.164 318.785 180.741 315.207 180.741 310.805C180.741 306.397 177.164 302.824 172.763 302.824C168.357 302.824 164.785 306.397 164.785 310.805C164.785 315.207 168.357 318.785 172.763 318.785Z" fill="black"/>
<path d="M17.5531 200.533C12.9227 200.522 8.48514 198.681 5.21045 195.405C1.93576 192.13 0.0898438 187.691 0.0898438 183.059V17.4735C0.0898438 12.8417 1.93576 8.40291 5.21045 5.12729C8.48514 1.85167 12.9227 0.00521596 17.5531 0H232.327C236.958 0.00521596 241.395 1.85167 244.67 5.12729C247.945 8.40291 249.785 12.8417 249.79 17.4735V183.059C249.785 187.691 247.945 192.13 244.67 195.405C241.395 198.681 236.958 200.522 232.327 200.533H17.5531Z" fill="#CECECE"/>
<path d="M0.101562 37.5352H250.563" stroke="#E1E1E1"/>
<path d="M18.4675 25.0253C22.1332 25.0253 25.1107 22.0522 25.1107 18.3854C25.1107 14.7133 22.1332 11.7402 18.4675 11.7402C14.7965 11.7402 11.8242 14.7133 11.8242 18.3854C11.8242 22.0522 14.7965 25.0253 18.4675 25.0253Z" fill="#E1E1E1"/>
<path d="M38.5925 25.0253C42.2635 25.0253 45.2357 22.0522 45.2357 18.3854C45.2357 14.7133 42.2635 11.7402 38.5925 11.7402C34.9267 11.7402 31.9492 14.7133 31.9492 18.3854C31.9492 22.0522 34.9267 25.0253 38.5925 25.0253Z" fill="#E1E1E1"/>
<path d="M58.7214 25.0253C62.3924 25.0253 65.3646 22.0522 65.3646 18.3854C65.3646 14.7133 62.3924 11.7402 58.7214 11.7402C55.0556 11.7402 52.0781 14.7133 52.0781 18.3854C52.0781 22.0522 55.0556 25.0253 58.7214 25.0253Z" fill="#E1E1E1"/>
<path opacity="0.3" d="M375.312 233.039H477.052C485.264 233.039 491.918 239.689 491.918 247.905V350.268C491.918 358.483 485.264 365.133 477.052 365.133H375.312C367.094 365.133 360.445 358.483 360.445 350.268V247.905C360.445 239.689 367.094 233.039 375.312 233.039Z" fill="#DA72B3"/>
<path d="M370.175 227.902H471.915C480.133 227.902 486.781 234.553 486.781 242.773V345.131C486.781 353.351 480.133 360.002 471.915 360.002H370.175C361.962 360.002 355.309 353.351 355.309 345.131V242.773C355.309 234.553 361.962 227.902 370.175 227.902Z" fill="#FFA0DC"/>
<path d="M373.027 239.508H465.959C471.069 239.508 475.204 243.644 475.204 248.756V262.26C475.204 267.371 471.069 271.508 465.959 271.508H373.027C367.916 271.508 363.781 267.371 363.781 262.26V248.756C363.781 243.644 367.916 239.508 373.027 239.508Z" fill="#3C2C5B"/>
<path d="M443.215 339.044V287.275C443.215 282.164 447.35 278.027 452.455 278.027H465.96C471.071 278.027 475.206 282.164 475.206 287.275V339.044C475.206 344.155 471.071 348.292 465.96 348.292H452.455C447.35 348.292 443.215 344.155 443.215 339.044Z" fill="white"/>
<path d="M405.117 339.043V325.69C405.117 320.578 409.247 316.447 414.357 316.447H427.706C432.817 316.447 436.952 320.578 436.952 325.69V339.043C436.952 344.154 432.817 348.291 427.706 348.291H414.357C409.247 348.291 405.117 344.154 405.117 339.043Z" fill="#3C2C5B"/>
<path d="M405.117 300.628V287.275C405.117 282.164 409.247 278.027 414.357 278.027H427.706C432.817 278.027 436.952 282.164 436.952 287.275V300.628C436.952 305.74 432.817 309.871 427.706 309.871H414.357C409.247 309.871 405.117 305.74 405.117 300.628Z" fill="#3C2C5B"/>
<path d="M366.863 339.043V325.69C366.863 320.578 370.998 316.447 376.103 316.447H389.458C394.563 316.447 398.698 320.578 398.698 325.69V339.043C398.698 344.154 394.563 348.291 389.458 348.291H376.103C370.998 348.291 366.863 344.154 366.863 339.043Z" fill="#3C2C5B"/>
<path d="M366.863 300.628V287.275C366.863 282.164 370.998 278.027 376.103 278.027H389.458C394.563 278.027 398.698 282.164 398.698 287.275V300.628C398.698 305.74 394.563 309.871 389.458 309.871H376.103C370.998 309.871 366.863 305.74 366.863 300.628Z" fill="#3C2C5B"/>
<path d="M449.274 264.342V247.625L440.801 257.384H452.101" stroke="white" stroke-linecap="round" stroke-linejoin="round"/>
<path d="M458.106 253.761C460.953 252.885 463.957 254.507 464.827 257.329C465.703 260.156 464.087 263.187 461.261 264.058C459.133 264.699 456.818 263.98 455.457 262.237" stroke="white" stroke-linecap="round" stroke-linejoin="round"/>
<path d="M455.691 247.625H463.904L458.001 253.79" stroke="white" stroke-linecap="round" stroke-linejoin="round"/>
<path d="M463.085 315.396H455.973" stroke="#3C2C5B" stroke-linecap="round" stroke-linejoin="round"/>
<path d="M463.085 311.107H455.973" stroke="#3C2C5B" stroke-linecap="round" stroke-linejoin="round"/>
<path d="M533.377 225.872L509.63 137.895L456.082 152.358L443.625 174.036L462.767 244.947L533.377 225.872Z" fill="#61CCFF"/>
<path opacity="0.2" d="M457.923 173.466L456.082 152.357L443.625 174.035L457.923 173.466Z" fill="#181818"/>
<path d="M460.687 169.424L456.082 152.357L443.625 174.035L460.687 169.424Z" fill="white"/>
<path d="M463.711 180.488L496.964 171.506" stroke="white" stroke-linecap="round"/>
<path d="M470.309 204.905L496.772 197.77" stroke="white" stroke-linecap="round"/>
<path d="M467.023 192.683L487.037 187.295" stroke="white" stroke-linecap="round"/>
<path d="M539.418 103.75H511.651C506.744 103.755 502.04 105.706 498.568 109.175C495.1 112.648 493.15 117.353 493.145 122.261C493.145 126.664 494.714 130.915 497.566 134.263C500.414 137.607 504.366 139.829 508.705 140.528V150.036L522.278 140.778H539.418C544.325 140.773 549.033 138.822 552.501 135.348C555.974 131.88 557.924 127.175 557.929 122.261C557.929 119.831 557.449 117.421 556.521 115.178C555.593 112.93 554.227 110.891 552.511 109.169C550.791 107.448 548.747 106.087 546.504 105.153C544.257 104.225 541.848 103.745 539.418 103.75Z" fill="#3C2C5B"/>
<path d="M515.138 124.504C516.536 124.504 517.673 123.372 517.673 121.974C517.673 120.577 516.536 119.439 515.138 119.439C513.741 119.439 512.609 120.577 512.609 121.974C512.609 123.372 513.741 124.504 515.138 124.504Z" fill="white"/>
<path d="M525.519 124.504C526.916 124.504 528.048 123.372 528.048 121.974C528.048 120.577 526.916 119.439 525.519 119.439C524.121 119.439 522.984 120.577 522.984 121.974C522.984 123.372 524.121 124.504 525.519 124.504Z" fill="white"/>
<path d="M535.931 124.504C537.334 124.504 538.466 123.372 538.466 121.974C538.466 120.577 537.334 119.439 535.931 119.439C534.534 119.439 533.402 120.577 533.402 121.974C533.402 123.372 534.534 124.504 535.931 124.504Z" fill="white"/>
<path d="M538.422 104.992C538.469 100.949 539.355 96.9642 541.024 93.2817C542.698 89.5993 545.117 86.308 548.131 83.6165C548.507 88.264 546.348 91.8734 548.507 95.1125C549.586 87.226 553.528 87.226 556.062 78.2598C563.238 88.3057 556.766 95.1125 560.709 103.041C560.709 103.041 563.196 99.8069 562.492 91.9151C566.064 94.4084 568.968 99.5148 568.968 105.033C568.968 107.041 568.572 109.034 567.8 110.886C567.034 112.742 565.907 114.427 564.484 115.846C563.066 117.265 561.381 118.391 559.525 119.158C557.669 119.925 555.682 120.316 553.674 120.311C551.667 120.311 549.68 119.914 547.824 119.142C545.973 118.37 544.288 117.239 542.875 115.815C541.457 114.396 540.336 112.706 539.569 110.849C538.808 108.992 538.417 107 538.422 104.992Z" fill="#FFC930"/>
<path opacity="0.2" d="M54.6474 445.679C53.6984 445.679 52.7911 445.298 52.1184 444.63C51.451 443.958 51.0703 443.05 51.0703 442.101V403.137C51.0703 402.183 51.4458 401.27 52.1132 400.592C52.7859 399.919 53.6984 399.538 54.6474 399.533H117.487C118.436 399.533 119.343 399.909 120.016 400.582C120.689 401.254 121.064 402.162 121.064 403.111V442.101C121.064 443.05 120.689 443.958 120.016 444.63C119.343 445.298 118.436 445.679 117.487 445.679H54.6474Z" fill="black"/>
<path d="M51.5537 441.714C50.6099 441.714 49.6973 441.338 49.0247 440.666C48.3572 439.993 47.9766 439.085 47.9766 438.136V399.173C47.9766 398.218 48.352 397.305 49.0247 396.632C49.6921 395.954 50.6047 395.574 51.5537 395.568H114.393C115.342 395.568 116.255 395.949 116.922 396.617C117.595 397.29 117.971 398.197 117.971 399.147V438.136C117.971 439.085 117.595 439.993 116.922 440.666C116.255 441.338 115.342 441.714 114.393 441.714H51.5537Z" fill="#3C2C5B"/>
<path d="M47.9818 414.137L47.9766 404.394L117.986 404.389L117.997 414.137H47.9818Z" fill="black"/>
<path d="M60.4153 434.407C59.4454 434.407 58.5172 434.016 57.8341 433.328C57.151 432.639 56.7651 431.706 56.7704 430.735C56.7599 430.261 56.8486 429.781 57.0311 429.337C57.2084 428.894 57.4743 428.493 57.8133 428.148C58.1522 427.804 58.5589 427.533 59.0022 427.345C59.4506 427.157 59.9303 427.063 60.4153 427.069H69.4363C70.4062 427.074 71.3344 427.46 72.0175 428.148C72.7006 428.837 73.0865 429.77 73.0865 430.735C73.0865 431.706 72.7006 432.639 72.0175 433.328C71.3344 434.011 70.4062 434.402 69.4363 434.407H60.4153Z" fill="#565656"/>
<path d="M103.675 434.365C102.575 434.365 101.506 434.037 100.594 433.427C99.681 432.816 98.9667 431.95 98.5495 430.938C98.1271 429.921 98.0176 428.805 98.2314 427.731C98.4452 426.656 98.9771 425.665 99.7488 424.888C100.526 424.111 101.517 423.584 102.591 423.37C103.67 423.156 104.786 423.266 105.798 423.688C106.809 424.106 107.675 424.815 108.29 425.728C108.895 426.641 109.224 427.715 109.224 428.816C109.218 430.286 108.634 431.695 107.597 432.738C106.554 433.776 105.146 434.36 103.675 434.365Z" fill="#FFC930"/>
<path d="M96.5058 434.365C95.4108 434.365 94.3366 434.037 93.4241 433.427C92.5115 432.816 91.8024 431.95 91.38 430.938C90.9576 429.921 90.8481 428.805 91.0671 427.731C91.2809 426.656 91.8076 425.665 92.5845 424.888C93.3615 424.111 94.347 423.584 95.4212 423.37C96.5006 423.156 97.6165 423.266 98.6281 423.688C99.6449 424.106 100.511 424.815 101.121 425.728C101.731 426.641 102.054 427.715 102.054 428.816C102.054 430.286 101.47 431.695 100.427 432.738C99.3894 433.776 97.9763 434.36 96.5058 434.365Z" fill="#FFC930"/>
<path opacity="0.2" d="M94.5066 302.078C111.021 302.078 124.406 288.683 124.406 272.164C124.406 255.645 111.021 242.256 94.5066 242.256C77.9923 242.256 64.6016 255.645 64.6016 272.164C64.6016 288.683 77.9923 302.078 94.5066 302.078Z" fill="#3C3635"/>
<path d="M94.5066 292.933C111.021 292.933 124.406 279.544 124.406 263.025C124.406 246.506 111.021 233.111 94.5066 233.111C77.9923 233.111 64.6016 246.506 64.6016 263.025C64.6016 279.544 77.9923 292.933 94.5066 292.933Z" fill="#FF4F32"/>
<path d="M94.5078 248.576V267.197" stroke="white" stroke-linecap="round" stroke-linejoin="round"/>
<path d="M94.5078 274.422V277.468" stroke="white" stroke-linecap="round" stroke-linejoin="round"/>
<path d="M245.613 109.024V108.972C249.67 104.596 258.258 96.1095 258.42 95.7392C259.004 95.2019 262.154 65.6953 268.338 66.4985C270.794 66.4985 271.915 68.5223 272.285 69.4873C272.395 69.6959 272.661 69.7533 272.822 69.6438C274.048 68.8457 277.995 66.6029 283.809 66.6029C291.063 66.7124 294.692 68.2563 295.067 70.9269C295.067 70.9269 295.067 70.979 295.12 70.979C295.917 71.0834 299.917 72.5803 298.905 75.1935C298.905 75.2457 298.905 75.2457 298.957 75.2457C299.599 75.4596 303.656 77.1704 302.211 79.4654V79.5176C302.639 79.7314 305.893 81.7552 304.829 83.8938C302.425 88.1082 287.439 87.2007 285.462 92.0046C284.665 93.7623 284.769 95.9531 284.878 98.6706C286.052 111.424 280.608 119.002 272.447 131.166C272.447 131.166 272.395 131.223 272.395 131.166C271.488 130.848 254.045 124.443 253.404 124.229C253.404 124.229 253.404 124.229 253.352 124.229L245.613 109.024Z" fill="#A56250"/>
<path d="M226.415 459.964L224.335 445.026C224.919 438.835 223.798 435.048 221.451 426.295C221.451 426.243 221.081 423.093 221.023 422.613C221.023 422.561 221.023 422.561 221.081 422.561L273.784 422.451C273.784 422.451 273.836 422.451 273.836 422.509L275.755 426.347C276.928 437.713 277.408 449.188 277.142 460.444L274.315 466.046L274.263 466.103L226.415 459.964C226.415 460.017 226.415 460.017 226.415 459.964Z" fill="#A56250"/>
<path d="M224.33 445.079C224.33 445.027 224.33 445.027 224.33 445.079L244.437 445.027C248.171 445.027 250.945 448.439 250.308 452.017L248.76 460.341C248.76 460.394 248.76 460.394 248.812 460.394H277.085C277.137 460.394 277.137 460.394 277.137 460.446C276.981 466.851 276.443 473.251 275.807 479.547C275.807 479.547 275.807 479.604 275.75 479.604L209.5 485.576C209.5 485.576 209.5 485.576 209.443 485.576L198.508 479.656C198.456 479.656 198.456 479.604 198.508 479.604C205.819 469.198 222.567 466.475 224.33 445.079Z" fill="#FFA0DC"/>
<path d="M275.81 479.706C275.383 483.655 274.846 487.603 274.209 491.5C274.209 491.5 274.209 491.552 274.152 491.552H219.478H194.939C194.887 491.552 194.887 491.552 194.887 491.5C194.887 486.482 196.274 482.747 198.459 479.654H198.511L275.81 479.706Z" fill="white"/>
<path d="M210.035 314.773C227.639 293.857 273.568 280.092 296.663 274.277C305.042 272.195 310.001 271.184 310.106 271.184H343.557H343.609C344.088 271.663 356.358 284.15 360.092 305.119C364.571 330.943 344.672 353.94 318.376 353.94H258.576C258.524 353.94 258.524 353.992 258.524 353.992C267.164 376.353 273.088 401.483 275.701 426.244C275.701 426.296 275.701 426.296 275.648 426.296H221.501C221.501 426.296 221.449 426.296 221.449 426.244C213.022 396.095 190.939 337.505 210.035 314.773Z" fill="#3C2C5B"/>
<path opacity="0.3" d="M259.808 320.005C236.812 321.71 226.201 330.572 232.922 364.241C242.256 410.929 259.38 431.151 258.687 445.986C257.566 469.358 232.171 472.879 232.171 491.552L297.305 488.621C297.305 488.673 297.358 488.621 297.305 488.621C297.358 485.366 301.467 316.854 259.808 320.005Z" fill="black"/>
<path d="M271.489 462.259L268.501 445.026C268.553 438.782 267.594 434.14 265.247 426.295C265.247 426.191 265.195 422.722 265.195 422.295C265.195 422.243 265.195 422.243 265.247 422.243L318.967 421.549C318.967 421.549 318.967 421.549 319.019 421.549L326.168 426.243C326.168 426.243 326.168 426.243 326.168 426.295C328.191 437.072 329.688 448.437 330.538 460.34L329.902 466.636C329.902 466.688 329.844 466.688 329.844 466.688L271.489 462.259C271.489 462.312 271.489 462.312 271.489 462.259Z" fill="#A56250"/>
<path d="M247.967 479.547C254.313 469.036 268.397 466.371 268.502 445.079C268.502 445.027 268.502 445.027 268.554 445.027H288.134C291.81 445.027 294.532 448.334 293.948 451.855L292.561 460.341C292.561 460.394 292.561 460.394 292.613 460.394H330.486C330.538 460.394 330.538 460.394 330.538 460.446C330.966 466.585 331.232 473.037 331.289 479.547C331.289 479.547 331.289 479.604 331.232 479.604C330.33 479.87 312.032 484.46 292.827 484.46C271.703 484.46 249.458 479.87 247.967 479.547C247.967 479.604 247.91 479.547 247.967 479.547Z" fill="#FFA0DC"/>
<path d="M247.643 314.773C271.65 286.284 347.234 271.288 347.714 271.184L395.671 272.889C395.671 272.889 395.724 272.889 395.724 272.941C395.885 273.369 397.434 278.543 399.035 285.804C400.151 290.978 401.272 297.17 401.809 303.465C404.369 333.024 382.281 353.992 356.036 353.992H301.733C301.68 353.992 301.68 354.05 301.68 354.05C312.188 374.752 320.885 398.87 326.168 426.244C326.168 426.296 326.168 426.296 326.11 426.296H265.299C265.299 426.296 265.247 426.296 265.247 426.244C255.538 394.546 228.068 338.042 247.643 314.773Z" fill="#3C2C5B"/>
<path opacity="0.3" d="M291.223 335.798C288.449 325.606 331.124 353.939 341.684 353.939C328.032 353.939 302.638 353.939 301.678 353.939H301.626C301.36 353.355 296.933 344.603 291.223 335.798Z" fill="black"/>
<path d="M331.287 479.654C331.339 483.551 331.287 487.499 331.177 491.5C331.177 491.552 331.177 491.552 331.125 491.552H297.945H244.919C244.867 491.552 244.867 491.552 244.867 491.5C244.867 486.43 246.04 482.695 247.907 479.654H247.965H331.287C331.287 479.602 331.287 479.602 331.287 479.654Z" fill="white"/>
<path d="M436.374 239.487C430.398 222.201 393.375 178.179 372.945 166.865V166.813C359.716 160.465 344.088 159.876 343.713 159.876L315.711 160.303L304.88 162.223C298.049 161.102 275.7 158.968 263.217 157.904C258.628 157.476 255.374 157.21 254.79 157.21C254.738 157.21 254.738 157.153 254.738 157.101C255.536 155.979 264.817 142.856 272.342 131.277V131.225L245.613 109.025H245.56C233.88 120.871 221.292 133.838 215.958 140.399C210.566 147.018 208.006 156.141 209.075 164.622C210.3 174.444 216.224 183.567 226.199 190.984C230.678 194.291 235.533 197.123 240.492 199.522C260.443 209.177 281.624 211.848 282.635 211.952C282.635 211.952 282.687 211.952 282.687 212.009L296.662 274.225L296.72 274.277L396.097 274.33C396.149 274.33 396.149 274.277 396.149 274.277L395.617 271.878C400.045 272.196 404.367 272.358 408.315 272.358C421.596 272.358 430.612 270.433 433.704 266.912C436.958 263.287 441.651 254.801 436.374 239.487Z" fill="#FFC930"/>
<path d="M281.301 426.347L221.449 426.295" stroke="black" stroke-linecap="round" stroke-linejoin="round"/>
<path d="M220.598 457.936L228.492 461.138" stroke="#5F3E53" stroke-linecap="round" stroke-linejoin="round"/>
<path d="M215.746 464.393L222.196 469.728" stroke="#5F3E53" stroke-linecap="round" stroke-linejoin="round"/>
<path d="M296.184 343.805L301.628 353.939" stroke="black" stroke-linecap="round" stroke-linejoin="round"/>
<path d="M266.367 457.779L274.314 461.138" stroke="#5F3E53" stroke-linecap="round" stroke-linejoin="round"/>
<path d="M261.938 465.035L268.018 469.73" stroke="#5F3E53" stroke-linecap="round" stroke-linejoin="round"/>
<path d="M304.933 157.579L304.985 153.683C304.985 153.631 304.933 153.631 304.933 153.631C304.025 153.844 293.998 155.873 287.49 149.844C279.434 141.681 284.768 125.725 284.184 114.521C284.023 111.746 284.075 109.024 284.341 106.624C286.103 90.0272 298.05 87.3044 317.896 87.6278C341.048 88.4259 342.701 100.537 343.395 108.862C343.608 116.013 343.556 129.835 343.447 140.987C343.342 150.11 343.556 155.764 343.556 156.192V156.244L339.499 159.712C339.499 159.712 339.499 159.712 339.447 159.712L305.042 157.631C304.985 157.631 304.933 157.631 304.933 157.579Z" fill="#A56250"/>
<path opacity="0.3" d="M305.042 153.632C304.984 153.632 304.984 153.632 305.042 153.632L304.984 157.632V160.193C304.984 160.251 304.984 160.251 305.042 160.251L307.654 160.303H307.706L316.826 149.255C316.884 149.203 316.826 149.151 316.774 149.203C311.706 151.712 305.521 153.47 305.042 153.632Z" fill="black"/>
<path d="M337.792 141.571C334.538 141.571 330.164 140.716 327.494 137.038V136.981C328.245 136.287 340.139 124.39 334.538 117.239C333.042 115.319 330.961 114.359 328.453 114.359C323.119 114.359 317.252 118.683 316.882 119.002H316.825C316.345 118.84 311.12 113.827 313.039 105.873C313.039 105.821 312.987 105.769 312.935 105.821C306.584 110.515 300.556 111.371 299.382 104.272C299.382 104.22 299.33 104.22 299.278 104.22C295.701 106.676 292.343 108.012 289.141 108.012C286.049 107.954 284.339 106.942 284.234 106.676C284.234 106.676 284.234 106.676 284.234 106.624C285.032 90.027 299.012 83.2514 317.362 83.6218C356.246 83.6218 343.659 139.49 343.341 140.93C343.341 140.93 343.341 140.987 343.283 140.987C343.127 141.039 340.723 141.571 337.792 141.571Z" fill="black"/>
<path d="M315.975 161.851L308.023 172.095C308.023 172.147 307.919 172.095 307.919 172.095L304.879 162.221L304.931 157.688C304.931 157.631 304.931 157.631 304.983 157.631L343.497 156.191C343.555 156.191 343.555 156.191 343.555 156.244L343.711 159.822V159.874L325.148 173.373H325.095L316.08 161.851C316.027 161.851 316.027 161.851 315.975 161.851Z" fill="#CECECE"/>
<path d="M293.891 135.542C294.532 133.513 296.613 132.287 298.745 132.877" stroke="black" stroke-linecap="round" stroke-linejoin="round"/>
<path d="M294.744 123.002L294.582 124.499C294.478 125.511 294.905 126.471 295.703 127.112" stroke="black" stroke-linecap="round" stroke-linejoin="round"/>
<path d="M303.068 118.893C305.253 118.95 305.253 122.147 303.068 122.205C300.883 122.147 300.883 118.95 303.068 118.893Z" fill="black"/>
<path d="M288.502 118.893C290.692 118.95 290.692 122.147 288.502 122.205C286.317 122.147 286.317 118.95 288.502 118.893Z" fill="black"/>
<path d="M315.711 180.738C320.352 180.843 320.352 187.676 315.711 187.78C311.07 187.676 311.07 180.843 315.711 180.738Z" fill="black"/>
<path d="M315.711 205.338C320.352 205.442 320.352 212.275 315.711 212.379C311.07 212.275 311.07 205.442 315.711 205.338Z" fill="black"/>
<path d="M315.711 229.988C320.352 230.098 320.352 236.926 315.711 237.03C311.07 236.926 311.07 230.098 315.711 229.988Z" fill="black"/>
<path d="M282.689 211.899L280.395 198.238" stroke="black" stroke-linecap="round" stroke-linejoin="round"/>
<path d="M254.791 157.15L247.215 167.342" stroke="black" stroke-linecap="round" stroke-linejoin="round"/>
<path d="M304.984 153.63C311.44 152.566 316.884 148.508 316.884 148.508" stroke="black" stroke-linecap="round" stroke-linejoin="round"/>
<path d="M322.59 126.953L327.445 123.166" stroke="black" stroke-linecap="round" stroke-linejoin="round"/>
<path d="M272.445 69.8574C270.474 70.8745 264.654 74.5518 261.938 78.4481" stroke="black" stroke-linecap="round" stroke-linejoin="round"/>
<path d="M294.958 70.9793C291.172 70.4473 286.901 69.91 283.116 70.4473C278.261 71.141 273.406 74.2341 273.406 74.2341" stroke="black" stroke-linecap="round" stroke-linejoin="round"/>
<path d="M302.159 79.5176C297.836 79.5176 289.623 79.6219 281.035 84.4779" stroke="black" stroke-linecap="round" stroke-linejoin="round"/>
<path d="M298.906 75.2459C296.241 75.2459 286.37 73.702 277.25 79.0901" stroke="black" stroke-linecap="round" stroke-linejoin="round"/>
<path opacity="0.3" d="M247.161 167.29L254.68 157.15C254.68 157.15 254.68 157.15 254.738 157.15C255.108 157.15 258.789 157.474 263.112 157.844C263.164 157.844 263.164 157.901 263.112 157.954L247.27 167.342C247.161 167.395 247.109 167.342 247.161 167.29Z" fill="black"/>
<path opacity="0.3" d="M282.637 211.95C281.302 211.846 260.392 209.123 240.707 199.625C240.655 199.625 240.655 199.521 240.707 199.521C268.448 198.504 279.545 198.238 280.342 198.186C280.394 198.186 280.394 198.186 280.394 198.238L282.689 211.898L282.637 211.95Z" fill="black"/>
<path opacity="0.3" d="M401.698 303.304C401.75 303.357 401.808 303.304 401.808 303.252C401.432 298.448 400.311 291.459 399.034 285.747C397.965 280.625 396.525 275.555 396.15 274.33C395.994 273.746 395.67 272.144 395.618 271.878C395.618 271.878 395.618 271.821 395.566 271.821C386.284 271.127 376.465 269.954 367.877 268.3C362.277 267.236 357.156 266.115 353.37 265.207C353.318 265.207 353.37 265.259 353.37 265.311L351.77 274.225C351.77 274.278 351.77 274.382 351.822 274.382H362.172C382.227 283.082 400.207 301.703 401.698 303.304Z" fill="black"/>
<path opacity="0.3" d="M371.401 233.454C372.731 233.454 373.586 233.507 373.904 233.507C373.962 233.507 373.962 233.454 373.962 233.402C370.385 228.812 365.796 223.101 362.062 216.539C362.062 216.487 361.958 216.487 361.958 216.539L358.918 233.934C358.918 233.986 358.918 234.044 358.97 234.044C360.091 233.987 361.212 233.934 362.224 233.882C366.171 233.616 369.373 233.454 371.401 233.454Z" fill="black"/>
<path d="M358.866 234.046C349.527 234.739 337.794 236.341 328.94 240.289C316.509 245.568 292.079 264.46 301.517 264.94C303.227 264.94 308.025 262.697 310.376 261.523C310.642 261.419 310.908 261.737 310.695 261.951C307.654 265.31 299.332 275.184 307.013 275.554C308.4 275.554 309.735 275.236 310.001 275.184C310.053 275.184 310.053 275.184 310.053 275.236C311.44 281.052 318.855 277.797 320.456 276.091C320.508 276.039 320.56 276.091 320.56 276.144C320.56 277.959 322.855 279.237 325.259 279.132C330.327 278.757 346.007 264.298 346.753 263.5H346.81C347.076 263.604 349.584 264.298 353.474 265.206C357.265 266.113 362.328 267.287 367.934 268.299C367.986 268.299 367.986 268.299 367.986 268.247C368.038 267.501 368.68 258.696 367.24 250.21C365.905 242.209 362.49 234.468 362.276 233.936C362.276 233.936 362.276 233.936 362.224 233.936C361.155 233.884 360.039 233.988 358.866 234.046Z" fill="#A56250"/>
<path d="M362.062 216.592C366.172 223.159 369.212 227.535 374.066 233.507" stroke="black" stroke-linecap="round" stroke-linejoin="round"/>
<path d="M321.898 251.279C318.112 254.106 313.472 258.91 310.004 262.165" stroke="black" stroke-linecap="round" stroke-linejoin="round"/>
<path d="M329.421 255.604C329.421 255.604 314.377 270.38 310.055 275.236" stroke="black" stroke-linecap="round" stroke-linejoin="round"/>
<path d="M336.939 260.402L320.508 276.04" stroke="black" stroke-linecap="round" stroke-linejoin="round"/>
<path d="M248.016 479.602C254.362 469.035 268.394 466.37 268.498 445.026C268.498 443.852 268.498 442.569 268.394 441.234C268.123 437.395 267.059 432.325 265.192 426.348C255.483 394.598 228.013 338.041 247.588 314.773C256.818 303.783 273.78 294.817 291.171 287.885" stroke="black" stroke-linecap="round" stroke-linejoin="round"/>
<path d="M326.167 426.348H265.246" stroke="black" stroke-linecap="round" stroke-linejoin="round"/>
<path d="M362.227 233.885C373.537 232.816 399.354 234.579 399.354 234.579" stroke="black" stroke-linecap="round" stroke-linejoin="round"/>
<path d="M367.934 268.193C378.602 270.645 395.617 271.876 395.617 271.876" stroke="black" stroke-linecap="round" stroke-linejoin="round"/>
<path d="M59.6297 134.28C61.6564 134.387 63.203 134.44 64.2697 134.44C67.9497 134.44 71.283 133.693 74.2697 132.2C77.3097 130.707 79.7097 128.68 81.4697 126.12C83.2297 123.507 84.1097 120.627 84.1097 117.48C84.1097 113.48 83.1497 110.6 81.2297 108.84C79.3097 107.08 76.5364 106.2 72.9097 106.2C71.1497 106.2 69.203 106.44 67.0697 106.92C64.9897 107.4 63.2564 107.96 61.8697 108.6L59.2297 106.76L63.0697 77.24H87.7897L88.5897 75.72H94.1097L92.4297 85.72H70.5097L67.2297 102.36C68.7764 101.56 70.6164 100.867 72.7497 100.28C74.9364 99.64 77.2564 99.32 79.7097 99.32C85.1497 99.32 89.3097 100.733 92.1897 103.56C95.123 106.387 96.5897 110.387 96.5897 115.56C96.5897 120.147 95.2297 124.28 92.5097 127.96C89.843 131.693 86.1097 134.6 81.3097 136.68C76.563 138.813 71.203 139.88 65.2297 139.88C63.203 139.88 61.3364 139.693 59.6297 139.32V134.28ZM126.934 127.8C120.107 127.8 114.881 125.533 111.254 121C107.681 116.413 105.894 110.2 105.894 102.36C105.894 96.8133 106.934 92.12 109.014 88.28C111.094 84.3867 113.841 81.48 117.254 79.56C120.721 77.5867 124.561 76.6 128.774 76.6C135.654 76.6 140.827 78.7867 144.294 83.16C147.761 87.48 149.494 93.6133 149.494 101.56C149.494 107.053 148.481 111.8 146.454 115.8C144.481 119.747 141.787 122.733 138.374 124.76C134.961 126.787 131.147 127.8 126.934 127.8ZM127.734 123C131.094 123 133.547 121.293 135.094 117.88C136.694 114.413 137.494 109.267 137.494 102.44C137.494 95.1867 136.747 89.88 135.254 86.52C133.814 83.1067 131.334 81.4 127.814 81.4C121.201 81.4 117.894 88.0933 117.894 101.48C117.894 108.627 118.667 114.013 120.214 117.64C121.814 121.213 124.321 123 127.734 123ZM179.512 127.8C172.686 127.8 167.459 125.533 163.832 121C160.259 116.413 158.472 110.2 158.472 102.36C158.472 96.8133 159.512 92.12 161.592 88.28C163.672 84.3867 166.419 81.48 169.832 79.56C173.299 77.5867 177.139 76.6 181.352 76.6C188.232 76.6 193.406 78.7867 196.872 83.16C200.339 87.48 202.072 93.6133 202.072 101.56C202.072 107.053 201.059 111.8 199.032 115.8C197.059 119.747 194.366 122.733 190.952 124.76C187.539 126.787 183.726 127.8 179.512 127.8ZM180.312 123C183.672 123 186.126 121.293 187.672 117.88C189.272 114.413 190.072 109.267 190.072 102.44C190.072 95.1867 189.326 89.88 187.832 86.52C186.392 83.1067 183.912 81.4 180.392 81.4C173.779 81.4 170.472 88.0933 170.472 101.48C170.472 108.627 171.246 114.013 172.792 117.64C174.392 121.213 176.899 123 180.312 123Z" fill="#6E7487"/>
</svg>
