<svg width="445" height="361" viewBox="0 0 445 361" fill="none" xmlns="http://www.w3.org/2000/svg">
<path d="M395.786 175.816H296.333H272.356H262.309L255.915 175.498L249.063 175.816H248.49C241.413 175.816 235.816 170.496 235.816 164V150.38V133.672V15.5329C235.816 8.93521 241.527 3.7207 248.49 3.7207H309.923H322.94H361.648H375.004H395.671C402.753 3.7207 408.345 9.04128 408.345 15.5329V33.5227V44.8003V83.6481V94.5056V164C408.574 170.602 402.863 175.816 395.786 175.816Z" fill="#D2CFC1"/>
<path d="M209.747 176.06H110.294H86.317H76.2699L69.8759 175.738L63.0236 176.06H62.4551C55.3737 176.06 49.7773 170.736 49.7773 164.244V150.624V133.912V15.777C49.7773 9.17934 55.4883 3.96484 62.4551 3.96484H123.883H136.901H175.608H188.965H209.632C216.713 3.96484 222.306 9.28541 222.306 15.777V33.7626V45.0444V83.8922V94.7455V164.244C222.535 170.842 216.828 176.06 209.747 176.06Z" fill="#CA3F94"/>
<path d="M209.848 360.898H110.399H86.4183H76.3711L69.9771 360.58L63.1291 360.898H62.5563C55.4749 360.898 49.8828 355.578 49.8828 349.086V335.462V318.754V200.619C49.8828 194.021 55.5895 188.803 62.5563 188.803H123.985H137.002H175.71H189.07H209.738C216.815 188.803 222.411 194.128 222.411 200.619V218.605V229.887V268.73V279.588V349.086C222.64 355.684 216.929 360.898 209.848 360.898Z" fill="#D2CFC1"/>
<path d="M395.727 360.912H296.274H272.297H262.246L255.852 360.594L249.004 360.912H248.431C241.354 360.912 235.758 355.591 235.758 349.1V335.476V318.767V200.629C235.758 194.031 241.469 188.816 248.431 188.816H309.86H322.877H361.585H374.945H395.613C402.69 188.816 408.286 194.137 408.286 200.629V218.618V229.9V268.744V279.601V349.1C408.515 355.697 402.804 360.912 395.727 360.912Z" fill="#03827A"/>
<path d="M439.56 206.225H404.467C401.459 206.225 399.019 208.668 399.019 211.677V240.626C399.019 240.991 399.028 241.296 399.04 241.691C399.04 241.712 399.036 241.729 399.023 241.742L394.356 247.465C393.796 248.14 394.433 249.133 395.277 248.904L405.774 246.078C405.782 246.074 405.786 246.074 405.791 246.074H439.56C442.568 246.074 445.008 243.634 445.008 240.626V211.677C445.008 208.668 442.568 206.225 439.56 206.225Z" fill="#F4BE53"/>
<path d="M436.952 237.114H407.922V231.772H436.952V226.426H407.922V221.084H436.952V215.742H407.922" stroke="black" stroke-linecap="round" stroke-linejoin="round"/>
<mask id="path-7-inside-1_2816_44" fill="white">
<path d="M0.0044387 37.3586C0.208097 45.5643 7.19188 52.0347 15.3976 52.0347H51.0251L61.679 61.3139C62.2899 61.823 63.1555 61.4157 63.1555 60.652V36.9512C63.1555 28.5885 56.3753 21.8636 48.0678 21.8636H15.0412C6.63182 21.8126 -0.19922 28.7922 0.0044387 37.3586ZM51.076 52.0347C51.0251 52.0347 51.0251 52.0347 51.076 52.0347V52.0347Z"/>
</mask>
<path d="M0.0044387 37.3586C0.208097 45.5643 7.19188 52.0347 15.3976 52.0347H51.0251L61.679 61.3139C62.2899 61.823 63.1555 61.4157 63.1555 60.652V36.9512C63.1555 28.5885 56.3753 21.8636 48.0678 21.8636H15.0412C6.63182 21.8126 -0.19922 28.7922 0.0044387 37.3586ZM51.076 52.0347C51.0251 52.0347 51.0251 52.0347 51.076 52.0347V52.0347Z" fill="white"/>
<path d="M0.0044387 37.3586L-0.995279 37.3823L-0.995253 37.3834L0.0044387 37.3586ZM51.0251 52.0347L51.6819 51.2806L51.3995 51.0347H51.0251V52.0347ZM61.679 61.3139L61.0222 62.0679L61.0304 62.0751L61.0388 62.0821L61.679 61.3139ZM15.0412 21.8636L15.0352 22.8636H15.0412V21.8636ZM-0.995253 37.3834C-0.777405 46.1608 6.67903 53.0347 15.3976 53.0347V51.0347C7.70472 51.0347 1.1936 44.9677 1.00413 37.3337L-0.995253 37.3834ZM15.3976 53.0347H51.0251V51.0347H15.3976V53.0347ZM50.3683 52.7888L61.0222 62.0679L62.3357 60.5598L51.6819 51.2806L50.3683 52.7888ZM61.0388 62.0821C62.2774 63.1143 64.1555 62.2941 64.1555 60.652H62.1555C62.1555 60.6523 62.1555 60.6457 62.1589 60.6344C62.1622 60.6232 62.1678 60.6109 62.1757 60.5989C62.1914 60.5751 62.2116 60.5594 62.231 60.5505C62.2507 60.5416 62.2729 60.538 62.2949 60.5408C62.3203 60.5441 62.3287 60.5536 62.3191 60.5456L61.0388 62.0821ZM64.1555 60.652V36.9512H62.1555V60.652H64.1555ZM64.1555 36.9512C64.1555 28.0339 56.9252 20.8636 48.0678 20.8636V22.8636C55.8254 22.8636 62.1555 29.1432 62.1555 36.9512H64.1555ZM48.0678 20.8636H15.0412V22.8636H48.0678V20.8636ZM15.0473 20.8636C6.0647 20.8092 -1.21212 28.2614 -0.995279 37.3823L1.00416 37.3348C0.813682 29.323 7.19893 22.8161 15.0352 22.8635L15.0473 20.8636ZM51.076 51.0347C51.0759 51.0347 51.0758 51.0347 51.0757 51.0347C51.0756 51.0347 51.0755 51.0347 51.0754 51.0347C51.0753 51.0347 51.0752 51.0347 51.0751 51.0347C51.075 51.0347 51.0749 51.0347 51.0748 51.0347C51.0747 51.0347 51.0746 51.0347 51.0745 51.0347C51.0744 51.0347 51.0743 51.0347 51.0742 51.0347C51.0741 51.0347 51.074 51.0347 51.0739 51.0347C51.0738 51.0347 51.0737 51.0347 51.0736 51.0347C51.0735 51.0347 51.0734 51.0347 51.0733 51.0347C51.0732 51.0347 51.0732 51.0347 51.0731 51.0347C51.073 51.0347 51.0729 51.0347 51.0728 51.0347C51.0727 51.0347 51.0726 51.0347 51.0725 51.0347C51.0724 51.0347 51.0723 51.0347 51.0722 51.0347C51.0721 51.0347 51.072 51.0347 51.0719 51.0347C51.0718 51.0347 51.0717 51.0347 51.0716 51.0347C51.0715 51.0347 51.0715 51.0347 51.0714 51.0347C51.0713 51.0347 51.0712 51.0347 51.0711 51.0347C51.071 51.0347 51.0709 51.0347 51.0708 51.0347C51.0707 51.0347 51.0706 51.0347 51.0705 51.0347C51.0704 51.0347 51.0703 51.0347 51.0703 51.0347C51.0702 51.0347 51.0701 51.0347 51.07 51.0347C51.0699 51.0347 51.0698 51.0347 51.0697 51.0347C51.0696 51.0347 51.0695 51.0347 51.0694 51.0347C51.0693 51.0347 51.0692 51.0347 51.0692 51.0347C51.0691 51.0347 51.069 51.0347 51.0689 51.0347C51.0688 51.0347 51.0687 51.0347 51.0686 51.0347C51.0685 51.0347 51.0684 51.0347 51.0684 51.0347C51.0683 51.0347 51.0682 51.0347 51.0681 51.0347C51.068 51.0347 51.0679 51.0347 51.0678 51.0347C51.0677 51.0347 51.0676 51.0347 51.0676 51.0347C51.0675 51.0347 51.0674 51.0347 51.0673 51.0347C51.0672 51.0347 51.0671 51.0347 51.067 51.0347C51.0669 51.0347 51.0669 51.0347 51.0668 51.0347C51.0667 51.0347 51.0666 51.0347 51.0665 51.0347C51.0664 51.0347 51.0663 51.0347 51.0663 51.0347C51.0662 51.0347 51.0661 51.0347 51.066 51.0347C51.0659 51.0347 51.0658 51.0347 51.0657 51.0347C51.0657 51.0347 51.0656 51.0347 51.0655 51.0347C51.0654 51.0347 51.0653 51.0347 51.0652 51.0347C51.0652 51.0347 51.0651 51.0347 51.065 51.0347C51.0649 51.0347 51.0648 51.0347 51.0647 51.0347C51.0646 51.0347 51.0646 51.0347 51.0645 51.0347C51.0644 51.0347 51.0643 51.0347 51.0642 51.0347C51.0641 51.0347 51.0641 51.0347 51.064 51.0347C51.0639 51.0347 51.0638 51.0347 51.0637 51.0347C51.0637 51.0347 51.0636 51.0347 51.0635 51.0347C51.0634 51.0347 51.0633 51.0347 51.0632 51.0347C51.0632 51.0347 51.0631 51.0347 51.063 51.0347C51.0629 51.0347 51.0628 51.0347 51.0628 51.0347C51.0627 51.0347 51.0626 51.0347 51.0625 51.0347C51.0624 51.0347 51.0624 51.0347 51.0623 51.0347C51.0622 51.0347 51.0621 51.0347 51.062 51.0347C51.062 51.0347 51.0619 51.0347 51.0618 51.0347C51.0617 51.0347 51.0616 51.0347 51.0616 51.0347C51.0615 51.0347 51.0614 51.0347 51.0613 51.0347C51.0613 51.0347 51.0612 51.0347 51.0611 51.0347C51.061 51.0347 51.0609 51.0347 51.0609 51.0347C51.0608 51.0347 51.0607 51.0347 51.0606 51.0347C51.0606 51.0347 51.0605 51.0347 51.0604 51.0347C51.0603 51.0347 51.0603 51.0347 51.0602 51.0347C51.0601 51.0347 51.06 51.0347 51.06 51.0347C51.0599 51.0347 51.0598 51.0347 51.0597 51.0347C51.0597 51.0347 51.0596 51.0347 51.0595 51.0347C51.0594 51.0347 51.0594 51.0347 51.0593 51.0347C51.0592 51.0347 51.0591 51.0347 51.0591 51.0347C51.059 51.0347 51.0589 51.0347 51.0588 51.0347C51.0588 51.0347 51.0587 51.0347 51.0586 51.0347C51.0585 51.0347 51.0585 51.0347 51.0584 51.0347C51.0583 51.0347 51.0582 51.0347 51.0582 51.0347C51.0581 51.0347 51.058 51.0347 51.058 51.0347C51.0579 51.0347 51.0578 51.0347 51.0577 51.0347C51.0577 51.0347 51.0576 51.0347 51.0575 51.0347C51.0575 51.0347 51.0574 51.0347 51.0573 51.0347C51.0572 51.0347 51.0572 51.0347 51.0571 51.0347C51.057 51.0347 51.057 51.0347 51.0569 51.0347C51.0568 51.0347 51.0567 51.0347 51.0567 51.0347C51.0566 51.0347 51.0565 51.0347 51.0565 51.0347C51.0564 51.0347 51.0563 51.0347 51.0563 51.0347C51.0562 51.0347 51.0561 51.0347 51.0561 51.0347C51.056 51.0347 51.0559 51.0347 51.0558 51.0347C51.0558 51.0347 51.0557 51.0347 51.0556 51.0347C51.0556 51.0347 51.0555 51.0347 51.0554 51.0347C51.0554 51.0347 51.0553 51.0347 51.0552 51.0347C51.0552 51.0347 51.0551 51.0347 51.055 51.0347C51.055 51.0347 51.0549 51.0347 51.0548 51.0347C51.0548 51.0347 51.0547 51.0347 51.0546 51.0347C51.0546 51.0347 51.0545 51.0347 51.0544 51.0347C51.0544 51.0347 51.0543 51.0347 51.0542 51.0347C51.0542 51.0347 51.0541 51.0347 51.054 51.0347C51.054 51.0347 51.0539 51.0347 51.0539 51.0347C51.0538 51.0347 51.0537 51.0347 51.0537 51.0347C51.0536 51.0347 51.0535 51.0347 51.0535 51.0347C51.0534 51.0347 51.0533 51.0347 51.0533 51.0347C51.0532 51.0347 51.0532 51.0347 51.0531 51.0347C51.053 51.0347 51.053 51.0347 51.0529 51.0347C51.0528 51.0347 51.0528 51.0347 51.0527 51.0347C51.0527 51.0347 51.0526 51.0347 51.0525 51.0347C51.0525 51.0347 51.0524 51.0347 51.0523 51.0347C51.0523 51.0347 51.0522 51.0347 51.0522 51.0347C51.0521 51.0347 51.052 51.0347 51.052 51.0347C51.0519 51.0347 51.0519 51.0347 51.0518 51.0347C51.0517 51.0347 51.0517 51.0347 51.0516 51.0347C51.0516 51.0347 51.0515 51.0347 51.0514 51.0347C51.0514 51.0347 51.0513 51.0347 51.0513 51.0347C51.0512 51.0347 51.0511 51.0347 51.0511 51.0347C51.051 51.0347 51.051 51.0347 51.0509 51.0347C51.0508 51.0347 51.0508 51.0347 51.0507 51.0347C51.0507 51.0347 51.0506 51.0347 51.0506 51.0347C51.0505 51.0347 51.0504 51.0347 51.0504 51.0347C51.0503 51.0347 51.0503 51.0347 51.0502 51.0347C51.0502 51.0347 51.0501 51.0347 51.05 51.0347C51.05 51.0347 51.0499 51.0347 51.0499 51.0347C51.0498 51.0347 51.0498 51.0347 51.0497 51.0347C51.0497 51.0347 51.0496 51.0347 51.0495 51.0347C51.0495 51.0347 51.0494 51.0347 51.0494 51.0347C51.0493 51.0347 51.0493 51.0347 51.0492 51.0347C51.0492 51.0347 51.0491 51.0347 51.0491 51.0347C51.049 51.0347 51.0489 51.0347 51.0489 51.0347C51.0488 51.0347 51.0488 51.0347 51.0487 51.0347C51.0487 51.0347 51.0486 51.0347 51.0486 51.0347C51.0485 51.0347 51.0485 51.0347 51.0484 51.0347C51.0484 51.0347 51.0483 51.0347 51.0483 51.0347C51.0482 51.0347 51.0482 51.0347 51.0481 51.0347C51.0481 51.0347 51.048 51.0347 51.048 51.0347C51.0479 51.0347 51.0478 51.0347 51.0478 51.0347C51.0477 51.0347 51.0477 51.0347 51.0476 51.0347C51.0476 51.0347 51.0475 51.0347 51.0475 51.0347C51.0474 51.0347 51.0474 51.0347 51.0473 51.0347C51.0473 51.0347 51.0472 51.0347 51.0472 51.0347C51.0471 51.0347 51.0471 51.0347 51.047 51.0347C51.047 51.0347 51.047 51.0347 51.0469 51.0347C51.0469 51.0347 51.0468 51.0347 51.0468 51.0347C51.0467 51.0347 51.0467 51.0347 51.0466 51.0347C51.0466 51.0347 51.0465 51.0347 51.0465 51.0347C51.0464 51.0347 51.0464 51.0347 51.0463 51.0347C51.0463 51.0347 51.0462 51.0347 51.0462 51.0347C51.0461 51.0347 51.0461 51.0347 51.046 51.0347C51.046 51.0347 51.046 51.0347 51.0459 51.0347C51.0459 51.0347 51.0458 51.0347 51.0458 51.0347C51.0457 51.0347 51.0457 51.0347 51.0456 51.0347C51.0456 51.0347 51.0455 51.0347 51.0455 51.0347C51.0455 51.0347 51.0454 51.0347 51.0454 51.0347C51.0453 51.0347 51.0453 51.0347 51.0452 51.0347C51.0452 51.0347 51.0452 51.0347 51.0451 51.0347C51.0451 51.0347 51.045 51.0347 51.045 51.0347C51.0449 51.0347 51.0449 51.0347 51.0448 51.0347C51.0448 51.0347 51.0448 51.0347 51.0447 51.0347C51.0447 51.0347 51.0446 51.0347 51.0446 51.0347C51.0446 51.0347 51.0445 51.0347 51.0445 51.0347C51.0444 51.0347 51.0444 51.0347 51.0443 51.0347C51.0443 51.0347 51.0443 51.0347 51.0442 51.0347C51.0442 51.0347 51.0441 51.0347 51.0441 51.0347C51.0441 51.0347 51.044 51.0347 51.044 51.0347C51.0439 51.0347 51.0439 51.0347 51.0439 51.0347C51.0438 51.0347 51.0438 51.0347 51.0437 51.0347C51.0437 51.0347 51.0437 51.0347 51.0436 51.0347C51.0436 51.0347 51.0435 51.0347 51.0435 51.0347C51.0435 51.0347 51.0434 51.0347 51.0434 51.0347C51.0434 51.0347 51.0433 51.0347 51.0433 51.0347C51.0432 51.0347 51.0432 51.0347 51.0432 51.0347C51.0431 51.0347 51.0431 51.0347 51.0431 51.0347C51.043 51.0347 51.043 51.0347 51.0429 51.0347C51.0429 51.0347 51.0429 51.0347 51.0428 51.0347C51.0428 51.0347 51.0428 51.0347 51.0427 51.0347C51.0427 51.0347 51.0427 51.0347 51.0426 51.0347C51.0426 51.0347 51.0426 51.0347 51.0425 51.0347C51.0425 51.0347 51.0424 51.0347 51.0424 51.0347C51.0424 51.0347 51.0423 51.0347 51.0423 51.0347C51.0423 51.0347 51.0422 51.0347 51.0422 51.0347C51.0422 51.0347 51.0421 51.0347 51.0421 51.0347C51.0421 51.0347 51.042 51.0347 51.042 51.0347C51.042 51.0347 51.0419 51.0347 51.0419 51.0347C51.0419 51.0347 51.0418 51.0347 51.0418 51.0347C51.0418 51.0347 51.0417 51.0347 51.0417 51.0347C51.0417 51.0347 51.0417 51.0347 51.0416 51.0347C51.0416 51.0347 51.0416 51.0347 51.0415 51.0347C51.0415 51.0347 51.0415 51.0347 51.0414 51.0347C51.0414 51.0347 51.0414 51.0347 51.0413 51.0347C51.0413 51.0347 51.0413 51.0347 51.0413 51.0347C51.0412 51.0347 51.0412 51.0347 51.0412 51.0347C51.0411 51.0347 51.0411 51.0347 51.0411 51.0347C51.041 51.0347 51.041 51.0347 51.041 51.0347C51.041 51.0347 51.0409 51.0347 51.0409 51.0347C51.0409 51.0347 51.0408 51.0347 51.0408 51.0347C51.0408 51.0347 51.0408 51.0347 51.0407 51.0347C51.0407 51.0347 51.0407 51.0347 51.0407 51.0347C51.0406 51.0347 51.0406 51.0347 51.0406 51.0347C51.0405 51.0347 51.0405 51.0347 51.0405 51.0347C51.0405 51.0347 51.0404 51.0347 51.0404 51.0347C51.0404 51.0347 51.0404 51.0347 51.0403 51.0347C51.0403 51.0347 51.0403 51.0347 51.0403 51.0347C51.0402 51.0347 51.0402 51.0347 51.0402 51.0347C51.0402 51.0347 51.0401 51.0347 51.0401 51.0347C51.0401 51.0347 51.0401 51.0347 51.04 51.0347C51.04 51.0347 51.04 51.0347 51.04 51.0347C51.0399 51.0347 51.0399 51.0347 51.0399 51.0347C51.0399 51.0347 51.0398 51.0347 51.0398 51.0347C51.0398 51.0347 51.0398 51.0347 51.0398 51.0347C51.0397 51.0347 51.0397 51.0347 51.0397 51.0347C51.0397 51.0347 51.0396 51.0347 51.0396 51.0347C51.0396 51.0347 51.0396 51.0347 51.0396 51.0347C51.0395 51.0347 51.0395 51.0347 51.0395 51.0347C51.0395 51.0347 51.0395 51.0347 51.0394 51.0347C51.0394 51.0347 51.0394 51.0347 51.0394 51.0347C51.0394 51.0347 51.0393 51.0347 51.0393 51.0347C51.0393 51.0347 51.0393 51.0347 51.0393 51.0347C51.0392 51.0347 51.0392 51.0347 51.0392 51.0347C51.0392 51.0347 51.0392 51.0347 51.0391 51.0347C51.0391 51.0347 51.0391 51.0347 51.0391 51.0347C51.0391 51.0347 51.039 51.0347 51.039 51.0347C51.039 51.0347 51.039 51.0347 51.039 51.0347C51.039 51.0347 51.0389 51.0347 51.0389 51.0347C51.0389 51.0347 51.0389 51.0347 51.0389 51.0347C51.0389 51.0347 51.0388 51.0347 51.0388 51.0347C51.0388 51.0347 51.0388 51.0347 51.0388 51.0347C51.0388 51.0347 51.0387 51.0347 51.0387 51.0347C51.0387 51.0347 51.0387 51.0347 51.0387 51.0347C51.0387 51.0347 51.0387 51.0347 51.0386 51.0347C51.0386 51.0347 51.0386 51.0347 51.0386 51.0347C51.0386 51.0347 51.0386 51.0347 51.0386 51.0347C51.0385 51.0347 51.0385 51.0347 51.0385 51.0347C51.0385 51.0347 51.0385 51.0347 51.0385 51.0347C51.0385 51.0347 51.0384 51.0347 51.0384 51.0347C51.0384 51.0347 51.0384 51.0347 51.0384 51.0347C51.0384 51.0347 51.0384 51.0347 51.0384 51.0347C51.0383 51.0347 51.0383 51.0347 51.0383 51.0347C51.0383 51.0347 51.0383 51.0347 51.0383 51.0347C51.0383 51.0347 51.0383 51.0347 51.0383 51.0347C51.0382 51.0347 51.0382 51.0347 51.0382 51.0347C51.0382 51.0347 51.0382 51.0347 51.0382 51.0347C51.0382 51.0347 51.0382 51.0347 51.0382 51.0347C51.0382 51.0347 51.0381 51.0347 51.0381 51.0347C51.0381 51.0347 51.0381 51.0347 51.0381 51.0347C51.0381 51.0347 51.0381 51.0347 51.0381 51.0347C51.0381 51.0347 51.0381 51.0347 51.0381 51.0347C51.038 51.0347 51.038 51.0347 51.038 51.0347C51.038 51.0347 51.038 51.0347 51.038 51.0347C51.038 51.0347 51.038 51.0347 51.038 51.0347C51.038 51.0347 51.038 51.0347 51.038 51.0347C51.038 51.0347 51.038 51.0347 51.0379 51.0347C51.0379 51.0347 51.0379 51.0347 51.0379 51.0347C51.0379 51.0347 51.0379 51.0347 51.0379 51.0347C51.0379 51.0347 51.0379 51.0347 51.0379 51.0347C51.0379 51.0347 51.0379 51.0347 51.0379 51.0347C51.0379 51.0347 51.0379 51.0347 51.0379 51.0347C51.0379 51.0347 51.0379 51.0347 51.0379 51.0347C51.0379 51.0347 51.0378 51.0347 51.0378 51.0347C51.0378 51.0347 51.0378 51.0347 51.0378 51.0347C51.0378 51.0347 51.0378 51.0347 51.0378 51.0347C51.0378 51.0347 51.0378 51.0347 51.0378 51.0347C51.0378 51.0347 51.0378 51.0347 51.0378 51.0347H51.0378C51.0378 51.0347 51.0378 51.0347 51.0378 51.0347C51.0378 51.0347 51.0378 51.0347 51.0378 51.0347C51.0378 51.0347 51.0378 51.0347 51.0378 51.0347C51.0378 51.0347 51.0378 51.0347 51.0378 52.0347C51.0378 53.0347 51.0378 53.0347 51.0378 53.0347C51.0378 53.0347 51.0378 53.0347 51.0378 53.0347C51.0378 53.0347 51.0378 53.0347 51.0378 53.0347C51.0378 53.0347 51.0378 53.0347 51.0378 53.0347H51.0378C51.0378 53.0347 51.0378 53.0347 51.0378 53.0347C51.0378 53.0347 51.0378 53.0347 51.0378 53.0347C51.0378 53.0347 51.0378 53.0347 51.0378 53.0347C51.0378 53.0347 51.0378 53.0347 51.0378 53.0347C51.0378 53.0347 51.0379 53.0347 51.0379 53.0347C51.0379 53.0347 51.0379 53.0347 51.0379 53.0347C51.0379 53.0347 51.0379 53.0347 51.0379 53.0347C51.0379 53.0347 51.0379 53.0347 51.0379 53.0347C51.0379 53.0347 51.0379 53.0347 51.0379 53.0347C51.0379 53.0347 51.0379 53.0347 51.0379 53.0347C51.0379 53.0347 51.0379 53.0347 51.0379 53.0347C51.038 53.0347 51.038 53.0347 51.038 53.0347C51.038 53.0347 51.038 53.0347 51.038 53.0347C51.038 53.0347 51.038 53.0347 51.038 53.0347C51.038 53.0347 51.038 53.0347 51.038 53.0347C51.038 53.0347 51.038 53.0347 51.0381 53.0347C51.0381 53.0347 51.0381 53.0347 51.0381 53.0347C51.0381 53.0347 51.0381 53.0347 51.0381 53.0347C51.0381 53.0347 51.0381 53.0347 51.0381 53.0347C51.0381 53.0347 51.0382 53.0347 51.0382 53.0347C51.0382 53.0347 51.0382 53.0347 51.0382 53.0347C51.0382 53.0347 51.0382 53.0347 51.0382 53.0347C51.0382 53.0347 51.0382 53.0347 51.0383 53.0347C51.0383 53.0347 51.0383 53.0347 51.0383 53.0347C51.0383 53.0347 51.0383 53.0347 51.0383 53.0347C51.0383 53.0347 51.0383 53.0347 51.0384 53.0347C51.0384 53.0347 51.0384 53.0347 51.0384 53.0347C51.0384 53.0347 51.0384 53.0347 51.0384 53.0347C51.0384 53.0347 51.0385 53.0347 51.0385 53.0347C51.0385 53.0347 51.0385 53.0347 51.0385 53.0347C51.0385 53.0347 51.0385 53.0347 51.0386 53.0347C51.0386 53.0347 51.0386 53.0347 51.0386 53.0347C51.0386 53.0347 51.0386 53.0347 51.0386 53.0347C51.0387 53.0347 51.0387 53.0347 51.0387 53.0347C51.0387 53.0347 51.0387 53.0347 51.0387 53.0347C51.0387 53.0347 51.0388 53.0347 51.0388 53.0347C51.0388 53.0347 51.0388 53.0347 51.0388 53.0347C51.0388 53.0347 51.0389 53.0347 51.0389 53.0347C51.0389 53.0347 51.0389 53.0347 51.0389 53.0347C51.0389 53.0347 51.039 53.0347 51.039 53.0347C51.039 53.0347 51.039 53.0347 51.039 53.0347C51.039 53.0347 51.0391 53.0347 51.0391 53.0347C51.0391 53.0347 51.0391 53.0347 51.0391 53.0347C51.0392 53.0347 51.0392 53.0347 51.0392 53.0347C51.0392 53.0347 51.0392 53.0347 51.0393 53.0347C51.0393 53.0347 51.0393 53.0347 51.0393 53.0347C51.0393 53.0347 51.0394 53.0347 51.0394 53.0347C51.0394 53.0347 51.0394 53.0347 51.0394 53.0347C51.0395 53.0347 51.0395 53.0347 51.0395 53.0347C51.0395 53.0347 51.0395 53.0347 51.0396 53.0347C51.0396 53.0347 51.0396 53.0347 51.0396 53.0347C51.0396 53.0347 51.0397 53.0347 51.0397 53.0347C51.0397 53.0347 51.0397 53.0347 51.0398 53.0347C51.0398 53.0347 51.0398 53.0347 51.0398 53.0347C51.0398 53.0347 51.0399 53.0347 51.0399 53.0347C51.0399 53.0347 51.0399 53.0347 51.04 53.0347C51.04 53.0347 51.04 53.0347 51.04 53.0347C51.0401 53.0347 51.0401 53.0347 51.0401 53.0347C51.0401 53.0347 51.0402 53.0347 51.0402 53.0347C51.0402 53.0347 51.0402 53.0347 51.0403 53.0347C51.0403 53.0347 51.0403 53.0347 51.0403 53.0347C51.0404 53.0347 51.0404 53.0347 51.0404 53.0347C51.0404 53.0347 51.0405 53.0347 51.0405 53.0347C51.0405 53.0347 51.0405 53.0347 51.0406 53.0347C51.0406 53.0347 51.0406 53.0347 51.0407 53.0347C51.0407 53.0347 51.0407 53.0347 51.0407 53.0347C51.0408 53.0347 51.0408 53.0347 51.0408 53.0347C51.0408 53.0347 51.0409 53.0347 51.0409 53.0347C51.0409 53.0347 51.041 53.0347 51.041 53.0347C51.041 53.0347 51.041 53.0347 51.0411 53.0347C51.0411 53.0347 51.0411 53.0347 51.0412 53.0347C51.0412 53.0347 51.0412 53.0347 51.0413 53.0347C51.0413 53.0347 51.0413 53.0347 51.0413 53.0347C51.0414 53.0347 51.0414 53.0347 51.0414 53.0347C51.0415 53.0347 51.0415 53.0347 51.0415 53.0347C51.0416 53.0347 51.0416 53.0347 51.0416 53.0347C51.0417 53.0347 51.0417 53.0347 51.0417 53.0347C51.0417 53.0347 51.0418 53.0347 51.0418 53.0347C51.0418 53.0347 51.0419 53.0347 51.0419 53.0347C51.0419 53.0347 51.042 53.0347 51.042 53.0347C51.042 53.0347 51.0421 53.0347 51.0421 53.0347C51.0421 53.0347 51.0422 53.0347 51.0422 53.0347C51.0422 53.0347 51.0423 53.0347 51.0423 53.0347C51.0423 53.0347 51.0424 53.0347 51.0424 53.0347C51.0424 53.0347 51.0425 53.0347 51.0425 53.0347C51.0426 53.0347 51.0426 53.0347 51.0426 53.0347C51.0427 53.0347 51.0427 53.0347 51.0427 53.0347C51.0428 53.0347 51.0428 53.0347 51.0428 53.0347C51.0429 53.0347 51.0429 53.0347 51.0429 53.0347C51.043 53.0347 51.043 53.0347 51.0431 53.0347C51.0431 53.0347 51.0431 53.0347 51.0432 53.0347C51.0432 53.0347 51.0432 53.0347 51.0433 53.0347C51.0433 53.0347 51.0434 53.0347 51.0434 53.0347C51.0434 53.0347 51.0435 53.0347 51.0435 53.0347C51.0435 53.0347 51.0436 53.0347 51.0436 53.0347C51.0437 53.0347 51.0437 53.0347 51.0437 53.0347C51.0438 53.0347 51.0438 53.0347 51.0439 53.0347C51.0439 53.0347 51.0439 53.0347 51.044 53.0347C51.044 53.0347 51.0441 53.0347 51.0441 53.0347C51.0441 53.0347 51.0442 53.0347 51.0442 53.0347C51.0443 53.0347 51.0443 53.0347 51.0443 53.0347C51.0444 53.0347 51.0444 53.0347 51.0445 53.0347C51.0445 53.0347 51.0446 53.0347 51.0446 53.0347C51.0446 53.0347 51.0447 53.0347 51.0447 53.0347C51.0448 53.0347 51.0448 53.0347 51.0448 53.0347C51.0449 53.0347 51.0449 53.0347 51.045 53.0347C51.045 53.0347 51.0451 53.0347 51.0451 53.0347C51.0452 53.0347 51.0452 53.0347 51.0452 53.0347C51.0453 53.0347 51.0453 53.0347 51.0454 53.0347C51.0454 53.0347 51.0455 53.0347 51.0455 53.0347C51.0455 53.0347 51.0456 53.0347 51.0456 53.0347C51.0457 53.0347 51.0457 53.0347 51.0458 53.0347C51.0458 53.0347 51.0459 53.0347 51.0459 53.0347C51.046 53.0347 51.046 53.0347 51.046 53.0347C51.0461 53.0347 51.0461 53.0347 51.0462 53.0347C51.0462 53.0347 51.0463 53.0347 51.0463 53.0347C51.0464 53.0347 51.0464 53.0347 51.0465 53.0347C51.0465 53.0347 51.0466 53.0347 51.0466 53.0347C51.0467 53.0347 51.0467 53.0347 51.0468 53.0347C51.0468 53.0347 51.0469 53.0347 51.0469 53.0347C51.047 53.0347 51.047 53.0347 51.047 53.0347C51.0471 53.0347 51.0471 53.0347 51.0472 53.0347C51.0472 53.0347 51.0473 53.0347 51.0473 53.0347C51.0474 53.0347 51.0474 53.0347 51.0475 53.0347C51.0475 53.0347 51.0476 53.0347 51.0476 53.0347C51.0477 53.0347 51.0477 53.0347 51.0478 53.0347C51.0478 53.0347 51.0479 53.0347 51.048 53.0347C51.048 53.0347 51.0481 53.0347 51.0481 53.0347C51.0482 53.0347 51.0482 53.0347 51.0483 53.0347C51.0483 53.0347 51.0484 53.0347 51.0484 53.0347C51.0485 53.0347 51.0485 53.0347 51.0486 53.0347C51.0486 53.0347 51.0487 53.0347 51.0487 53.0347C51.0488 53.0347 51.0488 53.0347 51.0489 53.0347C51.0489 53.0347 51.049 53.0347 51.0491 53.0347C51.0491 53.0347 51.0492 53.0347 51.0492 53.0347C51.0493 53.0347 51.0493 53.0347 51.0494 53.0347C51.0494 53.0347 51.0495 53.0347 51.0495 53.0347C51.0496 53.0347 51.0497 53.0347 51.0497 53.0347C51.0498 53.0347 51.0498 53.0347 51.0499 53.0347C51.0499 53.0347 51.05 53.0347 51.05 53.0347C51.0501 53.0347 51.0502 53.0347 51.0502 53.0347C51.0503 53.0347 51.0503 53.0347 51.0504 53.0347C51.0504 53.0347 51.0505 53.0347 51.0506 53.0347C51.0506 53.0347 51.0507 53.0347 51.0507 53.0347C51.0508 53.0347 51.0508 53.0347 51.0509 53.0347C51.051 53.0347 51.051 53.0347 51.0511 53.0347C51.0511 53.0347 51.0512 53.0347 51.0513 53.0347C51.0513 53.0347 51.0514 53.0347 51.0514 53.0347C51.0515 53.0347 51.0516 53.0347 51.0516 53.0347C51.0517 53.0347 51.0517 53.0347 51.0518 53.0347C51.0519 53.0347 51.0519 53.0347 51.052 53.0347C51.052 53.0347 51.0521 53.0347 51.0522 53.0347C51.0522 53.0347 51.0523 53.0347 51.0523 53.0347C51.0524 53.0347 51.0525 53.0347 51.0525 53.0347C51.0526 53.0347 51.0527 53.0347 51.0527 53.0347C51.0528 53.0347 51.0528 53.0347 51.0529 53.0347C51.053 53.0347 51.053 53.0347 51.0531 53.0347C51.0532 53.0347 51.0532 53.0347 51.0533 53.0347C51.0533 53.0347 51.0534 53.0347 51.0535 53.0347C51.0535 53.0347 51.0536 53.0347 51.0537 53.0347C51.0537 53.0347 51.0538 53.0347 51.0539 53.0347C51.0539 53.0347 51.054 53.0347 51.054 53.0347C51.0541 53.0347 51.0542 53.0347 51.0542 53.0347C51.0543 53.0347 51.0544 53.0347 51.0544 53.0347C51.0545 53.0347 51.0546 53.0347 51.0546 53.0347C51.0547 53.0347 51.0548 53.0347 51.0548 53.0347C51.0549 53.0347 51.055 53.0347 51.055 53.0347C51.0551 53.0347 51.0552 53.0347 51.0552 53.0347C51.0553 53.0347 51.0554 53.0347 51.0554 53.0347C51.0555 53.0347 51.0556 53.0347 51.0556 53.0347C51.0557 53.0347 51.0558 53.0347 51.0558 53.0347C51.0559 53.0347 51.056 53.0347 51.0561 53.0347C51.0561 53.0347 51.0562 53.0347 51.0563 53.0347C51.0563 53.0347 51.0564 53.0347 51.0565 53.0347C51.0565 53.0347 51.0566 53.0347 51.0567 53.0347C51.0567 53.0347 51.0568 53.0347 51.0569 53.0347C51.057 53.0347 51.057 53.0347 51.0571 53.0347C51.0572 53.0347 51.0572 53.0347 51.0573 53.0347C51.0574 53.0347 51.0575 53.0347 51.0575 53.0347C51.0576 53.0347 51.0577 53.0347 51.0577 53.0347C51.0578 53.0347 51.0579 53.0347 51.058 53.0347C51.058 53.0347 51.0581 53.0347 51.0582 53.0347C51.0582 53.0347 51.0583 53.0347 51.0584 53.0347C51.0585 53.0347 51.0585 53.0347 51.0586 53.0347C51.0587 53.0347 51.0588 53.0347 51.0588 53.0347C51.0589 53.0347 51.059 53.0347 51.0591 53.0347C51.0591 53.0347 51.0592 53.0347 51.0593 53.0347C51.0594 53.0347 51.0594 53.0347 51.0595 53.0347C51.0596 53.0347 51.0597 53.0347 51.0597 53.0347C51.0598 53.0347 51.0599 53.0347 51.06 53.0347C51.06 53.0347 51.0601 53.0347 51.0602 53.0347C51.0603 53.0347 51.0603 53.0347 51.0604 53.0347C51.0605 53.0347 51.0606 53.0347 51.0606 53.0347C51.0607 53.0347 51.0608 53.0347 51.0609 53.0347C51.0609 53.0347 51.061 53.0347 51.0611 53.0347C51.0612 53.0347 51.0613 53.0347 51.0613 53.0347C51.0614 53.0347 51.0615 53.0347 51.0616 53.0347C51.0616 53.0347 51.0617 53.0347 51.0618 53.0347C51.0619 53.0347 51.062 53.0347 51.062 53.0347C51.0621 53.0347 51.0622 53.0347 51.0623 53.0347C51.0624 53.0347 51.0624 53.0347 51.0625 53.0347C51.0626 53.0347 51.0627 53.0347 51.0628 53.0347C51.0628 53.0347 51.0629 53.0347 51.063 53.0347C51.0631 53.0347 51.0632 53.0347 51.0632 53.0347C51.0633 53.0347 51.0634 53.0347 51.0635 53.0347C51.0636 53.0347 51.0637 53.0347 51.0637 53.0347C51.0638 53.0347 51.0639 53.0347 51.064 53.0347C51.0641 53.0347 51.0641 53.0347 51.0642 53.0347C51.0643 53.0347 51.0644 53.0347 51.0645 53.0347C51.0646 53.0347 51.0646 53.0347 51.0647 53.0347C51.0648 53.0347 51.0649 53.0347 51.065 53.0347C51.0651 53.0347 51.0652 53.0347 51.0652 53.0347C51.0653 53.0347 51.0654 53.0347 51.0655 53.0347C51.0656 53.0347 51.0657 53.0347 51.0657 53.0347C51.0658 53.0347 51.0659 53.0347 51.066 53.0347C51.0661 53.0347 51.0662 53.0347 51.0663 53.0347C51.0663 53.0347 51.0664 53.0347 51.0665 53.0347C51.0666 53.0347 51.0667 53.0347 51.0668 53.0347C51.0669 53.0347 51.0669 53.0347 51.067 53.0347C51.0671 53.0347 51.0672 53.0347 51.0673 53.0347C51.0674 53.0347 51.0675 53.0347 51.0676 53.0347C51.0676 53.0347 51.0677 53.0347 51.0678 53.0347C51.0679 53.0347 51.068 53.0347 51.0681 53.0347C51.0682 53.0347 51.0683 53.0347 51.0684 53.0347C51.0684 53.0347 51.0685 53.0347 51.0686 53.0347C51.0687 53.0347 51.0688 53.0347 51.0689 53.0347C51.069 53.0347 51.0691 53.0347 51.0692 53.0347C51.0692 53.0347 51.0693 53.0347 51.0694 53.0347C51.0695 53.0347 51.0696 53.0347 51.0697 53.0347C51.0698 53.0347 51.0699 53.0347 51.07 53.0347C51.0701 53.0347 51.0702 53.0347 51.0703 53.0347C51.0703 53.0347 51.0704 53.0347 51.0705 53.0347C51.0706 53.0347 51.0707 53.0347 51.0708 53.0347C51.0709 53.0347 51.071 53.0347 51.0711 53.0347C51.0712 53.0347 51.0713 53.0347 51.0714 53.0347C51.0715 53.0347 51.0715 53.0347 51.0716 53.0347C51.0717 53.0347 51.0718 53.0347 51.0719 53.0347C51.072 53.0347 51.0721 53.0347 51.0722 53.0347C51.0723 53.0347 51.0724 53.0347 51.0725 53.0347C51.0726 53.0347 51.0727 53.0347 51.0728 53.0347C51.0729 53.0347 51.073 53.0347 51.0731 53.0347C51.0732 53.0347 51.0732 53.0347 51.0733 53.0347C51.0734 53.0347 51.0735 53.0347 51.0736 53.0347C51.0737 53.0347 51.0738 53.0347 51.0739 53.0347C51.074 53.0347 51.0741 53.0347 51.0742 53.0347C51.0743 53.0347 51.0744 53.0347 51.0745 53.0347C51.0746 53.0347 51.0747 53.0347 51.0748 53.0347C51.0749 53.0347 51.075 53.0347 51.0751 53.0347C51.0752 53.0347 51.0753 53.0347 51.0754 53.0347C51.0755 53.0347 51.0756 53.0347 51.0757 53.0347C51.0758 53.0347 51.0759 53.0347 51.076 53.0347V51.0347C51.0759 51.0347 51.0758 51.0347 51.0757 51.0347C51.0756 51.0347 51.0755 51.0347 51.0754 51.0347C51.0753 51.0347 51.0752 51.0347 51.0751 51.0347C51.075 51.0347 51.0749 51.0347 51.0748 51.0347C51.0747 51.0347 51.0746 51.0347 51.0745 51.0347C51.0744 51.0347 51.0743 51.0347 51.0742 51.0347C51.0741 51.0347 51.074 51.0347 51.0739 51.0347C51.0738 51.0347 51.0737 51.0347 51.0736 51.0347C51.0735 51.0347 51.0734 51.0347 51.0733 51.0347C51.0732 51.0347 51.0732 51.0347 51.0731 51.0347C51.073 51.0347 51.0729 51.0347 51.0728 51.0347C51.0727 51.0347 51.0726 51.0347 51.0725 51.0347C51.0724 51.0347 51.0723 51.0347 51.0722 51.0347C51.0721 51.0347 51.072 51.0347 51.0719 51.0347C51.0718 51.0347 51.0717 51.0347 51.0716 51.0347C51.0715 51.0347 51.0715 51.0347 51.0714 51.0347C51.0713 51.0347 51.0712 51.0347 51.0711 51.0347C51.071 51.0347 51.0709 51.0347 51.0708 51.0347C51.0707 51.0347 51.0706 51.0347 51.0705 51.0347C51.0704 51.0347 51.0703 51.0347 51.0703 51.0347C51.0702 51.0347 51.0701 51.0347 51.07 51.0347C51.0699 51.0347 51.0698 51.0347 51.0697 51.0347C51.0696 51.0347 51.0695 51.0347 51.0694 51.0347C51.0693 51.0347 51.0692 51.0347 51.0692 51.0347C51.0691 51.0347 51.069 51.0347 51.0689 51.0347C51.0688 51.0347 51.0687 51.0347 51.0686 51.0347C51.0685 51.0347 51.0684 51.0347 51.0684 51.0347C51.0683 51.0347 51.0682 51.0347 51.0681 51.0347C51.068 51.0347 51.0679 51.0347 51.0678 51.0347C51.0677 51.0347 51.0676 51.0347 51.0676 51.0347C51.0675 51.0347 51.0674 51.0347 51.0673 51.0347C51.0672 51.0347 51.0671 51.0347 51.067 51.0347C51.0669 51.0347 51.0669 51.0347 51.0668 51.0347C51.0667 51.0347 51.0666 51.0347 51.0665 51.0347C51.0664 51.0347 51.0663 51.0347 51.0663 51.0347C51.0662 51.0347 51.0661 51.0347 51.066 51.0347C51.0659 51.0347 51.0658 51.0347 51.0657 51.0347C51.0657 51.0347 51.0656 51.0347 51.0655 51.0347C51.0654 51.0347 51.0653 51.0347 51.0652 51.0347C51.0652 51.0347 51.0651 51.0347 51.065 51.0347C51.0649 51.0347 51.0648 51.0347 51.0647 51.0347C51.0646 51.0347 51.0646 51.0347 51.0645 51.0347C51.0644 51.0347 51.0643 51.0347 51.0642 51.0347C51.0641 51.0347 51.0641 51.0347 51.064 51.0347C51.0639 51.0347 51.0638 51.0347 51.0637 51.0347C51.0637 51.0347 51.0636 51.0347 51.0635 51.0347C51.0634 51.0347 51.0633 51.0347 51.0632 51.0347C51.0632 51.0347 51.0631 51.0347 51.063 51.0347C51.0629 51.0347 51.0628 51.0347 51.0628 51.0347C51.0627 51.0347 51.0626 51.0347 51.0625 51.0347C51.0624 51.0347 51.0624 51.0347 51.0623 51.0347C51.0622 51.0347 51.0621 51.0347 51.062 51.0347C51.062 51.0347 51.0619 51.0347 51.0618 51.0347C51.0617 51.0347 51.0616 51.0347 51.0616 51.0347C51.0615 51.0347 51.0614 51.0347 51.0613 51.0347C51.0613 51.0347 51.0612 51.0347 51.0611 51.0347C51.061 51.0347 51.0609 51.0347 51.0609 51.0347C51.0608 51.0347 51.0607 51.0347 51.0606 51.0347C51.0606 51.0347 51.0605 51.0347 51.0604 51.0347C51.0603 51.0347 51.0603 51.0347 51.0602 51.0347C51.0601 51.0347 51.06 51.0347 51.06 51.0347C51.0599 51.0347 51.0598 51.0347 51.0597 51.0347C51.0597 51.0347 51.0596 51.0347 51.0595 51.0347C51.0594 51.0347 51.0594 51.0347 51.0593 51.0347C51.0592 51.0347 51.0591 51.0347 51.0591 51.0347C51.059 51.0347 51.0589 51.0347 51.0588 51.0347C51.0588 51.0347 51.0587 51.0347 51.0586 51.0347C51.0585 51.0347 51.0585 51.0347 51.0584 51.0347C51.0583 51.0347 51.0582 51.0347 51.0582 51.0347C51.0581 51.0347 51.058 51.0347 51.058 51.0347C51.0579 51.0347 51.0578 51.0347 51.0577 51.0347C51.0577 51.0347 51.0576 51.0347 51.0575 51.0347C51.0575 51.0347 51.0574 51.0347 51.0573 51.0347C51.0572 51.0347 51.0572 51.0347 51.0571 51.0347C51.057 51.0347 51.057 51.0347 51.0569 51.0347C51.0568 51.0347 51.0567 51.0347 51.0567 51.0347C51.0566 51.0347 51.0565 51.0347 51.0565 51.0347C51.0564 51.0347 51.0563 51.0347 51.0563 51.0347C51.0562 51.0347 51.0561 51.0347 51.0561 51.0347C51.056 51.0347 51.0559 51.0347 51.0558 51.0347C51.0558 51.0347 51.0557 51.0347 51.0556 51.0347C51.0556 51.0347 51.0555 51.0347 51.0554 51.0347C51.0554 51.0347 51.0553 51.0347 51.0552 51.0347C51.0552 51.0347 51.0551 51.0347 51.055 51.0347C51.055 51.0347 51.0549 51.0347 51.0548 51.0347C51.0548 51.0347 51.0547 51.0347 51.0546 51.0347C51.0546 51.0347 51.0545 51.0347 51.0544 51.0347C51.0544 51.0347 51.0543 51.0347 51.0542 51.0347C51.0542 51.0347 51.0541 51.0347 51.054 51.0347C51.054 51.0347 51.0539 51.0347 51.0539 51.0347C51.0538 51.0347 51.0537 51.0347 51.0537 51.0347C51.0536 51.0347 51.0535 51.0347 51.0535 51.0347C51.0534 51.0347 51.0533 51.0347 51.0533 51.0347C51.0532 51.0347 51.0532 51.0347 51.0531 51.0347C51.053 51.0347 51.053 51.0347 51.0529 51.0347C51.0528 51.0347 51.0528 51.0347 51.0527 51.0347C51.0527 51.0347 51.0526 51.0347 51.0525 51.0347C51.0525 51.0347 51.0524 51.0347 51.0523 51.0347C51.0523 51.0347 51.0522 51.0347 51.0522 51.0347C51.0521 51.0347 51.052 51.0347 51.052 51.0347C51.0519 51.0347 51.0519 51.0347 51.0518 51.0347C51.0517 51.0347 51.0517 51.0347 51.0516 51.0347C51.0516 51.0347 51.0515 51.0347 51.0514 51.0347C51.0514 51.0347 51.0513 51.0347 51.0513 51.0347C51.0512 51.0347 51.0511 51.0347 51.0511 51.0347C51.051 51.0347 51.051 51.0347 51.0509 51.0347C51.0508 51.0347 51.0508 51.0347 51.0507 51.0347C51.0507 51.0347 51.0506 51.0347 51.0506 51.0347C51.0505 51.0347 51.0504 51.0347 51.0504 51.0347C51.0503 51.0347 51.0503 51.0347 51.0502 51.0347C51.0502 51.0347 51.0501 51.0347 51.05 51.0347C51.05 51.0347 51.0499 51.0347 51.0499 51.0347C51.0498 51.0347 51.0498 51.0347 51.0497 51.0347C51.0497 51.0347 51.0496 51.0347 51.0495 51.0347C51.0495 51.0347 51.0494 51.0347 51.0494 51.0347C51.0493 51.0347 51.0493 51.0347 51.0492 51.0347C51.0492 51.0347 51.0491 51.0347 51.0491 51.0347C51.049 51.0347 51.0489 51.0347 51.0489 51.0347C51.0488 51.0347 51.0488 51.0347 51.0487 51.0347C51.0487 51.0347 51.0486 51.0347 51.0486 51.0347C51.0485 51.0347 51.0485 51.0347 51.0484 51.0347C51.0484 51.0347 51.0483 51.0347 51.0483 51.0347C51.0482 51.0347 51.0482 51.0347 51.0481 51.0347C51.0481 51.0347 51.048 51.0347 51.048 51.0347C51.0479 51.0347 51.0478 51.0347 51.0478 51.0347C51.0477 51.0347 51.0477 51.0347 51.0476 51.0347C51.0476 51.0347 51.0475 51.0347 51.0475 51.0347C51.0474 51.0347 51.0474 51.0347 51.0473 51.0347C51.0473 51.0347 51.0472 51.0347 51.0472 51.0347C51.0471 51.0347 51.0471 51.0347 51.047 51.0347C51.047 51.0347 51.047 51.0347 51.0469 51.0347C51.0469 51.0347 51.0468 51.0347 51.0468 51.0347C51.0467 51.0347 51.0467 51.0347 51.0466 51.0347C51.0466 51.0347 51.0465 51.0347 51.0465 51.0347C51.0464 51.0347 51.0464 51.0347 51.0463 51.0347C51.0463 51.0347 51.0462 51.0347 51.0462 51.0347C51.0461 51.0347 51.0461 51.0347 51.046 51.0347C51.046 51.0347 51.046 51.0347 51.0459 51.0347C51.0459 51.0347 51.0458 51.0347 51.0458 51.0347C51.0457 51.0347 51.0457 51.0347 51.0456 51.0347C51.0456 51.0347 51.0455 51.0347 51.0455 51.0347C51.0455 51.0347 51.0454 51.0347 51.0454 51.0347C51.0453 51.0347 51.0453 51.0347 51.0452 51.0347C51.0452 51.0347 51.0452 51.0347 51.0451 51.0347C51.0451 51.0347 51.045 51.0347 51.045 51.0347C51.0449 51.0347 51.0449 51.0347 51.0448 51.0347C51.0448 51.0347 51.0448 51.0347 51.0447 51.0347C51.0447 51.0347 51.0446 51.0347 51.0446 51.0347C51.0446 51.0347 51.0445 51.0347 51.0445 51.0347C51.0444 51.0347 51.0444 51.0347 51.0443 51.0347C51.0443 51.0347 51.0443 51.0347 51.0442 51.0347C51.0442 51.0347 51.0441 51.0347 51.0441 51.0347C51.0441 51.0347 51.044 51.0347 51.044 51.0347C51.0439 51.0347 51.0439 51.0347 51.0439 51.0347C51.0438 51.0347 51.0438 51.0347 51.0437 51.0347C51.0437 51.0347 51.0437 51.0347 51.0436 51.0347C51.0436 51.0347 51.0435 51.0347 51.0435 51.0347C51.0435 51.0347 51.0434 51.0347 51.0434 51.0347C51.0434 51.0347 51.0433 51.0347 51.0433 51.0347C51.0432 51.0347 51.0432 51.0347 51.0432 51.0347C51.0431 51.0347 51.0431 51.0347 51.0431 51.0347C51.043 51.0347 51.043 51.0347 51.0429 51.0347C51.0429 51.0347 51.0429 51.0347 51.0428 51.0347C51.0428 51.0347 51.0428 51.0347 51.0427 51.0347C51.0427 51.0347 51.0427 51.0347 51.0426 51.0347C51.0426 51.0347 51.0426 51.0347 51.0425 51.0347C51.0425 51.0347 51.0424 51.0347 51.0424 51.0347C51.0424 51.0347 51.0423 51.0347 51.0423 51.0347C51.0423 51.0347 51.0422 51.0347 51.0422 51.0347C51.0422 51.0347 51.0421 51.0347 51.0421 51.0347C51.0421 51.0347 51.042 51.0347 51.042 51.0347C51.042 51.0347 51.0419 51.0347 51.0419 51.0347C51.0419 51.0347 51.0418 51.0347 51.0418 51.0347C51.0418 51.0347 51.0417 51.0347 51.0417 51.0347C51.0417 51.0347 51.0417 51.0347 51.0416 51.0347C51.0416 51.0347 51.0416 51.0347 51.0415 51.0347C51.0415 51.0347 51.0415 51.0347 51.0414 51.0347C51.0414 51.0347 51.0414 51.0347 51.0413 51.0347C51.0413 51.0347 51.0413 51.0347 51.0413 51.0347C51.0412 51.0347 51.0412 51.0347 51.0412 51.0347C51.0411 51.0347 51.0411 51.0347 51.0411 51.0347C51.041 51.0347 51.041 51.0347 51.041 51.0347C51.041 51.0347 51.0409 51.0347 51.0409 51.0347C51.0409 51.0347 51.0408 51.0347 51.0408 51.0347C51.0408 51.0347 51.0408 51.0347 51.0407 51.0347C51.0407 51.0347 51.0407 51.0347 51.0407 51.0347C51.0406 51.0347 51.0406 51.0347 51.0406 51.0347C51.0405 51.0347 51.0405 51.0347 51.0405 51.0347C51.0405 51.0347 51.0404 51.0347 51.0404 51.0347C51.0404 51.0347 51.0404 51.0347 51.0403 51.0347C51.0403 51.0347 51.0403 51.0347 51.0403 51.0347C51.0402 51.0347 51.0402 51.0347 51.0402 51.0347C51.0402 51.0347 51.0401 51.0347 51.0401 51.0347C51.0401 51.0347 51.0401 51.0347 51.04 51.0347C51.04 51.0347 51.04 51.0347 51.04 51.0347C51.0399 51.0347 51.0399 51.0347 51.0399 51.0347C51.0399 51.0347 51.0398 51.0347 51.0398 51.0347C51.0398 51.0347 51.0398 51.0347 51.0398 51.0347C51.0397 51.0347 51.0397 51.0347 51.0397 51.0347C51.0397 51.0347 51.0396 51.0347 51.0396 51.0347C51.0396 51.0347 51.0396 51.0347 51.0396 51.0347C51.0395 51.0347 51.0395 51.0347 51.0395 51.0347C51.0395 51.0347 51.0395 51.0347 51.0394 51.0347C51.0394 51.0347 51.0394 51.0347 51.0394 51.0347C51.0394 51.0347 51.0393 51.0347 51.0393 51.0347C51.0393 51.0347 51.0393 51.0347 51.0393 51.0347C51.0392 51.0347 51.0392 51.0347 51.0392 51.0347C51.0392 51.0347 51.0392 51.0347 51.0391 51.0347C51.0391 51.0347 51.0391 51.0347 51.0391 51.0347C51.0391 51.0347 51.039 51.0347 51.039 51.0347C51.039 51.0347 51.039 51.0347 51.039 51.0347C51.039 51.0347 51.0389 51.0347 51.0389 51.0347C51.0389 51.0347 51.0389 51.0347 51.0389 51.0347C51.0389 51.0347 51.0388 51.0347 51.0388 51.0347C51.0388 51.0347 51.0388 51.0347 51.0388 51.0347C51.0388 51.0347 51.0387 51.0347 51.0387 51.0347C51.0387 51.0347 51.0387 51.0347 51.0387 51.0347C51.0387 51.0347 51.0387 51.0347 51.0386 51.0347C51.0386 51.0347 51.0386 51.0347 51.0386 51.0347C51.0386 51.0347 51.0386 51.0347 51.0386 51.0347C51.0385 51.0347 51.0385 51.0347 51.0385 51.0347C51.0385 51.0347 51.0385 51.0347 51.0385 51.0347C51.0385 51.0347 51.0384 51.0347 51.0384 51.0347C51.0384 51.0347 51.0384 51.0347 51.0384 51.0347C51.0384 51.0347 51.0384 51.0347 51.0384 51.0347C51.0383 51.0347 51.0383 51.0347 51.0383 51.0347C51.0383 51.0347 51.0383 51.0347 51.0383 51.0347C51.0383 51.0347 51.0383 51.0347 51.0383 51.0347C51.0382 51.0347 51.0382 51.0347 51.0382 51.0347C51.0382 51.0347 51.0382 51.0347 51.0382 51.0347C51.0382 51.0347 51.0382 51.0347 51.0382 51.0347C51.0382 51.0347 51.0381 51.0347 51.0381 51.0347C51.0381 51.0347 51.0381 51.0347 51.0381 51.0347C51.0381 51.0347 51.0381 51.0347 51.0381 51.0347C51.0381 51.0347 51.0381 51.0347 51.0381 51.0347C51.038 51.0347 51.038 51.0347 51.038 51.0347C51.038 51.0347 51.038 51.0347 51.038 51.0347C51.038 51.0347 51.038 51.0347 51.038 51.0347C51.038 51.0347 51.038 51.0347 51.038 51.0347C51.038 51.0347 51.038 51.0347 51.0379 51.0347C51.0379 51.0347 51.0379 51.0347 51.0379 51.0347C51.0379 51.0347 51.0379 51.0347 51.0379 51.0347C51.0379 51.0347 51.0379 51.0347 51.0379 51.0347C51.0379 51.0347 51.0379 51.0347 51.0379 51.0347C51.0379 51.0347 51.0379 51.0347 51.0379 51.0347C51.0379 51.0347 51.0379 51.0347 51.0379 51.0347C51.0379 51.0347 51.0378 51.0347 51.0378 51.0347C51.0378 51.0347 51.0378 51.0347 51.0378 51.0347C51.0378 51.0347 51.0378 51.0347 51.0378 51.0347C51.0378 51.0347 51.0378 51.0347 51.0378 51.0347C51.0378 51.0347 51.0378 51.0347 51.0378 51.0347H51.0378C51.0378 51.0347 51.0378 51.0347 51.0378 51.0347C51.0378 51.0347 51.0378 51.0347 51.0378 51.0347C51.0378 51.0347 51.0378 51.0347 51.0378 51.0347C51.0378 51.0347 51.0378 51.0347 51.0378 52.0347C51.0378 53.0347 51.0378 53.0347 51.0378 53.0347C51.0378 53.0347 51.0378 53.0347 51.0378 53.0347C51.0378 53.0347 51.0378 53.0347 51.0378 53.0347C51.0378 53.0347 51.0378 53.0347 51.0378 53.0347H51.0378C51.0378 53.0347 51.0378 53.0347 51.0378 53.0347C51.0378 53.0347 51.0378 53.0347 51.0378 53.0347C51.0378 53.0347 51.0378 53.0347 51.0378 53.0347C51.0378 53.0347 51.0378 53.0347 51.0378 53.0347C51.0378 53.0347 51.0379 53.0347 51.0379 53.0347C51.0379 53.0347 51.0379 53.0347 51.0379 53.0347C51.0379 53.0347 51.0379 53.0347 51.0379 53.0347C51.0379 53.0347 51.0379 53.0347 51.0379 53.0347C51.0379 53.0347 51.0379 53.0347 51.0379 53.0347C51.0379 53.0347 51.0379 53.0347 51.0379 53.0347C51.0379 53.0347 51.0379 53.0347 51.0379 53.0347C51.038 53.0347 51.038 53.0347 51.038 53.0347C51.038 53.0347 51.038 53.0347 51.038 53.0347C51.038 53.0347 51.038 53.0347 51.038 53.0347C51.038 53.0347 51.038 53.0347 51.038 53.0347C51.038 53.0347 51.038 53.0347 51.0381 53.0347C51.0381 53.0347 51.0381 53.0347 51.0381 53.0347C51.0381 53.0347 51.0381 53.0347 51.0381 53.0347C51.0381 53.0347 51.0381 53.0347 51.0381 53.0347C51.0381 53.0347 51.0382 53.0347 51.0382 53.0347C51.0382 53.0347 51.0382 53.0347 51.0382 53.0347C51.0382 53.0347 51.0382 53.0347 51.0382 53.0347C51.0382 53.0347 51.0382 53.0347 51.0383 53.0347C51.0383 53.0347 51.0383 53.0347 51.0383 53.0347C51.0383 53.0347 51.0383 53.0347 51.0383 53.0347C51.0383 53.0347 51.0383 53.0347 51.0384 53.0347C51.0384 53.0347 51.0384 53.0347 51.0384 53.0347C51.0384 53.0347 51.0384 53.0347 51.0384 53.0347C51.0384 53.0347 51.0385 53.0347 51.0385 53.0347C51.0385 53.0347 51.0385 53.0347 51.0385 53.0347C51.0385 53.0347 51.0385 53.0347 51.0386 53.0347C51.0386 53.0347 51.0386 53.0347 51.0386 53.0347C51.0386 53.0347 51.0386 53.0347 51.0386 53.0347C51.0387 53.0347 51.0387 53.0347 51.0387 53.0347C51.0387 53.0347 51.0387 53.0347 51.0387 53.0347C51.0387 53.0347 51.0388 53.0347 51.0388 53.0347C51.0388 53.0347 51.0388 53.0347 51.0388 53.0347C51.0388 53.0347 51.0389 53.0347 51.0389 53.0347C51.0389 53.0347 51.0389 53.0347 51.0389 53.0347C51.0389 53.0347 51.039 53.0347 51.039 53.0347C51.039 53.0347 51.039 53.0347 51.039 53.0347C51.039 53.0347 51.0391 53.0347 51.0391 53.0347C51.0391 53.0347 51.0391 53.0347 51.0391 53.0347C51.0392 53.0347 51.0392 53.0347 51.0392 53.0347C51.0392 53.0347 51.0392 53.0347 51.0393 53.0347C51.0393 53.0347 51.0393 53.0347 51.0393 53.0347C51.0393 53.0347 51.0394 53.0347 51.0394 53.0347C51.0394 53.0347 51.0394 53.0347 51.0394 53.0347C51.0395 53.0347 51.0395 53.0347 51.0395 53.0347C51.0395 53.0347 51.0395 53.0347 51.0396 53.0347C51.0396 53.0347 51.0396 53.0347 51.0396 53.0347C51.0396 53.0347 51.0397 53.0347 51.0397 53.0347C51.0397 53.0347 51.0397 53.0347 51.0398 53.0347C51.0398 53.0347 51.0398 53.0347 51.0398 53.0347C51.0398 53.0347 51.0399 53.0347 51.0399 53.0347C51.0399 53.0347 51.0399 53.0347 51.04 53.0347C51.04 53.0347 51.04 53.0347 51.04 53.0347C51.0401 53.0347 51.0401 53.0347 51.0401 53.0347C51.0401 53.0347 51.0402 53.0347 51.0402 53.0347C51.0402 53.0347 51.0402 53.0347 51.0403 53.0347C51.0403 53.0347 51.0403 53.0347 51.0403 53.0347C51.0404 53.0347 51.0404 53.0347 51.0404 53.0347C51.0404 53.0347 51.0405 53.0347 51.0405 53.0347C51.0405 53.0347 51.0405 53.0347 51.0406 53.0347C51.0406 53.0347 51.0406 53.0347 51.0407 53.0347C51.0407 53.0347 51.0407 53.0347 51.0407 53.0347C51.0408 53.0347 51.0408 53.0347 51.0408 53.0347C51.0408 53.0347 51.0409 53.0347 51.0409 53.0347C51.0409 53.0347 51.041 53.0347 51.041 53.0347C51.041 53.0347 51.041 53.0347 51.0411 53.0347C51.0411 53.0347 51.0411 53.0347 51.0412 53.0347C51.0412 53.0347 51.0412 53.0347 51.0413 53.0347C51.0413 53.0347 51.0413 53.0347 51.0413 53.0347C51.0414 53.0347 51.0414 53.0347 51.0414 53.0347C51.0415 53.0347 51.0415 53.0347 51.0415 53.0347C51.0416 53.0347 51.0416 53.0347 51.0416 53.0347C51.0417 53.0347 51.0417 53.0347 51.0417 53.0347C51.0417 53.0347 51.0418 53.0347 51.0418 53.0347C51.0418 53.0347 51.0419 53.0347 51.0419 53.0347C51.0419 53.0347 51.042 53.0347 51.042 53.0347C51.042 53.0347 51.0421 53.0347 51.0421 53.0347C51.0421 53.0347 51.0422 53.0347 51.0422 53.0347C51.0422 53.0347 51.0423 53.0347 51.0423 53.0347C51.0423 53.0347 51.0424 53.0347 51.0424 53.0347C51.0424 53.0347 51.0425 53.0347 51.0425 53.0347C51.0426 53.0347 51.0426 53.0347 51.0426 53.0347C51.0427 53.0347 51.0427 53.0347 51.0427 53.0347C51.0428 53.0347 51.0428 53.0347 51.0428 53.0347C51.0429 53.0347 51.0429 53.0347 51.0429 53.0347C51.043 53.0347 51.043 53.0347 51.0431 53.0347C51.0431 53.0347 51.0431 53.0347 51.0432 53.0347C51.0432 53.0347 51.0432 53.0347 51.0433 53.0347C51.0433 53.0347 51.0434 53.0347 51.0434 53.0347C51.0434 53.0347 51.0435 53.0347 51.0435 53.0347C51.0435 53.0347 51.0436 53.0347 51.0436 53.0347C51.0437 53.0347 51.0437 53.0347 51.0437 53.0347C51.0438 53.0347 51.0438 53.0347 51.0439 53.0347C51.0439 53.0347 51.0439 53.0347 51.044 53.0347C51.044 53.0347 51.0441 53.0347 51.0441 53.0347C51.0441 53.0347 51.0442 53.0347 51.0442 53.0347C51.0443 53.0347 51.0443 53.0347 51.0443 53.0347C51.0444 53.0347 51.0444 53.0347 51.0445 53.0347C51.0445 53.0347 51.0446 53.0347 51.0446 53.0347C51.0446 53.0347 51.0447 53.0347 51.0447 53.0347C51.0448 53.0347 51.0448 53.0347 51.0448 53.0347C51.0449 53.0347 51.0449 53.0347 51.045 53.0347C51.045 53.0347 51.0451 53.0347 51.0451 53.0347C51.0452 53.0347 51.0452 53.0347 51.0452 53.0347C51.0453 53.0347 51.0453 53.0347 51.0454 53.0347C51.0454 53.0347 51.0455 53.0347 51.0455 53.0347C51.0455 53.0347 51.0456 53.0347 51.0456 53.0347C51.0457 53.0347 51.0457 53.0347 51.0458 53.0347C51.0458 53.0347 51.0459 53.0347 51.0459 53.0347C51.046 53.0347 51.046 53.0347 51.046 53.0347C51.0461 53.0347 51.0461 53.0347 51.0462 53.0347C51.0462 53.0347 51.0463 53.0347 51.0463 53.0347C51.0464 53.0347 51.0464 53.0347 51.0465 53.0347C51.0465 53.0347 51.0466 53.0347 51.0466 53.0347C51.0467 53.0347 51.0467 53.0347 51.0468 53.0347C51.0468 53.0347 51.0469 53.0347 51.0469 53.0347C51.047 53.0347 51.047 53.0347 51.047 53.0347C51.0471 53.0347 51.0471 53.0347 51.0472 53.0347C51.0472 53.0347 51.0473 53.0347 51.0473 53.0347C51.0474 53.0347 51.0474 53.0347 51.0475 53.0347C51.0475 53.0347 51.0476 53.0347 51.0476 53.0347C51.0477 53.0347 51.0477 53.0347 51.0478 53.0347C51.0478 53.0347 51.0479 53.0347 51.048 53.0347C51.048 53.0347 51.0481 53.0347 51.0481 53.0347C51.0482 53.0347 51.0482 53.0347 51.0483 53.0347C51.0483 53.0347 51.0484 53.0347 51.0484 53.0347C51.0485 53.0347 51.0485 53.0347 51.0486 53.0347C51.0486 53.0347 51.0487 53.0347 51.0487 53.0347C51.0488 53.0347 51.0488 53.0347 51.0489 53.0347C51.0489 53.0347 51.049 53.0347 51.0491 53.0347C51.0491 53.0347 51.0492 53.0347 51.0492 53.0347C51.0493 53.0347 51.0493 53.0347 51.0494 53.0347C51.0494 53.0347 51.0495 53.0347 51.0495 53.0347C51.0496 53.0347 51.0497 53.0347 51.0497 53.0347C51.0498 53.0347 51.0498 53.0347 51.0499 53.0347C51.0499 53.0347 51.05 53.0347 51.05 53.0347C51.0501 53.0347 51.0502 53.0347 51.0502 53.0347C51.0503 53.0347 51.0503 53.0347 51.0504 53.0347C51.0504 53.0347 51.0505 53.0347 51.0506 53.0347C51.0506 53.0347 51.0507 53.0347 51.0507 53.0347C51.0508 53.0347 51.0508 53.0347 51.0509 53.0347C51.051 53.0347 51.051 53.0347 51.0511 53.0347C51.0511 53.0347 51.0512 53.0347 51.0513 53.0347C51.0513 53.0347 51.0514 53.0347 51.0514 53.0347C51.0515 53.0347 51.0516 53.0347 51.0516 53.0347C51.0517 53.0347 51.0517 53.0347 51.0518 53.0347C51.0519 53.0347 51.0519 53.0347 51.052 53.0347C51.052 53.0347 51.0521 53.0347 51.0522 53.0347C51.0522 53.0347 51.0523 53.0347 51.0523 53.0347C51.0524 53.0347 51.0525 53.0347 51.0525 53.0347C51.0526 53.0347 51.0527 53.0347 51.0527 53.0347C51.0528 53.0347 51.0528 53.0347 51.0529 53.0347C51.053 53.0347 51.053 53.0347 51.0531 53.0347C51.0532 53.0347 51.0532 53.0347 51.0533 53.0347C51.0533 53.0347 51.0534 53.0347 51.0535 53.0347C51.0535 53.0347 51.0536 53.0347 51.0537 53.0347C51.0537 53.0347 51.0538 53.0347 51.0539 53.0347C51.0539 53.0347 51.054 53.0347 51.054 53.0347C51.0541 53.0347 51.0542 53.0347 51.0542 53.0347C51.0543 53.0347 51.0544 53.0347 51.0544 53.0347C51.0545 53.0347 51.0546 53.0347 51.0546 53.0347C51.0547 53.0347 51.0548 53.0347 51.0548 53.0347C51.0549 53.0347 51.055 53.0347 51.055 53.0347C51.0551 53.0347 51.0552 53.0347 51.0552 53.0347C51.0553 53.0347 51.0554 53.0347 51.0554 53.0347C51.0555 53.0347 51.0556 53.0347 51.0556 53.0347C51.0557 53.0347 51.0558 53.0347 51.0558 53.0347C51.0559 53.0347 51.056 53.0347 51.0561 53.0347C51.0561 53.0347 51.0562 53.0347 51.0563 53.0347C51.0563 53.0347 51.0564 53.0347 51.0565 53.0347C51.0565 53.0347 51.0566 53.0347 51.0567 53.0347C51.0567 53.0347 51.0568 53.0347 51.0569 53.0347C51.057 53.0347 51.057 53.0347 51.0571 53.0347C51.0572 53.0347 51.0572 53.0347 51.0573 53.0347C51.0574 53.0347 51.0575 53.0347 51.0575 53.0347C51.0576 53.0347 51.0577 53.0347 51.0577 53.0347C51.0578 53.0347 51.0579 53.0347 51.058 53.0347C51.058 53.0347 51.0581 53.0347 51.0582 53.0347C51.0582 53.0347 51.0583 53.0347 51.0584 53.0347C51.0585 53.0347 51.0585 53.0347 51.0586 53.0347C51.0587 53.0347 51.0588 53.0347 51.0588 53.0347C51.0589 53.0347 51.059 53.0347 51.0591 53.0347C51.0591 53.0347 51.0592 53.0347 51.0593 53.0347C51.0594 53.0347 51.0594 53.0347 51.0595 53.0347C51.0596 53.0347 51.0597 53.0347 51.0597 53.0347C51.0598 53.0347 51.0599 53.0347 51.06 53.0347C51.06 53.0347 51.0601 53.0347 51.0602 53.0347C51.0603 53.0347 51.0603 53.0347 51.0604 53.0347C51.0605 53.0347 51.0606 53.0347 51.0606 53.0347C51.0607 53.0347 51.0608 53.0347 51.0609 53.0347C51.0609 53.0347 51.061 53.0347 51.0611 53.0347C51.0612 53.0347 51.0613 53.0347 51.0613 53.0347C51.0614 53.0347 51.0615 53.0347 51.0616 53.0347C51.0616 53.0347 51.0617 53.0347 51.0618 53.0347C51.0619 53.0347 51.062 53.0347 51.062 53.0347C51.0621 53.0347 51.0622 53.0347 51.0623 53.0347C51.0624 53.0347 51.0624 53.0347 51.0625 53.0347C51.0626 53.0347 51.0627 53.0347 51.0628 53.0347C51.0628 53.0347 51.0629 53.0347 51.063 53.0347C51.0631 53.0347 51.0632 53.0347 51.0632 53.0347C51.0633 53.0347 51.0634 53.0347 51.0635 53.0347C51.0636 53.0347 51.0637 53.0347 51.0637 53.0347C51.0638 53.0347 51.0639 53.0347 51.064 53.0347C51.0641 53.0347 51.0641 53.0347 51.0642 53.0347C51.0643 53.0347 51.0644 53.0347 51.0645 53.0347C51.0646 53.0347 51.0646 53.0347 51.0647 53.0347C51.0648 53.0347 51.0649 53.0347 51.065 53.0347C51.0651 53.0347 51.0652 53.0347 51.0652 53.0347C51.0653 53.0347 51.0654 53.0347 51.0655 53.0347C51.0656 53.0347 51.0657 53.0347 51.0657 53.0347C51.0658 53.0347 51.0659 53.0347 51.066 53.0347C51.0661 53.0347 51.0662 53.0347 51.0663 53.0347C51.0663 53.0347 51.0664 53.0347 51.0665 53.0347C51.0666 53.0347 51.0667 53.0347 51.0668 53.0347C51.0669 53.0347 51.0669 53.0347 51.067 53.0347C51.0671 53.0347 51.0672 53.0347 51.0673 53.0347C51.0674 53.0347 51.0675 53.0347 51.0676 53.0347C51.0676 53.0347 51.0677 53.0347 51.0678 53.0347C51.0679 53.0347 51.068 53.0347 51.0681 53.0347C51.0682 53.0347 51.0683 53.0347 51.0684 53.0347C51.0684 53.0347 51.0685 53.0347 51.0686 53.0347C51.0687 53.0347 51.0688 53.0347 51.0689 53.0347C51.069 53.0347 51.0691 53.0347 51.0692 53.0347C51.0692 53.0347 51.0693 53.0347 51.0694 53.0347C51.0695 53.0347 51.0696 53.0347 51.0697 53.0347C51.0698 53.0347 51.0699 53.0347 51.07 53.0347C51.0701 53.0347 51.0702 53.0347 51.0703 53.0347C51.0703 53.0347 51.0704 53.0347 51.0705 53.0347C51.0706 53.0347 51.0707 53.0347 51.0708 53.0347C51.0709 53.0347 51.071 53.0347 51.0711 53.0347C51.0712 53.0347 51.0713 53.0347 51.0714 53.0347C51.0715 53.0347 51.0715 53.0347 51.0716 53.0347C51.0717 53.0347 51.0718 53.0347 51.0719 53.0347C51.072 53.0347 51.0721 53.0347 51.0722 53.0347C51.0723 53.0347 51.0724 53.0347 51.0725 53.0347C51.0726 53.0347 51.0727 53.0347 51.0728 53.0347C51.0729 53.0347 51.073 53.0347 51.0731 53.0347C51.0732 53.0347 51.0732 53.0347 51.0733 53.0347C51.0734 53.0347 51.0735 53.0347 51.0736 53.0347C51.0737 53.0347 51.0738 53.0347 51.0739 53.0347C51.074 53.0347 51.0741 53.0347 51.0742 53.0347C51.0743 53.0347 51.0744 53.0347 51.0745 53.0347C51.0746 53.0347 51.0747 53.0347 51.0748 53.0347C51.0749 53.0347 51.075 53.0347 51.0751 53.0347C51.0752 53.0347 51.0753 53.0347 51.0754 53.0347C51.0755 53.0347 51.0756 53.0347 51.0757 53.0347C51.0758 53.0347 51.0759 53.0347 51.076 53.0347V51.0347Z" fill="black" mask="url(#path-7-inside-1_2816_44)"/>
<path d="M21.4745 36.5396C21.4745 38.037 20.26 39.2515 18.7626 39.2515C17.2653 39.2515 16.0508 38.037 16.0508 36.5396C16.0508 35.0431 17.2644 33.832 18.7626 33.832C20.2609 33.832 21.4745 35.0431 21.4745 36.5396Z" fill="black" stroke="black"/>
<path d="M34.3143 36.5396C34.3143 38.037 33.0999 39.2515 31.6025 39.2515C30.1051 39.2515 28.8906 38.037 28.8906 36.5396C28.8906 35.0431 30.1042 33.832 31.6025 33.832C33.1007 33.832 34.3143 35.0431 34.3143 36.5396Z" fill="black" stroke="black"/>
<path d="M47.1617 36.5396C47.1617 38.037 45.9472 39.2515 44.4498 39.2515C42.9533 39.2515 41.7422 38.0379 41.7422 36.5396C41.7422 35.0423 42.9524 33.832 44.4498 33.832C45.948 33.832 47.1617 35.0431 47.1617 36.5396Z" fill="black" stroke="black"/>
<path d="M257.52 167.251C261.215 174.337 265.471 175.839 269.484 177.646C269.484 177.646 275.026 178.444 279.459 175.89L314.582 176.06L333.985 180.23L361.937 183.357C376.515 185.059 389.252 173.213 388.361 158.324C388.187 155.303 387.356 152.355 386.113 149.601L368.068 109.565C365.178 103.167 359.824 98.3979 353.417 96.1831C353.375 96.1746 353.358 96.1407 353.358 96.0982C353.667 91.0619 349.963 84.6382 345.152 83.1193L302.307 83.4969L297.967 82.8223C293.189 84.1757 290.987 88.0028 291.946 92.2796C292.281 93.7986 292.744 94.6132 292.926 94.889C292.943 94.9145 292.952 94.9399 292.935 94.9739C292.926 94.9993 292.901 95.0163 292.867 95.0163C284.322 96.1152 276.846 101.572 273.244 109.565L257.201 145.159C254.019 152.206 253.951 160.391 257.52 167.251Z" fill="#E98E07"/>
<path d="M339.231 92.7708C346.736 94.5189 347.487 87.7855 344.377 85.1591C338.543 81.209 333.397 88.825 339.231 92.7708Z" fill="black"/>
<path d="M339.23 92.7719C346.736 94.52 347.487 87.7865 344.377 85.1602" stroke="black" stroke-linecap="round" stroke-linejoin="round"/>
<path d="M304.814 93.2938C309.151 92.3222 301.768 82.186 299.511 86.0045C295.998 90.5232 301.013 93.0774 304.814 93.2938Z" fill="black"/>
<path d="M299.511 86.0039C295.998 90.5226 301.013 93.0768 304.814 93.2932" stroke="black" stroke-linecap="round" stroke-linejoin="round"/>
<path d="M297.133 75.4343C297.133 79.2189 297.981 82.7957 299.509 86.0033C300.816 88.7569 302.623 91.2263 304.812 93.2926C305.546 93.9884 306.319 94.6375 307.133 95.2231C307.142 95.2315 307.142 95.2315 307.142 95.2315C307.159 95.2485 307.171 95.2655 307.18 95.274C307.188 95.274 307.188 95.274 307.197 95.2825C307.846 95.8213 308.457 96.2329 309.297 96.6784C314.597 101.312 318.525 106.115 321.682 113.183C321.691 113.217 321.725 113.234 321.758 113.234C321.792 113.234 321.818 113.217 321.835 113.183C324.898 106.31 329.056 101.218 334.143 96.7208C335.679 95.9316 338.013 93.9969 339.231 92.7707C341.399 90.5983 343.151 88.0102 344.377 85.159C344.666 84.5098 344.916 83.8564 345.132 83.1818C345.141 83.1436 345.175 83.1266 345.209 83.1266C345.217 83.1266 345.217 83.1266 345.217 83.1266C356.915 83.1266 356.856 65.6841 344.437 65.6841C344.403 65.6926 344.369 65.6672 344.352 65.6417C344.352 65.6332 344.352 65.6332 344.352 65.6332C340.567 56.9099 331.878 50.8086 321.758 50.8086C308.156 50.8086 297.133 61.8316 297.133 75.4343Z" fill="#FD9DA6"/>
<path d="M336.18 126.014L349.859 151.908" stroke="black" stroke-linecap="round" stroke-linejoin="round"/>
<path d="M353.347 96.166C350.776 95.2835 348.047 94.8125 345.234 94.8125" stroke="black" stroke-linecap="round" stroke-linejoin="round"/>
<path d="M359.98 145.328C356.017 145.578 352.257 148.014 350.391 151.523" stroke="black" stroke-linecap="round" stroke-linejoin="round"/>
<path d="M293.012 94.9992C294.017 94.8719 295.036 94.8125 296.067 94.8125" stroke="black" stroke-linecap="round" stroke-linejoin="round"/>
<path d="M269.484 177.646C269.484 177.646 275.026 178.444 279.459 175.889C281.929 174.481 284.059 172.037 284.716 167.853L286.142 141.145" stroke="black" stroke-linecap="round" stroke-linejoin="round"/>
<path d="M288.014 140.106C288.023 140.106 288.04 140.106 288.048 140.098C288.091 140.072 288.099 140.072 288.142 140.038C288.15 140.038 288.15 140.038 288.15 140.038C290.233 138.604 291.88 136.822 292.953 134.756C292.953 134.756 292.953 134.756 292.962 134.756C295.329 130.912 296.385 126.177 295.397 121.845C295.397 121.819 295.397 121.786 295.414 121.769C295.431 121.752 295.456 121.735 295.482 121.735L302.164 121.879H302.173C306.976 121.811 306.976 115.035 302.432 114.738C302.423 114.738 302.415 114.73 302.415 114.721C302.398 111.458 299.882 110.712 296.725 110.533C296.076 110.474 293.895 110.474 292.121 110.474C292.096 110.474 292.062 110.457 292.045 110.432C292.037 110.406 292.037 110.372 292.054 110.347L295.465 105.293C295.473 105.293 295.473 105.293 295.473 105.293C296.487 103.893 296.229 101.942 294.824 100.928C293.39 99.8541 291.29 100.121 290.259 101.615L288.948 103.431L281.298 114.657L267.555 135.982C267.53 136.008 267.538 136.042 267.555 136.076C272.036 142.584 280.835 144.506 287.637 140.348C287.798 140.251 287.883 140.132 288.014 140.106Z" fill="#FD9DA6"/>
<path d="M291.961 110.474C289.131 110.406 286.946 110.954 285.266 113.631" stroke="black" stroke-linecap="round" stroke-linejoin="round"/>
<path d="M286.988 117.727C288.49 114.307 292.546 114.176 292.546 114.176L302.403 114.736" stroke="black" stroke-linecap="round" stroke-linejoin="round"/>
<path d="M283.91 171.472C283.91 173.907 285.883 175.889 288.327 175.889H318.604C321.048 175.889 323.691 173.907 323.691 171.472L323.055 145.361L323.021 126.29C323.021 123.85 321.048 121.877 318.604 121.877H288.327C285.883 121.877 283.91 123.85 283.91 126.29V171.472Z" fill="white"/>
<path d="M334.079 180.148C334.079 180.174 334.07 180.186 334.045 180.203C334.019 180.22 334.011 180.229 333.985 180.229C327.379 179.66 317.973 177.679 312.105 175.065C308.973 173.665 305.868 171.866 304.315 169.155C301.578 164.386 305.664 163.639 305.664 163.639C305.723 163.622 305.74 163.546 305.698 163.503C302.257 159.918 303.39 155.637 305.774 154.848C305.825 154.831 305.834 154.788 305.825 154.737C304.035 150.55 306.428 147.822 311.553 150.07C315.219 151.691 318.974 153.545 322.928 153.825C322.954 153.825 322.979 153.817 322.996 153.8C323.013 153.783 323.022 153.766 323.022 153.74V145.429C323.022 145.403 323.03 145.378 323.056 145.361C323.081 145.344 323.098 145.344 323.124 145.344C326.632 146.048 332.886 148.45 334.482 150.698C334.49 150.715 334.499 150.732 334.499 150.749L334.079 180.148Z" fill="#FD9DA6"/>
<path d="M305.773 154.627C307.199 157.601 310.364 159.273 313.406 160.542C315.85 161.556 318.349 162.447 320.946 162.968" stroke="black" stroke-linecap="round" stroke-linejoin="round"/>
<path d="M320.083 170.272C316.315 169.491 312.671 168.108 309.336 166.194C308.059 165.46 306.816 164.629 305.793 163.598" stroke="black" stroke-linecap="round" stroke-linejoin="round"/>
<path d="M300.652 64.2764C303.508 64.2764 306.368 63.4448 308.769 62.2271C311.162 61.0178 313.097 59.431 314.085 57.9205C314.102 57.8951 314.128 57.8781 314.162 57.8866C314.196 57.8866 314.221 57.912 314.23 57.9375C317.217 66.1899 322.291 70.2376 326.042 72.1851C328.974 73.7041 331.566 74.209 332.843 74.3787H339C339.042 74.3787 339.084 74.3362 339.084 74.2938V72.813C339.084 69.5588 341.197 66.6354 344.231 65.7274C344.371 65.685 344.422 65.5959 344.397 65.528C340.451 56.5331 331.566 50.7246 321.761 50.7246C312.634 50.7246 304.289 55.727 299.974 63.78C299.974 63.7884 299.974 63.7884 299.974 63.7884C299.736 64.3188 300.054 64.2679 300.652 64.2764Z" fill="#BE6640"/>
<path d="M321.302 64.8789C323.821 64.8789 326.237 65.8795 328.018 67.6607C329.799 69.4419 330.8 71.8576 330.8 74.3766C330.8 76.8955 329.799 79.3113 328.018 81.0925C326.237 82.8736 323.821 83.8743 321.302 83.8743C318.783 83.8743 316.368 82.8736 314.586 81.0925C312.805 79.3113 311.805 76.8955 311.805 74.3766C311.805 71.8576 312.805 69.4419 314.586 67.6607C316.368 65.8795 318.783 64.8789 321.302 64.8789Z" stroke="black" stroke-linecap="round" stroke-linejoin="round"/>
<path d="M302.306 64.8789C304.825 64.8789 307.241 65.8795 309.022 67.6607C310.803 69.4419 311.804 71.8576 311.804 74.3766C311.804 76.8955 310.803 79.3113 309.022 81.0925C307.241 82.8736 304.825 83.8743 302.306 83.8743C299.787 83.8743 297.372 82.8736 295.59 81.0925C293.809 79.3113 292.809 76.8955 292.809 74.3766C292.809 71.8576 293.809 69.4419 295.59 67.6607C297.372 65.8795 299.787 64.8789 302.306 64.8789Z" stroke="black" stroke-linecap="round" stroke-linejoin="round"/>
<path d="M317.176 73.3613C317.666 73.3613 318.136 73.556 318.482 73.9025C318.829 74.2491 319.024 74.719 319.024 75.2091C319.024 75.6992 318.829 76.1692 318.482 76.5157C318.136 76.8622 317.666 77.0569 317.176 77.0569C316.686 77.0569 316.216 76.8622 315.869 76.5157C315.523 76.1692 315.328 75.6992 315.328 75.2091C315.328 74.719 315.523 74.2491 315.869 73.9025C316.216 73.556 316.686 73.3613 317.176 73.3613Z" fill="black"/>
<path d="M306.434 73.3613C306.924 73.3613 307.394 73.556 307.74 73.9025C308.087 74.2491 308.281 74.719 308.281 75.2091C308.281 75.6992 308.087 76.1692 307.74 76.5157C307.394 76.8622 306.924 77.0569 306.434 77.0569C305.944 77.0569 305.474 76.8622 305.127 76.5157C304.781 76.1692 304.586 75.6992 304.586 75.2091C304.586 74.719 304.781 74.2491 305.127 73.9025C305.474 73.556 305.944 73.3613 306.434 73.3613Z" fill="black"/>
<path d="M312.954 86.6017L309.505 86.5593C308.313 86.5423 307.362 85.575 307.379 84.3827C307.396 83.1905 308.363 82.2528 309.556 82.2698L313.014 82.3122" stroke="black" stroke-linecap="round" stroke-linejoin="round"/>
<path d="M343.119 103.783C339.419 106.486 336.513 110.283 334.875 114.564" stroke="black" stroke-linecap="round" stroke-linejoin="round"/>
<path d="M323.02 153.825L326.906 152.068" stroke="black" stroke-linecap="round" stroke-linejoin="round"/>
<path d="M316.744 131.424H317.601C318.509 131.424 319.256 130.681 319.256 129.769V128.92C319.256 128.004 318.509 127.266 317.601 127.266H316.744C315.832 127.266 315.094 128.004 315.094 128.92V129.769C315.094 130.681 315.832 131.424 316.744 131.424Z" fill="#A3A3A3"/>
<path d="M339.087 74.3789H332.846H330.797" stroke="black" stroke-linecap="round" stroke-linejoin="round"/>
<path d="M316.861 105.084C316.87 105.084 316.887 105.084 316.895 105.076C319.526 103.799 321.876 102.102 323.892 100.027C323.917 100.001 323.926 99.959 323.909 99.9335C323.892 99.9038 323.866 99.8869 323.832 99.8869H323.824C323.192 99.942 322.513 99.976 321.757 99.976C317.264 99.976 312.881 98.7498 309.08 96.4332C308.859 96.3016 308.566 96.552 308.774 96.7387C312.262 99.7766 314.74 102.344 316.793 105.05C316.81 105.067 316.836 105.084 316.861 105.084Z" fill="black"/>
<path d="M317.176 88.4805C316.213 89.1763 315.02 89.5709 313.828 89.5879" stroke="black" stroke-linecap="round" stroke-linejoin="round"/>
<path d="M334.147 96.7221C330.511 98.8436 326.281 100.061 321.762 100.061C317.218 100.061 312.954 98.8266 309.301 96.6797" stroke="black" stroke-linecap="round" stroke-linejoin="round"/>
<path d="M267.52 136.023L260.23 147.063" stroke="black" stroke-linecap="round" stroke-linejoin="round"/>
<path d="M361.926 153.801L334.496 150.725" stroke="black" stroke-linecap="round" stroke-linejoin="round"/>
<path d="M224.673 135.861C224.58 135.585 224.487 135.305 224.385 135.029L191.587 61.3513C189.237 55.1991 184.476 50.3665 178.481 48.6863V48.6609C174.892 47.6426 172.944 47.5365 169.16 47.4219C168.71 47.405 165.201 47.3965 165.201 47.3965L143.647 65.8573C141.173 65.8573 122.887 47.5323 120.434 47.8038C108.868 49.0851 97.8282 53.3365 88.3878 60.1379L39.7347 95.2731C34.8511 98.7947 30.8883 103.449 28.1898 108.838C25.4956 114.222 24.1379 120.179 24.2397 126.2C24.3415 132.22 25.8987 138.13 28.7753 143.421C31.6563 148.708 35.7676 153.227 40.77 156.583L68.9257 176.647L79.7366 168.815L83.2497 147.028L84.9468 143.493L61.8613 127.994L108.622 94.327L94.5527 165.803L95.9783 173.228L174.353 172.697L178.443 165.803V152.807L193.501 161.174C210.54 170.516 230.66 154.347 224.673 135.861Z" fill="#010101"/>
<path d="M51.5273 135.177L61.863 127.998" stroke="black" stroke-linecap="round" stroke-linejoin="round"/>
<path d="M92.8389 165.803H126.006L136.04 166.32L146.07 165.803H178.439L178.426 175.969H146.07L136.04 175.46L126.006 175.969H90.832L92.8389 165.803Z" fill="black"/>
<path d="M101.563 166.313C101.572 161.362 99.6752 156.601 96.2681 153.008C92.8611 149.418 88.1982 147.275 83.251 147.029L68.927 176.649L61.6929 192.666L60.5728 195.339C60.3564 195.852 60.2461 196.399 60.2461 196.96C60.2461 197.515 60.3607 198.071 60.5813 198.585C60.7892 199.094 61.1074 199.56 61.5105 199.951C61.9093 200.337 62.3803 200.647 62.8979 200.846C63.3901 201.05 63.9162 201.143 64.4508 201.143C64.9811 201.139 65.503 201.028 65.991 200.821C66.4831 200.608 66.9201 200.307 67.2935 199.93C67.6626 199.552 67.9554 199.102 68.1506 198.61L71.337 190.769C72.5462 192.751 74.2646 195.767 74.7822 196.455C75.7326 197.834 76.7636 199.302 78.3123 200.154C79.0972 200.57 79.9755 200.778 80.8622 200.761C81.749 200.744 82.6188 200.511 83.3952 200.07C83.3952 200.07 86.4289 202.929 89.331 201.368C89.8826 201.054 90.3663 200.634 90.7482 200.133C91.13 199.633 91.4016 199.06 91.5585 198.445C91.7113 197.834 91.7368 197.193 91.6349 196.573C91.5331 195.945 91.3082 195.351 90.9688 194.817L86.3016 187.519C86.2931 187.511 86.2889 187.494 86.2889 187.481C86.2889 187.464 86.2889 187.447 86.2931 187.434C86.2974 187.426 86.3059 187.409 86.3186 187.4C86.3271 187.388 86.3356 187.379 86.3525 187.375C91.8131 185.542 96.3233 181.172 98.9751 175.961C100.553 173.259 101.44 170.217 101.559 167.09L101.563 166.313Z" fill="#BE6640"/>
<path d="M71.3367 190.768L70.6282 189.555C70.0172 188.634 69.6311 187.569 69.525 186.466C69.4147 184.828 69.7372 183.195 70.4754 181.727" stroke="black" stroke-linecap="round" stroke-linejoin="round"/>
<path d="M76.1631 180.865C73.4053 184.828 75.9892 189.393 75.9892 189.393L83.3972 200.069" stroke="black" stroke-linecap="round" stroke-linejoin="round"/>
<path d="M142.564 75.5438C140.15 75.548 137.778 74.8904 135.712 73.643C133.65 72.3955 131.966 70.605 130.846 68.4666C125.64 58.5765 122.44 52.3097 121.35 49.8531L120.434 47.8038C122.572 47.5662 124.719 47.4304 126.879 47.4007C127.197 47.3965 142.323 53.0692 142.637 53.0692L158.39 47.3965H165.209L154.317 68.3945C153.206 70.5541 151.521 72.3616 149.446 73.6217C147.372 74.8819 144.987 75.548 142.564 75.5438Z" fill="black"/>
<path d="M126.879 47.4007C128.143 50.2519 132.416 58.4704 136.196 65.6494C136.807 66.8119 137.732 67.7878 138.857 68.4624C139.985 69.1412 141.275 69.5019 142.586 69.4934C143.901 69.4892 145.191 69.1285 146.311 68.4412C147.436 67.7581 148.348 66.778 148.95 65.6069L158.391 47.3965L126.879 47.4007Z" fill="#BE6640"/>
<path d="M158.393 47.3974C158.393 47.3974 156.606 50.9868 155.991 52.1706C155.338 53.4265 153.339 57.1517 153.339 57.1517C145.533 56.6256 136.72 53.5241 132.431 48.8654L131.238 47.4016C131.238 47.4016 142.601 47.1895 146.381 47.1895C149.394 47.1895 158.393 47.3974 158.393 47.3974Z" fill="black"/>
<path d="M123.187 0C125.122 0 127.014 0.572784 128.626 1.64623C130.235 2.72817 131.49 4.2556 132.229 6.04186C132.971 7.83235 133.166 9.80529 132.789 11.7061C132.411 13.5984 131.478 15.3507 130.107 16.7169C128.741 18.0874 126.997 19.0166 125.096 19.3984C123.2 19.7761 121.227 19.5809 119.436 18.8426C117.646 18.1001 116.123 16.8442 115.041 15.2319C113.967 13.6239 113.395 11.7316 113.395 9.79256C113.395 8.50697 113.645 7.23411 114.141 6.05034C114.629 4.8581 115.351 3.7804 116.263 2.86818C117.171 1.96021 118.248 1.23892 119.436 0.746745C120.629 0.250328 121.897 0 123.187 0Z" fill="#723A15"/>
<path d="M144.878 13.4772C143.796 13.4772 131.016 13.7318 127.278 18.6281C125.373 18.2929 123.404 18.6875 121.771 19.727C120.137 20.7707 118.954 22.3788 118.444 24.2456C117.94 26.1168 118.152 28.1067 119.034 29.8335C119.921 31.5519 121.419 32.8842 123.235 33.5588C123.634 36.8343 124.826 39.9698 126.701 42.681C130.397 48.0227 143.448 48.5277 144.797 48.5701C146.74 48.6252 159.087 46.5208 162.273 39.3461C163.932 35.5953 164.433 31.4373 163.699 27.4023C162.969 23.3674 161.043 19.6464 158.171 16.7188C154.458 12.9256 146.112 13.4772 144.878 13.4772Z" fill="#BE6640"/>
<path d="M148.648 35.0812C145.771 35.0812 142.916 35.5734 140.204 36.5365C140.187 36.5408 140.175 36.545 140.158 36.5408C140.145 36.5408 140.132 36.5365 140.119 36.5238C140.107 36.5196 140.094 36.5111 140.09 36.4941C140.077 36.4856 140.073 36.4687 140.073 36.4559L138.287 22.3696C141.231 21.2155 144.638 19.6032 146 16.718H158.169C156.208 14.7112 153.849 13.1286 151.249 12.0721C148.648 11.0156 145.856 10.5065 143.047 10.5744C140.238 10.6422 137.476 11.2914 134.93 12.4709C132.38 13.6547 130.106 15.3561 128.244 17.4521L127.815 17.9188C127.611 18.1437 127.437 18.3728 127.28 18.6273C129.079 18.9498 130.709 19.8875 131.888 21.2876C133.059 22.6835 133.713 24.4528 133.725 26.2773C133.725 26.4597 133.751 36.0783 133.751 36.0783C130.908 37.6864 128.494 39.9478 126.699 42.6802C128.766 45.6757 131.596 48.0644 134.896 49.6004C138.193 51.1448 141.842 51.7727 145.461 51.4375C149.085 51.0939 152.555 49.7913 155.508 47.6699C158.461 45.5442 160.795 42.6717 162.267 39.3453C158.292 36.5238 153.523 35.0346 148.648 35.0812Z" fill="#723A15"/>
<path d="M123.234 33.558C123.4 35.5394 123.93 37.4784 124.796 39.2689L128.703 33.541C126.943 34.2156 124.999 34.2241 123.234 33.558Z" fill="black"/>
<path d="M152.54 24.2011C152.842 24.2605 153.122 24.4048 153.338 24.6254C153.559 24.8418 153.711 25.1134 153.771 25.4146C153.83 25.7158 153.805 26.0298 153.69 26.3183C153.576 26.6026 153.376 26.8444 153.122 27.0226C152.863 27.1924 152.566 27.2857 152.26 27.2899C151.946 27.2899 151.649 27.2051 151.386 27.0311C151.128 26.8614 150.928 26.6196 150.814 26.3353C150.691 26.0553 150.657 25.7413 150.716 25.4401C150.792 25.0327 151.03 24.6721 151.369 24.443C151.713 24.2096 152.133 24.1248 152.54 24.2011Z" fill="black"/>
<path d="M157.56 25.164C157.865 25.2234 158.141 25.3677 158.358 25.5841C158.578 25.7962 158.731 26.0762 158.79 26.3775C158.85 26.6787 158.829 26.9927 158.71 27.2812C158.595 27.5655 158.4 27.8073 158.141 27.9813C157.882 28.1553 157.585 28.2486 157.28 28.2528C156.966 28.2528 156.669 28.1637 156.406 27.994C156.151 27.8243 155.948 27.5825 155.833 27.2982C155.71 27.0182 155.676 26.6999 155.736 26.3987C155.812 25.9956 156.049 25.635 156.393 25.4059C156.737 25.1725 157.153 25.0877 157.56 25.164Z" fill="black"/>
<path d="M153.047 29.7793L156.152 30.6661C156.606 30.7976 156.988 31.0988 157.222 31.5146C157.446 31.9262 157.502 32.4099 157.37 32.8681C157.247 33.3221 156.937 33.704 156.526 33.9331C156.11 34.1622 155.626 34.2216 155.172 34.0901L152.066 33.2033" stroke="black" stroke-linecap="round" stroke-linejoin="round"/>
<path d="M149.156 36.8477C150.009 37.7429 151.083 38.3921 152.271 38.7357C153.369 39.0327 154.536 38.9946 155.61 38.6254" stroke="black" stroke-linecap="round" stroke-linejoin="round"/>
<path d="M57.2734 168.349L73.1673 135.59" stroke="black" stroke-linecap="round" stroke-linejoin="round"/>
<path d="M125.806 113.536C132.734 113.536 139.222 107.871 140.291 100.913L142.637 85.6387H117.778L115.3 100.913C114.172 107.871 118.868 113.536 125.806 113.536Z" fill="white"/>
<path d="M141.824 90.9453H116.918" stroke="black" stroke-linecap="round" stroke-linejoin="round"/>
<path d="M157.763 92.4648C147.945 112.814 131.619 128.118 114.32 139.977" stroke="black" stroke-linecap="round" stroke-linejoin="round"/>
<path d="M137.752 140.354C133.085 145.436 127.603 149.709 121.531 152.993" stroke="black" stroke-linecap="round" stroke-linejoin="round"/>
<path d="M111.544 79.0566L108.621 94.3268" stroke="black" stroke-linecap="round" stroke-linejoin="round"/>
<path d="M178.441 79.0566V121.575" stroke="black" stroke-linecap="round" stroke-linejoin="round"/>
<path d="M72.7846 102.232L59.0547 96.9414" stroke="black" stroke-linecap="round" stroke-linejoin="round"/>
<path d="M66.6124 109.366C61.8519 108.564 57.2101 107.177 52.7891 105.246" stroke="black" stroke-linecap="round" stroke-linejoin="round"/>
<path d="M146.076 165.803H126.012V175.969H146.076V165.803Z" fill="black"/>
<path d="M191.59 122.237L209.087 116.883" stroke="black" stroke-linecap="round" stroke-linejoin="round"/>
<path d="M190.773 144.645C188.872 148.159 185.805 150.895 182.105 152.384C178.405 153.878 174.298 154.035 170.492 152.83L150.733 146.559C149.74 146.164 148.891 145.477 148.302 144.582C147.712 143.691 147.411 142.639 147.44 141.569C147.529 140.127 148.09 138.752 149.044 137.657L147.924 137.212C146.21 136.533 144.789 134.463 144.903 132.621C144.95 131.9 145.166 131.204 145.531 130.585C145.896 129.965 146.405 129.443 147.016 129.057C147.627 128.675 148.314 128.438 149.031 128.374C149.749 128.302 150.474 128.408 151.14 128.675L146.783 126.83C146.218 126.613 145.705 126.287 145.272 125.866C144.84 125.451 144.492 124.95 144.25 124.403C144.008 123.847 143.881 123.253 143.872 122.65C143.859 122.048 143.965 121.445 144.195 120.885C144.415 120.33 144.746 119.82 145.166 119.383C145.591 118.955 146.087 118.615 146.643 118.378C147.199 118.14 147.797 118.017 148.395 118.013C149.002 118.009 149.596 118.123 150.156 118.352L178.176 128.145C178.197 128.158 178.218 128.158 178.239 128.149C178.265 128.141 178.278 128.132 178.295 128.115C178.303 128.094 178.312 128.077 178.312 128.056C178.312 128.035 178.307 128.013 178.295 127.996L172.1 118.62C171.833 118.085 171.68 117.5 171.663 116.901C171.646 116.299 171.761 115.705 172.002 115.162C172.24 114.61 172.596 114.122 173.05 113.728C173.5 113.333 174.035 113.044 174.608 112.879C176.423 112.357 177.955 113.218 179.27 114.801L188.439 124.984C190.811 127.623 192.305 130.924 192.725 134.446C193.145 137.967 192.462 141.527 190.773 144.645Z" fill="#BE6640"/>
<path d="M161.538 141.776L149.047 137.656" stroke="black" stroke-linecap="round" stroke-linejoin="round"/>
<path d="M163.611 133.178L151.137 128.672" stroke="black" stroke-linecap="round" stroke-linejoin="round"/>
<path d="M189.34 117.022L194.843 111.057" stroke="black" stroke-linecap="round" stroke-linejoin="round"/>
<path d="M128.708 33.541C126.943 34.2156 124.999 34.2241 123.234 33.558" stroke="black" stroke-linecap="round" stroke-linejoin="round"/>
<path d="M242.051 292.083L243.943 303.687L258.5 340.278L258.505 340.257C261.661 347.461 271.123 354.351 279.515 354.865C287.806 355.37 296.703 349.918 300.955 343.108C300.967 343.087 300.984 343.074 301.006 343.065C301.023 343.057 301.04 343.057 301.065 343.065C301.086 343.07 301.103 343.082 301.116 343.099C301.129 343.12 301.129 343.137 301.129 343.163L299.436 360.996H387.586L386.805 356.6V355.926C389.033 356.507 391.328 356.808 393.632 356.808C412.839 356.808 425.751 337.287 418.389 319.568L396.517 267.389C394.294 262.073 390.989 257.283 386.805 253.307H386.686C379.049 246.018 368.879 241.966 358.314 242.004H355.2L350.087 244.312L322.25 242.509L320.782 242.106C320.769 242.106 320.752 242.106 320.731 242.106C319.513 242.187 318.3 242.322 317.095 242.518C305.372 244.469 296.101 253.15 292.681 264.309L292.664 264.296L277.823 302.775C277.806 302.839 277.767 302.885 277.712 302.923C277.666 302.953 277.602 302.97 277.542 302.97C277.479 302.97 277.424 302.953 277.369 302.923C277.322 302.885 277.284 302.839 277.258 302.775L268.705 281.009L262.425 272.587L242.051 292.083Z" fill="#D2CFC1"/>
<path d="M313.205 301.506C312.191 299.24 312.246 296.321 313.977 294.539L312.785 293.687C312.029 293.131 311.486 292.329 311.257 291.417C311.024 290.504 311.121 289.541 311.529 288.688C311.783 288.15 312.157 287.674 312.619 287.293C313.077 286.915 313.62 286.643 314.197 286.495C314.779 286.351 315.386 286.338 315.967 286.448C316.557 286.563 317.108 286.809 317.592 287.165L341.445 304.735C341.462 304.748 341.488 304.756 341.513 304.756C341.539 304.756 341.564 304.744 341.581 304.731C341.598 304.71 341.607 304.688 341.611 304.663C341.619 304.637 341.611 304.612 341.598 304.595L334.067 292.231C333.723 291.658 333.507 291.018 333.46 290.347C333.405 289.681 333.507 289.015 333.761 288.396C334.016 287.776 334.411 287.225 334.911 286.783C335.42 286.351 336.019 286.032 336.664 285.871C337.55 285.646 338.484 285.706 339.332 286.058C340.177 286.397 340.889 287.004 341.365 287.789L355.65 302.384L352.129 318.732L344.381 330.612C334.75 329.407 321.283 318.762 315.135 311.252C314.138 310.136 313.357 308.851 312.844 307.45C312.585 306.746 312.488 305.999 312.555 305.248C312.623 304.502 312.857 303.785 313.23 303.135L313.205 301.506Z" fill="#BE6640"/>
<path d="M313.977 294.541L330.698 306.888" stroke="black" stroke-linecap="round" stroke-linejoin="round"/>
<path d="M313.297 303.162L328.003 313.96" stroke="black" stroke-linecap="round" stroke-linejoin="round"/>
<path d="M355.239 242.034L337.428 264.589C337.428 264.589 337.428 264.589 337.423 264.597H337.415H337.411C337.402 264.589 337.402 264.589 337.402 264.589L320.719 242.135C320.715 242.131 320.715 242.131 320.715 242.123V242.118C320.715 242.114 320.719 242.114 320.719 242.114C320.728 242.106 320.728 242.106 320.732 242.106H326.197L349.774 242.004H355.226H355.231C355.239 242.004 355.239 242.008 355.243 242.008C355.243 242.012 355.243 242.012 355.243 242.021C355.243 242.025 355.243 242.025 355.239 242.034Z" fill="white"/>
<path d="M337.507 258.322L350.402 242.004L326.306 242.106L326.09 242.959L337.507 258.322Z" fill="#BE6640"/>
<path d="M309.879 224.803C309.879 222.974 310.596 221.214 311.877 219.911C313.159 218.6 314.902 217.845 316.727 217.802C317.24 217.798 317.537 218.006 317.648 217.713C319.374 213.012 322.485 208.947 326.558 206.045C329.829 203.78 333.529 203.826 337.81 203.826C342.163 203.826 346.262 203.797 349.541 206.092C353.309 208.812 356.232 212.537 357.972 216.843C358.197 217.386 358.596 217.938 359.139 217.883C359.457 217.84 359.784 217.811 360.106 217.798C361.065 217.79 362.011 217.989 362.894 218.362C363.776 218.74 364.574 219.292 365.227 219.983C365.889 220.683 366.398 221.502 366.729 222.402C367.052 223.305 367.196 224.26 367.141 225.219C367.086 226.178 366.831 227.107 366.398 227.964C365.97 228.821 365.363 229.576 364.629 230.187C363.895 230.798 363.034 231.261 362.117 231.528C361.197 231.8 360.238 231.876 359.283 231.757C357.819 236.246 354.968 240.154 351.141 242.924C347.318 245.699 342.719 247.188 337.996 247.188C328.157 247.188 320.125 240.659 317.126 231.834C317.1 231.761 316.82 231.8 316.727 231.8C314.902 231.761 313.159 231.006 311.877 229.699C310.596 228.393 309.879 226.636 309.879 224.803Z" fill="#BE6640"/>
<path d="M348.098 242.105H326.306L326.09 242.958L332.688 251.83C335.793 251.385 338.768 250.282 341.428 248.61C344.08 246.934 346.35 244.715 348.098 242.105Z" fill="black"/>
<path d="M309.879 224.806C309.879 226.63 310.604 228.391 311.882 229.702C313.163 231.005 314.902 231.764 316.727 231.802C315.454 227.873 315.263 223.681 316.171 219.655C316.32 219.031 317.138 217.801 316.723 217.801C314.89 217.843 313.15 218.598 311.877 219.905C310.596 221.216 309.879 222.977 309.879 224.806Z" fill="black"/>
<path d="M336.125 222.84H332.099C331.407 222.853 330.746 223.133 330.258 223.625C329.774 224.113 329.49 224.77 329.473 225.462C329.49 226.154 329.774 226.807 330.258 227.299C330.746 227.787 331.407 228.071 332.099 228.08H336.125" stroke="black" stroke-linecap="round" stroke-linejoin="round"/>
<path d="M315.699 226.771C316.544 238.223 326.289 247.197 337.996 247.197C343.579 247.188 348.959 245.105 353.083 241.346C357.203 237.587 359.778 232.423 360.296 226.861C355.892 228.078 352.052 230.985 348.488 233.793C345.679 231.307 342.035 229.975 338.28 230.047C334.529 229.992 330.893 231.328 328.071 233.793C324.321 230.798 320.286 227.705 315.699 226.771Z" fill="#6D321D"/>
<path d="M340.061 233.141C339.081 234.29 337.834 235.173 336.425 235.72C335.021 236.259 333.498 236.433 332 236.234" stroke="black" stroke-linecap="round" stroke-linejoin="round"/>
<path d="M359.824 219.652C360.49 221.723 360.579 226.585 360.104 228.363" stroke="black" stroke-linecap="round" stroke-linejoin="round"/>
<path d="M359.823 219.653C358.652 214.744 355.869 210.369 351.906 207.247C347.943 204.115 343.042 202.414 337.993 202.414C332.949 202.414 328.048 204.115 324.094 207.247C320.131 210.369 317.339 214.744 316.168 219.653C318.888 219.462 320.945 217.68 322.918 215.533C325.447 212.907 327.221 209.72 326.758 206.254C329.469 208.129 333.407 209.347 337.904 209.347C342.397 209.347 346.522 208.218 349.33 206.351C348.859 209.72 350.641 212.907 353.17 215.533C354.956 217.591 357.112 219.462 359.823 219.653Z" fill="#6D321D"/>
<path d="M337.623 219.839C336.8 219.839 336.125 219.169 336.125 218.337C336.125 217.51 336.8 216.844 337.623 216.844C338.45 216.844 339.125 217.51 339.125 218.337C339.125 219.169 338.45 219.839 337.623 219.839Z" fill="black"/>
<path d="M331.256 219.839C330.428 219.839 329.758 219.169 329.758 218.337C329.758 217.51 330.428 216.844 331.256 216.844C332.083 216.844 332.758 217.51 332.758 218.337C332.758 219.169 332.083 219.839 331.256 219.839Z" fill="black"/>
<path d="M337.626 273.742C336.103 273.742 334.859 272.499 334.859 270.971C334.859 269.44 336.103 268.205 337.626 268.205C339.157 268.205 340.396 269.44 340.396 270.971C340.396 272.499 339.157 273.742 337.626 273.742Z" fill="white"/>
<path d="M337.626 282.041C336.103 282.041 334.859 280.802 334.859 279.27C334.859 277.747 336.103 276.508 337.626 276.508C339.157 276.508 340.396 277.747 340.396 279.27C340.396 280.802 339.157 282.041 337.626 282.041Z" fill="white"/>
<path d="M383.094 306.781C385.529 304.057 388.55 301.918 391.936 300.535" stroke="black" stroke-linecap="round" stroke-linejoin="round"/>
<path d="M366.017 307.934L355.202 337.079L344.383 330.613L355.652 302.385L366.017 307.934Z" fill="white"/>
<path d="M366.016 307.936L393.42 322.59" stroke="black" stroke-linecap="round" stroke-linejoin="round"/>
<path d="M386.597 355.855L355.199 337.08" stroke="black" stroke-linecap="round" stroke-linejoin="round"/>
<path d="M378.481 314.603L371.879 279.086" stroke="black" stroke-linecap="round" stroke-linejoin="round"/>
<path d="M383.801 312.754C389.27 312.232 394.79 312.758 400.064 314.307" stroke="black" stroke-linecap="round" stroke-linejoin="round"/>
<path d="M239.157 291.658L225.61 257.617C225.343 256.871 225.287 256.056 225.453 255.28C225.618 254.503 225.996 253.786 226.548 253.209C226.942 252.806 227.413 252.479 227.935 252.259C228.448 252.034 229.013 251.923 229.573 251.919C230.137 251.919 230.697 252.03 231.215 252.246C231.737 252.467 232.216 252.789 232.606 253.192C232.606 253.192 232.611 253.196 232.619 253.196C232.619 253.196 232.623 253.196 232.632 253.196C232.632 253.192 232.636 253.192 232.636 253.184C232.636 253.179 232.636 253.179 232.636 253.171L229.182 240.273C229.034 239.717 229.004 239.131 229.089 238.554C229.178 237.986 229.386 237.434 229.692 236.942C230.001 236.454 230.413 236.03 230.892 235.707C231.376 235.381 231.915 235.16 232.483 235.05C233.396 234.871 234.338 235.007 235.165 235.423C235.992 235.847 236.654 236.53 237.04 237.379C237.053 237.396 237.066 237.396 237.057 237.366L236.705 236.386C236.366 235.092 236.557 233.722 237.231 232.563C237.91 231.413 239.017 230.578 240.311 230.242C241.601 229.907 242.976 230.094 244.126 230.777C245.284 231.447 246.116 232.559 246.455 233.849L252.59 255.568C252.595 255.594 252.616 255.615 252.633 255.628C252.658 255.649 252.684 255.653 252.705 255.653C252.73 255.653 252.756 255.64 252.781 255.628C252.798 255.611 252.811 255.585 252.815 255.56L254.962 245.47C255.17 244.401 255.751 243.442 256.604 242.763C257.453 242.08 258.518 241.719 259.604 241.745C260.257 241.783 260.894 241.953 261.471 242.254C262.052 242.559 262.561 242.98 262.96 243.497C263.359 244.015 263.639 244.609 263.787 245.249C263.932 245.886 263.944 246.548 263.809 247.184L260.872 261.041L263.974 268.942L248.437 287.377L239.157 291.658Z" fill="#BE6640"/>
<path d="M232.66 253.217L237.035 263.773L242.932 257.672L237.056 237.365" stroke="black" stroke-linecap="round" stroke-linejoin="round"/>
<path d="M252.781 255.727C251.199 256.223 249.756 257.072 248.547 258.204C247.342 259.329 246.4 260.712 245.797 262.256C244.69 265.311 244.372 268.604 244.868 271.816" stroke="black" stroke-linecap="round" stroke-linejoin="round"/>
<path d="M242.934 257.672L250.384 249.793" stroke="black" stroke-linecap="round" stroke-linejoin="round"/>
<path d="M243.942 303.682L239.156 291.658L263.969 268.938L268.708 281.004L243.942 303.682Z" fill="white"/>
<path d="M277.833 302.783L273.047 315.245" stroke="black" stroke-linecap="round" stroke-linejoin="round"/>
<path d="M301.102 343.438L307.122 276.668" stroke="black" stroke-linecap="round" stroke-linejoin="round"/>
<path d="M261.483 281.653C260.104 281.653 258.988 280.537 258.988 279.159C258.988 277.788 260.104 276.668 261.483 276.668C262.858 276.668 263.974 277.788 263.974 279.159C263.974 280.537 262.858 281.653 261.483 281.653Z" fill="#D2CFC1"/>
<path d="M358.416 313.157C357.037 313.157 355.926 312.041 355.926 310.662C355.926 309.292 357.037 308.172 358.416 308.172C359.795 308.172 360.911 309.292 360.911 310.662C360.911 312.041 359.795 313.157 358.416 313.157Z" fill="#D2CFC1"/>
<path d="M273.046 303.684L267.242 306.781" stroke="black" stroke-linecap="round" stroke-linejoin="round"/>
<path d="M315.691 226.772C315.636 226.123 315.606 225.465 315.606 224.803C315.593 223.072 315.784 221.337 316.17 219.652" stroke="black" stroke-linecap="round" stroke-linejoin="round"/>
<path d="M108.88 247.347C108.099 250.156 106.355 252.604 103.958 254.259C102.066 255.574 99.8211 256.406 98.0051 257.81C96.1892 259.198 94.8866 261.149 94.2969 263.36L132.385 286.149L169.523 263.36C168.933 261.149 167.631 259.206 165.815 257.81C163.999 256.406 161.754 255.574 159.862 254.259C157.465 252.604 155.721 250.156 154.94 247.347C154.385 245.251 109.435 245.251 108.88 247.347Z" fill="black"/>
<path d="M187.052 268.539C182.241 265.124 176.483 263.295 170.586 263.295H169.47L137.453 273.953L128.136 274.068L94.2859 263.299H93.0173C86.5851 263.299 80.3396 265.476 75.3033 269.481L43.2695 294.938L66.9278 342.522L152.77 360.843H185.126L205.352 343.608L218.755 303.085L187.052 268.539Z" fill="#826D9C"/>
<path d="M185.156 360.716C187.307 353.448 188.304 345.887 188.117 338.313L205.415 328.427L193.964 306.097C193.951 306.084 193.938 306.067 193.926 306.055C193.909 306.05 193.892 306.038 193.875 306.038C193.858 306.033 193.841 306.038 193.824 306.038C193.807 306.046 193.79 306.055 193.777 306.067L186.289 313.403C185.283 314.422 183.921 314.994 182.495 315.007C181.066 315.016 179.695 314.455 178.681 313.458C177.663 312.457 177.086 311.095 177.069 309.665C177.056 308.24 177.612 306.865 178.609 305.847C177.684 306.784 176.449 307.349 175.138 307.442C173.827 307.531 172.525 307.136 171.485 306.339C170.441 305.537 169.729 304.379 169.474 303.093C169.228 301.803 169.453 300.462 170.123 299.33L158.307 311.337C157.785 311.863 157.17 312.275 156.487 312.55C155.803 312.826 155.069 312.962 154.335 312.945C153.597 312.924 152.872 312.758 152.206 312.453C151.535 312.139 150.933 311.693 150.449 311.146C149.541 310.09 149.07 308.732 149.121 307.34C149.176 305.944 149.762 304.629 150.75 303.645L160.059 294.196C159.1 293.933 158.23 293.432 157.526 292.732C156.851 292.066 156.342 291.251 156.058 290.347C155.77 289.439 155.714 288.481 155.88 287.547C156.054 286.614 156.453 285.735 157.042 284.997C157.632 284.25 158.392 283.665 159.266 283.283L179.356 274.585L182.983 271.301C185.809 268.743 189.454 267.262 193.268 267.126C197.082 266.986 200.82 268.2 203.824 270.55L206.315 272.964L239.422 310.128C246.385 317.913 250.929 324.863 250.076 334.753C248.807 349.616 236.108 360.898 221.195 360.898L185.134 360.843L185.164 360.716" fill="#FD9DA6"/>
<path d="M134.127 300.29L169.504 263.352H159.762L136.944 272.974H129.396L104.053 263.36H94.3242L129.689 300.29C129.973 300.591 130.321 300.829 130.698 300.99C131.08 301.151 131.492 301.241 131.908 301.241C132.323 301.241 132.735 301.151 133.117 300.99C133.499 300.829 133.838 300.591 134.127 300.29Z" fill="#A4848F"/>
<path d="M118.762 359.053H156.214V302.602C156.214 301.846 156.065 301.1 155.777 300.4C155.484 299.7 155.06 299.067 154.521 298.529C153.99 297.998 153.354 297.57 152.654 297.281C151.954 296.993 151.203 296.84 150.452 296.84H124.524C122.996 296.84 121.528 297.447 120.45 298.529C119.368 299.61 118.762 301.074 118.762 302.602V359.053Z" fill="white"/>
<path d="M43.2701 294.934L61.7775 327.129H125.87L135.12 314.918C135.722 314.103 136.524 313.475 137.454 313.076C138.378 312.682 139.397 312.546 140.394 312.677C141.344 312.817 142.235 313.195 142.991 313.785C143.742 314.374 144.327 315.151 144.688 316.038C145.053 316.924 145.176 317.883 145.053 318.838C144.93 319.784 144.56 320.679 143.983 321.443L137.835 329.483C137.818 329.509 137.814 329.539 137.814 329.56C137.814 329.589 137.818 329.611 137.835 329.636C137.852 329.657 137.882 329.67 137.908 329.674C137.933 329.683 137.963 329.674 137.988 329.657L161.566 316.818C164.723 315.104 168.55 316.364 169.818 319.725C170.302 321.015 170.306 322.436 169.822 323.73C169.343 325.024 168.414 326.098 167.205 326.759L147.878 337.278H153.127C154.183 337.261 155.214 337.532 156.131 338.067C157.043 338.593 157.794 339.361 158.303 340.286C158.723 341.105 158.944 342.013 158.935 342.938C158.935 343.714 158.783 344.495 158.481 345.22C158.18 345.942 157.743 346.599 157.187 347.155C156.631 347.707 155.974 348.148 155.252 348.449C154.527 348.75 153.75 348.903 152.97 348.903C153.759 348.903 154.548 349.06 155.278 349.366C156.008 349.671 156.674 350.125 157.225 350.689C157.781 351.258 158.222 351.928 158.515 352.666C158.804 353.4 158.948 354.19 158.935 354.983C158.872 356.57 158.193 358.068 157.043 359.167C155.893 360.257 154.357 360.859 152.766 360.843L41.959 360.906C36.0487 360.906 30.2869 359.069 25.467 355.649C20.647 352.225 17.0151 347.393 15.0719 341.809C13.1244 336.234 12.9589 330.183 14.6052 324.511C16.2472 318.838 19.616 313.814 24.2408 310.136L43.2701 294.934Z" fill="#FD9DA6"/>
<path d="M104.055 263.36L131.829 292.356C131.833 292.369 131.85 292.381 131.863 292.386C131.879 292.394 131.892 292.394 131.909 292.394C131.926 292.394 131.939 292.394 131.956 292.386C131.969 292.381 131.977 292.369 131.99 292.356L159.764 263.352L104.055 263.36Z" fill="#FD9DA6"/>
<path d="M138.155 263.358C138.155 263.358 124.051 263.256 119.346 263.264C115.523 263.264 104.055 263.358 104.055 263.358C104.055 263.358 106.019 265.496 108.145 267.77C109.57 269.315 110.958 270.562 112.316 271.983C116.987 273.375 121.977 273.294 126.601 271.75C131.222 270.21 135.253 267.274 138.155 263.358Z" fill="black"/>
<path d="M152.971 348.898H139.156" stroke="black" stroke-linecap="round" stroke-linejoin="round"/>
<path d="M160.059 294.195L179.359 274.584" stroke="black" stroke-linecap="round" stroke-linejoin="round"/>
<path d="M169.609 299.855L184.621 284.602" stroke="black" stroke-linecap="round" stroke-linejoin="round"/>
<path d="M178.234 306.228L192.189 292.057" stroke="black" stroke-linecap="round" stroke-linejoin="round"/>
<path d="M82.9912 307.598C79.9745 313.78 77.8446 320.356 76.6523 327.128" stroke="black" stroke-linecap="round" stroke-linejoin="round"/>
<path d="M202.879 323.49L214.903 346.932" stroke="black" stroke-linecap="round" stroke-linejoin="round"/>
<path d="M186.926 326.682C187.63 330.521 188.025 334.412 188.118 338.311" stroke="black" stroke-linecap="round" stroke-linejoin="round"/>
<path d="M66.9265 327.129H35.0625" stroke="black" stroke-linecap="round" stroke-linejoin="round"/>
<path d="M148.687 337.279H139.488" stroke="black" stroke-linecap="round" stroke-linejoin="round"/>
<path d="M188.044 343.662C187.556 349.411 186.593 355.109 185.154 360.697L185.129 360.842C185.129 360.842 189.868 360.999 191.442 360.999C192.927 360.999 197.391 360.897 197.391 360.897L188.044 343.662Z" fill="black"/>
<path d="M117.201 246.213C117.201 247.744 116.747 249.246 115.894 250.523C115.041 251.796 113.832 252.789 112.419 253.379C110.997 253.969 109.436 254.117 107.934 253.816C106.432 253.523 105.045 252.785 103.963 251.699C102.877 250.613 102.138 249.229 101.837 247.727C101.544 246.221 101.693 244.66 102.283 243.243C102.868 241.83 103.861 240.616 105.138 239.764C106.415 238.911 107.909 238.461 109.449 238.461C111.507 238.461 113.475 239.276 114.931 240.731C116.386 242.182 117.201 244.155 117.201 246.213Z" fill="#FD9DA6"/>
<path d="M146.602 246.213C146.597 247.744 147.051 249.246 147.908 250.523C148.757 251.796 149.97 252.793 151.388 253.379C152.8 253.969 154.362 254.117 155.868 253.824C157.37 253.523 158.753 252.785 159.839 251.699C160.926 250.613 161.664 249.229 161.965 247.727C162.262 246.221 162.109 244.66 161.52 243.243C160.93 241.83 159.937 240.616 158.664 239.764C157.391 238.911 155.885 238.461 154.358 238.461C152.3 238.461 150.323 239.276 148.872 240.731C147.416 242.182 146.602 244.155 146.602 246.213Z" fill="#FD9DA6"/>
<path d="M154.356 244.408C154.356 243.504 154.296 242.588 154.19 241.688C152.845 230.572 132.908 226.02 131.903 226.02C130.821 226.02 110.302 231.179 109.5 242.843C109.466 243.364 109.449 243.882 109.449 244.408C109.449 250.365 111.812 256.076 116.021 260.289C120.235 264.498 125.946 266.862 131.903 266.862C137.851 266.862 143.566 264.498 147.779 260.289C151.984 256.076 154.356 250.365 154.356 244.408Z" fill="#FD9DA6"/>
<path d="M142.212 214.977C142.212 217.107 141.584 219.177 140.404 220.947C139.225 222.716 137.545 224.091 135.58 224.905C133.62 225.72 131.46 225.928 129.373 225.516C127.294 225.101 125.376 224.078 123.874 222.576C122.372 221.074 121.35 219.16 120.938 217.077C120.522 214.99 120.734 212.83 121.545 210.87C122.359 208.905 123.734 207.23 125.503 206.046C127.268 204.866 129.343 204.238 131.473 204.238C134.32 204.238 137.053 205.371 139.068 207.382C141.079 209.398 142.212 212.13 142.212 214.977Z" fill="black"/>
<path d="M154.19 241.685C153.511 236.144 150.796 231.053 146.566 227.408C142.336 223.759 136.901 221.82 131.317 221.965C125.738 222.109 120.408 224.328 116.378 228.193C112.343 232.05 109.895 237.277 109.5 242.844C115.168 243.607 120.939 242.835 126.208 240.608C131.478 238.38 136.056 234.787 139.463 230.187C139.476 230.17 139.489 230.158 139.51 230.149C139.527 230.141 139.544 230.141 139.569 230.141C139.586 230.145 139.607 230.149 139.62 230.17C139.637 230.179 139.65 230.196 139.654 230.213C140.77 233.174 142.637 235.784 145.068 237.795C147.499 239.81 150.414 241.151 153.528 241.694L154.19 241.685Z" fill="black"/>
<path d="M109.449 244.41C109.441 247.618 110.128 250.791 111.452 253.706" stroke="black" stroke-linecap="round" stroke-linejoin="round"/>
<path d="M154.359 244.41C154.363 247.618 153.676 250.791 152.348 253.706" stroke="black" stroke-linecap="round" stroke-linejoin="round"/>
<path d="M119.344 263.029C122.976 265.473 127.231 266.81 131.606 266.865C135.98 266.924 140.274 265.707 143.961 263.36" stroke="black" stroke-linecap="round" stroke-linejoin="round"/>
<path d="M132.91 250.693H136.156C136.432 250.693 136.703 250.744 136.958 250.846C137.212 250.956 137.446 251.109 137.637 251.304C137.832 251.5 137.989 251.733 138.091 251.987C138.197 252.242 138.252 252.514 138.252 252.785C138.252 253.061 138.197 253.332 138.091 253.587C137.989 253.842 137.832 254.071 137.637 254.262C137.446 254.457 137.212 254.614 136.958 254.72C136.703 254.822 136.432 254.881 136.156 254.881H132.91" stroke="black" stroke-linecap="round" stroke-linejoin="round"/>
<path d="M129.398 256.404C130.086 257.312 130.998 258.029 132.042 258.492C133.09 258.95 134.231 259.141 135.364 259.035" stroke="black" stroke-linecap="round" stroke-linejoin="round"/>
<path d="M133.547 246.725C133.547 247.073 133.441 247.408 133.25 247.693C133.06 247.977 132.788 248.202 132.47 248.333C132.156 248.461 131.808 248.495 131.473 248.431C131.138 248.363 130.824 248.193 130.582 247.951C130.34 247.714 130.179 247.404 130.106 247.069C130.047 246.734 130.081 246.382 130.208 246.068C130.34 245.749 130.56 245.478 130.849 245.287C131.133 245.096 131.468 244.994 131.812 244.994C132.27 244.994 132.707 245.177 133.038 245.503C133.361 245.826 133.547 246.271 133.547 246.725Z" fill="black"/>
<path d="M139.46 246.725C139.46 247.073 139.362 247.408 139.171 247.693C138.98 247.977 138.709 248.202 138.391 248.333C138.072 248.461 137.725 248.495 137.389 248.431C137.054 248.363 136.744 248.193 136.503 247.951C136.256 247.714 136.095 247.404 136.027 247.069C135.964 246.734 135.998 246.382 136.125 246.068C136.256 245.749 136.477 245.478 136.766 245.287C137.05 245.096 137.385 244.994 137.725 244.994C138.187 244.994 138.628 245.177 138.955 245.503C139.282 245.826 139.46 246.271 139.46 246.725Z" fill="black"/>
</svg>
