<svg width="247" height="213" viewBox="0 0 247 213" fill="none" xmlns="http://www.w3.org/2000/svg">
<path d="M70.9356 137.827L59.5001 153.068L46.3115 115.844L45.7233 74.2191C45.7233 70.7014 42.9379 67.916 39.4202 67.916C35.9025 67.916 33.1229 70.7014 33.1229 74.2191V83.0134H10.9901H5.56355C2.48986 83.0134 -0.00138855 85.5047 -0.00138855 88.5841C-0.00138855 91.6578 2.48986 94.1548 5.56355 94.1548C2.48986 94.1548 -0.00138855 96.646 -0.00138855 99.7197C-0.00138855 102.799 2.48986 105.29 5.56355 105.29C2.48986 105.29 -0.00138855 107.782 -0.00138855 110.861C-0.00138855 113.941 2.48986 116.432 5.56355 116.432H18.3196L40.0084 192.934C42.3555 200.263 49.241 205.246 56.8647 205.246C62.4353 205.246 67.8561 202.61 71.0797 198.066L105.963 152.047L70.9356 137.827Z" fill="#FD9DA6"/>
<path d="M192.437 57.5119C188.775 63.371 181.446 68.7975 180.714 69.0916C174.116 71.8712 166.643 72.3153 159.313 69.9682C155.651 68.7975 152.572 67.0386 149.786 64.8357C148.616 63.9592 147.589 62.9327 146.563 61.7621C145.536 60.5856 144.51 59.2708 143.633 57.9502C139.233 51.2089 137.624 42.7087 139.671 34.3526L137.768 33.6203C135.715 32.8879 134.545 30.6907 135.277 28.6378C136.01 26.5848 138.207 25.4141 140.26 26.1465L142.751 27.0231C146.269 20.8699 151.983 16.1816 158.436 13.8345C163.269 12.0756 174.993 13.2463 176.902 14.1286C184.231 16.9139 192.437 23.3612 195.223 30.5408C196.543 33.7644 199.179 46.6647 192.437 57.5119Z" fill="#FD9DA6"/>
<path d="M154.416 25.4548C154.768 24.3879 154.197 23.2288 153.113 22.8655C152.04 22.5137 150.887 23.0846 150.518 24.1515C150.166 25.2356 150.737 26.3947 151.821 26.7638C152.893 27.1156 154.053 26.5389 154.416 25.4548Z" fill="black"/>
<path d="M145.535 38.1641L139.526 41.2435" stroke="black" stroke-width="1.5" stroke-linecap="round" stroke-linejoin="round"/>
<path d="M101.858 50.1825C99.8047 47.8354 96.1428 47.5413 93.7957 49.7442C91.7485 51.5031 91.3044 54.1385 92.4809 56.4856L88.669 52.0855C86.6161 49.7442 82.9542 49.4501 80.6071 51.6473C78.8482 53.262 78.26 55.7532 78.9982 57.8062L75.0364 53.4061C72.9834 51.059 69.3215 50.7707 66.9745 52.9678C64.6332 55.0208 64.3391 58.6827 66.5362 61.0298L87.6425 85.0657C87.7867 85.2098 87.6425 85.5039 87.3484 85.5039H76.6511C73.1334 85.5039 70.0539 88.2893 70.2038 91.807C70.2038 95.0306 72.9834 97.0836 76.357 97.816L104.205 105.584L127.652 80.0832L101.858 50.1825Z" fill="#FD9DA6"/>
<path d="M198.885 42.2703C198.885 42.7086 198.885 43.1469 198.885 43.5852C198.741 46.0764 198.302 48.7176 197.42 51.2088C194.635 59.5649 188.482 65.8622 180.858 68.9416C178.073 66.8887 176.169 63.665 175.731 60.2972C175.437 58.5384 175.437 57.0678 175.731 55.309C181.74 55.1648 187.017 50.9147 187.749 44.7616C188.626 38.0145 183.937 31.8613 177.34 30.9848C175.143 30.6907 172.796 30.9848 170.893 31.8613C170.011 32.2996 168.546 32.5937 167.519 32.2996C166.787 32.1554 166.205 31.5672 165.91 30.9848C165.178 29.6642 165.028 28.0495 165.466 26.5847C165.76 25.12 168.696 20.1375 168.984 19.6992L198.885 42.2703Z" fill="black"/>
<path d="M200.498 64.2539H143.338C131.32 64.2539 120.179 69.9688 113.144 79.6396L70.6425 138.27L106.99 170.074L126.482 144.279L134.394 212.869H246.373L232.446 92.684C230.393 76.416 216.766 64.2539 200.498 64.2539Z" fill="#826D9C"/>
<path d="M59.6518 153.068L63.752 164.798" stroke="black" stroke-width="1.5" stroke-linecap="round" stroke-linejoin="round"/>
<path d="M96.7305 78.0307L78.8477 57.8066" stroke="black" stroke-width="1.5" stroke-linecap="round" stroke-linejoin="round"/>
<path d="M108.018 74.8073L92.4819 56.4863" stroke="black" stroke-width="1.5" stroke-linecap="round" stroke-linejoin="round"/>
<path d="M126.483 144.279L142.457 122.734" stroke="black" stroke-width="1.5" stroke-linecap="round" stroke-linejoin="round"/>
<path d="M175.73 55.3091C171.036 55.0208 167.519 53.112 165.76 50.4766" stroke="black" stroke-width="1.5" stroke-linecap="round" stroke-linejoin="round"/>
<path d="M198.883 43.5859L158.579 13.691C164.732 11.4881 171.917 11.1997 178.659 13.3969C191.703 17.7912 199.615 30.3973 198.883 43.5859Z" fill="#D2CFC1"/>
<path d="M168.544 20.2823L185.4 17.791V33.6208" stroke="black" stroke-width="1.5" stroke-linecap="round" stroke-linejoin="round"/>
<path d="M199.616 41.8268L144.071 0.352278C143.188 -0.235932 142.018 -0.0859901 141.285 0.790558C140.697 1.67287 140.847 2.84354 141.723 3.57591L197.275 45.0505C197.563 45.3446 198.007 45.4945 198.445 45.4945C199.034 45.4945 199.616 45.2004 200.054 44.7621C200.642 43.5857 200.498 42.415 199.616 41.8268Z" fill="white"/>
<path d="M186.571 18.2302C187.787 18.2302 188.773 17.2499 188.773 16.0331C188.773 14.8163 187.787 13.8359 186.571 13.8359C185.354 13.8359 184.373 14.8163 184.373 16.0331C184.373 17.2499 185.354 18.2302 186.571 18.2302Z" fill="#888888"/>
<path d="M200.055 94.1543L210.758 196.013" stroke="black" stroke-width="1.5" stroke-linecap="round" stroke-linejoin="round"/>
</svg>
