<svg width="615" height="396" viewBox="0 0 615 396" fill="none" xmlns="http://www.w3.org/2000/svg">
<path d="M607.185 145.648L607.15 145.731L607.117 145.815L518.368 375.475C518.366 375.479 518.365 375.482 518.364 375.485C515.01 384.043 506.842 389.651 497.486 389.686L159.007 377.335L158.915 377.332H158.845C158.838 377.329 158.827 377.324 158.811 377.315C158.744 377.276 158.643 377.192 158.553 377.06C158.492 376.97 158.459 376.893 158.443 376.842L158.452 376.819L255.427 126.605C259.241 117.519 268.383 111.438 278.24 111.438H584.273C601.981 111.858 613.93 129.908 607.185 145.648Z" fill="#ECCDE0" stroke="#953A72" stroke-width="10"/>
<path d="M496.939 394.686H26.1358C13.7818 394.686 3.71875 382.79 3.71875 370.436C3.71875 358.082 13.7818 348.014 26.1358 348.014H496.939C509.293 348.014 519.356 358.082 519.356 370.436C519.356 382.79 509.293 394.686 496.939 394.686Z" fill="#953A72"/>
<path d="M111.922 12.8011C112.207 12.8011 112.485 12.8359 112.769 12.8939C113.842 9.13552 116.133 5.83533 119.283 3.51533C122.426 1.20113 126.26 -0.0168784 130.175 0.0817216C134.078 0.168722 137.854 1.56073 140.893 4.02573C143.933 6.49073 146.067 9.88372 146.966 13.6943C146.978 13.7291 146.978 13.7697 146.983 13.7987C151.745 14.2511 151.676 21.2169 146.908 21.5707C144.982 28.7859 138.15 34.0175 129.752 34.0175C120.965 34.0175 113.976 28.7975 112.357 20.5963C112.212 20.6195 112.073 20.6311 111.922 20.6427C106.737 20.6427 106.731 12.8011 111.922 12.8011Z" fill="#FD9DA6"/>
<path d="M100.827 322.551L99.8002 328.479H69.9766L77.8182 309.234L100.311 320.469L100.827 322.551Z" fill="#5D5D5D"/>
<path d="M157.94 321.588H131.898L131.974 328.026L157.94 336.975V321.588Z" fill="#5D5D5D"/>
<path d="M68.2852 313.017C68.2852 313.04 68.2852 313.051 68.291 313.069C68.3084 313.08 68.32 313.098 68.3374 313.098L100.748 322.529C100.771 322.534 100.794 322.534 100.806 322.523C100.823 322.517 100.835 322.494 100.846 322.471L120.584 202.48C120.59 202.306 120.671 202.144 120.804 202.022C120.938 201.906 121.106 201.848 121.286 201.854C121.46 201.871 121.622 201.941 121.744 202.074C121.86 202.208 121.918 202.382 121.912 202.556V322.476C121.912 322.5 121.918 322.517 121.935 322.529C121.953 322.546 121.964 322.552 121.987 322.552H158.829C158.835 322.552 158.852 322.552 158.858 322.552C158.864 322.546 158.875 322.534 158.881 322.534C158.887 322.529 158.893 322.517 158.893 322.505C158.904 322.5 158.904 322.494 158.904 322.476L159.235 189.065L159.27 175.035L158.904 147.96C158.904 147.954 158.904 147.943 158.893 147.931C158.893 147.925 158.887 147.914 158.881 147.908C158.875 147.902 158.864 147.896 158.858 147.896C158.852 147.885 158.835 147.885 158.829 147.885H91.056C91.0328 147.885 91.0212 147.896 91.0038 147.908C90.9922 147.914 90.9806 147.937 90.9806 147.954L68.2852 313.017Z" fill="#826D9C"/>
<path d="M195.158 348.002C195.169 348.002 195.193 347.99 195.21 347.984C195.216 347.973 195.233 347.955 195.233 347.932C195.419 344.765 194.746 341.616 193.261 338.809C191.794 336.007 189.578 333.653 186.864 332.023C183.233 329.964 178.947 329.569 175.026 328.247C172.143 327.278 169.133 325.544 167.411 322.923C166.784 321.971 165.943 321.188 164.951 320.637C163.96 320.081 162.846 319.767 161.709 319.738C160.816 319.767 159.934 319.976 159.128 320.359C158.316 320.747 157.597 321.287 157.005 321.96C156.414 322.632 155.973 323.421 155.695 324.274C155.422 325.126 155.335 326.026 155.422 326.913L155.497 328.027H131.973V347.926C131.973 347.938 131.973 347.949 131.978 347.955C131.978 347.961 131.984 347.973 131.996 347.978C132.002 347.984 132.007 347.99 132.013 347.99C132.025 348.002 132.036 348.002 132.048 348.002H195.158Z" fill="#A59E9F"/>
<path d="M194.364 341.344H131.996" stroke="black" stroke-linecap="round" stroke-linejoin="round"/>
<path d="M176.734 328.838C173.77 329.801 173.109 334.684 170.221 335.868C168.666 336.535 166.892 336.088 165.192 335.792C163.51 335.409 161.753 335.647 160.233 336.459C159.456 336.888 158.824 337.538 158.412 338.333C158.006 339.121 157.844 340.015 157.942 340.896" stroke="black" stroke-linecap="round" stroke-linejoin="round"/>
<path d="M132.051 333.131C137.288 333.131 142.404 336.756 143.958 340.822" stroke="black" stroke-linecap="round" stroke-linejoin="round"/>
<path d="M171.257 327.951C171.101 327.957 170.944 328.003 170.805 328.067C170.666 328.137 170.538 328.23 170.434 328.351C170.329 328.467 170.26 328.601 170.207 328.752C170.155 328.897 170.132 329.053 170.144 329.21C170.167 329.529 170.294 329.825 170.509 330.051C170.729 330.283 171.019 330.428 171.333 330.468C171.483 330.457 171.64 330.422 171.779 330.358C171.924 330.289 172.046 330.19 172.15 330.074C172.255 329.958 172.33 329.813 172.382 329.668C172.435 329.517 172.452 329.366 172.44 329.21C172.359 328.462 171.924 327.951 171.257 327.951Z" fill="#5D5D5D"/>
<path d="M167.414 325.434C167.257 325.445 167.101 325.486 166.962 325.555C166.817 325.619 166.695 325.718 166.59 325.834C166.486 325.956 166.41 326.089 166.358 326.234C166.306 326.385 166.289 326.536 166.3 326.692C166.318 327.011 166.451 327.307 166.666 327.539C166.88 327.765 167.176 327.916 167.483 327.951C167.64 327.945 167.797 327.904 167.936 327.841C168.075 327.771 168.203 327.678 168.307 327.556C168.411 327.44 168.481 327.301 168.533 327.15C168.585 327.005 168.603 326.849 168.597 326.692C168.574 326.385 168.446 326.077 168.232 325.851C168.017 325.619 167.721 325.474 167.414 325.434Z" fill="#5D5D5D"/>
<path d="M155.422 328.025C156.686 328.924 158.125 329.557 159.638 329.876" stroke="black" stroke-linecap="round" stroke-linejoin="round"/>
<path d="M36.7555 348.002C36.7381 348.002 36.7149 347.99 36.7033 347.984C36.6859 347.973 36.6801 347.955 36.6801 347.932C36.4887 344.765 37.1673 341.616 38.6463 338.809C40.1195 336.007 42.3351 333.653 45.0495 332.023C48.6803 329.964 52.9607 329.569 56.8815 328.247C59.7699 327.278 62.7801 325.544 64.5027 322.923C65.1233 321.971 65.9701 321.188 66.9619 320.637C67.9537 320.081 69.0615 319.767 70.1983 319.738C71.0973 319.767 71.9731 319.976 72.7851 320.359C73.5971 320.747 74.3163 321.287 74.9079 321.96C75.4995 322.632 75.9403 323.421 76.2129 324.274C76.4913 325.126 76.5783 326.026 76.4913 326.913L76.4159 328.027H99.9117V347.926C99.9117 347.95 99.9059 347.961 99.8885 347.978C99.8711 347.99 99.8595 348.002 99.8363 348.002H36.7555Z" fill="#A59E9F"/>
<path d="M37.5977 341.344H99.9129" stroke="black" stroke-linecap="round" stroke-linejoin="round"/>
<path d="M55.1836 328.988C58.1416 329.945 58.8086 334.684 61.697 335.867C63.2456 336.534 65.0262 336.088 66.7256 335.792C68.4018 335.409 70.165 335.647 71.6788 336.459C72.456 336.888 73.094 337.538 73.5 338.332C73.906 339.121 74.0684 340.014 73.9756 340.896" stroke="black" stroke-linecap="round" stroke-linejoin="round"/>
<path d="M99.9108 333.131C94.656 333.647 89.5056 336.756 87.957 340.822" stroke="black" stroke-linecap="round" stroke-linejoin="round"/>
<path d="M60.6577 327.951C60.8143 327.957 60.9709 328.003 61.1101 328.067C61.2493 328.137 61.3769 328.23 61.4813 328.351C61.5799 328.467 61.6553 328.601 61.7075 328.752C61.7597 328.897 61.7771 329.053 61.7655 329.21C61.7597 329.529 61.6321 329.836 61.4175 330.068C61.1971 330.306 60.9013 330.445 60.5823 330.468C60.4257 330.457 60.2749 330.422 60.1299 330.358C59.9907 330.289 59.8631 330.19 59.7645 330.074C59.6601 329.958 59.5847 329.813 59.5325 329.668C59.4803 329.517 59.4571 329.366 59.4745 329.21C59.4687 329.047 59.4861 328.891 59.5383 328.734C59.6021 328.578 59.6833 328.444 59.7935 328.328C59.9037 328.212 60.0371 328.114 60.1821 328.05C60.3329 327.986 60.4953 327.951 60.6577 327.951Z" fill="#5D5D5D"/>
<path d="M64.503 325.434C64.6596 325.445 64.8162 325.486 64.9554 325.555C65.0946 325.619 65.2222 325.718 65.3266 325.834C65.431 325.956 65.5006 326.089 65.5528 326.234C65.605 326.385 65.6224 326.536 65.6166 326.692C65.605 327.011 65.4832 327.324 65.2686 327.551C65.0424 327.788 64.7466 327.928 64.4276 327.951C64.2768 327.945 64.1202 327.904 63.981 327.841C63.836 327.771 63.7142 327.678 63.6098 327.556C63.5054 327.44 63.43 327.301 63.3778 327.15C63.3256 327.005 63.3082 326.849 63.3198 326.692C63.3372 326.385 63.4706 326.077 63.6852 325.851C63.8998 325.619 64.1956 325.474 64.503 325.434Z" fill="#5D5D5D"/>
<path d="M76.49 328.025C75.2198 328.924 73.7872 329.557 72.2734 329.876" stroke="black" stroke-linecap="round" stroke-linejoin="round"/>
<path d="M70.424 131.829L79.5358 135.396C79.5822 135.419 79.617 135.448 79.6402 135.483C79.6634 135.53 79.675 135.576 79.6692 135.617L73.7126 174.807C73.7068 174.836 73.7068 174.865 73.7242 174.894C73.73 174.917 73.7416 174.946 73.759 174.97C73.7822 174.993 73.8054 175.004 73.8344 175.022C73.8518 175.033 73.8866 175.033 73.9156 175.033H159.065C159.118 175.033 159.17 175.022 159.21 174.975C159.251 174.941 159.268 174.888 159.268 174.836V134.404C159.268 134.375 159.268 134.352 159.286 134.323C159.292 134.3 159.309 134.283 159.332 134.259C159.344 134.242 159.367 134.23 159.396 134.213C159.419 134.207 159.448 134.201 159.471 134.201H182.921C182.95 134.201 182.979 134.19 183.014 134.184C183.031 134.167 183.06 134.155 183.077 134.132C183.101 134.109 183.112 134.08 183.124 134.051C183.13 134.022 183.13 133.993 183.124 133.969L178.507 103.253L175.746 84.8899L171.321 55.4839C170.381 49.2141 167.226 43.4837 162.418 39.3483C157.604 35.2071 151.479 32.9277 145.134 32.9219H140.384C140.372 32.9219 140.349 32.9277 140.326 32.9277L129.416 36.0887C129.381 36.0945 129.346 36.0945 129.311 36.0887L115.937 32.9277C115.919 32.9219 115.902 32.9219 115.89 32.9219H99.1978C93.45 32.9219 87.8588 34.7953 83.271 38.2463C78.6774 41.7031 75.3424 46.5635 73.7532 52.0793L57.9946 106.825C56.5678 111.796 57.055 117.115 59.3518 121.743C61.6544 126.371 65.5984 129.967 70.424 131.829Z" fill="#826D9C"/>
<path d="M158.748 94.385L158.023 80.668" stroke="black" stroke-linecap="round" stroke-linejoin="round"/>
<path d="M162.008 93.8052V102.905L178.59 103.253L175.754 84.8906L162.008 93.8052Z" fill="black"/>
<path d="M140.334 145.222L153.65 97.1347C153.911 96.1951 154.474 95.3773 155.251 94.7857C156.017 94.1999 156.962 93.8809 157.942 93.8809H187.238C187.923 93.8809 188.601 94.0375 189.21 94.3333C189.837 94.6349 190.364 95.0815 190.788 95.6267C191.205 96.1661 191.484 96.8041 191.617 97.4769C191.745 98.1497 191.716 98.8457 191.53 99.5011L179.107 144.573L178.289 147.589C178.028 148.528 177.465 149.358 176.688 149.944C175.911 150.535 174.965 150.854 173.997 150.843H144.701C144.011 150.854 143.332 150.698 142.712 150.402C142.085 150.1 141.546 149.659 141.128 149.114C140.705 148.575 140.415 147.937 140.276 147.264C140.142 146.585 140.16 145.889 140.334 145.222Z" fill="white"/>
<path d="M84.6992 110.898L96.0962 71.168" stroke="black" stroke-linecap="round" stroke-linejoin="round"/>
<path d="M140.332 106.234V175.034" stroke="black" stroke-linecap="round" stroke-linejoin="round"/>
<path d="M121.834 126.285C131.914 116.57 134.06 113.351 140 112.469C143.961 109.621 148.131 101.82 150.097 101.055C152.441 100.115 157.052 103.096 153.427 109.488C152.087 111.79 150.295 113.803 148.172 115.398C152.847 121.54 154.836 122.961 150.909 128.204C150.909 130.78 151.327 135.495 146.177 138.267V140.93C146.229 141.863 145.945 142.78 145.37 143.522C144.802 144.253 143.978 144.758 143.062 144.926C142.146 145.094 141.194 144.932 140.388 144.45C139.594 143.98 138.99 143.226 138.706 142.339L136.757 136.017C136.723 135.901 136.653 135.802 136.566 135.733C136.479 135.657 136.363 135.605 136.247 135.588C136.131 135.582 136.009 135.605 135.905 135.657C135.806 135.71 135.713 135.791 135.655 135.895C130.528 144.607 122.147 144.711 115.547 145.001C116.933 140.761 115.703 144.433 121.834 126.285Z" fill="#FD9DA6"/>
<path d="M146.176 138.267C146.2 125.884 135.383 121.18 132.117 124.95" stroke="black" stroke-linecap="round" stroke-linejoin="round"/>
<path d="M150.91 128.204C151.031 122.885 143.874 116.911 136.926 118.147" stroke="black" stroke-linecap="round" stroke-linejoin="round"/>
<path d="M148.172 115.397C147.233 114.44 146.16 113.623 144.994 112.967C143.811 112.376 141.328 112.323 140 112.468" stroke="black" stroke-linecap="round" stroke-linejoin="round"/>
<path d="M121.835 126.286L84.6976 110.898L79.9648 115.631" stroke="black" stroke-linecap="round" stroke-linejoin="round"/>
<path d="M79.6914 135.455L113.993 149.439L115.547 145.002" stroke="black" stroke-linecap="round" stroke-linejoin="round"/>
<path d="M107.308 32.9219L100.754 57.0383L109.93 61.1795L103.938 69.6127L140.333 106.234L153.354 72.0545L145.292 63.9925L153.134 56.1509L145.141 32.9219" stroke="black" stroke-linecap="round" stroke-linejoin="round"/>
<path d="M124.427 58.8131L115.918 32.9219H140.359L140.33 61.6261L135.006 72.7679L124.427 58.8131Z" fill="#E4C5F9"/>
<path d="M130.269 45.125L140.332 61.626L140.309 106.367C120.786 47.9148 125.049 60.6864 124.428 58.813L130.269 45.125Z" fill="black"/>
<path d="M140.331 45.4963L129.972 32.9219L120.211 45.7225" stroke="black" stroke-linecap="round" stroke-linejoin="round"/>
<path d="M136.893 41.3092C136.898 41.3266 136.91 41.3381 136.91 41.3555C136.91 41.3787 136.898 41.3903 136.893 41.4077L130.321 50.4557C130.315 50.4615 130.31 50.4674 130.304 50.479C130.286 50.4848 130.281 50.4847 130.263 50.4847C130.257 50.4847 130.24 50.4848 130.234 50.479C130.228 50.479 130.211 50.4674 130.205 50.4616L122.984 42.1385C122.973 42.1327 122.973 42.1095 122.973 42.0979C122.973 42.0805 122.973 42.0632 122.984 42.0516L129.915 32.9977C129.927 32.9861 129.933 32.9803 129.944 32.9745C129.956 32.9745 129.967 32.9688 129.973 32.9688C129.991 32.9688 129.996 32.9745 130.008 32.9745C130.02 32.9803 130.025 32.9861 130.037 32.9977L136.893 41.3092Z" fill="black"/>
<path d="M187.087 103.718L188.346 99.1358C188.415 98.9038 188.427 98.6602 188.386 98.4224C188.34 98.1846 188.241 97.9642 188.102 97.7728C187.963 97.5814 187.772 97.419 187.557 97.3088C187.342 97.2044 187.105 97.1464 186.867 97.1348H182.65C182.32 97.1348 181.983 97.2392 181.716 97.4422C181.45 97.6394 181.258 97.9294 181.171 98.2484L179.913 102.83C179.849 103.062 179.831 103.306 179.878 103.544C179.918 103.782 180.017 104.008 180.156 104.199C180.295 104.396 180.493 104.547 180.696 104.657C180.91 104.773 181.148 104.831 181.392 104.831H185.608C185.945 104.831 186.258 104.721 186.525 104.518C186.791 104.321 186.994 104.037 187.087 103.718Z" fill="#696969"/>
<path d="M185.385 101.205C184.654 101.205 184.051 100.614 184.051 99.8712C184.051 99.1404 184.654 98.543 185.385 98.543C186.116 98.543 186.719 99.1404 186.719 99.8712C186.719 100.614 186.116 101.205 185.385 101.205Z" fill="#C7C7C7"/>
<path d="M182.799 103.572C182.062 103.572 181.465 102.981 181.465 102.238C181.465 101.508 182.062 100.91 182.799 100.91C183.53 100.91 184.127 101.508 184.127 102.238C184.127 102.981 183.53 103.572 182.799 103.572Z" fill="#C7C7C7"/>
<path d="M146.961 13.707C147.953 13.7998 148.869 14.2522 149.542 14.983C150.215 15.7138 150.592 16.6766 150.592 17.6684C150.603 18.6602 150.232 19.623 149.565 20.3596C148.898 21.102 147.988 21.5602 146.996 21.6646C147.587 19.043 147.582 16.3228 146.961 13.707Z" fill="black"/>
<path d="M131.23 16.2012H134.415C134.96 16.2012 135.488 16.4274 135.876 16.8102C136.265 17.1988 136.485 17.7266 136.485 18.2718C136.485 18.8286 136.265 19.3564 135.876 19.7392C135.488 20.1336 134.96 20.3482 134.415 20.3482H131.23" stroke="black" stroke-linecap="round" stroke-linejoin="round"/>
<path d="M147.264 19.332C147.275 19.332 147.287 19.332 147.293 19.332C147.31 19.3378 147.316 19.3378 147.327 19.3436C147.339 19.3552 147.339 19.3668 147.345 19.3726C147.356 19.39 147.356 19.3958 147.356 19.4132C146.933 23.7864 144.903 27.8464 141.649 30.8044C138.401 33.7624 134.161 35.4038 129.771 35.4154C125.374 35.4154 121.135 33.7856 117.881 30.8334C114.627 27.8812 112.585 23.827 112.156 19.4538C112.156 19.4422 112.156 19.4248 112.162 19.419C112.162 19.4074 112.168 19.3958 112.179 19.39C112.191 19.3842 112.197 19.3726 112.214 19.3726C112.22 19.3668 112.237 19.3726 112.249 19.3726C115.659 20.3528 118.652 22.638 121.425 24.8188C121.43 24.8362 121.454 24.8362 121.471 24.8362C121.483 24.8362 121.506 24.8362 121.512 24.8188C123.756 22.928 126.598 21.884 129.533 21.884C132.468 21.884 135.31 22.928 137.554 24.8188C137.566 24.8362 137.583 24.8362 137.595 24.8362C137.618 24.8362 137.636 24.8362 137.647 24.8188C140.565 22.4872 143.702 20.0918 147.264 19.332Z" fill="#6D321D"/>
<path d="M128.129 24.3379C128.895 25.2485 129.886 25.9445 130.994 26.3737C132.108 26.8029 133.303 26.9421 134.492 26.7797" stroke="black" stroke-linecap="round" stroke-linejoin="round"/>
<path d="M112.625 13.7243C112.619 13.7243 112.608 13.7243 112.596 13.7243C112.585 13.7185 112.573 13.7069 112.567 13.7011C112.561 13.6953 112.556 13.6779 112.556 13.6721C112.544 13.6547 112.544 13.6489 112.556 13.6373C114.145 5.90588 121.43 0.00148827 129.753 0.00148827C133.749 -0.0507117 137.635 1.27168 140.761 3.74248C143.899 6.22488 146.08 9.69909 146.944 13.5967C146.944 13.6083 146.944 13.6199 146.944 13.6373C146.938 13.6431 146.938 13.6489 146.932 13.6663C146.926 13.6721 146.909 13.6779 146.903 13.6779C146.886 13.6895 146.88 13.6895 146.863 13.6895C144.769 13.5039 143.197 12.1119 141.666 10.4299C139.705 8.39988 138.319 5.94068 138.609 3.27268C138.615 3.25528 138.609 3.24369 138.609 3.22629C138.603 3.20889 138.586 3.20308 138.58 3.19728C138.563 3.19148 138.551 3.17988 138.534 3.17988C138.522 3.17988 138.511 3.19148 138.499 3.19728C135.895 4.80388 132.885 5.62168 129.828 5.55208C126.708 5.63328 123.628 4.83868 120.937 3.27268C120.919 3.26108 120.913 3.26109 120.896 3.26109C120.884 3.26109 120.867 3.26108 120.855 3.27268C120.844 3.27848 120.832 3.29009 120.826 3.30169C120.826 3.31329 120.815 3.33068 120.826 3.34228C121.122 5.94648 119.73 8.40569 117.77 10.4415C116.384 12.0365 114.731 13.5387 112.625 13.7243Z" fill="#6D321D"/>
<path d="M130.05 13.8351C129.401 13.8351 128.867 13.3132 128.867 12.652C128.867 12.0024 129.401 11.4688 130.05 11.4688C130.7 11.4688 131.234 12.0024 131.234 12.652C131.234 13.3132 130.7 13.8351 130.05 13.8351Z" fill="black"/>
<path d="M135.084 13.8351C134.428 13.8351 133.895 13.3132 133.895 12.652C133.895 12.0024 134.428 11.4688 135.084 11.4688C135.733 11.4688 136.267 12.0024 136.267 12.652C136.267 13.3132 135.733 13.8351 135.084 13.8351Z" fill="black"/>
<path d="M159.267 175.033H87.2891" stroke="black" stroke-linecap="round" stroke-linejoin="round"/>
<path d="M106.895 175.033L159.234 189.063C159.385 183.652 159.367 179.43 159.269 175.033H106.895Z" fill="black"/>
<path d="M97.205 142.635L77.3516 150.912C78.0418 145.24 78.6334 140.977 79.6948 135.455L97.205 142.635Z" fill="black"/>
<path d="M129.607 112.818C127.809 112.818 126.348 111.362 126.348 109.564C126.348 107.766 127.809 106.311 129.607 106.311C131.405 106.311 132.861 107.766 132.861 109.564C132.861 111.362 131.405 112.818 129.607 112.818Z" fill="black"/>
<path d="M167.441 133.918L179.105 144.573L180.578 139.387L167.441 133.918Z" fill="black"/>
<path d="M147.015 21.5659C147.183 20.8235 147.305 20.0695 147.363 19.3097C147.531 17.4305 147.398 15.5339 146.969 13.6953" stroke="black" stroke-linecap="round" stroke-linejoin="round"/>
<path d="M112.753 12.8711C112.672 13.1611 112.596 13.4395 112.532 13.7411C112.231 15.0577 112.074 16.4091 112.074 17.7605C112.074 18.2941 112.097 18.8277 112.144 19.3439C112.208 19.8021 112.277 20.2487 112.37 20.6837" stroke="black" stroke-linecap="round" stroke-linejoin="round"/>
<path d="M169.112 117.034C165.029 114.123 168.665 107.818 173.253 109.715L192.341 117.626C196.755 119.453 195.218 126.233 190.323 125.729C190.305 125.729 190.294 125.729 190.276 125.734C190.265 125.752 190.253 125.758 190.247 125.775C190.241 125.787 190.241 125.804 190.241 125.816C190.247 125.839 190.253 125.85 190.27 125.862C190.966 126.442 191.454 127.225 191.668 128.095C191.883 128.977 191.807 129.893 191.454 130.728C191.106 131.558 190.497 132.254 189.719 132.712C188.948 133.17 188.037 133.373 187.138 133.274C187.127 133.274 187.109 133.274 187.098 133.28C187.08 133.292 187.075 133.303 187.069 133.321C187.057 133.332 187.057 133.35 187.069 133.361C187.069 133.379 187.075 133.396 187.086 133.408C190.81 136.383 187.22 142.427 182.725 140.559C177.893 138.593 181.628 140.142 163.637 132.648C159.136 130.78 160.818 123.838 165.928 124.621C162.425 122.121 164.495 116.669 169.112 117.034Z" fill="#FD9DA6"/>
<path d="M183.242 122.955L169.113 117.033" stroke="black" stroke-linecap="round" stroke-linejoin="round"/>
<path d="M165.926 124.621L180.06 130.502" stroke="black" stroke-linecap="round" stroke-linejoin="round"/>
<path d="M483.495 273.012C478.228 285.459 463.253 295.58 450.081 295.58H276.412C263.24 295.58 256.819 285.459 262.08 273.012L298.405 187.091C303.672 174.644 318.647 164.523 331.819 164.523H505.494C518.66 164.523 525.087 174.644 519.82 187.091L483.495 273.012Z" fill="#E98E07"/>
<path d="M293.934 197.676L388.039 228.961C389.912 229.582 392.22 229.582 394.622 228.961L515.343 197.676" stroke="black" stroke-linecap="round" stroke-linejoin="round"/>
<path d="M484.353 270.989L442.129 217.443" stroke="black" stroke-linecap="round" stroke-linejoin="round"/>
<path d="M262.938 270.989L350.5 216.51" stroke="black" stroke-linecap="round" stroke-linejoin="round"/>
<path d="M613.08 394.633H1" stroke="black" stroke-linecap="round" stroke-linejoin="round"/>
</svg>
