<svg width="362" height="215" viewBox="0 0 362 215" fill="none" xmlns="http://www.w3.org/2000/svg">
<path d="M59.5039 172.103C59.5039 189.236 73.3876 203.123 90.5201 203.123C107.653 203.123 121.536 189.236 121.536 172.103V140.641H59.5039V172.103Z" fill="#0152BF"/>
<path d="M67.8996 111.637C52.7856 112.98 38.0052 118.468 26.0233 127.76C14.0414 137.056 4.97061 150.269 1.27552 165.049C0.27033 169.416 -0.401138 173.895 0.27033 178.261C1.05438 182.628 3.18137 186.994 6.87645 189.346C10.459 191.811 15.1632 192.37 19.4172 191.586C23.6712 190.689 27.5914 188.675 31.1739 186.323C36.0994 182.966 40.4659 178.82 44.161 174.12C54.2411 161.129 58.7202 144.109 70.7021 132.802C72.9417 130.784 75.4024 128.882 77.083 126.53C78.8763 124.065 79.8815 120.933 78.8763 118.018C77.1956 114.102 74.7309 110.853 67.8996 111.637Z" fill="#007D38"/>
<path d="M84.6978 95.4029C85.4819 97.4173 86.2659 99.6569 88.0552 100.779C90.0736 102.009 92.6469 101.45 94.6613 100.328C98.3564 98.2013 100.821 94.2851 102.614 90.586C104.516 86.6698 105.972 82.6369 108.436 79.0544C113.137 71.8894 119.743 66.1759 126.574 61.1379C133.631 55.9873 140.908 51.1745 147.289 45.2398C150.872 41.8785 154.233 38.1834 157.031 34.1546C159.942 30.0092 162.632 25.53 164.422 20.9383C166.102 16.3506 165.99 11.7589 163.304 7.61348C160.726 4.03098 156.806 1.57028 152.552 0.56107C147.514 -0.560723 142.026 0.114757 137.1 1.57027C132.734 2.80063 128.593 4.59389 124.672 6.72087C116.832 11.0874 109.892 17.2432 104.178 24.1871C98.0226 31.8024 93.2058 40.6481 89.7358 49.719C88.7266 52.5174 87.7214 55.2033 86.8248 58.0017C83.0171 69.9836 82.3457 82.9747 84.6978 95.4029Z" fill="#007D38"/>
<path d="M67.5649 81.2919C62.6395 76.3665 53.3434 62.2576 46.291 60.9147C34.084 58.45 25.0131 72.8926 30.5015 83.7567C35.0932 92.8235 58.1603 104.472 65.8842 102.007C74.9551 99.0959 77.1946 91.0343 67.5649 81.2919Z" fill="#007D38"/>
<path d="M51.3301 86.1094C51.3301 86.1094 90.5205 101.336 90.5205 125.634" stroke="black" stroke-width="1.5" stroke-linecap="round" stroke-linejoin="round"/>
<path d="M107.879 59.125C88.1688 77.0415 90.6335 110.185 90.6335 110.185V142.21C90.6335 122.279 76.1869 116.566 76.1869 116.566C76.1869 116.566 54.6879 112.537 28.8223 152.624" stroke="black" stroke-width="1.5" stroke-linecap="round" stroke-linejoin="round"/>
<path d="M90.5215 125.521C90.5215 125.521 101.048 103.017 114.373 100.777" stroke="black" stroke-width="1.5" stroke-linecap="round" stroke-linejoin="round"/>
<path d="M146.284 114.998C143.932 110.293 139.787 106.824 135.308 104.021C130.72 101.223 125.678 99.6545 120.419 99.2082C117.283 98.983 114.93 99.3208 112.019 100.776C111.46 101.11 111.46 101.781 112.132 102.119C116.498 103.912 121.09 107.716 123.442 111.411C126.241 115.778 128.927 119.811 131.279 124.177C132.509 126.417 133.852 128.769 135.758 130.45C137.66 132.126 140.571 133.023 142.81 132.126C144.604 131.455 145.834 129.887 146.731 128.21C148.858 124.29 148.299 119.139 146.284 114.998Z" fill="#007D38"/>
<path d="M111.795 101.561C121.537 101.336 132.622 107.158 136.655 116.116" stroke="black" stroke-width="1.5" stroke-linecap="round" stroke-linejoin="round"/>
<path d="M258.882 58.9442L244.383 44.4453" stroke="black" stroke-width="1.5" stroke-linecap="round" stroke-linejoin="round"/>
<path d="M255.831 64.9375H238.715" stroke="black" stroke-width="1.5" stroke-linecap="round" stroke-linejoin="round"/>
<path d="M242.53 192.807H247.653L266.731 100.04C257.138 96.6624 250.27 87.5031 250.27 76.8239C250.27 63.4146 260.953 52.5144 274.25 52.1847L289.079 37.9069C289.73 37.2515 290.928 37.9069 290.711 38.7794L286.678 55.1278C287.117 55.349 287.659 55.6747 288.098 56.0004L300.088 44.4447C300.743 43.7933 301.941 44.4447 301.724 45.3172L296.819 65.1597C298.668 68.6457 299.762 72.5699 299.762 76.8239C299.762 84.2342 296.489 90.776 291.367 95.3556C291.584 101.785 294.635 107.997 298.56 113.232C303.139 119.227 308.917 124.132 314.148 129.584C323.742 139.612 331.482 151.711 333.991 165.337C339.222 162.177 343.58 157.597 346.306 152.149C350.994 142.99 351.103 131.655 346.523 122.496C343.91 117.156 339.877 112.577 337.477 107.128C334.972 101.459 334.316 95.0259 335.623 89.0309C337.151 82.272 341.948 75.5131 348.924 74.8618C353.612 74.4235 358.409 77.1496 360.479 81.3995C362.442 85.4324 361.786 90.2291 360.588 94.5917C359.39 98.9502 357.645 103.204 357.315 107.671C356.881 113.232 358.734 118.572 359.824 124.024C362.22 135.796 361.461 148.442 355.9 159.016C351.429 167.408 343.693 174.275 334.751 177.11C334.099 187.359 330.284 197.387 322.869 204.363H272.071H268.147H242.313C239.149 204.363 236.535 201.745 236.644 198.476C236.752 195.207 239.479 192.807 242.53 192.807Z" fill="#FFC000"/>
<path d="M275.014 126.527V188.009C275.014 191.282 272.288 194.008 269.02 194.008H268.038C265.204 194.008 262.916 196.296 262.916 199.13C262.916 201.965 265.204 204.47 268.038 204.47" stroke="black" stroke-width="1.5" stroke-linecap="round" stroke-linejoin="round"/>
<path d="M289.73 126.527C284.061 137.319 282.754 150.186 285.372 162.175C287.985 174.057 294.201 185.066 302.376 194.116C300.305 194.876 298.017 194.876 295.838 195.206C293.655 195.532 291.367 196.187 289.947 197.82C288.532 199.565 288.423 203.272 290.386 204.47" stroke="black" stroke-width="1.5" stroke-linecap="round" stroke-linejoin="round"/>
<path d="M267.273 152.148L256.59 204.254" stroke="black" stroke-width="1.5" stroke-linecap="round" stroke-linejoin="round"/>
<path d="M266.839 65.4858C269.432 65.4858 271.527 63.391 271.527 60.7976C271.527 58.2163 269.432 56.1094 266.839 56.1094C264.253 56.1094 262.15 58.2163 262.15 60.7976C262.15 63.391 264.253 65.4858 266.839 65.4858Z" fill="#715F29"/>
<path d="M258.883 67.9961C262.916 70.7182 268.585 70.9393 272.835 68.6475" stroke="black" stroke-width="1.5" stroke-linecap="round" stroke-linejoin="round"/>
<path d="M283.301 71.3703L311.643 63.3047" stroke="black" stroke-width="1.5" stroke-linecap="round" stroke-linejoin="round"/>
<path d="M283.301 77.4727H311.643" stroke="black" stroke-width="1.5" stroke-linecap="round" stroke-linejoin="round"/>
<path d="M266.73 100.039C269.344 100.694 272.179 100.694 274.905 100.148" stroke="black" stroke-width="1.5" stroke-linecap="round" stroke-linejoin="round"/>
<path d="M280.027 52.7305C285.588 53.603 290.711 56.9804 293.654 61.7772" stroke="black" stroke-width="1.5" stroke-linecap="round" stroke-linejoin="round"/>
<path d="M333.99 165.445C334.316 166.865 334.424 168.171 334.424 169.699" stroke="black" stroke-width="1.5" stroke-linecap="round" stroke-linejoin="round"/>
<path d="M107.99 108.5H196.708C199.961 108.5 202.804 110.535 203.945 113.622L231.021 190.873H294.529C297.862 190.873 300.548 193.555 300.548 196.893C300.548 200.226 297.862 202.908 294.529 202.908H235.251H225.493H141.495C137.997 202.908 134.989 200.712 133.851 197.459L104.496 113.542C103.599 111.021 105.388 108.5 107.99 108.5Z" fill="#F16B07"/>
<path d="M231.021 190.875L235.171 202.829" stroke="black" stroke-width="1.5" stroke-linecap="round" stroke-linejoin="round"/>
<path d="M154.341 157.613C152.632 150.786 156.536 145.418 163.122 145.418C169.708 145.418 176.62 150.786 178.735 157.613C180.93 164.69 177.191 170.624 170.199 170.624C163.287 170.624 156.13 164.69 154.341 157.613Z" fill="#FBBD8F"/>
<path d="M355.66 202.461H45.345C41.8576 202.461 39.002 205.135 39.002 208.408C39.002 211.681 41.8576 214.358 45.345 214.358H355.66C359.148 214.358 362 211.681 362 208.408C362 205.135 359.148 202.461 355.66 202.461Z" fill="#A59E9F"/>
</svg>
