<svg width="693" height="160" viewBox="0 0 693 160" fill="none" xmlns="http://www.w3.org/2000/svg">
<path d="M693.001 87L552.282 48L535.001 79.3773L693.001 87Z" fill="black"/>
<path d="M296.993 79.0083C296.854 74.7915 293.825 71.2299 290.177 71.0115C286.527 70.7931 283.429 73.7752 282.673 77.6265C282.673 77.7 282.603 77.7736 282.466 77.7736C282.397 77.7736 282.327 77.7 282.327 77.6265C281.639 73.7016 278.542 70.7931 274.823 71.0115C271.175 71.2299 268.146 74.7202 268.007 79.0083C267.94 80.7534 268.351 82.4985 269.246 84.0252C269.66 84.7518 270.211 85.4784 270.899 85.9866L281.227 96.4551C281.915 97.1816 283.085 97.1816 283.842 96.4551L294.169 85.9866C294.789 85.4049 295.34 84.7518 295.821 84.0252C296.649 82.4985 297.06 80.7534 296.993 79.0083Z" fill="#0152BF"/>
<path d="M181.99 78.1363C181.803 74.5451 178.978 71.8078 175.663 72.0106C172.349 72.2111 169.825 75.2728 170.01 78.864C170.197 82.4551 173.022 85.1902 176.337 84.9896C179.651 84.7891 182.175 81.7274 181.99 78.1363Z" fill="#F16B07"/>
<path d="M476.991 31.1351C476.804 27.5445 473.979 24.8099 470.664 25.0104C467.35 25.2131 464.825 28.2743 465.011 31.8649C465.198 35.4555 468.023 38.1901 471.338 37.9896C474.652 37.7869 477.176 34.7257 476.991 31.1351Z" fill="#F16B07"/>
<path d="M278.99 48.1362C278.805 44.5451 275.979 41.8078 272.664 42.0106C269.349 42.2111 266.823 45.2727 267.01 48.8638C267.195 52.4549 270.021 55.1922 273.336 54.9894C276.651 54.7889 279.177 51.7273 278.99 48.1362Z" fill="#F16B07"/>
<path d="M348.456 93.9631C346.337 93.9631 344.545 91.0711 344.545 87.5358C344.545 87.213 344.326 87 344.001 87C343.674 87 343.458 87.213 343.458 87.5358C343.458 90.9636 341.663 93.9631 339.544 93.9631C339.218 93.9631 339 94.1783 339 94.4989C339 94.8217 339.218 95.0347 339.544 95.0347C341.663 95.0347 343.458 97.9267 343.458 101.464C343.458 101.785 343.674 102 344.001 102C344.326 102 344.545 101.785 344.545 101.464C344.545 98.0343 346.337 95.0347 348.456 95.0347C348.782 95.0347 349 94.8217 349 94.4989C349 94.1783 348.782 93.9631 348.456 93.9631Z" fill="#F16B07"/>
<path d="M367.456 83.9653C365.337 83.9653 363.545 81.0711 363.545 77.5358C363.545 77.2152 363.326 77 363.001 77C362.674 77 362.458 77.2152 362.458 77.5358C362.458 80.9657 360.663 83.9653 358.544 83.9653C358.218 83.9653 358 84.1783 358 84.5011C358 84.8217 358.218 85.0369 358.544 85.0369C360.663 85.0369 362.458 87.9288 362.458 91.4642C362.458 91.787 362.674 92 363.001 92C363.326 92 363.545 91.787 363.545 91.4642C363.545 88.0364 365.337 85.0369 367.456 85.0369C367.784 85.0369 368 84.8217 368 84.5011C368 84.1783 367.784 83.9653 367.456 83.9653Z" fill="#F16B07"/>
<path d="M263 63.8868C263 63.8868 258.718 68.5204 253.857 73.5908C252.558 75.0054 251.162 76.42 249.863 77.7856C245.102 82.7089 240.819 87.0486 240.433 86.9996C239.567 86.8057 196.023 86.9996 196.023 86.9996L191.211 76.469L188.901 71.3965L180 51.8926L195.975 37.361L197.947 35.6056L206.32 28L214.594 29.2186L218.973 29.9003L241.059 33.2174L263 63.8868Z" fill="#F16B07"/>
<path d="M213 60C217 60 217 54 213 54C209 54 209 60 213 60Z" fill="black"/>
<path d="M207.5 83C210.833 83 210.833 77 207.5 77C204.167 77 204.167 83 207.5 83Z" fill="black"/>
<path d="M222 73C226 73 226 67 222 67C218 67 218 73 222 73Z" fill="black"/>
<path d="M247.999 63C252 63 252 56 247.999 56C244 56 244 63 247.999 63Z" fill="black"/>
<path d="M234 81C238 81 238 75 234 75C230 75 230 81 234 81Z" fill="black"/>
<path d="M233 58C237 58 237 51 233 51C229 51 229 58 233 58Z" fill="black"/>
<path d="M240 44C244 44 244 38 240 38C236 38.0479 236 44 240 44Z" fill="black"/>
<path d="M199.008 41C196.446 41 195.559 38.5721 196.2 36.81L198.219 35.0957C198.466 35.0478 198.711 35 199.008 35C202.997 35 202.997 41 199.008 41Z" fill="black"/>
<path d="M222 48C226 48 226 41 222 41C218 41 218 48 222 48Z" fill="black"/>
<path d="M195 59C199 59 199 53 195 53C191 53 191 59 195 59Z" fill="black"/>
<path d="M254 73.6633C252.823 75.1257 251.559 76.5882 250.383 78C248.161 76.6873 248.641 71.9497 251.647 72.0004C252.823 72.0511 253.608 72.7052 254 73.6633Z" fill="black"/>
<path d="M191.241 76L189 71.0465C189.467 70.4286 190.213 70 191.194 70C194.927 70 194.927 75.9043 191.241 76Z" fill="black"/>
<path d="M217.004 34C213.848 34 213.158 30.428 215.033 29L219.52 29.6243C220.653 31.2766 219.766 34 217.004 34Z" fill="black"/>
<path d="M91.4989 12C76.3088 12 64 24.5325 64 40.0011C64 55.4674 76.3088 68 91.4989 68C106.691 68 119 55.4674 119 40.0011C119 24.5325 106.691 12 91.4989 12ZM91.4989 55.521C83.0672 55.521 76.2561 48.5861 76.2561 40.0011C76.2561 31.4139 83.0672 24.479 91.4989 24.479C99.9328 24.479 106.744 31.4139 106.744 40.0011C106.744 48.5861 99.8802 55.521 91.4989 55.521Z" fill="#007D38"/>
<path d="M243 20.7832C239.571 29.2625 230.153 33.2445 221.92 29.7127C213.687 26.1787 209.821 16.4794 213.25 8L243 20.7832Z" fill="#0152BF"/>
<path d="M216.821 107L213 103.934L221.177 73L225 76.0659L216.821 107Z" fill="#0152BF"/>
<path d="M175.369 146.572C162.591 120.208 132.707 98.3205 95.0342 91.174C57.3612 84.0275 21.7017 93.4816 0.398284 113.38L175.369 146.572Z" fill="#0152BF"/>
<path d="M60.5121 89.1529C56.4706 94.4417 50.5945 98.3535 44.5889 99.8792C37.8354 101.625 29.5911 100.283 22.9367 98.5487" stroke="black" stroke-width="1.5" stroke-linecap="round" stroke-linejoin="round"/>
<path d="M22.3147 117.537C27.6113 113.681 34.1339 111.114 40.5972 110.203C48.173 109.14 55.9042 109.885 63.3483 111.602C67.4616 112.549 71.4981 113.758 75.6938 114.249C78.7487 114.606 81.8255 114.552 84.8837 114.298C98.3932 113.279 111.994 108.528 122.219 99.58" stroke="black" stroke-width="1.5" stroke-linecap="round" stroke-linejoin="round"/>
<path d="M127.923 102.053C119.272 107.466 113.131 115.771 106.247 123.379C103.692 126.2 100.691 129.38 97.7243 131.789" stroke="black" stroke-width="1.5" stroke-linecap="round" stroke-linejoin="round"/>
<path d="M156.162 121.379C149.47 125.886 144.104 132.476 141.082 140.041" stroke="black" stroke-width="1.5" stroke-linecap="round" stroke-linejoin="round"/>
<path d="M439.001 137.29C445.382 141.516 453.663 143.549 461.504 142.872C467.987 142.323 474.265 139.968 480.001 137" stroke="black" stroke-width="1.5" stroke-linecap="round" stroke-linejoin="round"/>
<path d="M414.796 0L385 4.42437L387.819 32.826L410.229 45L434 27.2061L414.796 0Z" fill="#007D38"/>
<path d="M386 15.538C393.842 11.6434 397.453 10.1813 405.618 7C401.194 14.1094 396.508 21.0577 391.596 27.845C400.672 24.0446 409.718 20.2796 418.794 16.4792C414.012 22.9736 409.229 29.4346 404.48 35.9291C410.985 32.9423 417.493 29.9554 424 26.9352C420.81 36.3516 420.584 37 420.584 37" stroke="black" stroke-width="1.5" stroke-linecap="round" stroke-linejoin="round"/>
<path d="M392.599 110C391.516 110 390.435 109.762 389.42 109.281C385.601 107.5 383.944 102.909 385.702 99.0396C392.225 84.7219 405.14 66.3603 429.547 60.2284C433.636 59.2015 437.761 61.7359 438.775 65.8479C439.788 69.9918 437.287 74.1697 433.231 75.1988C414.672 79.8572 404.666 94.2429 399.527 105.514C398.243 108.322 395.471 110 392.599 110Z" fill="#FFC20F"/>
<path d="M511.293 99.3522C508.622 95.8017 504.882 93.5737 501.243 91.3111C498.205 89.3943 495.368 87.1663 494.064 83.9637C492.597 80.3787 492.73 76.8606 494.133 73.31C494.933 71.2225 493.231 68.7158 491.327 68.1582C489.025 67.497 487.222 68.9924 486.387 71.082C482.982 79.8211 486.086 89.9864 493.13 95.6612C496.369 98.2739 500.275 99.9098 503.346 102.695C506.251 105.34 507.886 109.031 507.988 112.964C508.121 118.328 516.134 118.362 515.999 112.964C515.867 107.988 514.265 103.287 511.293 99.3522Z" fill="#F16B07"/>
</svg>
