<svg width="538" height="295" viewBox="0 0 538 295" fill="none" xmlns="http://www.w3.org/2000/svg">
<path d="M424.041 217.631C423.967 212.791 423.857 207.828 422.499 203.196C421.175 198.561 418.457 194.214 414.456 192.244C410.489 190.275 405.2 191.218 402.704 195.199C400.977 197.903 401.124 202.375 403.767 203.934C404.539 204.383 405.421 204.55 406.266 204.466C409.021 204.303 411.408 201.884 412.29 198.971C413.169 196.059 412.692 192.777 411.442 190.031C408.323 183.262 400.279 179.981 394 182.935" stroke="#414860" stroke-width="1.5" stroke-linecap="round" stroke-linejoin="round"/>
<path d="M1 187.318L30.7401 200.608" stroke="#CA3F94" stroke-width="1.5" stroke-linecap="round" stroke-linejoin="round"/>
<path d="M1.25977 201.323L30.4751 186.688" stroke="#CA3F94" stroke-width="1.5" stroke-linecap="round" stroke-linejoin="round"/>
<path d="M22.1386 210.466L9.5957 177.549" stroke="#CA3F94" stroke-width="1.5" stroke-linecap="round" stroke-linejoin="round"/>
<path d="M21.8353 177.379L9.89453 210.632" stroke="#CA3F94" stroke-width="1.5" stroke-linecap="round" stroke-linejoin="round"/>
<path d="M172.875 119.026C172.875 119.026 211.42 212.83 350.788 177.649L172.875 119.026Z" fill="black" stroke="black" stroke-width="1.5"/>
<path d="M215.109 139.831L218.416 146.35" stroke="black" stroke-width="1.5" stroke-linecap="round" stroke-linejoin="round"/>
<path d="M228.116 163.413L224.338 166.338" stroke="black" stroke-width="1.5" stroke-linecap="round" stroke-linejoin="round"/>
<path d="M248.807 153.3L255.03 155.6" stroke="black" stroke-width="1.5" stroke-linecap="round" stroke-linejoin="round"/>
<path d="M258.936 167.968V175.108" stroke="black" stroke-width="1.5" stroke-linecap="round" stroke-linejoin="round"/>
<path d="M280.613 161.449L274.344 165.522" stroke="black" stroke-width="1.5" stroke-linecap="round" stroke-linejoin="round"/>
<path d="M282.197 178.175L284.771 182.92" stroke="black" stroke-width="1.5" stroke-linecap="round" stroke-linejoin="round"/>
<path d="M297.223 169.547L301.858 176.164" stroke="black" stroke-width="1.5" stroke-linecap="round" stroke-linejoin="round"/>
<path d="M197.857 130.578L199.445 135.948" stroke="black" stroke-width="1.5" stroke-linecap="round" stroke-linejoin="round"/>
<path d="M206.698 145.63L200.818 149.465" stroke="black" stroke-width="1.5" stroke-linecap="round" stroke-linejoin="round"/>
<path d="M229.922 150.902L233.998 158.429" stroke="black" stroke-width="1.5" stroke-linecap="round" stroke-linejoin="round"/>
<path d="M324.132 174.485L322.115 180.909" stroke="black" stroke-width="1.5" stroke-linecap="round" stroke-linejoin="round"/>
<path d="M341.775 87.9648C329.328 87.9648 319.238 99.2287 319.238 113.132C319.238 127.031 329.328 138.295 341.775 138.295C354.222 138.295 364.308 127.031 364.308 113.132C364.308 99.2287 354.222 87.9648 341.775 87.9648ZM341.775 127.079C334.864 127.079 329.282 120.846 329.282 113.132C329.282 105.414 334.864 99.1811 341.775 99.1811C348.685 99.1811 354.264 105.414 354.264 113.132C354.264 120.846 348.64 127.079 341.775 127.079Z" fill="#0152BF"/>
<path d="M229.897 262.229C231.722 262.229 233.204 260.575 233.204 258.54C233.204 256.502 231.722 254.848 229.897 254.848C228.075 254.848 226.594 256.502 226.594 258.54C226.594 260.575 228.075 262.229 229.897 262.229Z" fill="#E5CFBF"/>
<path d="M151.34 200.469C155.392 200.469 158.68 196.798 158.68 192.273C158.68 187.75 155.392 184.079 151.34 184.079C147.288 184.079 144 187.75 144 192.273C144 196.798 147.288 200.469 151.34 200.469Z" fill="#CA3F94"/>
<path d="M336.074 172.417C340.483 172.417 344.058 168.424 344.058 163.503C344.058 158.579 340.483 154.59 336.074 154.59C331.667 154.59 328.092 158.579 328.092 163.503C328.092 168.424 331.667 172.417 336.074 172.417Z" fill="#E98E07"/>
<path d="M73.7712 276.252C79.7203 276.252 84.5425 270.867 84.5425 264.224C84.5425 257.58 79.7203 252.195 73.7712 252.195C67.8248 252.195 63 257.58 63 264.224C63 270.867 67.8248 276.252 73.7712 276.252Z" fill="#FFB177"/>
<path d="M533.863 226.203C535.997 226.203 537.726 224.272 537.726 221.889C537.726 219.509 535.997 217.578 533.863 217.578C531.732 217.578 530 219.509 530 221.889C530 224.272 531.732 226.203 533.863 226.203Z" fill="#639579"/>
<path d="M302.857 213.824C306.558 213.824 309.552 210.48 309.552 206.348C309.552 202.221 306.558 198.871 302.857 198.871C299.159 198.871 296.162 202.221 296.162 206.348C296.162 210.48 299.159 213.824 302.857 213.824Z" fill="#CA3F94"/>
<path d="M461.6 174.91L436.62 158.684L470.462 81.7319L495.442 97.9575L461.6 174.91Z" fill="#E98E07"/>
<path d="M457.159 259.035C457.798 259.035 458.318 258.455 458.318 257.74C458.318 257.026 457.798 256.446 457.159 256.446C456.52 256.446 456 257.026 456 257.74C456 258.455 456.52 259.035 457.159 259.035Z" fill="#CA3F94"/>
<path d="M462.651 251.848C464.098 251.848 465.27 250.539 465.27 248.924C465.27 247.308 464.098 245.999 462.651 245.999C461.205 245.999 460.035 247.308 460.035 248.924C460.035 250.539 461.205 251.848 462.651 251.848Z" fill="#CA3F94"/>
<path d="M488.667 265.985C494.022 265.985 498.367 261.136 498.367 255.153C498.367 249.173 494.022 244.32 488.667 244.32C483.309 244.32 478.967 249.173 478.967 255.153C478.967 261.136 483.309 265.985 488.667 265.985Z" fill="#CA3F94"/>
<path d="M473.814 248.013C476.848 248.013 479.307 245.264 479.307 241.875C479.307 238.486 476.848 235.74 473.814 235.74C470.779 235.74 468.32 238.486 468.32 241.875C468.32 245.264 470.779 248.013 473.814 248.013Z" fill="#CA3F94"/>
<path d="M213.477 83.1964L243.867 121.448L287.559 123.459L316.319 85.8324L292.195 41.0654C292.195 41.0654 237.686 48.4944 236.57 48.3516C235.411 48.3039 213.477 83.1964 213.477 83.1964Z" fill="#CA3F94"/>
<path d="M273.74 43.606C277.132 45.6648 281.08 46.6734 284.943 46.3372C287.903 46.0962 290.823 45.1382 293.442 43.5078" stroke="#414860" stroke-width="1.5" stroke-linecap="round" stroke-linejoin="round"/>
<path d="M297.132 50.4102C293.527 56.7859 287.86 61.674 281.336 63.6406C274.47 65.75 267.173 64.6938 260.046 65.271C251.076 65.988 242.063 69.3916 235.326 76.1035C229.744 81.664 225.838 89.5719 225.324 97.8161" stroke="#414860" stroke-width="1.5" stroke-linecap="round" stroke-linejoin="round"/>
<path d="M300.954 57.5059C297.65 63.352 292.927 68.7221 287.734 72.6047C281.468 77.3024 274.341 80.3698 267.99 84.9218C256.571 93.1183 248.161 106.349 244.727 121.016" stroke="#414860" stroke-width="1.5" stroke-linecap="round" stroke-linejoin="round"/>
<path d="M315.974 85.8789C307.947 87.8455 299.491 90.3862 292.41 94.9382C288.246 97.6248 284.425 101.076 281.721 105.485C278.676 110.421 277.216 116.749 277.386 122.741" stroke="#414860" stroke-width="1.5" stroke-linecap="round" stroke-linejoin="round"/>
<path d="M257.688 45.9062C255.929 48.7832 252.881 53.2876 250.262 55.2036C243.781 59.9995 235.583 62.7307 228.115 60.9575" stroke="#414860" stroke-width="1.5" stroke-linecap="round" stroke-linejoin="round"/>
<path d="M391.519 36.9697C395.297 41.8103 397.615 48.0878 397.615 55.0378C397.615 70.1842 386.625 82.4567 373.062 82.4567C371.647 82.4567 370.272 82.3109 368.9 82.0729C373.406 87.8238 380.015 91.4208 387.355 91.4208C400.918 91.4208 411.908 79.1483 411.908 64.0019C411.908 50.4382 403.108 39.1743 391.519 36.9697Z" fill="black"/>
<path d="M388.688 36.0088C392.463 40.8523 394.781 47.1299 394.781 54.0798C394.781 69.2262 383.794 81.4987 370.231 81.4987C368.813 81.4987 367.441 81.3529 366.066 81.1149C370.574 86.8658 377.184 90.4598 384.524 90.4598C398.087 90.4598 409.074 78.1903 409.074 63.0439C409.074 49.4802 400.277 38.2134 388.688 36.0088Z" fill="#FFC20F"/>
<path d="M143.62 67.6933L119.24 71.912L123.234 44.6389L123.103 44.5913L108.898 66.7829C102.373 56.4294 94.8605 44.4961 94.8605 44.4961L94.7326 44.5437L98.4677 71.8168L74.0453 67.3571L74 67.5029L93.96 83.4645L74 99.4737L74.0453 99.6165L98.1241 95.1598C96.1499 107.623 93.9173 122.001 93.9173 122.001L94.0452 122.049L108.682 99.8099L123.103 122.239L123.234 122.192L119.24 95.3026C130.4 97.5072 143.276 100 143.276 100L143.322 99.8575L123.532 83.6073C132.846 76.3212 143.663 67.8391 143.663 67.8391L143.62 67.6933Z" fill="#E98E07"/>
<path d="M271.463 0.946289L264.123 3.43946L261.291 8.66381L265.583 14.2719L272.108 14.9919L275.454 7.32202L271.463 0.946289Z" fill="black"/>
<path d="M287.087 30.7123L280.651 39.2927L279.106 41.3039L277.217 43.8446L266.227 45.0912L263.909 45.3798L257.001 46.1474L252.536 37.2785L251.334 34.8835L248.201 28.5554L253.138 21.9416L254.726 19.8323L259.575 13.3613L265.412 14.0783L269.533 14.5097L271.851 14.7983L272.195 14.8459L277.773 15.4707L280.52 19.9751L281.852 22.1796L284.727 26.8774L284.77 26.925L285.585 28.3144L287.087 30.7123Z" fill="#0152BF"/>
<path d="M265.414 34.2107C267.001 34.2107 267.001 31.4795 265.414 31.4795C263.826 31.4795 263.826 34.2107 265.414 34.2107Z" fill="#FFC20F"/>
<path d="M252.536 37.2788L251.334 34.8838C251.504 34.738 251.763 34.6904 252.021 34.6904C253.436 34.6904 253.567 36.7522 252.536 37.2788Z" fill="#FFC20F"/>
<path d="M258.415 35.4099C260.003 35.4099 260.003 32.6787 258.415 32.6787C256.828 32.6787 256.828 35.4099 258.415 35.4099Z" fill="#FFC20F"/>
<path d="M263.865 27.4519C265.453 27.4519 265.453 24.7207 263.865 24.7207C262.277 24.7207 262.277 27.4519 263.865 27.4519Z" fill="#FFC20F"/>
<path d="M266.227 45.0923L263.909 45.3333C263.824 44.5657 264.167 43.6553 265.068 43.6553C265.841 43.7029 266.227 44.3753 266.227 45.0923Z" fill="#FFC20F"/>
<path d="M268.332 40.0603C269.919 40.0603 269.919 37.3262 268.332 37.3262C266.744 37.3262 266.744 40.0603 268.332 40.0603Z" fill="#FFC20F"/>
<path d="M272.193 32.9167C273.781 32.9167 273.781 30.1855 272.193 30.1855C270.605 30.1855 270.605 32.9167 272.193 32.9167Z" fill="#FFC20F"/>
<path d="M281.854 22.1794C281.681 22.468 281.337 22.706 280.908 22.706C279.494 22.706 279.363 20.4063 280.522 20.0225L281.854 22.1794Z" fill="#FFC20F"/>
<path d="M285.583 28.3149C285.54 28.9873 285.154 29.6091 284.382 29.6091C282.836 29.6091 282.836 26.8779 284.382 26.8779C284.467 26.8779 284.597 26.8779 284.725 26.9255L284.768 26.9731L285.583 28.3149Z" fill="#FFC20F"/>
<path d="M278.503 28.2669C280.091 28.2669 280.091 25.5358 278.503 25.5358C276.916 25.4882 276.916 28.2669 278.503 28.2669Z" fill="#FFC20F"/>
<path d="M280.177 34.5945C281.767 34.5945 281.767 31.8633 280.177 31.8633C278.632 31.8633 278.589 34.5945 280.177 34.5945Z" fill="#FFC20F"/>
<path d="M270.691 26.0154C272.278 26.0154 272.278 23.2842 270.691 23.2842C269.145 23.2842 269.103 26.0154 270.691 26.0154Z" fill="#FFC20F"/>
<path d="M265.414 19.9759C267.001 19.9759 267.001 17.2447 265.414 17.2447C263.826 17.1971 263.826 19.9759 265.414 19.9759Z" fill="#FFC20F"/>
<path d="M270.691 16.2861C269.746 16.2861 269.359 15.3728 269.532 14.5605L271.85 14.8462C271.935 15.5185 271.549 16.2861 270.691 16.2861Z" fill="#FFC20F"/>
<path d="M275.111 21.0789C276.699 21.0789 276.699 18.3447 275.111 18.3447C273.523 18.3447 273.523 21.0789 275.111 21.0789Z" fill="#FFC20F"/>
<path d="M260.774 17.7224C262.362 17.7224 262.362 14.9912 260.774 14.9912C259.229 14.9912 259.229 17.7224 260.774 17.7224Z" fill="#FFC20F"/>
<path d="M253.912 30.2331C255.499 30.2331 255.499 27.502 253.912 27.502C252.321 27.502 252.321 30.2331 253.912 30.2331Z" fill="#FFC20F"/>
<path d="M259.574 42.5984C261.162 42.5984 261.162 39.8672 259.574 39.8672C257.986 39.8672 257.986 42.5984 259.574 42.5984Z" fill="#FFC20F"/>
<path d="M280.652 39.2932L279.107 41.355C278.161 40.7778 278.334 38.8142 279.663 38.7666C280.135 38.7666 280.436 38.957 280.652 39.2932Z" fill="#FFC20F"/>
<path d="M274.382 40.6345C275.973 40.6345 275.973 37.9033 274.382 37.9033C272.794 37.9033 272.794 40.6345 274.382 40.6345Z" fill="#FFC20F"/>
<path d="M253.866 22.1794C253.568 22.1794 253.352 22.0842 253.182 21.9414L254.769 19.832C255.326 20.5996 255.025 22.1794 253.866 22.1794Z" fill="#FFC20F"/>
<path d="M258.843 23.2361C260.431 23.2361 260.431 20.502 258.843 20.502C257.255 20.502 257.255 23.2361 258.843 23.2361Z" fill="#FFC20F"/>
<path d="M258.909 150.808L253.975 146.589L264.533 104.023L269.469 108.242L258.909 150.808Z" fill="#0152BF"/>
<path d="M409.001 293.751C378.232 252.433 319.059 224.439 251.036 224.439C183.014 224.439 123.841 252.433 93.0723 293.751H409.001Z" fill="#0152BF"/>
<path d="M190.161 232.253C184.81 242.705 175.817 251.38 165.83 255.98C154.609 261.204 139.794 261.588 127.627 260.773" stroke="black" stroke-width="1.5" stroke-linecap="round" stroke-linejoin="round"/>
<path d="M132.646 293.752C140.647 285.362 151.201 278.796 162.184 275.106C175.06 270.792 188.787 269.546 202.326 270.072C209.807 270.361 217.238 271.126 224.715 270.599C230.16 270.215 235.51 269.114 240.764 267.674C264.005 261.492 286.206 248.839 301.168 230.048" stroke="black" stroke-width="1.5" stroke-linecap="round" stroke-linejoin="round"/>
<path d="M311.913 232.446C298.562 244.621 290.517 260.966 280.953 276.35C277.404 282.057 273.191 288.528 268.789 293.657" stroke="black" stroke-width="1.5" stroke-linecap="round" stroke-linejoin="round"/>
<path d="M367.393 256.557C357.168 266.526 349.925 279.659 347.084 293.704" stroke="black" stroke-width="1.5" stroke-linecap="round" stroke-linejoin="round"/>
<path d="M220.314 226.405C229.214 232.683 240.764 235.702 251.7 234.697C260.741 233.882 269.497 230.383 277.498 225.974" stroke="black" stroke-width="1.5" stroke-linecap="round" stroke-linejoin="round"/>
<path d="M257.303 229.704H240.305L223.223 211.44L224.725 186.134L250.136 172.855L269.664 204.731L257.303 229.704Z" fill="#E98E07"/>
<path d="M260.265 189.632L224.08 199.313" stroke="black" stroke-width="1.5" stroke-linecap="round" stroke-linejoin="round"/>
<path d="M253.613 179.279L224.811 186.997" stroke="black" stroke-width="1.5" stroke-linecap="round" stroke-linejoin="round"/>
<path d="M266.574 200.177L223.566 211.586" stroke="black" stroke-width="1.5" stroke-linecap="round" stroke-linejoin="round"/>
<path d="M265.63 212.544L232.709 221.315" stroke="black" stroke-width="1.5" stroke-linecap="round" stroke-linejoin="round"/>
<path d="M229.619 183.688L241.035 229.512" stroke="black" stroke-width="1.5" stroke-linecap="round" stroke-linejoin="round"/>
<path d="M240.949 177.794L253.825 229.511" stroke="black" stroke-width="1.5" stroke-linecap="round" stroke-linejoin="round"/>
<path d="M253.613 179.279L263.098 217.721" stroke="black" stroke-width="1.5" stroke-linecap="round" stroke-linejoin="round"/>
<path d="M317.088 285.816C315.713 285.816 314.341 285.483 313.052 284.811C308.203 282.318 306.098 275.894 308.331 270.479C316.614 250.445 333.012 224.752 364.001 216.171C369.194 214.734 374.431 218.281 375.718 224.034C377.005 229.833 373.829 235.679 368.679 237.119C345.115 243.638 332.409 263.767 325.885 279.539C324.254 283.469 320.735 285.816 317.088 285.816Z" fill="#FFC20F"/>
<path d="M345.459 250.203C336.017 258.926 329.836 270.048 325.885 279.538C324.255 283.468 320.778 285.816 317.131 285.816C315.756 285.816 314.384 285.483 313.095 284.81C308.246 282.317 306.141 275.894 308.374 270.479C312.367 260.893 318.159 249.965 326.615 240.281C333.14 243.253 339.448 246.562 345.459 250.203Z" fill="black"/>
<path d="M188.406 256.112C184.971 251.224 180.163 248.157 175.484 245.042C171.579 242.403 167.931 239.335 166.256 234.926C164.369 229.99 164.54 225.147 166.344 220.259C167.372 217.385 165.185 213.934 162.736 213.166C159.776 212.256 157.459 214.314 156.385 217.191C152.008 229.223 155.999 243.218 165.054 251.031C169.218 254.628 174.24 256.88 178.189 260.715C181.924 264.356 184.026 269.438 184.156 274.853C184.327 282.237 194.629 282.285 194.456 274.853C194.285 268.001 192.226 261.53 188.406 256.112Z" fill="#CA3F94"/>
<path d="M194.455 274.853C194.628 282.285 184.326 282.237 184.155 274.853C184.025 269.438 181.923 264.356 178.188 260.715C174.239 256.88 169.217 254.628 165.053 251.031C162.392 248.731 160.119 245.854 158.443 242.691C161.877 241.492 165.397 240.392 168.916 239.434C170.72 241.638 173.08 243.411 175.483 245.089C180.162 248.204 184.97 251.272 188.405 256.16C192.225 261.53 194.284 268.001 194.455 274.853Z" fill="black"/>
<path d="M86.928 214.002L17.3852 67.9463L13 69.9158L82.5428 215.971L86.928 214.002Z" fill="#CA3F94"/>
</svg>
