<svg width="255" height="127" viewBox="0 0 255 127" fill="none" xmlns="http://www.w3.org/2000/svg">
<path d="M182.466 99.0645C179.918 103.339 178.107 108.108 177.121 112.957C175.395 113.039 172.024 113.945 168.49 116.576C167.255 117.48 168.244 120.11 168.244 120.11H178.438H183.78L204.252 117.89L204.826 99.0645H182.466Z" fill="#FFAA00"/>
<path d="M146.292 52.1221L146.54 112.711C146.54 112.875 146.458 113.039 146.292 113.123C142.511 114.683 141.195 116.821 138.4 120.192H151.883L156.57 57.7952L146.292 52.1221Z" fill="#FFAA00"/>
<path d="M146.292 52.1221L146.376 112.216C146.376 112.383 146.376 112.629 146.292 112.793C146.21 112.957 145.964 112.957 145.8 113.039C142.265 114.519 141.031 116.821 138.318 120.11H152.047L155.335 75.9621L156.57 57.7107L146.292 52.1221Z" fill="black"/>
<path d="M182.467 98.9824C179.918 103.257 178.026 108.024 177.039 112.875C175.231 112.957 171.697 114.027 168.408 116.658C167.256 117.644 168.244 120.11 168.244 120.11H178.438H185.343L198.085 113.861L204.908 99.0644L182.467 98.9824Z" fill="black"/>
<path d="M216.254 98.0784C215.926 105.806 213.706 113.369 209.759 120.11H183.862C185.837 116.986 189.207 113.945 192.824 113.615C192.496 110.903 191.262 108.272 189.453 106.216C187.563 104.079 184.848 102.353 183.944 99.5563C183.944 99.5563 181.314 95.1177 176.299 92.7332C174.737 91.993 172.106 94.8718 170.298 93.8037L168.408 120.11H154.761C157.474 116.904 160.022 114.109 162.407 113.123C162.735 113.039 162.898 112.711 162.898 112.383L162.158 87.2265C159.2 84.2657 159.692 74.2359 157.143 69.7973C154.843 65.6865 149.334 67.3308 147.69 61.7397C147.444 60.8355 147.198 59.9314 146.95 58.9453C146.622 57.7953 147.608 55.2469 147.362 53.9304C147.032 52.3681 145.554 52.1222 145.387 50.5598C144.401 51.6279 143.415 52.6984 142.347 53.6025C140.372 55.3288 138.154 56.7248 135.77 57.7953C132.809 59.1092 129.357 59.8494 126.398 58.451C123.028 56.8912 121.383 52.8624 121.547 49.1614C121.711 45.381 123.356 41.9284 125.164 38.7218C125.494 38.1455 125.822 37.4873 126.234 36.9135C128.452 33.0487 134.289 31.6503 137.002 28.1157C139.635 24.6632 139.14 19.072 142.099 15.8678C142.099 15.8678 143.579 10.0308 140.457 6.9061C139.635 6.08395 135.276 3.45354 134.044 2.71336C133.88 2.63139 133.88 2.38549 134.044 2.30104C138.4 -0.657234 144.155 -0.575267 148.924 1.47888C156.406 4.68553 156.652 12.7432 156.57 14.3875C156.57 14.5514 156.734 14.6334 156.816 14.5514C161.912 12.4128 168.244 13.4014 172.436 17.0998C176.547 20.7163 178.437 26.1435 177.121 31.4863C177.039 31.7347 176.793 31.8986 176.547 31.7347C174.491 30.7461 172.27 29.76 170.052 29.2682C167.749 28.692 165.201 28.774 162.98 29.76C162.898 29.842 162.817 29.924 162.898 30.0059C163.147 31.4043 162.407 34.529 162.898 35.9274C163.393 37.2414 165.201 36.6651 165.777 37.9816C167.422 41.68 169.64 45.2171 172.188 47.1892C175.395 49.5737 179.011 51.3 182.548 53.1902C186.083 55.0804 189.535 57.219 192.742 59.6035C196.522 62.3159 196.853 66.4267 200.223 69.6333C204.908 74.1539 209.923 88.3765 209.677 92.3233C209.841 92.9816 216.254 97.2563 216.254 98.0784Z" fill="#FFAA00"/>
<path d="M161.421 60.8356L162.241 87.2265C156.57 81.5534 151.143 73.4138 147.854 61.6577C150.403 59.7675 154.35 58.7814 157.556 58.9454C158.461 59.0273 159.365 59.1093 160.187 59.2732C160.845 59.5216 161.421 60.0954 161.421 60.8356Z" fill="black"/>
<path d="M186.165 88.0488C185.097 91.8293 182.63 96.022 183.944 99.5565C183.944 99.5565 177.779 98.5704 170.298 93.8039L172.436 65.6047C172.436 65.1104 173.01 64.7826 173.505 65.1104C177.451 67.6589 180.986 70.9475 183.616 74.6484C186.329 78.5108 187.397 83.4438 186.165 88.0488Z" fill="black"/>
<path d="M165.941 37.8994L147.114 58.9451C146.458 56.3147 145.964 53.5179 145.554 50.5596L162.898 29.9238C162.98 29.8418 163.062 29.8418 163.062 29.9238C163.721 32.3902 164.707 35.269 165.941 37.8994Z" fill="#BF6D01"/>
<path d="M162.899 29.8418L155.83 38.2273L165.942 37.8175C164.792 35.1051 163.311 30.664 163.063 29.8418C162.981 29.8418 162.899 29.8418 162.899 29.8418Z" fill="black"/>
<path d="M148.266 35.843C149.672 35.843 150.815 34.7004 150.815 33.2945C150.815 31.8887 149.672 30.7461 148.266 30.7461C146.86 30.7461 145.718 31.8887 145.718 33.2945C145.718 34.7004 146.86 35.843 148.266 35.843Z" fill="black"/>
<path d="M144.565 28.0341C143.251 29.2686 141.361 29.6784 139.963 30.8284C138.646 31.9809 138.072 33.5433 137.084 34.9392C135.934 36.5835 134.126 37.818 132.153 38.2278C130.673 38.5582 128.043 37.818 126.234 36.9139C130.673 29.2686 135.934 22.279 142.099 15.8682C142.099 15.8682 144.896 16.278 145.554 17.5125C146.291 18.8264 146.458 20.3068 146.458 21.8692C146.54 24.0872 146.21 26.5537 144.565 28.0341Z" fill="black"/>
<path d="M138.728 29.2683C140.134 29.2683 141.277 28.1257 141.277 26.7199C141.277 25.314 140.134 24.1689 138.728 24.1689C137.322 24.1689 136.18 25.314 136.18 26.7199C136.18 28.1257 137.322 29.2683 138.728 29.2683Z" fill="black"/>
<path d="M216.255 95.6938C216.255 96.516 216.255 97.2562 216.255 98.0784C213.13 98.9825 209.759 98.7341 206.801 97.4201C203.595 95.7758 201.21 92.4872 200.798 88.9527C200.306 83.9378 203.431 78.4286 200.882 74.0719C199.402 71.5235 196.359 70.289 194.469 68.0709C192.497 65.7684 192.084 62.3978 192.989 59.5215C196.771 62.2339 200.306 65.2766 203.677 68.4807C208.361 73.0038 212.638 78.1827 214.774 84.3476C215.927 87.8821 216.419 91.747 216.255 95.6938Z" fill="black"/>
<path d="M125.246 61.1658C128.108 61.1658 130.428 58.8459 130.428 55.9845C130.428 53.1256 128.108 50.8057 125.246 50.8057C122.387 50.8057 120.067 53.1256 120.067 55.9845C120.067 58.8459 122.387 61.1658 125.246 61.1658Z" fill="black"/>
<path d="M147.772 61.7396C147.527 60.8355 147.281 59.9314 147.032 58.9453" stroke="black" stroke-linecap="round" stroke-linejoin="round"/>
<path d="M183.862 120.111C185.837 116.986 189.208 113.946 192.824 113.615C192.496 110.903 191.262 108.272 189.453 106.216C187.563 104.08 184.848 102.353 183.944 99.5566" stroke="black" stroke-linecap="round" stroke-linejoin="round"/>
<path d="M108.351 112.649L97.7151 57.8623C97.3898 55.6741 95.9466 54.2459 92.7325 54.0596H51.4683C48.7857 54.0819 46.7788 56.5087 47.2681 59.1415L58.1995 117.048C58.4355 118.329 59.5656 119.256 60.8647 119.256H105.144L108.398 113.011L108.351 112.649Z" fill="#F17007"/>
<path d="M170.517 113.151H108.987L108.835 112.577L98.4599 57.5718C98.0725 55.5475 96.3188 54.082 94.2448 54.082H92.4043L104.667 119.256H110.638H166.57C169.066 119.256 171.09 116.809 171.09 113.809C171.073 113.436 170.837 113.151 170.517 113.151Z" fill="#FFAA00"/>
<path d="M170.517 113.151H108.987L108.835 112.577L98.4599 57.5718C98.0725 55.5475 96.3188 54.082 94.2448 54.082H92.4043L104.667 119.256H110.638H166.57C169.066 119.256 171.09 116.809 171.09 113.809C171.073 113.436 170.837 113.151 170.517 113.151Z" fill="black"/>
<path d="M1 126.315H254.482V119.298H1V126.315Z" fill="#A5A29E"/>
<path d="M100.076 126.315C99.9546 125.115 98.36 124.039 93.9486 123.364C82.2472 121.585 68.3997 123.555 62.21 126.315" stroke="#F4F4DF" stroke-linecap="round" stroke-linejoin="round"/>
<path d="M41.4395 126.315C45.4211 123.836 51.7325 121.586 58.7171 119.668C59.1468 119.554 59.5145 119.452 59.9442 119.338" stroke="#F4F4DF" stroke-linecap="round" stroke-linejoin="round"/>
<path d="M36.1094 125.549C39.172 123.477 41.8669 121.329 45.4213 119.31" stroke="#F4F4DF" stroke-linecap="round" stroke-linejoin="round"/>
<path d="M19.6885 126.315C20.0561 125.933 19.994 125.55 19.075 125.267C18.1559 124.986 16.6855 124.909 15.2747 124.909C13.4366 124.909 11.5389 124.999 9.76051 125.1C7.24933 125.254 3.02181 125.664 1.05957 126.111" stroke="#F4F4DF" stroke-linecap="round" stroke-linejoin="round"/>
<path d="M25.9379 126.315C26.7327 125.563 26.8569 124.706 25.3244 124.028C23.1808 123.081 18.7074 123.069 15.0313 123.186C10.2524 123.337 5.65722 123.71 1 124.067" stroke="#F4F4DF" stroke-linecap="round" stroke-linejoin="round"/>
<path d="M35.4336 121.304C24.527 119.183 12.5797 120.537 1.05957 121.957" stroke="#F4F4DF" stroke-linecap="round" stroke-linejoin="round"/>
<path d="M12.8852 119.311C10.6199 119.594 8.41426 119.862 6.1465 120.118C4.43016 120.309 2.77591 120.5 1.05957 120.667" stroke="#F4F4DF" stroke-linecap="round" stroke-linejoin="round"/>
<path d="M253.318 119.31C253.318 119.541 253.196 119.772 253.012 119.988C251.909 121.073 247.62 121.523 243.822 121.125C240.389 120.768 237.205 120.102 234.445 119.31" stroke="#F4F4DF" stroke-linecap="round" stroke-linejoin="round"/>
<path d="M254.052 125.087C242.719 126.418 229.606 124.372 223.725 121.751C222.008 120.984 220.659 120.154 219.557 119.31" stroke="#F4F4DF" stroke-linecap="round" stroke-linejoin="round"/>
<path d="M200.685 119.31C202.831 121.88 207.731 124.233 213.859 126.329" stroke="#F4F4DF" stroke-linecap="round" stroke-linejoin="round"/>
<path d="M198.603 122.674C200.378 123.861 202.033 125.101 203.749 126.315" stroke="#F4F4DF" stroke-linecap="round" stroke-linejoin="round"/>
<path d="M173.481 119.606C176.482 119.952 179.79 120.59 181.385 121.37C182.366 121.869 182.917 122.532 181.569 122.967C180.65 123.248 179.179 123.325 177.768 123.325C175.93 123.325 174.033 123.235 172.254 123.133C169.743 122.979 167.17 122.801 165.148 122.354C163.126 121.906 161.839 121.139 162.696 120.461C163.369 119.912 165.391 119.542 167.413 119.44C169.497 119.323 171.519 119.428 173.481 119.606Z" stroke="#F4F4DF" stroke-linecap="round" stroke-linejoin="round"/>
<path d="M182.366 119.35C184.631 119.886 186.469 120.564 187.634 121.344C188.983 122.211 189.718 123.349 187.756 124.206C185.612 125.152 181.139 125.164 177.463 125.05C168.026 124.73 159.204 123.644 149.768 123.287C141.742 122.979 133.593 122.941 125.503 123.031C121.092 123.068 116.804 122.775 113.372 122.199C111.717 121.918 109.39 121.597 106.02 121.292" stroke="#F4F4DF" stroke-linecap="round" stroke-linejoin="round"/>
<path d="M67.7857 119.337C67.0505 119.528 66.3153 119.744 65.6421 119.975V119.988C64.5989 120.537 66.6829 121.125 69.5616 121.138C69.8075 121.138 70.0535 121.138 70.2969 121.138C72.3212 121.125 74.281 121.023 76.1811 120.869C87.5149 119.911 101.057 118.517 111.104 119.886C117.967 120.832 125.627 121.523 133.777 121.853C133.961 121.868 134.144 121.868 134.388 121.88C144.375 122.263 153.628 121.267 156.936 119.31" stroke="#F4F4DF" stroke-linecap="round" stroke-linejoin="round"/>
<path d="M145.541 119.31C145.295 120.179 144.192 120.869 139.475 120.959C131.509 121.113 124.463 120.268 117.54 119.349" stroke="#F4F4DF" stroke-linecap="round" stroke-linejoin="round"/>
<path d="M163.983 126.314C159.142 125.716 154.303 125.087 149.706 124.705C139.229 123.771 127.343 123.962 116.742 124.628C116.742 124.628 104.427 125.433 99.7081 121.714C96.5834 119.233 76.5487 122.519 62.8229 123.619C58.2278 123.989 54.3679 125.063 51.2432 126.329" stroke="#F4F4DF" stroke-linecap="round" stroke-linejoin="round"/>
</svg>
