<svg width="295" height="163" viewBox="0 0 295 163" fill="none" xmlns="http://www.w3.org/2000/svg">
<path d="M95.9149 35.1118L118.307 42.2498C118.788 42.4081 119.306 42.4886 119.818 42.4426C120.327 42.3966 120.839 42.2613 121.294 42.011C121.751 41.778 122.154 41.45 122.488 41.0443C122.804 40.6416 123.04 40.1812 123.195 39.6864L129.784 16.3244C130.244 14.6183 130.345 12.8403 130.098 11.0939C129.85 9.36186 129.237 7.6874 128.317 6.17981C127.413 4.68372 126.191 3.37752 124.755 2.36479C123.319 1.35205 121.676 0.647167 119.953 0.281777C118.23 -0.0836127 116.452 -0.09512 114.722 0.255885C113.013 0.606889 111.374 1.30314 109.915 2.30437C108.476 3.30272 107.256 4.59741 106.324 6.09062C105.395 7.58095 104.768 9.24677 104.515 11.0018C102.526 10.0955 100.363 9.68985 98.2022 9.83946C96.0387 9.97468 93.9441 10.6508 92.1028 11.7988C89.5307 13.4301 87.6261 15.9187 86.7198 18.8217C85.8106 21.7276 85.9315 24.8463 87.1082 27.6688C87.9282 29.4842 89.1394 31.0983 90.6643 32.3814C92.1891 33.6646 93.9844 34.591 95.9149 35.1118Z" fill="white"/>
<path d="M65.3619 103.994C62.8445 103.994 60.8018 101.914 60.8018 99.3387C60.8018 96.7724 62.8445 94.6836 65.3619 94.6836C67.8794 94.6836 69.9221 96.7724 69.9221 99.3387C69.9221 101.914 67.8794 103.994 65.3619 103.994Z" fill="#BF6D01"/>
<path d="M39.836 70.3233C39.8245 70.3147 39.8245 70.2946 39.8158 70.2859C39.8072 70.2658 39.7871 70.2571 39.7784 70.2571C39.7583 70.2485 39.741 70.2485 39.7295 70.2485C39.7123 70.2485 39.6921 70.2571 39.6835 70.2658C38.1443 71.3792 36.2914 71.9776 34.3925 71.9776C32.6807 72.0064 31.0005 71.5691 29.5188 70.7232C28.0457 69.8687 26.82 68.623 25.9914 67.1326C25.1657 65.6394 24.7572 63.9477 24.8233 62.2387C24.8809 60.5383 25.4045 58.8754 26.3338 57.4512C27.266 56.0156 28.5664 54.8676 30.1057 54.1167C31.6363 53.3658 33.3453 53.0522 35.0456 53.2047C36.746 53.3571 38.3802 53.9642 39.7583 54.9712C41.1364 55.9782 42.2182 57.3362 42.8857 58.9042C42.8943 58.9243 42.903 58.9329 42.9145 58.9416C42.9231 58.9617 42.9404 58.9617 42.9605 58.9703C42.9691 58.9703 42.9893 58.9703 43.0094 58.9617C43.018 58.9617 43.0353 58.9531 43.0468 58.9329C44.3185 57.4599 45.8865 56.2716 47.653 55.466C49.4311 54.649 51.3501 54.2203 53.2979 54.2116C56.5749 54.2778 59.7282 55.4833 62.2082 57.6497C64.6796 59.8076 66.3138 62.7623 66.8173 66.0106C67.3208 69.2502 66.6533 72.5646 64.953 75.3783C63.2526 78.1806 60.6114 80.2896 57.5071 81.3454C57.4869 81.3541 57.4783 81.3541 57.4668 81.3627C57.4581 81.3828 57.4495 81.3915 57.4495 81.4001C57.438 81.4202 57.438 81.4289 57.438 81.449C57.438 81.4692 57.4495 81.4778 57.4581 81.4864C58.2091 82.5711 58.6176 83.8629 58.6176 85.1835C58.6176 86.9299 57.9329 88.613 56.7072 89.8559C55.4729 91.1016 53.81 91.8152 52.0607 91.8324H51.8047C51.796 91.8324 51.7759 91.8411 51.7673 91.8411C51.7471 91.8526 51.7385 91.8612 51.7299 91.8698C51.7212 91.8813 51.7097 91.8986 51.7097 91.9101C51.7097 91.9274 51.7097 91.9475 51.7097 91.9561C52.0061 92.9344 52.147 93.9528 52.1557 94.9684C52.1557 97.6844 51.0825 100.297 49.175 102.227C49.1549 102.245 49.1462 102.265 49.1462 102.282C49.1462 102.311 49.1462 102.331 49.1635 102.351C49.7447 103.128 50.0583 104.069 50.0669 105.038C50.0755 105.637 49.972 106.226 49.7533 106.776C49.5346 107.328 49.2038 107.832 48.7837 108.261C48.3752 108.678 47.8717 109.02 47.3308 109.247C46.7784 109.475 46.1915 109.598 45.6017 109.598C45.1269 109.598 44.6522 109.503 44.2063 109.334C44.1861 109.322 44.166 109.322 44.1372 109.334C42.7418 109.771 41.5076 110.614 40.584 111.765C40.5754 111.774 40.5668 111.794 40.5668 111.822V111.975C40.5668 113.684 39.2375 115.965 37.5257 115.965C36.5964 115.965 35.7505 116.155 35.1809 115.528C35.1693 115.517 35.1607 115.508 35.1521 115.499C35.1319 115.499 35.1233 115.488 35.1032 115.488H30.4394C30.4308 115.488 30.4106 115.488 30.402 115.479C30.3819 115.471 30.3732 115.462 30.3617 115.45C30.3531 115.442 30.3531 115.422 30.3445 115.413C30.3445 115.393 30.3445 115.376 30.3531 115.367C31.1616 113.267 33.5553 112.125 34.5824 109.978C34.9996 108.954 35.2269 107.861 35.247 106.747C35.3305 104.469 34.8097 102.207 33.7251 100.193C32.767 98.6252 32.2721 96.8098 32.3009 94.9684C32.2808 93.363 32.6519 91.7864 33.374 90.3507C34.0962 88.9151 35.1521 87.6721 36.4439 86.7313C37.7443 85.7819 39.2548 85.1633 40.843 84.9274C42.4282 84.68 44.0538 84.821 45.5729 85.336C45.5815 85.336 45.6017 85.336 45.6218 85.336C45.6304 85.336 45.6506 85.3245 45.6592 85.3158C45.6678 85.3072 45.6765 85.2957 45.688 85.287C45.6966 85.2669 45.6966 85.2496 45.6966 85.241V85.1835C45.688 83.5291 46.295 81.9324 47.4171 80.7182C47.4257 80.7067 47.4344 80.6981 47.4344 80.678C47.4459 80.6693 47.4459 80.6521 47.4344 80.6406C47.4344 80.6233 47.4257 80.6118 47.4171 80.5945C47.4056 80.583 47.397 80.5744 47.3883 80.5744C45.4031 79.5962 43.674 78.1519 42.3621 76.3652C41.0415 74.59 40.1784 72.5185 39.836 70.3233Z" fill="#BF6D01"/>
<path d="M25.9368 85.7531C24.2077 85.7531 22.8008 84.3549 22.8008 82.6171C22.8008 80.888 24.2077 79.4811 25.9368 79.4811C27.6659 79.4811 29.0699 80.888 29.0699 82.6171C29.0699 84.3549 27.6659 85.7531 25.9368 85.7531Z" fill="#BF6D01"/>
<path d="M0.000160465 136.105C-0.0084708 132.382 1.45309 128.8 4.06549 126.147C6.67788 123.498 10.2426 121.987 13.9655 121.95C13.9943 121.95 14.0116 121.941 14.0317 121.921C14.0518 121.901 14.0605 121.884 14.0605 121.855V116.25C14.0806 115.813 14.2705 115.393 14.5841 115.099C14.9063 114.795 15.3322 114.625 15.7695 114.633H51.8712C52.0812 114.633 52.2998 114.671 52.4897 114.757C52.6883 114.835 52.8695 114.958 53.022 115.108C53.163 115.252 53.2867 115.433 53.3644 115.632C53.4507 115.83 53.4881 116.04 53.4881 116.25V153.871C53.4881 153.9 53.4766 153.917 53.4593 153.937C53.4392 153.957 53.4219 153.966 53.3931 153.966H14.1554C14.1267 153.966 14.1094 153.957 14.0893 153.937C14.0691 153.917 14.0605 153.9 14.0605 153.871V150.355C14.0605 150.347 14.0605 150.338 14.0519 150.318C14.0519 150.309 14.0403 150.298 14.0317 150.289C14.0231 150.28 14.0116 150.28 14.0029 150.269C13.9943 150.269 13.9742 150.26 13.9655 150.26C12.1213 150.252 10.2886 149.881 8.58827 149.158C6.88791 148.436 5.34867 147.392 4.04822 146.08C2.75353 144.771 1.72929 143.211 1.03591 141.502C0.331027 139.782 -0.0084708 137.958 0.000160465 136.105ZM13.9655 144.561C13.9943 144.561 14.0116 144.552 14.0317 144.532C14.0518 144.512 14.0605 144.495 14.0605 144.466V127.839C14.0605 127.822 14.0518 127.793 14.0317 127.773C14.0116 127.753 13.9943 127.744 13.9655 127.744C11.7617 127.782 9.66141 128.694 8.1308 130.282C6.59444 131.867 5.75721 133.996 5.79461 136.2C5.77735 137.293 5.97587 138.366 6.37579 139.382C6.78433 140.389 7.38276 141.313 8.14231 142.081C8.90186 142.86 9.80527 143.476 10.8007 143.905C11.7991 144.334 12.8837 144.552 13.9655 144.561Z" fill="#826D9C"/>
<path d="M14.0605 121.95V127.744" stroke="black" stroke-linecap="round" stroke-linejoin="round"/>
<path d="M14.0605 144.561V150.355" stroke="black" stroke-linecap="round" stroke-linejoin="round"/>
<path d="M44.3677 114.633V132.02" stroke="black" stroke-linecap="round" stroke-linejoin="round"/>
<path d="M42.086 141.235H46.6462C46.8189 141.243 46.9972 141.206 47.1612 141.149C47.3223 141.082 47.4748 140.979 47.5957 140.855C47.7194 140.731 47.8143 140.59 47.8834 140.418C47.9496 140.257 47.9783 140.087 47.9783 139.906V132.874C47.9783 132.704 47.9496 132.523 47.8834 132.362C47.8143 132.201 47.7194 132.048 47.5957 131.925C47.4748 131.801 47.3223 131.706 47.1612 131.64C46.9972 131.574 46.8189 131.545 46.6462 131.545H42.086C41.9048 131.545 41.735 131.574 41.5739 131.64C41.4128 131.706 41.2603 131.801 41.1366 131.925C41.0129 132.048 40.9179 132.201 40.8518 132.362C40.7856 132.523 40.7568 132.704 40.7568 132.874V139.906C40.7568 140.087 40.7856 140.257 40.8518 140.418C40.9179 140.59 41.0129 140.731 41.1366 140.855C41.2603 140.979 41.4128 141.082 41.5739 141.149C41.735 141.206 41.9048 141.243 42.086 141.235Z" fill="#E7D0EC"/>
<path d="M211.454 130.748C208.502 135.699 206.405 141.223 205.263 146.839C203.263 146.934 199.359 147.985 195.265 151.031C193.835 152.079 194.98 155.125 194.98 155.125H206.787H212.976L236.689 152.553L237.354 130.748H211.454Z" fill="#FFAA00"/>
<path d="M169.553 76.3739L169.84 146.555C169.84 146.745 169.745 146.934 169.553 147.032C165.174 148.839 163.649 151.316 160.412 155.22H176.029L181.458 82.9452L169.553 76.3739Z" fill="#FFAA00"/>
<path d="M169.552 76.3739L169.65 145.982C169.65 146.175 169.65 146.46 169.552 146.65C169.457 146.84 169.173 146.84 168.983 146.934C164.889 148.649 163.459 151.316 160.317 155.126H176.219L180.028 103.988L181.458 82.8473L169.552 76.3739Z" fill="black"/>
<path d="M211.454 130.653C208.502 135.605 206.31 141.126 205.168 146.745C203.073 146.84 198.979 148.08 195.17 151.126C193.835 152.269 194.98 155.126 194.98 155.126H206.788H214.786L229.545 147.887L237.449 130.748L211.454 130.653Z" fill="black"/>
<path d="M250.591 129.606C250.212 138.556 247.639 147.317 243.068 155.126H213.071C215.358 151.506 219.263 147.985 223.452 147.602C223.072 144.46 221.642 141.413 219.548 139.031C217.358 136.557 214.213 134.557 213.166 131.318C213.166 131.318 210.119 126.176 204.31 123.414C202.501 122.557 199.454 125.891 197.359 124.654L195.17 155.126H179.363C182.505 151.411 185.457 148.175 188.219 147.032C188.599 146.935 188.789 146.555 188.789 146.175L187.931 117.036C184.505 113.606 185.074 101.989 182.122 96.8473C179.458 92.0857 173.077 93.9904 171.172 87.514C170.887 86.4668 170.603 85.4195 170.315 84.2773C169.935 82.9452 171.077 79.9933 170.792 78.4685C170.41 76.6588 168.698 76.3739 168.505 74.5643C167.363 75.8014 166.221 77.0414 164.984 78.0887C162.696 80.0883 160.127 81.7052 157.365 82.9452C153.936 84.4672 149.936 85.3246 146.51 83.7048C142.606 81.8979 140.701 77.2313 140.891 72.9445C141.081 68.5655 142.985 64.5664 145.08 60.8521C145.463 60.1846 145.842 59.4221 146.32 58.7575C148.889 54.2808 155.65 52.661 158.792 48.5669C161.842 44.5678 161.269 38.0914 164.696 34.38C164.696 34.38 166.411 27.6188 162.794 23.9994C161.842 23.0471 156.793 20.0003 155.365 19.1429C155.176 19.048 155.176 18.7631 155.365 18.6653C160.412 15.2387 167.078 15.3337 172.602 17.713C181.268 21.4273 181.553 30.7606 181.458 32.6652C181.458 32.8551 181.648 32.9501 181.743 32.8551C187.646 30.378 194.98 31.523 199.837 35.807C204.598 39.996 206.788 46.2825 205.263 52.4711C205.168 52.7588 204.883 52.9487 204.598 52.7588C202.216 51.6137 199.644 50.4715 197.075 49.9019C194.408 49.2344 191.456 49.3293 188.884 50.4715C188.789 50.5665 188.694 50.6614 188.789 50.7564C189.076 52.3762 188.219 55.9955 188.789 57.6153C189.361 59.1373 191.456 58.4698 192.123 59.9947C194.028 64.2787 196.597 68.3756 199.549 70.66C203.263 73.4221 207.452 75.4216 211.549 77.6111C215.643 79.8005 219.642 82.2777 223.357 85.0397C227.736 88.1815 228.118 92.9431 232.023 96.6574C237.449 101.894 243.258 118.368 242.973 122.94C243.163 123.702 250.591 128.653 250.591 129.606Z" fill="#FFAA00"/>
<path d="M187.077 86.4667L188.026 117.036C181.458 110.464 175.172 101.036 171.362 87.419C174.314 85.2296 178.886 84.0874 182.6 84.2772C183.647 84.3722 184.695 84.4671 185.647 84.657C186.409 84.9447 187.077 85.6093 187.077 86.4667Z" fill="black"/>
<path d="M215.738 117.988C214.501 122.367 211.644 127.224 213.166 131.318C213.166 131.318 206.025 130.175 197.359 124.654L199.837 91.9907C199.837 91.4182 200.501 91.0384 201.074 91.4182C205.645 94.3701 209.739 98.1793 212.786 102.466C215.928 106.94 217.165 112.654 215.738 117.988Z" fill="black"/>
<path d="M192.313 59.8996L170.505 84.2772C169.745 81.2304 169.172 77.9907 168.698 74.5641L188.788 50.6613C188.883 50.5664 188.978 50.5664 188.978 50.6613C189.741 53.5182 190.883 56.8528 192.313 59.8996Z" fill="#BF6D01"/>
<path d="M188.789 50.5664L180.601 60.2795L192.313 59.8047C190.981 56.663 189.266 51.5187 188.979 50.5664C188.884 50.5664 188.789 50.5664 188.789 50.5664Z" fill="black"/>
<path d="M171.84 57.5176C173.469 57.5176 174.792 56.1941 174.792 54.5657C174.792 52.9372 173.469 51.6138 171.84 51.6138C170.212 51.6138 168.888 52.9372 168.888 54.5657C168.888 56.1941 170.212 57.5176 171.84 57.5176Z" fill="black"/>
<path d="M167.553 48.4719C166.031 49.9018 163.841 50.3765 162.221 51.7086C160.697 53.0435 160.032 54.8532 158.887 56.4702C157.555 58.3748 155.46 59.8047 153.176 60.2794C151.461 60.6621 148.414 59.8047 146.32 58.7574C151.461 49.9018 157.555 41.8056 164.696 34.3799C164.696 34.3799 167.935 34.8546 168.698 36.2845C169.552 37.8065 169.745 39.5212 169.745 41.3309C169.84 43.9002 169.457 46.7571 167.553 48.4719Z" fill="black"/>
<path d="M160.792 49.9018C162.42 49.9018 163.744 48.5783 163.744 46.9499C163.744 45.3214 162.42 43.9951 160.792 43.9951C159.163 43.9951 157.84 45.3214 157.84 46.9499C157.84 48.5783 159.163 49.9018 160.792 49.9018Z" fill="black"/>
<path d="M250.592 126.844C250.592 127.796 250.592 128.654 250.592 129.606C246.972 130.653 243.068 130.365 239.641 128.843C235.927 126.939 233.165 123.13 232.687 119.035C232.118 113.227 235.737 106.845 232.785 101.799C231.07 98.8469 227.546 97.417 225.357 94.8478C223.072 92.1807 222.595 88.2765 223.642 84.9448C228.024 88.0866 232.118 91.611 236.022 95.3225C241.448 100.562 246.402 106.56 248.877 113.701C250.212 117.795 250.781 122.272 250.592 126.844Z" fill="black"/>
<path d="M145.175 86.8493C148.489 86.8493 151.177 84.1621 151.177 80.8477C151.177 77.5362 148.489 74.849 145.175 74.849C141.863 74.849 139.176 77.5362 139.176 80.8477C139.176 84.1621 141.863 86.8493 145.175 86.8493Z" fill="black"/>
<path d="M171.267 87.5141C170.982 86.4668 170.697 85.4195 170.41 84.2773" stroke="black" stroke-linecap="round" stroke-linejoin="round"/>
<path d="M213.071 155.126C215.359 151.506 219.263 147.985 223.452 147.602C223.072 144.46 221.642 141.413 219.548 139.031C217.358 136.557 214.213 134.557 213.166 131.318" stroke="black" stroke-linecap="round" stroke-linejoin="round"/>
<path d="M125.605 146.483L113.285 83.0229C112.908 80.4881 111.237 78.8338 107.514 78.618H59.7167C56.6094 78.6439 54.2848 81.4549 54.8515 84.5046L67.5136 151.578C67.7869 153.063 69.096 154.136 70.6007 154.136H121.891L125.66 146.903L125.605 146.483Z" fill="#F17007"/>
<path d="M197.612 147.064H126.341L126.166 146.399L114.148 82.6862C113.699 80.3414 111.668 78.6439 109.266 78.6439H107.134L121.338 154.136H128.254H193.041C195.932 154.136 198.277 151.302 198.277 147.826C198.257 147.395 197.984 147.064 197.612 147.064Z" fill="#FFAA00"/>
<path d="M197.612 147.064H126.341L126.166 146.399L114.148 82.6862C113.699 80.3414 111.668 78.6439 109.266 78.6439H107.134L121.338 154.136H128.254H193.041C195.932 154.136 198.277 151.302 198.277 147.826C198.257 147.395 197.984 147.064 197.612 147.064Z" fill="black"/>
<path d="M1.25732 162.312H294.87V154.185H1.25732V162.312Z" fill="#A5A29E"/>
<path d="M116.019 162.312C115.878 160.923 114.031 159.677 108.921 158.894C95.3672 156.834 79.3274 159.116 72.1577 162.312" stroke="#F4F4DF" stroke-linecap="round" stroke-linejoin="round"/>
<path d="M48.0991 162.312C52.7111 159.441 60.0218 156.834 68.1121 154.613C68.6099 154.481 69.0357 154.363 69.5334 154.231" stroke="#F4F4DF" stroke-linecap="round" stroke-linejoin="round"/>
<path d="M41.9253 161.426C45.4727 159.027 48.5944 156.538 52.7115 154.199" stroke="#F4F4DF" stroke-linecap="round" stroke-linejoin="round"/>
<path d="M22.9048 162.312C23.3306 161.869 23.2587 161.426 22.1942 161.098C21.1296 160.773 19.4264 160.684 17.7922 160.684C15.6632 160.684 13.4651 160.788 11.4051 160.906C8.49636 161.084 3.59956 161.559 1.32666 162.076" stroke="#F4F4DF" stroke-linecap="round" stroke-linejoin="round"/>
<path d="M30.1433 162.312C31.0639 161.441 31.2078 160.448 29.4326 159.663C26.9497 158.567 21.7681 158.552 17.51 158.687C11.9745 158.863 6.65186 159.294 1.25732 159.709" stroke="#F4F4DF" stroke-linecap="round" stroke-linejoin="round"/>
<path d="M41.1427 156.509C28.5094 154.052 14.6706 155.62 1.32666 157.266" stroke="#F4F4DF" stroke-linecap="round" stroke-linejoin="round"/>
<path d="M15.0245 154.199C12.4006 154.527 9.84572 154.838 7.21894 155.134C5.23087 155.356 3.31473 155.577 1.32666 155.77" stroke="#F4F4DF" stroke-linecap="round" stroke-linejoin="round"/>
<path d="M293.52 154.199C293.52 154.467 293.379 154.734 293.166 154.985C291.889 156.242 286.92 156.763 282.521 156.302C278.545 155.888 274.857 155.117 271.66 154.199" stroke="#F4F4DF" stroke-linecap="round" stroke-linejoin="round"/>
<path d="M294.372 160.891C281.244 162.433 266.056 160.063 259.243 157.027C257.255 156.138 255.692 155.177 254.415 154.199" stroke="#F4F4DF" stroke-linecap="round" stroke-linejoin="round"/>
<path d="M232.555 154.199C235.041 157.177 240.717 159.901 247.815 162.33" stroke="#F4F4DF" stroke-linecap="round" stroke-linejoin="round"/>
<path d="M230.144 158.095C232.201 159.47 234.117 160.906 236.105 162.312" stroke="#F4F4DF" stroke-linecap="round" stroke-linejoin="round"/>
<path d="M201.045 154.541C204.521 154.941 208.353 155.681 210.2 156.584C211.337 157.162 211.975 157.931 210.413 158.434C209.348 158.759 207.645 158.848 206.011 158.848C203.882 158.848 201.684 158.745 199.624 158.627C196.715 158.449 193.734 158.241 191.393 157.724C189.051 157.206 187.56 156.317 188.553 155.531C189.333 154.895 191.674 154.467 194.016 154.349C196.43 154.213 198.772 154.334 201.045 154.541Z" stroke="#F4F4DF" stroke-linecap="round" stroke-linejoin="round"/>
<path d="M211.337 154.245C213.961 154.867 216.09 155.652 217.439 156.555C219.001 157.56 219.853 158.877 217.58 159.87C215.097 160.966 209.916 160.98 205.657 160.848C194.727 160.477 184.508 159.22 173.578 158.805C164.282 158.449 154.842 158.405 145.472 158.509C140.362 158.552 135.396 158.213 131.42 157.545C129.504 157.22 126.808 156.849 122.904 156.495" stroke="#F4F4DF" stroke-linecap="round" stroke-linejoin="round"/>
<path d="M78.6165 154.231C77.7649 154.452 76.9133 154.703 76.1336 154.97V154.985C74.9252 155.62 77.3391 156.302 80.6736 156.317C80.9585 156.317 81.2433 156.317 81.5253 156.317C83.8701 156.302 86.1401 156.184 88.3411 156.006C101.469 154.895 117.155 153.281 128.793 154.867C136.742 155.963 145.615 156.763 155.055 157.145C155.268 157.162 155.481 157.163 155.763 157.177C167.332 157.62 178.049 156.466 181.881 154.199" stroke="#F4F4DF" stroke-linecap="round" stroke-linejoin="round"/>
<path d="M168.681 154.199C168.396 155.206 167.119 156.006 161.655 156.109C152.428 156.288 144.266 155.31 136.248 154.245" stroke="#F4F4DF" stroke-linecap="round" stroke-linejoin="round"/>
<path d="M190.043 162.312C184.436 161.619 178.831 160.891 173.506 160.448C161.37 159.366 147.603 159.588 135.324 160.359C135.324 160.359 121.059 161.291 115.593 156.984C111.973 154.11 88.7669 157.916 72.8681 159.191C67.5455 159.62 63.0745 160.862 59.4551 162.33" stroke="#F4F4DF" stroke-linecap="round" stroke-linejoin="round"/>
</svg>
