<svg width="496" height="322" viewBox="0 0 496 322" fill="none" xmlns="http://www.w3.org/2000/svg">
<path d="M104.068 263.504H83.8555" stroke="black" stroke-linecap="round" stroke-linejoin="round"/>
<path d="M98.8839 266.988H78.668" stroke="black" stroke-linecap="round" stroke-linejoin="round"/>
<path d="M93.7042 270.467H73.4883" stroke="black" stroke-linecap="round" stroke-linejoin="round"/>
<path d="M88.5207 273.947H68.3086" stroke="black" stroke-linecap="round" stroke-linejoin="round"/>
<path d="M83.3372 277.428H63.125" stroke="black" stroke-linecap="round" stroke-linejoin="round"/>
<path d="M78.2101 280.908H57.9453" stroke="black" stroke-linecap="round" stroke-linejoin="round"/>
<path d="M73.0305 284.389H52.7656" stroke="black" stroke-linecap="round" stroke-linejoin="round"/>
<path d="M67.8431 287.869H47.582" stroke="black" stroke-linecap="round" stroke-linejoin="round"/>
<path d="M62.6633 291.35H42.3984" stroke="black" stroke-linecap="round" stroke-linejoin="round"/>
<path d="M57.4836 294.83H37.2188" stroke="black" stroke-linecap="round" stroke-linejoin="round"/>
<path d="M52.3 298.309H32.0352" stroke="black" stroke-linecap="round" stroke-linejoin="round"/>
<path d="M47.1203 301.789H26.8555" stroke="black" stroke-linecap="round" stroke-linejoin="round"/>
<path d="M41.9386 305.27H21.7227" stroke="black" stroke-linecap="round" stroke-linejoin="round"/>
<path d="M36.7589 308.75H16.543" stroke="black" stroke-linecap="round" stroke-linejoin="round"/>
<path d="M31.5754 312.23H11.3633" stroke="black" stroke-linecap="round" stroke-linejoin="round"/>
<path d="M26.3918 315.711H6.17969" stroke="black" stroke-linecap="round" stroke-linejoin="round"/>
<path d="M21.2122 319.191H1" stroke="black" stroke-linecap="round" stroke-linejoin="round"/>
<path d="M391.77 263.504H412.034" stroke="black" stroke-linecap="round" stroke-linejoin="round"/>
<path d="M396.949 266.988H417.214" stroke="black" stroke-linecap="round" stroke-linejoin="round"/>
<path d="M402.133 270.467H422.398" stroke="black" stroke-linecap="round" stroke-linejoin="round"/>
<path d="M407.312 273.947H427.577" stroke="black" stroke-linecap="round" stroke-linejoin="round"/>
<path d="M412.496 277.428H432.757" stroke="black" stroke-linecap="round" stroke-linejoin="round"/>
<path d="M417.68 280.908H437.892" stroke="black" stroke-linecap="round" stroke-linejoin="round"/>
<path d="M422.859 284.389H443.072" stroke="black" stroke-linecap="round" stroke-linejoin="round"/>
<path d="M428.039 287.869H448.251" stroke="black" stroke-linecap="round" stroke-linejoin="round"/>
<path d="M433.223 291.35H453.435" stroke="black" stroke-linecap="round" stroke-linejoin="round"/>
<path d="M438.402 294.83H458.618" stroke="black" stroke-linecap="round" stroke-linejoin="round"/>
<path d="M443.582 298.309H463.798" stroke="black" stroke-linecap="round" stroke-linejoin="round"/>
<path d="M448.715 301.789H468.98" stroke="black" stroke-linecap="round" stroke-linejoin="round"/>
<path d="M453.895 305.27H474.159" stroke="black" stroke-linecap="round" stroke-linejoin="round"/>
<path d="M459.078 308.75H479.343" stroke="black" stroke-linecap="round" stroke-linejoin="round"/>
<path d="M464.258 312.23H484.523" stroke="black" stroke-linecap="round" stroke-linejoin="round"/>
<path d="M469.441 315.711H489.703" stroke="black" stroke-linecap="round" stroke-linejoin="round"/>
<path d="M474.625 319.191H494.89" stroke="black" stroke-linecap="round" stroke-linejoin="round"/>
<path d="M98.679 262.891L12.3898 320.284C11.7727 320.694 12.2355 321.374 13.0557 321.374H485.088C485.961 321.374 486.371 320.694 485.757 320.284L397.568 261.628C397.361 261.493 397.158 261.459 396.898 261.459L99.3449 262.722C99.0891 262.688 98.8859 262.756 98.679 262.891Z" fill="#E6B894"/>
<path d="M122.637 298.479L131.05 297.014" stroke="black" stroke-linecap="round" stroke-linejoin="round"/>
<path d="M186.559 276.951L192.868 277.94" stroke="black" stroke-linecap="round" stroke-linejoin="round"/>
<path d="M207.695 299.197L210.619 302.031" stroke="black" stroke-linecap="round" stroke-linejoin="round"/>
<path d="M283.88 282.172L279.828 284.9" stroke="black" stroke-linecap="round" stroke-linejoin="round"/>
<path d="M248.48 303.086L252.431 305.713" stroke="black" stroke-linecap="round" stroke-linejoin="round"/>
<path d="M373.711 309.775L380.175 314.075" stroke="black" stroke-linecap="round" stroke-linejoin="round"/>
<path d="M75.543 311.926H83.5947" stroke="black" stroke-linecap="round" stroke-linejoin="round"/>
<path d="M100.938 273.297L105.863 276.574" stroke="black" stroke-linecap="round" stroke-linejoin="round"/>
<path d="M241.042 270.262L236.426 273.742" stroke="black" stroke-linecap="round" stroke-linejoin="round"/>
<path d="M297.324 309.333L304.71 306.773" stroke="black" stroke-linecap="round" stroke-linejoin="round"/>
<path d="M161.215 309.775L167.476 313.083" stroke="black" stroke-linecap="round" stroke-linejoin="round"/>
<path d="M150.648 274.15V278.961" stroke="black" stroke-linecap="round" stroke-linejoin="round"/>
<path d="M323.691 269.375L328.462 272.547" stroke="black" stroke-linecap="round" stroke-linejoin="round"/>
<path d="M338.312 296.159L342.519 293.701" stroke="black" stroke-linecap="round" stroke-linejoin="round"/>
<path d="M378.176 272.002L385.407 273.949" stroke="black" stroke-linecap="round" stroke-linejoin="round"/>
<path d="M415.469 301.789H424.962" stroke="black" stroke-linecap="round" stroke-linejoin="round"/>
<path d="M378.176 289.098L383.202 291.383" stroke="black" stroke-linecap="round" stroke-linejoin="round"/>
<path d="M371.469 240.348C371.469 240.266 371.552 240.266 371.469 240.348C371.552 240.266 371.551 240.266 371.551 240.266L402.028 246.933L402.107 247.016V252.717V252.796H402.028L388.599 250.067C388.599 250.067 388.517 250.067 388.517 250.146C388.517 250.229 388.517 250.229 388.517 250.229C390.77 251.672 402.107 259.625 402.107 275.53V279.867C402.107 281.314 400.177 281.795 399.454 280.589C395.917 274.004 387.151 264.766 371.631 263.883C371.552 263.883 371.551 263.883 371.551 263.804L370.344 246.531L371.469 240.348Z" fill="#414860"/>
<path d="M291.782 276.25C291.861 276.333 291.861 276.333 291.861 276.333L284.946 307.982L284.866 308.061H279.155H279.076V307.982L281.811 294.564C281.811 294.564 281.811 294.485 281.729 294.485H281.65C280.201 296.733 272.24 308.061 256.317 308.061H245.462C245.462 308.061 245.383 308.061 245.383 307.982C245.383 307.982 245.383 307.899 245.462 307.899C248.517 306.775 267.013 298.901 268.221 276.814C268.221 276.735 268.221 276.735 268.3 276.735L291.782 276.25Z" fill="#414860"/>
<path d="M244.817 84.3533V84.4322L229.7 86.4429C228.093 86.6835 226.645 85.3981 226.645 83.7896C226.645 82.1021 228.251 80.7378 229.861 81.1399L236.694 80.5762L244.817 84.3533Z" fill="#BE6640"/>
<path d="M245.699 84.4322L229.536 86.6008C227.929 86.8413 226.48 85.556 226.48 83.8722C226.48 82.1847 228.091 80.7378 229.697 81.061C229.776 81.061 229.859 81.061 229.938 81.061L236.692 80.5762L245.699 84.4322Z" fill="black"/>
<path d="M272.158 35.8377V35.9166C272.158 35.9166 272.076 35.9955 272.076 35.9166L257.443 29.2493C255.833 28.5277 255.111 26.517 255.995 25.0738C256.958 23.5479 259.129 23.2247 260.416 24.589L272.158 35.8377Z" fill="#BE6640"/>
<path d="M272.479 35.8384V35.9174C272.479 35.9174 272.4 35.9963 272.4 35.9174L257.282 29.1711C255.593 28.4458 254.87 26.4388 255.755 24.913C256.718 23.3871 258.971 23.0639 260.337 24.4319L272.479 35.8384Z" fill="black"/>
<path d="M271.594 35.0333H271.677V34.9544L269.104 26.5996C268.618 24.9911 269.423 23.2247 270.951 22.6647C272.64 22.1009 274.33 22.9841 274.894 24.5889L289.85 72.5453C289.85 72.5453 289.85 72.6242 289.929 72.6242H290.012L310.999 59.6128H311.078C311.078 59.6128 311.161 59.6128 311.161 59.6918L313.17 77.8483V77.9272C300.788 85.7182 296.525 89.7359 288.563 88.3679C282.453 87.2441 277.708 82.8281 275.936 77.1229L265.243 42.7454L249.482 30.5346C248.436 29.7303 248.113 28.3661 248.677 27.2423C249.32 25.8743 250.927 25.3143 252.296 25.957L271.594 35.0333Z" fill="#BE6640"/>
<path d="M317.751 26.4383C317.751 26.4383 317.834 26.3593 317.751 26.3593C314.696 15.3549 326.759 5.71482 337.132 11.8184H337.211C345.575 4.74893 359.489 11.5778 357.878 23.3865C357.878 23.4654 357.878 23.4654 357.961 23.4654C366.321 25.2318 372.594 32.7034 372.594 41.6219C372.594 56.8018 355.467 65.3145 343.325 56.8018H343.242C339.544 61.4622 333.836 64.3523 327.481 64.3523C306.332 64.3523 299.578 36.24 317.751 26.4383Z" fill="black"/>
<path d="M311.963 235.206C312.045 235.123 312.124 235.123 312.124 235.206C316.226 244.361 322.419 251.028 329.251 255.768C347.586 268.621 370.827 268.057 372.354 267.978C372.437 267.978 372.437 267.978 372.437 267.899V235.367C372.437 235.285 372.437 235.285 372.354 235.285C346.058 235.206 334.884 201.79 355.871 185.885C377.02 170.623 366.809 135.922 339.707 135.922C318.558 135.922 326.682 135.922 305.612 135.922C305.612 135.922 305.533 135.922 305.533 136.001C302.556 141.465 299.178 146.765 296.284 152.229C280.681 182.51 287.198 203.155 282.209 231.026C278.672 250.386 270.15 267.497 253.584 278.1C253.584 278.1 253.501 278.179 253.584 278.179L253.663 278.261H302.071C302.071 278.261 302.154 278.261 302.154 278.179L311.963 235.206Z" fill="#03827A"/>
<path d="M247.228 74.7143C247.311 74.7143 247.39 74.6354 247.311 74.5527L241.438 68.1297C240.313 66.9233 240.234 64.9953 241.438 63.7889C242.725 62.5862 244.655 62.6651 245.784 63.8715L279.074 100.098C279.477 100.5 280.12 100.5 280.44 100.015L288.24 88.3684C288.323 88.2894 288.402 88.2105 288.481 88.2105L296.845 85.8803H296.927L303.038 95.8399V95.9189L295.076 108.37C292.826 111.907 289.368 114.635 285.267 115.763C279.236 117.289 273.043 115.361 269.021 111.024L244.655 84.5161C244.655 84.5161 244.655 84.5161 244.576 84.5161L225.116 80.1752C223.83 79.9347 222.945 78.8109 222.945 77.5256C222.945 75.9997 224.149 74.7933 225.677 74.7933L247.228 74.7143Z" fill="#BE6640"/>
<path d="M335.608 22.7441C335.687 22.7441 335.687 22.8231 335.687 22.8231C334.483 31.7416 344.13 36.3193 350.082 31.8205H350.161C350.161 31.8205 350.244 31.8205 350.244 31.8994C352.494 39.9348 346.384 47.9663 338.02 47.9663C331.025 47.9663 325.314 42.2612 325.314 35.2744C325.235 28.9304 329.656 23.8679 335.608 22.7441Z" fill="#BE6640"/>
<path d="M354.021 140.019C354.262 140.019 354.424 139.94 354.507 139.699L368.338 88.6124C373.883 67.9678 359.007 47.0828 337.699 46.3574C318.721 46.3574 304.646 56.3208 297.73 70.4559L288.324 88.1275C288.324 88.2102 288.324 88.2102 288.324 88.2892L305.131 105.559C305.289 105.799 305.692 105.72 305.854 105.48L313.093 94.3927C313.172 94.3138 313.251 94.3138 313.251 94.3927C315.745 110.621 311.964 123.554 305.613 135.843V135.922C305.613 135.922 305.613 135.922 305.692 136.001L354.021 140.019Z" fill="#826D9C"/>
<path d="M315.422 221.307C316.148 233.439 321.051 243.32 329.012 255.448V255.527H328.933C324.267 252.235 319.685 248.379 316.148 243.076C314.538 240.749 313.334 237.776 312.047 234.965L315.102 221.307C315.181 221.228 315.343 221.228 315.422 221.307Z" fill="black"/>
<path d="M312.047 234.966L324.911 178.095C324.911 178.095 343.972 179.7 344.13 160.021" stroke="#055550" stroke-linecap="round" stroke-linejoin="round"/>
<path d="M322.096 80.7383L313.25 94.2345L312.125 95.9182" stroke="black" stroke-linecap="round" stroke-linejoin="round"/>
<path d="M333.838 31.8206C333.308 31.8206 332.871 31.3884 332.871 30.8585C332.871 30.3173 333.308 29.8926 333.838 29.8926C334.369 29.8926 334.801 30.3173 334.801 30.8585C334.801 31.3884 334.369 31.8206 333.838 31.8206Z" fill="black"/>
<path d="M329.655 31.8206C329.124 31.8206 328.691 31.3884 328.691 30.8585C328.691 30.3173 329.124 29.8926 329.655 29.8926C330.185 29.8926 330.622 30.3173 330.622 30.8585C330.622 31.3884 330.185 31.8206 329.655 31.8206Z" fill="black"/>
<path d="M331.985 35.9961H329.495C328.689 35.9961 328.125 35.3535 328.125 34.6319C328.125 33.8276 328.768 33.2676 329.495 33.2676H331.985" stroke="black" stroke-linecap="round" stroke-linejoin="round"/>
<path d="M332.953 39.7733C334.24 39.3712 335.365 38.3264 335.685 37.041" stroke="black" stroke-linecap="round" stroke-linejoin="round"/>
<path d="M335.77 65.3145C338.26 78.7317 343.731 91.5814 351.61 102.747" stroke="black" stroke-linecap="round" stroke-linejoin="round"/>
<path d="M327 93.0293C329.653 100.016 333.351 106.604 337.855 112.55" stroke="black" stroke-linecap="round" stroke-linejoin="round"/>
<path d="M244.656 84.4337L229.621 81.0625" stroke="black" stroke-linecap="round" stroke-linejoin="round"/>
<path d="M255.594 27.4824L271.596 35.0329" stroke="black" stroke-linecap="round" stroke-linejoin="round"/>
<path d="M206.559 50.9485C208.334 49.3249 209.727 46.4686 211.427 45.4651C211.965 45.2359 212.74 45.1569 213.203 45.544V51.2567H206.559V50.9485Z" fill="black"/>
<path d="M111.197 96.2579C106.249 101.738 109.575 111.697 117.841 111.697H165.444C173.406 111.697 177.424 102.046 171.78 96.412C178.274 102.895 187.624 100.505 191.022 93.9428L201.918 71.2462L194.965 59.0504C193.881 57.1976 191.18 57.2765 190.251 59.2045L184.069 72.0956C183.914 72.4038 183.452 72.4827 183.297 72.1745L162.431 45.3889C152.464 29.7955 130.284 30.4908 120.701 45.3889L92.7265 81.3599C84.227 92.5522 97.0534 106.988 111.197 96.2579Z" fill="#F4BE53"/>
<path d="M162.121 292.17C169.616 299.352 180.203 296.725 179.97 308.304C179.97 308.383 179.97 308.383 179.895 308.383H144.81C144.734 308.383 144.734 308.383 144.734 308.304V282.214C144.734 282.135 144.734 282.135 144.81 282.135C145.118 279.666 158.024 279.666 158.336 282.135H158.411C158.411 282.135 158.411 282.135 158.411 282.214C158.411 282.985 158.257 288.468 162.121 292.17Z" fill="#0152BF"/>
<path d="M144.734 256.511C144.734 256.432 144.734 256.432 144.81 256.432H158.336C158.411 256.432 158.411 256.432 158.411 256.511V276.347C158.411 280.207 144.734 280.207 144.734 276.347V256.511Z" fill="#BE6640"/>
<path d="M179.353 304.289H144.734" stroke="black" stroke-linecap="round" stroke-linejoin="round"/>
<path d="M158.258 259.363L145.044 265.695C144.89 265.771 144.735 265.695 144.735 265.462L144.656 256.739C144.656 256.51 144.811 256.277 145.044 256.352L158.179 256.431C158.337 256.431 158.491 256.585 158.491 256.739L158.412 259.209C158.412 259.209 158.337 259.288 158.258 259.363Z" fill="black"/>
<path d="M144.734 276.425C144.734 276.346 144.734 276.346 144.81 276.346H158.336C158.411 276.346 158.411 276.346 158.411 276.425V282.058C158.411 282.134 158.411 282.134 158.336 282.134H144.81C144.734 282.134 144.734 282.134 144.734 282.058V276.425Z" fill="white"/>
<path d="M151.922 300.662C154.187 300.662 156.015 298.832 156.015 296.57C156.015 294.307 154.187 292.48 151.922 292.48C149.657 292.48 147.824 294.307 147.824 296.57C147.824 298.832 149.657 300.662 151.922 300.662Z" fill="white"/>
<path d="M160.964 291.012L158.18 293.793" stroke="black" stroke-linecap="round" stroke-linejoin="round"/>
<path d="M163.437 293.406L160.656 296.184" stroke="black" stroke-linecap="round" stroke-linejoin="round"/>
<path d="M166.756 295.492L164.051 298.191" stroke="black" stroke-linecap="round" stroke-linejoin="round"/>
<path d="M159.263 287.385C153.699 287.385 151.227 285.457 151.227 282.135" stroke="black" stroke-linecap="round" stroke-linejoin="round"/>
<path d="M121.318 292.17C113.823 299.352 103.235 296.725 103.469 308.304C103.469 308.383 103.469 308.383 103.548 308.383H138.629C138.708 308.383 138.708 308.383 138.708 308.304V282.214C138.708 282.135 138.708 282.135 138.629 282.135C138.321 279.666 125.415 279.666 125.107 282.135H125.028C125.028 282.135 125.028 282.135 125.028 282.214C125.028 282.985 125.182 288.468 121.318 292.17Z" fill="#0152BF"/>
<path d="M138.708 256.511C138.708 256.432 138.708 256.432 138.629 256.432H125.106C125.027 256.432 125.027 256.432 125.027 256.511V276.347C125.027 280.207 138.708 280.207 138.708 276.347V256.511Z" fill="#BE6640"/>
<path d="M104.086 304.289H138.708" stroke="black" stroke-linecap="round" stroke-linejoin="round"/>
<path d="M138.708 276.425C138.708 276.346 138.708 276.346 138.629 276.346H125.106C125.027 276.346 125.027 276.346 125.027 276.425V282.058C125.027 282.134 125.027 282.134 125.106 282.134H138.629C138.708 282.134 138.708 282.134 138.708 282.058V276.425Z" fill="white"/>
<path d="M131.523 300.662C133.784 300.662 135.617 298.832 135.617 296.57C135.617 294.307 133.784 292.48 131.523 292.48C129.258 292.48 127.426 294.307 127.426 296.57C127.426 298.832 129.258 300.662 131.523 300.662Z" fill="white"/>
<path d="M122.48 291.012L125.261 293.793" stroke="black" stroke-linecap="round" stroke-linejoin="round"/>
<path d="M120.004 293.406L122.788 296.184" stroke="black" stroke-linecap="round" stroke-linejoin="round"/>
<path d="M116.684 295.492L119.389 298.191" stroke="black" stroke-linecap="round" stroke-linejoin="round"/>
<path d="M124.176 287.385C129.741 287.385 132.212 285.457 132.212 282.135" stroke="black" stroke-linecap="round" stroke-linejoin="round"/>
<path d="M125.493 256.892L138.707 261.447L138.782 257.046C138.782 256.892 138.628 256.738 138.474 256.738H125.414C125.414 256.738 125.414 256.892 125.493 256.892Z" fill="black"/>
<path d="M122.71 98.8058C118.15 111.926 114.673 125.437 112.355 139.178C110.038 152.915 108.879 166.809 108.879 180.783V247.32C108.879 250.022 109.959 252.57 111.738 254.344C113.514 256.122 115.986 257.201 118.771 257.201H164.519C167.224 257.201 169.771 256.122 171.551 254.344C173.327 252.57 174.41 250.101 174.41 247.32V180.783C174.41 166.809 173.252 152.915 170.93 139.253C168.612 125.513 165.211 112.005 160.576 98.8058C160.576 98.8058 146.357 97.4941 141.643 97.4941C136.928 97.4941 122.71 98.8058 122.71 98.8058Z" fill="#CA3F94"/>
<path d="M159.571 95.2547L150.609 64.5304L141.797 34.4261C141.722 34.272 141.489 34.272 141.489 34.4261L135.849 53.7252L130.359 72.483L133.144 77.3463L130.359 79.8155L127.579 82.2847L125.649 88.8468L123.715 95.4088C123.715 95.4088 136.929 97.6488 141.335 97.6488C145.97 97.4947 159.571 95.2547 159.571 95.2547Z" fill="white"/>
<path d="M220.078 45.9308C219.461 45.2356 218.457 45.0025 217.606 45.3107C217.606 44.3072 216.447 43.4579 214.976 44.078C212.892 45.0025 211.733 48.246 207.327 51.1023H199.524C192.954 51.1023 191.254 57.1232 190.328 59.2053L201.917 71.247L206.785 60.1336C207.019 59.5924 207.481 59.2842 208.102 59.2053C211.037 58.976 213.817 57.4313 215.597 54.9621L220.078 48.7872C220.774 48.0919 220.85 46.7802 220.078 45.9308Z" fill="#BE6640"/>
<path d="M208.797 51.1019L213.974 49.095L216.758 45.9305C217.146 45.4644 217.763 45.1562 218.38 45.1562" stroke="black" stroke-linecap="round" stroke-linejoin="round"/>
<path d="M201.535 56.7353C201.919 56.3482 202.461 56.04 202.924 55.8859C203.465 55.6567 204.086 55.5777 204.703 55.5777H208.722C209.956 55.5777 210.96 54.5743 210.96 53.3378C210.96 52.105 209.956 51.1016 208.722 51.1016H208.104H204.703" stroke="black" stroke-linecap="round" stroke-linejoin="round"/>
<path d="M151.69 57.3525C150.685 56.2738 148.909 56.1197 147.75 57.0443C150.301 54.8081 147.13 50.8693 144.27 52.8011C146.592 50.4822 143.19 46.5472 140.41 48.9413L134.999 53.7257L135.308 48.246C135.387 46.8554 134.303 45.6979 132.99 45.6189C131.598 45.5438 130.439 46.6224 130.36 47.9378L129.822 58.2808L122.711 64.5309L133.22 77.2679L151.535 61.1371C152.694 60.2088 152.773 58.4349 151.69 57.3525Z" fill="#BE6640"/>
<path d="M144.268 52.8008L137.082 59.205" stroke="black" stroke-linecap="round" stroke-linejoin="round"/>
<path d="M147.75 57.0449L140.793 63.2199" stroke="black" stroke-linecap="round" stroke-linejoin="round"/>
<path d="M137.859 34.1968C140.331 36.512 143.578 37.9026 147.209 37.9026C149.218 37.9026 151.073 37.5155 152.774 36.7412C152.849 36.6661 152.849 36.5871 152.774 36.512C149.297 34.6591 145.742 33.8887 141.723 33.8887C140.331 33.8887 139.093 33.9638 137.859 34.1968Z" fill="black"/>
<path d="M157.1 22.6186H155.399C155.324 22.6186 155.324 22.6186 155.324 22.5396C155.091 18.6047 153.236 15.132 150.377 12.8131C140.176 5.71358 127.117 13.5873 128.351 26.0161C130.285 35.5096 141.027 39.9107 148.984 34.8933C152.077 32.9615 154.395 29.7181 155.091 26.0913L155.166 26.0161H157.1C159.343 26.0161 159.343 22.6186 157.1 22.6186Z" fill="#BE6640"/>
<path d="M151.305 21.4601C151.858 21.4601 152.31 21.0128 152.31 20.4566C152.31 19.9004 151.858 19.4531 151.305 19.4531C150.749 19.4531 150.301 19.9004 150.301 20.4566C150.301 21.0128 150.749 21.4601 151.305 21.4601Z" fill="black"/>
<path d="M150.84 26.3984L153.933 28.6384" stroke="black" stroke-linecap="round" stroke-linejoin="round"/>
<path d="M136.774 10.73H136.698V10.6511C139.404 5.94568 135.923 0 130.438 0C124.952 0 121.551 5.86675 124.102 10.5759V10.6511H124.023C123.172 10.1137 122.168 9.80173 121.088 9.80173C115.756 9.80173 113.668 16.672 117.995 19.6072C117.995 19.6072 118.074 19.6824 117.995 19.6824L117.92 19.7613C115.911 19.6072 114.285 21.1519 114.285 23.1588C114.285 25.0117 115.832 26.5526 117.686 26.5526C120.854 26.5526 122.247 22.6928 119.929 20.6107V20.5318L120.004 20.4566C124.331 21.3812 127.811 16.9839 126.032 12.97V12.8911H126.111C127.578 13.9735 129.512 14.5109 131.442 14.2027C131.442 14.2027 131.521 14.2027 131.521 14.2817V14.3568C128.274 17.9874 127.424 22.8507 128.274 26.0152C128.274 26.0152 128.274 26.0152 128.274 26.0904C134.535 29.7961 143.189 24.8576 141.488 16.0556V15.9804H141.567C144.193 16.5968 147.903 15.7474 150.221 12.8911V12.8122C146.511 9.49355 141.18 8.79825 136.774 10.73Z" fill="black"/>
<path d="M123.949 247.012V141.027" stroke="black" stroke-linecap="round" stroke-linejoin="round"/>
<path d="M159.418 247.012V141.027" stroke="black" stroke-linecap="round" stroke-linejoin="round"/>
<path d="M141.723 241.38V146.666" stroke="black" stroke-linecap="round" stroke-linejoin="round"/>
<path d="M123.795 95.2559L123.253 97.0298L122.711 98.8075H141.644H160.656L159.572 95.2559H141.723H123.795Z" fill="#AF8362"/>
<path d="M186.157 98.186L169.617 90.1582L171.626 96.025C171.705 96.258 171.86 96.491 172.014 96.6451C175.799 100.734 181.597 101.196 186.157 98.8813C186.387 98.7272 186.387 98.3401 186.157 98.186Z" fill="black"/>
<path d="M157.715 55.8867L171.779 96.4128" stroke="black" stroke-linecap="round" stroke-linejoin="round"/>
<path d="M122.709 64.6094L102.309 82.5968" stroke="black" stroke-linecap="round" stroke-linejoin="round"/>
<path d="M111.195 96.2576L133.217 77.3457" stroke="black" stroke-linecap="round" stroke-linejoin="round"/>
</svg>
