<svg width="240" height="372" viewBox="0 0 240 372" fill="none" xmlns="http://www.w3.org/2000/svg">
<path d="M54.5342 343.032L57.9285 332.972C57.9285 332.892 57.9285 332.732 57.7678 332.652L34.0781 322.031C33.9175 321.951 33.8371 322.031 33.7568 322.191L17.0214 371.68C16.941 371.84 17.1017 372 17.2624 372H87.759C87.9196 372 88 371.92 88 371.76V368.217C88 359.85 81.2114 353.008 72.7207 353.008H61.6441C56.5527 353.008 52.832 347.94 54.5342 343.032Z" fill="#0152BF"/>
<path d="M19 367H87" stroke="black" stroke-width="1.5" stroke-linecap="round" stroke-linejoin="round"/>
<path d="M38.5 352C42.0872 352 45 349.091 45 345.503C45 341.914 42.0872 339 38.5 339C34.9127 339 32 341.914 32 345.503C32 349.091 34.9127 352 38.5 352Z" fill="black"/>
<path d="M55 350L47 356" stroke="black" stroke-width="1.5" stroke-linecap="round" stroke-linejoin="round"/>
<path d="M61 354L53 359" stroke="black" stroke-width="1.5" stroke-linecap="round" stroke-linejoin="round"/>
<path d="M70 354L63 359" stroke="black" stroke-width="1.5" stroke-linecap="round" stroke-linejoin="round"/>
<path d="M214.829 336.013L208.193 338.61C203.418 340.475 198.074 337.879 196.616 332.928L193.947 324H164L178.408 371.807C178.488 371.968 178.569 372.049 178.729 371.968L181.238 371.076L239.598 348.269L240 348.108C237.331 337.798 225.11 331.955 214.829 336.013Z" fill="#0152BF"/>
<path d="M181.498 345C185.088 345 188 342.088 188 338.498C188 334.908 185.088 332 181.498 332C177.908 332 175 334.908 175 338.498C175 342.088 177.908 345 181.498 345Z" fill="black"/>
<path d="M236 343L177 366" stroke="black" stroke-width="1.5" stroke-linecap="round" stroke-linejoin="round"/>
<path d="M199 338L195 347" stroke="black" stroke-width="1.5" stroke-linecap="round" stroke-linejoin="round"/>
<path d="M206 340L203 349" stroke="black" stroke-width="1.5" stroke-linecap="round" stroke-linejoin="round"/>
<path d="M215 337L211 345" stroke="black" stroke-width="1.5" stroke-linecap="round" stroke-linejoin="round"/>
<path d="M56.5409 336.879L58 332.662L33.8591 322L26 345L56.5409 336.879Z" fill="black"/>
<path d="M165.393 328.498L169.824 344L196 333.167L193.313 324H165L165.393 328.498Z" fill="black"/>
<path d="M209.967 333.394L147.415 154.137C147.415 154.056 147.334 154.056 147.249 154.056L82.4303 153C82.3499 153 82.2695 153.08 82.2695 153.08L24 322.301C24 322.381 24 322.467 24.0855 322.467L71.9908 344C72.0712 344 72.1516 344 72.232 343.92L115.689 218.018C115.77 217.857 115.935 217.857 116.016 218.018L155.829 333.475C155.829 333.555 155.909 333.555 155.99 333.555H209.886C209.967 333.636 210.047 333.555 209.967 333.394Z" fill="#826D9C"/>
<path d="M116 218L104 184" stroke="black" stroke-width="1.5" stroke-linecap="round" stroke-linejoin="round"/>
<path d="M113 11.5034C109.553 9.00944 104.749 9.97403 100.905 11.8233C97.0655 13.6725 93.5394 16.2514 89.3767 16.8912C83.2894 17.7808 77.3661 14.2373 71.1992 13.7575C61.3521 12.8678 51.664 20.5946 49.5006 30.3306C47.3372 40.0666 52.3852 50.6922 60.7901 56H112.92V11.5034H113Z" fill="black"/>
<path d="M24.4384 179.352C24.4384 181.537 26.323 183.32 28.7016 183.32C31.8188 183.32 33.8664 180.324 32.6388 177.73L27.7186 167.185C25.5029 161.918 23.2058 157.784 21.8102 153H4.92029C4.42623 154.621 3.85066 156.243 3.1936 157.784C1.06454 162.971 0 168.485 0 174.079V176.512C0 183.32 5.82182 189 13.1207 189C13.2022 189 13.2022 189 13.2837 189C13.3652 189 13.3652 189 13.4467 189C19.5996 188.753 24.3518 183.889 24.3518 178.133L24.4384 179.352Z" fill="#FD9DA6"/>
<path d="M227.438 180.346C227.438 182.531 229.323 184.318 231.702 184.318C234.819 184.318 236.866 181.318 235.639 178.725L230.719 168.182C228.503 162.916 226.206 158.783 224.815 154H207.92C207.426 155.621 206.856 157.242 206.199 158.783C204.064 163.968 203 169.481 203 175.075V177.506C203 184.318 208.822 189.992 216.121 189.992C216.202 189.992 216.202 189.992 216.284 189.992C216.365 189.992 216.365 189.992 216.447 189.992C222.763 190.234 227.357 184.882 227.357 179.128L227.438 180.346Z" fill="#FD9DA6"/>
<path d="M204 165.816C204.769 165.33 205.623 165 206.646 165C209.038 165 211 166.719 211 168.919V189" stroke="black" stroke-width="1.5" stroke-linecap="round" stroke-linejoin="round"/>
<path d="M211 188.21V168.786C211 166.736 212.806 165 215.002 165C217.194 165 218.922 166.26 218.922 168.394L219 189" stroke="black" stroke-width="1.5" stroke-linecap="round" stroke-linejoin="round"/>
<path d="M228 181.185V172.658V168.952V168.79C228 166.741 225.966 165 223.5 165C221.028 165 219 166.662 219 168.79V189" stroke="black" stroke-width="1.5" stroke-linecap="round" stroke-linejoin="round"/>
<path d="M115.5 42C57.1985 42 8.67598 84.7692 0.187916 140.395C-1.26862 149.642 5.92868 157.92 15.3057 157.92C22.9098 157.92 29.2984 152.293 30.5089 144.819C35.1999 114.911 55.4959 90.0716 82.8285 78.8176L82.9089 154.146L148.171 153.097V78.8975C175.504 90.0716 195.8 114.911 200.491 144.899C201.621 152.373 208.01 158 215.694 158C225.071 158 232.269 149.642 230.812 140.475C222.244 84.7692 173.801 42 115.5 42Z" fill="#0152BF"/>
<path d="M117.16 3.00066C110.123 3.00066 103.815 3.57053 100.5 9.25414C97.3456 9.90471 95 12.6633 95 15.9918C95 18.3469 96.1351 20.46 98.0739 21.6754C98.0739 21.6754 98.1542 21.7611 98.2346 21.7611C98.9629 26.6328 101.469 30.9346 105.191 33.8596C105.919 34.5051 106.808 34.9943 107.697 35.5642C108.506 36.0483 109.395 36.3761 110.284 36.6989C112.388 37.5108 114.654 38 116.999 38C127.512 38 136 29.4721 136 18.9168C136 14.6957 134.629 10.7167 132.364 7.54956C128.888 2.83928 123.468 3.00066 117.16 3.00066Z" fill="#FD9DA6"/>
<path d="M124 15.5C124 16.3328 123.333 17 122.5 17C121.667 17 121 16.3328 121 15.5C121 14.6672 121.667 14 122.5 14C123.333 14 124 14.6672 124 15.5Z" fill="black"/>
<path d="M128.51 17C129.333 17 130 16.3224 130 15.4897C130 14.6672 129.322 14 128.5 14C127.667 14 127 14.6776 127 15.5103C127 16.3328 127.678 17 128.51 17Z" fill="black"/>
<path d="M124 22H127.147C128.166 22 129 21.3245 129 20.5C129 19.6755 128.166 19 127.147 19H124" stroke="black" stroke-width="1.5" stroke-linecap="round" stroke-linejoin="round"/>
<path d="M119 23C119.561 24.9558 121.162 26.558 123 27" stroke="black" stroke-width="1.5" stroke-linecap="round" stroke-linejoin="round"/>
<path d="M128.495 46H104.51C101.431 46 99 43.5729 99 40.4975C99 37.4271 101.431 35 104.51 35H128.495C131.569 35 134 37.4271 134 40.4975C134 43.5729 131.569 46 128.495 46Z" fill="#0152BF"/>
<path d="M99 22C100.688 22.781 101.135 23.2515 103 22.8586" stroke="black" stroke-width="1.5" stroke-linecap="round" stroke-linejoin="round"/>
<path d="M82 79L85 73" stroke="black" stroke-width="1.5" stroke-linecap="round" stroke-linejoin="round"/>
<path d="M148 79L146 72" stroke="black" stroke-width="1.5" stroke-linecap="round" stroke-linejoin="round"/>
<path d="M107 14.0863C107.342 15.0854 107.599 16.1674 107.599 17.503C107.599 17.6687 107.684 17.8344 107.86 17.9172C107.946 18 108.031 18 108.202 18C108.288 18 108.288 18 108.373 18C108.63 17.9172 112.248 16.5867 115 12L107 14.0863Z" fill="black"/>
<path d="M132 6.799C128.53 2.67337 123.281 0 117.47 0C110.446 0 104.309 3.80402 101 9.46734C101 9.46734 104.068 9.78895 106.089 11.7337C106.731 12.3015 107.217 13.1106 107.538 14L114.968 11.9749L115.775 11.5729L124.815 9.22613L127.558 8.5779L127.804 8.49749C128.691 8.25629 129.578 8.09045 130.466 7.76884C130.466 7.76884 131.514 7.0402 132 6.799Z" fill="#FFC000"/>
<path d="M108 13L148 3" stroke="black" stroke-width="1.5" stroke-linecap="round" stroke-linejoin="round"/>
<path d="M25 182V170" stroke="black" stroke-width="1.5" stroke-linecap="round" stroke-linejoin="round"/>
<path d="M17 188V176" stroke="black" stroke-width="1.5" stroke-linecap="round" stroke-linejoin="round"/>
<path d="M9 188V176" stroke="black" stroke-width="1.5" stroke-linecap="round" stroke-linejoin="round"/>
<path d="M30 311L76 332" stroke="black" stroke-width="1.5" stroke-linecap="round" stroke-linejoin="round"/>
<path d="M153 321H205" stroke="black" stroke-width="1.5" stroke-linecap="round" stroke-linejoin="round"/>
<path d="M133 81C135.21 81 137 79.2104 137 77C137 74.7845 135.21 73 133 73C130.785 73 129 74.7845 129 77C129 79.2104 130.785 81 133 81Z" fill="black"/>
<path d="M129 85H138" stroke="black" stroke-width="1.5" stroke-linecap="round" stroke-linejoin="round"/>
<path d="M104.172 110.744L50.4983 101C46.9113 104.947 43.9727 109.053 41.2014 113.645C38.9164 117.427 36.7125 121.699 35 125.805C35.9778 127.656 38.6681 128.867 39.8942 130.557C42.0171 133.373 42.9138 136.435 45.6041 138.611C53.4369 145.133 63.7116 149 74.8072 149C85.8217 149 96.0154 145.133 103.848 138.611C106.052 136.755 105.561 134.259 107.354 132.008C108.986 129.992 113.064 128.381 114.29 126.045C117.958 119.603 120 112.195 120 104.301L113.718 105.507L112.41 108.008L104.172 110.744Z" fill="#FFC000"/>
<path d="M35 126C37.5163 130.956 41.4144 135.422 45.5545 139H103.526C107.747 135.508 111.317 131.198 114 126.323L35 126Z" fill="#030201"/>
<path d="M120 100.466C119.113 75.1614 103.462 52.8905 79.6699 43.2325C78.1368 42.593 76.2781 43.3119 75.6368 44.9083C74.9905 46.4254 75.717 48.2598 77.3302 48.8994C98.6225 57.6005 112.66 77.8733 113.707 100.387L51.1933 100.466C47.7264 104.299 44.6603 108.528 42 113H119.033V112.921C119.674 109.966 120 106.932 120 103.897V100.466Z" fill="#030201"/>
<path d="M147 149H82V155H147V149Z" fill="#050404"/>
<path d="M140 168.081L156 177L152.866 168L140 168.081Z" fill="black"/>
<path d="M134 41.9452C133.101 43.9726 131.466 46 129.175 46H104.15C100.961 46 99 43.3534 99 40" stroke="black" stroke-width="1.5" stroke-linecap="round" stroke-linejoin="round"/>
<path d="M108 2L119 10" stroke="black" stroke-width="1.5" stroke-linecap="round" stroke-linejoin="round"/>
</svg>
