<svg width="248" height="184" viewBox="0 0 248 184" fill="none" xmlns="http://www.w3.org/2000/svg">
<path d="M126.013 0C160.704 0 188.999 28.2945 188.999 62.9853C188.999 80.472 181.747 96.5386 170.231 107.914C167.244 110.898 161.133 107.059 157.435 108.481C147.624 112.32 106.252 115.165 96.8663 112.179C94.165 111.327 88.7624 114.028 86.4873 112.179C72.1282 100.663 62.8867 82.8908 62.8867 62.9853C63.028 28.2945 91.3224 0 126.013 0Z" fill="#CCC5B2"/>
<path d="M107.247 39.9535C112.195 39.9535 116.206 35.9432 116.206 30.9971C116.206 26.0484 112.195 22.0381 107.247 22.0381C102.3 22.0381 98.29 26.0484 98.29 30.9971C98.29 35.9432 102.3 39.9535 107.247 39.9535Z" fill="#35383D"/>
<path d="M86.4873 112.18C97.2926 120.852 110.943 126.113 125.872 126.113C143.076 126.113 158.858 119.147 170.231 107.915C160.278 105.355 145.778 100.949 145.778 100.949L115.067 100.805C115.067 100.664 100.564 106.778 86.4873 112.18Z" fill="#839A77"/>
<path d="M158.43 57.4378C157.151 62.8405 152.886 66.1118 149.332 67.2493C149.188 68.1018 148.906 68.9544 148.762 69.8094L149.188 74.642L151.463 103.93C151.607 105.92 151.037 108.054 149.758 109.618C146.772 113.598 139.947 120.423 126.44 121.987C115.35 123.409 109.521 116.728 107.105 113.03C106.252 111.752 105.826 110.044 105.967 108.48L107.246 90.1386L107.531 85.8735C101.702 80.0446 98.5746 71.0882 98.4308 67.1081C98.4308 66.8231 98.4308 66.5381 98.4308 66.253C98.1483 61.8467 97.8633 57.7228 97.7221 54.0278V53.884C97.4371 47.6288 97.4371 42.2262 98.1483 37.6761C99.2859 29.9984 104.971 19.3344 121.464 20.3307C137.674 21.3244 147.342 26.3008 153.597 45.495C153.738 45.78 155.02 47.2026 155.302 47.2026C157.577 48.4814 159.567 52.8902 158.43 57.4378Z" fill="#B76732"/>
<path opacity="0.6" d="M149.044 74.6431C144.637 94.5486 129.282 100.519 122.172 100.804C114.92 101.23 109.235 95.4012 107.102 90.1398L107.387 85.8747L109.092 87.4385C111.937 89.431 115.064 90.8511 118.759 90.8511C128.427 90.8511 141.081 84.8809 147.054 73.6494L148.759 69.8105L149.044 74.6431Z" fill="#96562C"/>
<path d="M109.093 87.4385C111.938 89.4311 115.065 90.8511 118.761 90.8511C128.428 90.8511 141.082 84.8809 147.055 73.6494" stroke="#96562C" stroke-linecap="round" stroke-linejoin="round"/>
<path opacity="0.4" d="M102.413 62.2745C101.843 64.4083 100.279 65.8283 98.2894 66.2546C98.0044 61.8482 97.7219 57.7244 97.5781 54.0293C100.991 55.3081 103.551 59.0031 102.413 62.2745Z" fill="#864419"/>
<path opacity="0.4" d="M137.017 64.8763C140.445 63.1133 141.938 59.2013 140.359 56.1317C138.78 53.0597 134.73 51.9927 131.302 53.7432C127.889 55.5062 126.384 59.4157 127.96 62.4878C129.539 65.5725 133.592 66.6394 137.017 64.8763Z" fill="#864419"/>
<path d="M124.734 55.0231C123.455 55.0231 122.317 53.8856 122.317 52.6068V52.1805C122.317 50.8992 123.455 49.7617 124.734 49.7617C126.012 49.7617 127.15 50.8992 127.15 52.1805V52.6068C127.15 53.8856 126.012 55.0231 124.734 55.0231Z" fill="#35383D"/>
<path d="M104.543 55.0231C103.264 55.0231 102.127 53.8856 102.127 52.6068V52.1805C102.127 50.8992 103.264 49.7617 104.543 49.7617C105.825 49.7617 106.962 50.8992 106.962 52.1805V52.6068C106.962 53.8856 105.825 55.0231 104.543 55.0231Z" fill="#35383D"/>
<path d="M109.094 70.5185L117.91 69.666C118.336 69.666 118.906 70.0923 118.762 70.6623C118.336 72.3673 117.057 75.4949 113.218 75.4949C110.232 75.4949 108.953 72.9373 108.527 71.5148C108.383 71.0885 108.668 70.6623 109.094 70.5185Z" fill="#864B23"/>
<path d="M149.616 56.7305C149.331 53.318 152.033 49.9054 154.449 51.3254" stroke="#96562C" stroke-linecap="round" stroke-linejoin="round"/>
<path d="M154.877 47.346C154.736 47.2047 151.749 45.7822 148.907 47.631C146.632 49.0535 146.488 51.6111 146.062 53.8862C145.92 54.7387 145.779 55.5937 145.635 56.5875L141.797 56.4462L140.377 46.4935L134.689 39.8121L135.683 33.1281C136.253 28.7218 132.414 25.0242 128.005 26.0205C122.035 27.2992 113.931 28.7218 108.243 28.4368C106.394 28.4368 105.257 28.0105 104.404 27.4405C100.992 26.0205 98.4318 20.3328 100.566 18.6253C102.982 17.0615 109.096 17.6315 109.096 17.6315C109.096 17.6315 108.67 14.9302 111.086 13.7927C115.068 12.0851 117.911 16.209 123.74 15.3564C140.518 13.5076 153.598 26.1617 154.877 31.8493C155.303 34.5507 155.162 41.5171 154.877 47.346Z" fill="#35383D"/>
<path d="M154.449 58.7199C155.872 53.5998 152.033 51.4685 150.043 54.0286" stroke="#96562C" stroke-linecap="round" stroke-linejoin="round"/>
<path d="M112.934 66.2553C113.93 67.2516 114.782 68.2454 116.205 68.5304C117.769 68.6741 119.333 68.2454 120.896 67.6779C122.319 67.2516 123.739 66.6816 125.02 65.8291C126.014 65.2615 125.588 63.839 124.591 63.554L121.464 63.2715C120.47 63.1277 119.474 62.8427 118.621 62.2752L116.916 61.1377L112.934 66.2553Z" fill="#35383D"/>
<path d="M112.507 66.3979C112.648 66.5392 110.658 68.8142 110.517 68.9555C109.238 69.8105 107.246 69.5255 105.826 69.3817C104.118 69.2405 102.128 68.9555 100.564 68.103C99.4266 67.6767 99.5678 66.2541 100.705 65.8279L103.692 64.9754C104.688 64.6904 105.54 64.1229 106.393 63.5528L107.957 62.1328C107.816 62.2741 112.507 66.3979 112.507 66.3979Z" fill="#35383D"/>
<path d="M114.64 51.7533C114.64 51.1833 114.211 50.3308 113.502 49.7607C113.076 49.1932 112.08 49.3345 111.795 49.9045C110.657 52.1796 109.378 54.5959 108.952 55.4484C107.815 57.1559 104.261 61.5623 104.543 62.5586C105.398 65.8274 111.227 66.6799 112.932 66.6799C114.355 66.6799 117.482 63.9786 117.482 62.8411C117.624 61.2773 115.777 58.4347 115.777 58.4347C115.349 56.3009 114.64 51.7533 114.64 51.7533Z" fill="#864419"/>
<path d="M55.4146 66.1572C86.0739 66.1572 110.911 92.5339 110.911 124.964C110.911 145.672 100.806 163.917 85.4737 174.41C76.8253 180.367 66.4585 167.7 55.4146 167.7C43.2525 167.7 31.947 179.705 22.8677 172.615C8.99229 161.93 0.000202859 144.534 0.000202859 124.964C-0.0818697 92.4433 24.7502 66.1572 55.4146 66.1572Z" fill="#FFC000"/>
<path d="M85.2153 174.507C84.7024 174.977 80.0756 174.603 78.8752 174.507C78.706 174.507 78.5367 174.507 78.5367 174.507C78.5367 174.507 41.5373 172.428 36.2283 171.67C32.2016 162.785 29.7189 149.166 25.9487 131.108C25.9487 131.108 25.9487 131.108 25.9487 131.017C24.0661 121.844 23.8097 100.949 30.3191 93.7628C32.3709 91.5884 45.1332 87.3357 54.8126 87.902C62.7788 88.2814 68.3443 90.4558 74.2535 94.2385C75.7103 95.1841 76.8234 96.3167 77.8493 97.3586C80.0756 99.6293 80.9322 103.123 80.332 106.526L78.0186 118.916C77.0799 125.91 81.3631 138.577 84.528 146.426C89.6678 159.472 90.1807 169.688 85.2153 174.507Z" fill="#4A535E"/>
<path opacity="0.6" d="M78.8758 174.41C78.7065 174.41 78.5372 174.41 78.5372 174.41C78.5372 174.41 41.5379 172.332 36.2288 171.573C32.2021 162.689 29.7194 149.076 25.9492 131.018C25.9492 131.018 25.9492 131.018 25.9492 130.921C30.0631 128.934 54.0386 116.833 61.1481 112.014L74.9363 117.495C74.0797 124.494 75.8801 137.258 79.3939 147.088C83.5898 158.527 83.8463 169.399 78.8758 174.41Z" fill="#343C46"/>
<path d="M66.9766 137.161C69.5413 156.069 82.991 160.038 77.1638 175.735" stroke="#343C46" stroke-linecap="round" stroke-linejoin="round"/>
<path d="M45.3052 134.606C45.3052 134.606 33.4047 171.861 56.3542 182.733" stroke="#343C46" stroke-linecap="round" stroke-linejoin="round"/>
<path d="M78.1074 129.506C79.0513 149.739 90.8697 158.906 82.3906 173.561" stroke="#343C46" stroke-linecap="round" stroke-linejoin="round"/>
<path d="M38.026 158.624C34.7739 146.903 32.9734 138.675 35.1175 131.398" stroke="#343C46" stroke-linecap="round" stroke-linejoin="round"/>
<path d="M41.8828 120.711C53.8705 108.7 60.4671 102.369 66.8893 94.334" stroke="#343C46" stroke-linecap="round" stroke-linejoin="round"/>
<path d="M22.957 172.518C29.8922 177.813 38.0276 181.505 46.8504 183.017C49.6768 183.487 52.5904 180.271 55.586 180.271C58.3252 180.271 61.0695 183.487 63.8087 183.017C71.7748 181.788 79.223 178.668 85.6452 174.319C79.3102 170.627 57.2993 159.472 57.2993 159.472C57.2993 159.472 33.4059 168.079 22.957 172.518Z" fill="#FFB85A"/>
<path d="M80.7656 115.794C80.7656 118.252 80.6784 120.613 80.5912 122.884C80.4219 127.137 80.0782 131.299 79.5653 135.268C79.396 136.69 79.2216 138.105 79.0523 139.617C78.365 144.725 73.9126 154.085 68.0033 155.597L68.4291 169.59C68.4291 169.873 68.4291 170.156 68.4291 170.439C68.4291 172.993 67.7468 175.547 66.5465 177.812L63.7201 183.203C61.0682 183.582 58.3239 183.865 55.4975 183.865C52.5891 183.865 49.5883 183.678 46.7619 183.106C44.9666 181.028 43.0789 178.667 41.54 176.866C39.5703 174.601 38.5393 171.481 38.8009 168.361L40.509 138.388L40.6834 135.081C40.5962 135.081 40.509 134.985 40.4269 134.985C37.6006 134.039 34.2612 131.582 32.3736 127.329C30.3218 122.035 32.2043 118.722 34.9435 117.589C37.5134 116.548 39.8268 117.403 41.1964 119.385C41.4529 119.951 41.7965 120.613 41.8837 121.18C41.9658 121.655 42.9096 122.125 42.9968 122.601C43.0789 123.071 42.3095 123.45 42.3967 124.017C42.7403 125.721 43.0789 127.703 43.4226 129.974C50.2756 122.035 68.0906 102.368 74.9385 100.29C77.6828 102.838 80.8477 112.199 80.7656 115.794Z" fill="#FDD1B4"/>
<path d="M59.2653 124.494C58.2394 124.494 57.3828 123.548 57.3828 122.41V122.036C57.3828 120.898 58.2394 119.952 59.2653 119.952C60.2913 119.952 61.1479 120.898 61.1479 122.036V122.41C61.1479 123.548 60.2913 124.494 59.2653 124.494Z" fill="#35454F"/>
<path opacity="0.6" d="M68.4279 169.591C68.4279 169.874 68.4279 170.157 68.4279 170.441C60.1232 169.687 48.1303 160.61 46.0785 156.165C43.7651 151.437 42.9085 139.902 42.9085 139.902C42.139 139.715 41.1952 138.956 40.4258 138.39L40.595 135.083L41.3645 135.27C42.5648 135.457 43.5958 135.457 44.3653 135.174C44.4525 135.746 45.822 143.118 47.1916 145.576C49.9308 150.871 59.9539 156.828 67.1455 155.882C67.5713 155.786 67.6585 155.786 67.915 155.689L68.4279 169.591Z" fill="#FBBD94"/>
<path d="M44.3652 135.175C44.4524 135.747 45.822 143.12 47.1916 145.577C49.9308 150.872 59.9539 156.829 67.1455 155.883" stroke="#FBBD94" stroke-linecap="round"/>
<path opacity="0.4" d="M45.5667 127.518C45.3923 129.313 45.736 131.301 46.7619 133C48.8189 136.403 52.7583 137.445 55.5847 135.457C58.3239 133.379 58.924 128.934 56.785 125.627C55.241 123.169 52.7583 121.94 50.4449 122.224C48.6496 124.115 46.9363 125.814 45.5667 127.518Z" fill="#E68748"/>
<path opacity="0.4" d="M80.5894 122.886C80.4202 127.138 80.0765 131.3 79.5635 135.27C78.7941 134.8 78.1068 134.137 77.5938 133.282C75.7113 130.168 76.5679 125.813 79.6508 123.548C79.9893 123.265 80.333 123.073 80.5894 122.886Z" fill="#E68748"/>
<path d="M75.1123 99.25C75.1123 99.25 69.8852 105.677 64.4889 112.297C57.9847 120.145 53.0142 124.585 43.7656 125.06" stroke="#4A535E" stroke-linecap="round" stroke-linejoin="round"/>
<path d="M75.1123 124.494C74.0813 124.494 73.2246 123.548 73.2246 122.41V122.036C73.2246 120.898 74.0813 119.952 75.1123 119.952C76.1382 119.952 76.9948 120.898 76.9948 122.036V122.41C76.9948 123.548 76.1382 124.494 75.1123 124.494Z" fill="#35454F"/>
<path d="M27.2363 110.219C35.7155 108.327 53.8689 100.575 61.8351 90.7393" stroke="#343C46" stroke-linecap="round" stroke-linejoin="round"/>
<path d="M28.2637 103.882C32.3724 101.045 37.425 95.9372 41.108 91.4014" stroke="#343C46" stroke-linecap="round" stroke-linejoin="round"/>
<path d="M66.1172 137.729C67.5688 139.903 70.226 140.469 72.1085 139.337" stroke="#E68748" stroke-linecap="round"/>
<path d="M78.5391 134.324C74.1688 134.324 70.6602 129.975 70.6602 124.681C70.6602 119.386 74.1688 115.037 78.5391 115.037C82.9044 115.037 86.4181 119.386 86.4181 124.681C86.5002 129.975 82.9044 134.324 78.5391 134.324ZM78.5391 117.687C75.5383 117.687 73.1429 120.807 73.1429 124.584C73.1429 128.367 75.5383 131.487 78.5391 131.487C81.5348 131.487 83.9303 128.367 83.9303 124.584C83.9303 120.807 81.5348 117.687 78.5391 117.687Z" fill="#4A9DC9"/>
<path d="M69.0308 124.21C69.118 123.638 69.2052 123.355 69.2873 123.072C69.4617 122.506 70.1439 122.506 70.4003 123.072C71.257 124.68 72.4573 126.572 72.801 127.047C73.5704 128.276 76.1403 130.541 75.6274 131.866C75.1144 133.378 72.4573 134.89 71.4314 134.89C70.5748 134.89 67.1482 134.137 67.061 132.999C66.9789 131.866 67.4047 131.017 67.8356 130.071C67.9176 130.071 68.8615 126.668 69.0308 124.21Z" fill="#E68748"/>
<path d="M60.7219 134.324C55.9258 134.324 51.9863 129.975 51.9863 124.681C51.9863 119.386 55.9258 115.037 60.7219 115.037C65.518 115.037 69.4575 119.386 69.4575 124.681C69.5396 129.975 65.6001 134.324 60.7219 134.324ZM60.7219 117.687C57.2954 117.687 54.469 120.807 54.469 124.584C54.469 128.367 57.2954 131.487 60.7219 131.487C64.1484 131.487 66.9749 128.367 66.9749 124.584C66.9749 120.807 64.2305 117.687 60.7219 117.687Z" fill="#4A9DC9"/>
<path d="M68.4281 124.584C68.1716 124.584 67.9151 124.494 67.7458 124.211C67.4022 123.735 67.4021 123.073 67.833 122.699C69.2847 121.277 71.3417 121.277 72.6292 122.699C72.9677 123.073 72.9677 123.735 72.6292 124.211C72.2855 124.584 71.6853 124.584 71.2544 124.211C70.6594 123.548 69.7156 123.548 69.0282 124.211C68.9462 124.494 68.6897 124.584 68.4281 124.584Z" fill="#4A9DC9"/>
<path d="M41.4512 135.174C42.6515 135.367 43.6774 135.367 44.4519 135.083H44.534" stroke="#FBBD94" stroke-linecap="round"/>
<path d="M40.0818 124.399C39.7381 121.658 36.3988 119.483 34.6855 122.32" stroke="#FBBD94" stroke-linecap="round"/>
<path d="M40.0797 124.302C38.4536 121.658 34.3397 124.495 36.7404 128.085" stroke="#FBBD94" stroke-linecap="round"/>
<path d="M54.64 122.41C54.64 123.169 54.0398 123.831 53.3576 123.831H42.483C42.3086 122.789 42.0521 121.94 41.8828 121.09H53.3576C54.127 120.994 54.64 121.657 54.64 122.41Z" fill="#4A9DC9"/>
<path d="M248 66.6538C247.906 42.0637 229.731 22 207.45 22C185.175 22 167 42.0637 167 66.6538C167 79.0561 171.739 90.5338 179.135 98.5958C179.323 98.8086 217.222 104.682 226.174 101.536C227.906 100.935 231.295 102.922 232.751 101.611C241.98 93.4471 248 80.7676 248 66.6538Z" fill="#4ABCC9"/>
<path d="M219.504 37.625C217.978 37.625 216.515 38.294 215.437 39.4848C214.358 40.6755 213.752 42.2906 213.752 43.9746C213.752 45.6586 214.358 47.2737 215.437 48.4644C216.515 49.6552 217.978 50.3242 219.504 50.3242C221.029 50.3242 222.492 49.6552 223.571 48.4644C224.65 47.2737 225.256 45.6586 225.256 43.9746C225.256 42.2906 224.65 40.6755 223.571 39.4848C222.492 38.294 221.029 37.625 219.504 37.625Z" fill="#FF7555"/>
<path d="M232.74 101.494C232.783 101.515 232.79 101.578 232.751 101.612C225.824 107.719 217.09 111.419 207.544 111.419C196.534 111.419 186.43 106.512 179.135 98.5964C179.098 98.5606 179.116 98.4927 179.16 98.4855C185.549 96.6632 194.759 93.5711 194.759 93.5711L214.484 93.4745C214.484 93.3708 223.731 97.67 232.74 101.494Z" fill="#C8EFFF"/>
<path d="M186.63 62.7275C187.448 66.5385 190.161 68.8491 192.438 69.6718C192.463 69.6771 192.475 69.6986 192.481 69.7254C192.575 70.3138 192.75 70.9004 192.838 71.487C192.838 71.4923 192.838 71.4995 192.838 71.5066L192.619 74.8258C192.613 74.8616 192.613 74.9224 192.606 74.9653L191.2 95.6907C191.106 97.0982 191.469 98.6094 192.293 99.7217C194.213 102.544 198.595 107.381 207.267 108.494C214.395 109.501 218.134 104.767 219.689 102.143C220.234 101.233 220.509 100.024 220.421 98.9134L219.608 85.9245L219.415 82.9218C219.415 82.9021 219.422 82.8807 219.433 82.8663C223.166 78.7334 225.166 72.3972 225.26 69.5806C225.267 69.3874 225.285 69.2014 225.291 69.0083C225.486 65.875 225.661 62.9833 225.767 60.3132C225.767 60.3061 225.767 60.3061 225.767 60.3061V60.2363C225.936 55.7922 225.923 51.9687 225.529 48.7175C224.804 43.2719 221.147 35.7071 210.556 36.4188C200.147 37.1235 193.938 40.6287 189.962 54.2864C189.912 54.4796 189.061 55.4596 188.912 55.5293C187.137 56.386 185.873 59.4709 186.63 62.7275Z" fill="#FFC298"/>
<path opacity="0.6" d="M192.613 74.8942L192.62 74.9353C195.452 89.0419 205.317 93.2804 209.881 93.4807C214.558 93.7704 218.209 89.65 219.609 85.923L219.416 82.8864L218.284 84.0041C216.458 85.4187 214.446 86.4273 212.076 86.4273C205.862 86.4273 197.734 82.1889 193.901 74.2253L192.845 71.498L192.613 74.8942Z" fill="#FEAE77"/>
<path d="M219.021 83.3759C217.189 84.7905 214.445 86.4268 212.075 86.4268C205.86 86.4268 197.733 82.1884 193.9 74.2248C193.624 73.6579 193.381 73.0856 193.156 72.499" stroke="#E29560" stroke-linecap="round" stroke-linejoin="round"/>
<path opacity="0.4" d="M222.61 66.15C222.96 67.6755 223.953 68.6627 225.291 69.0079C225.486 65.8746 225.661 62.9757 225.767 60.3057C223.542 61.2446 221.891 63.8663 222.61 66.15Z" fill="#E8782C"/>
<path opacity="0.4" d="M198.242 61.7758C197.971 62.2949 197.81 62.875 197.767 63.4811C197.725 64.0872 197.802 64.7067 197.995 65.3023C198.188 65.8978 198.492 66.4572 198.889 66.9466C199.286 67.436 199.768 67.8452 200.306 68.1498C200.844 68.4543 201.426 68.6477 202.018 68.7184C202.61 68.7891 203.198 68.7356 203.749 68.5611C204.3 68.3866 204.801 68.0948 205.222 67.7032C205.643 67.3115 205.976 66.8283 206.2 66.2824C206.471 65.7633 206.632 65.1832 206.675 64.5771C206.717 63.9711 206.64 63.3516 206.447 62.756C206.254 62.1604 205.95 61.601 205.553 61.1116C205.155 60.6223 204.673 60.213 204.136 59.9085C203.598 59.604 203.016 59.4105 202.424 59.3398C201.832 59.2691 201.243 59.3226 200.693 59.4971C200.142 59.6716 199.641 59.9634 199.22 60.3551C198.799 60.7467 198.466 61.23 198.242 61.7758Z" fill="#E8782C"/>
<path d="M208.275 61.0144C209.093 61.0144 209.825 60.2078 209.825 59.2958V58.9917C209.825 58.0886 209.093 57.2803 208.275 57.2803C207.457 57.2803 206.723 58.0886 206.723 58.9917V59.2958C206.723 60.2078 207.448 61.0144 208.275 61.0144Z" fill="#59737F"/>
<path d="M221.243 61.0144C222.061 61.0144 222.794 60.2078 222.794 59.2958V58.9917C222.794 58.0886 222.061 57.2803 221.243 57.2803C220.424 57.2803 219.691 58.0886 219.691 58.9917V59.2958C219.691 60.2078 220.424 61.0144 221.243 61.0144Z" fill="#59737F"/>
<path d="M218.319 72.0035L212.656 71.3955C212.38 71.3955 212.018 71.6995 212.105 72.1001C212.38 73.3073 213.205 75.5302 215.669 75.5302C217.589 75.5302 218.407 73.715 218.682 72.7082C218.776 72.4041 218.588 72.1001 218.319 72.0035Z" fill="#E8782C"/>
<path d="M192.295 62.223C192.476 59.7998 190.744 57.3837 189.188 58.3924" stroke="#E29560" stroke-linecap="round" stroke-linejoin="round"/>
<path d="M188.915 55.4319C188.915 55.4802 188.963 55.507 189.002 55.4873C189.402 55.2942 191.102 54.5753 192.765 55.777C194.197 56.8125 194.329 58.558 194.578 60.2086C194.666 60.7952 194.753 61.3818 194.847 62.0578C194.847 62.0918 194.878 62.1204 194.91 62.1204L197.254 62.0238C197.292 62.0238 197.322 61.988 197.329 61.9541L198.223 55.0313C198.23 54.9973 198.247 54.9419 198.273 54.9151L201.842 50.276C201.868 50.2492 201.881 50.1938 201.875 50.1598L201.243 45.4868C200.88 42.3607 203.344 39.7443 206.176 40.4489C210.009 41.3521 215.215 42.3607 218.867 42.1604C220.054 42.1604 220.78 41.8635 221.331 41.4558H221.336C223.524 40.4418 225.169 36.418 223.8 35.2108C223.8 35.2037 223.8 35.2037 223.8 35.2037C222.368 34.1879 218.948 34.4436 218.399 34.4919C218.36 34.499 218.322 34.4579 218.329 34.4168C218.36 34.043 218.403 32.4836 217.041 31.7807C214.485 30.5718 212.659 33.4922 208.913 32.8841C198.142 31.5804 189.739 40.5455 188.919 44.5747C188.915 44.5819 188.915 44.5819 188.915 44.5819C188.646 46.4865 188.733 51.3186 188.915 55.4319Z" fill="#FF7555"/>
<path d="M189.189 63.6317C188.277 60.0013 190.753 58.4758 192.034 60.291" stroke="#E29560" stroke-linecap="round" stroke-linejoin="round"/>
<path d="M214.759 58.6953C214.759 58.2893 215.033 57.6884 215.489 57.2807C215.765 56.8801 216.403 56.9785 216.583 57.3844C217.315 58.9922 218.135 60.7108 218.409 61.3117C219.141 62.526 221.422 65.6467 221.242 66.3567C220.691 68.6762 216.946 69.2771 215.852 69.2771C214.939 69.2771 212.933 67.3653 212.933 66.557C212.839 65.4464 214.027 63.4309 214.027 63.4309C214.302 61.9197 214.759 58.6953 214.759 58.6953Z" fill="#E8782C"/>
</svg>
