<svg width="127" height="127" viewBox="0 0 127 127" fill="none" xmlns="http://www.w3.org/2000/svg">
<path d="M63.1266 0C97.8174 0 126.112 28.2945 126.112 62.9853C126.112 80.472 118.86 96.5386 107.344 107.914C104.358 110.898 98.2462 107.059 94.5486 108.481C84.7371 112.32 43.3648 115.165 33.9796 112.179C31.2783 111.327 25.8756 114.028 23.6006 112.179C9.24148 100.663 0 82.8908 0 62.9853C0.141245 28.2945 28.4357 0 63.1266 0Z" fill="#CCC5B2"/>
<path d="M44.3588 39.9526C49.3074 39.9526 53.3178 35.9422 53.3178 30.9961C53.3178 26.0475 49.3074 22.0371 44.3588 22.0371C39.4127 22.0371 35.4023 26.0475 35.4023 30.9961C35.4023 35.9422 39.4127 39.9526 44.3588 39.9526Z" fill="#35383D"/>
<path d="M23.6016 112.18C34.4068 120.852 48.0572 126.113 62.9863 126.113C80.1905 126.113 95.9721 119.147 107.345 107.915C97.3922 105.355 82.8918 100.949 82.8918 100.949L52.181 100.805C52.181 100.664 37.6782 106.778 23.6016 112.18Z" fill="#F2F2F2"/>
<path d="M95.5421 57.4378C94.2634 62.8405 89.9982 66.1118 86.4444 67.2493C86.3006 68.1018 86.0182 68.9544 85.8744 69.8094L86.3006 74.642L88.5757 103.93C88.7195 105.92 88.1494 108.054 86.8707 109.618C83.8843 113.598 77.0592 120.423 63.5526 121.987C52.4623 123.409 46.6334 116.728 44.2171 113.03C43.3646 111.752 42.9383 110.044 43.0796 108.48L44.3584 90.1386L44.6434 85.8735C38.8145 80.0446 35.6869 71.0882 35.5431 67.1081C35.5431 66.8231 35.5431 66.5381 35.5431 66.253C35.2607 61.8467 34.9756 57.7228 34.8344 54.0278V53.884C34.5494 47.6288 34.5494 42.2262 35.2606 37.6761C36.3982 29.9984 42.0833 19.3344 58.5762 20.3307C74.7866 21.3244 84.4544 26.3008 90.7095 45.495C90.8508 45.78 92.1321 47.2026 92.4146 47.2026C94.6896 48.4814 96.6797 52.8902 95.5421 57.4378Z" fill="#B76732"/>
<path opacity="0.6" d="M86.1571 74.6431C81.7508 94.5486 66.3954 100.519 59.2852 100.804C52.0338 101.23 46.3487 95.4012 44.2148 90.1398L44.4999 85.8747L46.2049 87.4385C49.05 89.431 52.1775 90.8511 55.8726 90.8511C65.5404 90.8511 78.1944 84.8809 84.1671 73.6494L85.8721 69.8105L86.1571 74.6431Z" fill="#96562C"/>
<path d="M46.207 87.4375C49.0521 89.4301 52.1797 90.8501 55.8748 90.8501C65.5425 90.8501 78.1966 84.88 84.1692 73.6484" stroke="#96562C" stroke-width="2" stroke-linecap="round" stroke-linejoin="round"/>
<path opacity="0.4" d="M39.5265 62.2745C38.9565 64.4083 37.3927 65.8283 35.4027 66.2546C35.1177 61.8482 34.8352 57.7244 34.6914 54.0293C38.104 55.3081 40.6641 59.0031 39.5265 62.2745Z" fill="#864419"/>
<path opacity="0.4" d="M74.1286 64.8773C77.5563 63.1143 79.0495 59.2023 77.4706 56.1327C75.8917 53.0606 71.8409 51.9937 68.4132 53.7442C65.0006 55.5072 63.4949 59.4167 65.0713 62.4888C66.6502 65.5735 70.7034 66.6404 74.1286 64.8773Z" fill="#864419"/>
<path d="M61.846 55.0231C60.5672 55.0231 59.4297 53.8856 59.4297 52.6068V52.1805C59.4297 50.8992 60.5672 49.7617 61.846 49.7617C63.1248 49.7617 64.2623 50.8992 64.2623 52.1805V52.6068C64.2623 53.8856 63.1248 55.0231 61.846 55.0231Z" fill="#35383D"/>
<path d="M41.6546 55.0231C40.3758 55.0231 39.2383 53.8856 39.2383 52.6068V52.1805C39.2383 50.8992 40.3758 49.7617 41.6546 49.7617C42.9359 49.7617 44.0734 50.8992 44.0734 52.1805V52.6068C44.0734 53.8856 42.9359 55.0231 41.6546 55.0231Z" fill="#35383D"/>
<path d="M46.2067 70.5185L55.0219 69.666C55.4482 69.666 56.0182 70.0923 55.8744 70.6623C55.4482 72.3673 54.1694 75.4949 50.3306 75.4949C47.3442 75.4949 46.0655 72.9373 45.6392 71.5148C45.4954 71.0885 45.7804 70.6623 46.2067 70.5185Z" fill="#864B23"/>
<path d="M86.7278 56.7315C86.4428 53.3189 89.1441 49.9063 91.5604 51.3264" stroke="#96562C" stroke-width="2" stroke-linecap="round" stroke-linejoin="round"/>
<path d="M91.9902 47.345C91.849 47.2038 88.8626 45.7812 86.0201 47.63C83.745 49.0526 83.6012 51.6101 83.175 53.8852C83.0337 54.7377 82.8925 55.5927 82.7487 56.5865L78.9099 56.4452L77.4899 46.4925L71.8022 39.8111L72.796 33.1271C73.366 28.7208 69.5272 25.0232 65.1183 26.0195C59.1481 27.2983 51.0442 28.7208 45.3566 28.4358C43.5078 28.4358 42.3702 28.0095 41.5177 27.4395C38.1051 26.0195 35.545 20.3318 37.6789 18.6243C40.0952 17.0605 46.2091 17.6305 46.2091 17.6305C46.2091 17.6305 45.7828 14.9292 48.1991 13.7917C52.1817 12.0841 55.0243 16.208 60.8532 15.3555C77.6311 13.5067 90.7114 26.1607 91.9902 31.8484C92.4165 34.5497 92.2752 41.5161 91.9902 47.345Z" fill="#35383D"/>
<path d="M91.5626 58.7199C92.9851 53.5998 89.1463 51.4685 87.1562 54.0286" stroke="#96562C" stroke-width="2" stroke-linecap="round" stroke-linejoin="round"/>
<path d="M50.0469 66.2543C51.0432 67.2506 51.8957 68.2444 53.3182 68.5294C54.882 68.6732 56.4458 68.2444 58.0096 67.6769C59.4321 67.2506 60.8521 66.6806 62.1334 65.8281C63.1272 65.2606 62.7009 63.838 61.7047 63.553L58.5771 63.2705C57.5833 63.1268 56.587 62.8417 55.7345 62.2742L54.0295 61.1367L50.0469 66.2543Z" fill="#35383D"/>
<path d="M49.6192 66.3979C49.7605 66.5392 47.7704 68.8142 47.6292 68.9555C46.3504 69.8105 44.3578 69.5255 42.9378 69.3817C41.2303 69.2405 39.2402 68.9555 37.6764 68.103C36.5389 67.6767 36.6801 66.2541 37.8177 65.8279L40.804 64.9754C41.8003 64.6904 42.6528 64.1229 43.5053 63.5528L45.0691 62.1328C44.9279 62.2741 49.6192 66.3979 49.6192 66.3979Z" fill="#35383D"/>
<path d="M51.7531 51.7543C51.7531 51.1843 51.3243 50.3317 50.6155 49.7617C50.1893 49.1942 49.193 49.3354 48.908 49.9055C47.7705 52.1805 46.4917 54.5968 46.0654 55.4494C44.9279 57.1569 41.3741 61.5633 41.6566 62.5595C42.5116 65.8284 48.3405 66.6809 50.0455 66.6809C51.4681 66.6809 54.5956 63.9796 54.5956 62.842C54.7369 61.2782 52.8906 58.4357 52.8906 58.4357C52.4618 56.3019 51.7531 51.7543 51.7531 51.7543Z" fill="#864419"/>
</svg>
