<svg width="125" height="120" viewBox="0 0 125 120" fill="none" xmlns="http://www.w3.org/2000/svg">
<path d="M62.3697 0C96.8277 0 124.739 26.8514 124.739 59.8649C124.739 81.0407 113.286 99.5221 96.0568 110.205C86.3346 116.172 74.7863 114.054 62.3697 114.054C48.7032 114.054 36.0946 115.401 25.7961 108.279C10.2037 97.404 0 79.6935 0 59.7701C0 26.8514 27.9117 0 62.3697 0Z" fill="#4A9DC9"/>
<path d="M94.9976 103.177C94.6109 104.235 93.9374 105.293 93.2638 106.353C92.8796 107.122 92.3008 107.893 91.6272 108.566C90.5694 109.818 89.4143 110.779 87.9698 111.55C83.2547 113.957 76.3242 113.476 66.7966 114.052C51.3962 115.015 42.7343 115.689 37.4404 108.663C37.3431 108.566 37.2483 108.471 37.2483 108.374C31.1835 99.9042 30.4126 88.1612 30.4126 78.2469C30.4126 76.7077 30.4126 75.1684 30.4126 73.7239V73.5318C30.5099 70.2586 30.5099 67.1801 30.4126 64.9647V63.4254C29.8363 56.9764 28.297 31.567 35.8986 24.0602C38.4034 21.75 48.7967 18.3795 59.9608 18.9583C69.2015 19.3425 78.537 23.0972 85.3728 27.0439C86.912 28.5832 87.0093 30.7961 87.0093 30.7961L80.0788 49.3723C79.8867 50.3353 80.3682 52.2612 81.1366 54.4741C83.0626 60.1523 86.8148 68.0458 87.1041 68.6221C88.5486 71.1243 89.9931 73.5318 91.243 75.5526C92.4954 77.5734 93.6505 79.3072 94.4188 80.4623C97.1132 84.5039 98.7498 94.4182 94.9976 103.177Z" fill="#FF7555"/>
<path d="M74.0132 25.8926C66.5064 34.4572 52.2611 49.0866 45.0437 53.6122C39.3631 57.0774 35.4188 64.0055 32.9141 72.0911" stroke="#E35635" stroke-width="2" stroke-linecap="round"/>
<path opacity="0.6" d="M94.9991 103.18C94.6124 104.238 93.9388 105.296 93.2653 106.356C92.8811 107.124 92.3023 107.895 91.6287 108.569C90.5709 109.821 89.4158 110.782 87.9713 111.552C73.7261 111.455 40.7125 109.148 37.4419 108.666C37.3446 108.569 37.2498 108.474 37.2498 108.377C31.185 99.9068 30.4141 88.1638 30.4141 78.2496C30.4141 76.7103 30.4141 75.171 30.4141 73.7265C34.4581 63.8122 40.1363 57.942 40.1363 57.942C47.0668 53.4189 63.4276 46.7778 69.3951 42.4444C70.8396 41.4839 76.2308 47.8356 81.1381 54.4767C83.0641 60.1549 86.8162 68.0484 87.1056 68.6247C88.5501 71.127 89.9946 73.5344 91.2445 75.5552C92.4969 77.576 93.6519 79.3098 94.4203 80.4649C97.1147 84.5065 98.7513 94.4208 94.9991 103.18Z" fill="#E35635"/>
<path d="M32.9114 72.0898C31.5642 76.7102 30.6985 81.7147 30.3143 86.7193C29.4486 97.0178 30.0249 103.467 32.9114 110.205" stroke="#E35635" stroke-width="2" stroke-linecap="round"/>
<path d="M74.0195 70.9336C74.9825 93.2644 87.8806 91.3385 89.3226 110.301" stroke="#E35635" stroke-width="2" stroke-linecap="round"/>
<path d="M48.9879 68.1426C48.9879 68.1426 41.1917 90.184 48.6037 105.969" stroke="#E35635" stroke-width="2" stroke-linecap="round"/>
<path d="M81.7148 70.166C87.4878 77.9622 96.4391 85.1796 94.0341 100.772" stroke="#E35635" stroke-width="2" stroke-linecap="round"/>
<path d="M25.7969 108.472C35.4218 115.208 47.0674 119.347 59.6761 119.829C60.5418 119.829 65.7384 119.444 66.6066 119.347C70.8403 118.866 72.3796 119.058 74.2082 118.771C82.1017 117.229 89.5138 114.245 96.0576 110.204C88.935 106.449 64.2964 95.1875 64.2964 95.1875C64.2964 95.1875 37.5373 103.852 25.7969 108.472Z" fill="#F9F9F2"/>
<path d="M90.088 48.3156C90.088 50.9152 89.9932 53.4175 89.8959 55.8225C89.7038 58.5168 89.5117 61.1164 89.2223 63.716C89.0302 65.5446 88.8381 67.4681 88.6435 69.202C88.4514 70.644 88.2593 71.9937 88.0672 73.3409C87.3936 77.4797 83.9283 84.6023 79.5001 88.1624L80.0789 99.2318L80.3683 104.718C80.4631 107.317 79.7895 109.722 78.5371 111.84C77.3845 113.861 75.6506 116.653 74.3034 118.771C69.5883 119.829 61.5975 120.021 59.674 119.829C55.0537 116.556 51.2042 112.033 48.7967 108.951C47.0653 106.836 46.1997 104.044 46.4866 101.253L47.5468 87.2967L48.2204 79.2111V79.1163C46.8732 75.651 45.2367 69.7783 44.7552 68.239C41.6741 67.1812 38.0168 64.1975 36.4775 59.385C35.2251 55.2462 37.4405 51.1073 40.519 50.5285C43.6949 49.8549 46.2945 51.3942 47.2574 54.1859C47.4495 55.5331 47.5468 57.1696 47.6416 59.0956L48.2204 58.9035C67.3729 48.0262 73.6299 34.4546 87.1042 30.8945C88.5487 32.0496 90.088 41.0009 90.088 48.3156Z" fill="#FFC298"/>
<path opacity="0.4" d="M60.8961 68.9141C64.0994 66.7287 64.7355 62.0809 62.3206 58.5183C59.8932 54.9583 55.3327 53.8406 52.1169 56.026C48.9111 58.2015 48.2774 62.8593 50.6924 66.4218C53.1173 69.9819 57.6803 71.0995 60.8961 68.9141Z" fill="#E8782C"/>
<path opacity="0.6" d="M80.0789 99.2326C78.0581 100.388 75.6507 101.156 73.7247 101.638C71.417 102.216 68.8174 102.216 66.41 101.446C57.9402 98.9433 51.5884 93.073 47.5469 87.2003L48.2205 79.1172L49.6625 81.7143C53.8986 86.624 66.41 90.0893 74.4956 90.0893C75.6507 90.0893 76.8058 89.7999 77.9608 89.1263L79.5001 88.066L80.0789 99.2326Z" fill="#FEAE77"/>
<path opacity="0.4" d="M89.8968 55.8242C89.7047 58.5186 89.5126 61.1182 89.2233 63.7177C89.0312 65.5464 88.8391 67.4699 88.6445 69.2038C87.4894 68.7223 86.6237 67.9514 85.8553 66.8936C83.7372 63.5256 84.795 59.0974 88.3576 56.5951C88.839 56.3057 89.4154 56.0163 89.8968 55.8242Z" fill="#E8782C"/>
<path d="M77.8623 89.414C76.8045 90.0876 75.6494 90.3745 74.3995 90.3745C66.4087 90.3745 53.8974 86.9117 49.5664 82.002" stroke="#FEAE77" stroke-width="2" stroke-linecap="round"/>
<path d="M66.0275 57.4586C64.9697 57.4586 64.1016 56.5929 64.1016 55.5326V54.859C64.1016 53.8012 64.9697 52.9355 66.0275 52.9355C67.0853 52.9355 67.9535 53.8012 67.9535 54.859V55.5326C67.9535 56.5929 67.0853 57.4586 66.0275 57.4586Z" fill="#35454F"/>
<path d="M83.5471 57.4586C82.4868 57.4586 81.6211 56.5929 81.6211 55.5326V54.859C81.6211 53.8012 82.4868 52.9355 83.5471 52.9355C84.6049 52.9355 85.4706 53.8012 85.4706 54.859V55.5326C85.4706 56.5929 84.6049 57.4586 83.5471 57.4586Z" fill="#35454F"/>
<path d="M32.3398 41.4815C42.1568 39.4582 58.9043 32.2408 68.145 22.0371" stroke="#E35635" stroke-width="2" stroke-linecap="round"/>
<path d="M32.9141 33.2054C35.9951 30.5111 40.2313 26.5643 44.0807 22.7148" stroke="#E35635" stroke-width="2" stroke-linecap="round"/>
<path d="M48.4141 57.2682C49.185 57.2682 50.0506 57.2682 51.2057 57.0761C58.9046 55.4395 65.2564 51.3007 71.1291 44.7543C74.2077 41.2891 79.9831 34.4559 83.5457 31.0879" stroke="#FF7555" stroke-width="2" stroke-linecap="round"/>
<path d="M44.9459 57.8433C44.9459 55.149 41.7701 52.6467 39.5547 55.0517" stroke="#FEAE77" stroke-width="2" stroke-linecap="round"/>
<path d="M75.6552 58.0365C75.7525 57.4602 75.8473 57.1708 75.9446 56.8814C76.1367 56.3051 76.9076 56.3051 77.1945 56.8814C78.1575 58.518 79.6968 60.5413 79.9861 61.0203C80.8518 62.2727 83.8356 64.6777 83.2593 66.0273C82.6805 67.5666 79.602 69.2032 78.4469 69.2032C77.4839 69.2032 73.5371 68.4323 73.4423 67.1824C73.345 66.0273 73.8265 65.0644 74.308 64.1014C74.308 64.1987 75.271 60.6361 75.6552 58.0365Z" fill="#E8782C"/>
<path d="M70.0664 70.9336C72.0897 73.7253 75.6497 74.3989 78.5362 72.9544" stroke="#E8782C" stroke-width="2" stroke-linecap="round"/>
</svg>
