<svg width="366" height="296" viewBox="0 0 366 296" fill="none" xmlns="http://www.w3.org/2000/svg">
<path d="M4.43106 171.806C20.1006 122.44 37.4919 73.7111 56.6048 25.5573C58.265 21.4686 59.5324 17.0203 61.8861 13.3288C66.5661 5.9424 73.634 1.40508 82.2083 0.281885C90.4821 -0.837891 99.2067 1.64479 107.419 3.06934C120.373 5.33971 133.234 7.60666 146.188 9.93867C172.003 14.6917 197.757 19.6845 223.511 24.8895C249.63 30.1563 275.685 35.8168 301.743 41.4773C308.746 42.9909 315.964 44.5627 321.85 48.648C332.238 55.8221 336.071 68.3519 340.358 79.5223C343.682 88.2065 346.821 96.8634 349.779 105.702C355.638 123.44 361.524 141.781 364.844 160.273C366.115 167.447 366.566 174.166 364.332 181.247C362.159 188.12 357.872 194.14 352.526 198.893C345.974 204.615 339.272 210.152 332.812 215.871C319.195 228.011 306.091 240.784 293.592 254.07C287.491 260.546 281.543 267.114 275.685 273.832C272.819 277.072 270.038 280.4 267.261 283.732C261.406 290.752 253.795 295.564 244.376 295.718C237.913 295.776 232.027 293.235 226.08 291.115C221.639 289.451 217.109 287.787 212.672 286.123C203.705 282.794 194.83 279.342 186.013 275.86C167.262 268.477 148.661 260.758 130.214 252.769C91.2951 235.938 52.9804 217.748 15.3284 198.047C6.39189 193.626 1.44199 181.34 4.43106 171.806Z" fill="#DCD8E1"/>
<path d="M81.4005 114.87L86.5861 104.385L88.3453 91.2556L76.126 76.8903C69.7106 69.4011 59.1618 66.9356 50.1946 70.6339L24.5262 81.2975C19.7812 83.3247 15.3848 86.0539 11.5178 89.3139C7.91379 92.3993 -1.40527 100.419 0.179786 115.308C0.531642 119.01 1.58379 123.065 3.16885 128.174L15.6478 153.463C15.7366 153.552 15.8254 153.727 15.9996 153.727C22.3296 154.874 12.9252 153.288 73.663 147.737V106.323L81.4005 114.87Z" fill="#D86A04"/>
<path d="M73.6621 106.324V88.082" stroke="black" stroke-linecap="round" stroke-linejoin="round"/>
<path d="M81.4004 114.874C88.6083 123.069 92.8272 126.329 99.4202 126.329C106.451 126.329 112.166 121.041 112.958 114.258L119.374 68.0832L125.263 53.2795C125.878 51.6941 124.737 50.0195 123.066 50.0195C120.955 50.0195 119.9 53.3686 119.9 53.3686C120.518 51.7831 119.374 50.0195 117.703 50.0195C115.681 50.0195 114.625 53.4576 114.625 53.4576C115.77 50.4613 111.373 48.6977 110.054 51.605L103.728 67.3778C103.55 67.7305 103.113 67.8195 102.847 67.5558L97.5755 62.5323C94.8495 60.0633 91.0679 64.0287 93.7051 66.5867L98.9795 71.5213C99.5944 72.0486 99.7721 72.8431 99.6832 73.6341L94.5865 98.2178C94.5865 98.3068 94.4088 98.3959 94.32 98.3069L88.3453 91.2595L81.4004 114.874Z" fill="#FD9DA6"/>
<path d="M44.746 144.039C44.746 144.039 44.8314 144.039 44.8314 144.128L46.8537 148.268C47.2944 149.148 48.1723 149.59 49.0536 149.501L70.0591 146.857C78.2372 145.888 85.5305 148.004 92.1235 152.761C97.5756 156.641 99.2427 160.254 108.121 174.437C109.354 177.17 105.573 179.461 103.728 176.995L93.8828 162.983C93.8828 162.983 93.794 162.894 93.794 162.983C93.794 163.072 93.7052 163.072 93.7052 163.072V179.108C93.6198 182.632 88.6972 182.985 87.9935 179.814L87.9047 179.725C87.9047 179.725 87.8159 179.725 87.8159 179.814C87.1122 182.985 82.0154 182.721 81.9266 179.019V162.63V162.544H81.8412L43.7792 175.585C34.9008 178.581 25.2299 174.437 21.3629 165.979L15.3848 153.292V153.203C15.3848 153.203 15.3848 153.203 15.4736 153.114L44.746 144.039Z" fill="#FD9DA6"/>
<path d="M87.9922 179.635V162.715" stroke="black" stroke-linecap="round" stroke-linejoin="round"/>
<path d="M114.626 53.4531L109.529 65.6987" stroke="black" stroke-linecap="round" stroke-linejoin="round"/>
<path d="M94.5867 98.3066L93.3535 104.036" stroke="black" stroke-linecap="round" stroke-linejoin="round"/>
<path d="M115.066 66.0526L119.9 53.3652" stroke="black" stroke-linecap="round" stroke-linejoin="round"/>
<path d="M104.518 65.4355L116.563 66.141" stroke="black" stroke-linecap="round" stroke-linejoin="round"/>
<path d="M113.043 65.9668C111.373 66.3195 109.969 67.3776 108.913 68.6995C107.858 70.0213 107.154 71.6068 106.717 73.1923" stroke="black" stroke-linecap="round" stroke-linejoin="round"/>
<path d="M46.5024 54.0719C46.417 54.0719 46.3282 54.0719 46.3282 54.0719C43.6022 45.8773 31.4717 47.8155 31.3829 56.3628C31.3829 56.5374 31.2086 56.7155 31.0344 56.7155C26.4603 56.5374 22.3303 59.7118 21.6266 64.3793C20.2225 78.4775 41.0538 78.3919 39.6464 64.4683C39.6464 64.2937 39.7352 64.1156 39.9982 64.1156C41.4056 63.941 42.8131 63.4102 43.8652 62.4411C44.0429 62.2664 44.3059 62.352 44.3947 62.6191C47.295 70.372 59.1624 68.4338 59.1624 59.7974C59.2478 53.1884 51.425 49.6647 46.5024 54.0719Z" fill="black"/>
<path d="M36.1309 76.5422C38.242 78.6584 40.9646 80.1549 44.1313 80.6857C51.8653 81.9184 59.1621 76.8949 60.8325 69.3167C60.8325 69.2311 60.7437 69.142 60.6549 69.053C57.1397 68.7003 53.5358 69.3167 50.106 70.6385L36.1309 76.5422Z" fill="black"/>
<path d="M38.7692 61.2051C38.6804 61.2051 38.6804 61.2051 38.7692 61.2051L38.6803 65.4342C38.6803 65.4342 38.6804 65.5232 38.5915 65.5232H38.5061C32.7022 60.0579 24.9682 69.3106 31.3836 74.0705V74.1596L31.2982 74.2452L26.7275 74.1596H26.6387V74.2452C28.8352 81.0323 34.8134 85.0834 41.4064 85.0834C53.6257 85.0834 61.0078 71.6015 54.4148 61.2941H54.326H38.7692V61.2051Z" fill="#FD9DA6"/>
<path d="M51.4231 66.9397C52.1098 66.9397 52.6563 66.3815 52.6563 65.7035C52.6563 65.0186 52.1098 64.4707 51.4231 64.4707C50.7468 64.4707 50.1934 65.0186 50.1934 65.7035C50.1934 66.3815 50.7468 66.9397 51.4231 66.9397Z" fill="black"/>
<path d="M46.5911 66.9397C47.2778 66.9397 47.8209 66.3815 47.8209 65.7035C47.8209 65.0186 47.2778 64.4707 46.5911 64.4707C45.9147 64.4707 45.3613 65.0186 45.3613 65.7035C45.3613 66.3815 45.9147 66.9397 46.5911 66.9397Z" fill="black"/>
<path d="M48.9648 72.4869H50.8983C51.7763 72.4869 52.48 71.7815 52.48 70.898C52.48 70.0179 51.7763 69.3125 50.8983 69.3125H48.9648" stroke="black" stroke-linecap="round" stroke-linejoin="round"/>
<path d="M44.043 73.3691C45.0097 74.5129 46.2395 75.3073 47.6469 75.7491" stroke="black" stroke-linecap="round" stroke-linejoin="round"/>
<path d="M31.3828 73.9863C32.2642 74.5137 33.5828 74.9554 34.6383 74.9554" stroke="black" stroke-linecap="round" stroke-linejoin="round"/>
<path d="M44.7464 144.037L28.4824 108.438" stroke="black" stroke-linecap="round" stroke-linejoin="round"/>
<path d="M296.169 69.0138L298.437 68.9145C298.536 68.9145 298.536 68.9145 298.536 69.0138C302.089 90.971 333.466 86.7179 331.789 65.0586C331.789 65.0586 331.888 64.86 331.69 64.1683C329.619 58.1345 310.377 49.0325 301.891 56.8469C300.412 58.9255 299.032 61.5965 298.636 64.6614C298.636 64.6614 298.636 64.7607 298.536 64.7607L296.169 64.86C293.207 64.86 293.406 69.1131 296.169 69.0138Z" fill="#FD9DA6"/>
<path d="M325.571 53.1896C318.271 48.142 307.319 49.6282 301.99 56.7475V56.8469L302.089 56.9462H317.284H317.383V57.0455C316.396 58.9255 315.607 60.9048 315.214 62.9799V63.0792H315.31C317.68 61.0999 321.527 61.2986 323.798 63.4765C329.025 69.3116 322.022 76.7289 315.706 73.3661H315.607V73.4654C319.159 81.6737 327.249 79.4992 327.744 79.3006C335.242 71.9826 334.945 59.6172 325.571 53.1896Z" fill="#414860"/>
<path d="M306.133 61.7949L302.484 61.9907" stroke="black" stroke-linecap="round" stroke-linejoin="round"/>
<path d="M300.213 73.6652L302.778 70.9941" stroke="black" stroke-linecap="round" stroke-linejoin="round"/>
<path d="M308.008 73.1684L303.766 66.9395" stroke="black" stroke-linecap="round" stroke-linejoin="round"/>
<path d="M222.659 158.429L204.502 164.066C202.63 164.658 200.557 163.573 199.966 161.693C199.371 159.813 200.458 157.734 202.333 157.142L220.49 151.505C222.362 150.909 224.435 151.998 225.026 153.878C225.62 155.858 224.534 157.833 222.659 158.429Z" fill="black"/>
<path d="M249.891 155.956C242.393 152.001 238.543 149.33 230.652 149.33C221.377 149.33 212.793 153.98 207.761 161.795L202.333 170.102C198.78 175.64 206.377 180.191 209.732 175.345L216.048 165.551C216.246 165.257 216.738 165.353 216.738 165.75V177.52C216.738 183.06 225.026 183.06 225.026 177.52C225.026 183.06 233.317 182.961 233.317 177.52V170.301C233.317 169.904 233.709 169.705 234.106 169.904C236.965 171.585 235.783 170.893 241.307 173.958L249.891 155.956Z" fill="#FD9DA6"/>
<path d="M225.027 162.389V177.521" stroke="black" stroke-linecap="round" stroke-linejoin="round"/>
<path d="M356.653 131.628C354.087 101.261 345.205 78.6119 321.921 78.6119C321.624 78.6119 300.113 77.0298 291.925 103.439C291.826 103.737 278.407 142.014 278.506 141.717L239.136 146.268C239.037 146.268 239.037 146.268 239.037 146.367V178.611V178.71C239.037 178.71 239.037 178.71 239.136 178.71C249.101 177.919 285.609 175.248 288.57 175.149H288.669C288.669 175.149 288.669 175.149 288.669 175.248V192.853C288.669 192.952 288.669 192.952 288.768 192.952H363.56C363.659 192.952 363.659 192.952 363.659 192.853L356.653 131.628Z" fill="#414860"/>
<path d="M325.475 123.117L316.395 155.361C316.395 155.361 312.842 173.956 299.031 174.452L288.67 175.144" stroke="black" stroke-linecap="round" stroke-linejoin="round"/>
<path d="M105.595 203.007L87.8454 255.934C87.5004 257.006 87.3125 258.112 87.3125 259.245C87.3125 263.663 89.3246 267.228 91.7807 267.228H277.687C280.171 267.228 282.155 263.663 282.155 259.245C282.155 258.112 281.964 257.006 281.619 255.934L263.873 203.007C265.57 201.555 266.64 199.377 266.64 196.98V98.0593C266.64 93.6761 263.087 90.1113 258.711 90.1113H110.784C106.412 90.1113 102.856 93.6761 102.856 98.0593V196.98C102.856 199.377 103.925 201.524 105.595 203.007Z" fill="#CA3F94"/>
<path d="M114.846 205.28H110.785C108.773 205.249 106.884 204.112 105.596 203.01" stroke="black" stroke-linecap="round" stroke-linejoin="round"/>
<path d="M263.872 203.01C262.393 204.27 260.695 205.28 258.741 205.28H257.262" stroke="black" stroke-linecap="round" stroke-linejoin="round"/>
<path d="M257.231 205.279L266.639 240.89H105.438L114.845 205.279H257.231Z" stroke="black" stroke-linecap="round" stroke-linejoin="round"/>
<path d="M88.0664 256.787H281.461" stroke="black" stroke-linecap="round" stroke-linejoin="round"/>
<path d="M157.355 256.787L162.076 248.963C163.556 246.819 166.89 245.463 170.572 245.463H198.926C202.605 245.463 205.942 246.85 207.422 248.963L212.139 256.787" stroke="black" stroke-linecap="round" stroke-linejoin="round"/>
<path d="M114.092 240.886L123.5 205.525" stroke="black" stroke-linecap="round" stroke-linejoin="round"/>
<path d="M124.473 240.856L132.531 205.496" stroke="black" stroke-linecap="round" stroke-linejoin="round"/>
<path d="M134.857 240.856L141.59 205.496" stroke="black" stroke-linecap="round" stroke-linejoin="round"/>
<path d="M145.242 240.825L150.623 205.465" stroke="black" stroke-linecap="round" stroke-linejoin="round"/>
<path d="M155.627 240.825L159.655 205.465" stroke="black" stroke-linecap="round" stroke-linejoin="round"/>
<path d="M166.01 240.792L168.719 205.432" stroke="black" stroke-linecap="round" stroke-linejoin="round"/>
<path d="M176.426 240.792L177.748 205.432" stroke="black" stroke-linecap="round" stroke-linejoin="round"/>
<path d="M186.809 240.765V205.404" stroke="black" stroke-linecap="round" stroke-linejoin="round"/>
<path d="M197.193 240.727L195.84 205.367" stroke="black" stroke-linecap="round" stroke-linejoin="round"/>
<path d="M207.579 240.727L204.873 205.367" stroke="black" stroke-linecap="round" stroke-linejoin="round"/>
<path d="M217.961 240.7L213.934 205.34" stroke="black" stroke-linecap="round" stroke-linejoin="round"/>
<path d="M228.345 240.7L222.965 205.34" stroke="black" stroke-linecap="round" stroke-linejoin="round"/>
<path d="M238.73 240.667L232.027 205.307" stroke="black" stroke-linecap="round" stroke-linejoin="round"/>
<path d="M249.116 240.636L241.061 205.307" stroke="black" stroke-linecap="round" stroke-linejoin="round"/>
<path d="M259.496 240.64L250.088 205.279" stroke="black" stroke-linecap="round" stroke-linejoin="round"/>
<path d="M110.094 223.225H261.983" stroke="black" stroke-linecap="round" stroke-linejoin="round"/>
<path d="M107.922 231.455H264.156" stroke="black" stroke-linecap="round" stroke-linejoin="round"/>
<path d="M112.328 214.771H259.749" stroke="black" stroke-linecap="round" stroke-linejoin="round"/>
<path d="M110.408 193.447V100.711C110.408 98.8519 111.887 97.3691 113.742 97.3691H256.698C258.553 97.3691 260.032 98.8519 260.032 100.711V193.416C260.032 195.279 258.553 196.762 256.698 196.762H113.742C111.887 196.793 110.408 195.279 110.408 193.447Z" fill="white"/>
<path d="M159.829 256.431L179.297 217.708C191.052 195.192 168.844 170.985 145.461 180.255L123.741 188.631L100.051 187.98L76.1213 180.159C57.2269 175.91 39.8664 192.189 43.2108 211.568L48.6492 239.415C54.2925 268.087 80.4734 288.021 109.575 285.791L138.099 283.528C139.295 283.408 140.385 282.874 141.099 281.864L159.829 256.431Z" fill="#007D71"/>
<path d="M127.962 177.589C128.065 174.099 127.255 171.189 125.769 168.706C119.89 158.899 103.534 157.659 97.3919 169.442C94.273 169.908 92.4147 172.124 91.8544 174.63C91.1473 177.788 92.6845 181.352 96.5105 182.506C97.2997 184.633 98.4679 186.359 100.05 187.982L114.004 206.042C114.599 206.861 115.907 206.665 116.3 205.779L123.74 188.633L123.255 188.622L123.163 188.598L123.183 188.506C123.969 187.612 127.621 184.335 127.962 177.589Z" fill="#BE6640"/>
<path d="M100.775 182.586C99.7228 182.933 98.066 182.95 96.5117 182.504" stroke="black" stroke-linecap="round" stroke-linejoin="round"/>
<path d="M143.732 253.591C143.794 253.31 143.951 253.053 144.105 252.796L151.722 243.979C153.642 241.482 157.602 243.348 156.915 246.413L154.442 257.46C154.254 258.296 155.077 258.971 155.849 258.56L169.879 251.084C172.311 249.779 175.126 251.974 174.525 254.666C174.129 256.43 172.984 256.758 168.967 259.073C171.399 257.765 174.214 259.96 173.613 262.652C173.257 264.23 172.188 264.672 170.371 265.826C171.939 264.908 173.729 265.604 174.59 266.97C175.577 268.655 174.398 270.435 173.561 271.127C170.849 273.247 165.274 275.99 165.274 275.99C155.75 281.161 147.842 282.599 138.376 283.592C138.284 283.571 138.191 283.551 138.212 283.455L143.732 253.591Z" fill="#BE6640"/>
<path d="M170.372 265.828L157.408 272.465" stroke="black" stroke-linecap="round" stroke-linejoin="round"/>
<path d="M168.966 259.074L154.885 266.341" stroke="black" stroke-linecap="round" stroke-linejoin="round"/>
<path d="M144.831 215.223L125.342 254.038" stroke="black" stroke-linecap="round" stroke-linejoin="round"/>
<path d="M125.344 254.039C100.413 255.45 82.2601 237.91 80.1387 213.053" stroke="black" stroke-linecap="round" stroke-linejoin="round"/>
<path d="M101.407 244.069C98.7185 243.463 82.598 242.47 79.6123 262.763C78.6012 267.704 85.8262 269.331 87.0218 264.43C86.0106 269.372 93.2356 270.998 94.4313 266.098C93.4201 271.039 100.645 272.666 101.841 267.766C102.732 263.773 103.945 255.756 113.052 252.442C109.551 248.534 107.129 245.452 101.407 244.069Z" fill="#BE6640"/>
<path d="M87.0215 264.429L87.6842 261.46C88.142 259.415 88.7227 257.693 89.4674 256.107" stroke="black" stroke-linecap="round" stroke-linejoin="round"/>
<path d="M94.4316 266.098L95.0944 263.126C95.5521 261.085 96.1329 259.362 96.8776 257.773" stroke="black" stroke-linecap="round" stroke-linejoin="round"/>
<path d="M143.833 253.129L125.342 254.04" stroke="black" stroke-linecap="round" stroke-linejoin="round"/>
<path d="M129.083 246.883L141.672 253.225L141.651 253.317L125.322 254.129L128.971 246.954C128.991 246.859 129.012 246.766 129.083 246.883Z" fill="black"/>
<path d="M119.449 173.913C120.163 174.074 120.877 173.622 121.037 172.906C121.198 172.184 120.744 171.475 120.033 171.314C119.319 171.153 118.605 171.598 118.445 172.324C118.284 173.037 118.735 173.756 119.449 173.913Z" fill="black"/>
<path d="M113.562 173.273C114.272 173.434 114.989 172.978 115.147 172.266C115.311 171.54 114.856 170.834 114.142 170.673C113.428 170.513 112.718 170.958 112.554 171.68C112.393 172.396 112.848 173.112 113.562 173.273Z" fill="black"/>
<path d="M116.612 175.713L118.559 176.151C119.393 176.34 119.875 177.226 119.595 178.041C119.407 178.877 118.522 179.36 117.709 179.079L115.762 178.644" stroke="black" stroke-linecap="round" stroke-linejoin="round"/>
<path d="M111.365 178.729C111.898 180.701 113.756 182.386 115.745 182.639" stroke="black" stroke-linecap="round" stroke-linejoin="round"/>
<path d="M102.39 163.64C102.254 163.804 101.997 163.65 101.946 163.444C100.207 153.397 85.6208 152.942 83.3525 163.064C82.1056 168.632 85.9453 174.081 91.7595 174.608C91.7595 174.608 91.8551 174.628 91.8756 174.536C92.9858 170.009 99.4149 167.358 103.176 171.423L103.268 171.444C103.774 171.362 108.789 170.249 110.374 165.338C110.394 165.246 110.394 165.246 110.486 165.266L125.585 168.663C125.585 168.663 125.678 168.684 125.698 168.591L125.719 168.499C121.411 160.801 110.514 157.763 102.39 163.64Z" fill="black"/>
<path d="M123.073 188.576C119.968 191.586 115.773 193.37 111.141 193.205C111.141 193.205 111.141 193.205 111.049 193.185C113.054 195.099 115.572 196.445 118.537 197.113C118.998 197.219 119.463 197.322 119.944 197.332L123.856 188.559L123.073 188.576Z" fill="black"/>
<path d="M99.2305 187.307C102.052 190.769 106.302 193.09 111.047 193.183C111.047 193.183 111.047 193.183 111.139 193.203C115.679 193.347 119.966 191.584 123.071 188.574C123.321 188.337 123.567 188.101 123.816 187.865" stroke="black" stroke-linecap="round" stroke-linejoin="round"/>
<path d="M301.3 282.309C301.3 267.885 296.09 267.885 296.09 253.461C296.09 239.038 301.3 239.038 301.3 224.614C301.3 219.851 300.388 217.108 299.281 214.629H230.724C231.83 217.043 232.742 219.851 232.742 224.614C232.742 239.038 228.77 239.038 228.77 253.461C228.77 267.885 233.979 267.885 233.979 282.309H301.3Z" fill="black"/>
<path d="M308.265 276.177C308.265 261.753 303.058 261.753 303.058 247.33C303.058 232.903 308.2 235.776 308.2 221.352C308.2 216.589 306.703 214.305 305.597 211.822L242.833 211.952C243.94 214.37 240.879 216.654 240.879 221.417C240.879 235.841 235.734 232.971 235.734 247.395C235.734 261.818 240.944 261.818 240.944 276.242H308.265V276.177Z" fill="#F4BE53"/>
<path d="M252.403 236.037C254.091 236.037 255.464 234.668 255.464 232.973C255.464 231.274 254.091 229.904 252.403 229.904C250.712 229.904 249.346 231.274 249.346 232.973C249.346 234.668 250.712 236.037 252.403 236.037Z" fill="black"/>
<path d="M249.344 266.908C251.035 266.908 252.401 265.539 252.401 263.844C252.401 262.152 251.035 260.775 249.344 260.775C247.65 260.775 246.283 262.152 246.283 263.844C246.283 265.539 247.65 266.908 249.344 266.908Z" fill="black"/>
<path d="M250.84 250.791C252.534 250.791 253.901 249.414 253.901 247.723C253.901 246.024 252.534 244.654 250.84 244.654C249.146 244.654 247.779 246.024 247.779 247.723C247.779 249.414 249.146 250.791 250.84 250.791Z" fill="black"/>
<path d="M264.252 232.973H296.677" stroke="black" stroke-linecap="round" stroke-linejoin="round"/>
<path d="M261.256 247.721H293.681" stroke="black" stroke-linecap="round" stroke-linejoin="round"/>
<path d="M262.104 262.404H294.529" stroke="black" stroke-linecap="round" stroke-linejoin="round"/>
<path d="M308.265 218.48C308.265 219.524 308.265 220.438 308.2 221.353H240.88C240.945 220.438 240.945 219.524 240.945 218.48C240.945 213.716 240.033 210.908 238.926 208.494H306.246C307.353 210.977 308.265 213.716 308.265 218.48Z" fill="white"/>
<path d="M184.662 64.0109C199.313 64.0109 211.194 52.1009 211.194 37.4136C211.194 22.7299 199.313 10.8164 184.662 10.8164C170.003 10.8164 158.129 22.7299 158.129 37.4136C158.129 52.1009 170.003 64.0109 184.662 64.0109Z" fill="#007D71"/>
<path d="M184.047 56.0791C182.342 56.8291 180.091 55.5997 180.432 53.6855L180.501 49.3091H180.296C178.933 49.3091 177.706 48.9667 176.545 48.2167C176.408 48.1483 176.272 48.0113 176.135 47.8743C173.136 44.8643 173.409 40.4913 173.409 40.4913V32.6289C173.409 26.4753 178.318 23.1913 184.388 23.1228C190.663 22.9858 195.439 31.0537 195.846 37.2758V39.9434C195.846 41.3097 195.302 42.5425 194.346 43.4979C193.868 43.9773 193.598 44.6622 193.598 45.3437V50.1995C193.598 51.2234 192.983 52.1137 192.095 52.5246L184.047 56.0791Z" fill="#FD9DA6"/>
<path d="M193.462 44.3184H192.027" stroke="black" stroke-linecap="round" stroke-linejoin="round"/>
<path d="M176.887 40.4902C176.887 40.4902 178.933 41.9294 180.979 40.4902" stroke="black" stroke-linecap="round" stroke-linejoin="round"/>
<path d="M204.03 55.6019L193.597 51.7734L180.431 57.6531V53.6877L167.812 57.9271C170.747 60.3207 174.156 62.2349 178.044 63.1904C178.112 63.1904 178.112 63.1904 178.18 63.1904C180.09 63.5328 182.204 63.8067 184.524 63.9437C192.026 64.0807 199.053 60.9337 204.03 55.6019Z" fill="white"/>
<path d="M176.957 34.8145C177.435 34.8145 177.841 35.2254 177.841 35.7048C177.841 36.1842 177.435 36.5951 176.957 36.5951C176.478 36.5951 176.068 36.1842 176.068 35.7048C176.068 35.2254 176.478 34.8145 176.957 34.8145Z" fill="black"/>
<path d="M180.841 34.8145C181.32 34.8145 181.729 35.2254 181.729 35.7048C181.729 36.1842 181.32 36.5951 180.841 36.5951C180.363 36.5951 179.953 36.1842 179.953 35.7048C179.953 35.2254 180.363 34.8145 180.841 34.8145Z" fill="black"/>
<path d="M195.708 33.7914C195.575 30.1684 193.935 26.6824 191.072 24.4942C188.616 22.58 185.07 21.3472 180.226 22.919C179.342 21.6212 177.907 20.8027 176.27 20.8027C173.749 20.8027 171.703 22.5115 171.362 25.0387C170.952 28.1172 173.271 30.6479 176.202 30.6479C176.407 30.6479 176.544 30.6479 176.749 30.6479H185.617C185.887 30.6479 186.092 30.8499 186.092 31.1238C186.023 32.2881 186.228 35.0208 188.616 35.0208V38.7157C188.616 39.4657 189.231 40.0136 189.911 40.0136C190.662 40.0136 191.209 39.3972 191.209 38.7157V35.0208C191.209 35.0208 195.708 33.312 195.845 37.2775L195.708 33.7914Z" fill="black"/>
<path d="M180.432 54.0267L193.597 47.873V51.907L180.432 57.9921V54.0267Z" fill="white"/>
<path d="M182.688 157.472C181.184 155.104 180.4 152.992 180.336 151.136C180.336 149.664 181.008 148.224 182.352 146.816C183.728 145.376 185.872 143.92 188.784 142.448C188.816 142.416 188.992 142.064 189.312 141.392C189.632 140.72 189.792 139.744 189.792 138.464C189.792 137.216 189.456 136.048 188.784 134.96C188.144 133.84 187.12 132.944 185.712 132.272C184.336 131.568 182.624 131.216 180.576 131.216C179.296 131.216 178.08 131.52 176.928 132.128L175.824 127.856C176.528 127.472 177.552 127.136 178.896 126.848C180.24 126.56 181.824 126.416 183.648 126.416C186.848 126.416 189.488 126.944 191.568 128C193.648 129.024 195.168 130.4 196.128 132.128C197.12 133.824 197.616 135.696 197.616 137.744C197.616 139.376 197.296 140.768 196.656 141.92C196.016 143.04 195.248 143.952 194.352 144.656C193.488 145.328 192.336 146.096 190.896 146.96C189.84 147.6 189.04 148.112 188.496 148.496C187.952 148.88 187.504 149.312 187.152 149.792C186.928 150.24 186.832 150.752 186.864 151.328C186.864 153.824 187.024 155.872 187.344 157.472H182.688ZM184.464 170.384C183.408 170.384 182.464 170.016 181.632 169.28C180.8 168.512 180.384 167.568 180.384 166.448C180.384 165.168 180.848 164.128 181.776 163.328C182.736 162.496 183.872 162.08 185.184 162.08C186.496 162.08 187.536 162.48 188.304 163.28C189.072 164.048 189.456 164.976 189.456 166.064C189.456 167.408 188.992 168.464 188.064 169.232C187.168 170 185.968 170.384 184.464 170.384Z" fill="#414860"/>
</svg>
