<svg width="235" height="259" viewBox="0 0 235 259" fill="none" xmlns="http://www.w3.org/2000/svg">
<path d="M63.362 113.389C64.2744 113.576 63.659 116.221 61.4736 117.078C58.312 118.326 55.7149 117.541 52.5195 117.167H52.511L44.9615 117.469C44.953 117.469 44.9445 117.469 44.9361 117.464C44.9276 117.46 44.9233 117.452 44.9191 117.443C44.9148 117.435 44.9148 117.426 44.9148 117.418C44.9191 117.409 44.9233 117.405 44.9276 117.401L50.0242 112.774C50.6353 112.213 51.4119 111.882 52.2309 111.823L56.2836 111.525C56.831 111.487 57.3742 111.589 57.8622 111.818L59.6827 112.684H59.6912C59.81 112.706 61.8979 113.092 63.362 113.389Z" fill="#577482"/>
<path d="M138.305 139.803C138.314 139.807 138.318 139.816 138.322 139.824C138.326 139.837 138.331 139.845 138.326 139.858C137.906 141.004 128.265 167.074 124.068 176.366C121.157 182.819 116.017 189.522 110.832 194.812C109.011 196.675 106.541 197.762 103.94 197.847C101.334 197.936 98.801 197.006 96.8616 195.266C91.0436 190.04 82.395 181.805 74.5103 172.516L55.0362 148.807C55.0277 148.798 55.0277 148.786 55.0277 148.777C55.0277 148.765 55.032 148.752 55.0405 148.748L66.5492 138.266C66.5577 138.258 66.5705 138.254 66.5832 138.254C66.5917 138.254 66.6044 138.258 66.6129 138.266L79.9252 149.074C79.9422 149.087 79.9677 149.113 79.9889 149.125L102.922 164.709C102.926 164.709 102.93 164.714 102.934 164.714C102.943 164.714 102.947 164.714 102.951 164.714C102.956 164.709 102.96 164.709 102.964 164.705C102.964 164.701 102.968 164.697 102.968 164.688L111.982 130.137C111.982 130.133 111.986 130.128 111.99 130.124C111.995 130.124 111.999 130.12 112.003 130.116C112.007 130.116 112.011 130.111 112.016 130.111C112.024 130.111 112.028 130.111 112.033 130.116L138.305 139.803Z" fill="#FFCDB8"/>
<path d="M41.8873 127.606C41.8873 127.254 41.9679 126.915 42.1122 126.6L43.0712 124.558C43.0755 124.554 43.0755 124.55 43.0755 124.546C43.0755 124.541 43.0755 124.541 43.0712 124.537V124.533L42.4771 121.723C42.4389 121.553 42.422 121.383 42.422 121.209C42.422 120.615 42.6341 120.042 43.0203 119.592L44.8451 117.473C45.2355 117.019 45.6981 116.637 46.2243 116.348C46.9287 115.954 47.7138 115.729 48.5243 115.699L52.3521 115.55L55.9592 115.41H55.9677C56.0611 115.414 58.0004 115.559 59.944 115.852C60.0883 115.869 60.2326 115.894 60.3726 115.915C61.3487 116.051 62.3077 116.28 63.2371 116.612C64.2725 117.045 64.4635 119.227 63.2753 119.855C62.4265 120.305 61.7136 120.619 61.4038 120.746C61.3996 120.751 61.3953 120.751 61.3911 120.759C61.3826 120.768 61.3784 120.776 61.3784 120.785C61.3784 120.793 61.3784 120.797 61.3784 120.801C61.3826 120.806 61.3826 120.81 61.3868 120.814C61.3911 120.818 61.3953 120.823 61.3996 120.823C61.4038 120.827 61.4123 120.827 61.4165 120.827C62.1422 120.886 64.9982 121.162 66.8102 121.757C67.4977 121.982 68.8175 123.548 67.6208 124.546C66.3052 125.641 63.0588 126.673 62.6727 126.796H62.6684C62.6642 126.796 62.6642 126.796 62.6642 126.796V126.8H62.6599C62.6599 126.804 62.6642 126.804 62.6642 126.804V126.808H62.6727C63.9245 126.808 65.1637 127.008 66.3477 127.403C66.6192 127.488 66.8527 127.653 67.0394 127.87C67.2176 128.09 67.328 128.354 67.3661 128.634C67.4001 128.914 67.3534 129.198 67.2346 129.457C67.1158 129.712 66.9248 129.929 66.6829 130.081C65.8639 130.574 64.9854 130.969 64.0688 131.257L64.0646 131.262C64.0561 131.266 64.0476 131.27 64.0434 131.278C64.0391 131.283 64.0391 131.295 64.0391 131.304C64.1452 131.856 64.2046 132.412 64.2216 132.968C64.264 133.286 64.1919 133.613 64.0179 133.889C63.9585 133.944 63.8948 133.995 63.8312 134.051C63.8227 134.055 63.8142 134.068 63.8142 134.076C63.8142 134.089 63.8185 134.102 63.8227 134.11L64.4677 134.921L64.4762 134.925L74.5888 143.322C74.5931 143.326 74.5973 143.33 74.5973 143.335C74.6016 143.339 74.6016 143.347 74.6016 143.352C74.6016 143.356 74.6016 143.364 74.6016 143.369C74.5973 143.373 74.5931 143.381 74.5888 143.386L59.4475 157.747C59.4475 157.751 59.439 157.756 59.4348 157.756C59.4305 157.76 59.422 157.76 59.4178 157.76C59.4135 157.76 59.405 157.76 59.4008 157.756C59.3966 157.751 59.3923 157.747 59.3881 157.743L55.0086 152.644L55.0044 152.64L49.6149 147.363C49.6107 147.359 49.6065 147.355 49.6022 147.351C49.6022 147.342 49.6022 147.338 49.6022 147.329C49.6022 147.329 49.6022 147.325 49.598 147.321C49.598 147.321 49.598 147.317 49.5937 147.317C49.5895 147.312 49.5853 147.308 49.581 147.304L46.5892 139.968C46.585 139.96 46.585 139.956 46.585 139.951L45.8169 135.71C45.8169 135.71 45.8126 135.702 45.8084 135.698C45.8084 135.693 45.8041 135.689 45.7957 135.685L45.7914 135.681L44.0685 134.607C43.7672 134.42 43.5211 134.169 43.3343 133.872C43.1519 133.575 43.0373 133.236 43.0076 132.887L42.8081 130.544V130.54C42.8081 130.536 42.8081 130.531 42.8039 130.527L42.0315 128.413C41.9382 128.154 41.8873 127.878 41.8873 127.606Z" fill="#577482"/>
<path d="M133.351 57.5312L139.398 42.0236L153.419 59.3184C153.419 59.3184 158.423 56.4487 160.375 49.181C160.948 47.0329 160.782 44.7533 159.895 42.7114L155.893 33.4739C155.893 33.4739 154.302 20.5007 152.469 13.7722C151.807 11.276 150.3 9.08553 148.208 7.56577C147.296 6.87381 146.235 6.39411 145.106 6.16912C145.106 6.16912 135.974 4.09748 128.348 4.79369C128.348 4.79369 127.338 3.00649 124.049 1.20654C122.021 0.102805 119.67 -0.258034 117.399 0.183461C113.397 0.973059 106.311 2.38245 102.542 3.27393C97.0976 4.56021 91.7548 8.62282 88.1901 17.631C84.6255 26.6392 83.7428 30.0651 83.3948 34.0597C83.2038 36.212 84.7867 42.4906 87.4008 46.5532C91.5129 52.9591 96.1215 58.1382 95.5189 70.2072C94.9673 81.1894 79.9532 90.9999 79.9744 106.648C79.9872 117.812 91.9882 127.058 90.3035 137.247C90.2695 137.421 90.295 137.603 90.3714 137.764C90.452 137.922 90.5793 138.053 90.7363 138.138C90.8976 138.219 91.08 138.248 91.254 138.219C91.4323 138.197 91.5935 138.108 91.7166 137.985C95.0776 134.504 97.0296 129.902 97.1994 125.067C97.5304 118.317 94.0124 105.561 101.643 102.683C101.643 102.683 98.5489 114.127 102.389 120.64C107.974 130.098 120.247 133.396 120.247 133.396L141.838 124.566L133.351 57.5312Z" fill="#3F3627"/>
<path opacity="0.6" d="M95.4398 65.02C97.0949 69.6769 99.2973 79.9077 92.9997 91.9767C86.5239 104.377 86.978 108.049 89.0022 113.72C90.7378 118.564 95.0664 130.76 92.3886 137.255C95.3422 133.864 97.0397 129.559 97.1967 125.068C97.5277 118.318 94.014 105.565 101.64 102.683C101.64 102.683 98.5504 114.128 102.391 120.64C107.246 128.863 117.15 132.429 119.658 133.218L120.482 133.299L141.84 124.567L139.591 69.7151L144.238 63.4323L153.421 59.3188C153.421 59.3188 158.424 56.449 160.376 49.1813C160.754 47.7592 160.809 46.2777 160.537 44.8301L147.234 37.4562C146.911 40.2156 145.736 43.1829 143.762 44.9786C143.385 45.3267 142.986 45.6409 142.57 45.9338C140.703 47.2583 138.509 48.0479 136.217 48.2134L136.506 37.5157C136.476 35.686 137.091 33.8988 138.241 32.4682L115.393 19.8091C111.477 14.8933 106.66 12.3717 100.354 14.0612C95.618 15.3263 85.4163 26.7797 83.8122 37.5581C84.436 40.326 85.7049 43.9131 87.4024 46.5536C90.8737 51.9577 94.6929 56.4915 95.4398 65.02Z" fill="#2B261C"/>
<path d="M92.1027 13.0938C90.6513 18.2558 90.3797 27.315 90.3797 30.0658C90.3797 38.3906 98.5276 43.9899 104.846 50.0987C112.498 57.4895 115.256 66.6335 110.669 77.7686C105.865 89.43 93.0448 92.703 91.7377 102.424C90.8126 109.31 94.39 117.206 94.39 117.206" stroke="#2B261C" stroke-width="2" stroke-linecap="round" stroke-linejoin="round"/>
<path d="M126.565 8.76562C130.627 9.84814 139.852 14.8489 142.738 18.1814C145.624 21.5138 147.342 41.7419 147.342 41.7419C147.342 41.7419 150.898 54.0147 150.898 60.9597" stroke="#2B261C" stroke-width="2" stroke-linecap="round" stroke-linejoin="round"/>
<path d="M126.564 8.76562C130.176 12.7263 133.91 16.3857 136.164 20.6478C137.937 25.674 139.435 30.8022 140.641 36.0025" stroke="#2B261C" stroke-width="2" stroke-linecap="round" stroke-linejoin="round"/>
<path opacity="0.6" d="M59.1217 145.023L66.879 152.928L107.041 180.432C107.368 180.657 107.741 180.806 108.132 180.869C108.526 180.933 108.925 180.907 109.307 180.797C109.689 180.682 110.041 180.487 110.338 180.224C110.635 179.961 110.869 179.638 111.026 179.269L111.569 177.995C112.702 175.329 113.177 172.43 112.952 169.539C112.727 166.648 111.807 163.855 110.275 161.397L105.725 154.116L111.993 130.102L138.338 139.819C138.338 139.819 128.357 166.86 124.066 176.365C121.16 182.818 116.016 189.521 110.831 194.815C109.014 196.674 106.54 197.761 103.939 197.85C101.333 197.935 98.804 197.009 96.8647 195.269C91.0466 190.039 82.3981 181.803 74.5091 172.519L55.0096 148.776L59.1217 145.023Z" fill="#F3A889"/>
<path d="M127.61 73.7264L120.247 56.7331L136.878 39.9902L139.399 42.0237L151.845 57.3784L161.479 64.1366L161.046 82.9978L150.954 127.054C146.995 132.135 142.853 131.325 136.174 124.94L127.61 73.7264Z" fill="#FFCDB8"/>
<path opacity="0.6" d="M122.908 62.8675L127.61 73.7266L129.345 84.1102C137.476 76.1888 141.771 53.6513 141.771 53.6513C143.765 52.8914 144.826 51.2146 145.365 49.3807L142.569 45.9336C140.701 47.2581 138.507 48.0477 136.216 48.2132C136.216 48.2132 135.558 52.4881 134.735 54.4366C134.047 56.071 128.497 59.7898 122.908 62.8675Z" fill="#F3A889"/>
<path d="M50.5112 257.606C50.5112 257.606 59.6011 256.96 73.1978 256.96C76.5545 256.96 78.5066 256.629 82.3428 256.629C86.2173 256.629 92.2136 258.743 96.436 258.743C134.362 258.743 183.316 258.743 191.137 258.743C204.187 258.743 214.541 259.367 224.688 248.177C234.834 236.991 235.87 221.25 232.763 210.268C229.729 199.528 222.532 181.66 222.214 180.875C222.214 180.87 222.209 180.858 222.214 180.849C222.214 180.845 222.218 180.836 222.226 180.828L229.39 174.282C229.933 173.785 230.366 173.182 230.658 172.512C230.96 171.841 231.108 171.115 231.108 170.381C231.108 168.288 230.544 166.237 229.466 164.442C226.173 158.961 218.848 146.684 215.997 141.293C215.992 141.284 215.992 141.28 215.992 141.272C215.984 140.677 215.674 113.708 214.036 101.563C213.226 95.3943 211.991 89.2813 210.353 83.2829C208.693 77.344 205.137 72.1182 200.223 68.4037C195.309 64.685 189.313 62.6812 183.151 62.7025L169.63 62.7662C169.622 62.7662 169.614 62.7619 169.609 62.7577C169.601 62.7534 169.597 62.7492 169.592 62.7407L166.32 55.8805C166.023 55.2522 165.51 54.7555 164.882 54.4669C164.25 54.1782 163.541 54.123 162.87 54.3098L151.909 57.3578C151.9 57.3578 151.896 57.3621 151.888 57.3663C151.884 57.3706 151.879 57.3791 151.879 57.3833C151.875 57.3918 151.875 57.4003 151.875 57.4045C151.879 57.413 151.884 57.4215 151.888 57.4258L158.19 65.1986C158.194 65.2029 158.198 65.2113 158.198 65.2156C158.198 65.2241 158.198 65.2326 158.194 65.2411L157.876 66.0307C156.31 69.915 155.185 73.9649 154.51 78.0996L147.037 124.253L146.596 127.012C146.596 127.012 146.596 127.016 146.592 127.016L146.587 127.021C146.583 127.021 146.583 127.021 146.579 127.016C146.579 127.016 146.575 127.016 146.575 127.012L146.367 126.426L127.64 73.8078C127.64 73.7993 127.631 73.795 127.627 73.7865C127.623 73.7823 127.614 73.7781 127.606 73.7781C127.597 73.7781 127.589 73.7781 127.58 73.7823C127.572 73.7865 127.567 73.7908 127.563 73.7993L126.379 75.6205C125.628 76.7794 125.306 78.1675 125.467 79.543L126.939 91.96C126.944 91.9643 126.939 91.9685 126.939 91.9728C126.939 91.9813 126.935 91.9855 126.931 91.9897L122.114 97.3514C117.697 102.263 114.467 108.134 112.689 114.498L110.669 121.706L107.402 135.66C107.402 135.668 107.402 135.677 107.406 135.685C107.406 135.694 107.414 135.698 107.419 135.702L135.04 154.432C135.045 154.436 135.045 154.436 135.049 154.44C135.057 154.44 135.062 154.44 135.066 154.436C135.074 154.436 135.079 154.436 135.083 154.432C135.087 154.427 135.091 154.423 135.096 154.419L138.317 148.781C138.317 148.777 138.321 148.773 138.325 148.769C138.329 148.764 138.338 148.76 138.342 148.76C138.346 148.76 138.355 148.76 138.359 148.76C138.368 148.76 138.372 148.764 138.376 148.769C138.766 149.066 142.191 151.626 148.119 154.44C148.124 154.444 148.132 154.449 148.136 154.457C148.141 154.466 148.141 154.474 148.141 154.483L146.206 177.101C146.206 177.109 146.206 177.113 146.21 177.122C146.21 177.126 146.214 177.13 146.218 177.135L151.154 181.66C151.158 181.668 151.162 181.673 151.166 181.681C151.166 181.69 151.166 181.694 151.162 181.702L146.006 197.388C146.002 197.397 145.998 197.405 145.989 197.41C145.981 197.418 145.972 197.418 145.964 197.418C144.975 197.354 121.333 195.784 101.265 196.594C80.7599 197.422 43.0763 212.009 38.1028 213.664L27.256 216.84C27.2475 216.84 27.2433 216.844 27.2348 216.848C26.8953 217.217 15.221 229.677 17.1773 239.101C18.7475 246.649 23.1991 253.284 29.5858 257.606C29.5942 257.61 30.7146 257.882 30.7231 257.882L50.5112 257.606Z" fill="#F18620"/>
<path d="M169.91 65.1934L164.109 78.4552C163.069 80.8282 162.174 83.2692 161.427 85.7526L157.073 100.203" stroke="#CA6B11" stroke-width="2" stroke-linecap="round" stroke-linejoin="round"/>
<path opacity="0.6" d="M129.102 129.172C129.616 126.005 130.613 122.932 132.056 120.066L133.52 117.158C134.712 120.958 135.816 124.146 135.816 124.146C135.858 125.886 132.518 139.53 133.41 142.451C135.256 144.302 137.17 145.512 138.914 145.346C142.062 145.04 150.626 144.038 150.626 144.038L157.072 158.829L147.524 161.686L148.139 154.452C141.821 151.455 138.337 148.738 138.337 148.738L135.073 154.456L125.864 149.201L129.102 129.172Z" fill="#CA6B11"/>
<path opacity="0.6" d="M222.2 180.848C222.2 180.848 223.902 185.055 226.019 190.645L217.808 185.619C214.791 174.713 210.483 160.021 205.756 146.547L231.107 170.379C231.107 171.114 230.955 171.839 230.658 172.514C230.365 173.185 229.928 173.788 229.389 174.28L222.2 180.848Z" fill="#CA6B11"/>
<path d="M150.5 114.383C152.571 112.146 158.555 105.821 161.941 103.783C166.083 101.3 177.473 97.3643 191.138 114.765C204.806 132.166 222.201 202.19 222.201 202.19" stroke="#CA6B11" stroke-width="2" stroke-linecap="round" stroke-linejoin="round"/>
<path d="M162.561 224.145C162.561 224.145 161.75 212.008 162.145 199.285C162.976 172.71 160.625 153.293 159.518 142.523L145.582 133.99L145.153 132.73C144.89 131.961 144.877 131.129 145.123 130.357L146.592 127.016" stroke="#CA6B11" stroke-width="2" stroke-linecap="round" stroke-linejoin="round"/>
<path d="M207 107.268L193.603 112.188" stroke="#CA6B11" stroke-width="2" stroke-linecap="round" stroke-linejoin="round"/>
<path d="M131.951 153.348C129.201 146.11 118.482 117.896 118.482 117.896" stroke="#CA6B11" stroke-width="2" stroke-linecap="round" stroke-linejoin="round"/>
<path d="M129.104 151.608L115.256 133.396" stroke="#CA6B11" stroke-width="2" stroke-linecap="round" stroke-linejoin="round"/>
<path d="M130.813 107.268C131.836 112.638 135.812 124.146 135.812 124.146C135.855 125.917 132.396 140.015 133.453 142.6C134.492 145.054 136.186 147.176 138.337 148.738L138.592 148.904" stroke="#CA6B11" stroke-width="2" stroke-linecap="round" stroke-linejoin="round"/>
<path opacity="0.6" d="M77.4583 220.58L87.3672 219.154L93.6478 218.254C98.9651 217.49 104.342 217.226 109.706 217.46L128.734 218.305C132.617 218.479 136.509 218.22 140.336 217.541L155.181 214.9C157.086 218.385 159.581 221.518 162.56 224.146C163.456 210.455 166.32 185.834 165.646 181.134L145.582 133.992L145.153 132.731C144.89 131.963 144.881 131.131 145.128 130.358C145.42 129.432 145.857 128.036 146.362 126.431L146.57 127.017L146.583 127.055L146.592 127.017L147.033 124.258C148.039 121.019 149.134 117.436 149.77 115.177L192.864 97.4241L202.811 95.3482C203.597 95.1827 204.403 95.1996 205.184 95.3864C205.96 95.5774 206.69 95.9383 207.31 96.4392C207.934 96.9486 208.439 97.5854 208.782 98.3113C209.126 99.033 209.304 99.8268 209.304 100.629C208.256 108.593 206.088 116.374 202.845 123.727L200.299 129.505L185.79 134.837C188.264 140.079 192.151 155.544 195.826 173.234C198.699 187.052 199.035 199.885 198.152 212.548C196.947 229.834 217.762 239.836 230.221 227.805C232.483 225.623 233.883 223.191 234.291 220.673C234.52 229.907 231.923 240.197 224.683 248.178C214.537 259.364 204.186 258.74 191.133 258.74C183.308 258.74 134.357 258.74 96.4316 258.74C92.2092 258.74 87.7109 256.409 83.8365 256.409L77.4583 220.58Z" fill="#CA6B11"/>
<path d="M135.949 157.964C136.225 157.289 136.292 156.546 136.144 155.832C136 155.119 135.639 154.461 135.121 153.952L126.838 145.793C126.218 145.181 125.535 144.651 124.792 144.201L107.826 134.008C107.818 134.004 107.805 134.004 107.796 134.004C107.788 134.004 107.775 134.012 107.771 134.021L105.755 136.492C104.877 137.566 104.346 138.882 104.223 140.261L103.807 145.122C103.727 146.018 103.544 146.905 103.264 147.762L102.742 149.367C102.492 150.123 102.424 150.925 102.53 151.71C102.64 152.5 102.925 153.256 103.366 153.922L105.051 156.435C105.055 156.444 105.059 156.448 105.068 156.452C105.076 156.456 105.085 156.456 105.093 156.452C105.097 156.452 105.106 156.448 105.114 156.444C105.119 156.44 105.123 156.431 105.127 156.423L105.713 154.173C105.713 154.168 105.717 154.16 105.721 154.156C105.725 154.151 105.734 154.147 105.738 154.143C105.747 154.143 105.751 154.143 105.759 154.143C105.764 154.143 105.768 154.147 105.772 154.151L127.279 169.408C127.797 169.778 128.429 169.96 129.07 169.931C129.706 169.897 130.313 169.65 130.797 169.234L131.798 168.36C132.656 167.613 133.254 166.615 133.509 165.511L134.353 161.899V161.89L135.949 157.964Z" fill="#CA6B11"/>
<path d="M183.478 127.055C186.189 134.696 187.691 148.229 187.195 149.737C186.69 151.239 180.312 156.198 180.312 156.198" stroke="#CA6B11" stroke-width="2" stroke-linecap="round" stroke-linejoin="round"/>
<path d="M171.409 125.916L177.915 139.467C179.498 142.761 180.312 146.365 180.312 150.016V156.197" stroke="#CA6B11" stroke-width="2" stroke-linecap="round" stroke-linejoin="round"/>
<path d="M180.312 152.639C180.312 152.639 177.698 147.227 173.675 143.215C169.652 139.203 161.475 131.324 153.115 131.435" stroke="#CA6B11" stroke-width="2" stroke-linecap="round" stroke-linejoin="round"/>
<path d="M195.211 136.447L197.074 140.748C198.007 142.9 198.44 145.235 198.347 147.582C197.863 159.354 195.622 196.941 186.189 216.54" stroke="#CA6B11" stroke-width="2" stroke-linecap="round" stroke-linejoin="round"/>
<path d="M75.6348 219.301L70.3811 218.8C64.5376 218.193 58.6262 218.753 52.9907 220.43L45.734 222.6" stroke="#CA6B11" stroke-width="2" stroke-linecap="round" stroke-linejoin="round"/>
<path d="M92.5362 221.297C92.8459 221.424 93.16 221.521 93.4825 221.594L98.6555 222.714C99.7716 222.952 100.782 223.508 101.575 224.323C102.369 225.13 102.903 226.161 103.111 227.274L101.24 227.38C100.871 227.401 100.514 227.524 100.209 227.741C99.9074 227.957 99.674 228.25 99.5339 228.594C98.3372 231.578 95.5576 240.629 96.4361 258.743H84.2568L73.4355 258.739L70.6941 244.534C70.1255 241.622 70.223 238.625 70.9614 235.755L74.5346 221.946C74.9802 220.222 75.9477 218.682 77.3057 217.531L77.7683 217.14C78.2351 216.746 78.8037 216.483 79.4148 216.389C80.0216 216.296 80.6412 216.368 81.2099 216.606L87.3674 219.153L92.5362 221.297Z" fill="#CA6B11"/>
<path d="M196.199 232.698C198.47 231.959 200.88 231.755 203.239 232.108C206.965 232.659 212.626 233.924 217.057 236.735C223.002 240.509 223.104 247.67 219.679 251.508C218.763 252.493 217.651 253.287 216.412 253.838C215.393 254.59 212.104 255.626 209.711 256.288C208.183 256.712 206.596 256.891 205.009 256.814L203.664 256.751C203.664 256.751 189.46 258.746 184.164 258.746C172.214 258.746 162.242 258.627 162.242 258.627C159.988 258.64 157.739 258.428 155.52 257.999L146.943 253.197L148.552 239.791L151.03 237.8C152.235 236.832 153.725 236.281 155.269 236.225L162.284 235.992C165.344 234.37 168.862 233.797 172.278 234.379C174.773 234.807 177.803 235.33 180.557 235.822C183.112 236.281 185.73 236.102 188.2 235.3L196.199 232.698Z" fill="#4A9DC9"/>
<path d="M96.3434 256.823C96.3476 256.836 96.3518 256.84 96.3603 256.848C96.3688 256.853 96.3773 256.857 96.3858 256.857L144.679 255.702C144.704 255.702 144.742 255.702 144.763 255.702L154.515 256.076C154.524 256.076 154.528 256.076 154.537 256.072C154.545 256.067 154.549 256.063 154.554 256.059C154.558 256.05 154.558 256.046 154.558 256.038C154.562 256.029 154.558 256.021 154.554 256.016C154.537 255.974 154.52 255.936 154.507 255.893C153.637 252.722 153.705 246.304 155.135 244.495C156.043 243.362 158.644 242.097 160.881 241.163C160.889 241.158 160.898 241.154 160.902 241.15C160.906 241.141 160.906 241.133 160.906 241.124C160.906 241.12 160.906 241.116 160.902 241.107C160.898 241.099 160.894 241.095 160.885 241.091C159.357 240.343 157.732 239.825 156.047 239.571H156.043L140.706 238.87C140.681 238.87 140.651 238.866 140.626 238.858L103.112 227.273L99.6577 226.207C99.6492 226.207 99.6364 226.207 99.6279 226.211C99.6195 226.215 99.611 226.22 99.6067 226.228C92.1591 240.123 96.1354 256.021 96.3434 256.823Z" fill="#FFCDB8"/>
<path d="M216.43 253.874C217.674 253.322 218.79 252.528 219.715 251.531C220.597 250.503 221.255 249.289 221.633 247.982C222.011 246.674 222.108 245.299 221.909 243.953C221.688 242.463 221.141 241.041 220.305 239.784C219.469 238.532 218.369 237.479 217.084 236.698C212.704 233.922 207.141 232.648 203.249 232.067C200.886 231.714 198.467 231.918 196.192 232.657L188.189 235.263C185.727 236.061 183.113 236.244 180.567 235.785C178.225 235.365 175.441 234.881 172.288 234.346C168.863 233.76 165.337 234.329 162.264 235.959C162.256 235.964 162.251 235.968 162.247 235.976C162.243 235.985 162.243 235.998 162.243 236.006C162.247 236.015 162.251 236.023 162.26 236.027C162.268 236.032 162.277 236.036 162.285 236.036H162.29C162.829 235.972 163.368 235.942 163.911 235.951C166.058 235.951 169.669 236.282 174.643 237.844L174.745 237.874C177.376 238.697 180.648 239.729 184.132 239.729H184.242C186.351 239.712 189.237 238.846 192.296 237.929C195.301 237.029 198.407 236.095 200.78 236.01C200.843 236.006 200.907 236.006 200.971 236.006C205.193 236.006 216.867 239.92 218.021 244.823C218.667 247.557 218.573 251.352 216.383 253.814C216.375 253.819 216.371 253.831 216.371 253.84C216.371 253.844 216.375 253.853 216.379 253.861C216.383 253.865 216.388 253.874 216.396 253.874C216.4 253.878 216.409 253.878 216.413 253.878C216.422 253.878 216.426 253.878 216.43 253.874Z" fill="#FEF7F0"/>
<path d="M203.125 255.677C201.279 254.28 199 253.575 196.692 253.673L181.55 254.323L174.646 254.794C173.432 254.874 172.223 255.023 171.03 255.244L162.976 256.725C159.92 257.337 158.057 257.269 154.586 256.08" stroke="#3B8DB8" stroke-width="2" stroke-linecap="round" stroke-linejoin="round"/>
<path d="M203.664 239.906L200.337 243.867C199.594 244.741 198.686 245.45 197.655 245.947C196.632 246.448 195.512 246.724 194.37 246.762L182.361 247.14L176.891 247.365C173.751 247.492 170.636 246.665 167.971 244.988L160.884 241.091" stroke="#3B8DB8" stroke-width="2" stroke-linecap="round" stroke-linejoin="round"/>
<path d="M195.992 257.028C196.026 257.028 196.056 257.028 196.09 257.024C196.527 256.999 196.939 256.799 197.236 256.472C197.528 256.145 197.677 255.712 197.651 255.271L197.023 244.327C197.011 244.11 196.951 243.898 196.858 243.698C196.765 243.503 196.633 243.329 196.467 243.185C196.302 243.041 196.111 242.926 195.912 242.854C195.704 242.782 195.487 242.752 195.267 242.765C195.05 242.777 194.834 242.832 194.638 242.926C194.443 243.024 194.269 243.155 194.125 243.316C193.981 243.478 193.866 243.669 193.794 243.877C193.722 244.081 193.692 244.301 193.705 244.518L194.337 255.462C194.363 255.886 194.545 256.285 194.855 256.574C195.16 256.867 195.568 257.028 195.992 257.028Z" fill="#3B8DB8"/>
<path d="M187.518 257.596C187.96 257.596 188.384 257.422 188.694 257.112C189.004 256.798 189.178 256.373 189.178 255.936V244.601C189.178 244.164 189.004 243.739 188.694 243.43C188.384 243.115 187.96 242.941 187.518 242.941C187.077 242.941 186.657 243.115 186.343 243.43C186.033 243.739 185.859 244.164 185.859 244.601V255.936C185.859 256.373 186.033 256.798 186.343 257.112C186.657 257.422 187.077 257.596 187.518 257.596Z" fill="#3B8DB8"/>
<path d="M179.263 258.042C179.289 258.042 179.314 258.042 179.34 258.042C179.552 258.034 179.768 257.979 179.963 257.885C180.163 257.796 180.341 257.664 180.49 257.503C180.638 257.342 180.749 257.155 180.825 256.947C180.897 256.743 180.931 256.527 180.923 256.31L180.426 245.044C180.401 244.602 180.21 244.195 179.883 243.897C179.556 243.605 179.132 243.447 178.695 243.469C178.253 243.486 177.842 243.681 177.545 244.004C177.248 244.326 177.091 244.755 177.107 245.188L177.608 256.455C177.621 256.883 177.808 257.287 178.117 257.58C178.423 257.877 178.835 258.042 179.263 258.042Z" fill="#3B8DB8"/>
<path d="M228.385 169.357L197.113 124.982" stroke="#CA6B11" stroke-width="2" stroke-linecap="round" stroke-linejoin="round"/>
<path d="M206.031 119.387L192.863 117.205" stroke="#CA6B11" stroke-width="2" stroke-linecap="round" stroke-linejoin="round"/>
<path d="M181.754 79.2226C177.799 81.1329 162.221 88.7487 162.221 88.7487L155.316 92.3019L145.836 90.5954C142.679 90.0266 139.471 89.7464 136.254 89.7676L115.456 89.9034C112.269 89.9247 109.082 89.7464 105.92 89.3685L97.2378 88.337L95.1202 87.2757L84.8887 86.8766C84.8887 86.8766 82.542 95.5028 82.8178 100.724L94.2799 103.365L113.945 110.658C113.945 110.658 133.135 116.313 146.303 119.704C151.654 121.076 157.281 120.931 162.556 119.28C169.978 116.949 180.452 113.587 183.528 112.233C188.459 110.064 201.288 103.946 201.288 103.946C203.94 89.7294 189.643 78.0595 181.754 79.2226Z" fill="#FFCDB8"/>
<path opacity="0.6" d="M161.322 106.749L198.7 90.1465C201.017 94.1072 202.235 98.866 201.285 103.943C201.285 103.943 188.46 110.065 183.529 112.234C180.448 113.588 169.979 116.95 162.557 119.281C157.282 120.932 151.655 121.077 146.304 119.701C133.136 116.314 113.942 110.659 113.942 110.659L94.2809 103.362L82.8188 100.725C82.7679 98.225 82.9334 95.7246 83.3153 93.2539L91.2382 95.6227L108.756 100.857C115.809 102.967 123.015 104.538 130.305 105.565L149.996 108.337C153.849 108.876 157.774 108.328 161.322 106.749Z" fill="#F3A889"/>
<path d="M147.725 120.033C147.466 119.978 147.207 119.919 146.952 119.864C146.736 119.813 146.519 119.757 146.303 119.707C145.756 119.562 145.204 119.418 144.635 119.269C144.359 119.197 144.084 119.129 143.803 119.053" stroke="#F3A889" stroke-width="2" stroke-linecap="round" stroke-linejoin="round"/>
<path d="M133.325 89.7899L136.253 89.7687C139.47 89.7475 142.678 90.0277 145.835 90.5965L152.303 91.7597" stroke="#F3A889" stroke-width="2" stroke-linecap="round" stroke-linejoin="round"/>
<path d="M67.6681 87.7977C67.8463 87.7977 68.0245 87.7553 68.19 87.6873C68.3513 87.6109 68.4956 87.5048 68.6101 87.3647C68.7332 87.2331 68.8181 87.0718 68.869 86.902C68.9199 86.7322 68.9327 86.5496 68.9072 86.3756C68.4531 83.2427 67.9863 80.3687 67.528 77.5839C66.7514 72.8505 66.0809 68.7625 65.7881 65.048C65.7796 64.8824 65.7329 64.7211 65.665 64.5767C65.5887 64.4239 65.4911 64.2923 65.3638 64.1862C65.2364 64.0716 65.0922 63.9952 64.9351 63.94C64.7781 63.889 64.6126 63.8678 64.4471 63.8806C64.2816 63.8933 64.1204 63.94 63.9718 64.0164C63.8233 64.0928 63.696 64.1989 63.5857 64.3263C63.4838 64.4494 63.4032 64.6022 63.3565 64.7593C63.3056 64.9164 63.2886 65.0819 63.3056 65.2475C63.6069 69.0596 64.2859 73.1987 65.0709 77.9872C65.5208 80.7593 65.9918 83.6247 66.4416 86.7279C66.4798 87.0251 66.6326 87.2968 66.8533 87.4921C67.0824 87.6874 67.371 87.7935 67.6681 87.7977Z" fill="#8B8B8B"/>
<path d="M184.466 116.704L188.892 115.431C193.878 114.004 198.169 110.795 200.936 106.406C203.575 102.203 205.926 96.5186 205.133 90.2697C205.133 90.2697 199.955 76.7447 185.217 75.0679C183.401 74.8598 181.572 75.2546 180.002 76.1843L178.453 77.1055C175.41 77.8739 172.346 79.1177 169.741 80.1281C168.794 80.4889 167.95 81.0705 167.271 81.8219C166.592 82.5733 166.095 83.4732 165.832 84.4496L165.03 87.3788L170.874 84.5261C173.084 83.4351 175.601 83.1167 178.011 83.6346C179.492 83.9147 180.901 84.4794 182.17 85.2902C185.374 87.5019 190.636 94.2729 191.315 99.1209C191.443 100.445 191.269 101.787 190.802 103.031C190.017 105.302 188.739 107.378 187.059 109.097C185.378 110.816 183.337 112.137 181.084 112.969L174.795 115.35L176.395 116.089C178.924 117.256 181.788 117.473 184.466 116.704Z" fill="#CA6B11"/>
<path d="M182.17 69.7148C179.225 71.2049 176.399 72.9157 173.712 74.8302C172.045 76.0146 170.721 78.0905 169.876 79.9499" stroke="#CA6B11" stroke-width="2" stroke-linecap="round" stroke-linejoin="round"/>
<path d="M187.289 112.637L187.369 112.615C188.511 112.314 189.542 111.686 190.336 110.815C191.133 109.937 191.668 108.854 191.863 107.687C192.699 102.975 193.667 92.9349 189.644 82.2031" stroke="#AE5C0E" stroke-width="2" stroke-linecap="round" stroke-linejoin="round"/>
<path d="M182.171 77.1055C186.835 79.0497 192.267 83.9614 197.113 90.9999" stroke="#AE5C0E" stroke-width="2" stroke-linecap="round" stroke-linejoin="round"/>
<path d="M173.674 163.956L156.271 201.173L143.871 231.789C143.871 231.789 132.269 228.788 125.865 223.982L133.071 201.173L142.929 152.948C142.929 152.948 151.272 151.946 173.674 163.956Z" fill="#FFCDB8"/>
<path opacity="0.6" d="M134.675 220.808C135.311 221.097 136.003 221.262 136.699 221.275C137.399 221.296 138.095 221.173 138.744 220.914C139.398 220.664 139.988 220.277 140.484 219.785C140.985 219.292 141.38 218.707 141.647 218.061L145.793 207.992L155.099 179.779C156.22 176.395 156.249 172.744 155.197 169.344C154.136 165.939 152.044 162.951 149.209 160.794C146.574 158.799 144.635 157.581 144.635 157.581L146.782 153.268C151.204 154.036 159.704 156.468 173.674 163.957L156.271 201.174L143.871 231.79C143.871 231.79 132.269 228.784 125.865 223.983L127.855 217.683L134.675 220.808Z" fill="#F3A889"/>
<path d="M180.736 156.923C181.211 157.776 181.415 158.756 181.322 159.729C181.228 160.701 180.846 161.618 180.218 162.369L176.755 166.525L175.236 170.622C175.041 171.165 174.697 171.632 174.243 171.98C173.789 172.328 173.246 172.545 172.677 172.6C171.693 172.71 170.691 172.638 169.736 172.375L171.065 169.531C171.065 169.531 155.168 160.777 141.915 157.907L141.529 159.797L138.889 157.462C138.287 156.927 137.845 156.235 137.621 155.462C137.396 154.69 137.396 153.866 137.616 153.093L140.88 141.742L141.071 138.52C141.122 137.734 141.385 136.975 141.834 136.325C142.284 135.684 142.904 135.17 143.625 134.852L145.586 133.99L159.102 138.278C162.726 139.424 166.091 141.279 169.002 143.724C172.809 146.921 177.846 151.748 180.736 156.923Z" fill="#CA6B11"/>
<path d="M222.201 180.849C222.201 180.849 217.809 175.755 214.694 174.668" stroke="#CA6B11" stroke-width="2" stroke-linecap="round" stroke-linejoin="round"/>
<path d="M162.412 56.7344L158.207 65.2204" stroke="#CA6B11" stroke-width="2" stroke-linecap="round" stroke-linejoin="round"/>
<path d="M116.248 15.6832C116.155 14.2611 111.185 6.37787 103.683 4.43359" stroke="#2B261C" stroke-width="2" stroke-linecap="round" stroke-linejoin="round"/>
<path d="M142.738 143.441C147.822 147.304 167.962 157.077 171.408 166.161" stroke="#AE5C0E" stroke-width="2" stroke-linecap="round" stroke-linejoin="round"/>
<path d="M171.065 169.535C172.046 169.981 172.831 170.469 174.1 172.086" stroke="#AE5C0E" stroke-width="2" stroke-linecap="round" stroke-linejoin="round"/>
<path d="M139.111 157.661C140.091 157.368 141.916 157.908 141.916 157.908" stroke="#AE5C0E" stroke-width="2" stroke-linecap="round" stroke-linejoin="round"/>
<path d="M106.362 151.607L132.936 161.371" stroke="#AE5C0E" stroke-width="2" stroke-linecap="round" stroke-linejoin="round"/>
<path d="M101.342 224.582C100.582 224.905 99.9711 225.49 99.6061 226.229" stroke="#AE5C0E" stroke-width="2" stroke-linecap="round" stroke-linejoin="round"/>
<path d="M105.73 154.113L103.006 152.645" stroke="#AE5C0E" stroke-width="2" stroke-linecap="round" stroke-linejoin="round"/>
<path d="M131.917 95.0107C131.192 95.7452 130.78 96.7343 130.78 97.7658C130.78 98.8017 131.192 99.795 131.917 100.525L136.089 104.698C139.013 105.399 140.252 106.842 141.601 110.221L145.777 114.394C146.511 115.124 147.5 115.536 148.536 115.536C149.571 115.536 150.564 115.124 151.294 114.394C152.024 113.66 152.436 112.671 152.436 111.631C152.436 110.599 152.024 109.606 151.294 108.875L147.122 104.698C144.428 103.28 143.112 102.007 141.601 99.1837L137.434 95.0107C136.7 94.2806 135.707 93.873 134.672 93.873C133.645 93.873 132.652 94.2806 131.917 95.0107Z" fill="#577482"/>
<path d="M141.6 99.1836L147.117 104.698L141.6 110.217L136.088 104.698L141.6 99.1836Z" fill="#7398AA"/>
<path d="M144.292 105.379C143.919 105.379 143.617 105.074 143.617 104.7C143.617 104.331 143.919 104.029 144.292 104.029C144.67 104.029 144.967 104.331 144.967 104.7C144.967 105.074 144.67 105.379 144.292 105.379Z" fill="#577482"/>
<path d="M141.602 108.071C141.229 108.071 140.932 107.769 140.932 107.391C140.932 107.018 141.229 106.721 141.602 106.721C141.98 106.721 142.281 107.018 142.281 107.391C142.281 107.769 141.98 108.071 141.602 108.071Z" fill="#577482"/>
<path d="M141.602 105.379C141.229 105.379 140.932 105.074 140.932 104.7C140.932 104.331 141.229 104.029 141.602 104.029C141.98 104.029 142.281 104.331 142.281 104.7C142.281 105.074 141.98 105.379 141.602 105.379Z" fill="#577482"/>
<path d="M141.602 102.686C141.229 102.686 140.932 102.38 140.932 102.011C140.932 101.637 141.229 101.336 141.602 101.336C141.98 101.336 142.281 101.637 142.281 102.011C142.281 102.38 141.98 102.686 141.602 102.686Z" fill="#577482"/>
<path d="M138.911 105.379C138.542 105.379 138.24 105.074 138.24 104.7C138.24 104.331 138.542 104.029 138.911 104.029C139.284 104.029 139.59 104.331 139.59 104.7C139.59 105.074 139.284 105.379 138.911 105.379Z" fill="#577482"/>
<path d="M79.5078 150.059L80.8531 150.356C81.1417 150.419 81.409 150.56 81.6254 150.763C81.8418 150.967 81.9989 151.23 82.0752 151.51L84.3499 159.525C84.5281 160.162 84.4602 160.837 84.1589 161.419C83.8533 162.004 83.3399 162.454 82.7203 162.675L65.2577 168.848C63.7003 169.395 62.0325 169.552 60.3987 169.298L54.343 168.355C53.855 168.279 53.3967 168.062 53.0275 167.731C52.6583 167.404 52.3909 166.976 52.2509 166.504L50.2861 159.568C50.0569 158.74 50.0611 157.865 50.303 157.042L50.6171 155.968L79.5078 150.059Z" fill="#8B8B8B"/>
<path d="M62.6291 126.808H62.6719L62.6676 126.795L62.6291 126.808Z" fill="#F9F9F2"/>
<path d="M49.9211 150.367C49.9084 150.393 49.9041 150.418 49.9041 150.448L50.6171 155.966L57.0801 156.446C58.7733 156.569 60.4793 156.357 62.0876 155.822L79.5078 150.057L76.1681 144.471C76.1511 144.449 76.1299 144.432 76.1044 144.424L73.8086 143.855C70.176 143.728 64.1585 141.745 63.505 139.075L63.5814 136.252C62.0452 137.288 60.0676 138.655 60.0676 138.655L53.7828 139.041L52.6667 139.567C52.6582 139.572 52.6497 139.576 52.6455 139.584C52.6413 139.593 52.6413 139.601 52.6413 139.61C52.7049 139.975 53.2566 143.418 52.8832 144.606C52.7855 144.878 52.6328 145.124 52.4333 145.332C52.2042 146.156 51.8732 146.95 51.4445 147.693L49.9211 150.367Z" fill="#F9F9F2"/>
<path d="M42.719 113.517C44.1619 114.056 45.3925 115.054 46.2243 116.348C46.9287 115.954 47.7181 115.729 48.5244 115.699L55.9635 115.41C55.9635 115.41 57.958 115.55 59.944 115.852L59.1293 112.562L60.1308 111.853L61.3359 106.682C58.1277 103.061 45.0403 95.6151 40.6778 94.5156C39.6594 95.1354 38.6961 95.8528 37.8049 96.6552C37.6055 96.8335 37.4484 97.0627 37.3551 97.3132C37.2575 97.5637 37.2193 97.8353 37.249 98.107L37.4484 99.9664C35.055 109.641 42.719 113.517 42.719 113.517Z" fill="#F9F9F2"/>
<path d="M40.684 94.5147C43.1368 93.0374 47.1937 91.3223 53.9623 90.3672C57.2384 90.4521 59.844 92.7784 61.1638 95.9708C62.4836 99.1546 62.4412 103.493 61.3378 106.681C57.353 109.521 50.2873 110.234 46.137 109.589C44.7579 107.887 45.0507 108.027 45.4666 106.002C45.5175 105.764 45.5132 105.514 45.4538 105.276C45.3902 105.047 45.2756 104.826 45.1101 104.648C43.3447 102.746 42.8694 100.021 42.7464 98.4797C42.7421 98.3778 42.7039 98.2844 42.6403 98.1995C42.5766 98.1188 42.5002 98.0552 42.4026 98.0212C42.3093 97.983 42.2032 97.9745 42.1056 97.9957C42.0037 98.017 41.9146 98.0637 41.8382 98.1316C41.7576 98.225 41.6515 98.2971 41.5327 98.3311C41.4181 98.3693 41.2908 98.3736 41.172 98.3481C41.0489 98.3226 40.9386 98.2632 40.8495 98.174C40.7604 98.0934 40.6925 97.983 40.6585 97.8641L40.5312 97.4141C40.3445 96.7519 40.3275 96.0472 40.4803 95.3765L40.684 94.5147Z" fill="#8B8B8B"/>
<path d="M54.466 146.208C54.4151 146.497 54.4745 146.789 54.6273 147.031C54.7843 147.273 55.0304 147.456 55.3063 147.524L57.6912 148.148C58.6333 148.394 59.6263 148.386 60.5599 148.118C63.2207 147.375 69.0557 145.681 73.8086 143.856L70.7871 143.105C69.4801 142.778 68.2834 142.099 67.3328 141.143C66.378 140.188 65.7032 138.987 65.3807 137.679L64.2986 133.264C64.2943 133.252 64.2901 133.243 64.2816 133.239C64.2731 133.235 64.2646 133.23 64.2561 133.23C64.2434 133.23 64.2349 133.235 64.2264 133.243C64.2222 133.252 64.218 133.26 64.218 133.269C64.2222 133.494 64.1543 133.71 64.0227 133.888C62.6351 135.204 59.4736 136.355 59.4736 136.355L53.7871 139.042C54.3981 141.619 54.8437 144.234 54.466 146.208Z" fill="#8B8B8B"/>
<path d="M38.8204 96.3008L39.6904 99.387C39.4655 99.4931 39.2702 99.6672 39.1344 99.8794C38.9986 100.096 38.9265 100.346 38.9265 100.605C38.9604 104.252 39.8559 106.604 40.5391 107.873C40.7301 108.225 41.0101 108.531 41.3411 108.756C41.6764 108.981 42.0626 109.125 42.4657 109.172C42.7967 109.21 43.1192 109.325 43.3993 109.503C43.6836 109.686 43.9213 109.928 44.0953 110.212L47.3926 115.569" stroke="#8B8B8B" stroke-width="2" stroke-linecap="round" stroke-linejoin="round"/>
<path d="M56.3544 101.805C53.1335 101.805 50.5237 99.1939 50.5237 95.9718C50.5237 92.7455 53.1335 90.1348 56.3544 90.1348C59.5754 90.1348 62.1895 92.7455 62.1895 95.9718C62.1895 99.1939 59.5754 101.805 56.3544 101.805Z" fill="#F9F9F2"/>
<path d="M56.7414 99.5361C54.522 99.5361 52.7269 97.7404 52.7269 95.5201C52.7269 93.2999 54.522 91.5 56.7414 91.5C58.9566 91.5 60.7559 93.2999 60.7559 95.5201C60.7559 97.7404 58.9566 99.5361 56.7414 99.5361Z" fill="#8B8B8B"/>
<path d="M57.678 97.3646C56.511 97.3646 55.5647 96.4221 55.5647 95.2547C55.5647 94.0873 56.511 93.1406 57.678 93.1406C58.845 93.1406 59.7871 94.0873 59.7871 95.2547C59.7871 96.4221 58.845 97.3646 57.678 97.3646Z" fill="#B1B1B1"/>
<path d="M52.3525 115.549L55.9596 115.409H55.9681C56.0445 115.413 57.9924 115.553 59.9444 115.85C60.0887 115.867 60.233 115.893 60.373 115.914C60.267 115.464 60.2075 115.001 60.1948 114.534L60.1312 111.852L53.8506 113.932C53.4856 114.055 53.1588 114.267 52.8957 114.547C52.6284 114.832 52.4459 115.175 52.3525 115.549Z" fill="#8B8B8B"/>
<path d="M62.6953 116.416C61.7957 116.166 60.879 115.975 59.9454 115.852" stroke="#3E5460" stroke-width="2" stroke-linecap="round" stroke-linejoin="round"/>
<path d="M218.819 189.301L222.651 194.365C224.76 197.154 225.77 200.614 225.494 204.099L224.879 211.893" stroke="#CA6B11" stroke-width="2" stroke-linecap="round" stroke-linejoin="round"/>
<path d="M61.2461 120.814L47.8192 122.58" stroke="#3E5460" stroke-width="2" stroke-linecap="round" stroke-linejoin="round"/>
<path d="M62.6309 126.807L49.1488 128.466" stroke="#3E5460" stroke-width="2" stroke-linecap="round" stroke-linejoin="round"/>
<path d="M64.0312 131.27L50.2861 134.925" stroke="#3E5460" stroke-width="2" stroke-linecap="round" stroke-linejoin="round"/>
<path d="M59.8432 80.1958C59.3213 79.8943 58.9308 79.4146 58.7399 78.8416C58.5489 78.2727 58.5701 77.6487 58.8078 77.0968C59.7286 75.0719 60.9338 73.187 62.3767 71.4975C62.7459 71.0517 63.2297 70.7206 63.7813 70.538C64.333 70.3513 64.9186 70.3258 65.483 70.4574L73.3253 72.3083C74.3904 72.5587 75.3665 73.0894 76.16 73.8493L85.407 82.6664L85.4155 82.6579L87.7325 84.9206L95.2862 85.6041C95.7403 85.6465 96.1604 85.8375 96.4914 86.1559C96.8182 86.4658 97.0346 86.8819 97.094 87.3361L97.2383 88.3422L95.0952 88.0875C93.8561 88.7242 92.1374 91.976 91.2378 95.6269C90.6649 97.7197 90.5036 99.9017 90.754 102.058L94.2804 103.366L92.1034 105.238C91.8531 105.454 91.5433 105.607 91.2208 105.679C90.894 105.752 90.5503 105.739 90.232 105.645L79.347 102.487C78.0867 102.126 76.9154 101.511 75.8969 100.687C74.8742 99.8678 74.0255 98.8532 73.4017 97.6985L70.9701 93.2029C70.6221 93.2368 70.2699 93.2029 69.9304 93.1052L65.5552 91.7468C65.2072 91.6364 64.8932 91.4411 64.6385 91.1737C64.3882 90.902 64.2142 90.5751 64.1378 90.2143C64.0996 90.0445 64.0657 89.8662 64.036 89.6836L61.9693 87.0474C61.702 86.712 61.528 86.313 61.4558 85.8885C61.3879 85.464 61.4261 85.031 61.5704 84.6319C61.5874 84.581 61.6043 84.53 61.6255 84.4791C61.2351 84.1819 60.9763 83.7404 60.9041 83.2565C60.7896 82.4075 60.7259 81.5584 60.7174 80.7009L59.8432 80.1958Z" fill="#577482"/>
<path d="M86.9141 86.1992C84.2406 87.7062 79.929 93.1358 79.9757 99.1214" stroke="#3E5460" stroke-width="2" stroke-linecap="round" stroke-linejoin="round"/>
<path d="M86.0488 86.9668C86.0488 86.9668 82.9764 91.2501 81.4784 98.9466" stroke="#3E5460" stroke-width="2" stroke-linecap="round" stroke-linejoin="round"/>
<path d="M96.8223 86.7033C96.8223 86.7033 95.9354 86.3849 95.0951 88.0872" stroke="#3E5460" stroke-width="2" stroke-linecap="round" stroke-linejoin="round"/>
<path d="M90.7536 102.059C90.7536 102.059 90.5753 104.321 91.2246 105.51" stroke="#3E5460" stroke-width="2" stroke-linecap="round" stroke-linejoin="round"/>
<path d="M52.6367 139.582C52.6367 139.582 50.2306 140.312 49.1485 140.121" stroke="#3E5460" stroke-width="2" stroke-linecap="round" stroke-linejoin="round"/>
<path d="M3.76239 231.438C4.37772 230.822 5.20949 230.479 6.07944 230.479H84.3239C84.7567 230.479 85.1768 230.559 85.5757 230.725C85.9746 230.89 86.3353 231.132 86.6409 231.438L89.0683 233.866C89.3738 234.172 89.6115 234.533 89.777 234.932C89.9425 235.326 90.0273 235.751 90.0273 236.184V253.041C90.0273 253.47 89.9425 253.895 89.777 254.294C89.6115 254.693 89.3738 255.054 89.0683 255.359L86.6409 257.788C86.3353 258.089 85.9746 258.331 85.5757 258.496C85.1768 258.662 84.7567 258.747 84.3239 258.747H6.07944C5.20949 258.747 4.37772 258.403 3.76239 257.788L1.33504 255.359C1.0295 255.054 0.787582 254.693 0.622078 254.294C0.456581 253.895 0.375969 253.47 0.375969 253.041V236.184C0.375969 235.751 0.456581 235.326 0.622078 234.932C0.787582 234.533 1.0295 234.172 1.33504 233.866L3.76239 231.438Z" fill="#8B8B8B"/>
<path d="M67.6772 227.563C67.6772 227.894 67.813 228.209 68.0422 228.442C68.2756 228.676 68.5938 228.807 68.9248 228.807C74.9254 228.807 79.6995 226.086 82.3645 221.128C86.7906 212.913 84.5033 200.157 76.3894 187.846C61.3712 165.049 63.6924 153.485 67.5329 134.331L67.8555 132.71C71.4244 114.876 70.9109 100.336 69.7142 90.8017C69.7142 90.7974 69.7142 90.7932 69.7099 90.7889C69.3492 90.0885 68.9503 89.3201 68.5684 88.5899C68.5641 88.5814 68.5599 88.5729 68.5514 88.5687C68.5429 88.5645 68.5344 88.5645 68.5259 88.5645C68.1228 88.6324 67.6051 88.7088 67.0831 88.7895C67.0746 88.7937 67.0661 88.7937 67.0619 88.8022C67.0534 88.8064 67.0492 88.8107 67.0492 88.8192C66.9982 88.9932 66.9812 89.18 67.0109 89.3583C68.3392 98.6212 69.1497 113.573 65.4196 132.222L65.0971 133.839C61.125 153.626 58.7316 165.567 74.3143 189.217C81.9189 200.759 84.168 212.54 80.1748 219.948C77.9638 224.057 73.9705 226.315 68.9291 226.315C68.7636 226.315 68.5981 226.349 68.4496 226.413C68.2968 226.477 68.161 226.566 68.0422 226.68C67.9276 226.799 67.8342 226.935 67.7748 227.084C67.7112 227.241 67.6772 227.402 67.6772 227.563Z" fill="#8B8B8B"/>
<path d="M67.5121 51.9312C67.8389 51.9312 68.1571 51.8039 68.3905 51.5661C68.6239 51.3326 68.7598 51.0185 68.7598 50.6874V44.2262C68.7598 43.8951 68.6239 43.581 68.3905 43.3475C68.1571 43.1098 67.8389 42.9824 67.5121 42.9824C67.1811 42.9824 66.8628 43.1098 66.6294 43.3475C66.396 43.581 66.2687 43.8951 66.2687 44.2262V50.6874C66.2687 51.0185 66.396 51.3326 66.6294 51.5661C66.8628 51.8039 67.1811 51.9312 67.5121 51.9312Z" fill="#DADADA"/>
<path d="M60.922 51.9323C61.253 51.9323 61.5713 51.805 61.8047 51.5673C62.0338 51.3338 62.1696 51.0196 62.1696 50.6885V48.6551C62.1696 48.2985 62.2545 47.9419 62.42 47.6278C62.5898 47.3051 62.8274 47.0334 63.1245 46.8297L63.778 46.3712C64.0453 46.1802 64.2278 45.8957 64.283 45.5689C64.3424 45.2462 64.266 44.9151 64.0793 44.6434C63.8926 44.3717 63.604 44.1892 63.2857 44.1298C62.9632 44.0703 62.6279 44.1425 62.3564 44.325L61.6986 44.7793C61.0748 45.2165 60.5655 45.7939 60.2133 46.4731C59.8611 47.1438 59.6786 47.8952 59.6786 48.6551V50.6885C59.6786 50.8541 59.7125 51.0154 59.772 51.164C59.8356 51.3125 59.9247 51.4526 60.0436 51.5673C60.1581 51.6861 60.2982 51.7753 60.4467 51.839C60.5952 51.8984 60.7565 51.9323 60.922 51.9323Z" fill="#DADADA"/>
<path d="M69.2558 50.6875C69.5995 50.6875 69.9305 50.8233 70.1767 51.0695C70.4228 51.3115 70.5586 51.6469 70.5586 51.9908V54.7798C70.5586 55.8539 70.2912 56.9024 69.7735 57.8406C69.26 58.7787 68.5174 59.5726 67.6177 60.1415C67.1594 60.4259 66.786 60.8207 66.5229 61.2876C66.264 61.7546 66.1197 62.2853 66.1197 62.8201V64.7262C66.1197 64.913 66.0476 65.0913 65.9118 65.2229C65.7802 65.3545 65.602 65.4266 65.4153 65.4266H63.0091C62.8224 65.4266 62.6442 65.3545 62.5126 65.2229C62.3853 65.0913 62.3089 64.913 62.3089 64.7262V62.8201C62.3047 62.2853 62.1689 61.7546 61.9058 61.2876C61.6469 60.8207 61.265 60.4259 60.8152 60.1415C59.9155 59.5726 59.1644 58.7787 58.6551 57.8406C58.1417 56.9024 57.8701 55.8539 57.8701 54.7798V51.9908C57.8701 51.6469 58.0059 51.3115 58.252 51.0695C58.4981 50.8233 58.8249 50.6875 59.1729 50.6875H69.2558Z" fill="#8B8B8B"/>
<path d="M21.1447 230.568C21.1447 230.581 21.1489 230.589 21.1574 230.598C21.1659 230.606 21.1744 230.61 21.1871 230.61H70.4814C70.4898 230.61 70.4941 230.61 70.4983 230.606C70.5026 230.606 70.5068 230.602 70.511 230.598C70.511 230.593 70.5153 230.589 70.5153 230.585C70.5195 230.581 70.5195 230.572 70.5195 230.568V223.72C70.5195 223.716 70.5195 223.708 70.5153 223.703C70.5153 223.699 70.511 223.695 70.511 223.691L66.4499 219.624C66.2038 219.382 65.9109 219.187 65.5969 219.055C65.2786 218.928 64.9349 218.855 64.5912 218.855H29.4877C29.1015 218.855 28.7238 218.94 28.3801 219.102C28.0321 219.263 27.7266 219.501 27.4762 219.794L21.8279 226.522C21.3865 227.053 21.1447 227.724 21.1447 228.411V230.568Z" fill="#2D313A"/>
<path d="M147.564 230.661C147.662 230.279 147.607 229.872 147.411 229.528C147.216 229.184 146.898 228.929 146.52 228.815L134.638 225.308L134.349 223.67C134.252 223.079 134.031 222.519 133.709 222.014C133.39 221.509 132.97 221.08 132.482 220.736C131.022 219.73 128.828 218.257 127.182 217.378C126.664 217.102 126.062 217.03 125.497 217.187C124.928 217.336 124.445 217.692 124.126 218.189L117.04 229.392L99.7382 243.291C99.7382 243.291 93.8523 243.796 90.9836 244.246C90.1518 244.373 89.354 244.675 88.6495 245.137C87.9451 245.596 87.3467 246.203 86.8969 246.912C86.8969 246.912 100.931 254.799 112.864 256.124L145.362 249.939L145.514 238.604L147.564 230.661Z" fill="#4A9DC9"/>
<path d="M117.2 254.608C117.212 254.608 117.221 254.604 117.229 254.599L125.347 248.041C127.923 245.952 131.017 244.606 134.297 244.135L145.467 242.526C145.475 242.522 145.484 242.518 145.492 242.509C145.496 242.505 145.501 242.492 145.501 242.484L145.543 239.334C145.543 239.325 145.543 239.321 145.539 239.313C145.539 239.308 145.534 239.304 145.53 239.3C145.522 239.291 145.513 239.287 145.501 239.287L133.847 240.968C129.994 241.52 126.366 243.103 123.34 245.549L115.218 252.103C115.209 252.112 115.205 252.12 115.201 252.133C115.201 252.141 115.205 252.154 115.209 252.163L117.17 254.591C117.17 254.595 117.178 254.599 117.183 254.599C117.187 254.604 117.195 254.608 117.2 254.608Z" fill="#FEF7F0"/>
<path d="M109.68 254.06L108.114 247.315C107.851 246.177 107.931 244.984 108.347 243.898C108.763 242.807 109.497 241.864 110.452 241.193L117.038 236.562C118.821 235.31 120.433 233.832 121.842 232.168L127.664 225.287C128.059 224.82 128.581 224.48 129.171 224.315C129.757 224.145 130.38 224.153 130.962 224.34L134.637 225.308" stroke="#3B8DB8" stroke-width="2" stroke-linecap="round" stroke-linejoin="round"/>
<path d="M147.135 258.78C147.156 258.776 147.177 258.767 147.19 258.755C147.198 258.746 147.203 258.738 147.207 258.729C147.211 258.716 147.215 258.708 147.211 258.695L146.948 251.894C146.94 251.61 146.859 251.33 146.723 251.079C146.587 250.825 146.396 250.608 146.159 250.447L145.399 249.912C145.382 249.903 145.369 249.899 145.352 249.899C144.215 249.971 117.569 251.686 113.398 251.733C113.236 251.733 113.067 251.737 112.888 251.737C108.53 251.737 99.3597 251.109 86.9173 246.881L86.2765 246.889C86.0304 246.898 85.7928 246.97 85.5891 247.102C85.3854 247.242 85.2241 247.428 85.1265 247.649C84.5197 249.003 83.5012 251.627 83.497 254.038C83.497 254.051 83.497 254.068 83.5055 254.081C83.5139 254.093 83.5267 254.102 83.5394 254.11C83.7813 254.246 89.646 257.498 101.24 258.78H147.135Z" fill="#FEF7F0"/>
<path d="M110.567 244.97C110.915 244.97 111.254 244.86 111.539 244.656C111.819 244.453 112.035 244.164 112.141 243.833C112.256 243.502 112.26 243.145 112.154 242.814C112.052 242.479 111.844 242.186 111.564 241.978C111.369 241.833 106.777 238.441 101.969 239.163C101.532 239.227 101.142 239.465 100.883 239.817C100.62 240.169 100.509 240.615 100.573 241.052C100.637 241.489 100.874 241.88 101.227 242.139C101.583 242.406 102.029 242.513 102.466 242.453C105.886 241.939 109.54 244.61 109.578 244.639C109.862 244.852 110.206 244.97 110.567 244.97Z" fill="#3B8DB8"/>
<path d="M116.22 241.218C116.568 241.218 116.912 241.112 117.192 240.908C117.476 240.705 117.688 240.412 117.799 240.085C117.905 239.754 117.909 239.397 117.807 239.062C117.705 238.731 117.501 238.438 117.221 238.23C117.039 238.09 112.698 234.863 108.161 234.863C107.72 234.863 107.3 235.037 106.986 235.347C106.676 235.661 106.502 236.086 106.502 236.523C106.502 236.965 106.676 237.389 106.986 237.699C107.3 238.013 107.72 238.187 108.161 238.187C111.573 238.187 115.193 240.862 115.227 240.887C115.515 241.104 115.863 241.218 116.22 241.218Z" fill="#3B8DB8"/>
<path d="M121.187 237.051C121.556 237.051 121.912 236.928 122.201 236.703C122.494 236.482 122.701 236.163 122.795 235.811C122.888 235.455 122.863 235.077 122.714 234.741C122.574 234.402 122.324 234.122 122.001 233.939C121.819 233.837 117.465 231.413 112.984 231.095C112.542 231.061 112.109 231.205 111.774 231.494C111.443 231.782 111.239 232.19 111.205 232.631C111.176 233.069 111.32 233.506 111.609 233.837C111.897 234.172 112.309 234.376 112.746 234.406C116.472 234.673 120.338 236.817 120.376 236.838C120.622 236.974 120.902 237.051 121.187 237.051Z" fill="#3B8DB8"/>
<path d="M68.3867 223.703H45.4668L23.1197 227.01" stroke="#888888" stroke-width="2" stroke-linecap="round" stroke-linejoin="round"/>
<path d="M30.76 239.906H36.786C36.803 239.906 36.8242 239.923 36.8242 239.949V251.432C36.8242 251.457 36.803 251.474 36.786 251.474H30.76C30.7388 251.474 30.7176 251.457 30.7176 251.432V239.949C30.7176 239.923 30.7388 239.906 30.76 239.906Z" fill="#F9F9F2"/>
<path d="M31.2617 221.041L26.6998 226.475" stroke="#888888" stroke-width="2" stroke-linecap="round" stroke-linejoin="round"/>
<path d="M33.7285 221.041L29.5146 226.063" stroke="#888888" stroke-width="2" stroke-linecap="round" stroke-linejoin="round"/>
<path d="M36.1973 221.041L32.3356 225.647" stroke="#888888" stroke-width="2" stroke-linecap="round" stroke-linejoin="round"/>
<path d="M66.1825 88.9194C66.4583 88.8812 66.7554 88.8345 67.0524 88.7921C67.5956 88.7072 68.1388 88.6265 68.5547 88.5586" stroke="#3E5460" stroke-width="2" stroke-linecap="round" stroke-linejoin="round"/>
<path d="M67.0434 85.5664C67.1961 85.8975 67.6629 86.8272 68.2316 87.931C68.7026 88.8479 69.2374 89.8795 69.7126 90.7922C70.4086 92.1379 70.9688 93.2034 70.9688 93.2034" stroke="#3E5460" stroke-width="2" stroke-linecap="round" stroke-linejoin="round"/>
<path d="M65.785 228.998C64.9914 228.671 64.6137 227.762 64.9405 226.969C65.2715 226.175 66.1796 225.801 66.9732 226.128C67.7668 226.459 68.1402 227.368 67.8134 228.157C67.4824 228.951 66.5743 229.329 65.785 228.998Z" fill="#3B8DB8"/>
<path d="M70.5918 73.1113L62.3421 74.8051C61.9814 74.8773 61.6547 75.0598 61.4128 75.3273C61.1624 75.5947 61.0054 75.9386 60.963 76.2994C60.8569 77.1824 60.7381 79.305 60.7168 80.7017" stroke="#3E5460" stroke-width="2" stroke-linecap="round" stroke-linejoin="round"/>
<path d="M66.5781 75.0469C66.5781 75.0469 63.3572 80.4637 61.6258 84.4796" stroke="#3E5460" stroke-width="2" stroke-linecap="round" stroke-linejoin="round"/>
<path d="M63.7848 82.2129C63.7848 82.2129 63.8527 87.0481 64.0352 89.6843" stroke="#3E5460" stroke-width="2" stroke-linecap="round" stroke-linejoin="round"/>
<path d="M7.27602 239.906H13.2978C13.319 239.906 13.3359 239.923 13.3359 239.949V251.432C13.3359 251.457 13.319 251.474 13.2978 251.474H7.27602C7.25056 251.474 7.23357 251.457 7.23357 251.432V239.949C7.23357 239.923 7.25056 239.906 7.27602 239.906Z" fill="#F9F9F2"/>
<path d="M115.393 18.1833C107.487 14.1929 102.437 11.9345 99.6189 16.9183C95.8251 23.6383 102.212 26.2533 102.326 33.4616" stroke="#2B261C" stroke-width="2" stroke-linecap="round" stroke-linejoin="round"/>
<path d="M117.819 12.8379C119.801 17.4693 122.432 21.7952 125.632 25.6795C129.04 29.844 139.398 42.0233 139.398 42.0233" stroke="#2B261C" stroke-width="2" stroke-linecap="round" stroke-linejoin="round"/>
<path d="M102.348 51.8818C103.048 55.9487 105.106 58.2368 108.679 63.9805C110.309 66.5912 115.66 66.5148 118.499 65.1521C125.187 61.9343 133.866 56.509 134.735 54.4374C135.516 52.5908 136.149 48.6512 136.212 48.2437C136.212 48.2352 136.217 48.2267 136.225 48.2225C136.234 48.214 136.242 48.214 136.255 48.214C138.525 48.0357 140.711 47.2546 142.574 45.9343C142.989 45.6414 143.388 45.3273 143.766 44.9792C145.739 43.1835 146.911 40.2161 147.237 37.461V37.4525C147.522 34.9904 147.127 32.6937 146.007 31.5433C144.173 29.6415 141.53 29.5099 139.153 31.5433C138.822 31.8277 138.517 32.1334 138.245 32.4687C137.091 33.8994 136.475 35.6866 136.509 37.5162L136.45 39.6048C136.45 39.6303 136.433 39.6345 136.416 39.6218L119.199 25.7656C117.82 24.6534 116.747 23.2016 116.093 21.5587L115.397 19.8182C115.393 19.814 115.393 19.8055 115.389 19.8012C113.67 18.3664 110.937 17.2881 108.344 16.957C107.474 16.8423 106.587 16.9697 105.781 17.3221C104.979 17.6702 104.279 18.2305 103.765 18.9437C101.818 21.6648 99.8484 26.0331 99.6362 30.3674C99.4453 34.3876 100.986 43.9561 102.348 51.8818Z" fill="#FFCDB8"/>
<path d="M136.219 48.2129C136.219 48.2129 135.557 52.4878 134.733 54.4363C134.084 55.973 129.128 59.3649 123.882 62.3238C123.56 62.5063 123.233 62.6889 122.906 62.8671" stroke="#F3A889" stroke-width="2" stroke-linecap="round" stroke-linejoin="round"/>
<path d="M107.186 40.6266L107.564 43.6491C107.619 43.8784 109.448 45.7674 109.439 46.8245C109.422 48.7857 107.186 49.5881 104.848 50.0975C104.339 50.2079 103.808 50.1824 103.307 50.0296C101.797 49.5711 98.6011 48.3952 97.9943 46.5443C97.5529 45.2071 99.6196 44.9015 101.661 43.1609C102.263 42.643 104.097 41.0851 105.438 39.9431C105.582 39.82 105.764 39.7393 105.955 39.7054C106.142 39.6714 106.337 39.6927 106.52 39.7606C106.698 39.8327 106.855 39.9474 106.97 40.1044C107.088 40.253 107.165 40.4355 107.186 40.6266Z" fill="#EC9A77"/>
<path d="M111.955 50.4077L106.918 52.4581C106.782 52.509 106.663 52.5982 106.566 52.7085C106.477 52.8232 106.409 52.9547 106.379 53.0948C106.349 53.2349 106.353 53.3878 106.396 53.5279C106.438 53.6637 106.51 53.7953 106.612 53.8972C107.61 54.9415 109.294 56.3764 110.64 55.8712C112.524 55.1622 113.012 52.7807 113.122 51.2567C113.135 51.1123 113.105 50.9638 113.05 50.8364C112.986 50.7048 112.893 50.5902 112.778 50.5053C112.66 50.4204 112.524 50.3652 112.379 50.3482C112.239 50.3355 112.091 50.3482 111.955 50.4077Z" fill="#EC9A77"/>
<path opacity="0.6" d="M118.206 46.0453C116.381 42.8826 117.658 38.7351 121.049 36.7739C124.444 34.8126 128.671 35.789 130.491 38.9474C132.32 42.1058 131.043 46.2575 127.652 48.2188C124.257 50.1758 120.031 49.1994 118.206 46.0453Z" fill="#EC9A77"/>
<path d="M116.555 38.3305C116.865 38.3305 117.166 38.2583 117.446 38.131C117.722 37.9994 117.968 37.8084 118.163 37.5706C118.358 37.3286 118.498 37.0485 118.575 36.7513C118.651 36.4542 118.655 36.14 118.596 35.8428L118.515 35.4565C118.469 35.1849 118.363 34.9259 118.214 34.6967C118.066 34.4632 117.87 34.2637 117.641 34.1108C117.412 33.9538 117.153 33.8434 116.882 33.7882C116.61 33.7373 116.334 33.7373 116.063 33.7882C115.791 33.8476 115.536 33.958 115.307 34.1108C115.078 34.2637 114.883 34.4632 114.734 34.6967C114.581 34.9259 114.48 35.1849 114.429 35.4608C114.382 35.7282 114.386 36.0084 114.446 36.2759L114.522 36.6622C114.62 37.1334 114.87 37.5537 115.243 37.8551C115.613 38.165 116.079 38.3305 116.555 38.3305Z" fill="#6D6130"/>
<path d="M102.518 39.697C102.662 39.697 102.798 39.6801 102.934 39.6546C103.201 39.5994 103.451 39.4933 103.68 39.3405C103.905 39.1876 104.101 38.9923 104.249 38.7673C104.406 38.5381 104.508 38.2834 104.563 38.0159C104.61 37.7485 104.61 37.4726 104.559 37.2094L104.478 36.8231C104.364 36.2924 104.037 35.8297 103.587 35.5325C103.129 35.2396 102.577 35.1335 102.047 35.2439C101.512 35.3458 101.045 35.6599 100.74 36.1099C100.434 36.5599 100.315 37.1075 100.409 37.6424L100.489 38.0244C100.583 38.4957 100.837 38.9202 101.206 39.2216C101.576 39.5272 102.042 39.6928 102.518 39.697Z" fill="#6D6130"/>
<path d="M136.22 48.2132C138.121 48.0816 139.962 47.517 141.6 46.5534C141.94 46.3624 142.262 46.1543 142.572 45.9336" stroke="#F3A889" stroke-width="2" stroke-linecap="round" stroke-linejoin="round"/>
<path d="M144.24 33.3776C141.558 31.1616 138.728 36.2855 139.284 39.0067" stroke="#F3A889" stroke-width="2" stroke-linecap="round" stroke-linejoin="round"/>
<path d="M143.762 38.1274C143.762 34.935 140.053 34.1794 139.446 36.6883" stroke="#F3A889" stroke-width="2" stroke-linecap="round" stroke-linejoin="round"/>
<path d="M128.348 4.79297C126.502 5.09013 120.166 10.3074 118.732 11.5173C117.009 13.8054 115.392 16.7515 115.392 19.8081" stroke="#2B261C" stroke-width="2" stroke-linecap="round" stroke-linejoin="round"/>
</svg>
