<svg width="263" height="219" viewBox="0 0 263 219" fill="none" xmlns="http://www.w3.org/2000/svg">
<path d="M1.31114 128.408H249.982V194.929H193.332L128.363 169.813L57.9576 194.929H1.31114V128.408Z" fill="#99B1B0"/>
<path d="M234.8 93.3906H16.7369L0 130.125H251.54L234.8 93.3906Z" fill="#6B6B6B"/>
<path d="M193.332 130.125H57.9581V194.93H193.332V130.125Z" fill="#689A94"/>
<path d="M125.645 93.3906L94.9848 130.125V194.93H156.917L156.302 130.125L125.645 93.3906Z" fill="#79A5A0"/>
<path d="M125.645 93.3911L125.77 65.459" stroke="#79A5A0" stroke-width="3" stroke-linecap="round" stroke-linejoin="round"/>
<path d="M144.404 75.2012C137.021 77.4363 132.327 71.7697 125.77 75.2012V65.4588C133.521 61.5572 136.877 68.3447 144.404 65.4588V75.2012Z" fill="#79A5A0"/>
<path d="M125.645 122.896C128.942 122.896 131.611 120.227 131.611 116.931C131.611 113.64 128.942 110.965 125.645 110.965C122.352 110.965 119.683 113.64 119.683 116.931C119.683 120.227 122.352 122.896 125.645 122.896Z" fill="#F8BC63"/>
<path d="M81.502 139.119H71.6117V154.574H81.502V139.119Z" fill="#E3EBEE"/>
<path d="M81.502 168.855H71.6117V184.307H81.502V168.855Z" fill="#E3EBEE"/>
<path d="M44.8597 139.119H34.9694V154.574H44.8597V139.119Z" fill="#E3EBEE"/>
<path d="M44.8597 168.855H34.9694V184.307H44.8597V168.855Z" fill="#E3EBEE"/>
<path d="M23.5575 139.119H13.6672V154.574H23.5575V139.119Z" fill="#E3EBEE"/>
<path d="M23.5575 168.855H13.6672V184.307H23.5575V168.855Z" fill="#E3EBEE"/>
<path d="M130.713 139.119H120.823V154.574H130.713V139.119Z" fill="#E3EBEE"/>
<path d="M113.53 139.119H103.639V154.574H113.53V139.119Z" fill="#E3EBEE"/>
<path d="M147.897 139.119H138.007V154.574H147.897V139.119Z" fill="#E3EBEE"/>
<path d="M179.83 139.119H169.939V154.574H179.83V139.119Z" fill="#E3EBEE"/>
<path d="M179.83 168.855H169.939V184.307H179.83V168.855Z" fill="#E3EBEE"/>
<path d="M216.472 139.119H206.585V154.574H216.472V139.119Z" fill="#E3EBEE"/>
<path d="M216.472 168.855H206.585V184.307H216.472V168.855Z" fill="#E3EBEE"/>
<path d="M237.775 139.119H227.888V154.574H237.775V139.119Z" fill="#E3EBEE"/>
<path d="M237.775 168.855H227.888V184.307H237.775V168.855Z" fill="#E3EBEE"/>
<path d="M13.6672 146.842H23.5608" stroke="#234450" stroke-width="3" stroke-linecap="round" stroke-linejoin="round"/>
<path d="M18.6134 139.119V154.574" stroke="#234450" stroke-width="3" stroke-linecap="round" stroke-linejoin="round"/>
<path d="M34.9694 146.842H44.863" stroke="#234450" stroke-width="3" stroke-linecap="round" stroke-linejoin="round"/>
<path d="M39.9164 139.119V154.574" stroke="#234450" stroke-width="3" stroke-linecap="round" stroke-linejoin="round"/>
<path d="M13.6672 176.58H23.5608" stroke="#234450" stroke-width="3" stroke-linecap="round" stroke-linejoin="round"/>
<path d="M18.6134 168.855V184.307" stroke="#234450" stroke-width="3" stroke-linecap="round" stroke-linejoin="round"/>
<path d="M34.9694 176.58H44.863" stroke="#234450" stroke-width="3" stroke-linecap="round" stroke-linejoin="round"/>
<path d="M39.9164 168.855V184.307" stroke="#234450" stroke-width="3" stroke-linecap="round" stroke-linejoin="round"/>
<path d="M71.6117 146.842H81.502" stroke="#234450" stroke-width="3" stroke-linecap="round" stroke-linejoin="round"/>
<path d="M76.5549 139.119V154.574" stroke="#234450" stroke-width="3" stroke-linecap="round" stroke-linejoin="round"/>
<path d="M103.639 146.842H113.53" stroke="#234450" stroke-width="3" stroke-linecap="round" stroke-linejoin="round"/>
<path d="M108.583 139.119V154.574" stroke="#234450" stroke-width="3" stroke-linecap="round" stroke-linejoin="round"/>
<path d="M120.823 146.842H130.713" stroke="#234450" stroke-width="3" stroke-linecap="round" stroke-linejoin="round"/>
<path d="M125.77 139.119V154.574" stroke="#234450" stroke-width="3" stroke-linecap="round" stroke-linejoin="round"/>
<path d="M138.007 146.842H147.9" stroke="#234450" stroke-width="3" stroke-linecap="round" stroke-linejoin="round"/>
<path d="M142.954 139.119V154.574" stroke="#234450" stroke-width="3" stroke-linecap="round" stroke-linejoin="round"/>
<path d="M71.6117 176.58H81.502" stroke="#234450" stroke-width="3" stroke-linecap="round" stroke-linejoin="round"/>
<path d="M76.5549 168.855V184.307" stroke="#234450" stroke-width="3" stroke-linecap="round" stroke-linejoin="round"/>
<path d="M237.768 146.842H227.874" stroke="#234450" stroke-width="3" stroke-linecap="round" stroke-linejoin="round"/>
<path d="M232.821 139.119V154.574" stroke="#234450" stroke-width="3" stroke-linecap="round" stroke-linejoin="round"/>
<path d="M216.465 146.842H206.572" stroke="#234450" stroke-width="3" stroke-linecap="round" stroke-linejoin="round"/>
<path d="M211.519 139.119V154.574" stroke="#234450" stroke-width="3" stroke-linecap="round" stroke-linejoin="round"/>
<path d="M237.768 176.58H227.874" stroke="#234450" stroke-width="3" stroke-linecap="round" stroke-linejoin="round"/>
<path d="M232.821 168.855V184.307" stroke="#234450" stroke-width="3" stroke-linecap="round" stroke-linejoin="round"/>
<path d="M216.465 176.58H206.572" stroke="#234450" stroke-width="3" stroke-linecap="round" stroke-linejoin="round"/>
<path d="M211.519 168.855V184.307" stroke="#234450" stroke-width="3" stroke-linecap="round" stroke-linejoin="round"/>
<path d="M179.823 146.842H169.933" stroke="#234450" stroke-width="3" stroke-linecap="round" stroke-linejoin="round"/>
<path d="M174.877 139.119V154.574" stroke="#234450" stroke-width="3" stroke-linecap="round" stroke-linejoin="round"/>
<path d="M179.823 176.58H169.933" stroke="#234450" stroke-width="3" stroke-linecap="round" stroke-linejoin="round"/>
<path d="M174.877 168.855V184.307" stroke="#234450" stroke-width="3" stroke-linecap="round" stroke-linejoin="round"/>
<path d="M225.644 2.18983e-05H217.564C217.393 2.18983e-05 217.202 2.18983e-05 216.951 2.18983e-05C216.07 -0.00313038 215.225 0.334163 214.593 0.936248C213.97 1.53833 213.609 2.35477 213.596 3.2185C213.583 4.07907 213.919 4.90812 214.532 5.52911C215.144 6.14696 215.98 6.50317 216.861 6.52523C216.886 6.52523 217.683 13 217.683 13H238.596V12.6564C238.596 9.29923 237.228 6.08391 234.799 3.71025C232.37 1.33659 229.08 2.18983e-05 225.644 2.18983e-05Z" fill="#ED532D"/>
<path d="M254.978 216.901C254.419 216.775 253.362 216.694 252.066 216.561C251.504 216.506 250.807 216.415 250.032 216.311C247.823 215.945 247.434 213.153 247.299 210.84L241.882 205L237.596 210.84L237.935 219H256.559C256.559 219 256.977 217.364 254.978 216.901Z" fill="#2D2928"/>
<path d="M183.634 219H211.186L211.596 210.669L208.028 208L201.172 210.626C201.105 211.78 200.642 212.872 199.86 213.728C199.078 214.588 198.021 215.16 196.866 215.342C194.041 215.782 190.443 216.318 188.449 216.513C187.053 216.645 185.926 216.728 185.332 216.857C183.191 217.33 183.634 219 183.634 219Z" fill="#2D2928"/>
<path d="M198.596 210.993L211.366 211L226.632 99.0245C226.642 98.8962 226.694 98.7713 226.793 98.6792C226.888 98.5936 227.013 98.5443 227.145 98.5443C227.28 98.5443 227.401 98.5936 227.497 98.6792C227.595 98.7713 227.648 98.8962 227.658 99.0245L237.228 211L249.446 210.993L254.596 83.7493C254.596 81.3745 254.421 79.0029 254.076 76.6511L253.691 74H201.204L200.819 76.6511C200.477 79.0029 200.296 81.3745 200.286 83.7493L198.596 210.993Z" fill="#4A5C65"/>
<path d="M202.959 77.3185C222.26 106.341 249.434 92.8322 254.314 84.3524C254.503 84.0215 254.602 83.6477 254.595 83.2639C254.572 81.0571 254.397 78.8503 254.079 76.6667L253.954 75.8263C253.887 75.3168 253.633 74.8536 253.246 74.5194C252.859 74.182 252.359 74 251.846 74H204.729C204.342 74 203.965 74.1059 203.631 74.3044C203.3 74.5062 203.029 74.7874 202.847 75.1282C202.668 75.469 202.579 75.8594 202.598 76.2399C202.618 76.627 202.741 77.0008 202.959 77.3185Z" fill="#E9B34A"/>
<path d="M238.596 12.9269C238.553 14.8356 238.087 16.7005 237.225 18.3901C236.362 20.0763 235.132 21.5399 233.633 22.6595C232.134 23.7724 230.403 24.5211 228.572 24.8347C226.742 25.145 224.869 25.0168 223.095 24.4638C221.324 23.9073 219.697 22.9394 218.352 21.6276C217.004 20.3225 215.971 18.7105 215.332 16.9164C214.695 15.1324 214.466 13.2135 214.666 11.3182C214.869 9.42296 215.496 7.60525 216.493 6H229.074C229.776 8.02343 231.065 9.77706 232.771 11.0113C234.47 12.2524 236.506 12.9201 238.596 12.9269Z" fill="#FC9DA9"/>
<path d="M219.596 16C219.596 16.7957 219.859 17.5591 220.331 18.1254C220.797 18.6846 221.434 19 222.097 19C222.758 19 223.397 18.6846 223.863 18.1254C224.333 17.5591 224.596 16.7957 224.596 16H219.596Z" fill="#FCFCFC"/>
<path d="M224.097 12C224.373 12 224.596 11.7773 224.596 11.5011C224.596 11.2249 224.373 11 224.097 11C223.821 11 223.596 11.2249 223.596 11.5011C223.596 11.7773 223.821 12 224.097 12Z" fill="#17171E"/>
<path d="M220.096 12C220.372 12 220.596 11.7773 220.596 11.5011C220.596 11.2249 220.372 11 220.096 11C219.819 11 219.596 11.2249 219.596 11.5011C219.596 11.7773 219.819 12 220.096 12Z" fill="#17171E"/>
<path d="M257.601 129H257.61C258.264 129 258.912 128.866 259.524 128.606C260.126 128.345 260.679 127.968 261.139 127.487C261.602 127.006 261.968 126.435 262.22 125.81C262.469 125.186 262.596 124.518 262.596 123.837L262.586 112.955L257.526 105L252.596 112.965L252.602 123.857C252.609 125.219 253.133 126.532 254.072 127.497C255.011 128.459 256.276 129 257.601 129Z" fill="#FC9DA9"/>
<path d="M74.5937 216.79C75.6109 216.593 75.9318 215.795 75.1906 215.663C74.2407 215.493 73.3679 215.046 72.662 214.366C71.9656 213.685 71.4779 212.815 71.2597 211.852L70.5794 208.78L66.671 206L62.5957 208.78L63.568 214.53C65.073 216.534 71.3431 217.444 74.5937 216.79Z" fill="#9C4D2D"/>
<path d="M28.3424 214.695L28.5957 208.909L24.5875 206L20.0796 208.909L19.9359 211.22C19.8743 212.354 19.4053 213.428 18.6078 214.268C17.8206 215.118 16.7629 215.67 15.5957 215.845V217.551C19.4704 219.125 24.3103 216.172 28.3424 214.695Z" fill="#9C4D2D"/>
<path d="M87.5591 219C87.5591 219 87.984 217.264 85.9373 216.771C85.3665 216.635 84.2896 216.552 82.963 216.417C81.0006 216.208 77.7733 215.646 75.3439 215.198H72.0063C69.9855 215.198 67.9713 214.979 65.9927 214.535L63.5957 214L64.4131 218.99L87.5591 219Z" fill="#F8BC63"/>
<path d="M11.5957 219C11.5957 219 11.6546 215.698 16.4715 215.198H19.3578C21.3997 215.198 23.4286 214.979 25.4248 214.535L28.5957 214L28.3994 218.99L11.6121 219H11.5957Z" fill="#F8BC63"/>
<path d="M66.0756 73.1609C66.0756 73.1609 66.0851 73.1609 66.0851 73.1708C66.0914 73.1708 66.0914 73.1773 66.0914 73.1773L72.5732 131.633C72.6302 132.182 72.5795 132.744 72.4148 133.267C72.25 133.8 71.9839 134.287 71.6196 134.699C71.2616 135.108 70.8213 135.441 70.3239 135.663C69.836 135.889 69.3038 136 68.7652 136C67.8275 135.99 66.9309 135.621 66.234 134.97C65.5465 134.32 65.1125 133.421 65.0238 132.463L52.5957 69L66.0756 73.1609Z" fill="#9C4D2D"/>
<path d="M43.4568 27.0053C43.0852 26.8392 41.217 30.6575 39.392 31.7598C38.9042 32.7094 38.1742 33.4997 37.2716 34.0641C36.3757 34.6219 35.3337 34.934 34.2719 34.9506C33.6912 35.691 32.9413 36.282 32.0918 36.6838C31.239 37.0822 30.3 37.2748 29.3642 37.2316C28.3721 37.4209 27.433 37.8127 26.6001 38.3771C26.5902 38.3871 26.6001 38.397 26.6001 38.4037C26.6698 40.5419 27.3102 42.6303 28.4683 44.4399C29.6231 46.2461 31.2324 47.717 33.1437 48.6898C35.055 49.6626 37.192 50.1075 39.3289 49.978C41.4659 49.8386 43.5364 49.1413 45.3084 47.9328C47.0903 46.7342 48.5072 45.0807 49.4263 43.1417C50.3488 41.2026 50.7404 39.0577 50.5479 36.9261C50.3588 34.7879 49.6022 32.7426 48.3512 30.9962C47.1069 29.2497 45.4113 27.8752 43.4568 27.0053Z" fill="#9C4D2D"/>
<path d="M56.0336 81C57.14 79.9603 58.0318 78.702 58.6461 77.3079C59.2505 75.904 59.5642 74.394 59.5642 72.8675H66.5594C66.5693 72.8675 66.5693 72.8675 66.5792 72.8675C66.5792 72.8675 66.5858 72.8676 66.5858 72.8576L66.5957 72.851C66.5957 72.8411 66.5957 72.8411 66.5957 72.8344C65.377 66.4172 61.9686 60.6225 56.9518 56.4536C51.9251 52.2815 45.6202 50 39.1007 50C25.4076 50 13.039 59.4371 11.5957 72.8576L11.6056 72.8675L18.6602 73.2053C18.6536 74.394 18.974 75.904 19.5784 77.3079C20.1827 78.702 21.0745 79.9603 22.1908 80.9934H56.027L56.0336 81Z" fill="#D2CFC1"/>
<path d="M62.83 95.8603L62.7255 94.9588C62.0854 89.6751 59.7146 84.7646 55.995 81H22.5221C18.0841 85.4911 15.5957 91.5871 15.5957 97.9341L16.6309 124.709V124.716L20.7619 209H28.8869L38.7197 110.595C38.7393 110.387 38.8308 110.189 38.9843 110.04C39.1312 109.895 39.3271 109.809 39.5427 109.799C39.7484 109.783 39.9509 109.852 40.1142 109.971C40.2872 110.103 40.3983 110.285 40.4407 110.493L62.4708 209H70.5957L62.83 95.8603Z" fill="#D86A04"/>
<path d="M30.5848 20.2831C30.7465 18.0778 29.0841 16.1684 26.888 16.0098C24.6826 15.8572 22.7671 17.5105 22.6054 19.7158C22.4529 21.9211 24.1153 23.8397 26.3115 23.9891C28.5168 24.1508 30.4354 22.4884 30.5848 20.2831Z" fill="#17171E"/>
<path d="M38.6946 26C35.542 26 32.5031 27.184 30.2464 29.3016C27.9865 31.4128 26.6726 34.2941 26.5957 37.3198V37.3936L26.6024 38L30.437 37.9904H30.5607C33.7568 37.9904 36.8358 36.8738 39.2362 34.8556C41.6366 32.831 43.1745 30.0428 43.5957 27.0011L43.589 26.9914C42.0478 26.3369 40.3829 26 38.6946 26Z" fill="#17171E"/>
<path d="M18.853 130.227C20.4374 105.391 22.549 92.4257 35.5356 81.5653C35.7844 81.3558 35.2016 81 34.8743 81H22.5293C20.3261 83.2379 18.578 85.8948 17.3962 88.8211C16.2046 91.7373 15.5957 94.8731 15.5957 98.0321L16.9248 130.035C16.9739 131.185 18.7842 131.378 18.853 130.227Z" fill="#C45E01"/>
<path d="M47.4988 37C47.7757 37 48 36.7804 48 36.4988C48 36.2243 47.7757 36 47.4988 36C47.2243 36 47 36.2243 47 36.4988C47 36.7804 47.2243 37 47.4988 37Z" fill="#17171E"/>
<path d="M42.5012 37C42.7757 37 43 36.7804 43 36.4988C43 36.2243 42.7757 36 42.5012 36C42.2267 36 42 36.2243 42 36.4988C42 36.7804 42.2267 37 42.5012 37Z" fill="#17171E"/>
<path d="M15.6097 136C14.4757 136 13.3763 135.581 12.5474 134.836C11.7324 134.09 11.2503 133.069 11.2122 131.99C10.4492 110.422 10.2792 90.2603 11.3682 73.1374C11.3682 73.1374 11.3682 73.1374 11.3682 73.1276C11.3682 73.1276 11.3682 73.1276 11.3786 73.0262L21.5957 73C20.0246 92.6219 19.4871 112.178 20.0038 131.725C20.0246 132.281 19.9241 132.831 19.716 133.354C19.5044 133.867 19.1784 134.348 18.7692 134.741C18.36 135.143 17.871 135.46 17.3265 135.673C16.782 135.889 16.1993 136 15.6097 136Z" fill="#9C4D2D"/>
<path d="M21.2359 73.0484C22.3511 74.588 24.5505 77.9643 34.4118 80.5258C34.4668 80.5458 34.5219 80.5792 34.5495 80.6226C34.5839 80.6761 34.6011 80.7295 34.5942 80.7896C34.5839 80.843 34.5563 80.9031 34.5116 80.9399C34.4668 80.9733 34.4118 81 34.3498 81H21.9484C21.4424 80.5625 20.9812 80.0816 20.5957 79.5473L21.0259 73.1019C21.0259 73.0852 21.0363 73.0584 21.0535 73.0417C21.0638 73.025 21.0913 73.015 21.1086 73.005C21.1361 72.9983 21.1533 72.9983 21.1808 73.005C21.198 73.015 21.2153 73.0317 21.2359 73.0484Z" fill="#BCB6B6"/>
<path d="M41.5957 41C41.8521 41.7378 42.3027 42.337 42.8521 42.6737C43.3979 43.0253 44.0096 43.0897 44.5957 42.8817" stroke="#7E2D0C" stroke-width="3" stroke-linecap="round" stroke-linejoin="round"/>
<path d="M170.771 52.8658C168.767 52.1944 167.46 50.3448 167.607 49.624L171.074 32.9379C171.444 31.1343 172.25 29.4525 173.416 28.0505C174.583 26.6517 176.071 25.5722 177.744 24.9239L179.331 24.3117C179.898 24.0879 180.507 23.9826 181.116 24.0023C181.725 24.0254 182.324 24.1636 182.875 24.4203C183.433 24.6836 183.93 25.0489 184.344 25.5097C184.762 25.9672 185.087 26.5036 185.297 27.096C185.517 27.6819 185.612 28.3105 185.593 28.9391C185.571 29.5677 185.431 30.1864 185.176 30.7558C184.924 31.3285 184.567 31.8386 184.121 32.2698C183.675 32.6976 183.149 33.0267 182.582 33.2472L181.014 33.8561C180.788 33.9449 180.59 34.0898 180.427 34.2806C180.268 34.4748 180.163 34.6986 180.112 34.9455L176.645 51.6251C176.31 53.241 171.428 53.0831 170.771 52.8658Z" fill="#D0947C"/>
<path d="M80.5074 55.32L91.6194 62.6053C93.1493 63.6106 94.4064 64.9896 95.2801 66.6133C96.1474 68.2404 96.6021 70.0658 96.5956 71.9144V75.2049C96.5956 76.4781 96.0987 77.6983 95.2152 78.5978C94.3316 79.4973 93.1331 80 91.8825 80C90.6352 80 89.4334 79.4973 88.5499 78.5978C87.6664 77.6983 87.1727 76.4781 87.1727 75.2049V71.9144C87.1727 71.6631 87.1109 71.4151 86.9908 71.1968C86.8738 70.9752 86.7017 70.79 86.4938 70.6545L75.3818 63.3626C73.972 62.43 75.5117 57.6977 74.5957 56.3617C77.1065 54.4932 80.0007 54.9827 80.5074 55.32Z" fill="#D0947C"/>
<path d="M114.596 164L111.234 208.801L106.825 211L101.774 208.801L100.596 164H114.596Z" fill="#D2CFC1"/>
<path d="M151.055 164L155.596 209.459L151.451 212L145.964 209.459L136.596 164.056L151.055 164Z" fill="#D2CFC1"/>
<path d="M69.6176 52.0268C69.7195 49.7979 70.423 47.6377 71.646 45.7623C72.869 43.8934 74.5752 42.3846 76.5807 41.3896L107.034 26.036C107.034 26.036 115.798 27.0474 120.059 27.0474C124.678 27.0474 128.62 27.1161 132.752 26C135.267 27.3125 137.569 29.0046 139.564 31.0142L161.989 51.3296C162.41 51.7028 162.916 51.9711 163.465 52.0857C164.014 52.2035 164.589 52.1773 165.122 52.0071C165.661 51.8337 166.141 51.526 166.519 51.1103C166.894 50.6947 167.157 50.1841 167.279 49.6375L176.596 51.6307C176.142 53.8138 175.106 55.8365 173.601 57.4927C172.095 59.1488 170.168 60.3729 168.032 61.0406C166.753 61.4497 165.421 61.6592 164.083 61.6592C160.924 61.6526 157.886 60.4711 155.562 58.3436L144.305 48.1385C144.282 48.1156 144.256 48.1057 144.226 48.1025C144.193 48.0959 144.167 48.1025 144.141 48.1156C144.111 48.1287 144.088 48.1483 144.075 48.1745C144.058 48.2007 144.052 48.2268 144.058 48.2563L151.768 167.766L90.9639 169L95.7046 43.0359L95.481 42.7184L93.1501 43.661L80.8743 49.847C80.3745 50.1023 79.9504 50.4819 79.6414 50.9532C79.3324 51.4246 79.1614 51.9646 79.1286 52.5276C79.0957 53.084 79.2173 53.6469 79.4737 54.1444C79.7302 54.6452 80.1181 55.0674 80.5882 55.375L75.4004 63.3415C73.5133 62.1338 71.9813 60.4515 70.9655 58.4615C69.9496 56.478 69.4861 54.2557 69.6176 52.0268Z" fill="#ECA5D0"/>
<path d="M106.596 25.2735L111.512 32.6119L120.488 46L132.596 25.2362C128.753 23.1879 124.501 22.0858 120.166 22.0044C115.834 21.9264 111.539 22.876 107.633 24.7784L106.596 25.2735Z" fill="#D2CFC1"/>
<path d="M131.595 11.0445C131.595 13.9466 130.381 16.7341 128.228 18.792C126.068 20.8436 123.142 22 120.095 22C117.049 22 114.123 20.8436 111.963 18.792C109.81 16.7341 108.596 13.9466 108.596 11.0445V10.8406C108.612 9.86256 108.766 8.89411 109.057 7.9639C113.187 4.73999 114.906 1.03504 120.095 1C120.095 1 130.174 4.85467 131.127 7.9639C131.448 8.96101 131.605 9.99955 131.595 11.0445Z" fill="#D0947C"/>
<path d="M119.542 0H119.672C122.139 0.012112 124.529 0.750945 126.499 2.0984C128.466 3.44889 129.902 5.33532 130.596 7.4852C129.646 7.82433 128.636 8.00299 127.616 7.99996C125.746 7.99996 123.932 7.41253 122.482 6.33759C121.036 5.26265 120.039 3.76683 119.669 2.0984C119.669 2.08326 119.659 2.07418 119.646 2.06509C119.636 2.05601 119.626 2.04995 119.609 2.04995C119.592 2.04995 119.582 2.05601 119.566 2.06509C119.556 2.07418 119.552 2.08326 119.552 2.0984C119.176 3.76683 118.179 5.26265 116.729 6.33759C115.282 7.41253 113.469 7.99996 111.599 7.99996C110.569 8.00299 109.552 7.82433 108.596 7.4852C109.296 5.32927 110.732 3.44889 112.706 2.0984C114.679 0.750945 117.076 0.012112 119.542 0Z" fill="#661B06"/>
<path d="M171.562 218.997C171.562 218.997 171.957 217.431 170.053 216.982C169.524 216.863 168.511 216.784 167.276 216.662C165.448 216.48 162.43 215.968 160.16 215.565C159.265 215.407 158.434 214.971 157.775 214.324C157.116 213.673 156.657 212.838 156.454 211.919L155.804 209H146.596L148.29 219H171.562V218.997Z" fill="#CA3F94"/>
<path d="M85.6296 219C85.6296 219 85.2347 217.435 87.1393 216.986C87.6648 216.867 88.6807 216.788 89.9165 216.666C91.7 216.488 94.9103 215.986 97.4232 215.57C98.4519 215.401 99.3882 214.877 100.089 214.078C100.786 213.279 101.204 212.262 101.264 211.186L101.391 209H110.596L110.191 219H85.6296Z" fill="#CA3F94"/>
<path d="M120.596 31C120.043 31 119.596 30.5515 119.596 30.0018C119.596 29.4485 120.043 29 120.596 29C121.148 29 121.596 29.4485 121.596 30.0018C121.596 30.5515 121.148 31 120.596 31Z" fill="#C530B1"/>
<path d="M120.596 38C120.043 38 119.596 37.7762 119.596 37.5C119.596 37.2238 120.043 37 120.596 37C121.148 37 121.596 37.2238 121.596 37.5C121.596 37.7762 121.148 38 120.596 38Z" fill="#C530B1"/>
<path d="M122.094 10C121.816 10 121.596 9.77663 121.596 9.5013C121.596 9.22338 121.816 9 122.094 9C122.372 9 122.596 9.22338 122.596 9.5013C122.596 9.77663 122.372 10 122.094 10Z" fill="#17171E"/>
<path d="M118.094 10C117.816 10 117.596 9.77663 117.596 9.5013C117.596 9.22338 117.816 9 118.094 9C118.372 9 118.596 9.22338 118.596 9.5013C118.596 9.77663 118.372 10 118.094 10Z" fill="#17171E"/>
<path d="M117.596 14C117.596 14.5298 117.857 15.0411 118.327 15.4146C118.794 15.7907 119.432 16 120.094 16C120.759 16 121.395 15.7907 121.864 15.4146C122.331 15.0411 122.596 14.5298 122.596 14H117.596Z" fill="#FCFCFC"/>
<path d="M177.388 114.424L177.397 114.426C178.023 114.615 178.682 114.674 179.343 114.601C179.995 114.525 180.633 114.323 181.212 113.996C181.794 113.669 182.309 113.227 182.731 112.702C183.15 112.176 183.464 111.573 183.66 110.92L186.789 100.499L184.239 91.4222L177.221 97.6269L174.086 108.057C173.699 109.364 173.822 110.772 174.443 111.967C175.064 113.158 176.12 114.042 177.388 114.424Z" fill="#FC9DA9"/>
<path d="M262.595 112.99L262.533 59.6745H262.519C262.49 57.6959 262.288 55.7238 261.917 53.778C260.382 45.6855 256.051 38.3832 249.675 33.1287C243.303 27.8709 235.286 25 227.005 25C218.73 25.0033 210.713 27.8808 204.344 33.1419C197.975 38.3997 193.647 45.7086 192.115 53.8011C192.102 53.8735 192.092 53.9459 192.079 54.0217C188.057 71.3983 181.964 86.76 175.596 103.404L184.096 108.5C187.654 95.1247 192.596 84 198.858 69.9926C198.865 69.9696 198.878 69.9432 198.901 69.9301C198.921 69.9103 198.948 69.8971 198.974 69.8971C198.997 69.8906 199.027 69.9004 199.05 69.9136C199.073 69.9301 199.09 69.9465 199.1 69.9729C201.231 74.9146 204.625 79.2144 208.946 82.4342C213.271 85.6574 218.366 87.6953 223.726 88.3439C229.089 88.9859 234.528 88.2188 239.498 86.1118C244.468 84.0113 248.795 80.6399 252.048 76.3501C252.067 76.3237 252.094 76.3007 252.13 76.2908C252.163 76.2809 252.196 76.2809 252.233 76.2908C252.263 76.3007 252.292 76.3237 252.309 76.3501C252.332 76.3764 252.342 76.4126 252.342 76.4455L252.385 113L262.595 112.99Z" fill="#F8BC63"/>
<path d="M230.585 73.4529L228.205 33.9908L230.059 32.0728L227.094 29L224.129 32.0728L225.976 33.9875L223.607 73.4595C223.54 74.4285 223.78 75.4007 224.295 76.2171L226.441 79.6283C226.514 79.7445 226.611 79.8374 226.723 79.9038C226.838 79.9635 226.963 80 227.097 80C227.229 80 227.353 79.9635 227.469 79.9038C227.584 79.8374 227.677 79.7445 227.751 79.6283L229.903 76.2171C230.412 75.3974 230.652 74.4285 230.585 73.4529Z" fill="white"/>
</svg>
