<svg width="199" height="242" viewBox="0 0 199 242" fill="none" xmlns="http://www.w3.org/2000/svg">
<path d="M122.654 39.61C132.959 39.61 141.312 31.403 141.312 21.2781C141.312 11.1563 132.959 2.94922 122.654 2.94922C112.353 2.94922 104 11.1563 104 21.2781C104 31.403 112.353 39.61 122.654 39.61Z" fill="#194A47"/>
<path d="M122.306 11.2891H122.277C120.291 11.3389 116.529 12.6341 116.529 17.2015C116.529 18.0639 117.239 18.7582 118.117 18.7582C118.995 18.7582 119.701 18.0639 119.701 17.2015C119.701 14.7107 121.707 14.4368 122.338 14.4056C124.362 14.4181 125.617 15.486 125.617 17.2202C125.617 18.4936 125.079 18.9544 123.662 19.8479C122.398 20.6418 120.481 21.8561 120.569 24.6022V25.0505C120.569 25.9129 121.279 26.6103 122.157 26.6103C123.025 26.6103 123.745 25.9254 123.764 25.0629V24.5119C123.732 23.5996 124.131 23.2665 125.389 22.4726L125.408 22.4632C126.755 21.6101 128.792 20.3087 128.792 17.2202C128.792 13.73 126.127 11.2891 122.306 11.2891Z" fill="#EFEFEF"/>
<path d="M122.255 28.2988C121.289 28.2988 120.5 29.071 120.5 30.0237C120.5 30.9733 121.289 31.7485 122.255 31.7485C123.235 31.7392 124.024 30.9733 124.014 30.0237C124.014 29.071 123.225 28.2988 122.255 28.2988Z" fill="#EFEFEF"/>
<path d="M163.67 115.447L163.66 73.0297L179.529 73.0234L179.536 115.447H163.67Z" fill="#D37708"/>
<path opacity="0.3" d="M163.67 115.447L163.66 73.0293L179.567 115.447H163.67Z" fill="#BB5C03"/>
<path d="M171.613 110.4C173.273 110.4 174.617 109.077 174.617 107.446C174.617 105.814 173.273 104.494 171.613 104.494C169.952 104.494 168.605 105.814 168.605 107.446C168.605 109.077 169.952 110.4 171.613 110.4Z" fill="black"/>
<path d="M147.949 115.447L147.939 73.0297L163.805 73.0234L163.815 115.447H147.949Z" fill="#F4BE53"/>
<path opacity="0.3" d="M147.949 115.447L147.939 73.0293L163.818 115.447H147.949Z" fill="#743E9A"/>
<path d="M155.891 110.4C157.551 110.4 158.898 109.077 158.898 107.446C158.898 105.814 157.551 104.494 155.891 104.494C154.23 104.494 152.887 105.814 152.887 107.446C152.887 109.077 154.23 110.4 155.891 110.4Z" fill="black"/>
<path d="M163.67 73.3008V115.441" stroke="black" stroke-linecap="round" stroke-linejoin="round"/>
<path d="M198.186 241.903H191.639V142.699C191.639 131.765 184.491 122.857 175.716 122.857H64.8387C56.0645 122.857 48.9158 131.765 48.9158 142.699V241.903H42.3691V142.699C42.3691 127.708 52.4521 115.51 64.8387 115.51H175.716C188.103 115.51 198.186 127.708 198.186 142.699V241.903Z" fill="#826D9C"/>
<path d="M149.636 232.697C149.636 232.697 145.13 227.102 141.54 221.837C139.043 218.188 136.942 213.552 136.578 208.107C136.394 205.653 136.302 202.783 136.242 200.239C136.242 200.09 133.228 198.835 133.228 198.686L102.631 200.211C103.787 215.585 107.561 228.12 110.182 235.237L152.529 237.812C151.769 236.554 149.636 232.697 149.636 232.697Z" fill="#DB9889"/>
<path d="M131.188 235.236L154.57 235.358C154.599 235.358 154.63 235.268 154.599 235.236C153.838 234.013 152.713 232.696 151.161 231.56C149.576 230.392 145.102 227.073 141.54 221.867C141.54 221.867 141.509 221.836 141.509 221.867C135.966 224.14 131.92 229.165 131.188 235.236Z" fill="#F4BE53"/>
<path d="M123.94 138.318C112.799 131.142 69.2317 121.627 69.2317 121.627H35.4084L32.6675 138.11C30.2339 152.827 41.8315 166.14 57.0541 166.14L99.189 166.168C96.5114 178.282 101.898 189.92 102.662 200.21L136.241 200.238C135.693 175.443 139.223 148.16 123.94 138.318Z" fill="#414860"/>
<path opacity="0.2" d="M124.975 213.849C124.975 197.099 133.043 177.294 131.154 164.314L117.576 172.391C108.716 191.984 115.447 223.632 118.368 235.236H134.564C130.914 231.649 124.975 221.178 124.975 213.849Z" fill="#414860"/>
<path d="M154.598 235.236H143.273H118.37H110.21C110.182 235.236 110.182 235.267 110.182 235.267C111.582 239.156 112.675 241.401 112.767 241.61C112.767 241.61 112.767 241.641 112.799 241.641H156.182C156.214 241.641 156.214 241.641 156.214 241.61C156.274 241.311 156.547 238.409 154.598 235.236Z" fill="#120C0E"/>
<path d="M128.994 230.659C125.86 228.327 124.427 225.634 122.815 223.542C119.921 219.772 119.253 216.154 119.861 212.206C120.105 210.68 120.926 207.779 122.022 204.217C122.418 202.962 122.875 201.586 123.302 200.179L107.044 199.102L91.6404 200.151C91.4883 201.764 91.333 203.411 91.2126 205.026C91.2126 205.026 90.9084 216.182 91.4882 222.076C91.9128 226.385 93.6493 229.613 94.714 234.072L106.375 235.236L115.295 238.617L132.375 238.437C132.223 236.074 132.831 234.28 128.994 230.659Z" fill="#DB9889"/>
<path d="M130.215 179.54C131.552 175.263 133.349 168.921 133.989 166.439C136.302 157.046 140.504 139.667 118.887 131.5C97.7891 123.962 72.6736 121.54 72.6736 121.54L51.9119 120.133L32.6998 121.54C28.0418 135.239 18.8492 166.14 48.6513 166.14C51.5444 166.14 54.3456 166.14 57.0548 166.14C82.2622 166.14 99.1897 166.168 99.1897 166.168C99.1897 166.168 98.1567 168.83 96.8448 173.438C96.3283 175.203 95.7801 177.237 95.2034 179.54C93.4986 186.331 92.3104 193.212 91.6417 200.151L123.304 200.179C125.433 193.778 128.114 186.032 130.215 179.54Z" fill="#414860"/>
<path d="M134.565 235.268C134.597 235.268 134.628 235.236 134.597 235.208C133.348 233.234 131.675 231.438 129.786 230.062C126.681 227.761 124.428 225.607 122.844 223.57H122.815C118.797 226.114 116.025 230.482 115.324 235.358C115.324 235.417 115.356 235.476 115.416 235.476L125.556 236.675L134.565 235.268Z" fill="#F4BE53"/>
<path d="M93.7096 235.237H106.343C106.375 235.237 106.375 235.209 106.375 235.209C104.974 228.179 98.9158 222.764 91.5168 222.076C91.4883 222.076 91.4883 222.076 91.4883 222.107C91.9129 226.413 92.6132 230.781 93.7096 235.237C93.6779 235.237 93.6779 235.237 93.7096 235.237Z" fill="#F4BE53"/>
<path opacity="0.2" d="M96.9083 173.407L109.51 166.227C109.542 166.199 109.542 166.168 109.482 166.168H99.1898C99.1898 166.168 99.1613 166.168 99.1613 166.199C99.0377 166.498 98.1568 168.892 96.8164 173.379C96.8449 173.379 96.8766 173.407 96.9083 173.407Z" fill="#414860"/>
<path d="M136.637 241.04C136.576 240.174 136.301 238.02 134.628 235.208C133.379 233.203 131.703 231.438 129.786 230.034C120.958 223.483 118.917 218.309 119.861 212.175C120.105 210.65 120.926 207.748 122.022 204.189C122.418 202.931 122.875 201.555 123.303 200.151C125.403 193.719 128.049 186 130.15 179.54C131.491 175.262 133.287 168.92 133.927 166.439C134.352 164.792 134.808 162.877 135.144 160.844" stroke="#414860" stroke-linecap="round" stroke-linejoin="round"/>
<path d="M109.51 166.228L99.1895 166.168" stroke="#414860" stroke-linecap="round" stroke-linejoin="round"/>
<path d="M40.9799 32.458C40.2511 37.5111 39.5508 61.5625 39.5508 61.5625L59.7959 61.083L61.0127 58.1221V56.4782C63.3576 57.5835 69.6 58.421 72.4297 55.401C75.2309 52.4401 74.9869 49.0589 74.4704 45.74C74.4387 45.6186 74.4989 45.4691 74.6225 45.41C75.2626 45.0208 77.3001 43.6758 77.2716 42.4771C77.2399 41.3998 75.0788 40.5032 74.5306 40.2946C74.4704 40.2634 74.4102 40.2043 74.4102 40.114C74.4387 37.3928 74.4102 34.6125 74.1345 32.2183C73.9507 30.4841 73.618 28.9585 73.0698 27.7598C70.633 22.6756 65.7025 20.4308 57.451 19.5933C47.9828 18.5783 41.4996 28.0307 40.9799 32.458Z" fill="#DB9889"/>
<path d="M142.328 78.1339C143.973 76.2191 141.964 75.1107 141.78 74.9924V74.9613C143.12 71.7015 139.711 71.8229 139.438 71.8509C139.438 71.8509 139.407 71.8509 139.407 71.8229C138.83 68.8309 128.874 72.4207 128.142 72.6885C128.113 72.6885 128.113 72.6885 128.113 72.6604C128.173 72.2713 128.569 69.5781 127.229 69.5781C125.768 69.5781 122.023 72.1498 116.208 76.9975C113.559 79.2391 104.151 87.8852 103.818 88.1841C103.818 88.1841 103.818 88.1841 103.818 88.2152L103.847 89.9774L116.94 101.345L118.369 101.494C118.369 101.494 118.401 101.494 118.401 101.466L120.134 97.7268C120.198 97.6054 120.286 97.5462 120.41 97.5182C127.349 96.4409 129.27 89.9183 133.836 88.2744C138.494 86.5682 142.268 85.164 142.268 83.4267C142.268 82.0226 136.881 82.5892 134.809 82.8601C134.688 82.8881 134.628 82.7106 134.749 82.6515C136.453 81.8731 140.959 79.7186 142.328 78.1339Z" fill="#DB9889"/>
<path d="M52.4277 41.5215L54.4684 42.9872" stroke="#905D51" stroke-linecap="round" stroke-linejoin="round"/>
<path d="M67.5273 45.1387C67.9234 45.8886 68.7156 46.3368 69.568 46.2776" stroke="#905D51" stroke-linecap="round" stroke-linejoin="round"/>
<path d="M61.011 56.4769C59.8861 55.7888 58.6979 55.0416 57.6934 54.3535" stroke="#905D51" stroke-linecap="round" stroke-linejoin="round"/>
<path opacity="0.25" d="M61.0115 61.084V56.4792C60.1305 56.09 59.0342 55.2525 57.6938 54.3558C57.5734 54.2655 57.4181 54.415 57.4815 54.5333L61.0115 61.084Z" fill="#905D51"/>
<path d="M125.068 74.0059L128.082 72.7207" stroke="#905D51" stroke-linecap="round" stroke-linejoin="round"/>
<path d="M139.406 71.8535C133.011 73.5597 128.537 75.1444 128.537 75.1444" stroke="#905D51" stroke-linecap="round" stroke-linejoin="round"/>
<path d="M141.752 74.9922C136.818 76.1286 131.127 78.252 131.127 78.252" stroke="#905D51" stroke-linecap="round" stroke-linejoin="round"/>
<path d="M69.02 39.9957C69.5239 39.9957 69.9326 39.594 69.9326 39.099C69.9326 38.604 69.5239 38.1992 69.02 38.1992C68.5162 38.1992 68.1074 38.604 68.1074 39.099C68.1074 39.594 68.5162 39.9957 69.02 39.9957Z" fill="#0B0C0C"/>
<path d="M94.1672 97.2186C93.7109 96.2316 84.8194 76.0129 79.8286 69.5494C74.166 62.2515 62.2927 61.8623 61.1361 61.8343C61.0728 61.8343 61.0442 61.8031 61.0442 61.744V58.123H39.3383L39.4904 63.1201C39.4904 63.1201 25.2405 71.3147 28.5899 93.4513C31.6953 114.09 32.7315 121.541 32.7315 121.541H72.7052L73.8618 110.74C73.8618 110.712 73.922 110.712 73.922 110.74C74.5906 112.116 82.3256 127.463 94.5949 126.775C103.635 126.236 108.962 117.92 113.652 109.812L106.101 99.644L97 94.6189C95.3555 96.0822 94.351 97.0411 94.1672 97.2186Z" fill="#CA3F94"/>
<path opacity="0.25" d="M72.673 121.539L73.8296 110.62L65.8539 95.9311C65.762 95.7537 65.4895 95.8128 65.4895 96.0214L64.6973 121.567L72.673 121.539Z" fill="#090506"/>
<path d="M103.819 88.2168C102.327 89.5618 100.926 90.9068 99.6776 92.1055C98.6414 93.0613 97.8207 93.8677 97 94.618L113.652 109.812C115.692 106.673 117.213 103.8 118.37 101.558V101.527L103.819 88.2168Z" fill="#414860"/>
<path d="M94.166 97.2168L95.6585 100.598" stroke="#090506" stroke-linecap="round" stroke-linejoin="round"/>
<path d="M73.8293 110.621C70.0553 104.039 65.8535 95.9316 65.8535 95.9316" stroke="#090506" stroke-linecap="round" stroke-linejoin="round"/>
<path d="M63.9649 62.0706C63.2963 61.9212 61.1035 61.834 61.1035 61.834" stroke="#090506" stroke-linecap="round" stroke-linejoin="round"/>
<path opacity="0.25" d="M99.5248 92.1912C97.82 93.7791 94.3788 97.0077 94.1348 97.2474V97.2786L95.6589 100.598C95.6589 100.629 95.6875 100.629 95.7191 100.598L99.585 92.2224C99.585 92.1912 99.5565 92.1632 99.5248 92.1912Z" fill="#090506"/>
<path d="M73.0692 27.5819C70.6324 22.4946 65.6702 19.3842 57.4188 18.5187C47.9506 17.5317 40.4026 23.3632 39.2745 32.4576C38.9703 34.4907 38.9101 39.5469 38.9703 44.8709C38.9703 45.0203 38.8499 45.1698 38.6661 45.1386C36.1089 44.9612 18.0851 44.3914 17.6003 62.7296C17.6003 62.8791 17.4767 63.0285 17.3246 63.0565C15.4994 63.3274 5.23897 65.3013 1.40161 76.3385C0.916792 77.7738 0.549221 79.1811 0.336915 80.5261C-0.515479 85.6134 0.397122 90.2182 2.37759 93.9575C5.42276 99.7329 10.9934 103.5 16.4722 104.008C16.5039 104.008 16.5039 104.008 16.5324 104.008C36.7173 105.804 37.9975 84.8942 38.026 84.1781C38.026 84.1781 38.026 84.147 38.0577 84.147C47.678 81.6625 52.1523 76.4599 53.949 70.8339C56.5664 62.6082 53.4927 53.5169 52.3678 50.6152C52.1523 50.0454 51.8196 49.5379 51.3918 49.1176C49.7187 47.3834 45.1209 42.0594 48.2262 37.6633C52.0636 32.277 59.3073 38.8277 59.583 39.0986C59.583 39.0986 59.583 39.0986 59.6115 39.0986C59.7636 39.0363 61.104 38.5008 61.592 34.3412C61.592 34.3101 61.6205 34.3101 61.6522 34.3101C66.7349 36.7946 66.6747 32.0964 66.6747 31.5889C66.6747 31.5609 66.7064 31.5609 66.7064 31.5609C70.6325 33.952 73.9216 32.3081 74.1339 32.1867C74.1339 32.1867 74.1339 32.1867 74.1339 32.1587C74.042 30.4214 73.6459 28.7775 73.0692 27.5819Z" fill="#7E1B30"/>
<path opacity="0.25" d="M32.1509 76.3381C31.7263 76.967 20.2459 94.6452 3.4737 83.3683C2.37731 82.5899 1.24923 81.6341 0.368321 80.5568C0.336634 80.5257 0.304952 80.5568 0.304952 80.5568C-0.515754 85.6411 0.36833 90.1898 2.37732 93.9291C5.451 99.6702 11.0534 103.469 16.5321 103.979C24.4191 104.695 29.4099 101.943 32.5787 98.2661C37.5409 92.5218 38.0258 84.5638 38.0258 84.1466C38.0258 84.1466 38.0257 84.1155 38.0574 84.1155C47.5257 81.6621 52.0633 76.609 53.8885 70.9238C53.8885 70.8958 53.8568 70.8647 53.8283 70.8958C49.4744 75.7714 42.7472 79.0001 32.1509 76.3381Z" fill="#0D0D0D"/>
<path d="M38.9414 41.1621V44.9605" stroke="#0D0D0D" stroke-linecap="round" stroke-linejoin="round"/>
<path d="M42.7753 82.5312C40.7664 83.3372 39.426 83.7573 38.0254 84.1774" stroke="#090506" stroke-linecap="round" stroke-linejoin="round"/>
<path d="M41.8633 134.582H57.1462C57.4187 134.582 57.6627 134.819 57.6025 135.118C57.1779 137.571 54.9851 147.774 47.19 147.774C39.2143 147.774 40.9793 137.063 41.407 134.94C41.4673 134.731 41.651 134.582 41.8633 134.582Z" fill="#414860"/>
<path d="M32.668 121.6H72.6417" stroke="#090506" stroke-linecap="round" stroke-linejoin="round"/>
<path d="M39.0936 24.7706C46.0521 24.7706 51.6957 19.2224 51.6957 12.3853C51.6957 5.54816 46.0521 0 39.0936 0C32.1287 0 26.4883 5.54816 26.4883 12.3853C26.4883 19.2224 32.1287 24.7706 39.0936 24.7706Z" fill="#7E1B30"/>
<path d="M93.6777 235.268C94.1974 237.363 94.7741 239.515 95.4142 241.61L95.4459 241.641H136.576C136.605 241.641 136.605 241.641 136.605 241.61C136.605 241.311 136.576 238.559 134.596 235.237L134.564 235.209H93.7094C93.7094 235.237 93.6777 235.268 93.6777 235.268Z" fill="#120C0E"/>
<path d="M49.3509 19.5664C47.7697 21.7489 45.485 23.3959 42.8359 24.2023" stroke="#0D0D0D" stroke-linecap="round" stroke-linejoin="round"/>
<path d="M44.4195 134.033H34.834V168.789H44.4195V134.033Z" fill="#826D9C"/>
<path d="M50.7019 179.51H41.1133V214.265H50.7019V179.51Z" fill="#826D9C"/>
<path opacity="0.3" d="M50.7019 190.88L41.1133 187.957V179.51H50.7019V190.88Z" fill="#18151A"/>
<path opacity="0.3" d="M44.4195 145.4L34.834 142.477V134.033H44.4195V145.4Z" fill="#18151A"/>
<path d="M39.7586 211.018H52.0565C54.2398 211.018 55.9921 212.739 55.9921 214.884V220.112H35.8262V214.884C35.8262 212.739 37.5785 211.018 39.7586 211.018Z" fill="#826D9C"/>
<path d="M52.0565 184.059H39.7586C37.5785 184.059 35.8262 182.337 35.8262 180.192V172.885H55.9921V174.314V180.192C55.9921 182.337 54.2398 184.059 52.0565 184.059Z" fill="#826D9C"/>
<path d="M22.9318 105.773H56.3209C65.4469 105.773 72.8522 113.05 72.8522 122.016C72.8522 130.98 65.4469 138.256 56.3209 138.256H22.9318C13.8058 138.256 6.40039 130.98 6.40039 122.016C6.40039 113.05 13.8058 105.773 22.9318 105.773Z" fill="#826D9C"/>
<path d="M68.0579 165.541H95.1666C97.8125 165.541 99.9609 167.652 99.9609 170.252C99.9609 172.848 97.8125 174.959 95.1666 174.959H68.0579C65.412 174.959 58.9668 172.848 58.9668 170.252C58.9668 167.652 65.412 165.541 68.0579 165.541Z" fill="#826D9C"/>
<path d="M17.8086 228.689V223.816C17.8086 221.768 19.4944 220.111 21.5762 220.111H70.2071C72.2889 220.111 73.9747 221.768 73.9747 223.816V228.689" stroke="#826D9C" stroke-linecap="round" stroke-linejoin="round"/>
<path d="M45.9082 228.558V216.475" stroke="#826D9C" stroke-linecap="round" stroke-linejoin="round"/>
<path d="M45.9079 242.006C50.379 242.006 54.0073 238.444 54.0073 234.048C54.0073 229.652 50.379 226.09 45.9079 226.09C41.4336 226.09 37.8086 229.652 37.8086 234.048C37.8086 238.444 41.4336 242.006 45.9079 242.006Z" fill="#1F2123"/>
<path d="M17.8083 242.006C22.2794 242.006 25.9076 238.444 25.9076 234.048C25.9076 229.652 22.2794 226.09 17.8083 226.09C13.334 226.09 9.70898 229.652 9.70898 234.048C9.70898 238.444 13.334 242.006 17.8083 242.006Z" fill="#1F2123"/>
<path d="M17.8071 235.704C18.8116 235.704 19.626 234.904 19.626 233.917C19.626 232.93 18.8116 232.133 17.8071 232.133C16.8026 232.133 15.9883 232.93 15.9883 233.917C15.9883 234.904 16.8026 235.704 17.8071 235.704Z" fill="#826D9C"/>
<path d="M45.9087 235.704C46.9132 235.704 47.7276 234.904 47.7276 233.917C47.7276 232.93 46.9132 232.133 45.9087 232.133C44.9042 232.133 44.0898 232.93 44.0898 233.917C44.0898 234.904 44.9042 235.704 45.9087 235.704Z" fill="#826D9C"/>
<path d="M74.0095 242.006C78.4838 242.006 82.1088 238.444 82.1088 234.048C82.1088 229.652 78.4838 226.09 74.0095 226.09C69.5352 226.09 65.9102 229.652 65.9102 234.048C65.9102 238.444 69.5352 242.006 74.0095 242.006Z" fill="#1F2123"/>
<path d="M34.834 138.256H44.4195" stroke="#18151A" stroke-linecap="round" stroke-linejoin="round"/>
<path d="M26.2363 122.016H53.0154" stroke="black" stroke-linecap="round" stroke-linejoin="round"/>
<path d="M74.0083 235.704C75.0128 235.704 75.8272 234.904 75.8272 233.917C75.8272 232.93 75.0128 232.133 74.0083 232.133C73.0038 232.133 72.1895 232.93 72.1895 233.917C72.1895 234.904 73.0038 235.704 74.0083 235.704Z" fill="#826D9C"/>
<path d="M11.1947 165.541H68.0579C70.7038 165.541 72.8522 167.652 72.8522 170.252C72.8522 172.848 70.7038 174.959 68.0579 174.959H11.1947C8.55197 174.959 6.40039 172.848 6.40039 170.252C6.40039 167.652 8.55197 165.541 11.1947 165.541Z" fill="#826D9C"/>
<path d="M35.8262 174.961H55.9921" stroke="#18151A" stroke-linecap="round" stroke-linejoin="round"/>
<path d="M34.834 165.541H44.4195" stroke="#18151A" stroke-linecap="round" stroke-linejoin="round"/>
<path d="M118.467 36.9616C128.772 36.9616 137.125 28.7546 137.125 18.6296C137.125 8.50782 128.772 0.300781 118.467 0.300781C108.165 0.300781 99.8125 8.50782 99.8125 18.6296C99.8125 28.7546 108.165 36.9616 118.467 36.9616Z" fill="#03827A"/>
<path d="M118.118 8.64062H118.09C116.103 8.69044 112.342 9.98563 112.342 14.5531C112.342 15.4155 113.052 16.1098 113.929 16.1098C114.807 16.1098 115.514 15.4155 115.514 14.5531C115.514 12.0623 117.52 11.7883 118.15 11.7572C120.175 11.7696 121.43 12.8375 121.43 14.5717C121.43 15.8451 120.891 16.3059 119.475 17.1995C118.21 17.9934 116.293 19.2077 116.382 21.9537V22.402C116.382 23.2645 117.092 23.9619 117.97 23.9619C118.838 23.9619 119.557 23.2769 119.576 22.4145V21.8634C119.544 20.9512 119.944 20.618 121.202 19.8241L121.221 19.8148C122.567 18.9617 124.605 17.6603 124.605 14.5717C124.605 11.0816 121.94 8.64062 118.118 8.64062Z" fill="#EFEFEF"/>
<path d="M118.068 25.6504C117.102 25.6504 116.312 26.4225 116.312 27.3752C116.312 28.3248 117.102 29.1001 118.068 29.1001C119.047 29.0907 119.836 28.3248 119.827 27.3752C119.827 26.4225 119.038 25.6504 118.068 25.6504Z" fill="#EFEFEF"/>
</svg>
