<svg width="266" height="284" viewBox="0 0 266 284" fill="none" xmlns="http://www.w3.org/2000/svg">
<path d="M186.568 181.137L200.46 207.227L205.322 204.892L226.855 196.521L246.581 185.2L256.586 180.4L245.886 156.401C237.693 138.063 219.491 124.647 197.544 121.081L180.454 118.127L174.621 117.634L169.483 116.159L152.118 114.928L128.639 109.268L123.639 108.897L118.496 107.544L57.6502 97.3271L55.5663 118.127L57.5122 139.664L57.6502 158.985L90.4351 164.523L89.7404 167.97L129.471 202.059L186.568 181.137Z" fill="#FFC000"/>
<path d="M186.568 181.137L187.125 156.771C187.125 156.156 186.292 155.907 185.874 156.4L171.706 174.983L183.514 186.43L186.568 181.137Z" fill="black"/>
<path d="M73.2082 232.212C78.6271 215.719 83.2135 198.983 86.8245 182.124L89.7409 168.093C102.663 170.061 105.993 165.261 106.688 162.926L118.496 107.544L128.639 109.268L117.801 159.107C117.801 159.107 113.634 176.463 135.305 180.029C154.897 183.354 156.981 175.106 159.064 165.261L169.484 116.159L180.455 118.127L170.454 164.645C167.4 179.047 186.568 181.138 186.568 181.138C186.012 186.924 184.765 205.136 188.238 232.212H73.2082Z" fill="#007D38"/>
<path d="M152.951 239.103C163.927 238.736 163.646 252.274 163.646 252.274L215.88 233.32L206.294 207.226L205.323 204.891L246.581 185.2L251.586 198.489L264.365 233.32C265.06 235.288 265.479 237.505 265.479 239.718C265.479 248.948 258.532 256.826 248.946 259.287L169.203 279.1C169.203 279.1 143.921 286.607 130.167 283.037C128.359 282.548 126.556 281.684 125.028 280.702C122.945 279.345 121.555 277.377 120.861 275.164C120.304 272.947 120.58 270.608 121.831 268.517C119.885 267.164 118.634 265.07 118.496 262.857C118.358 260.518 119.609 258.178 121.693 256.703C118.22 252.147 119.609 245.627 123.496 241.319C127.388 237.012 134.058 235.288 140.167 235.904C146.837 236.519 145.724 241.564 145.724 241.564C145.724 241.564 147.808 239.351 152.951 239.103Z" fill="#E9B798"/>
<path d="M127.25 117.756L143.364 139.171L166.705 124.647" stroke="black" stroke-linecap="round" stroke-linejoin="round"/>
<path d="M169.484 116.159L145.173 130.556L134.059 116.281L128.64 109.268L150.73 113.082L169.484 116.159Z" fill="#E9B798"/>
<path d="M128.639 109.268C131.693 109.634 150.729 112.833 150.729 113.082C147.807 115.543 143.782 117.018 139.472 117.018C137.945 117.018 135.447 116.648 134.058 116.281C131.555 113.204 130.028 111.236 128.639 109.268Z" fill="black"/>
<path d="M206.293 207.226L251.586 198.489L246.581 185.2C246.581 185.2 231.161 192.214 226.023 194.553C220.742 197.014 205.323 204.891 205.323 204.891L206.293 207.226Z" fill="black"/>
<path d="M111.273 189.26L117.801 159.107" stroke="black" stroke-linecap="round" stroke-linejoin="round"/>
<path d="M101.687 187.784L106.688 162.926" stroke="black" stroke-linecap="round" stroke-linejoin="round"/>
<path d="M103.909 186.675L111.412 187.906C116.831 188.765 120.442 193.444 119.471 198.244L118.915 200.95C117.939 205.751 112.663 208.95 107.244 208.09L99.7413 206.859C94.3272 205.995 90.7114 201.321 91.6867 196.52L92.2433 193.815C93.3518 189.014 98.4948 185.815 103.909 186.675ZM97.1056 197.258C96.6869 199.475 98.3521 201.566 100.855 202.059L108.357 203.289C110.855 203.66 113.22 202.181 113.772 199.968L114.328 197.258C114.747 195.045 113.077 192.951 110.579 192.457L103.076 191.227C100.579 190.86 98.2141 192.335 97.6575 194.552L97.1056 197.258Z" fill="#000100"/>
<path d="M153.508 195.413L161.006 196.643C166.425 197.507 170.036 202.181 169.065 206.982L168.508 209.688C167.538 214.488 162.257 217.687 156.838 216.828L149.34 215.597C143.921 214.737 140.31 210.059 141.28 205.258L141.837 202.552C142.946 197.63 148.089 194.431 153.508 195.413ZM146.561 205.996C146.143 208.213 147.808 210.303 150.31 210.796L157.813 212.027C160.311 212.398 162.675 210.919 163.232 208.706L163.784 205.996C164.203 203.783 162.538 201.688 160.035 201.199L152.532 199.969C150.034 199.598 147.67 201.073 147.113 203.29L146.561 205.996Z" fill="#000100"/>
<path d="M163.37 197.38L170.316 165.753" stroke="black" stroke-linecap="round" stroke-linejoin="round"/>
<path d="M73.7657 161.695C74.0417 158.492 76.2683 155.542 79.3227 154.185C81.5445 153.202 84.323 152.832 85.7122 150.986C86.5448 149.755 86.6875 148.28 86.9634 146.927C87.3821 144.588 88.2147 142.248 89.7419 140.402C91.2691 138.556 93.9096 137.326 96.4121 137.448L90.4365 164.646L73.7657 161.695Z" fill="black"/>
<path d="M0.969147 106.68L32.0888 34.3168C28.6157 34.0724 25.6993 31.4845 25.6993 28.2855C25.6993 25.9463 27.2265 23.978 29.3104 22.996C28.3398 23.4849 27.3645 23.7336 26.1132 23.7336C22.5022 23.7336 19.5858 21.15 19.5858 17.9468C19.5858 14.7478 22.2263 13.2726 23.3396 12.6572C22.7829 12.7795 21.6696 13.1504 21.113 13.1504C17.5019 13.1504 14.5855 10.5625 14.5855 7.36353C14.5855 4.16454 17.5019 1.5809 21.113 1.5809C24.724 1.5809 27.6452 4.16454 27.6452 7.36353C27.6452 7.48576 27.6452 7.6122 27.6452 7.73443C39.1729 12.7795 55.9817 13.7657 55.9817 13.7657C56.1244 13.6393 55.9817 13.3948 55.8437 13.2726C44.5919 8.34978 49.8729 -1.74452 55.7057 1.70313L69.3221 10.1958C77.5147 14.1324 74.1844 21.8875 69.3221 26.195L60.844 35.1766C60.2921 35.792 59.8734 36.5295 59.7354 37.2713L45.2865 95.1145C47.927 95.9743 55.0111 96.9605 57.6516 97.3272L57.5136 139.664L40.9809 136.832L19.0291 133.14C4.58494 130.678 -2.77987 118.005 0.969147 106.68Z" fill="#E9B798"/>
<path d="M45.0098 94.8659L30.2801 92.2822" stroke="black" stroke-linecap="round" stroke-linejoin="round"/>
<path d="M132.945 84.6538L135.305 85.2692C138.226 79.8532 143.502 76.5278 149.34 75.1749C158.784 72.9622 167.538 76.5278 172.538 85.1428C180.179 96.8344 173.651 110.743 160.173 113.571C157.395 114.187 154.478 114.187 151.424 113.698C139.615 112.218 130.305 100.897 133.083 90.4365L130.861 89.9433C127.112 88.5904 129.334 83.7898 132.945 84.6538Z" fill="#E9B798"/>
<path d="M149.478 75.5451C149.34 75.2965 149.478 75.052 149.754 75.052C156.286 73.4504 163.089 74.6811 168.37 78.0066C168.508 78.1288 168.646 78.0066 168.508 77.8843C164.759 69.5139 172.262 59.6682 182.539 59.9127C190.874 59.9127 197.544 65.8217 197.544 73.206C197.82 82.8071 185.736 89.2051 176.287 85.3908C176.011 85.2686 175.592 85.513 175.735 85.8839C181.011 96.5893 173.927 111.358 160.311 113.571C160.173 113.571 160.035 113.571 160.035 113.448C156.424 110.987 154.202 106.064 155.311 101.883C155.311 101.634 155.591 101.512 155.867 101.634C156.981 102.005 158.227 102.372 159.478 102.372C171.981 102.128 171.981 85.8839 159.478 85.6352C158.37 85.6352 157.257 85.8839 156.286 86.1284C156.143 86.2506 155.867 86.1284 155.729 85.8839C155.173 84.2823 154.754 82.6807 155.173 81.0833C155.173 80.9611 155.173 80.8346 155.035 80.7124C152.532 79.6039 150.586 77.8843 149.478 75.5451Z" fill="black"/>
<path d="M143.088 85.7579C142.018 85.7579 141.142 84.9824 141.142 84.0383C141.142 83.09 142.018 82.3145 143.088 82.3145C144.154 82.3145 145.029 83.09 145.029 84.0383C145.029 84.9824 144.154 85.7579 143.088 85.7579Z" fill="black"/>
<path d="M139.615 93.7568L132.945 94.0047" stroke="black" stroke-linecap="round" stroke-linejoin="round"/>
<path d="M152.393 195.29L158.645 167.106" stroke="black" stroke-linecap="round" stroke-linejoin="round"/>
<path d="M40.8416 136.832L53.4827 96.7119L57.6504 97.3273C57.9263 97.4495 58.207 139.416 57.5124 139.787L40.8416 136.832Z" fill="black"/>
<path d="M120.862 255.351C122.389 257.812 124.335 258.672 126.556 259.532C128.778 260.518 131.281 261.133 133.641 261.504" stroke="black" stroke-linecap="round" stroke-linejoin="round"/>
<path d="M120.442 267.287C122.526 269.378 124.334 269.993 126.694 270.731C129.054 271.472 131.556 271.717 134.059 271.961" stroke="black" stroke-linecap="round" stroke-linejoin="round"/>
<path d="M153.088 239.103C153.088 239.103 141.974 238.488 143.782 249.442" stroke="black" stroke-linecap="round" stroke-linejoin="round"/>
<path d="M140.166 235.903C140.166 235.903 146.142 235.903 145.723 241.564" stroke="black" stroke-linecap="round" stroke-linejoin="round"/>
<path d="M147.113 249.812C147.113 249.812 141.837 251.781 133.083 247.84C132.25 247.473 131.694 246.609 131.832 245.872C131.974 244.89 132.526 243.532 133.778 242.302" stroke="black" stroke-linecap="round" stroke-linejoin="round"/>
<path d="M55.9805 13.3951C44.5907 8.47229 49.729 -1.74424 55.7045 1.70342" stroke="black" stroke-linecap="round" stroke-linejoin="round"/>
<path d="M38.4778 31.4842C39.1724 30.5022 39.4531 29.5159 39.4531 28.2852C39.4531 24.964 36.394 22.2539 32.645 22.2539C31.6696 22.2539 30.837 22.3803 30.0044 22.747" stroke="black" stroke-linecap="round" stroke-linejoin="round"/>
<path d="M23.8908 12.4087C25.9746 11.4267 27.6445 9.45841 27.6445 7.24145C27.6445 4.04246 24.5854 1.58105 20.9743 1.58105" stroke="black" stroke-linecap="round" stroke-linejoin="round"/>
<path d="M29.8661 22.6252C31.5313 21.639 32.6445 19.7929 32.6445 17.8246C32.6445 14.6256 29.7281 12.042 26.1123 12.042C25.4177 12.042 24.7231 12.1642 24.0332 12.2864" stroke="black" stroke-linecap="round" stroke-linejoin="round"/>
</svg>
