<svg width="208" height="202" viewBox="0 0 208 202" fill="none" xmlns="http://www.w3.org/2000/svg">
<mask id="mask0_5127_1354" style="mask-type:alpha" maskUnits="userSpaceOnUse" x="17" y="15" width="191" height="187">
<path d="M112.246 201.793C164.857 201.793 207.492 159.982 207.492 108.405C207.492 56.8106 164.857 15 112.246 15C59.6518 15 17 56.8106 17 108.405C17 159.982 59.6518 201.793 112.246 201.793Z" fill="#D2CFC1"/>
</mask>
<g mask="url(#mask0_5127_1354)">
<path d="M301 -15.4004H-135V253.303H301V-15.4004Z" fill="#F3F3F3"/>
<path d="M168.152 84.2701L166.59 131.895L232.134 124.696V131.128L164.679 138.54L147.998 154.812L174.452 186.29L232.134 164.141V171.042L178.796 191.487L187.135 201.369H178.708L143.351 159.328L115.593 186.332L142.657 201.369H129.45L10 134.876V127.549L109.687 183.054L159.986 134.108L161.551 85.8884L10 123.459V116.858L40.4061 109.317L33.4568 58.9674L10 54.666V48.1901L35.1494 52.7919L62.2552 22.8457H70.9852L60.2987 34.6463L101.564 61.2668L98.0031 66.5915L55.9125 39.501L39.7964 57.3075L46.7458 107.74L196.517 70.6401L191.129 22.8457H197.691L202.902 69.0635L232.134 61.8231V68.424L168.152 84.2701Z" fill="#FFC930"/>
<path d="M85.4947 165.801L66.7305 155.535C68.1622 153.236 69.6394 151.02 71.0287 148.89C79.2824 136.494 84.7545 128.317 78.3269 112.982C77.9356 112.045 77.5443 111.063 77.1985 110.126L98.177 104.93C98.177 104.974 98.177 104.974 98.2195 105.016C108.863 130.616 97.8737 147.144 89.0133 160.434C87.797 162.267 86.6231 164.013 85.4947 165.801Z" fill="#61CCFF"/>
<path d="M154.426 50.0225C144.131 59.7349 130.885 64.6758 119.2 69.0635C107.731 73.3649 97.8728 77.0714 95.0912 83.3331C94.0053 85.7605 93.8324 88.9553 94.4845 92.8313L73.6334 97.9865C71.8983 89.1695 72.4625 81.5453 75.417 74.9415C81.7567 60.544 96.9173 54.8772 111.556 49.3829C121.806 45.5486 132.404 41.5892 139.572 34.8159C143.091 31.4931 145.739 27.4029 147.304 22.8457C151.126 22.8873 169.587 22.8457 169.587 22.8457C167.242 33.6647 162.246 42.6542 154.426 50.0225Z" fill="#61CCFF"/>
<path d="M57.17 178.495C57.9101 174.447 59.1265 170.529 60.7766 166.736L79.7137 177.088C77.3265 183.862 76.8897 191.4 80.2779 201.368H58.0405C56.1295 193.36 55.8232 185.777 57.17 178.495Z" fill="#61CCFF"/>
<path d="M200.601 154.34C209.959 154.34 217.542 146.903 217.542 137.729C217.542 128.552 209.959 121.115 200.601 121.115C191.247 121.115 183.66 128.552 183.66 137.729C183.66 146.903 191.247 154.34 200.601 154.34Z" fill="#3C2C5B"/>
<path d="M199.602 128.356L192.608 134.449C192.174 134.832 192.131 135.513 192.523 135.939C192.738 136.153 192.999 136.281 193.348 136.281H208.244C208.854 136.281 209.33 135.811 209.33 135.216C209.33 134.916 209.203 134.618 208.985 134.407L201.905 128.356C201.253 127.803 200.255 127.803 199.602 128.356Z" fill="#F3F3F3"/>
<path d="M192.215 144.243V143.392C192.215 142.967 192.564 142.625 192.997 142.625H208.504C208.941 142.625 209.286 142.967 209.286 143.392V144.243C209.286 144.672 208.941 145.011 208.504 145.011H192.997C192.564 145.011 192.215 144.672 192.215 144.243Z" fill="#F3F3F3"/>
<path d="M204.509 134.959H203.945H194.387V143.478H203.945H204.509H207.115V134.959H204.509Z" fill="#F3F3F3"/>
<path d="M137.66 105.101C147.018 105.101 154.601 97.6646 154.601 88.4906C154.601 79.3137 147.018 71.877 137.66 71.877C128.305 71.877 120.719 79.3137 120.719 88.4906C120.719 97.6646 128.305 105.101 137.66 105.101Z" fill="#3C2C5B"/>
<path d="M136.661 79.1181L129.666 85.2103C129.232 85.594 129.19 86.2752 129.581 86.7006C129.797 86.9148 130.057 87.0427 130.406 87.0427H145.303C145.913 87.0427 146.389 86.5727 146.389 85.9777C146.389 85.6773 146.262 85.3798 146.043 85.1686L138.963 79.1181C138.311 78.5648 137.313 78.5648 136.661 79.1181Z" fill="#F3F3F3"/>
<path d="M129.273 95.005V94.1542C129.273 93.7288 129.622 93.3867 130.056 93.3867H145.562C145.999 93.3867 146.345 93.7288 146.345 94.1542V95.005C146.345 95.4333 145.999 95.7724 145.562 95.7724H130.056C129.622 95.7724 129.273 95.4333 129.273 95.005Z" fill="#F3F3F3"/>
<path d="M141.568 85.7207H141.003H131.445V94.2402H141.003H141.568H144.173V85.7207H141.568Z" fill="#F3F3F3"/>
<path d="M39.6599 161.984C49.0177 161.984 56.6011 154.547 56.6011 145.373C56.6011 136.197 49.0177 128.76 39.6599 128.76C30.3051 128.76 22.7188 136.197 22.7188 145.373C22.7188 154.547 30.3051 161.984 39.6599 161.984Z" fill="#3C2C5B"/>
<path d="M38.6611 136.001L31.6662 142.093C31.2324 142.477 31.19 143.158 31.5813 143.583C31.7966 143.798 32.0575 143.925 32.4063 143.925H47.3031C47.9128 143.925 48.389 143.455 48.389 142.861C48.389 142.56 48.2616 142.263 48.0432 142.051L40.9634 136.001C40.3112 135.448 39.3132 135.448 38.6611 136.001Z" fill="#F3F3F3"/>
<path d="M31.2734 151.888V151.037C31.2734 150.612 31.6223 150.27 32.0561 150.27H47.5625C47.9993 150.27 48.345 150.612 48.345 151.037V151.888C48.345 152.316 47.9993 152.655 47.5625 152.655H32.0561C31.6223 152.655 31.2734 152.316 31.2734 151.888Z" fill="#F3F3F3"/>
<path d="M43.5675 142.604H43.0033H33.4453V151.123H43.0033H43.5675H46.1732V142.604H43.5675Z" fill="#F3F3F3"/>
</g>
<path d="M6 79.4342L6.27273 79.7486L34.648 47.0354H34.9208L63.5688 80.063H64.1143V3H6V79.4342Z" fill="#D2CFC1"/>
<path d="M6 79.4342L6.27273 79.7486L34.648 47.0354H34.9208L63.5688 80.063H64.1143V3H6V79.4342Z" fill="#D2CFC1"/>
<path d="M0 76.4342L0.272725 76.7486L28.648 44.0354H28.9208L57.5688 77.063H58.1143V0H0V76.4342Z" fill="#CA3F94"/>
<path d="M0 76.4342L0.272725 76.7486L28.648 44.0354H28.9208L57.5688 77.063H58.1143V0H0V76.4342Z" fill="#CA3F94"/>
</svg>
