<svg width="363" height="284" viewBox="0 0 363 284" fill="none" xmlns="http://www.w3.org/2000/svg">
<path d="M311.386 230H51.2129L0 283.574H362.599L311.386 230Z" fill="#EFDCD7"/>
<path d="M300.018 243.6H62.6364L42.7656 269.98H319.863L300.018 243.6Z" fill="#EFDCD7"/>
<path d="M143.821 272.636C141.408 272.636 139.363 270.889 138.955 268.509L136.281 251.67H151.32L148.647 268.509C148.275 270.889 146.234 272.636 143.821 272.636Z" fill="#231F20"/>
<path d="M200.515 272.636C198.102 272.636 196.057 270.889 195.685 268.509L193.012 251.67H208.051L205.378 268.509C205.005 270.889 202.964 272.636 200.515 272.636Z" fill="#231F20"/>
<path d="M260.328 272.636C257.914 272.636 255.87 270.889 255.501 268.509L252.828 251.67H267.863L265.19 268.509C264.818 270.889 262.777 272.636 260.328 272.636Z" fill="#231F20"/>
<path opacity="0.2" d="M254.053 259.439L252.828 251.67H267.863L266.379 261.001L254.053 259.439Z" fill="black"/>
<path opacity="0.2" d="M194.24 259.439L193.012 251.67H208.051L206.566 261.001L194.24 259.439Z" fill="black"/>
<path opacity="0.2" d="M137.51 259.439L136.281 251.67H151.32L149.836 261.001L137.51 259.439Z" fill="black"/>
<path d="M123.475 253.677V213.387C123.475 199.225 134.984 187.738 149.091 187.738H169.513V127.412C169.513 119.271 176.12 112.652 184.252 112.652H266.562L260.251 253.677H123.475Z" fill="#61CCFF"/>
<path d="M200.326 253.677V213.387C200.326 199.225 211.836 187.738 225.946 187.738H251.19V127.412C251.19 119.271 257.801 112.652 265.933 112.652C274.061 112.652 280.672 119.271 280.672 127.412V253.677H200.326Z" fill="#51ACD7"/>
<path d="M169.251 187.738L250.93 187.662" stroke="#343434" stroke-linecap="round" stroke-linejoin="round"/>
<path d="M136.651 253.717H151.242" stroke="black" stroke-linecap="round" stroke-linejoin="round"/>
<path d="M193.085 253.717H207.676" stroke="black" stroke-linecap="round" stroke-linejoin="round"/>
<path d="M252.936 253.717H267.527" stroke="black" stroke-linecap="round" stroke-linejoin="round"/>
<path d="M133.828 232.041L101.312 215.252L100.326 219.169C99.513 223.436 98.8086 226.717 98.3534 227.845L100.326 249.429H126.394L130.06 247.668C131.574 243.505 132.701 239.52 133.792 235.498L133.828 232.041Z" fill="#CA7358"/>
<path d="M183.749 247.137L184.699 244.985C184.244 240.79 183.644 236.591 182.868 232.677L181.072 227.281L144.926 227.882L145.735 232.464C146.688 235.639 147.425 239.025 147.639 241.249L157.186 259.73L183.749 247.137Z" fill="#CA7358"/>
<path d="M210.278 151.979L207.778 140.445L166.455 142.666L163.952 143.972C163.952 143.972 130.554 146.652 118.011 159.527C108.149 169.719 106.95 183.759 103.146 203.896C102.16 209.292 101.21 214.761 100.328 219.133L133.794 235.499C139.643 213.491 140.17 202.554 140.102 188.308L180.688 188.413C199.921 188.554 214.331 170.742 210.278 151.979Z" fill="#FF4F32"/>
<path opacity="0.2" d="M140.137 188.378L133.02 170.529C121.568 179.737 123.823 199.488 136.12 226.186C139.783 210.07 140.137 200.37 140.137 188.378Z" fill="#171212"/>
<path d="M227.015 158.681C224.443 147.571 220.358 140.551 220.358 140.551L197.386 141.997C197.386 141.997 149.719 147.321 135.135 164.71C123.192 178.891 139.857 213.351 145.774 232.678H182.943C179.735 215.926 174.417 201.253 168.038 188.591H198.336C221.449 188.591 230.501 174.023 227.015 158.681Z" fill="#FF4F32"/>
<path opacity="0.2" d="M161.802 177.161L167.896 188.59C167.896 188.59 202.035 188.59 192.031 188.59C178.961 188.554 166.56 175.751 161.802 177.161Z" fill="#171212"/>
<path d="M154.262 152.438C146.372 155.609 139.36 159.631 135.029 164.745C126.677 174.691 132.457 194.655 138.656 212.395" stroke="#2C2321" stroke-linecap="round" stroke-linejoin="round"/>
<path d="M145.81 232.746H182.871" stroke="#2C2321" stroke-linecap="round" stroke-linejoin="round"/>
<path d="M100.327 219.133L133.793 235.498" stroke="#2C2321" stroke-linecap="round" stroke-linejoin="round"/>
<path d="M166.486 48.1766C166.909 43.2037 166.064 34.8781 169.835 29.9775C173.57 25.0046 186.041 27.4712 195.553 31.634C204.078 35.3374 204.605 40.3465 204.605 48.2453V73.1822L203.796 84.7881L179.77 88.5277V67.3268C179.77 67.3268 172.476 69.3051 168.603 65.7066C163.564 61.0519 166.031 53.1495 166.486 48.1766Z" fill="#CA7358"/>
<path opacity="0.2" d="M186.006 65.1061L180.016 70.6432C179.911 70.7481 179.734 70.6794 179.734 70.5383V67.4352C179.734 67.3629 179.771 67.2942 179.839 67.2942C180.406 67.117 182.906 66.3394 185.796 64.824C186.006 64.7553 186.147 64.9651 186.006 65.1061Z" fill="#171717"/>
<path d="M162.298 80.9441C169.837 73.3962 178.362 71.7361 179.771 71.5625C179.771 71.5625 179.948 81.3311 189.778 81.3311C199.181 81.3311 204.679 71.5625 204.679 71.5625C210.246 73.0092 215.387 75.6168 220.004 79.002L222.258 144.185H164.024L166.315 122.984C165.328 124.431 163.529 126.478 162.298 127.816L147.147 98.2969C150.846 93.4289 157.189 86.0943 162.298 80.9441Z" fill="#FFC930"/>
<path opacity="0.2" d="M216.374 106.586L222.219 144.112H200.695L207.353 114.308C207.704 112.687 208.726 111.277 210.171 110.394L216.374 106.586Z" fill="#2B2410"/>
<path opacity="0.2" d="M167.721 109.126L166.276 122.985C166.276 123.021 166.24 123.057 166.24 123.093C165.253 124.504 164.054 125.878 162.822 127.22C161.518 128.594 159.687 130.109 157.573 131.556C157.396 131.697 157.114 131.487 157.223 131.274L167.262 109.021C167.367 108.771 167.753 108.88 167.721 109.126Z" fill="#2B2410"/>
<path d="M168.109 107.855L166.242 123.798" stroke="#3D351D" stroke-linecap="round" stroke-linejoin="round"/>
<path d="M193.863 51.7031L190.551 54.0684" stroke="#282625" stroke-linecap="round" stroke-linejoin="round"/>
<path d="M179.768 67.3282C183.221 66.1673 184.84 65.3535 184.84 65.3535" stroke="#282625" stroke-linecap="round" stroke-linejoin="round"/>
<path d="M175.895 57.0664C175.262 58.0176 174.276 58.5095 173.149 58.6505" stroke="#282625" stroke-linecap="round" stroke-linejoin="round"/>
<path d="M206.19 95.898C206.967 79.8147 219.932 79.0371 219.932 79.0371C224.65 82.4946 234.338 93.3229 241.527 105.949L213.975 118.998C210.594 111.981 205.944 101.081 206.19 95.898Z" fill="#FFC930"/>
<path d="M166.487 138.859C166.487 136.53 176.811 133.531 186.991 131.206C197.316 128.808 216.198 126.302 217.502 126.124C217.535 126.124 217.571 126.092 217.535 126.056C217.289 125.56 215.526 122.388 213.554 118.085C213.554 118.048 213.554 118.012 213.59 118.012L240.857 104.822C240.893 104.822 240.929 104.822 240.929 104.858C244.452 110.996 248.61 118.931 250.582 126.124C256.499 148.063 240.507 150.815 232.613 151.239C224.901 151.662 203.724 148.877 203.197 148.805C203.197 148.805 203.197 148.805 203.161 148.805C202.738 148.946 186.955 153.568 181.919 153.568C177.339 153.568 177.162 151.698 177.198 151.307C177.198 151.275 177.162 151.239 177.129 151.275C176.529 151.416 171.985 152.367 172.126 148.135C172.126 148.099 172.09 148.063 172.054 148.063C171.595 148.135 168.813 148.595 168.318 146.616C167.509 143.55 177.62 139.741 180.438 138.613C180.51 138.577 180.474 138.504 180.406 138.504C175.012 139.987 166.487 142.349 166.487 138.859Z" fill="#CA7358"/>
<path d="M217.536 126.092L225.43 130.005" stroke="#282625" stroke-linecap="round" stroke-linejoin="round"/>
<path d="M213.52 118.048L210.135 110.432" stroke="#3D351D" stroke-linecap="round" stroke-linejoin="round"/>
<path d="M177.197 151.201L189.703 146.934" stroke="#282625" stroke-linecap="round" stroke-linejoin="round"/>
<path d="M172.127 148.029C172.127 148.029 180.653 144.112 187.77 141.537" stroke="#282625" stroke-linecap="round" stroke-linejoin="round"/>
<path d="M180.616 138.504L185.547 136.742" stroke="#282625" stroke-linecap="round" stroke-linejoin="round"/>
<path d="M172.232 51.7031C171.986 52.3035 171.632 53.2221 171.809 53.7502C171.986 54.101 172.232 54.3505 172.586 54.4554" stroke="#282625" stroke-linecap="round" stroke-linejoin="round"/>
<path d="M177.798 50.8216C177.155 50.8216 176.634 50.3008 176.634 49.6607C176.634 49.0133 177.155 48.4961 177.798 48.4961C178.437 48.4961 178.961 49.0133 178.961 49.6607C178.961 50.3008 178.437 50.8216 177.798 50.8216Z" fill="#231F20"/>
<path d="M169.376 50.2237C168.736 50.2237 168.213 49.6992 168.213 49.0591C168.213 48.4153 168.736 47.8945 169.376 47.8945C170.019 47.8945 170.539 48.4153 170.539 49.0591C170.539 49.6992 170.019 50.2237 169.376 50.2237Z" fill="#231F20"/>
<path d="M135.273 265.163C139.149 258.707 147.675 257.083 147.707 244.106C147.707 243.401 147.707 242.587 147.638 241.814C147.566 241.459 147.566 241.177 147.534 240.826H156.128C159.159 240.826 161.518 243.506 160.99 246.573L159.65 255.004C159.65 255.004 169.093 245.691 184.699 244.985C185.053 247.81 185.263 250.595 185.44 253.521C185.512 254.58 185.544 255.745 185.617 256.801C185.721 259.485 185.898 262.447 185.898 265.231L185.512 265.973L135.027 266.255L135.273 265.268C135.237 265.195 135.273 265.163 135.273 265.163Z" fill="#FFC930"/>
<path d="M135.238 265.23H185.9C185.968 267.56 186.004 270.026 185.936 272.496H133.443C133.443 270.522 133.724 268.865 134.216 267.455C134.497 266.641 134.815 265.867 135.238 265.23Z" fill="#231F20"/>
<path d="M146.792 251.105L152.395 253.453" stroke="black" stroke-linecap="round" stroke-linejoin="round"/>
<path d="M144.259 255.68L148.84 259.202" stroke="black" stroke-linecap="round" stroke-linejoin="round"/>
<path d="M159.723 254.936L157.609 265.232" stroke="black" stroke-linecap="round" stroke-linejoin="round"/>
<path d="M76.7565 243.26C83.0639 239.202 91.4485 241.564 97.3333 229.962C97.6837 229.325 97.9654 228.62 98.3195 227.846C98.3195 227.773 98.3881 227.773 98.3881 227.773L104.482 230.703C107.654 232.218 108.677 236.204 106.704 239.061L102.337 245.376C102.337 245.376 115.37 240.931 130.062 247.669C129.109 250.171 128.123 252.71 127.068 255.285C126.645 256.273 126.186 257.332 125.764 258.389C124.705 260.895 123.542 263.434 122.31 265.937C122.205 266.15 121.924 266.714 121.887 266.783L76.6156 243.365C76.6156 243.365 76.6517 243.329 76.7565 243.26Z" fill="#FFC930"/>
<path d="M75.1359 244.598C75.6633 244.138 76.1221 243.683 76.6495 243.328L122.203 266.182C121.217 268.301 120.158 270.345 118.995 272.497L72.0002 249.042C72.9142 247.104 73.9726 245.657 75.1359 244.598Z" fill="#231F20"/>
<path d="M92.776 236.273L96.5547 240.827" stroke="black" stroke-linecap="round" stroke-linejoin="round"/>
<path d="M88.3171 239.061L90.5352 243.929" stroke="black" stroke-linecap="round" stroke-linejoin="round"/>
<path d="M102.195 245.445L96.1335 252.925" stroke="black" stroke-linecap="round" stroke-linejoin="round"/>
<path d="M226.66 157.129H215.74L217.502 167.321C218.207 171.375 221.693 174.341 225.851 174.341" stroke="#2C2321" stroke-linecap="round" stroke-linejoin="round"/>
<path d="M167.969 188.59C167.969 188.59 164.797 182.663 163.352 179.914" stroke="#2C2321" stroke-linecap="round" stroke-linejoin="round"/>
<path d="M197.603 28.5349C191.678 23.421 191.801 13.5583 197.881 6.51305C203.954 -0.53945 213.679 -2.10908 219.599 3.0085C225.52 8.12247 225.397 17.9851 219.325 25.034C213.249 32.0829 203.524 33.6525 197.603 28.5349Z" fill="#30242A"/>
<path d="M206.296 48.3876C206.227 49.9428 206.155 53.1146 206.05 56.677C206.05 56.677 222.715 47.4726 231.735 57.3822C236.702 62.8506 237.053 69.7983 236.807 73.5741C247.832 75.4764 247.905 93.9576 235.962 97.0643C233.354 93.5019 231.522 90.9955 229.127 88.1384C223.914 93.8165 214.717 97.4875 206.155 95.9323C183.292 90.1131 192.348 61.2991 192.348 61.2991C192.348 61.2991 202.564 54.4925 198.124 47.9319C194.917 43.4147 185.665 50.1055 185.242 49.8017C181.352 46.8216 182.486 38.7166 182.378 38.8324C172.512 43.4147 166.84 40.0656 166.84 40.0656C167.332 32.2356 169.448 28.7093 175.012 25.816C181.637 22.9226 191.431 22.4308 198.37 26.8757C206.437 32.2717 206.296 42.6407 206.296 48.3876Z" fill="#30242A"/>
<path d="M194.603 24.9336C195.94 25.4291 197.244 26.0294 198.443 26.8034C200.275 28.0367 201.683 29.5557 202.738 31.2121" stroke="#191416" stroke-linecap="round" stroke-linejoin="round"/>
<path d="M192.912 65.671C190.827 65.671 189.14 63.982 189.14 61.8988C189.14 59.812 190.827 58.123 192.912 58.123C194.993 58.123 196.68 59.812 196.68 61.8988C196.68 63.982 194.993 65.671 192.912 65.671Z" fill="white"/>
<path d="M102.721 80.6617C103.072 79.6382 103.953 79.1788 104.058 79.1427C102.967 77.5224 103.321 76.1806 103.776 75.3343C104.307 74.4193 105.048 73.8877 105.08 73.8877C104.589 71.3488 105.893 70.2565 107.089 69.7972C107.584 69.5874 108.075 69.5151 108.357 69.4789C108.461 69.4789 108.534 69.3741 108.498 69.2692C108.252 68.6326 107.688 66.7628 109.625 65.1426C109.943 64.9292 110.26 64.7194 110.647 64.5784C112.056 64.0142 114.487 64.4373 114.487 64.4373C118.081 65.0015 122.062 67.8912 122.062 67.8912C122.062 67.8912 121.286 53.9273 126.361 61.3342C131.469 68.9147 143.481 102.846 143.481 102.846C143.481 102.846 144.998 100.908 147.357 97.9783L162.895 127.147C159.228 131.346 151.374 136.601 141.086 136.601C116.001 136.601 114.418 88.7739 114.418 88.7739C114.418 88.7739 113.255 88.3507 111.738 87.5731C111.492 88.0686 111.033 88.4556 110.365 88.7377C108.852 89.3381 105.257 87.1138 103.321 83.7648C102.616 82.6002 102.439 81.5441 102.721 80.6617Z" fill="#CA7358"/>
<path opacity="0.2" d="M143.133 109.266L143.484 102.915C143.484 102.882 143.484 102.846 143.52 102.846C143.661 102.633 144.506 101.577 145.669 100.13C145.774 99.989 145.987 100.094 145.915 100.271L143.415 109.334C143.379 109.512 143.133 109.475 143.133 109.266Z" fill="#171717"/>
<path d="M143.48 102.883L143.163 108.771" stroke="#282625" stroke-linecap="round" stroke-linejoin="round"/>
<path d="M111.739 87.7149C112.27 86.7638 112.057 85.7764 111.565 84.6119C111.529 84.507 111.634 84.4021 111.739 84.4346C112.338 84.7167 113.606 85.176 114.734 84.7529C115.088 84.6118 115.405 84.4021 115.687 84.0838C116.955 82.6371 116.074 81.1218 115.756 80.5901C115.72 80.5214 115.756 80.4491 115.828 80.4491C116.11 80.4852 116.706 80.4852 117.273 80.2719C117.905 80.0259 118.4 79.5666 118.682 78.8613C119.35 77.4183 118.292 75.9716 117.837 75.44C117.764 75.3351 117.801 75.2302 117.941 75.194C118.187 75.1579 118.541 75.1253 118.891 74.9843C119.596 74.7022 119.982 74.2429 120.019 73.6063C120.3 70.7853 116.919 69.1976 115.088 68.3513C114.629 68.1415 114.242 67.9282 114.065 67.7871" stroke="#282625" stroke-linecap="round" stroke-linejoin="round"/>
<path d="M117.766 75.2661C111.53 73.1829 108.677 69.5879 108.677 69.5879" stroke="#282625" stroke-linecap="round" stroke-linejoin="round"/>
<path d="M115.719 80.5577C111.174 79.1436 106.348 75.6174 105.152 73.9609" stroke="#282625" stroke-linecap="round" stroke-linejoin="round"/>
<path d="M111.633 84.4022C106.279 81.7548 104.13 79.1797 104.13 79.1797" stroke="#282625" stroke-linecap="round" stroke-linejoin="round"/>
<path d="M122.063 67.9277C122.063 69.4106 122.555 72.6547 122.555 72.6547C122.555 72.6547 119.983 80.3799 121.991 86.6584" stroke="#282625" stroke-linecap="round" stroke-linejoin="round"/>
<path d="M206.051 56.6445V61.8995" stroke="#191416" stroke-linecap="round" stroke-linejoin="round"/>
<path d="M229.164 88.0694C230.959 86.1995 232.473 83.4473 232.473 83.4473" stroke="#191416" stroke-linecap="round" stroke-linejoin="round"/>
<path d="M236.809 73.5374C236.809 73.5374 234.446 73.0094 231.029 73.5374" stroke="#191416" stroke-linecap="round" stroke-linejoin="round"/>
<path d="M317.922 272.546V272.477C317.922 245.999 305.213 233.276 297.591 225.681C296.055 224.144 294.755 222.842 293.733 221.612C287.649 214.361 287.136 212.719 280.543 192.639L279.517 189.561C274.496 174.201 269.644 164.487 267.217 160.039C266.946 159.594 266.57 159.254 266.09 159.048C265.851 158.946 265.577 158.91 265.338 158.91H265.306C264.381 158.91 263.597 159.46 263.254 160.281L258.883 171.294C258.883 171.33 258.847 171.362 258.814 171.362C254.439 171.945 250.444 175.33 249.895 175.843C249.862 175.876 249.826 175.876 249.794 175.876L235.102 172.389C235.066 172.353 235.033 172.353 234.964 172.353C234.827 172.321 234.69 172.321 234.589 172.321C234.556 172.321 234.52 172.321 234.488 172.321C233.324 172.321 232.298 173.142 232.06 174.27C231.514 177.247 231.854 183.333 236.435 187.2C237.323 187.919 238.245 188.567 239.202 189.149C242.652 191.373 246.958 194.176 246.958 199.24V263.855C246.958 263.924 246.922 263.96 246.853 263.96C243.233 264.029 240.329 267.038 240.329 270.662V272.441C240.329 272.51 240.361 272.546 240.43 272.546H317.922Z" fill="#FFA0DC"/>
<path d="M248.736 225.888C256.354 225.852 262.539 219.595 262.539 211.967V203.584H246.958V225.888H248.736Z" fill="#FFF7FC"/>
<path d="M260.416 272.202V270.73C260.416 267.378 263.151 264.644 266.5 264.644H267.696L269.881 246.683C270.871 238.441 277.843 232.249 286.145 232.285" stroke="#7F225D" stroke-linecap="round" stroke-linejoin="round"/>
<path d="M253.722 180.975C252.931 180.975 252.288 180.331 252.288 179.535C252.288 178.743 252.931 178.1 253.722 178.1C254.517 178.1 255.16 178.743 255.16 179.535C255.16 180.331 254.517 180.975 253.722 180.975Z" fill="#231F20"/>
<path d="M238.04 173.211C238.077 173.142 238.04 173.106 237.972 173.074C237.325 172.904 234.829 172.184 234.453 172.253C231.104 172.253 231.722 176.665 231.856 177.385C231.856 177.417 231.924 177.45 231.961 177.45C235.411 177.417 237.188 175.743 238.04 173.211Z" fill="#7F225D"/>
<path d="M285.871 208.306C284.917 204.816 284.097 202.559 283.003 200.096C283.003 200.06 282.967 200.027 282.902 200.027C281.294 200.027 249.006 200.027 247.026 200.027C246.957 200.027 246.921 200.06 246.921 200.129V208.306C246.921 208.371 246.957 208.407 247.026 208.407H285.737C285.839 208.407 285.871 208.371 285.871 208.306Z" fill="#7F225D"/>
<path opacity="0.2" d="M260.318 272.546C260.387 272.546 260.419 272.51 260.419 272.441V270.904C260.419 267.345 262.641 264.676 266.196 264.676L267.594 264.643C267.63 264.643 267.698 264.607 267.698 264.575L270.09 245.417C270.498 241.826 273.233 238.748 275.657 236.046L276 235.771C270.773 237.106 262.366 241.587 261.72 246.925L259.599 263.822C259.599 263.855 259.567 263.891 259.498 263.891H257.071C254.441 263.891 252.219 265.942 252.085 268.611L251.811 272.408C251.811 272.477 251.843 272.51 251.912 272.51L259.704 272.546H260.318Z" fill="#7F225D"/>
</svg>
