<svg width="58" height="60" viewBox="0 0 58 60" fill="none" xmlns="http://www.w3.org/2000/svg">
<path d="M57.9645 17.9029L37.6663 21.1588L40.9913 0.110213L40.8826 0.0734741L29.0555 17.2003C23.6232 9.20975 17.3681 0 17.3681 0L17.2616 0.0367353L20.3714 21.0853L0.0377114 17.6434L0 17.7559L16.6183 30.0746L0 42.4301L0.0377114 42.5403L20.0853 39.1007C18.4416 48.7191 16.5828 59.8163 16.5828 59.8163L16.6893 59.853L28.8758 42.6895L40.8826 60L40.9913 59.9633L37.6663 39.2109C46.9581 40.9123 57.6784 42.8365 57.6784 42.8365L57.7161 42.7263L41.2397 30.1848C48.9943 24.5616 58 18.0154 58 18.0154L57.9645 17.9029Z" fill="#E98E07"/>
</svg>
