<svg width="78" height="85" viewBox="0 0 78 85" fill="none" xmlns="http://www.w3.org/2000/svg">
<path d="M35.2369 6.34243L25.1302 13.0984L22.9607 22.1621L31.7387 28.9154L41.9147 27.3578L43.8705 14.3808L35.2369 6.34243Z" fill="black"/>
<path d="M70.9887 45.0924L64.7209 60.703L63.1965 64.3769L61.3664 68.9925L45.2247 75.3416L41.8307 76.7196L31.6773 80.6864L21.3134 69.0638L18.5211 65.9234L11.2064 57.609L16.0002 45.5863L17.5494 41.7464L22.268 29.9758L31.4015 28.6926L37.82 27.6732L41.4483 27.1696L41.9883 27.1022L50.6929 25.7842L56.6821 31.4927L59.5949 34.2916L65.8563 40.2412L65.9403 40.296L67.7392 42.0698L70.9887 45.0924Z" fill="#0152BF"/>
<path d="M39.5767 59.1886C41.982 58.5441 40.8734 54.4068 38.4681 55.0513C36.0627 55.6958 37.1713 59.8331 39.5767 59.1886Z" fill="#FFC20F"/>
<path d="M21.3122 69.0627L18.5199 65.9223C18.719 65.6323 19.0912 65.4553 19.4826 65.3504C21.6257 64.7762 22.6603 67.8465 21.3122 69.0627Z" fill="#FFC20F"/>
<path d="M29.4614 63.8463C31.8668 63.2018 30.7582 59.0645 28.3528 59.709C25.9475 60.3535 27.0561 64.4908 29.4614 63.8463Z" fill="#FFC20F"/>
<path d="M34.4868 49.5778C36.8922 48.9333 35.7836 44.7959 33.3782 45.4404C30.9729 46.085 32.0815 50.2223 34.4868 49.5778Z" fill="#FFC20F"/>
<path d="M45.2248 75.3418L41.8115 76.6476C41.3708 75.5194 41.5219 74.0008 42.886 73.6353C44.0757 73.3938 44.9338 74.2556 45.2248 75.3418Z" fill="#FFC20F"/>
<path d="M46.3708 66.8655C48.7762 66.221 47.6664 62.0791 45.261 62.7236C42.8557 63.3682 43.9655 67.51 46.3708 66.8655Z" fill="#FFC20F"/>
<path d="M49.3208 54.4772C51.7262 53.8327 50.6176 49.6953 48.2122 50.3399C45.8069 50.9844 46.9155 55.1217 49.3208 54.4772Z" fill="#FFC20F"/>
<path d="M59.5971 34.2894C59.4519 34.7969 59.0279 35.2969 58.3781 35.471C56.2351 36.0452 55.1038 32.6144 56.7036 31.5626L59.5971 34.2894Z" fill="#FFC20F"/>
<path d="M67.7352 42.0713C67.9435 43.1071 67.6107 44.2059 66.4403 44.5195C64.0996 45.1467 62.991 41.0093 65.3318 40.3821C65.4609 40.3475 65.6586 40.2945 65.8717 40.3147L65.9556 40.3696L67.7352 42.0713Z" fill="#FFC20F"/>
<path d="M56.991 44.8707C59.3963 44.2262 58.2877 40.0888 55.8824 40.7334C53.4577 41.3058 54.5856 45.5152 56.991 44.8707Z" fill="#FFC20F"/>
<path d="M62.0955 53.7781C64.5049 53.1325 63.3963 48.9952 60.9869 49.6408C58.6461 50.268 59.6902 54.4226 62.0955 53.7781Z" fill="#FFC20F"/>
<path d="M44.2439 44.6306C46.6493 43.9861 45.5407 39.8488 43.1353 40.4933C40.7946 41.1205 41.8386 45.2751 44.2439 44.6306Z" fill="#FFC20F"/>
<path d="M33.7976 37.6246C36.203 36.9801 35.0944 32.8427 32.689 33.4873C30.2644 34.0597 31.3923 38.2691 33.7976 37.6246Z" fill="#FFC20F"/>
<path d="M40.2942 29.8929C38.8615 30.2768 37.9056 29.05 37.8382 27.7493L41.4653 27.2412C41.8674 28.2251 41.5938 29.5447 40.2942 29.8929Z" fill="#FFC20F"/>
<path d="M48.9353 35.3601C51.3406 34.7156 50.2308 30.5738 47.8255 31.2183C45.4201 31.8628 46.5299 36.0046 48.9353 35.3601Z" fill="#FFC20F"/>
<path d="M25.8544 36.0951C28.2598 35.4506 27.1512 31.3133 24.7458 31.9578C22.405 32.585 23.5136 36.7224 25.8544 36.0951Z" fill="#FFC20F"/>
<path d="M20.5387 57.8323C22.944 57.1878 21.8354 53.0505 19.4301 53.695C17.0207 54.3406 18.1293 58.4779 20.5387 57.8323Z" fill="#FFC20F"/>
<path d="M34.1333 74.2648C36.5387 73.6203 35.4301 69.4829 33.0247 70.1275C30.6194 70.772 31.728 74.9093 34.1333 74.2648Z" fill="#FFC20F"/>
<path d="M64.7222 60.7027L63.2183 64.4532C61.5513 63.9627 61.0166 60.9179 63.0112 60.3062C63.7255 60.1148 64.2589 60.281 64.7222 60.7027Z" fill="#FFC20F"/>
<path d="M55.77 65.2799C58.1794 64.6343 57.0708 60.497 54.6614 61.1426C52.2561 61.7871 53.3647 65.9244 55.77 65.2799Z" fill="#FFC20F"/>
<path d="M17.199 45.6496C16.747 45.7707 16.3814 45.7141 16.0652 45.567L17.6143 41.7271C18.7694 42.6638 18.9546 45.1792 17.199 45.6496Z" fill="#FFC20F"/>
<path d="M25.1697 45.2302C27.575 44.5857 26.4652 40.4439 24.0599 41.0884C21.6545 41.7329 22.7643 45.8747 25.1697 45.2302Z" fill="#FFC20F"/>
</svg>
