<svg width="68" height="54" viewBox="0 0 68 54" fill="none" xmlns="http://www.w3.org/2000/svg">
<path d="M0.226562 27.2621L19.8915 52.0138L48.1639 53.3152L66.7738 28.9678L51.1636 0C51.1636 0 15.8919 4.80711 15.1696 4.7147C14.4197 4.6839 0.226562 27.2621 0.226562 27.2621Z" fill="#CA3F94"/>
<path d="M39.2227 1.64409C41.4172 2.9763 43.9721 3.62893 46.4718 3.41139C48.3871 3.25545 50.2765 2.63555 51.9711 1.58057" stroke="#414860" stroke-width="1.5" stroke-linecap="round" stroke-linejoin="round"/>
<path d="M54.3577 6.04688C52.0252 10.1725 48.3584 13.3355 44.1365 14.608C39.6939 15.973 34.9721 15.2895 30.3606 15.663C24.5561 16.127 18.724 18.3294 14.3642 22.6725C10.7526 26.2706 8.2253 31.3877 7.89258 36.7223" stroke="#414860" stroke-width="1.5" stroke-linecap="round" stroke-linejoin="round"/>
<path d="M56.8308 10.6382C54.6932 14.4211 51.6366 17.896 48.2767 20.4083C44.222 23.4482 39.6105 25.433 35.5006 28.3785C28.1119 33.6823 22.6694 42.2434 20.4473 51.7345" stroke="#414860" stroke-width="1.5" stroke-linecap="round" stroke-linejoin="round"/>
<path d="M66.5503 28.998C61.3561 30.2706 55.8844 31.9147 51.3022 34.8601C48.6077 36.5986 46.1356 38.8317 44.3858 41.6848C42.4153 44.8787 41.4706 48.9735 41.5809 52.8507" stroke="#414860" stroke-width="1.5" stroke-linecap="round" stroke-linejoin="round"/>
<path d="M28.8349 3.13232C27.6971 4.99395 25.7249 7.90863 24.0303 9.14843C19.8359 12.2518 14.5314 14.0191 9.69922 12.8717" stroke="#414860" stroke-width="1.5" stroke-linecap="round" stroke-linejoin="round"/>
</svg>
