<svg width="24" height="18" viewBox="0 0 24 18" fill="none" xmlns="http://www.w3.org/2000/svg">
<path d="M22.0212 0.0391401H19.1659V2.05858C19.1659 2.25306 19.1253 2.44564 19.0464 2.62531C18.9675 2.80498 18.8518 2.96824 18.706 3.10576C18.5601 3.24327 18.387 3.35236 18.1965 3.42678C18.0059 3.5012 17.8017 3.53951 17.5955 3.53951C17.3893 3.53951 17.1851 3.5012 16.9945 3.42678C16.804 3.35236 16.6309 3.24327 16.485 3.10576C16.3392 2.96824 16.2235 2.80498 16.1446 2.62531C16.0657 2.44564 16.0251 2.25306 16.0251 2.05858V0.0391401H7.70897V2.05858C7.70897 2.45135 7.54352 2.82803 7.249 3.10576C6.95449 3.38348 6.55505 3.53951 6.13855 3.53951C5.72205 3.53951 5.3226 3.38348 5.02809 3.10576C4.73358 2.82803 4.56812 2.45135 4.56812 2.05858V0.0391401H1.71281C1.54293 0.0373171 1.3744 0.067637 1.21717 0.128307C1.05993 0.188976 0.917199 0.278764 0.797405 0.392358C0.677611 0.505953 0.58319 0.641048 0.519726 0.789653C0.456262 0.938259 0.425044 1.09736 0.427918 1.25754V16.3226C0.425082 16.4799 0.455146 16.6363 0.516394 16.7827C0.577642 16.9291 0.668873 17.0627 0.784876 17.1758C0.90088 17.289 1.03938 17.3794 1.19248 17.4421C1.34557 17.5048 1.51025 17.5384 1.67712 17.541H22.0212C22.1881 17.5384 22.3528 17.5048 22.5059 17.4421C22.659 17.3794 22.7975 17.289 22.9135 17.1758C23.0295 17.0627 23.1207 16.9291 23.182 16.7827C23.2432 16.6363 23.2733 16.4799 23.2704 16.3226V1.25754C23.2733 1.10018 23.2432 0.94384 23.182 0.797442C23.1207 0.651045 23.0295 0.51746 22.9135 0.404316C22.7975 0.291173 22.659 0.200688 22.5059 0.138031C22.3528 0.0753731 22.1881 0.0417698 22.0212 0.0391401ZM6.13855 13.5021H4.71089V12.1558H6.13855V13.5021ZM6.13855 10.1364H4.71089V8.79006H6.13855V10.1364ZM6.13855 6.77062H4.71089V5.42432H6.13855V6.77062ZM10.4215 13.5021H8.99386V12.1558H10.4215V13.5021ZM10.4215 10.1364H8.99386V8.79006H10.4215V10.1364ZM10.4215 6.77062H8.99386V5.42432H10.4215V6.77062ZM14.7045 13.5021H13.2768V12.1558H14.7045V13.5021ZM14.7045 10.1364H13.2768V8.79006H14.7045V10.1364ZM14.7045 6.77062H13.2768V5.42432H14.7045V6.77062ZM18.9875 13.5021H17.5598V12.1558H18.9875V13.5021ZM18.9875 10.1364H17.5598V8.79006H18.9875V10.1364ZM18.9875 6.77062H17.5598V5.42432H18.9875V6.77062Z" fill="#737A92"/>
</svg>
