<svg xmlns="http://www.w3.org/2000/svg" width="29" height="29" viewBox="0 0 29 29" fill="none">
  <path d="M14.625 28.25C7.11653 28.25 1 22.1335 1 14.625C1 7.11653 7.11653 1 14.625 1C22.1335 1 28.25 7.11653 28.25 14.625C28.25 22.1335 22.1335 28.25 14.625 28.25ZM14.625 2.93911C8.18528 2.93911 2.93911 8.18528 2.93911 14.625C2.93911 21.0647 8.18528 26.3109 14.625 26.3109C21.0647 26.3109 26.3109 21.0647 26.3109 14.625C26.3109 8.18528 21.0647 2.93911 14.625 2.93911Z" fill="#414860" stroke="#414860"/>
  <path d="M14.6998 15.5954H6.46083C5.96405 15.5954 5.58008 15.173 5.58008 14.6258C5.58008 14.0786 5.96405 13.6562 6.46083 13.6562H14.6998C15.1966 13.6562 15.5801 14.0786 15.5801 14.6258C15.5801 15.173 15.1738 15.5954 14.6998 15.5954Z" fill="#414860" stroke="#414860"/>
  <path d="M14.6244 15.5937C14.3759 15.5937 14.1274 15.4945 13.9284 15.3201C13.5551 14.9473 13.5551 14.326 13.9284 13.9527L18.4781 9.40304C18.8509 9.02972 19.4727 9.02972 19.8455 9.40304C20.2188 9.77582 20.2188 10.3977 19.8455 10.7704L15.2958 15.3201C15.1214 15.4945 14.8729 15.5937 14.6244 15.5937Z" fill="#414860" stroke="#414860"/>
</svg>