<svg width="25" height="25" viewBox="0 0 25 25" fill="none" xmlns="http://www.w3.org/2000/svg">
<rect width="24.9348" height="20.913" rx="5" fill="#737A92"/>
<path d="M7.8531 24.8984L5.27567 19.3147L10.2865 19.2505L7.8531 24.8984Z" fill="#737A92"/>
<path d="M10.975 7.175C11.425 7.175 11.8083 7.33333 12.125 7.65C12.4417 7.95 12.6 8.31667 12.6 8.75C12.6 8.95 12.5667 9.15833 12.5 9.375C12.45 9.575 12.3417 9.85 12.175 10.2L10.5 13.75H9L10 10C9.56667 9.66667 9.35 9.25 9.35 8.75C9.35 8.31667 9.50833 7.95 9.825 7.65C10.1583 7.33333 10.5417 7.175 10.975 7.175ZM15.425 7.175C15.875 7.175 16.2583 7.33333 16.575 7.65C16.8917 7.95 17.05 8.31667 17.05 8.75C17.05 8.95 17.0167 9.15833 16.95 9.375C16.9 9.575 16.7917 9.85 16.625 10.2L14.95 13.75H13.45L14.45 10C14.0167 9.66667 13.8 9.25 13.8 8.75C13.8 8.31667 13.9583 7.95 14.275 7.65C14.6083 7.33333 14.9917 7.175 15.425 7.175Z" fill="white"/>
</svg>
