<svg width="19" height="20" viewBox="0 0 19 20" fill="none" xmlns="http://www.w3.org/2000/svg">
<path d="M11.4571 1.79362H10.7821C10.6065 1.2679 10.2869 0.813817 9.86654 0.492959C9.44622 0.172101 8.94557 0 8.4325 0C7.91943 0 7.41878 0.172101 6.99846 0.492959C6.57814 0.813817 6.25848 1.2679 6.08286 1.79362H5.54286C5.13419 1.79547 4.74274 1.97333 4.45376 2.28847C4.16479 2.60361 4.00169 3.0305 4 3.47617V6H13V3.47617C12.9983 3.0305 12.8352 2.60361 12.5462 2.28847C12.2573 1.97333 11.8658 1.79547 11.4571 1.79362ZM11.7143 4.59787H5.28571V3.37101C5.28571 3.32453 5.30265 3.27995 5.33279 3.24708C5.36293 3.21421 5.4038 3.19575 5.44643 3.19575H7.17571L7.25286 2.41757C7.26654 2.29175 7.30527 2.17072 7.36635 2.06294C7.42742 1.95516 7.50936 1.86324 7.60643 1.79362C7.77896 1.65336 7.98101 1.56257 8.19407 1.52957C8.40713 1.49657 8.62437 1.52241 8.82589 1.60474C9.02741 1.68706 9.20676 1.82323 9.3475 2.00077C9.48824 2.1783 9.58586 2.39152 9.63143 2.62088L9.68929 3.20977H11.5536C11.5962 3.20977 11.6371 3.22823 11.6672 3.2611C11.6974 3.29397 11.7143 3.33855 11.7143 3.38503V4.59787Z" fill="white"/>
<path d="M18.3433 10.8698H10.5152L12.3803 9.08251C12.4415 9.02362 12.4901 8.95372 12.5232 8.87679C12.5564 8.79985 12.5734 8.71739 12.5734 8.63412C12.5734 8.55085 12.5564 8.46839 12.5232 8.39145C12.4901 8.31452 12.4415 8.24461 12.3803 8.18573C12.3191 8.12685 12.2464 8.08014 12.1664 8.04827C12.0864 8.0164 12.0006 8 11.914 8C11.8274 8 11.7417 8.0164 11.6617 8.04827C11.5817 8.08014 11.509 8.12685 11.4478 8.18573L8 11.5013L11.4478 14.8168C11.5091 14.8754 11.5819 14.9217 11.6619 14.9531C11.7419 14.9845 11.8276 15.0005 11.914 15C12.0431 14.9995 12.1692 14.9624 12.2765 14.8934C12.3838 14.8243 12.4676 14.7264 12.5173 14.6118C12.5671 14.4973 12.5806 14.3712 12.5562 14.2493C12.5319 14.1273 12.4707 14.015 12.3803 13.9264L10.5152 12.1328H18.3433C18.5175 12.1328 18.6845 12.0663 18.8077 11.9478C18.9308 11.8294 19 11.6688 19 11.5013C19 11.3338 18.9308 11.1732 18.8077 11.0547C18.6845 10.9363 18.5175 10.8698 18.3433 10.8698Z" fill="white"/>
<path d="M15.4693 9H16.9999V3.06909C17.0019 2.92983 16.9708 2.79162 16.9084 2.6624C16.8459 2.53318 16.7533 2.4155 16.636 2.31614C16.5186 2.21678 16.3788 2.1377 16.2245 2.08344C16.0703 2.02919 15.9047 2.00083 15.7372 2H14V3.27273H15.4693V9Z" fill="white"/>
<path d="M15.6923 18.7143H1.30776V3.28571H2.61545V2H1.07238C0.785657 2.00339 0.511948 2.1182 0.311035 2.31935C0.110122 2.5205 -0.00166911 2.79165 7.90171e-05 3.07357V18.92C-0.00164752 19.0607 0.0249354 19.2003 0.0782984 19.3308C0.131661 19.4614 0.210751 19.5803 0.311017 19.6806C0.411283 19.781 0.530746 19.8609 0.662533 19.9157C0.79432 19.9705 0.935829 19.9992 1.07892 20H15.9277C16.2144 19.9966 16.4881 19.8818 16.689 19.6806C16.8899 19.4795 17.0017 19.2083 17 18.9264V12.9671H15.6923V18.7143Z" fill="white"/>
</svg>
