<svg width="166" height="109" viewBox="0 0 166 109" fill="none" xmlns="http://www.w3.org/2000/svg">
<path d="M165.578 108.776C159.622 96.4564 149.817 92.9046 143.01 94.3104C132.799 96.4564 131.541 108.776 131.541 108.776H165.578Z" fill="#FFC930"/>
<path d="M133.413 30.75H34.3145V108.763H133.413V30.75Z" fill="#FF95BD"/>
<path d="M51.1827 87.6792C54.0882 87.6792 56.4547 90.0444 56.4547 92.9498V108.763H45.9121V92.9498C45.9121 90.0209 48.2538 87.6792 51.1827 87.6792Z" fill="white"/>
<path d="M67.5108 87.6792C70.4163 87.6792 72.7828 90.0444 72.7828 92.9498V108.763H62.2402V92.9498C62.2402 90.0209 64.6068 87.6792 67.5108 87.6792Z" fill="white"/>
<path d="M83.8634 87.6792C86.7688 87.6792 89.1354 90.0444 89.1354 92.9498V108.763H78.5928V92.9498C78.5928 90.0209 80.9359 87.6792 83.8634 87.6792Z" fill="white"/>
<path d="M100.193 87.6792C103.097 87.6792 105.463 90.0444 105.463 92.9498V108.763H94.9209V92.9498C94.9209 90.0209 97.2874 87.6792 100.193 87.6792Z" fill="white"/>
<path d="M116.545 87.6792C119.45 87.6792 121.816 90.0444 121.816 92.9498V108.763H111.273V92.9498C111.273 90.0209 113.617 87.6792 116.545 87.6792Z" fill="white"/>
<path d="M56.4547 64.4851H45.9121V79.2453H56.4547V64.4851Z" fill="#FFA0DC"/>
<path d="M72.7828 64.4851H62.2402V79.2453H72.7828V64.4851Z" fill="white"/>
<path d="M89.1354 64.4851H78.5928V79.2453H89.1354V64.4851Z" fill="white"/>
<path d="M105.463 64.4851H94.9209V79.2453H105.463V64.4851Z" fill="#FFA0DC"/>
<path d="M121.816 64.4851H111.273V79.2453H121.816V64.4851Z" fill="white"/>
<path d="M56.4547 41.2925H45.9121V56.0513H56.4547V41.2925Z" fill="white"/>
<path d="M72.7828 41.2925H62.2402V56.0513H72.7828V41.2925Z" fill="#FFA0DC"/>
<path d="M89.1354 41.2925H78.5928V56.0513H89.1354V41.2925Z" fill="#FFA0DC"/>
<path d="M105.463 41.2925H94.9209V56.0513H105.463V41.2925Z" fill="white"/>
<path d="M121.816 41.2925H111.273V56.0513H121.816V41.2925Z" fill="#FFA0DC"/>
<path d="M31.2686 30.75H136.459" stroke="#003852" stroke-width="3" stroke-linecap="round" stroke-linejoin="round"/>
<path d="M45.0684 56.0515H57.2732" stroke="#003852" stroke-width="3" stroke-linecap="round" stroke-linejoin="round"/>
<path d="M61.4668 56.0515H73.673" stroke="#003852" stroke-width="3" stroke-linecap="round" stroke-linejoin="round"/>
<path d="M77.6318 56.0515H89.838" stroke="#003852" stroke-width="3" stroke-linecap="round" stroke-linejoin="round"/>
<path d="M94.0303 56.0515H106.236" stroke="#003852" stroke-width="3" stroke-linecap="round" stroke-linejoin="round"/>
<path d="M110.43 56.0515H122.636" stroke="#003852" stroke-width="3" stroke-linecap="round" stroke-linejoin="round"/>
<path d="M45.0684 79.2454H57.2732" stroke="#003852" stroke-width="3" stroke-linecap="round" stroke-linejoin="round"/>
<path d="M61.4668 79.2454H73.673" stroke="#003852" stroke-width="3" stroke-linecap="round" stroke-linejoin="round"/>
<path d="M77.6318 79.2454H89.838" stroke="#003852" stroke-width="3" stroke-linecap="round" stroke-linejoin="round"/>
<path d="M94.0303 79.2454H106.236" stroke="#003852" stroke-width="3" stroke-linecap="round" stroke-linejoin="round"/>
<path d="M110.43 79.2454H122.636" stroke="#003852" stroke-width="3" stroke-linecap="round" stroke-linejoin="round"/>
<path opacity="0.3" d="M45.9121 41.2925V42.5109L56.4547 43.659V41.2925H45.9121Z" fill="#181818"/>
<path opacity="0.3" d="M62.2402 41.2925V44.2668L72.7828 45.415V41.2925H62.2402Z" fill="#0A0006"/>
<path opacity="0.3" d="M78.5928 41.2925V46.0242L89.1354 47.1723V41.2925H78.5928Z" fill="#0A0006"/>
<path opacity="0.3" d="M94.9209 41.2925V47.8049L105.463 48.9296V41.2925H94.9209Z" fill="#181818"/>
<path opacity="0.3" d="M121.816 41.2925H111.273V49.5623L121.816 50.687V41.2925Z" fill="#0A0006"/>
<path opacity="0.3" d="M45.9121 64.4851V65.7035L56.4547 66.8516V64.4851H45.9121Z" fill="#0A0006"/>
<path opacity="0.3" d="M62.2402 64.4851V67.4609L72.7828 68.609V64.4851H62.2402Z" fill="#181818"/>
<path opacity="0.3" d="M78.5928 64.4851V69.2182L89.1354 70.3663V64.4851H78.5928Z" fill="#181818"/>
<path opacity="0.3" d="M94.9209 64.4851V70.9976L105.463 72.1223V64.4851H94.9209Z" fill="#0A0006"/>
<path opacity="0.3" d="M121.816 64.4851H111.273V72.7549L121.816 73.8796V64.4851Z" fill="#181818"/>
<path d="M0 108.777C0.964808 102.19 6.02454 97.3701 11.6797 98.656C11.6797 98.656 14.4583 88.3905 25.0616 89.0176C35.986 89.6599 37.4318 100.905 37.4318 100.905C37.4318 100.905 47.3914 98.656 48.4678 108.777H0Z" fill="#FFC930"/>
<path opacity="0.3" d="M11.9521 108.777H48.4509C47.3744 98.6561 37.4148 100.906 37.4148 100.906C37.4148 100.906 36.6912 95.2821 32.402 91.7646C25.1245 93.4985 23.0847 101.065 23.0847 101.065C18.1366 99.9407 13.6543 103.476 11.9521 108.777Z" fill="#5F5F5F"/>
<path d="M11.68 98.6562C11.181 100.423 10.6035 102.994 10.6035 102.994" stroke="#5F5F5F" stroke-width="3" stroke-linecap="round" stroke-linejoin="round"/>
<path d="M37.4326 100.905C36.0667 101.419 34.942 102.415 34.2666 103.716" stroke="#5F5F5F" stroke-width="3" stroke-linecap="round" stroke-linejoin="round"/>
<rect x="86.5361" y="0.9375" width="79.5" height="32.25" transform="rotate(12.277 86.5361 0.9375)" fill="#479590"/>
<path d="M112.714 29.4052L109.345 28.6719L108.004 19.3124C107.927 20.1849 107.844 20.9548 107.755 21.6222C107.679 22.2811 107.544 23.0566 107.35 23.9488L106.459 28.0439L104.105 27.5317L106.536 16.3587L109.825 17.0744L111.243 26.4676C111.327 24.9436 111.51 23.5314 111.793 22.2308L112.776 17.7165L115.146 18.2322L112.714 29.4052ZM124.079 20.1763L123.395 22.003L119.461 21.1469L118.878 23.8232L122.312 24.5706L121.909 26.4247L118.475 25.6773L117.854 28.5311L122.062 29.4468L121.648 31.3493L114.796 29.8581L117.227 18.6851L124.079 20.1763ZM138.16 23.2405L133.859 34.0065L130.424 33.2592L130.894 24.4286L127.571 32.6382L124.217 31.9084L124.811 20.3354L127.455 20.9108L126.571 30.3267L130.115 21.4897L132.888 22.0932L132.343 31.5828L135.645 22.6932L138.16 23.2405Z" fill="white"/>
</svg>
