<?xml version="1.0" encoding="UTF-8"?>
<svg id="Layer_1" data-name="Layer 1" xmlns="http://www.w3.org/2000/svg" viewBox="0 0 300 300">
  <defs>
    <style>
      .cls-1 {
        fill: none;
        stroke: #d8a44f;
        stroke-linecap: round;
        stroke-miterlimit: 10;
        stroke-width: 3px;
      }

      .cls-2 {
        fill: #f4be53;
      }
    </style>
  </defs>
  <rect class="cls-2" x=".34" y="-.77" width="299.66" height="299.66"/>
  <line class="cls-1" x1="172.45" y1="222.68" x2="172.79" y2="243.4"/>
  <line class="cls-1" x1="163.29" y1="222.21" x2="163.7" y2="249.17"/>
  <line class="cls-1" x1="154.21" y1="222.68" x2="154.67" y2="253.33"/>
  <line class="cls-1" x1="145.11" y1="222.21" x2="145.65" y2="258.05"/>
  <line class="cls-1" x1="136.06" y1="221.66" x2="136.66" y2="261.71"/>
  <line class="cls-1" x1="126.91" y1="221.66" x2="127.48" y2="259.23"/>
  <line class="cls-1" x1="117.38" y1="221.66" x2="117.86" y2="254.19"/>
  <line class="cls-1" x1="108.12" y1="221.66" x2="108.61" y2="260.2"/>
  <line class="cls-1" x1="99.25" y1="224.3" x2="99.74" y2="251.8"/>
  <line class="cls-1" x1="210.38" y1="86.17" x2="234.05" y2="12.8"/>
  <line class="cls-1" x1="219.47" y1="87.81" x2="244.08" y2="11.82"/>
  <line class="cls-1" x1="228.65" y1="88.96" x2="253.63" y2="11.82"/>
  <line class="cls-1" x1="237.41" y1="91.44" x2="257.89" y2="28.19"/>
  <line class="cls-1" x1="246.38" y1="93.07" x2="262.74" y2="42.55"/>
  <line class="cls-1" x1="255.72" y1="93.92" x2="267.8" y2="56.6"/>
  <line class="cls-1" x1="85.56" y1="31.19" x2="163.26" y2="31.53"/>
  <line class="cls-1" x1="83.71" y1="40.31" x2="172.97" y2="40.73"/>
  <line class="cls-1" x1="82.72" y1="49.49" x2="183.12" y2="49.88"/>
  <line class="cls-1" x1="78.76" y1="58.85" x2="191.88" y2="58.85"/>
  <line class="cls-1" x1="75.95" y1="67.84" x2="195.77" y2="68.18"/>
  <line class="cls-1" x1="85.56" y1="77.01" x2="190.9" y2="77.34"/>
  <line class="cls-1" x1="107.49" y1="86.17" x2="135.32" y2="86.5"/>
  <line class="cls-1" x1="116.93" y1="95.14" x2="128.34" y2="95.44"/>
  <line class="cls-1" x1="250.04" y1="108.97" x2="272.98" y2="119.37"/>
  <line class="cls-1" x1="241.14" y1="115.02" x2="278.08" y2="131.82"/>
  <line class="cls-1" x1="242.16" y1="125.47" x2="278.08" y2="141.81"/>
  <line class="cls-1" x1="234.74" y1="131.71" x2="278.3" y2="151.02"/>
  <line class="cls-1" x1="231.26" y1="140.43" x2="283.99" y2="164.41"/>
  <line class="cls-1" x1="232.78" y1="151.17" x2="281.32" y2="173.25"/>
  <line class="cls-1" x1="255.36" y1="213.76" x2="233.88" y2="205.52"/>
  <line class="cls-1" x1="265.74" y1="208" x2="233.88" y2="195.16"/>
  <line class="cls-1" x1="269.34" y1="199.65" x2="236.19" y2="186.53"/>
  <line class="cls-1" x1="272.79" y1="191.3" x2="244.43" y2="180.19"/>
  <line class="cls-1" x1="276.16" y1="182.79" x2="247.06" y2="170.49"/>
  <line class="cls-1" x1="230.23" y1="157.78" x2="225.05" y2="199.36"/>
  <line class="cls-1" x1="221.55" y1="153.38" x2="215.76" y2="199.36"/>
  <line class="cls-1" x1="212.55" y1="152.1" x2="206.6" y2="199.36"/>
  <line class="cls-1" x1="203.92" y1="147.8" x2="197.44" y2="199.36"/>
  <line class="cls-1" x1="195.27" y1="144.05" x2="188.41" y2="198.71"/>
  <line class="cls-1" x1="239.24" y1="160.11" x2="237.28" y2="175.91"/>
  <line class="cls-1" x1="116.93" y1="103.35" x2="112.74" y2="155.57"/>
  <line class="cls-1" x1="108.37" y1="95.66" x2="103.49" y2="155.57"/>
  <line class="cls-1" x1="99.8" y1="88.93" x2="94.37" y2="155.57"/>
  <line class="cls-1" x1="90.87" y1="86.5" x2="85.42" y2="153.46"/>
  <line class="cls-1" x1="81.91" y1="85.12" x2="76.23" y2="154.85"/>
  <line class="cls-1" x1="73.07" y1="81.06" x2="67" y2="155.57"/>
  <line class="cls-1" x1="131.2" y1="103.35" x2="188.46" y2="123.97"/>
  <line class="cls-1" x1="127.29" y1="111.6" x2="187.31" y2="133.22"/>
  <line class="cls-1" x1="124.41" y1="120.23" x2="186.09" y2="142.44"/>
  <line class="cls-1" x1="124.76" y1="129.96" x2="186.09" y2="152.05"/>
  <line class="cls-1" x1="125.79" y1="140.06" x2="184.19" y2="161.08"/>
  <line class="cls-1" x1="124.76" y1="149.83" x2="145.11" y2="157.16"/>
  <line class="cls-1" x1="138.76" y1="166.74" x2="169.72" y2="167.18"/>
  <line class="cls-1" x1="127.25" y1="175.88" x2="183.97" y2="176.4"/>
  <line class="cls-1" x1="127.64" y1="184.97" x2="182.07" y2="185.46"/>
  <line class="cls-1" x1="127.64" y1="194.06" x2="180.74" y2="194.52"/>
  <line class="cls-1" x1="127.64" y1="203.09" x2="179.06" y2="203.51"/>
  <line class="cls-1" x1="127.64" y1="212.23" x2="178.17" y2="212.64"/>
  <line class="cls-1" x1="202.15" y1="99.16" x2="185.3" y2="108.97"/>
  <line class="cls-1" x1="200.1" y1="89.84" x2="175.95" y2="103.91"/>
  <line class="cls-1" x1="202.15" y1="78.12" x2="162.33" y2="101.31"/>
  <line class="cls-1" x1="173.6" y1="84.29" x2="151.93" y2="96.91"/>
  <line class="cls-1" x1="155.61" y1="84.18" x2="145.9" y2="89.84"/>
  <line class="cls-1" x1="213.9" y1="98.24" x2="236.78" y2="97.63"/>
  <line class="cls-1" x1="203.15" y1="108.21" x2="240.06" y2="108.32"/>
  <line class="cls-1" x1="200.66" y1="117.29" x2="232.78" y2="117.39"/>
  <line class="cls-1" x1="196.71" y1="126.38" x2="231.26" y2="126.48"/>
  <line class="cls-1" x1="196.52" y1="135.41" x2="225.34" y2="135.5"/>
  <line class="cls-1" x1="210.38" y1="144.6" x2="225.34" y2="144.64"/>
  <g>
    <line class="cls-1" x1="157.67" y1="287.94" x2="167" y2="318.69"/>
    <line class="cls-1" x1="206.25" y1="257.54" x2="220.55" y2="305.29"/>
    <line class="cls-1" x1="196.87" y1="257.61" x2="219.12" y2="332.78"/>
    <line class="cls-1" x1="187.34" y1="256.79" x2="209.44" y2="334.95"/>
    <line class="cls-1" x1="178.43" y1="258.7" x2="198.49" y2="328.93"/>
    <line class="cls-1" x1="168.88" y1="257.53" x2="187.68" y2="323.81"/>
    <line class="cls-1" x1="159.59" y1="258.05" x2="176.67" y2="317.34"/>
  </g>
  <line class="cls-1" x1="20.27" y1="31.64" x2="70.21" y2="49.56"/>
  <line class="cls-1" x1="33.62" y1="26.3" x2="76.63" y2="41.74"/>
  <line class="cls-1" x1="13.23" y1="38.86" x2="65.61" y2="57.72"/>
  <line class="cls-1" x1="4.65" y1="45.43" x2="62.59" y2="66.29"/>
  <line class="cls-1" x1="4.65" y1="55.09" x2="61.38" y2="75.51"/>
  <line class="cls-1" x1="5.04" y1="64.84" x2="61.38" y2="85.12"/>
  <line class="cls-1" x1="4.65" y1="74.42" x2="59.47" y2="94.16"/>
  <line class="cls-1" x1="3.59" y1="84.18" x2="23.74" y2="91.44"/>
  <line class="cls-1" x1="2.66" y1="93.07" x2="7.37" y2="94.76"/>
  <line class="cls-1" x1="16.17" y1="98.07" x2="47.12" y2="98.51"/>
  <line class="cls-1" x1="4.65" y1="107.21" x2="61.38" y2="107.73"/>
  <line class="cls-1" x1="5.04" y1="116.29" x2="59.47" y2="116.78"/>
  <line class="cls-1" x1="5.04" y1="125.38" x2="58.14" y2="125.84"/>
  <line class="cls-1" x1="5.04" y1="134.42" x2="56.46" y2="134.84"/>
  <line class="cls-1" x1="5.04" y1="143.56" x2="55.58" y2="143.96"/>
  <line class="cls-1" x1="-16.45" y1="203.82" x2=".34" y2="150.91"/>
  <line class="cls-1" x1="-8.01" y1="207.56" x2="10.31" y2="150.03"/>
  <line class="cls-1" x1=".74" y1="210.02" x2="19.57" y2="150.91"/>
  <line class="cls-1" x1="9.67" y1="211.95" x2="28.89" y2="151.59"/>
  <line class="cls-1" x1="18.92" y1="212.7" x2="38.38" y2="151.59"/>
  <line class="cls-1" x1="27.05" y1="217.31" x2="47.98" y2="151.59"/>
  <line class="cls-1" x1="12.25" y1="268.66" x2="-54.9" y2="247.91"/>
  <line class="cls-1" x1="15.33" y1="260.2" x2="-56.38" y2="237.84"/>
  <line class="cls-1" x1="15.33" y1="251.8" x2="-51.94" y2="229.82"/>
  <line class="cls-1" x1="17.06" y1="243.4" x2="-44.64" y2="222.68"/>
  <line class="cls-1" x1="20.57" y1="235.04" x2="-35.79" y2="216.11"/>
  <line class="cls-1" x1="24.13" y1="226.59" x2="-30.02" y2="208.4"/>
  <g>
    <line class="cls-1" x1="39.42" y1="299.01" x2="-30.42" y2="319.1"/>
    <line class="cls-1" x1="39.98" y1="289.38" x2="-28.47" y2="309.07"/>
    <line class="cls-1" x1="41.29" y1="279.6" x2="-24.91" y2="298.65"/>
    <line class="cls-1" x1="30.36" y1="273.23" x2="-24.54" y2="289.02"/>
  </g>
  <g>
    <line class="cls-1" x1="49.12" y1="315.74" x2="52.1" y2="271.04"/>
    <line class="cls-1" x1="58.32" y1="315.74" x2="61.78" y2="264.6"/>
    <line class="cls-1" x1="67.43" y1="315.74" x2="71.09" y2="261.71"/>
    <line class="cls-1" x1="76.49" y1="316.56" x2="80.4" y2="258.8"/>
    <line class="cls-1" x1="85.42" y1="318.48" x2="89.79" y2="253.85"/>
    <line class="cls-1" x1="94.55" y1="318.92" x2="97.9" y2="269.53"/>
  </g>
  <g>
    <line class="cls-1" x1="139.53" y1="311.82" x2="102.11" y2="297.49"/>
    <line class="cls-1" x1="146.42" y1="304.73" x2="103.91" y2="288.45"/>
    <line class="cls-1" x1="148.71" y1="295.87" x2="105.05" y2="279.15"/>
    <line class="cls-1" x1="150.26" y1="286.78" x2="107.4" y2="270.37"/>
    <line class="cls-1" x1="157.08" y1="279.6" x2="120.25" y2="265.5"/>
    <line class="cls-1" x1="156.13" y1="270.75" x2="147.45" y2="267.43"/>
  </g>
  <line class="cls-1" x1="294.91" y1="57.2" x2="295.76" y2="126.49"/>
  <line class="cls-1" x1="285.75" y1="56.6" x2="286.51" y2="121.32"/>
  <line class="cls-1" x1="276.66" y1="56.02" x2="277.37" y2="120.52"/>
  <line class="cls-1" x1="283.55" y1="203.82" x2="300.34" y2="150.91"/>
  <line class="cls-1" x1="291.99" y1="207.56" x2="310.31" y2="150.03"/>
  <line class="cls-1" x1="300.74" y1="210.02" x2="319.57" y2="150.91"/>
  <line class="cls-1" x1="312.25" y1="268.66" x2="245.1" y2="247.91"/>
  <line class="cls-1" x1="315.33" y1="260.2" x2="243.62" y2="237.84"/>
  <line class="cls-1" x1="315.33" y1="251.8" x2="248.06" y2="229.82"/>
  <line class="cls-1" x1="317.06" y1="243.4" x2="255.36" y2="222.68"/>
  <line class="cls-1" x1="320.57" y1="235.04" x2="264.21" y2="216.11"/>
  <line class="cls-1" x1="324.13" y1="226.59" x2="269.98" y2="208.4"/>
  <g>
    <line class="cls-1" x1="339.42" y1="299.01" x2="269.58" y2="319.1"/>
    <line class="cls-1" x1="339.98" y1="289.38" x2="271.53" y2="309.07"/>
    <line class="cls-1" x1="341.29" y1="279.6" x2="275.09" y2="298.65"/>
    <line class="cls-1" x1="330.36" y1="273.23" x2="275.46" y2="289.02"/>
  </g>
  <g>
    <line class="cls-1" x1="157.67" y1="-12.06" x2="167" y2="18.69"/>
    <line class="cls-1" x1="153.1" y1="5.39" x2="156.01" y2="14.98"/>
    <line class="cls-1" x1="206.25" y1="-42.46" x2="220.55" y2="5.29"/>
    <line class="cls-1" x1="196.87" y1="-42.39" x2="219.12" y2="32.78"/>
    <line class="cls-1" x1="187.34" y1="-43.21" x2="209.44" y2="34.95"/>
    <line class="cls-1" x1="178.43" y1="-41.3" x2="198.49" y2="28.93"/>
    <line class="cls-1" x1="168.88" y1="-42.47" x2="187.68" y2="23.81"/>
    <line class="cls-1" x1="159.59" y1="-41.95" x2="176.67" y2="17.34"/>
  </g>
  <g>
    <line class="cls-1" x1="39.68" y1="17.91" x2="-31.46" y2="38.46"/>
    <line class="cls-1" x1="39.98" y1="8.3" x2="-32.51" y2="29.16"/>
    <line class="cls-1" x1="39.42" y1="-.99" x2="-30.42" y2="19.1"/>
    <line class="cls-1" x1="39.98" y1="-10.62" x2="-28.47" y2="9.07"/>
    <line class="cls-1" x1="41.29" y1="-20.4" x2="-24.91" y2="-1.35"/>
  </g>
  <g>
    <line class="cls-1" x1="49.12" y1="15.74" x2="52.1" y2="-28.96"/>
    <line class="cls-1" x1="58.32" y1="15.74" x2="61.78" y2="-35.4"/>
    <line class="cls-1" x1="67.43" y1="15.74" x2="71.09" y2="-38.29"/>
    <line class="cls-1" x1="76.49" y1="16.56" x2="80.4" y2="-41.2"/>
    <line class="cls-1" x1="85.42" y1="18.48" x2="89.79" y2="-46.15"/>
    <line class="cls-1" x1="94.55" y1="18.92" x2="97.9" y2="-30.47"/>
  </g>
  <g>
    <line class="cls-1" x1="135.86" y1="20.24" x2="102.97" y2="7.68"/>
    <line class="cls-1" x1="139.53" y1="11.82" x2="102.11" y2="-2.51"/>
    <line class="cls-1" x1="146.42" y1="4.73" x2="103.91" y2="-11.55"/>
  </g>
  <g>
    <line class="cls-1" x1="339.68" y1="17.91" x2="268.54" y2="38.46"/>
    <line class="cls-1" x1="339.98" y1="8.3" x2="267.49" y2="29.16"/>
    <line class="cls-1" x1="339.42" y1="-.99" x2="269.58" y2="19.1"/>
    <line class="cls-1" x1="339.98" y1="-10.62" x2="271.53" y2="9.07"/>
    <line class="cls-1" x1="341.29" y1="-20.4" x2="275.09" y2="-1.35"/>
  </g>
  <g>
    <line class="cls-1" x1="274.02" y1="268.15" x2="234.74" y2="302.89"/>
    <line class="cls-1" x1="264" y1="264.8" x2="227.71" y2="296.82"/>
    <line class="cls-1" x1="255.23" y1="260.42" x2="223.51" y2="288.41"/>
    <line class="cls-1" x1="244.37" y1="257.87" x2="221.2" y2="278.32"/>
    <line class="cls-1" x1="235.75" y1="253.43" x2="219.12" y2="268.1"/>
    <line class="cls-1" x1="284.21" y1="271.48" x2="246.28" y2="304.94"/>
  </g>
  <g>
    <line class="cls-1" x1="274.02" y1="-31.85" x2="234.74" y2="2.89"/>
    <line class="cls-1" x1="284.21" y1="-28.52" x2="246.28" y2="4.94"/>
  </g>
  <line class="cls-1" x1="174.31" y1="32.78" x2="180.02" y2="23.81"/>
  <line class="cls-1" x1="180.54" y1="40.1" x2="186.22" y2="31.19"/>
  <line class="cls-1" x1="187.92" y1="45.43" x2="194.75" y2="34.71"/>
  <line class="cls-1" x1="194.75" y1="51.62" x2="203.15" y2="38.46"/>
  <line class="cls-1" x1="199.59" y1="60.85" x2="213.87" y2="38.46"/>
  <line class="cls-1" x1="203.73" y1="69.8" x2="215.94" y2="50.67"/>
  <line class="cls-1" x1="180.61" y1="219.12" x2="203.15" y2="207.33"/>
  <line class="cls-1" x1="182.07" y1="228.65" x2="220.88" y2="208.4"/>
  <line class="cls-1" x1="183.12" y1="238.44" x2="230.41" y2="213.76"/>
  <line class="cls-1" x1="183.97" y1="248.33" x2="241.14" y2="218.49"/>
  <line class="cls-1" x1="202.15" y1="249.17" x2="239.37" y2="229.74"/>
  <line class="cls-1" x1="213.98" y1="253.33" x2="236.6" y2="241.53"/>
  <line class="cls-1" x1="60.39" y1="256.24" x2="27.94" y2="243.26"/>
  <line class="cls-1" x1="47.67" y1="261.16" x2="30.25" y2="254.19"/>
  <line class="cls-1" x1="40.79" y1="267.88" x2="32.93" y2="264.73"/>
  <line class="cls-1" x1="73.07" y1="251.46" x2="30.25" y2="234.28"/>
  <line class="cls-1" x1="82.72" y1="245.54" x2="33.21" y2="225.68"/>
  <line class="cls-1" x1="90.87" y1="239.02" x2="36.77" y2="217.31"/>
  <line class="cls-1" x1="82.41" y1="225.88" x2="38.38" y2="208.22"/>
  <line class="cls-1" x1="78.38" y1="214.41" x2="41.59" y2="199.65"/>
  <line class="cls-1" x1="49.81" y1="178.83" x2="120.09" y2="163.92"/>
  <line class="cls-1" x1="55.73" y1="168.54" x2="85.86" y2="162.15"/>
  <line class="cls-1" x1="45.24" y1="189.15" x2="116.44" y2="174.12"/>
  <line class="cls-1" x1="58.32" y1="195.68" x2="117.66" y2="183.15"/>
  <line class="cls-1" x1="71.09" y1="202.28" x2="117.66" y2="192.45"/>
  <line class="cls-1" x1="85.42" y1="208.49" x2="120.82" y2="201.02"/>
  <line class="cls-1" x1="91.21" y1="216.46" x2="120.09" y2="210.48"/>
</svg>