<svg width="23" height="21" viewBox="0 0 23 21" fill="none" xmlns="http://www.w3.org/2000/svg">
<path d="M20.7 5.18839L11.5 11.6739L2.3 5.18839V2.5942L11.5 9.07969L20.7 2.5942M20.7 0H2.3C1.0235 0 0 1.15442 0 2.5942V18.1594C0 18.8474 0.242321 19.5072 0.673654 19.9938C1.10499 20.4803 1.69 20.7536 2.3 20.7536H20.7C21.31 20.7536 21.895 20.4803 22.3263 19.9938C22.7577 19.5072 23 18.8474 23 18.1594V2.5942C23 1.90617 22.7577 1.24633 22.3263 0.759823C21.895 0.273316 21.31 0 20.7 0Z" fill="#737A92"/>
</svg>
