<svg width="408" height="96" viewBox="0 0 408 96" fill="none" xmlns="http://www.w3.org/2000/svg">
<rect y="64" width="366" height="32" fill="#826D9C"/>
<rect width="394" height="64" fill="#CA3F94"/>
<path d="M23.0043 85V74.8182H29.6264V76.3643H24.8487V79.1286H29.2834V80.6747H24.8487V83.4538H29.6662V85H23.0043ZM31.7086 85V77.3636H33.4288V78.6612H33.5183C33.6774 78.2237 33.9409 77.8823 34.3088 77.6371C34.6767 77.3885 35.1158 77.2642 35.6262 77.2642C36.1433 77.2642 36.5791 77.3902 36.9338 77.642C37.2917 77.8906 37.5436 78.2304 37.6894 78.6612H37.769C37.938 78.237 38.2231 77.8989 38.6241 77.647C39.0285 77.3918 39.5074 77.2642 40.0609 77.2642C40.7635 77.2642 41.3369 77.4863 41.7811 77.9304C42.2252 78.3745 42.4473 79.0225 42.4473 79.8743V85H40.6426V80.1527C40.6426 79.6787 40.5166 79.3324 40.2647 79.1136C40.0128 78.8916 39.7046 78.7805 39.34 78.7805C38.9058 78.7805 38.5661 78.9164 38.3208 79.1882C38.0789 79.4567 37.9579 79.8063 37.9579 80.2372V85H36.193V80.0781C36.193 79.6837 36.0737 79.3688 35.835 79.1335C35.5997 78.8982 35.2915 78.7805 34.9103 78.7805C34.6518 78.7805 34.4165 78.8468 34.2044 78.9794C33.9922 79.1087 33.8232 79.2926 33.6973 79.5312C33.5713 79.7666 33.5083 80.0417 33.5083 80.3565V85H31.7086ZM46.7505 85.1541C46.2666 85.1541 45.8308 85.0679 45.443 84.8956C45.0585 84.7199 44.7536 84.4614 44.5282 84.12C44.3062 83.7786 44.1951 83.3577 44.1951 82.8572C44.1951 82.4264 44.2747 82.0701 44.4338 81.7884C44.5928 81.5066 44.8099 81.2812 45.085 81.1122C45.3601 80.9432 45.67 80.8156 46.0147 80.7294C46.3627 80.6399 46.7223 80.5753 47.0936 80.5355C47.541 80.4891 47.9039 80.4477 48.1823 80.4112C48.4607 80.3714 48.6629 80.3118 48.7889 80.2322C48.9181 80.1494 48.9828 80.0218 48.9828 79.8494V79.8196C48.9828 79.4451 48.8717 79.1551 48.6497 78.9496C48.4276 78.7441 48.1078 78.6413 47.6901 78.6413C47.2493 78.6413 46.8997 78.7375 46.6411 78.9297C46.3859 79.1219 46.2136 79.349 46.1241 79.6108L44.4437 79.3722C44.5763 78.9081 44.795 78.5204 45.0999 78.2088C45.4049 77.8939 45.7777 77.6586 46.2186 77.5028C46.6594 77.3438 47.1466 77.2642 47.6802 77.2642C48.0481 77.2642 48.4143 77.3073 48.7789 77.3935C49.1435 77.4796 49.4766 77.6222 49.7782 77.821C50.0798 78.0166 50.3218 78.2834 50.5041 78.6214C50.6897 78.9595 50.7825 79.3821 50.7825 79.8892V85H49.0524V83.951H48.9927C48.8833 84.1631 48.7292 84.362 48.5303 84.5476C48.3348 84.7299 48.0879 84.8774 47.7896 84.9901C47.4946 85.0994 47.1482 85.1541 46.7505 85.1541ZM47.2178 83.8317C47.5791 83.8317 47.8923 83.7604 48.1575 83.6179C48.4226 83.4721 48.6265 83.2798 48.769 83.0412C48.9148 82.8026 48.9877 82.5424 48.9877 82.2607V81.3608C48.9314 81.4072 48.8353 81.4503 48.6994 81.4901C48.5668 81.5298 48.4177 81.5646 48.2519 81.5945C48.0862 81.6243 47.9222 81.6508 47.7598 81.674C47.5973 81.6972 47.4565 81.7171 47.3372 81.7337C47.0687 81.7701 46.8284 81.8298 46.6163 81.9126C46.4042 81.9955 46.2368 82.1115 46.1142 82.2607C45.9915 82.4065 45.9302 82.5954 45.9302 82.8274C45.9302 83.1589 46.0512 83.4091 46.2931 83.5781C46.5351 83.7472 46.8433 83.8317 47.2178 83.8317ZM52.8721 85V77.3636H54.6719V85H52.8721ZM53.777 76.2798C53.4919 76.2798 53.2467 76.1854 53.0412 75.9964C52.8357 75.8042 52.7329 75.5739 52.7329 75.3054C52.7329 75.0336 52.8357 74.8033 53.0412 74.6143C53.2467 74.4221 53.4919 74.326 53.777 74.326C54.0653 74.326 54.3106 74.4221 54.5128 74.6143C54.7183 74.8033 54.821 75.0336 54.821 75.3054C54.821 75.5739 54.7183 75.8042 54.5128 75.9964C54.3106 76.1854 54.0653 76.2798 53.777 76.2798ZM58.6022 74.8182V85H56.8025V74.8182H58.6022ZM66.683 85.1541C66.1991 85.1541 65.7633 85.0679 65.3755 84.8956C64.991 84.7199 64.6861 84.4614 64.4607 84.12C64.2387 83.7786 64.1276 83.3577 64.1276 82.8572C64.1276 82.4264 64.2072 82.0701 64.3663 81.7884C64.5253 81.5066 64.7424 81.2812 65.0175 81.1122C65.2926 80.9432 65.6025 80.8156 65.9472 80.7294C66.2952 80.6399 66.6548 80.5753 67.0261 80.5355C67.4735 80.4891 67.8364 80.4477 68.1148 80.4112C68.3932 80.3714 68.5954 80.3118 68.7214 80.2322C68.8506 80.1494 68.9153 80.0218 68.9153 79.8494V79.8196C68.9153 79.4451 68.8042 79.1551 68.5822 78.9496C68.3601 78.7441 68.0403 78.6413 67.6226 78.6413C67.1818 78.6413 66.8322 78.7375 66.5736 78.9297C66.3184 79.1219 66.1461 79.349 66.0566 79.6108L64.3762 79.3722C64.5088 78.9081 64.7275 78.5204 65.0325 78.2088C65.3374 77.8939 65.7102 77.6586 66.1511 77.5028C66.5919 77.3438 67.0791 77.2642 67.6127 77.2642C67.9806 77.2642 68.3468 77.3073 68.7114 77.3935C69.076 77.4796 69.4091 77.6222 69.7107 77.821C70.0123 78.0166 70.2543 78.2834 70.4366 78.6214C70.6222 78.9595 70.715 79.3821 70.715 79.8892V85H68.9849V83.951H68.9252C68.8158 84.1631 68.6617 84.362 68.4628 84.5476C68.2673 84.7299 68.0204 84.8774 67.7221 84.9901C67.4271 85.0994 67.0807 85.1541 66.683 85.1541ZM67.1503 83.8317C67.5116 83.8317 67.8248 83.7604 68.09 83.6179C68.3551 83.4721 68.559 83.2798 68.7015 83.0412C68.8473 82.8026 68.9202 82.5424 68.9202 82.2607V81.3608C68.8639 81.4072 68.7678 81.4503 68.6319 81.4901C68.4993 81.5298 68.3502 81.5646 68.1844 81.5945C68.0187 81.6243 67.8547 81.6508 67.6923 81.674C67.5298 81.6972 67.389 81.7171 67.2697 81.7337C67.0012 81.7701 66.7609 81.8298 66.5488 81.9126C66.3367 81.9955 66.1693 82.1115 66.0467 82.2607C65.924 82.4065 65.8627 82.5954 65.8627 82.8274C65.8627 83.1589 65.9837 83.4091 66.2256 83.5781C66.4676 83.7472 66.7758 83.8317 67.1503 83.8317ZM74.6044 74.8182V85H72.8046V74.8182H74.6044ZM80.1157 85.1491C79.3501 85.1491 78.6889 84.9901 78.132 84.6719C77.5785 84.3504 77.1526 83.8963 76.8543 83.3097C76.5561 82.7197 76.4069 82.0253 76.4069 81.2266C76.4069 80.4411 76.5561 79.7517 76.8543 79.1584C77.156 78.5618 77.5769 78.0978 78.1171 77.7663C78.6574 77.4316 79.2921 77.2642 80.0213 77.2642C80.4919 77.2642 80.936 77.3404 81.3536 77.4929C81.7746 77.642 82.1458 77.8741 82.4673 78.1889C82.7921 78.5038 83.0473 78.9048 83.2329 79.392C83.4185 79.8759 83.5113 80.4527 83.5113 81.1222V81.674H77.2521V80.4609H81.7862C81.7829 80.1162 81.7083 79.8097 81.5624 79.5412C81.4166 79.2694 81.2128 79.0556 80.9509 78.8999C80.6924 78.7441 80.3908 78.6662 80.0461 78.6662C79.6782 78.6662 79.3551 78.7557 79.0766 78.9347C78.7982 79.1103 78.5811 79.3423 78.4254 79.6307C78.2729 79.9157 78.195 80.2289 78.1917 80.5703V81.6293C78.1917 82.0734 78.2729 82.4545 78.4353 82.7727C78.5977 83.0876 78.8248 83.3295 79.1164 83.4986C79.4081 83.6643 79.7495 83.7472 80.1406 83.7472C80.4024 83.7472 80.6394 83.7107 80.8515 83.6378C81.0636 83.5616 81.2476 83.4505 81.4034 83.3047C81.5591 83.1589 81.6768 82.9782 81.7563 82.7628L83.4367 82.9517C83.3307 83.3958 83.1285 83.7836 82.8302 84.1151C82.5352 84.4432 82.1574 84.6984 81.6967 84.8807C81.236 85.0597 80.709 85.1491 80.1157 85.1491ZM85.3139 85V77.3636H87.0589V78.6364H87.1384C87.2776 78.1955 87.5163 77.8558 87.8543 77.6172C88.1957 77.3752 88.5852 77.2543 89.0227 77.2543C89.1221 77.2543 89.2331 77.2592 89.3558 77.2692C89.4817 77.2758 89.5861 77.2874 89.669 77.304V78.9595C89.5927 78.933 89.4718 78.9098 89.306 78.8899C89.1436 78.8667 88.9862 78.8551 88.8337 78.8551C88.5056 78.8551 88.2106 78.9264 87.9488 79.0689C87.6903 79.2081 87.4864 79.402 87.3373 79.6506C87.1881 79.8991 87.1136 80.1858 87.1136 80.5107V85H85.3139ZM95.368 77.3636V78.7557H90.9781V77.3636H95.368ZM92.0619 75.5341H93.8616V82.7031C93.8616 82.9451 93.8981 83.1307 93.971 83.2599C94.0472 83.3859 94.1467 83.4721 94.2693 83.5185C94.3919 83.5649 94.5278 83.5881 94.677 83.5881C94.7896 83.5881 94.8924 83.5798 94.9852 83.5632C95.0813 83.5466 95.1542 83.5317 95.2039 83.5185L95.5072 84.9254C95.4111 84.9586 95.2735 84.995 95.0946 85.0348C94.9189 85.0746 94.7035 85.0978 94.4483 85.1044C93.9975 85.1177 93.5915 85.0497 93.2302 84.9006C92.869 84.7481 92.5823 84.5128 92.3701 84.1946C92.1613 83.8764 92.0586 83.4787 92.0619 83.0014V75.5341ZM103.079 79.3821L101.439 79.5611C101.392 79.3954 101.311 79.2396 101.195 79.0938C101.082 78.9479 100.93 78.8303 100.738 78.7408C100.545 78.6513 100.31 78.6065 100.032 78.6065C99.6572 78.6065 99.3423 78.6877 99.0871 78.8501C98.8352 79.0125 98.7109 79.223 98.7142 79.4815C98.7109 79.7036 98.7921 79.8842 98.9578 80.0234C99.1269 80.1626 99.4053 80.277 99.7931 80.3665L101.096 80.6449C101.818 80.8007 102.355 81.0476 102.706 81.3857C103.061 81.7237 103.24 82.1662 103.243 82.7131C103.24 83.1937 103.099 83.6179 102.821 83.9858C102.546 84.3504 102.163 84.6354 101.672 84.8409C101.182 85.0464 100.618 85.1491 99.982 85.1491C99.0473 85.1491 98.295 84.9536 97.7249 84.5625C97.1548 84.1681 96.8151 83.6196 96.7057 82.9169L98.4607 82.7479C98.5402 83.0926 98.7093 83.3527 98.9678 83.5284C99.2263 83.7041 99.5627 83.7919 99.977 83.7919C100.405 83.7919 100.748 83.7041 101.006 83.5284C101.268 83.3527 101.399 83.1357 101.399 82.8771C101.399 82.6584 101.314 82.4777 101.145 82.3352C100.98 82.1927 100.721 82.0833 100.37 82.0071L99.0672 81.7337C98.3347 81.5812 97.7928 81.3243 97.4415 80.9631C97.0902 80.5985 96.9162 80.1378 96.9195 79.581C96.9162 79.1103 97.0438 78.7027 97.3023 78.358C97.5641 78.0099 97.9271 77.7415 98.3911 77.5526C98.8584 77.3603 99.397 77.2642 100.007 77.2642C100.902 77.2642 101.606 77.4548 102.12 77.8359C102.637 78.2171 102.957 78.7325 103.079 79.3821ZM112.091 85.1491C111.345 85.1491 110.699 84.9851 110.152 84.657C109.605 84.3288 109.181 83.8698 108.879 83.2798C108.581 82.6899 108.432 82.0005 108.432 81.2116C108.432 80.4228 108.581 79.7318 108.879 79.1385C109.181 78.5452 109.605 78.0845 110.152 77.7564C110.699 77.4283 111.345 77.2642 112.091 77.2642C112.837 77.2642 113.483 77.4283 114.03 77.7564C114.577 78.0845 114.999 78.5452 115.298 79.1385C115.599 79.7318 115.75 80.4228 115.75 81.2116C115.75 82.0005 115.599 82.6899 115.298 83.2798C114.999 83.8698 114.577 84.3288 114.03 84.657C113.483 84.9851 112.837 85.1491 112.091 85.1491ZM112.101 83.7074C112.505 83.7074 112.843 83.5964 113.115 83.3743C113.387 83.1489 113.589 82.8473 113.722 82.4695C113.858 82.0916 113.926 81.6707 113.926 81.2067C113.926 80.7393 113.858 80.3168 113.722 79.9389C113.589 79.5578 113.387 79.2545 113.115 79.0291C112.843 78.8037 112.505 78.6911 112.101 78.6911C111.687 78.6911 111.342 78.8037 111.067 79.0291C110.795 79.2545 110.591 79.5578 110.455 79.9389C110.323 80.3168 110.256 80.7393 110.256 81.2067C110.256 81.6707 110.323 82.0916 110.455 82.4695C110.591 82.8473 110.795 83.1489 111.067 83.3743C111.342 83.5964 111.687 83.7074 112.101 83.7074ZM121.426 77.3636V78.7557H116.911V77.3636H121.426ZM118.04 85V76.6428C118.04 76.129 118.146 75.7015 118.358 75.3601C118.573 75.0187 118.862 74.7635 119.223 74.5945C119.584 74.4254 119.985 74.3409 120.426 74.3409C120.738 74.3409 121.015 74.3658 121.256 74.4155C121.498 74.4652 121.677 74.5099 121.793 74.5497L121.435 75.9418C121.359 75.9186 121.263 75.8954 121.147 75.8722C121.031 75.8456 120.902 75.8324 120.759 75.8324C120.425 75.8324 120.188 75.9136 120.048 76.076C119.912 76.2351 119.845 76.4638 119.845 76.7621V85H118.04ZM126.868 87.8636V77.3636H128.637V78.6264H128.742C128.835 78.4408 128.966 78.2436 129.135 78.0348C129.304 77.8227 129.532 77.642 129.821 77.4929C130.109 77.3404 130.477 77.2642 130.924 77.2642C131.514 77.2642 132.046 77.415 132.52 77.7166C132.998 78.0149 133.375 78.4574 133.654 79.044C133.936 79.6274 134.076 80.3433 134.076 81.1918C134.076 82.0303 133.939 82.7429 133.664 83.3295C133.389 83.9162 133.014 84.3636 132.54 84.6719C132.066 84.9801 131.529 85.1342 130.929 85.1342C130.492 85.1342 130.129 85.0613 129.841 84.9155C129.552 84.7696 129.32 84.594 129.145 84.3885C128.972 84.1797 128.838 83.9825 128.742 83.7969H128.667V87.8636H126.868ZM128.633 81.1818C128.633 81.6757 128.702 82.1082 128.841 82.4794C128.984 82.8506 129.188 83.1406 129.453 83.3494C129.721 83.5549 130.046 83.6577 130.427 83.6577C130.825 83.6577 131.158 83.5516 131.427 83.3395C131.695 83.1241 131.897 82.8307 132.033 82.4595C132.172 82.085 132.242 81.6591 132.242 81.1818C132.242 80.7079 132.174 80.2869 132.038 79.919C131.902 79.5511 131.7 79.2628 131.432 79.054C131.163 78.8452 130.828 78.7408 130.427 78.7408C130.043 78.7408 129.716 78.8419 129.448 79.044C129.179 79.2462 128.976 79.5296 128.836 79.8942C128.7 80.2588 128.633 80.688 128.633 81.1818ZM137.697 74.8182V85H135.898V74.8182H137.697ZM142.025 85.1541C141.542 85.1541 141.106 85.0679 140.718 84.8956C140.333 84.7199 140.029 84.4614 139.803 84.12C139.581 83.7786 139.47 83.3577 139.47 82.8572C139.47 82.4264 139.55 82.0701 139.709 81.7884C139.868 81.5066 140.085 81.2812 140.36 81.1122C140.635 80.9432 140.945 80.8156 141.29 80.7294C141.638 80.6399 141.997 80.5753 142.368 80.5355C142.816 80.4891 143.179 80.4477 143.457 80.4112C143.736 80.3714 143.938 80.3118 144.064 80.2322C144.193 80.1494 144.258 80.0218 144.258 79.8494V79.8196C144.258 79.4451 144.147 79.1551 143.925 78.9496C143.703 78.7441 143.383 78.6413 142.965 78.6413C142.524 78.6413 142.175 78.7375 141.916 78.9297C141.661 79.1219 141.489 79.349 141.399 79.6108L139.719 79.3722C139.851 78.9081 140.07 78.5204 140.375 78.2088C140.68 77.8939 141.053 77.6586 141.493 77.5028C141.934 77.3438 142.422 77.2642 142.955 77.2642C143.323 77.2642 143.689 77.3073 144.054 77.3935C144.418 77.4796 144.752 77.6222 145.053 77.821C145.355 78.0166 145.597 78.2834 145.779 78.6214C145.965 78.9595 146.057 79.3821 146.057 79.8892V85H144.327V83.951H144.268C144.158 84.1631 144.004 84.362 143.805 84.5476C143.61 84.7299 143.363 84.8774 143.065 84.9901C142.77 85.0994 142.423 85.1541 142.025 85.1541ZM142.493 83.8317C142.854 83.8317 143.167 83.7604 143.432 83.6179C143.698 83.4721 143.901 83.2798 144.044 83.0412C144.19 82.8026 144.263 82.5424 144.263 82.2607V81.3608C144.206 81.4072 144.11 81.4503 143.974 81.4901C143.842 81.5298 143.693 81.5646 143.527 81.5945C143.361 81.6243 143.197 81.6508 143.035 81.674C142.872 81.6972 142.731 81.7171 142.612 81.7337C142.344 81.7701 142.103 81.8298 141.891 81.9126C141.679 81.9955 141.512 82.1115 141.389 82.2607C141.266 82.4065 141.205 82.5954 141.205 82.8274C141.205 83.1589 141.326 83.4091 141.568 83.5781C141.81 83.7472 142.118 83.8317 142.493 83.8317ZM149.947 80.5256V85H148.147V77.3636H149.867V78.6612H149.957C150.132 78.2337 150.412 77.8939 150.797 77.642C151.185 77.3902 151.664 77.2642 152.234 77.2642C152.761 77.2642 153.22 77.3769 153.611 77.6023C154.005 77.8277 154.31 78.1541 154.526 78.5817C154.744 79.0092 154.852 79.5279 154.849 80.1378V85H153.049V80.4162C153.049 79.9058 152.916 79.5064 152.651 79.218C152.389 78.9297 152.027 78.7855 151.563 78.7855C151.248 78.7855 150.968 78.8551 150.722 78.9943C150.48 79.1302 150.29 79.3274 150.151 79.5859C150.015 79.8445 149.947 80.1577 149.947 80.5256ZM158.758 80.5256V85H156.958V77.3636H158.678V78.6612H158.768C158.944 78.2337 159.224 77.8939 159.608 77.642C159.996 77.3902 160.475 77.2642 161.045 77.2642C161.572 77.2642 162.031 77.3769 162.422 77.6023C162.817 77.8277 163.121 78.1541 163.337 78.5817C163.556 79.0092 163.663 79.5279 163.66 80.1378V85H161.86V80.4162C161.86 79.9058 161.728 79.5064 161.463 79.218C161.201 78.9297 160.838 78.7855 160.374 78.7855C160.059 78.7855 159.779 78.8551 159.534 78.9943C159.292 79.1302 159.101 79.3274 158.962 79.5859C158.826 79.8445 158.758 80.1577 158.758 80.5256ZM165.77 85V77.3636H167.569V85H165.77ZM166.674 76.2798C166.389 76.2798 166.144 76.1854 165.939 75.9964C165.733 75.8042 165.63 75.5739 165.63 75.3054C165.63 75.0336 165.733 74.8033 165.939 74.6143C166.144 74.4221 166.389 74.326 166.674 74.326C166.963 74.326 167.208 74.4221 167.41 74.6143C167.616 74.8033 167.718 75.0336 167.718 75.3054C167.718 75.5739 167.616 75.8042 167.41 75.9964C167.208 76.1854 166.963 76.2798 166.674 76.2798ZM171.5 80.5256V85H169.7V77.3636H171.42V78.6612H171.51C171.685 78.2337 171.965 77.8939 172.35 77.642C172.738 77.3902 173.217 77.2642 173.787 77.2642C174.314 77.2642 174.773 77.3769 175.164 77.6023C175.558 77.8277 175.863 78.1541 176.079 78.5817C176.297 79.0092 176.405 79.5279 176.402 80.1378V85H174.602V80.4162C174.602 79.9058 174.469 79.5064 174.204 79.218C173.942 78.9297 173.579 78.7855 173.115 78.7855C172.801 78.7855 172.521 78.8551 172.275 78.9943C172.033 79.1302 171.843 79.3274 171.704 79.5859C171.568 79.8445 171.5 80.1577 171.5 80.5256ZM181.832 88.0227C181.186 88.0227 180.631 87.9349 180.167 87.7592C179.703 87.5869 179.33 87.3549 179.048 87.0632C178.766 86.7715 178.571 86.4484 178.461 86.0938L180.082 85.701C180.155 85.8501 180.261 85.9976 180.4 86.1435C180.54 86.2926 180.727 86.4152 180.962 86.5114C181.201 86.6108 181.501 86.6605 181.862 86.6605C182.372 86.6605 182.795 86.5362 183.13 86.2876C183.465 86.0424 183.632 85.638 183.632 85.0746V83.6278H183.542C183.45 83.8134 183.314 84.004 183.135 84.1996C182.959 84.3951 182.725 84.5592 182.434 84.6918C182.145 84.8243 181.783 84.8906 181.345 84.8906C180.758 84.8906 180.226 84.7531 179.749 84.478C179.275 84.1996 178.897 83.7853 178.616 83.2351C178.337 82.6816 178.198 81.9889 178.198 81.157C178.198 80.3184 178.337 79.6108 178.616 79.0341C178.897 78.4541 179.277 78.0149 179.754 77.7166C180.231 77.415 180.763 77.2642 181.35 77.2642C181.797 77.2642 182.165 77.3404 182.454 77.4929C182.745 77.642 182.977 77.8227 183.15 78.0348C183.322 78.2436 183.453 78.4408 183.542 78.6264H183.642V77.3636H185.417V85.1243C185.417 85.7772 185.261 86.3175 184.949 86.745C184.638 87.1726 184.212 87.4924 183.672 87.7045C183.131 87.9167 182.518 88.0227 181.832 88.0227ZM181.847 83.4787C182.228 83.4787 182.553 83.3859 182.822 83.2003C183.09 83.0147 183.294 82.7479 183.433 82.3999C183.572 82.0518 183.642 81.6342 183.642 81.147C183.642 80.6664 183.572 80.2455 183.433 79.8842C183.297 79.523 183.095 79.2429 182.827 79.044C182.561 78.8419 182.235 78.7408 181.847 78.7408C181.446 78.7408 181.111 78.8452 180.843 79.054C180.574 79.2628 180.372 79.5495 180.236 79.9141C180.1 80.2753 180.033 80.6863 180.033 81.147C180.033 81.6143 180.1 82.0237 180.236 82.375C180.376 82.723 180.579 82.9948 180.848 83.1903C181.12 83.3826 181.453 83.4787 181.847 83.4787ZM193.491 85.1541C193.007 85.1541 192.572 85.0679 192.184 84.8956C191.799 84.7199 191.494 84.4614 191.269 84.12C191.047 83.7786 190.936 83.3577 190.936 82.8572C190.936 82.4264 191.015 82.0701 191.175 81.7884C191.334 81.5066 191.551 81.2812 191.826 81.1122C192.101 80.9432 192.411 80.8156 192.756 80.7294C193.104 80.6399 193.463 80.5753 193.834 80.5355C194.282 80.4891 194.645 80.4477 194.923 80.4112C195.202 80.3714 195.404 80.3118 195.53 80.2322C195.659 80.1494 195.724 80.0218 195.724 79.8494V79.8196C195.724 79.4451 195.613 79.1551 195.39 78.9496C195.168 78.7441 194.849 78.6413 194.431 78.6413C193.99 78.6413 193.64 78.7375 193.382 78.9297C193.127 79.1219 192.954 79.349 192.865 79.6108L191.184 79.3722C191.317 78.9081 191.536 78.5204 191.841 78.2088C192.146 77.8939 192.519 77.6586 192.959 77.5028C193.4 77.3438 193.887 77.2642 194.421 77.2642C194.789 77.2642 195.155 77.3073 195.52 77.3935C195.884 77.4796 196.217 77.6222 196.519 77.821C196.821 78.0166 197.063 78.2834 197.245 78.6214C197.43 78.9595 197.523 79.3821 197.523 79.8892V85H195.793V83.951H195.733C195.624 84.1631 195.47 84.362 195.271 84.5476C195.076 84.7299 194.829 84.8774 194.53 84.9901C194.235 85.0994 193.889 85.1541 193.491 85.1541ZM193.959 83.8317C194.32 83.8317 194.633 83.7604 194.898 83.6179C195.163 83.4721 195.367 83.2798 195.51 83.0412C195.656 82.8026 195.729 82.5424 195.729 82.2607V81.3608C195.672 81.4072 195.576 81.4503 195.44 81.4901C195.308 81.5298 195.158 81.5646 194.993 81.5945C194.827 81.6243 194.663 81.6508 194.501 81.674C194.338 81.6972 194.197 81.7171 194.078 81.7337C193.809 81.7701 193.569 81.8298 193.357 81.9126C193.145 81.9955 192.978 82.1115 192.855 82.2607C192.732 82.4065 192.671 82.5954 192.671 82.8274C192.671 83.1589 192.792 83.4091 193.034 83.5781C193.276 83.7472 193.584 83.8317 193.959 83.8317ZM199.613 87.8636V77.3636H201.383V78.6264H201.487C201.58 78.4408 201.711 78.2436 201.88 78.0348C202.049 77.8227 202.278 77.642 202.566 77.4929C202.854 77.3404 203.222 77.2642 203.67 77.2642C204.26 77.2642 204.792 77.415 205.266 77.7166C205.743 78.0149 206.121 78.4574 206.399 79.044C206.681 79.6274 206.822 80.3433 206.822 81.1918C206.822 82.0303 206.684 82.7429 206.409 83.3295C206.134 83.9162 205.759 84.3636 205.286 84.6719C204.812 84.9801 204.275 85.1342 203.675 85.1342C203.237 85.1342 202.874 85.0613 202.586 84.9155C202.298 84.7696 202.066 84.594 201.89 84.3885C201.718 84.1797 201.583 83.9825 201.487 83.7969H201.413V87.8636H199.613ZM201.378 81.1818C201.378 81.6757 201.447 82.1082 201.587 82.4794C201.729 82.8506 201.933 83.1406 202.198 83.3494C202.467 83.5549 202.791 83.6577 203.173 83.6577C203.57 83.6577 203.903 83.5516 204.172 83.3395C204.44 83.1241 204.643 82.8307 204.778 82.4595C204.918 82.085 204.987 81.6591 204.987 81.1818C204.987 80.7079 204.919 80.2869 204.783 79.919C204.647 79.5511 204.445 79.2628 204.177 79.054C203.908 78.8452 203.574 78.7408 203.173 78.7408C202.788 78.7408 202.462 78.8419 202.193 79.044C201.925 79.2462 201.721 79.5296 201.582 79.8942C201.446 80.2588 201.378 80.688 201.378 81.1818ZM208.643 87.8636V77.3636H210.413V78.6264H210.517C210.61 78.4408 210.741 78.2436 210.91 78.0348C211.079 77.8227 211.308 77.642 211.596 77.4929C211.884 77.3404 212.252 77.2642 212.7 77.2642C213.29 77.2642 213.822 77.415 214.296 77.7166C214.773 78.0149 215.151 78.4574 215.429 79.044C215.711 79.6274 215.852 80.3433 215.852 81.1918C215.852 82.0303 215.714 82.7429 215.439 83.3295C215.164 83.9162 214.789 84.3636 214.316 84.6719C213.842 84.9801 213.305 85.1342 212.705 85.1342C212.267 85.1342 211.904 85.0613 211.616 84.9155C211.328 84.7696 211.096 84.594 210.92 84.3885C210.748 84.1797 210.613 83.9825 210.517 83.7969H210.443V87.8636H208.643ZM210.408 81.1818C210.408 81.6757 210.477 82.1082 210.617 82.4794C210.759 82.8506 210.963 83.1406 211.228 83.3494C211.497 83.5549 211.821 83.6577 212.203 83.6577C212.6 83.6577 212.933 83.5516 213.202 83.3395C213.47 83.1241 213.673 82.8307 213.808 82.4595C213.948 82.085 214.017 81.6591 214.017 81.1818C214.017 80.7079 213.949 80.2869 213.813 79.919C213.677 79.5511 213.475 79.2628 213.207 79.054C212.938 78.8452 212.604 78.7408 212.203 78.7408C211.818 78.7408 211.492 78.8419 211.223 79.044C210.955 79.2462 210.751 79.5296 210.612 79.8942C210.476 80.2588 210.408 80.688 210.408 81.1818ZM219.473 74.8182V85H217.673V74.8182H219.473ZM221.603 85V77.3636H223.403V85H221.603ZM222.508 76.2798C222.223 76.2798 221.978 76.1854 221.772 75.9964C221.567 75.8042 221.464 75.5739 221.464 75.3054C221.464 75.0336 221.567 74.8033 221.772 74.6143C221.978 74.4221 222.223 74.326 222.508 74.326C222.796 74.326 223.042 74.4221 223.244 74.6143C223.449 74.8033 223.552 75.0336 223.552 75.3054C223.552 75.5739 223.449 75.8042 223.244 75.9964C223.042 76.1854 222.796 76.2798 222.508 76.2798ZM228.865 85.1491C228.102 85.1491 227.448 84.9818 226.901 84.647C226.357 84.3123 225.938 83.8499 225.643 83.2599C225.351 82.6667 225.206 81.9839 225.206 81.2116C225.206 80.4361 225.355 79.7517 225.653 79.1584C225.951 78.5618 226.372 78.0978 226.916 77.7663C227.463 77.4316 228.109 77.2642 228.855 77.2642C229.475 77.2642 230.023 77.3786 230.5 77.6072C230.981 77.8326 231.364 78.1525 231.649 78.5668C231.934 78.9777 232.096 79.4583 232.136 80.0085H230.416C230.346 79.6406 230.18 79.334 229.919 79.0888C229.66 78.8402 229.314 78.7159 228.88 78.7159C228.512 78.7159 228.189 78.8153 227.91 79.0142C227.632 79.2098 227.415 79.4915 227.259 79.8594C227.106 80.2273 227.03 80.6681 227.03 81.1818C227.03 81.7022 227.106 82.1496 227.259 82.5241C227.411 82.8954 227.625 83.1821 227.9 83.3842C228.179 83.5831 228.505 83.6825 228.88 83.6825C229.145 83.6825 229.382 83.6328 229.591 83.5334C229.803 83.4306 229.98 83.2831 230.122 83.0909C230.265 82.8987 230.363 82.665 230.416 82.3899H232.136C232.093 82.9302 231.934 83.4091 231.659 83.8267C231.384 84.241 231.009 84.5658 230.535 84.8011C230.061 85.0331 229.504 85.1491 228.865 85.1491ZM236.091 85.1541C235.607 85.1541 235.171 85.0679 234.784 84.8956C234.399 84.7199 234.094 84.4614 233.869 84.12C233.647 83.7786 233.536 83.3577 233.536 82.8572C233.536 82.4264 233.615 82.0701 233.774 81.7884C233.934 81.5066 234.151 81.2812 234.426 81.1122C234.701 80.9432 235.011 80.8156 235.355 80.7294C235.703 80.6399 236.063 80.5753 236.434 80.5355C236.882 80.4891 237.245 80.4477 237.523 80.4112C237.801 80.3714 238.004 80.3118 238.13 80.2322C238.259 80.1494 238.323 80.0218 238.323 79.8494V79.8196C238.323 79.4451 238.212 79.1551 237.99 78.9496C237.768 78.7441 237.448 78.6413 237.031 78.6413C236.59 78.6413 236.24 78.7375 235.982 78.9297C235.727 79.1219 235.554 79.349 235.465 79.6108L233.784 79.3722C233.917 78.9081 234.136 78.5204 234.441 78.2088C234.746 77.8939 235.118 77.6586 235.559 77.5028C236 77.3438 236.487 77.2642 237.021 77.2642C237.389 77.2642 237.755 77.3073 238.12 77.3935C238.484 77.4796 238.817 77.6222 239.119 77.821C239.421 78.0166 239.662 78.2834 239.845 78.6214C240.03 78.9595 240.123 79.3821 240.123 79.8892V85H238.393V83.951H238.333C238.224 84.1631 238.07 84.362 237.871 84.5476C237.675 84.7299 237.429 84.8774 237.13 84.9901C236.835 85.0994 236.489 85.1541 236.091 85.1541ZM236.559 83.8317C236.92 83.8317 237.233 83.7604 237.498 83.6179C237.763 83.4721 237.967 83.2798 238.11 83.0412C238.256 82.8026 238.328 82.5424 238.328 82.2607V81.3608C238.272 81.4072 238.176 81.4503 238.04 81.4901C237.908 81.5298 237.758 81.5646 237.593 81.5945C237.427 81.6243 237.263 81.6508 237.1 81.674C236.938 81.6972 236.797 81.7171 236.678 81.7337C236.409 81.7701 236.169 81.8298 235.957 81.9126C235.745 81.9955 235.577 82.1115 235.455 82.2607C235.332 82.4065 235.271 82.5954 235.271 82.8274C235.271 83.1589 235.392 83.4091 235.634 83.5781C235.876 83.7472 236.184 83.8317 236.559 83.8317ZM246.026 77.3636V78.7557H241.636V77.3636H246.026ZM242.72 75.5341H244.52V82.7031C244.52 82.9451 244.556 83.1307 244.629 83.2599C244.705 83.3859 244.805 83.4721 244.927 83.5185C245.05 83.5649 245.186 83.5881 245.335 83.5881C245.448 83.5881 245.55 83.5798 245.643 83.5632C245.739 83.5466 245.812 83.5317 245.862 83.5185L246.165 84.9254C246.069 84.9586 245.932 84.995 245.753 85.0348C245.577 85.0746 245.362 85.0978 245.106 85.1044C244.656 85.1177 244.25 85.0497 243.888 84.9006C243.527 84.7481 243.24 84.5128 243.028 84.1946C242.819 83.8764 242.717 83.4787 242.72 83.0014V75.5341ZM247.811 85V77.3636H249.611V85H247.811ZM248.716 76.2798C248.431 76.2798 248.186 76.1854 247.98 75.9964C247.775 75.8042 247.672 75.5739 247.672 75.3054C247.672 75.0336 247.775 74.8033 247.98 74.6143C248.186 74.4221 248.431 74.326 248.716 74.326C249.004 74.326 249.25 74.4221 249.452 74.6143C249.657 74.8033 249.76 75.0336 249.76 75.3054C249.76 75.5739 249.657 75.8042 249.452 75.9964C249.25 76.1854 249.004 76.2798 248.716 76.2798ZM255.073 85.1491C254.327 85.1491 253.681 84.9851 253.134 84.657C252.587 84.3288 252.163 83.8698 251.861 83.2798C251.563 82.6899 251.413 82.0005 251.413 81.2116C251.413 80.4228 251.563 79.7318 251.861 79.1385C252.163 78.5452 252.587 78.0845 253.134 77.7564C253.681 77.4283 254.327 77.2642 255.073 77.2642C255.818 77.2642 256.465 77.4283 257.011 77.7564C257.558 78.0845 257.981 78.5452 258.279 79.1385C258.581 79.7318 258.732 80.4228 258.732 81.2116C258.732 82.0005 258.581 82.6899 258.279 83.2798C257.981 83.8698 257.558 84.3288 257.011 84.657C256.465 84.9851 255.818 85.1491 255.073 85.1491ZM255.083 83.7074C255.487 83.7074 255.825 83.5964 256.097 83.3743C256.368 83.1489 256.571 82.8473 256.703 82.4695C256.839 82.0916 256.907 81.6707 256.907 81.2067C256.907 80.7393 256.839 80.3168 256.703 79.9389C256.571 79.5578 256.368 79.2545 256.097 79.0291C255.825 78.8037 255.487 78.6911 255.083 78.6911C254.668 78.6911 254.324 78.8037 254.048 79.0291C253.777 79.2545 253.573 79.5578 253.437 79.9389C253.304 80.3168 253.238 80.7393 253.238 81.2067C253.238 81.6707 253.304 82.0916 253.437 82.4695C253.573 82.8473 253.777 83.1489 254.048 83.3743C254.324 83.5964 254.668 83.7074 255.083 83.7074ZM262.339 80.5256V85H260.539V77.3636H262.259V78.6612H262.349C262.524 78.2337 262.805 77.8939 263.189 77.642C263.577 77.3902 264.056 77.2642 264.626 77.2642C265.153 77.2642 265.612 77.3769 266.003 77.6023C266.397 77.8277 266.702 78.1541 266.918 78.5817C267.136 79.0092 267.244 79.5279 267.241 80.1378V85H265.441V80.4162C265.441 79.9058 265.309 79.5064 265.043 79.218C264.782 78.9297 264.419 78.7855 263.955 78.7855C263.64 78.7855 263.36 78.8551 263.114 78.9943C262.873 79.1302 262.682 79.3274 262.543 79.5859C262.407 79.8445 262.339 80.1577 262.339 80.5256ZM275.386 79.3821L273.745 79.5611C273.699 79.3954 273.618 79.2396 273.502 79.0938C273.389 78.9479 273.237 78.8303 273.044 78.7408C272.852 78.6513 272.617 78.6065 272.338 78.6065C271.964 78.6065 271.649 78.6877 271.394 78.8501C271.142 79.0125 271.018 79.223 271.021 79.4815C271.018 79.7036 271.099 79.8842 271.264 80.0234C271.434 80.1626 271.712 80.277 272.1 80.3665L273.402 80.6449C274.125 80.8007 274.662 81.0476 275.013 81.3857C275.368 81.7237 275.547 82.1662 275.55 82.7131C275.547 83.1937 275.406 83.6179 275.127 83.9858C274.852 84.3504 274.47 84.6354 273.979 84.8409C273.488 85.0464 272.925 85.1491 272.289 85.1491C271.354 85.1491 270.602 84.9536 270.032 84.5625C269.461 84.1681 269.122 83.6196 269.012 82.9169L270.767 82.7479C270.847 83.0926 271.016 83.3527 271.274 83.5284C271.533 83.7041 271.869 83.7919 272.284 83.7919C272.711 83.7919 273.054 83.7041 273.313 83.5284C273.575 83.3527 273.706 83.1357 273.706 82.8771C273.706 82.6584 273.621 82.4777 273.452 82.3352C273.286 82.1927 273.028 82.0833 272.676 82.0071L271.374 81.7337C270.641 81.5812 270.099 81.3243 269.748 80.9631C269.397 80.5985 269.223 80.1378 269.226 79.581C269.223 79.1103 269.35 78.7027 269.609 78.358C269.871 78.0099 270.234 77.7415 270.698 77.5526C271.165 77.3603 271.704 77.2642 272.313 77.2642C273.208 77.2642 273.913 77.4548 274.426 77.8359C274.943 78.2171 275.263 78.7325 275.386 79.3821ZM282.866 80.5256V85H281.067V77.3636H282.787V78.6612H282.876C283.052 78.2337 283.332 77.8939 283.717 77.642C284.104 77.3902 284.583 77.2642 285.153 77.2642C285.68 77.2642 286.139 77.3769 286.53 77.6023C286.925 77.8277 287.23 78.1541 287.445 78.5817C287.664 79.0092 287.772 79.5279 287.768 80.1378V85H285.969V80.4162C285.969 79.9058 285.836 79.5064 285.571 79.218C285.309 78.9297 284.946 78.7855 284.482 78.7855C284.167 78.7855 283.887 78.8551 283.642 78.9943C283.4 79.1302 283.209 79.3274 283.07 79.5859C282.934 79.8445 282.866 80.1577 282.866 80.5256ZM293.259 85.1491C292.493 85.1491 291.832 84.9901 291.275 84.6719C290.721 84.3504 290.296 83.8963 289.997 83.3097C289.699 82.7197 289.55 82.0253 289.55 81.2266C289.55 80.4411 289.699 79.7517 289.997 79.1584C290.299 78.5618 290.72 78.0978 291.26 77.7663C291.8 77.4316 292.435 77.2642 293.164 77.2642C293.635 77.2642 294.079 77.3404 294.497 77.4929C294.917 77.642 295.289 77.8741 295.61 78.1889C295.935 78.5038 296.19 78.9048 296.376 79.392C296.561 79.8759 296.654 80.4527 296.654 81.1222V81.674H290.395V80.4609H294.929C294.926 80.1162 294.851 79.8097 294.705 79.5412C294.56 79.2694 294.356 79.0556 294.094 78.8999C293.835 78.7441 293.534 78.6662 293.189 78.6662C292.821 78.6662 292.498 78.7557 292.22 78.9347C291.941 79.1103 291.724 79.3423 291.568 79.6307C291.416 79.9157 291.338 80.2289 291.335 80.5703V81.6293C291.335 82.0734 291.416 82.4545 291.578 82.7727C291.741 83.0876 291.968 83.3295 292.259 83.4986C292.551 83.6643 292.892 83.7472 293.283 83.7472C293.545 83.7472 293.782 83.7107 293.994 83.6378C294.207 83.5616 294.39 83.4505 294.546 83.3047C294.702 83.1589 294.82 82.9782 294.899 82.7628L296.58 82.9517C296.474 83.3958 296.271 83.7836 295.973 84.1151C295.678 84.4432 295.3 84.6984 294.84 84.8807C294.379 85.0597 293.852 85.1491 293.259 85.1491ZM300.654 85.1541C300.17 85.1541 299.734 85.0679 299.347 84.8956C298.962 84.7199 298.657 84.4614 298.432 84.12C298.21 83.7786 298.099 83.3577 298.099 82.8572C298.099 82.4264 298.178 82.0701 298.337 81.7884C298.497 81.5066 298.714 81.2812 298.989 81.1122C299.264 80.9432 299.574 80.8156 299.918 80.7294C300.266 80.6399 300.626 80.5753 300.997 80.5355C301.445 80.4891 301.808 80.4477 302.086 80.4112C302.364 80.3714 302.567 80.3118 302.693 80.2322C302.822 80.1494 302.886 80.0218 302.886 79.8494V79.8196C302.886 79.4451 302.775 79.1551 302.553 78.9496C302.331 78.7441 302.011 78.6413 301.594 78.6413C301.153 78.6413 300.803 78.7375 300.545 78.9297C300.29 79.1219 300.117 79.349 300.028 79.6108L298.347 79.3722C298.48 78.9081 298.699 78.5204 299.004 78.2088C299.309 77.8939 299.681 77.6586 300.122 77.5028C300.563 77.3438 301.05 77.2642 301.584 77.2642C301.952 77.2642 302.318 77.3073 302.683 77.3935C303.047 77.4796 303.38 77.6222 303.682 77.821C303.984 78.0166 304.225 78.2834 304.408 78.6214C304.593 78.9595 304.686 79.3821 304.686 79.8892V85H302.956V83.951H302.896C302.787 84.1631 302.633 84.362 302.434 84.5476C302.238 84.7299 301.992 84.8774 301.693 84.9901C301.398 85.0994 301.052 85.1541 300.654 85.1541ZM301.122 83.8317C301.483 83.8317 301.796 83.7604 302.061 83.6179C302.326 83.4721 302.53 83.2798 302.673 83.0412C302.819 82.8026 302.891 82.5424 302.891 82.2607V81.3608C302.835 81.4072 302.739 81.4503 302.603 81.4901C302.47 81.5298 302.321 81.5646 302.156 81.5945C301.99 81.6243 301.826 81.6508 301.663 81.674C301.501 81.6972 301.36 81.7171 301.241 81.7337C300.972 81.7701 300.732 81.8298 300.52 81.9126C300.308 81.9955 300.14 82.1115 300.018 82.2607C299.895 82.4065 299.834 82.5954 299.834 82.8274C299.834 83.1589 299.955 83.4091 300.197 83.5781C300.439 83.7472 300.747 83.8317 301.122 83.8317ZM306.776 85V77.3636H308.521V78.6364H308.6C308.74 78.1955 308.978 77.8558 309.316 77.6172C309.658 77.3752 310.047 77.2543 310.485 77.2543C310.584 77.2543 310.695 77.2592 310.818 77.2692C310.944 77.2758 311.048 77.2874 311.131 77.304V78.9595C311.055 78.933 310.934 78.9098 310.768 78.8899C310.606 78.8667 310.448 78.8551 310.296 78.8551C309.968 78.8551 309.673 78.9264 309.411 79.0689C309.152 79.2081 308.948 79.402 308.799 79.6506C308.65 79.8991 308.576 80.1858 308.576 80.5107V85H306.776ZM317.478 87.8636C317.233 87.8636 317.006 87.8438 316.797 87.804C316.591 87.7675 316.427 87.7244 316.305 87.6747L316.722 86.2727C316.984 86.349 317.218 86.3854 317.423 86.3821C317.629 86.3788 317.809 86.3142 317.965 86.1882C318.124 86.0656 318.258 85.8601 318.368 85.5717L318.522 85.1591L315.753 77.3636H317.662L319.422 83.1307H319.501L321.266 77.3636H323.18L320.123 85.9247C319.98 86.3291 319.791 86.6754 319.556 86.9638C319.321 87.2554 319.032 87.4775 318.691 87.63C318.353 87.7857 317.949 87.8636 317.478 87.8636ZM327.777 85.1491C327.031 85.1491 326.385 84.9851 325.838 84.657C325.291 84.3288 324.867 83.8698 324.565 83.2798C324.267 82.6899 324.118 82.0005 324.118 81.2116C324.118 80.4228 324.267 79.7318 324.565 79.1385C324.867 78.5452 325.291 78.0845 325.838 77.7564C326.385 77.4283 327.031 77.2642 327.777 77.2642C328.523 77.2642 329.169 77.4283 329.716 77.7564C330.263 78.0845 330.685 78.5452 330.984 79.1385C331.285 79.7318 331.436 80.4228 331.436 81.2116C331.436 82.0005 331.285 82.6899 330.984 83.2798C330.685 83.8698 330.263 84.3288 329.716 84.657C329.169 84.9851 328.523 85.1491 327.777 85.1491ZM327.787 83.7074C328.191 83.7074 328.529 83.5964 328.801 83.3743C329.073 83.1489 329.275 82.8473 329.408 82.4695C329.543 82.0916 329.611 81.6707 329.611 81.2067C329.611 80.7393 329.543 80.3168 329.408 79.9389C329.275 79.5578 329.073 79.2545 328.801 79.0291C328.529 78.8037 328.191 78.6911 327.787 78.6911C327.373 78.6911 327.028 78.8037 326.753 79.0291C326.481 79.2545 326.277 79.5578 326.141 79.9389C326.009 80.3168 325.942 80.7393 325.942 81.2067C325.942 81.6707 326.009 82.0916 326.141 82.4695C326.277 82.8473 326.481 83.1489 326.753 83.3743C327.028 83.5964 327.373 83.7074 327.787 83.7074ZM338.111 81.7884V77.3636H339.91V85H338.165V83.6428H338.086C337.913 84.0703 337.63 84.42 337.236 84.6918C336.845 84.9635 336.362 85.0994 335.789 85.0994C335.288 85.0994 334.846 84.9884 334.462 84.7663C334.08 84.541 333.782 84.2145 333.567 83.7869C333.351 83.3561 333.243 82.8357 333.243 82.2259V77.3636H335.043V81.9474C335.043 82.4313 335.176 82.8158 335.441 83.1009C335.706 83.3859 336.054 83.5284 336.485 83.5284C336.75 83.5284 337.007 83.4638 337.256 83.3345C337.504 83.2053 337.708 83.013 337.867 82.7578C338.029 82.4993 338.111 82.1761 338.111 81.7884Z" fill="white"/>
<path d="M23.532 50V16.5455H37.3516C39.8563 16.5455 42.018 17.0355 43.8366 18.0156C45.6662 18.9848 47.0765 20.3407 48.0675 22.0831C49.0585 23.8146 49.554 25.8293 49.554 28.1271C49.554 30.4358 49.0476 32.456 48.0348 34.1875C47.0329 35.9081 45.6009 37.2422 43.7386 38.1896C41.8764 39.1371 39.6657 39.6108 37.1065 39.6108H28.5795V33.2401H35.6037C36.8234 33.2401 37.8416 33.0277 38.6584 32.603C39.486 32.1783 40.1122 31.5848 40.5369 30.8224C40.9616 30.0492 41.174 29.1508 41.174 28.1271C41.174 27.0926 40.9616 26.1996 40.5369 25.4482C40.1122 24.6858 39.486 24.0978 38.6584 23.6839C37.8307 23.2701 36.8125 23.0632 35.6037 23.0632H31.6179V50H23.532ZM61.5277 16.5455V50H53.5398V16.5455H61.5277ZM73.6852 50.4247C72.0843 50.4247 70.6632 50.1579 69.4217 49.6243C68.1911 49.0798 67.2164 48.263 66.4977 47.174C65.7898 46.0741 65.4359 44.6965 65.4359 43.0412C65.4359 41.6473 65.6809 40.4711 66.171 39.5128C66.661 38.5545 67.3362 37.7758 68.1966 37.1768C69.0569 36.5779 70.0479 36.1259 71.1696 35.821C72.2913 35.5052 73.4892 35.2928 74.7633 35.1839C76.1899 35.0533 77.3388 34.9171 78.2101 34.7756C79.0813 34.6231 79.7129 34.4107 80.1049 34.1385C80.5079 33.8553 80.7093 33.4579 80.7093 32.946V32.8643C80.7093 32.0258 80.4208 31.3778 79.8436 30.9205C79.2664 30.4631 78.4877 30.2344 77.5076 30.2344C76.4513 30.2344 75.6019 30.4631 74.9593 30.9205C74.3168 31.3778 73.9084 32.0095 73.7342 32.8153L66.367 32.554C66.5848 31.0294 67.1457 29.6681 68.0495 28.4702C68.9643 27.2614 70.2167 26.3139 71.8066 25.6278C73.4075 24.9309 75.3296 24.5824 77.573 24.5824C79.1738 24.5824 80.6494 24.773 81.9998 25.1541C83.3502 25.5244 84.5263 26.0689 85.5282 26.7876C86.5301 27.4955 87.3033 28.3667 87.8478 29.4013C88.4032 30.4358 88.6809 31.6174 88.6809 32.946V50H81.1667V46.5043H80.9707C80.5242 47.3537 79.9525 48.0724 79.2555 48.6605C78.5694 49.2486 77.7581 49.6896 76.8216 49.9837C75.8959 50.2777 74.8504 50.4247 73.6852 50.4247ZM76.1518 45.1974C77.0121 45.1974 77.7853 45.0232 78.4714 44.6747C79.1684 44.3262 79.7238 43.8471 80.1376 43.2372C80.5514 42.6165 80.7583 41.8977 80.7583 41.081V38.696C80.5297 38.8158 80.252 38.9247 79.9252 39.0227C79.6094 39.1207 79.2609 39.2133 78.8798 39.3004C78.4986 39.3875 78.1066 39.4638 77.7037 39.5291C77.3007 39.5945 76.9141 39.6544 76.5439 39.7088C75.7924 39.8286 75.1499 40.0137 74.6163 40.2642C74.0936 40.5147 73.6906 40.8414 73.4075 41.2443C73.1352 41.6364 72.9991 42.1046 72.9991 42.6491C72.9991 43.4768 73.2931 44.1084 73.8812 44.544C74.4802 44.9796 75.237 45.1974 76.1518 45.1974ZM101.553 35.6903V50H93.5652V24.9091H101.161V29.5156H101.439C101.994 27.9801 102.942 26.7768 104.281 25.9055C105.621 25.0234 107.216 24.5824 109.067 24.5824C110.831 24.5824 112.362 24.9799 113.657 25.7749C114.964 26.5589 115.977 27.6589 116.696 29.0746C117.425 30.4794 117.785 32.1238 117.774 34.0078V50H109.786V35.576C109.797 34.1821 109.443 33.093 108.724 32.3089C108.016 31.5249 107.031 31.1328 105.768 31.1328C104.929 31.1328 104.189 31.3179 103.546 31.6882C102.914 32.0476 102.424 32.5649 102.076 33.2401C101.738 33.9152 101.564 34.732 101.553 35.6903ZM130.707 35.6903V50H122.719V24.9091H130.315V29.5156H130.593C131.148 27.9801 132.096 26.7768 133.435 25.9055C134.775 25.0234 136.37 24.5824 138.222 24.5824C139.986 24.5824 141.516 24.9799 142.812 25.7749C144.119 26.5589 145.131 27.6589 145.85 29.0746C146.58 30.4794 146.939 32.1238 146.928 34.0078V50H138.94V35.576C138.951 34.1821 138.597 33.093 137.879 32.3089C137.171 31.5249 136.185 31.1328 134.922 31.1328C134.083 31.1328 133.343 31.3179 132.7 31.6882C132.069 32.0476 131.579 32.5649 131.23 33.2401C130.893 33.9152 130.718 34.732 130.707 35.6903ZM151.874 50V24.9091H159.862V50H151.874ZM155.876 21.9851C154.754 21.9851 153.79 21.6148 152.985 20.8743C152.179 20.1229 151.776 19.219 151.776 18.1626C151.776 17.1172 152.179 16.2242 152.985 15.4837C153.79 14.7322 154.754 14.3565 155.876 14.3565C157.008 14.3565 157.972 14.7322 158.767 15.4837C159.573 16.2242 159.976 17.1172 159.976 18.1626C159.976 19.219 159.573 20.1229 158.767 20.8743C157.972 21.6148 157.008 21.9851 155.876 21.9851ZM172.934 35.6903V50H164.946V24.9091H172.542V29.5156H172.82C173.375 27.9801 174.322 26.7768 175.662 25.9055C177.001 25.0234 178.597 24.5824 180.448 24.5824C182.212 24.5824 183.742 24.9799 185.038 25.7749C186.345 26.5589 187.358 27.6589 188.077 29.0746C188.806 30.4794 189.166 32.1238 189.155 34.0078V50H181.167V35.576C181.178 34.1821 180.824 33.093 180.105 32.3089C179.397 31.5249 178.412 31.1328 177.148 31.1328C176.31 31.1328 175.569 31.3179 174.927 31.6882C174.295 32.0476 173.805 32.5649 173.457 33.2401C173.119 33.9152 172.945 34.732 172.934 35.6903ZM205.796 59.9318C203.411 59.9318 201.369 59.5997 199.671 58.9354C197.972 58.2711 196.638 57.3617 195.669 56.2074C194.699 55.053 194.117 53.7462 193.921 52.2869L201.484 51.8622C201.625 52.3741 201.887 52.8205 202.268 53.2017C202.66 53.5829 203.166 53.8769 203.787 54.0838C204.419 54.2907 205.159 54.3942 206.009 54.3942C207.348 54.3942 208.454 54.0675 209.325 53.4141C210.207 52.7715 210.648 51.6444 210.648 50.0327V45.6222H210.37C210.054 46.3954 209.575 47.0869 208.933 47.6967C208.29 48.3066 207.49 48.7857 206.531 49.1342C205.584 49.4827 204.495 49.657 203.264 49.657C201.435 49.657 199.758 49.2322 198.233 48.3828C196.719 47.5225 195.505 46.1939 194.59 44.397C193.686 42.5893 193.235 40.2642 193.235 37.4219C193.235 34.4924 193.703 32.0803 194.639 30.1854C195.576 28.2796 196.801 26.8693 198.315 25.9545C199.839 25.0398 201.478 24.5824 203.232 24.5824C204.549 24.5824 205.677 24.8111 206.613 25.2685C207.561 25.715 208.339 26.2921 208.949 27C209.559 27.7079 210.022 28.4429 210.338 29.2053H210.566V24.9091H218.521V50.098C218.521 52.2216 217.988 54.013 216.921 55.4723C215.853 56.9316 214.361 58.0369 212.445 58.7884C210.528 59.5507 208.312 59.9318 205.796 59.9318ZM206.041 43.8416C207.011 43.8416 207.838 43.5857 208.524 43.0739C209.21 42.562 209.739 41.8269 210.109 40.8686C210.479 39.9103 210.664 38.7614 210.664 37.4219C210.664 36.0606 210.479 34.8899 210.109 33.9098C209.749 32.9188 209.221 32.1565 208.524 31.6229C207.838 31.0893 207.011 30.8224 206.041 30.8224C205.05 30.8224 204.212 31.0947 203.526 31.6392C202.84 32.1837 202.317 32.9515 201.958 33.9425C201.609 34.9226 201.435 36.0824 201.435 37.4219C201.435 38.7614 201.615 39.9103 201.974 40.8686C202.333 41.8269 202.851 42.562 203.526 43.0739C204.212 43.5857 205.05 43.8416 206.041 43.8416ZM240.733 50H232.043L243.331 16.5455H254.096L265.383 50H256.693L248.836 24.9744H248.574L240.733 50ZM239.574 36.8338H257.738V42.9759H239.574V36.8338ZM276.973 16.5455V50H268.985V16.5455H276.973ZM293.786 50.4737C291.162 50.4737 288.896 49.9564 286.991 48.9219C285.096 47.8764 283.636 46.3899 282.613 44.4624C281.6 42.5239 281.094 40.2206 281.094 37.5526C281.094 34.9607 281.605 32.6955 282.629 30.7571C283.653 28.8078 285.096 27.294 286.958 26.2159C288.82 25.1269 291.015 24.5824 293.541 24.5824C295.327 24.5824 296.961 24.8601 298.442 25.4155C299.923 25.9709 301.202 26.7931 302.28 27.8821C303.358 28.9711 304.197 30.3161 304.796 31.9169C305.395 33.5069 305.694 35.331 305.694 37.3892V39.3821H283.887V34.7429H298.262C298.251 33.8935 298.05 33.1366 297.657 32.4723C297.265 31.808 296.726 31.2907 296.04 30.9205C295.365 30.5393 294.586 30.3487 293.704 30.3487C292.811 30.3487 292.011 30.5502 291.303 30.9531C290.595 31.3452 290.034 31.8842 289.621 32.5703C289.207 33.2455 288.989 34.0133 288.967 34.8736V39.5945C288.967 40.6181 289.169 41.5166 289.572 42.2898C289.974 43.0521 290.546 43.6456 291.287 44.0703C292.027 44.495 292.909 44.7074 293.933 44.7074C294.641 44.7074 295.283 44.6094 295.861 44.4134C296.438 44.2173 296.933 43.9287 297.347 43.5476C297.761 43.1664 298.071 42.6982 298.278 42.1428L305.613 42.3551C305.308 43.9995 304.638 45.4316 303.604 46.6513C302.58 47.8601 301.235 48.8021 299.569 49.4773C297.903 50.1416 295.975 50.4737 293.786 50.4737ZM309.774 50V24.9091H317.533V29.483H317.795C318.252 27.8277 318.998 26.5971 320.033 25.7912C321.067 24.9744 322.271 24.5661 323.643 24.5661C324.013 24.5661 324.394 24.5933 324.786 24.6477C325.178 24.6913 325.543 24.7621 325.881 24.8601V31.8026C325.5 31.6719 324.999 31.5684 324.378 31.4922C323.768 31.416 323.223 31.3778 322.744 31.3778C321.797 31.3778 320.942 31.5902 320.18 32.0149C319.428 32.4287 318.835 33.0114 318.399 33.7628C317.974 34.5033 317.762 35.3745 317.762 36.3764V50H309.774ZM344.466 24.9091V30.7898H328.637V24.9091H344.466ZM331.953 18.8977H339.941V42.1101C339.941 42.6001 340.017 42.9976 340.17 43.3026C340.333 43.5966 340.567 43.8089 340.872 43.9396C341.177 44.0594 341.542 44.1193 341.967 44.1193C342.272 44.1193 342.593 44.0921 342.931 44.0376C343.279 43.9723 343.54 43.9179 343.715 43.8743L344.923 49.6406C344.542 49.7495 344.003 49.8857 343.306 50.049C342.62 50.2124 341.798 50.3158 340.84 50.3594C338.967 50.4465 337.36 50.2287 336.021 49.706C334.692 49.1723 333.674 48.3447 332.966 47.223C332.269 46.1013 331.932 44.6911 331.953 42.9922V18.8977ZM370.133 32.5703L362.798 32.7663C362.722 32.2436 362.515 31.7808 362.178 31.3778C361.84 30.964 361.399 30.6428 360.854 30.4141C360.321 30.1745 359.7 30.0547 358.992 30.0547C358.067 30.0547 357.277 30.2398 356.624 30.6101C355.981 30.9803 355.665 31.4813 355.676 32.1129C355.665 32.603 355.861 33.0277 356.264 33.3871C356.678 33.7464 357.413 34.035 358.469 34.2528L363.305 35.1676C365.809 35.6468 367.672 36.4418 368.891 37.5526C370.122 38.6634 370.743 40.1335 370.754 41.9631C370.743 43.6837 370.231 45.1811 369.218 46.4553C368.216 47.7294 366.844 48.7204 365.102 49.4283C363.359 50.1252 361.366 50.4737 359.123 50.4737C355.54 50.4737 352.714 49.7386 350.645 48.2685C348.587 46.7874 347.411 44.8054 347.116 42.3224L355.006 42.1264C355.181 43.0412 355.633 43.7382 356.362 44.2173C357.092 44.6965 358.023 44.9361 359.156 44.9361C360.179 44.9361 361.012 44.7455 361.655 44.3643C362.297 43.9832 362.624 43.4768 362.635 42.8452C362.624 42.2789 362.374 41.8269 361.884 41.4893C361.393 41.1409 360.626 40.8686 359.58 40.6726L355.202 39.8395C352.687 39.3821 350.814 38.5381 349.583 37.3075C348.353 36.0661 347.743 34.487 347.754 32.5703C347.743 30.8932 348.189 29.4612 349.093 28.2741C349.997 27.0762 351.282 26.1615 352.948 25.5298C354.614 24.8982 356.58 24.5824 358.845 24.5824C362.243 24.5824 364.922 25.2957 366.882 26.7223C368.842 28.138 369.926 30.0874 370.133 32.5703Z" fill="#EEEEEE"/>
</svg>
