<svg width="379" height="50" viewBox="0 0 379 50" fill="none" xmlns="http://www.w3.org/2000/svg">
<path d="M0.752131 39V2.63636H15.7734C18.496 2.63636 20.8456 3.16903 22.8224 4.23438C24.8111 5.28788 26.344 6.7616 27.4212 8.65554C28.4983 10.5376 29.0369 12.7275 29.0369 15.2251C29.0369 17.7346 28.4865 19.9304 27.3857 21.8125C26.2966 23.6828 24.7401 25.1328 22.7159 26.1626C20.6918 27.1925 18.2888 27.7074 15.5071 27.7074H6.23864V20.7827H13.8736C15.1993 20.7827 16.3061 20.5518 17.1939 20.0902C18.0935 19.6286 18.7741 18.9834 19.2358 18.1548C19.6974 17.3144 19.9283 16.3378 19.9283 15.2251C19.9283 14.1006 19.6974 13.13 19.2358 12.3132C18.7741 11.4846 18.0935 10.8454 17.1939 10.3956C16.2943 9.94579 15.1875 9.72088 13.8736 9.72088H9.54119V39H0.752131ZM42.0518 2.63636V39H33.3693V2.63636H42.0518ZM55.2665 39.4616C53.5265 39.4616 51.9817 39.1716 50.6323 38.5916C49.2947 37.9998 48.2353 37.112 47.454 35.9283C46.6846 34.7327 46.2999 33.2353 46.2999 31.4361C46.2999 29.9209 46.5662 28.6425 47.0989 27.6009C47.6316 26.5592 48.3655 25.7128 49.3006 25.0618C50.2357 24.4107 51.3129 23.9195 52.5321 23.5881C53.7514 23.2448 55.0534 23.014 56.4384 22.8956C57.9891 22.7536 59.2379 22.6056 60.1848 22.4517C61.1318 22.286 61.8184 22.0552 62.2445 21.7592C62.6825 21.4515 62.9015 21.0194 62.9015 20.4631V20.3743C62.9015 19.4628 62.5878 18.7585 61.9604 18.2614C61.333 17.7642 60.4867 17.5156 59.4213 17.5156C58.2731 17.5156 57.3498 17.7642 56.6515 18.2614C55.9531 18.7585 55.5092 19.4451 55.3198 20.321L47.312 20.0369C47.5487 18.3797 48.1583 16.9001 49.1408 15.598C50.1351 14.2841 51.4964 13.2543 53.2246 12.5085C54.9647 11.7509 57.0539 11.3722 59.4924 11.3722C61.2324 11.3722 62.8364 11.5793 64.3042 11.9936C65.772 12.3961 67.0504 12.9879 68.1394 13.7692C69.2284 14.5386 70.0688 15.4856 70.6607 16.6101C71.2644 17.7346 71.5662 19.0189 71.5662 20.4631V39H63.3986V35.2003H63.1855C62.7002 36.1236 62.0788 36.9048 61.3212 37.544C60.5755 38.1832 59.6936 38.6626 58.6756 38.9822C57.6694 39.3018 56.5331 39.4616 55.2665 39.4616ZM57.9476 33.7798C58.8828 33.7798 59.7232 33.5904 60.4689 33.2116C61.2265 32.8329 61.8302 32.312 62.28 31.6491C62.7298 30.9744 62.9547 30.1932 62.9547 29.3054V26.7131C62.7061 26.8433 62.4043 26.9616 62.0492 27.0682C61.7059 27.1747 61.3271 27.2753 60.9128 27.37C60.4985 27.4647 60.0724 27.5476 59.6344 27.6186C59.1964 27.6896 58.7762 27.7547 58.3738 27.8139C57.557 27.9441 56.8586 28.1454 56.2786 28.4176C55.7104 28.6899 55.2724 29.045 54.9647 29.483C54.6687 29.9091 54.5208 30.4181 54.5208 31.0099C54.5208 31.9096 54.8404 32.5961 55.4796 33.0696C56.1306 33.5431 56.9533 33.7798 57.9476 33.7798ZM85.5577 23.446V39H76.8752V11.7273H85.1316V16.7344H85.4334C86.0371 15.0653 87.0669 13.7573 88.5229 12.8104C89.9789 11.8516 91.713 11.3722 93.7253 11.3722C95.6429 11.3722 97.306 11.8042 98.7147 12.6683C100.135 13.5206 101.236 14.7161 102.017 16.255C102.81 17.782 103.201 19.5694 103.189 21.6172V39H94.5066V23.3217C94.5184 21.8066 94.1337 20.6229 93.3525 19.7706C92.583 18.9183 91.5118 18.4922 90.1387 18.4922C89.2272 18.4922 88.4223 18.6934 87.7239 19.0959C87.0373 19.4865 86.5047 20.0488 86.1259 20.7827C85.7589 21.5166 85.5695 22.4044 85.5577 23.446ZM117.247 23.446V39H108.565V11.7273H116.821V16.7344H117.123C117.727 15.0653 118.756 13.7573 120.212 12.8104C121.668 11.8516 123.402 11.3722 125.415 11.3722C127.332 11.3722 128.996 11.8042 130.404 12.6683C131.825 13.5206 132.925 14.7161 133.707 16.255C134.5 17.782 134.89 19.5694 134.879 21.6172V39H126.196V23.3217C126.208 21.8066 125.823 20.6229 125.042 19.7706C124.272 18.9183 123.201 18.4922 121.828 18.4922C120.917 18.4922 120.112 18.6934 119.413 19.0959C118.727 19.4865 118.194 20.0488 117.815 20.7827C117.448 21.5166 117.259 22.4044 117.247 23.446ZM140.254 39V11.7273H148.937V39H140.254ZM144.604 8.54901C143.385 8.54901 142.337 8.14654 141.461 7.34162C140.586 6.52486 140.148 5.54238 140.148 4.39418C140.148 3.25781 140.586 2.28717 141.461 1.48224C142.337 0.665481 143.385 0.2571 144.604 0.2571C145.835 0.2571 146.883 0.665481 147.747 1.48224C148.623 2.28717 149.061 3.25781 149.061 4.39418C149.061 5.54238 148.623 6.52486 147.747 7.34162C146.883 8.14654 145.835 8.54901 144.604 8.54901ZM163.146 23.446V39H154.463V11.7273H162.719V16.7344H163.021C163.625 15.0653 164.655 13.7573 166.111 12.8104C167.567 11.8516 169.301 11.3722 171.313 11.3722C173.231 11.3722 174.894 11.8042 176.303 12.6683C177.723 13.5206 178.824 14.7161 179.605 16.255C180.398 17.782 180.789 19.5694 180.777 21.6172V39H172.094V23.3217C172.106 21.8066 171.722 20.6229 170.94 19.7706C170.171 18.9183 169.1 18.4922 167.727 18.4922C166.815 18.4922 166.01 18.6934 165.312 19.0959C164.625 19.4865 164.093 20.0488 163.714 20.7827C163.347 21.5166 163.157 22.4044 163.146 23.446ZM198.866 49.7955C196.273 49.7955 194.054 49.4344 192.207 48.7124C190.361 47.9903 188.911 47.0019 187.857 45.7472C186.804 44.4924 186.17 43.072 185.957 41.4858L194.178 41.0241C194.332 41.5805 194.616 42.0658 195.03 42.4801C195.456 42.8944 196.007 43.214 196.682 43.4389C197.368 43.6638 198.173 43.7763 199.096 43.7763C200.552 43.7763 201.754 43.4212 202.701 42.7109C203.66 42.0125 204.139 40.7874 204.139 39.0355V34.2415H203.837C203.494 35.0819 202.973 35.8336 202.275 36.4964C201.576 37.1593 200.706 37.6802 199.665 38.0589C198.635 38.4377 197.451 38.6271 196.113 38.6271C194.125 38.6271 192.302 38.1655 190.645 37.2422C188.999 36.3071 187.68 34.8629 186.685 32.9098C185.703 30.9448 185.211 28.4176 185.211 25.3281C185.211 22.1439 185.72 19.522 186.738 17.4624C187.756 15.3909 189.088 13.858 190.733 12.8636C192.391 11.8693 194.172 11.3722 196.078 11.3722C197.51 11.3722 198.735 11.6207 199.753 12.1179C200.783 12.6032 201.63 13.2306 202.292 14C202.955 14.7694 203.458 15.5684 203.802 16.397H204.05V11.7273H212.697V39.1065C212.697 41.4148 212.117 43.362 210.957 44.9482C209.797 46.5343 208.175 47.7358 206.092 48.5526C204.009 49.3812 201.6 49.7955 198.866 49.7955ZM199.132 32.3061C200.185 32.3061 201.085 32.0279 201.831 31.4716C202.577 30.9152 203.151 30.1162 203.553 29.0746C203.956 28.0329 204.157 26.7841 204.157 25.3281C204.157 23.8485 203.956 22.576 203.553 21.5107C203.162 20.4335 202.588 19.6049 201.831 19.0249C201.085 18.4448 200.185 18.1548 199.132 18.1548C198.055 18.1548 197.143 18.4508 196.398 19.0426C195.652 19.6345 195.084 20.469 194.693 21.5462C194.314 22.6115 194.125 23.8722 194.125 25.3281C194.125 26.7841 194.32 28.0329 194.711 29.0746C195.101 30.1162 195.664 30.9152 196.398 31.4716C197.143 32.0279 198.055 32.3061 199.132 32.3061ZM236.841 39H227.395L239.664 2.63636H251.365L263.634 39H254.188L245.647 11.7983H245.363L236.841 39ZM235.58 24.6889H255.324V31.3651H235.58V24.6889ZM276.232 2.63636V39H267.549V2.63636H276.232ZM294.507 39.5149C291.654 39.5149 289.192 38.9527 287.12 37.8281C285.061 36.6918 283.474 35.076 282.362 32.9808C281.261 30.8738 280.71 28.3703 280.71 25.4702C280.71 22.6529 281.267 20.1908 282.379 18.0838C283.492 15.965 285.061 14.3196 287.085 13.1477C289.109 11.964 291.494 11.3722 294.24 11.3722C296.182 11.3722 297.957 11.674 299.567 12.2777C301.177 12.8814 302.568 13.7751 303.74 14.9588C304.911 16.1425 305.823 17.6044 306.474 19.3445C307.125 21.0727 307.45 23.0554 307.45 25.2926V27.4588H283.747V22.4162H299.372C299.36 21.4929 299.141 20.6702 298.715 19.9482C298.289 19.2261 297.703 18.6638 296.957 18.2614C296.223 17.8471 295.377 17.6399 294.418 17.6399C293.447 17.6399 292.577 17.8589 291.808 18.2969C291.038 18.723 290.429 19.3089 289.979 20.0547C289.529 20.7886 289.292 21.6231 289.269 22.5582V27.6896C289.269 28.8023 289.488 29.7789 289.926 30.6193C290.364 31.4479 290.985 32.093 291.79 32.5547C292.595 33.0163 293.554 33.2472 294.666 33.2472C295.436 33.2472 296.134 33.1406 296.762 32.9276C297.389 32.7145 297.927 32.4008 298.377 31.9865C298.827 31.5722 299.164 31.0632 299.389 30.4595L307.362 30.6903C307.03 32.4777 306.302 34.0343 305.178 35.3601C304.065 36.674 302.603 37.6979 300.792 38.4318C298.981 39.1539 296.886 39.5149 294.507 39.5149ZM311.885 39V11.7273H320.319V16.6989H320.603C321.1 14.8996 321.911 13.562 323.036 12.6861C324.16 11.7983 325.468 11.3544 326.96 11.3544C327.362 11.3544 327.776 11.384 328.202 11.4432C328.629 11.4905 329.025 11.5675 329.392 11.674V19.2202C328.978 19.0781 328.433 18.9657 327.759 18.8828C327.096 18.8 326.504 18.7585 325.983 18.7585C324.953 18.7585 324.024 18.9893 323.195 19.451C322.379 19.9008 321.733 20.5341 321.26 21.3509C320.798 22.1558 320.567 23.1027 320.567 24.1918V39H311.885ZM349.594 11.7273V18.1193H332.388V11.7273H349.594ZM335.993 5.19318H344.675V30.424C344.675 30.9567 344.758 31.3887 344.924 31.7202C345.101 32.0398 345.356 32.2706 345.687 32.4126C346.019 32.5429 346.415 32.608 346.877 32.608C347.208 32.608 347.558 32.5784 347.925 32.5192C348.303 32.4482 348.587 32.389 348.777 32.3416L350.091 38.6094C349.676 38.7277 349.09 38.8757 348.333 39.0533C347.587 39.2308 346.693 39.3433 345.652 39.3906C343.616 39.4853 341.87 39.2486 340.414 38.6804C338.97 38.1004 337.863 37.2008 337.094 35.9815C336.336 34.7623 335.969 33.2294 335.993 31.3828V5.19318ZM377.492 20.0547L369.52 20.2678C369.437 19.6996 369.212 19.1965 368.845 18.7585C368.478 18.3087 367.999 17.9595 367.407 17.7109C366.827 17.4505 366.152 17.3203 365.383 17.3203C364.377 17.3203 363.518 17.5215 362.808 17.924C362.11 18.3265 361.767 18.871 361.778 19.5575C361.767 20.0902 361.98 20.5518 362.418 20.9425C362.867 21.3331 363.666 21.6468 364.815 21.8835L370.07 22.8778C372.793 23.3987 374.817 24.2628 376.143 25.4702C377.48 26.6776 378.155 28.2756 378.167 30.2642C378.155 32.1345 377.599 33.7621 376.498 35.147C375.409 36.532 373.917 37.6091 372.023 38.3786C370.129 39.1361 367.963 39.5149 365.525 39.5149C361.63 39.5149 358.559 38.7159 356.31 37.1179C354.072 35.508 352.794 33.3537 352.474 30.6548L361.05 30.4418C361.24 31.4361 361.731 32.1937 362.524 32.7145C363.317 33.2353 364.329 33.4957 365.56 33.4957C366.673 33.4957 367.579 33.2886 368.277 32.8743C368.975 32.46 369.33 31.9096 369.342 31.223C369.33 30.6075 369.058 30.1162 368.526 29.7493C367.993 29.3705 367.158 29.0746 366.022 28.8615L361.263 27.956C358.529 27.4588 356.493 26.5414 355.156 25.2038C353.818 23.8544 353.155 22.138 353.167 20.0547C353.155 18.2318 353.64 16.6752 354.623 15.3849C355.605 14.0829 357.002 13.0885 358.813 12.402C360.624 11.7154 362.761 11.3722 365.223 11.3722C368.916 11.3722 371.828 12.1475 373.959 13.6982C376.089 15.237 377.267 17.3558 377.492 20.0547Z" fill="#414860"/>
</svg>
