<svg width="38" height="37" viewBox="0 0 38 37" fill="none" xmlns="http://www.w3.org/2000/svg">
<path d="M18.6938 37C28.9679 37 37.2977 28.7167 37.2977 18.5C37.2977 8.28255 28.9679 0 18.6938 0C8.41893 0 0.0898438 8.28255 0.0898438 18.5C0.0898438 28.7167 8.41893 37 18.6938 37Z" fill="#BFB2CF"/>
<path opacity="0.2" d="M17.6886 27.9307C17.2975 27.9307 16.9258 27.7855 16.6524 27.5033L10.1707 21.0578C9.59414 20.4845 9.59414 19.5607 10.1707 18.997C10.7473 18.4333 11.6762 18.4236 12.2431 18.997L17.5418 24.2661L25.0209 14.6516C25.5193 14.0101 26.4378 13.8931 27.0732 14.3894C27.7191 14.885 27.836 15.7983 27.3377 16.4302L18.832 27.3573C18.578 27.6877 18.1869 27.8922 17.7668 27.9211C17.7474 27.9211 17.7176 27.9307 17.6886 27.9307Z" fill="#121212"/>
<path d="M17.6886 25.4217C17.2975 25.4217 16.9258 25.2757 16.6524 24.9935L10.1707 18.5481C9.59414 17.9747 9.59414 17.051 10.1707 16.4872C10.7473 15.9235 11.6762 15.9139 12.2431 16.4872L17.5418 21.7563L25.0209 12.1419C25.5193 11.5004 26.4378 11.3833 27.0732 11.8796C27.7191 12.3752 27.836 13.2893 27.3377 13.9212L18.832 24.8476C18.578 25.1787 18.1869 25.3824 17.7668 25.4113C17.7474 25.4113 17.7176 25.4217 17.6886 25.4217Z" fill="white"/>
</svg>
