<svg width="47" height="47" viewBox="0 0 47 47" fill="none" xmlns="http://www.w3.org/2000/svg">
<path d="M21.768 3C22.5378 1.66666 24.4623 1.66667 25.2321 3L42.1195 32.25C42.8893 33.5833 41.9271 35.25 40.3875 35.25H6.6125C5.0729 35.25 4.11065 33.5833 4.88045 32.25L21.768 3Z" fill="white"/>
<path d="M25.488 14.754L25.048 24.39H22.232L21.792 14.754H25.488ZM23.64 26.392C24.1973 26.392 24.6667 26.59 25.048 26.986C25.444 27.3673 25.642 27.8293 25.642 28.372C25.642 28.9293 25.444 29.406 25.048 29.802C24.6667 30.1833 24.1973 30.374 23.64 30.374C23.0973 30.374 22.628 30.1833 22.232 29.802C21.8507 29.406 21.66 28.9293 21.66 28.372C21.66 27.8293 21.8507 27.3673 22.232 26.986C22.628 26.59 23.0973 26.392 23.64 26.392Z" fill="#B90000"/>
</svg>
