<svg width="184" height="298" viewBox="0 0 184 298" fill="none" xmlns="http://www.w3.org/2000/svg">
<mask id="mask0_988_1399" style="mask-type:luminance" maskUnits="userSpaceOnUse" x="0" y="0" width="184" height="298">
<rect width="184" height="298" fill="white"/>
</mask>
<g mask="url(#mask0_988_1399)">
<path d="M92.6029 215.017C93.1743 218.676 93.6596 222.394 94.0588 226.179L100.618 225.467L99.3268 211.997C126.786 212.015 121.158 204.709 123.514 215.017C126.649 235.144 127.174 257.257 126.082 280.757C125.964 283.303 126.27 285.857 126.99 288.273L134.281 312.852C139.056 328.939 134.77 356.237 137.854 372.629C137.987 374.942 138.751 379.545 135.764 379.55C133.142 379.554 130.379 379.572 128.559 379.581C128.465 379.599 128.375 379.5 128.297 379.447C126.649 378.342 126.727 378.172 126.504 376.959C126.375 376.257 126.242 375.555 126.136 374.825C125.898 373.787 125.401 372.861 125.178 371.895C106.485 290.474 105.291 306.772 99.6869 228.72C98.09 228.787 96.4932 228.796 94.8886 228.76C94.8729 230.446 94.822 232.133 94.7594 233.815C95.914 248.654 95.9296 264.366 95.1743 280.757C95.0529 283.303 95.3582 285.853 96.0783 288.273L103.37 312.847C107.616 327.145 107.284 372.669 107.284 372.629C105.796 375.308 104.477 377.156 103.221 377.984C103.268 379.187 101.898 380.999 99.5812 380.999C96.3719 380.999 94.1684 377.926 94.1684 377.174C94.1684 376.503 94.6459 371.895 94.6459 371.895C94.6459 371.895 83.2724 322.372 74.7755 289.056C72.1571 273.85 70.5994 254.376 68.4586 211.997L82.3174 213.728L92.6029 215.017Z" fill="#BF6F37"/>
<path d="M100.653 227.293C100.051 227.36 99.4518 227.427 98.8491 227.49L104.516 286.587C104.779 289.325 105.276 292.036 105.992 294.662L126.942 379.581H128.418C128.41 379.545 127.659 374.481 127.682 374.445L121.631 344.163L107.616 292.591C106.9 289.965 106.403 287.254 106.141 284.516L100.653 227.293Z" fill="#FFE8D6"/>
<path d="M93.1331 218.65C93.2192 219.254 93.3014 219.853 93.3758 220.462C95.0039 220.26 96.6281 220.005 98.2406 219.706L98.8121 225.665C99.4109 225.597 100.018 225.535 100.62 225.468L99.3287 211.993L113.18 213.724C113.031 212.637 112.898 211.707 112.78 210.955H97.3992L98.0684 217.88C97.3913 218.01 96.7104 218.131 96.0333 218.243C95.0705 218.399 94.1037 218.533 93.1331 218.65Z" fill="#FFE8D6"/>
<path d="M90.7656 204.357L82.3235 213.73L89.8694 214.674L90.7656 204.357Z" fill="#FFE8D6"/>
<path d="M66.3887 210.91L73.6449 286.547C73.9071 289.284 74.4003 291.991 75.1165 294.617L94.5055 371.895L95.5975 373.448L97.707 374.472C97.5466 374.15 97.3861 373.81 97.2256 373.448H96.799L76.7407 292.595C76.0245 289.964 75.5353 287.258 75.2692 284.52L68.3143 211.997L82.177 213.733C82.0244 212.633 81.8913 211.689 81.7661 210.915L66.3887 210.91Z" fill="#FFE8D6"/>
<path d="M78.7716 24.237C80.889 22.206 86.8615 24.2773 89.5424 25.3554C95.6245 27.8204 100.125 31.4039 104.505 36.7588C108.552 41.6844 113.237 46.8246 118.336 50.1933C122.078 52.6538 132.129 54.7743 132.054 54.8191" stroke="#20233F" stroke-linecap="round" stroke-linejoin="round"/>
<path d="M92.6044 215.016L89.8687 214.672L89.489 219.002C90.7102 218.913 91.9234 218.797 93.1367 218.649C92.9684 217.432 92.7923 216.22 92.6044 215.016Z" fill="#BF6F37"/>
<path d="M40.0054 239.577V239.59C40.0054 239.89 40.0485 240.185 40.1346 240.467C40.7529 242.319 43.3713 238.968 44.0836 238.123C45.2891 236.691 46.4084 235.072 47.4847 233.502C47.5669 233.39 47.6804 233.309 47.8095 233.278C47.9348 233.247 48.0679 233.269 48.1853 233.345C48.2988 233.417 48.3849 233.533 48.4279 233.672C48.4749 233.815 48.4749 233.971 48.4279 234.105C47.0033 239.094 44.8037 247.719 47.4495 247.54C49.9426 247.37 51.3398 240.677 52.3613 236.745V236.74C52.3652 236.624 52.514 236.646 52.514 236.749C52.514 236.763 52.514 236.776 52.51 236.785C51.5316 241.281 50.0952 250.238 52.3222 249.745C53.0776 249.58 52.5492 250.748 53.7586 250.734C56.2399 250.712 59.1048 239.769 59.234 237.644C59.234 237.635 59.2379 237.626 59.2418 237.622C59.2457 237.617 59.2535 237.613 59.2614 237.608C59.2653 237.608 59.2731 237.608 59.2809 237.617C59.2849 237.622 59.2927 237.622 59.2966 237.631C59.4688 238.239 59.7506 238.794 60.1263 239.264C60.4981 239.733 60.96 240.105 61.4727 240.355C61.4805 240.355 61.4883 240.355 61.5001 240.355C61.5079 240.346 61.5157 240.337 61.5157 240.333C61.6919 239.715 63.8914 231.94 63.9971 229.614C64.1497 226.294 64.3376 221.208 62.3807 218.309C62.3768 218.3 62.3729 218.296 62.3729 218.282L65.6448 166.504C67.2338 166.302 68.8346 166.195 70.4353 166.164C85.3469 165.851 105.527 170.177 114.865 170.736C115.859 174.011 118.528 182.014 121.855 190.666C121.855 190.702 123.307 194.366 123.307 194.366C129.037 208.699 136.164 223.234 140.281 220.103C139.639 201.398 129.06 166.714 128.113 155.096C125.041 151.369 120.822 152.21 117.812 155.49C115.612 151.888 113.969 147.858 112.626 143.751C110.81 138.194 109.476 132.459 107.914 126.809C106.345 121.127 104.532 115.468 101.832 110.35C100.153 107.169 98.1686 104.203 96.5757 100.956C95.245 98.1192 94.1178 95.1621 93.2137 92.1066C91.9222 88.0266 90.7441 83.8169 89.069 79.9069H91.2568C91.2646 79.9069 91.2685 79.9069 91.2764 79.9024C91.2803 79.898 91.2881 79.8935 91.2881 79.8846L93.0219 79.9069C91.249 66.9735 90.4858 58.6436 88.9359 41.7286V41.7241C88.9359 40.306 88.4428 38.946 87.5661 37.9439C86.6855 36.9373 85.4957 36.3736 84.255 36.3691H84.2511V36.3736C84.2511 36.3826 84.2511 36.387 84.2472 36.3915C84.2472 36.396 84.2433 36.4005 84.2433 36.4049C84.2393 36.4094 84.2354 36.4094 84.2315 36.4139C84.2237 36.4139 84.2237 36.4139 84.2198 36.4139H67.2886C66.6741 36.4139 66.0675 36.557 65.5039 36.8299C64.9364 37.1028 64.4276 37.5055 64.001 38.0154C63.5783 38.521 63.2456 39.1204 63.0304 39.7736C62.8112 40.4312 62.7134 41.1336 62.7408 41.8315C62.7486 42.0865 62.7603 42.3504 62.7721 42.6099V42.6189C63.5392 54.5233 64.8777 67.9622 69.2768 68.6377H69.2846C69.7895 68.6109 70.2866 68.4454 70.7249 68.159L73.9851 66.0967C73.993 66.0922 74.0047 66.0922 74.0165 66.0967C74.0204 66.0967 74.0243 66.1056 74.0282 66.1101C74.0282 66.1191 74.0321 66.1235 74.0321 66.128L74.0125 79.8711C74.0125 79.8801 74.0165 79.8935 74.0243 79.898C74.0282 79.9024 74.036 79.9069 74.0439 79.9069H87.2647C89.4643 84.7519 90.7637 90.0845 92.4858 95.1666C93.5503 98.3877 94.8927 101.479 96.4974 104.387C98.1569 107.366 99.9924 110.216 101.46 113.334C103.914 118.542 105.534 124.187 107.037 129.824C108.552 135.515 109.941 141.268 111.933 146.77C113.186 150.336 114.791 153.723 116.712 156.876C115.573 158.554 114.775 160.496 114.376 162.567C113.973 164.638 113.98 166.786 114.391 168.852C112.29 168.709 110.196 168.486 108.102 168.208C104.532 167.734 78.1534 163.149 65.7661 164.616L66.224 157.342C66.224 157.333 66.2241 157.324 66.2201 157.319C66.2162 157.31 66.2123 157.306 66.2045 157.301L51.0032 151.338L49.9504 150.926L48.4358 150.331C48.4279 150.331 48.4279 150.331 48.4201 150.331C48.4162 150.331 48.4123 150.336 48.4084 150.336C48.4005 150.345 48.3966 150.345 48.3966 150.349C48.3927 150.358 48.3927 150.363 48.3927 150.367C48.06 158.563 48.7489 204.096 49.1637 207.071C49.1637 214.493 48.3771 210.395 47.246 220.304C46.8976 223.337 46.8428 226.048 44.8703 229.668C42.4476 234.105 39.9858 237.42 40.0054 239.577Z" fill="#BF6F37"/>
<path d="M40.0014 239.506C40.0014 239.515 40.0014 239.524 40.0053 239.524C40.0053 239.533 40.0132 239.537 40.021 239.542C40.021 239.542 40.0288 239.546 40.0366 239.542C40.0406 239.542 40.0445 239.537 40.0523 239.533C42.4867 237.3 44.7332 234.227 47.105 227.758C49.1832 222.099 47.8251 210.955 53.872 210.955C54.0207 210.955 53.8641 210.745 53.6058 210.436C51.9542 208.463 51.0345 205.833 51.0384 203.095V151.41C51.0384 151.401 51.0345 151.392 51.0306 151.388C51.0227 151.37 51.011 151.357 51.0032 151.343C50.8036 151.035 50.6157 150.726 50.4278 150.422C50.4239 150.417 50.42 150.413 50.4122 150.408C50.4083 150.408 50.4082 150.408 50.4004 150.408C50.3965 150.404 50.3926 150.408 50.3887 150.408C50.3848 150.408 50.3769 150.413 50.373 150.417C50.2282 150.592 50.0912 150.762 49.9503 150.932C49.4259 151.562 48.9327 152.157 48.467 152.726C48.4631 152.735 47.6999 152.828 47.6999 152.842C48.5257 182.699 48.3261 192.823 48.3731 198.863C48.4279 206.736 49.1363 205.931 46.9641 216.475C45.6999 222.604 44.9211 228.653 43.4378 231.409C42.6198 232.898 39.9388 237.582 40.0014 239.506Z" fill="#FFE8D6"/>
<path d="M62.6867 42.7148C62.6788 42.7148 62.6749 42.7148 62.671 42.7148C62.6671 42.7193 62.6632 42.7238 62.6593 42.7283C62.6553 42.7327 62.6514 42.7327 62.6475 42.7372C62.6475 42.7417 62.6475 42.7506 62.6475 42.7551C63.0898 53.1967 64.5144 68.7829 69.1523 68.7337C69.1601 68.7337 69.164 68.7292 69.1679 68.7292C69.1718 68.7248 69.1758 68.7203 69.1797 68.7203C69.1836 68.7114 69.1836 68.7069 69.1875 68.7024C69.1875 68.6979 69.1875 68.6935 69.1875 68.6845C68.0094 63.589 64.5105 48.2756 65.8686 44.4238C65.8725 44.4193 65.8725 44.4148 65.8725 44.4059C65.8686 44.4014 65.8686 44.3969 65.8647 44.3925C65.5829 43.9138 64.0722 42.943 62.6867 42.7148Z" fill="#FFE8D6"/>
<path d="M63.5645 45.8308C64.359 46.144 65.2631 45.974 66.1163 45.6161C69.0791 44.4037 71.1573 48.2063 71.4156 48.7119C71.4195 48.7163 71.4235 48.7208 71.4313 48.7253C71.4313 48.7298 71.4391 48.7342 71.447 48.7342C71.4509 48.7342 71.4548 48.7298 71.4626 48.7253C71.4665 48.7208 71.4704 48.7163 71.4704 48.7119C71.7601 48.1616 74.1944 43.6745 76.4331 45.7861C78.0574 47.3429 77.4155 50.1479 76.6249 52.2192C76.2688 53.1542 76.0926 54.1608 76.1122 55.1719C76.1318 56.1874 76.3431 57.185 76.7345 58.0932C78.9654 63.1484 83.9125 72.136 91.7362 72.4358C99.5873 72.74 105.708 70.1497 110.358 78.6855C110.362 78.6899 110.366 78.6944 110.366 78.6944C110.374 78.6989 110.382 78.6989 110.382 78.6989C119.775 78.6944 118.315 71.8408 118.162 71.21C118.158 71.201 118.158 71.201 118.158 71.1921C118.162 71.1876 118.162 71.1786 118.166 71.1786C118.17 71.1742 118.174 71.1697 118.178 71.1652C118.182 71.1652 118.186 71.1608 118.194 71.1608C118.695 71.1473 123.54 70.946 125.254 68.1768C125.258 68.1679 125.262 68.1679 125.262 68.1589C125.262 68.15 125.262 68.1455 125.258 68.141C125.254 68.1321 125.254 68.1276 125.246 68.1231C125.242 68.1231 125.234 68.1187 125.231 68.1187C124.15 68.0694 122.557 66.8034 122.303 66.5887C122.299 66.5887 122.295 66.5842 122.291 66.5797C122.291 66.5708 122.287 66.5663 122.287 66.5618C122.287 66.5574 122.291 66.5484 122.291 66.5439C122.295 66.5395 122.299 66.535 122.303 66.5305C122.64 66.2263 125.411 63.6584 126.291 61.4395C126.291 61.435 126.295 61.426 126.291 61.4216C126.291 61.4126 126.291 61.4082 126.287 61.3992C126.283 61.3992 126.279 61.3947 126.276 61.3903C126.268 61.3858 126.264 61.3858 126.26 61.3858C119.129 62.2313 111.755 52.17 107.912 46.6898C101.826 38.0556 97.8574 27.8601 88.0728 24.2767C84.4486 22.9704 80.6014 22.6617 76.8558 23.373C72.578 24.2632 68.5116 26.8759 65.8541 30.8574C59.7016 40.6369 62.0499 45.0211 63.5645 45.8308Z" fill="#20233F"/>
<path d="M42.3964 153.263C43.4375 150.637 44.5608 150.507 45.6801 150.404C45.8719 144.861 45.6488 140.562 45.8719 137.068C47.5783 121.401 48.9247 126.233 48.9247 117.133C48.9247 110.772 49.5118 100.755 49.5118 98.9031C49.5118 86.5468 56.7523 80.6327 59.4685 78.8969C60.7797 78.1632 62.1612 77.5906 63.5819 77.2014C65.0379 76.7942 66.5369 76.584 68.0437 76.584H97.2877C101.612 76.6108 105.808 78.2706 109.221 81.3127C112.63 84.3548 115.068 88.6003 116.144 93.3871L129.138 149.769C129.138 149.778 129.138 149.787 129.146 149.787C129.154 149.796 129.158 149.8 129.17 149.796C133.921 149.742 133.561 153.844 134.512 157.611C134.782 158.662 134.798 159.772 134.563 160.832C134.332 161.892 133.854 162.863 133.185 163.642C132.516 164.42 131.678 164.979 130.751 165.266C129.831 165.547 128.857 165.547 127.937 165.257C121.444 163.194 121.366 163.677 116.411 165.033C116.403 165.033 116.399 165.037 116.395 165.037C116.391 165.042 116.387 165.046 116.387 165.051C116.383 165.06 116.383 165.078 116.387 165.082C119.232 170.831 122.512 176.28 126.195 181.366C126.195 181.371 126.195 181.371 126.195 181.371C126.195 181.371 126.195 181.371 126.199 181.371C133.753 189.531 143.882 195.754 151.705 203.484C155.255 207.023 161.944 219.598 163.944 224.694C164.817 226.765 155.294 222.229 150.195 228.362C145.655 233.847 143.58 240.414 137.342 243.998C127.823 249.442 122.266 245.729 113.953 239.681C105.792 233.717 100.086 233.762 90.9043 234.54C88.2977 234.755 86.2194 234.366 84.5561 233.073C81.7577 230.912 78.1335 231.087 75.3351 233.243C72.9947 235.059 70.4977 236.352 67.1709 234.845C64.7404 233.74 63.535 231.431 61.6446 229.941C60.6114 229.069 59.9538 228.59 59.8521 227.982C59.5351 226.076 62.5996 223.334 59.9304 206.933C58.22 196.519 56.8345 185.701 58.3139 169.569C58.3139 169.565 58.3139 169.556 58.3139 169.547C58.31 169.542 58.3061 169.533 58.2983 169.525C57.9734 169.359 57.6016 169.176 57.1594 168.974C53.8561 167.471 48.3181 166.183 44.7682 163.405H44.7643C41.5354 160.537 40.7487 157.302 42.3964 153.263Z" fill="#FF95BD"/>
<path d="M58.8424 228.621C58.8385 228.63 58.8345 228.63 58.8345 228.639C58.8345 228.648 58.8385 228.652 58.8424 228.652C58.8463 228.666 58.8541 228.675 58.8659 228.675C59.8639 228.845 60.8149 229.274 61.6447 229.941C62.6936 224.765 63.9538 219.137 63.4685 213.375C62.5644 202.49 61.4685 191.95 62.447 180.896C62.6662 178.637 64.1769 172.736 65.3119 166.665C66.1534 162.16 66.7874 157.566 66.533 154.291V154.286H66.5291L65.6015 153.548L64.2904 152.497L64.263 152.475C64.2591 152.484 64.2552 152.497 64.2513 152.506C64.1221 152.806 64.0008 153.101 63.8794 153.396C63.7973 153.602 63.7151 153.803 63.6368 154C63.5977 154.103 63.5585 154.197 63.5233 154.295C61.3237 159.811 59.2064 164.679 58.314 169.569C55.6017 184.533 58.4627 197.113 59.676 207.613C60.9519 215.374 61.6368 222.165 58.8424 228.621Z" fill="#F3E0E7"/>
<path d="M63.8488 163.443C63.8371 165.46 64.1776 167.455 64.8429 169.325C65.5083 171.186 66.4945 172.886 67.7352 174.314C68.9798 175.741 70.4553 176.877 72.0874 177.651C73.7155 178.425 75.4611 178.823 77.2223 178.819H81.3827L105.903 174.068C113.276 174.068 115.433 171.951 115.433 163.528L115.801 119.14C115.801 110.711 113.276 105.629 105.903 105.629L77.2223 104.256C69.8565 104.256 63.8449 111.458 63.8449 114.979L63.8488 163.443Z" fill="#9272F5"/>
<path d="M68.0064 163.444C67.9946 165.461 68.3391 167.457 69.0044 169.322C69.6737 171.183 70.6599 172.879 71.9006 174.306C73.1452 175.733 74.6207 176.869 76.2489 177.643C77.8731 178.422 79.6187 178.82 81.3838 178.82H105.904C109.45 178.811 112.847 177.2 115.356 174.333C117.864 171.47 119.277 167.582 119.281 163.533V114.98C119.277 110.927 117.864 107.044 115.356 104.177C112.847 101.313 109.45 99.6984 105.904 99.6895H81.3799C77.834 99.6984 74.4368 101.313 71.928 104.177C69.4193 107.044 68.0103 110.927 68.0025 114.98L68.0064 163.444Z" fill="#443B60"/>
<path d="M67.0194 74.937H71.9312C72.1543 74.928 72.3696 74.9906 72.5574 75.1249C72.7453 75.2546 72.894 75.4425 72.9919 75.6706C77.1366 85.5843 79.3831 94.3438 79.9428 104.056C86.3458 103.815 92.7488 103.846 99.1557 104.146C99.8015 104.172 100.443 104.217 101.089 104.253C100.138 94.8582 97.9424 86.3314 94.8309 76.6683C94.7722 76.4714 94.7527 76.2567 94.7801 76.0464C94.8036 75.8362 94.874 75.6349 94.9836 75.4604C95.0893 75.2904 95.2302 75.1472 95.3945 75.0488C95.5589 74.9504 95.7429 74.8967 95.9268 74.8967H100.839C101.058 74.8922 101.277 74.9549 101.465 75.0891C101.653 75.2143 101.805 75.4067 101.899 75.6349C107.226 88.3714 109.418 99.9493 108.925 112.35C108.917 112.686 108.795 113.003 108.584 113.236C108.369 113.469 108.087 113.603 107.794 113.598H102.729C102.432 113.598 102.142 113.464 101.931 113.223C101.719 112.977 101.602 112.65 101.598 112.306C101.551 110.252 101.434 108.185 101.265 106.114C95.2497 105.774 89.2342 105.667 83.2148 105.805C82.1541 105.828 81.0895 105.859 80.0289 105.904C80.1072 108.06 80.1033 110.207 80.0211 112.35C80.0132 112.686 79.8919 113.003 79.6766 113.241C79.4653 113.473 79.1835 113.603 78.8861 113.603H73.8255C73.5202 113.598 73.2228 113.464 72.9997 113.223C72.7766 112.981 72.6396 112.654 72.6161 112.31C72.3891 100.343 69.8569 89.1051 65.9274 76.7085C65.8648 76.5117 65.8452 76.297 65.8726 76.0867C65.9 75.8764 65.9705 75.6751 66.0761 75.5006C66.1818 75.3262 66.3227 75.1875 66.4871 75.0891C66.6515 74.9907 66.8315 74.937 67.0194 74.937Z" fill="#2D0011"/>
<path d="M104.566 98.7715C113.106 98.7715 120.793 105.509 120.793 116.035C120.793 126.866 113.145 133.295 104.566 133.295H80.0697C71.5298 133.295 63.8431 126.969 63.8431 116.035C63.8431 106.345 71.4906 98.7715 80.0697 98.7715H104.566Z" fill="#2F2A3E"/>
<path d="M61.9167 43.9289C62.3433 44.9937 62.9265 45.6066 63.5527 45.8481C64.5233 42.1261 66.8677 30.1992 76.6992 23.4753C76.707 23.4708 76.7109 23.4664 76.7148 23.4574C76.7148 23.4485 76.7148 23.4395 76.7148 23.4306C76.7109 23.4261 76.707 23.4171 76.6992 23.4127C76.6953 23.4082 76.6835 23.4082 76.6757 23.4082C72.4488 24.2716 68.5037 26.5264 65.8853 30.4542C63.995 33.2995 60.406 40.2113 61.9167 43.9289Z" fill="#9272F5"/>
<path d="M75.9375 47.9043L74.7281 52.0961" stroke="#04051F" stroke-linecap="round" stroke-linejoin="round"/>
<path d="M73.8608 47.9473L75.1289 50.7021" stroke="#04051F" stroke-linecap="round" stroke-linejoin="round"/>
<path d="M74.0283 66.0615L77.5625 63.2754" stroke="#04051F" stroke-linecap="round" stroke-linejoin="round"/>
<path d="M79.1128 247.67L87.4258 260.715" stroke="#04051F" stroke-linecap="round" stroke-linejoin="round"/>
<path d="M87.4258 286.844H82.4396" stroke="#04051F" stroke-linecap="round" stroke-linejoin="round"/>
<path d="M121.207 286.844H116.483" stroke="#04051F" stroke-linecap="round" stroke-linejoin="round"/>
<path d="M118.863 260.712L112.668 254.189" stroke="#04051F" stroke-linecap="round" stroke-linejoin="round"/>
<path d="M107.264 188.715C107.832 191.735 110.137 195.103 112.102 197.394" stroke="#04051F" stroke-linecap="round" stroke-linejoin="round"/>
<path d="M76.918 211.999L74.0844 203.355" stroke="#04051F" stroke-linecap="round" stroke-linejoin="round"/>
<path d="M146.035 224.951L141.992 216.961" stroke="#04051F" stroke-linecap="round" stroke-linejoin="round"/>
<path d="M99.2537 145.131L105.414 152.038" stroke="#04051F" stroke-linecap="round" stroke-linejoin="round"/>
<path d="M82.4374 154.289L94.6055 168.238" stroke="#04051F" stroke-linecap="round" stroke-linejoin="round"/>
<path d="M126.356 246.42C128.203 235.187 127.252 220.545 123.475 205.902" stroke="#443B60" stroke-linecap="round" stroke-linejoin="round"/>
<path d="M94.8008 234.23L93.2861 207.674" stroke="#443B60" stroke-linecap="round" stroke-linejoin="round"/>
<path d="M99.707 234.233L98.7795 225.299" stroke="#443B60" stroke-linecap="round" stroke-linejoin="round"/>
<path d="M93.264 139.26H94.0154C94.2933 139.26 94.5712 139.197 94.8295 139.072C95.0839 138.956 95.3187 138.772 95.5144 138.553C95.714 138.325 95.8667 138.061 95.9763 137.766C96.0819 137.471 96.1328 137.157 96.1328 136.84V129.02C96.1328 128.702 96.0819 128.389 95.9763 128.094C95.8667 127.799 95.714 127.535 95.5144 127.311C95.3187 127.087 95.0839 126.908 94.8295 126.788C94.5712 126.662 94.2933 126.6 94.0154 126.6H93.264C92.9861 126.6 92.7082 126.662 92.4499 126.788C92.1955 126.908 91.9607 127.087 91.765 127.311C91.5654 127.535 91.4127 127.799 91.3071 128.094C91.1975 128.389 91.1466 128.702 91.1466 129.02V136.84C91.1466 137.157 91.1975 137.471 91.3071 137.766C91.4127 138.061 91.5654 138.325 91.765 138.553C91.9607 138.772 92.1955 138.956 92.4499 139.072C92.7082 139.197 92.9861 139.26 93.264 139.26Z" fill="#1C1C1C"/>
<path d="M44.7136 163.434C44.7175 163.434 44.7253 163.438 44.7292 163.438C44.7371 163.438 44.741 163.438 44.7488 163.434C44.7527 163.434 44.7566 163.429 44.7606 163.425C44.7645 163.416 44.7645 163.411 44.7645 163.407C44.8427 161.134 44.8936 158.325 45.2145 157.314C46.8427 152.218 48.5022 151.914 48.8035 146.04C49.1049 140.206 48.9914 136.019 50.7291 130.574C54.2437 119.52 52.9248 113.342 52.96 101.464C52.9991 91.6579 55.23 85.6498 59.5078 78.9527C59.5117 78.9482 59.5117 78.9393 59.5117 78.9303C59.5117 78.9214 59.5078 78.9124 59.5078 78.908C59.5 78.9035 59.4922 78.8945 59.4882 78.8945C59.4804 78.8945 59.4726 78.8945 59.4687 78.899C56.1693 80.8093 53.3983 83.7261 51.4727 87.3274C49.5432 90.9332 48.5256 95.0758 48.5413 99.3034C48.4395 118.554 48.7918 118.885 48.2047 121.457C46.8662 128.288 45.4807 132.113 45.4807 137.696V137.714C45.4807 137.902 45.4768 139.808 45.4455 149.972C45.4455 149.977 45.4416 149.981 45.4416 149.986C45.4416 149.99 45.4415 149.995 45.4376 149.999C45.4337 149.999 45.4298 150.004 45.422 150.004C45.422 150.008 45.4181 150.008 45.4102 150.008C44.7997 149.986 44.197 150.169 43.6803 150.54C43.1598 150.912 42.7488 151.449 42.4984 152.084C40.197 157.671 41.7547 161.098 44.7136 163.434Z" fill="#F3E0E7"/>
<path d="M56.707 154.292L45.4431 150.016" stroke="#04051F" stroke-linecap="round" stroke-linejoin="round"/>
<path d="M58.8577 97.7012L61.7695 104.528" stroke="#04051F" stroke-linecap="round" stroke-linejoin="round"/>
<path d="M95.3571 107.812L100.574 113.686" stroke="#04051F" stroke-linecap="round" stroke-linejoin="round"/>
<path d="M57.3086 142.798L56.7059 139.26" stroke="#04051F" stroke-linecap="round" stroke-linejoin="round"/>
<path d="M129.141 149.793L123.513 152.038" stroke="#04051F" stroke-linecap="round" stroke-linejoin="round"/>
<path d="M53.755 218.775C53.755 218.775 54.5143 224.175 55.3832 226.595C57.0074 231.132 58.4438 232.425 58.4438 232.425L59.2383 237.448" stroke="#04051F" stroke-linecap="round" stroke-linejoin="round"/>
<path d="M62.832 235.428C60.6286 234.699 60.1824 237.549 59.9632 238.944" stroke="#04051F" stroke-linecap="round" stroke-linejoin="round"/>
<path d="M47.7059 225.604C47.8937 229.357 49.6432 234.667 52.3633 236.738" stroke="#04051F" stroke-linecap="round" stroke-linejoin="round"/>
<path d="M114.367 62.1141C108.586 62.6777 97.1738 46.5188 94.1132 40.7344" stroke="#443B60" stroke-linecap="round" stroke-linejoin="round"/>
<path d="M118.148 71.1619L115.464 68.5547" stroke="#443B60" stroke-linecap="round" stroke-linejoin="round"/>
<path d="M90.5234 67.5082C87.0441 66.9892 82.8132 60.5158 81.3025 56.9727" stroke="#443B60" stroke-linecap="round" stroke-linejoin="round"/>
<path d="M90.9805 30.3234C87.6146 26.9503 82.0609 26.0913 78.2841 28.7218" stroke="#443B60" stroke-linecap="round" stroke-linejoin="round"/>
<path d="M52.6196 249.773L55.4297 238.982" stroke="#04051F" stroke-linecap="round" stroke-linejoin="round"/>
</g>
</svg>
